<svg xmlns="http://www.w3.org/2000/svg" xmlns:xlink="http://www.w3.org/1999/xlink" width="815.762" height="554.992" viewBox="0 0 815.762 554.992">
  <defs>
    <clipPath id="clip-path">
      <rect id="Rectangle_1225" data-name="Rectangle 1225" width="206.062" height="125.883" fill="none"/>
    </clipPath>
    <clipPath id="clip-path-2">
      <rect id="Rectangle_1224" data-name="Rectangle 1224" width="244.892" height="327.06" fill="none"/>
    </clipPath>
    <clipPath id="clip-path-3">
      <rect id="Rectangle_1226" data-name="Rectangle 1226" width="80.928" height="121.521" fill="none"/>
    </clipPath>
    <clipPath id="clip-path-4">
      <rect id="Rectangle_1227" data-name="Rectangle 1227" width="269.734" height="202.607" fill="none"/>
    </clipPath>
    <clipPath id="clip-path-5">
      <rect id="Rectangle_1219" data-name="Rectangle 1219" width="522.311" height="112.422" fill="none"/>
    </clipPath>
    <clipPath id="clip-path-6">
      <rect id="Rectangle_1223" data-name="Rectangle 1223" width="261.157" height="76.496" fill="none"/>
    </clipPath>
    <clipPath id="clip-path-8">
      <rect id="Rectangle_1220" data-name="Rectangle 1220" width="259.554" height="61.304" fill="none"/>
    </clipPath>
    <clipPath id="clip-path-9">
      <rect id="Rectangle_1221" data-name="Rectangle 1221" width="260.089" height="60.16" fill="none"/>
    </clipPath>
  </defs>
  <g id="Group_1076" data-name="Group 1076" transform="translate(-206.52 -4393.398)">
    <g id="Group_1002" data-name="Group 1002" transform="translate(514.22 4816.383)">
      <g id="Group_1016" data-name="Group 1016" transform="translate(0 0)" clip-path="url(#clip-path)">
        <path id="Path_1538" data-name="Path 1538" d="M192.324,84.287c-17.79-40.047,16.58-85.3-48.2-84.27-64.773-1.03-30.4,44.222-48.193,84.27-2.536,27.459,22.834,41.375,48.193,41.6,25.365-.221,50.733-14.138,48.2-41.6m-48.2-43.718c-21.144,1.284-38.651,17.239-22.043,1.646-18.006-20.677,2.475-29.028,22.043-29.711,19.568.683,40.049,9.034,22.043,29.711,16.608,15.592-.9-.362-22.043-1.646" transform="translate(13.563 0)" fill="#fff"/>
        <path id="Path_1539" data-name="Path 1539" d="M67.063,111.868c-2.87.281,1.111-2.134-1.337-2.349-3.239,5.321-10.332,4.347-15.7,5.344-3.128.98-22.591,1.619-12.571-1.711.682-1.547,3.465-1.175,5.248-1.795,1.666-.229,2.379-1.465,4.185-1.522-4.375-1.058-2.852-1.057.735-1.859-1.082-.928-4.586-.574-1.034-1.376,20.881-.456,8.95-8.254,8.546-20.809-5.458,6.065-10.836,29.444-17.219,23.442-.111-4.153-.425-.808-1.042,1.222-4.076-1.7.606-22.435-6.4-8.138-5.68,7.094-3.476,5.257-10.6,14.395.934-2.225,2.984-6.605-.227-4.652-.325.461-1.125.079-.718-.491,1.2-3.13-2.5,3.021-3.388,4.223-1.755,2.335-.153-2.2-1.606-.726-1.008-3.424,2.883-8.989,5.354-12.98,7.328-9.617,12.478-29.017,21.264-30.4,2.181,3.523.33,11.8,1.959,16.675,2.153-3.611,14.2-24,11.235-16.142,1.122-.267-.356.605.324,1.409-1.546,3.884.436-.265,1.733-.282-2.558,9.312,3.965-2.123.252,6.7-2.6,5.119,6.2-6.558,4.844-5.484-2.141-.913,2.08-1.717,2.917-1.752,2.828-.186-.378-2.356-1.125-.325-1,1.594-2.069-3.713-2.312-1.142-2.84,2.371-3.134-8.007-4.476-10.037-7.578-3.523-10.931,4.277-14.95,8.988-.953-2.822-1.671,1.754-3.88,1.248-.837-.379.756-1.976-.3-1.593-1.07-.065.017-1.288.171-1.8-.232-1.254-2.408,3.286-3.621,2.9-.234-2.734,3.951-3.947-.115-3.4-.4.559-1.711,2.3-1.193.49,1.748-6,23.069-29.846,15.033-28.9-5.718,2.149-23.424,42.275-19.569,27.088-3.215,6.222-2.174.582-3.092,1.051-.8,1.609-7.6,11.872-7.28,9.4a37.809,37.809,0,0,0,2.254-7.442c-1.142.718-1.432,3.266-2.866,3.335-.116-1.324,3.592-6.261.114-2.6,1.377-5.427-.827.121-2.716,1.943,1.277-9.1,26.367-36.21,17.814-37.054-4.624-.148-22.321,4.416-18.716,1.3-.366-.091-.948.174-1.015-.368-.156-.821,2.861-.456,1.1-.792-.566-2.169,5.572-2.713,7.538-3.7-5.088-.129-8.375-.183-1.267-1.426-.41-.387-.92-.539-1.049-1.064-.464-.42-2.461.224-1.587-.878,23.632-6.579,48.4-7.709,74.97-10.134,2.667.082,5.975-1.006,8.339.04-2.941,1.941-7.688,1.789-11.275,2.7-2.141.362-3.577.3-4.3,1.642-7.223,1.732,5.482-.4,7.838.78-.983,1.574-11.1,1.923-7.806,2.372.837.08,4.922-.14,3.55.958-2.484.471-5.029.562-7.5,1.148,3.761-.471,7.867-.324,1.651.7-10.82,2-22.679,2.054-32.945,5.4-1.821,4.3,12.047-2.316,15.726.369,8.463,2.464,10.8,11.934,5.231,18.525-3.753,4.545-8.011,7.236-3.5,12.1.237-.934,2.292-3.06.627-3.387-.574-3.99,5.409-8.979,7.367-13A215.064,215.064,0,0,1,89.227,28.731c.615-2.38,1.361.639,1.7,1.411.309-1.768,1.353-2.917,1.986-.508,1.272-1.546,1.98.974,1.829,2.369.265,6.766-2.993,17.473.83,21.8.12,1.594-1.517,3.01-1.6,4.685-.591,2.057,1.216,8.638-1.046,8.5-1.035-4-.752,1.2-3.006.956-2.88,1.961-1.169-3.319-3.111,2.724,3.927-.071,11.114-.9,3.4.724,7.056.857-9.4,1.078-2.127,1.9,1.548-.184,13.7,1.727,10.526,2.782,3.522,7.285-32.812-1.054-33.478,10.07,4.617,19.214.511,21.443,13.358,3.136-3.09,1.018,4.706-7.912,5.766-9.13.757.124-.148,2.951.82,1.741.28-.76.491-.055.942-.046,1.486-.628,1.112,3.129,1.892,1.246,2.667-5.635,1.68.4,4.143-2.59.6,3.933,1.26,8.182,1.546,12.29-1.1,9.275,3.162,3.379,1.993,7.447-.451.827-1.809.893-1.212,2.341,4.605-7.044,8.047-22.719,12.7-28.839,1.7,1.857.372-1.037,1.176-1.588,2.751,2.373,2.117,7.554,3.4,11.011.155,12.684,7.131-15.541,7.732-9.384.417-.9,1.3-2.483,1.605-.712.6-.981,2.735-4.191,1.653-1.77-.022,3.054,1.936-2.474,2.592-.209,1.741-.767,2.167-2.71,3.048-4.209,1.178-.928.39,1.127.522,1.725.731-.73.9-2.392,1.916-2.347-.957,5.506-4.863,11.093-6.667,16.653-4.648,9.093-6.43,22.046-13.488,28.822-1.174.421.943-5.006-1.329-1.864-1.458.43-1.105,1.514-2.275,2.375-.973-2.28-.89-9.211-2.349-9.908-.933,2.9-6.853,19.562-6.958,10.7-2.036,1.886-1.2-.223-2.633-.71-1.637-.888.8,5.629-1.649,2.989.364,3.327-.829,2.758-1.911.414-1.186-3.88-.116,2.01-1.064,2.984-1.674-1.791-1.353-5.215-3.137-7.281-2.128-.492-1.849-2.692-2.271-5.222-14.267-3.529-20.6,22.3-17.915,5.655m-9.7-59.826c1.989-1.606,5.3-2.564,5.74-5.682-.019-10.674-15.5,10.55-5.74,5.682m12.5,14.143c-1.921,1.257-4.643,6.642-.509,5.82,4.683-1.7,17.024,1.976,16.666-4.073.876-9.559-3.2-6.793-10.268-5.817-1.638.355-5.011,7.906-5.889,4.07m15.1-17.473c-1.5,2.095-2.943,4.039-4.287,6.084,4.691.342,4.569-2.049,4.287-6.084m-.184,46.462a14.8,14.8,0,0,0-2.151,3.153c2.853.478,2.482-.742,2.151-3.153M67.15,66.088c-.755.336-.765.352-.5.909a6.636,6.636,0,0,0,.5-.909M46.524,38.566c.288.079.51-.08.767-.163-.355-.526-.662-.5-.767.163" transform="translate(1.697 2.477)" fill="#d42828"/>
        <path id="Path_1540" data-name="Path 1540" d="M116.738,63.734c-7.082,9.473-5.528-2.569-6.574-7.971-1.706-5.723-8.167,19.461-10.7,19.449.374-1.655,1.077-4.451-.8-2.288-.533-.627.845-1.6.074-2.183-.24-1.126-.471-.223-.994-.152-.5-.369.323-1,.108-1.488-2.316,1.569-.032-1.807.147-2.984a12.085,12.085,0,0,0-2.423,3.206c1.306-4.769,2.008-5.909-1.93-1.688,1.905-5.367,4.2-10.546,6.479-15.734-8.459,13.582,9.154-20.444,9.122-25.364,1.506-.185,2.692,3.117,3.785,2.452,4.583-7.048,3.383,8.074,4.3,11.344.323,14.472,8.385-15.434,13.067-19.7,1.445-.1-2.5,4.863-.187,5.313,1.467-.523,1.282-3.348,2.734-3.9.92,3.093,1.5-3.257,3.374-3.134,4.493-5.857,1.182,1.613.232,4.916,1.171,4.6-2.326,10.654-4.864,16.34-5.044,12.094-5.858,16.557-11.926,23.611-.7,1.675-1.669,1.467-1.135-.368-1.074.374-1.042,2.427-2.113,2.776-.372-.706.469-2.055.22-2.458" transform="translate(13.264 2.371)" fill="#d42828"/>
        <path id="Path_1541" data-name="Path 1541" d="M121.322,79.542c5.956-.326-.7,2.4,3.491,2.779.8.089,3.386-.482,2.743.969-2.635,3.352-12.547,2.023-10.772,7.41,3.985.017,9.054-2.147,12.263.406-.57,1.077-3.458-.128-3.5,1.349.573,1.336,7.781-1.225,6.426,1.017-.053.481,1.132.909-.72,1.207-7.329,3.693-18.088,1.119-24.428,6.762-.562-.953.381-2.177-.65-3.171-4.876-.029,3.413-10.7,3.552-14.308,9.215-21.3,1.371-15.172,24.195-16.2,1.058.148-1.362.47-1.731.644.777-.074,3.122-.112,1.773,1.074-3.088,1.256.976.111.553,1.824-.272,1.661,2.355.951,3.377,1.354,1.83,4.754-16.956-1.9-16.572,6.882" transform="translate(14.821 9.586)" fill="#d42828"/>
        <path id="Path_1542" data-name="Path 1542" d="M88.936,71.545c.418-3.052.715-5.175-1-1.1.412-2.1-.808-1.835-.328-3.64.413-1.658.464-1.881-.357-.189.522-4.755-.428-1.708-2.506.421-.124-1.692,2.23-4.6-.147-3.6-.237-.194-.127-.437-.048-.669-.095-4.154,6.124-18.675,11-31.066.506-1.136,1.99-7.561,2.685-4.19-.187.613.559.664.652.1.132-.825,1.731-3.491,1.76-1.365-.4,1.927-.637,3.152,1.325,3.727,3.187,2.815,2.12-2.119,3.829-.44-4.216,14.4-11.2,28.08-16.869,42.01" transform="translate(11.962 3.603)" fill="#d42828"/>
        <path id="Path_1543" data-name="Path 1543" d="M12.455,100.235c-1.383.972-3.085,6.655-4.565,4.616-.585.69-3.247,2.74-3.28,1.364.562-2.529-3,4.737-4.61,4.659,2.048-9.348,10.2-19.963,16.18-30.326,1.767-4.279,3.079,0,4.652-.991,1.32-1.59,2.236,2.242,4.722.08,2.018,2.225-23.043,41.517-13.1,20.6" transform="translate(0 11.134)" fill="#d42828"/>
        <path id="Path_1544" data-name="Path 1544" d="M103.971,26.534c-1.184.229-1,.116-1.015-1-.587.334-2.02,1.508-1.923.12.37-1.912-1.992.906-1.7-1.755-6.5,3.885.616-5.836,2.055-9.4,1.191.541.776,2.347,2.441.94,1.79-.539,3.672.15,5.565-.394.119,1.322-4.246,13.309-5.419,11.491" transform="translate(13.687 2.053)" fill="#d42828"/>
        <path id="Path_1545" data-name="Path 1545" d="M20.865,75.915c-8.125,7.378.161-13.452,4.488-7.615,3.369,2.844,4.546-.365,4.925,1.322-1.454,2.477-3.063,8.745-6.539,7.864-1.2-.7-3.344,1.09-2.873-1.571" transform="translate(2.469 9.526)" fill="#d42828"/>
        <path id="Path_1546" data-name="Path 1546" d="M89.346,42.205c1.319-4.923,3.378-10.738,6.169-14.808-.605,4.8-4.03,10.138-6.169,14.808" transform="translate(12.654 3.88)" fill="#d42828"/>
        <path id="Path_1547" data-name="Path 1547" d="M81.514,21.378c-.489,0-2.231,0-1.3-.551.671,0,3.872-.9,2.606.466a2.084,2.084,0,0,1-1.308.086" transform="translate(11.323 2.908)" fill="#d42828"/>
        <path id="Path_1548" data-name="Path 1548" d="M67.026,84.194c-.837-.251,1.018-2.808,1.413-1.672a2.709,2.709,0,0,1-1.413,1.672" transform="translate(9.463 11.647)" fill="#d42828"/>
        <path id="Path_1549" data-name="Path 1549" d="M111.3,63.987c-.334-1.078.136-2.278,1.156-2.2.355.7-.719,1.521-1.156,2.2" transform="translate(15.749 8.751)" fill="#d42828"/>
        <path id="Path_1550" data-name="Path 1550" d="M66.621,37.879c-.175,1.684-1.512-.878-.99-1.375.72-.275.993.784.99,1.375" transform="translate(9.279 5.164)" fill="#d42828"/>
        <path id="Path_1551" data-name="Path 1551" d="M95.406,56.022c-.428,1.021-.667,2.74-1.653,3.247a6.064,6.064,0,0,1,1.653-3.247" transform="translate(13.278 7.935)" fill="#d42828"/>
        <path id="Path_1552" data-name="Path 1552" d="M104.406,97.868c.039-.765.016-2.248.829-2.069.918.614-.32,1.424-.829,2.069" transform="translate(14.787 13.566)" fill="#d42828"/>
        <path id="Path_1553" data-name="Path 1553" d="M45.6,86.2c.043-.822.369-2.186,1.145-2.223.249.738-.575,1.606-1.145,2.223" transform="translate(6.458 11.894)" fill="#d42828"/>
        <path id="Path_1554" data-name="Path 1554" d="M52.254,66.532c-.237.557-.57,1.643-1.2,1.74-.562-.329.868-2.278,1.2-1.74" transform="translate(7.213 9.41)" fill="#d42828"/>
        <path id="Path_1555" data-name="Path 1555" d="M49.521,80.032c.3.542.864,1.276.61,1.819-.758.045-.953-1.183-.61-1.819" transform="translate(6.991 11.335)" fill="#d42828"/>
        <path id="Path_1556" data-name="Path 1556" d="M88.145,42.7c-.026-.387.281-.922.7-.685.835.433-.741,1.969-.7.685" transform="translate(12.484 5.942)" fill="#d42828"/>
        <path id="Path_1557" data-name="Path 1557" d="M22.167,101.332c.17-.926.912-1.52,1.333-2.306a4.027,4.027,0,0,1-1.333,2.306" transform="translate(3.14 14.025)" fill="#d42828"/>
        <path id="Path_1558" data-name="Path 1558" d="M117.911,67.116c.675-.131.8.773.007.72-.776.068-.774-.792-.007-.72" transform="translate(16.619 9.504)" fill="#d42828"/>
        <path id="Path_1559" data-name="Path 1559" d="M81.155,66.154c-.91.124-.8-.675.03-.5.887-.28.827.7-.03.5" transform="translate(11.404 9.292)" fill="#d42828"/>
        <path id="Path_1560" data-name="Path 1560" d="M59.9,56.631c-.174.227-.137.853-.559.792-.727-.2.4-1.848.559-.792" transform="translate(8.371 7.971)" fill="#d42828"/>
        <path id="Path_1561" data-name="Path 1561" d="M39.341,99.182c-1.145-.037.187-1,.666-.566.212.393-.445.564-.666.566" transform="translate(5.508 13.951)" fill="#d42828"/>
        <path id="Path_1562" data-name="Path 1562" d="M78.236,21.082c.541-.07.5.656-.024.514-.693.144-.992-.6.024-.514" transform="translate(10.988 2.985)" fill="#d42828"/>
        <path id="Path_1563" data-name="Path 1563" d="M66.476,38.809c.435-.008.469.68.095.8-.337.08-.653-.819-.095-.8" transform="translate(9.372 5.497)" fill="#d42828"/>
        <path id="Path_1564" data-name="Path 1564" d="M60.555,84.694c-.393-.269-.755-.749-.392-1,.4.018.435.672.392,1" transform="translate(8.5 11.854)" fill="#d42828"/>
        <path id="Path_1565" data-name="Path 1565" d="M82.9,66.263c-.079.182-.489.155-.446-.065.057-.2.478-.15.446.065" transform="translate(11.677 9.358)" fill="#d42828"/>
        <path id="Path_1566" data-name="Path 1566" d="M50.664,68.851c-.15-.017-.119-.311.055-.292.22.018.186.3-.055.292" transform="translate(7.162 9.71)" fill="#d42828"/>
        <path id="Path_1567" data-name="Path 1567" d="M51.908,47.829c-.4.1-1.2.36-1.265-.287.221-.832,1.347-.442,1.265.287" transform="translate(7.173 6.667)" fill="#d42828"/>
      </g>
    </g>
    <g id="Group_1003" data-name="Group 1003" transform="translate(777.39 4621.33)">
      <g id="Group_1015" data-name="Group 1015" clip-path="url(#clip-path-2)">
        <path id="Path_1526" data-name="Path 1526" d="M43.959,97.063l2.271,8.6,4.5-2.833ZM236.933,101.2C204.844,80.446,131.644,35.918,131.644,35.918s-5.842,3.594-15.055,9.3l1.655,2.617-6.35,3.994,2.47,3.918,6.35-3.994,2.379,3.779-6.342,3.994L119.26,63.5,125.6,59.51l2.378,3.771-11.014,6.943-11.438-18.15c-.916.578-1.855,1.155-2.81,1.747l11.454,18.165L109.5,74.935l-4.78-7.582L98.4,71.332l4.78,7.582-4.672,2.941-11.5-18.242c-.624.384-1.247.777-1.878,1.17l1.762,2.8-4.41,2.779,9.745,15.455-4.672,2.941L77.811,73.311,73.377,76.1l-1.793-2.841c-2.878,1.809-5.773,3.633-8.659,5.45l1.8,2.848-4.418,2.779L70.052,99.8l-4.672,2.941L55.644,87.281l-4.441,2.8L49.416,87.25c-1.662,1.062-3.317,2.109-4.942,3.148l17.5,14.486-5.134,3.233-2.579-2.24-6.8,4.287.908,3.294-4.987,3.148L37.9,94.593c-5.934,3.8-11.477,7.389-16.387,10.607-.023,37.015-.046,67.3-.069,104.326q24.7-39.8,49.385-79.6c5.249-8.459,10.822-17.249,19.4-22.306,7.012-4.141,15.364-5.35,22.76-8.744,7.236-3.317,14.11-8.829,22.053-8.29,9.537.654,16.364,9.768,22.175,16.679a10.941,10.941,0,0,1,2.664,6.666c.238,7.859-8.313,9.7-14.64,8.259-2.948-.677-5.873-1.786-8.814-2.517a2.718,2.718,0,0,1-.261-5.18A18.927,18.927,0,0,1,148.9,114.3c.515-1.94-.962-3.979-2.817-4.726a10.222,10.222,0,0,0-5.927-.077,35.9,35.9,0,0,0-21.267,13.84,60.057,60.057,0,0,1,36.037,7.451,7.739,7.739,0,0,1,3.379,3.687c1.863,4.487-1.9,7.42-5.541,8.374-9.413,2.447-20.4-3.695-28.672,1.417l5.558.477a48,48,0,0,1-28.918,6.2A9.636,9.636,0,0,0,87.694,146.3l2.355,2.148.546,1.024a12.363,12.363,0,0,1,.97,2.417l.5,1.793-1.224,6.473-3.163,8.859a11.588,11.588,0,0,1-.977,2.039c-9.314,15.772-2.617,36.738-8.4,54.288-3.294,9.99-10.622,18.911-12.515,28.964a1.118,1.118,0,0,0,2.07.754c8.066-14.07,19.042-26.809,33.629-33.682,16.171-7.612,37.315-6.4,49.892,6.289-13.678-7.575-32.889-9.167-45.135-.531a.3.3,0,0,0,.223.538c6.7-1.431,13.316-4.218,19.6-1.777,8.2,3.171,11.446,14.8,5.088,20.605a.789.789,0,0,0,.755,1.339c.646-.2,1.278-.439,1.878-.678l28.072-15.748c22.414-14.447,50.324-19.219,75.963-11.106,1.047-41.111.169-78.01-.886-119.113m-94.45,77.218h-6.6c-.392-1.856-2.863-3.942-6.612-3.942-4.749,0-7.8,3.364-7.8,8.151,0,5.219,3.125,8.421,8.151,8.421,3.394,0,6.335-1.662,6.335-3.863v-.039a.987.987,0,0,0-1.047-1.078h-7.027v-5.719h14.6V197h-6.335l-.077-2.933c-1.586,2.163-4.365,3.548-8.343,3.548-7.728,0-14.1-5.635-14.1-15.063,0-8.767,5.95-15.025,13.986-15.025,3.587,0,6.642,1.347,8.382,3.749l.116-3.249h6.373Zm28.933-4.518h-.624a1.724,1.724,0,0,0-1.655.962l-7.189,12.131v3.017a1,1,0,0,0,1.085,1.116H164.3V197h-12.67v-5.873h1.278a1,1,0,0,0,1.077-1.116v-3.017l-7.219-12.131a1.717,1.717,0,0,0-1.624-.962h-.616v-5.873h12.13V173.9h-.893c-.962,0-1.354.616-.847,1.509l3.164,5.826,3.171-5.826c.462-.855.077-1.509-.855-1.509h-.923v-5.873h11.938Zm39.093,0H209.5c-.847,0-1.193.5-1.193,1.347V189.89a1.206,1.206,0,0,0,1.347,1.232h.855V197h-11.9v-5.873h1.078a1.191,1.191,0,0,0,1.239-1.355V175.482l-6.45,21.128h-5.1l-6.566-21.167v14.324c0,.816.385,1.355,1.2,1.355h1.271V197H173.424v-5.873h.808a1.19,1.19,0,0,0,1.354-1.232V175.243c0-.847-.354-1.347-1.2-1.347h-.962v-5.873h13.323l5.219,17.657,5.1-17.657h13.447ZM98.031,56.739q-3.095,1.929-6.335,3.941l4.326,6.874,6.312-3.979Z" transform="translate(-4.519 -7.569)" fill="#fff"/>
        <path id="Path_1527" data-name="Path 1527" d="M250.838,334.473a.3.3,0,0,0-.049.586c9.985,2.2,19.924,1.6,30.18,1.054,2.027-.107,4.05-.285,6.068-.5,2.409-.262,5.074-.489,7.147-1.75,1.253-.762,1.338-2.445,1.6-3.735q.532-2.59.968-5.2c.047-.287.134-1.024-.231-1.176-.333-.139-.865.468-1.14.661a21.114,21.114,0,0,1-2.782,1.624c-1.9.945-3.891,1.688-5.863,2.467a72.617,72.617,0,0,1-11.977,3.521c-7.889,1.635-15.9,2.088-23.923,2.451" transform="translate(-52.803 -68.223)" fill="#fff"/>
        <path id="Path_1528" data-name="Path 1528" d="M175.624,375.976c-12.782-6.6-23.943-18.169-26.518-32.065a22.321,22.321,0,0,1-.374-3.5c0-.135-.184-.14-.217,0-1.87,8,.034,15.191,3.362,21.926-8.887,6.37-21.785,8.781-33.091,8.7-12.514-1.384-24.922-5.275-34.9-12.043a.565.565,0,0,0-.691.891,59.893,59.893,0,0,0,28.067,14.4c15.8,3.361,30.884.75,46.951-1.917a30.542,30.542,0,0,0,4.9,4.033,29.136,29.136,0,0,0,8.9,6.319q1.567.963,3.168,1.847c.165.091.338.174.5.264-6.2,2.182-47.371,10.6-80.619,3.768a321.519,321.519,0,0,1-31.732-8.135.419.419,0,0,0-.322.77c23.107,12.069,51.5,17.546,75.476,17.546,22.219,0,48.947-5.107,71.5-16.063a.338.338,0,0,0-.167-.64c-3.229.176-7.264.425-9.784.3a63.92,63.92,0,0,1-11.813-1.661,56.18,56.18,0,0,1-12.6-4.743" transform="translate(-13.232 -71.718)" fill="#fff"/>
        <path id="Path_1529" data-name="Path 1529" d="M167.964,376c-.289.048-.714-.568-1.077-.882a6.6,6.6,0,0,1,1.65-1.342c.251-.1.9.586,1.742,1.181A10.511,10.511,0,0,1,167.964,376" transform="translate(-35.17 -78.769)" fill="#fff"/>
        <path id="Path_1530" data-name="Path 1530" d="M189.853,379.232c-.226.031-.522-.351-.787-.546a3.58,3.58,0,0,1,1.08-.747c.246-.062.627.309,1.233.644a6.64,6.64,0,0,1-1.526.65" transform="translate(-39.844 -79.646)" fill="#fff"/>
        <path id="Path_1531" data-name="Path 1531" d="M197.109,383.093a4.675,4.675,0,0,1-1.065-.846c.326-.259.644-.721.977-.729a7.941,7.941,0,0,1,2.028.621c-1.365.691-1.76,1.03-1.939.954" transform="translate(-41.315 -80.402)" fill="#fff"/>
        <path id="Path_1532" data-name="Path 1532" d="M103.766,405.582c-.492-.569-.994-1.133-1.452-1.725-.027-.037.3-.293.455-.448l1.541,1.718-.544.454" transform="translate(-21.562 -85.016)" fill="#fff"/>
        <path id="Path_1533" data-name="Path 1533" d="M184.456,402.36a2.519,2.519,0,0,1-.3-.795c0-.116.347-.242.537-.362.074.205.15.41.225.616l-.46.541" transform="translate(-38.809 -84.551)" fill="#fff"/>
        <path id="Path_1534" data-name="Path 1534" d="M202.663,407.71l-1.889-1.054c1-.311,1.987-.664,3.009-.9.22-.051.56.325.846.5l-1.965,1.449" transform="translate(-42.312 -85.509)" fill="#fff"/>
        <path id="Path_1535" data-name="Path 1535" d="M53.538,330.719c.388-.264.672-.672.36-.959a31.849,31.849,0,0,1-13.464-.911c-2.313-.67-4.9-1.7-7.351-1.29-2.517.419-4.233,2.674-6.812,2.973a8.43,8.43,0,0,1-4.094-.825,9.111,9.111,0,0,1-4.264-2.981,8.816,8.816,0,0,1-1.2-4.889c-.112-8.325,3.241-16.849,5.592-24.776,2.083-7.018,4.288-14,6.558-20.959a.258.258,0,0,0-.484-.179q-4.538,11-9.474,21.868c-3.623,7.974-8.672,16.08-7.748,25.3a14.11,14.11,0,0,0,5.409,10c9.874,7.389,26.387,1.193,36.554-2.165a1.747,1.747,0,0,0,.417-.209" transform="translate(-2.328 -58.114)" fill="#fff"/>
        <path id="Path_1536" data-name="Path 1536" d="M213.606,309.345a.229.229,0,0,0,.257.379c13.533-7.706,28.746-11.748,44.247-12.96,9.092-.71,19.207-1.214,27.894,1.994.431.152.833.316,1.208.489a10.778,10.778,0,0,1,1.489.83.771.771,0,0,0,1.189-.654v-9.2a1.323,1.323,0,0,0-1.2-1.329h-.012c-15.831-1.208-32.46.086-47.512,5.39a97.257,97.257,0,0,0-27.561,15.06" transform="translate(-44.997 -60.794)" fill="#fff"/>
        <path id="Path_1537" data-name="Path 1537" d="M127.335,12.342l-8.4,5.327,0,0-1.47-2.316-6.3,3.964-2.486-3.949,6.3-3.972-2.363-3.748-6.3,3.972L103.865,7.72l6.3-3.972L107.8,0,96.86,6.9l11.161,17.7,0,0-2.77,1.758,0-.006L94.089,8.644l-5.442,3.425L90.117,25.5,78.572,18.419l-5.411,3.41L84.368,39.6l0,0L69.624,48.958l0,0L60.761,34.891l4.38-2.763-2.363-3.748L49.346,36.838l2.363,3.749,4.41-2.779,8.874,14.086,0,0-5.972,3.789,0,0-1.578-2.509-6.3,3.972-2.486-3.949,6.3-3.972-2.363-3.749-6.3,3.972-2.455-3.895,6.3-3.972-2.363-3.749L36.839,44.72,48.115,62.6l0,0-2.2,1.4v0L44.3,61.453l-6.3,3.972-2.486-3.956,6.3-3.964-2.363-3.748-6.3,3.964L30.7,53.833,37,49.861l-2.363-3.748L23.7,53,35,70.921l0,0-2.773,1.759v0l-11.3-17.934-5.441,3.433,1.47,13.431L5.411,64.532,0,67.942,11.346,85.93l0,0-6.15,3.9v119.61h7.37V92.889l114.346-72.65L238.1,90.679v123.19l6.792,2.369V86.888ZM100.624,29.287v0L95.876,32.3V32.3L94.612,19.75Zm-11.63,7.382-6.035-9.575,10.807,6.542,0,0ZM27.6,75.616l0,0L22.746,78.7v-.008L21.452,65.864ZM15.971,83,9.8,73.207l11.053,6.7h0L15.973,83Z" fill="#fff"/>
      </g>
    </g>
    <g id="Group_1004" data-name="Group 1004" transform="translate(674 4560.569)">
      <g id="Group_1017" data-name="Group 1017" clip-path="url(#clip-path-3)">
        <path id="Path_1568" data-name="Path 1568" d="M42.488,78.4l-.5-2.112-.057-.242a1.8,1.8,0,0,1,.12-1.172l1.307-2.8a1.791,1.791,0,0,1,.823-.845l2.159-1.087a1.725,1.725,0,0,1,.474-.157,1.767,1.767,0,0,1,1.09.135l5.341,2.495-.034-4.518-2.969-1.386a1.794,1.794,0,0,1-.99-1.216l-.462-1.967a1.794,1.794,0,0,1,.12-1.172l1.125-2.407a1.8,1.8,0,0,1,.82-.845l1.807-.905a1.719,1.719,0,0,1,.468-.157l-.053-6.834a4.153,4.153,0,0,0-.2-1.238l-2.8-8.653-3.651-11.29a4.124,4.124,0,0,0-1.791-2.262l-11.6-7.025c-.1-.063-.2-.126-.293-.2L29.69,18.317a4.139,4.139,0,0,1-1.7-3.309l-.1-12.27A4.119,4.119,0,0,0,26.824,0l-.7,0-.7.006a4.14,4.14,0,0,0-1.021,2.718v.037l.1,12.27a4.131,4.131,0,0,1-1.647,3.337l-3.016,2.272c-.094.069-.192.135-.289.2L8.063,28.054a4.136,4.136,0,0,0-1.756,2.294L.179,50.391A4.155,4.155,0,0,0,0,51.632l.2,24.377a4.153,4.153,0,0,0,.462,1.866L6.8,89.756a4.163,4.163,0,0,0,1.254,1.452l9.687,7,2.419,1.747,3.745,3.01a4.1,4.1,0,0,0,2.624.914l.987-.006,1.087-.009a4.128,4.128,0,0,0,2.47-.845l1.9-1.445-.186-.8a1.8,1.8,0,0,1,.122-1.166l.87-1.866A1.8,1.8,0,0,1,34.6,96.9l1.313-.663a1.782,1.782,0,0,1,1.571-.025l1.279.6,3.434-2.9-3.818-1.785a1.811,1.811,0,0,1-.99-1.216l-.462-1.967a1.791,1.791,0,0,1,.119-1.172l1.125-2.407a1.794,1.794,0,0,1,.691-.776c.041-.022.085-.047.129-.07l1.807-.9a1.8,1.8,0,0,1,1.568-.022l.965.45,5.065,2.366,1.816-3.654-6.73-3.142a1.8,1.8,0,0,1-.99-1.216M36.531,62.03l.113-1.27a1.824,1.824,0,0,1,.163-.6L38.139,57.3A1.791,1.791,0,0,1,38.5,56.8l.9-.9a1.782,1.782,0,0,1,1.191-.522,1.762,1.762,0,0,1,.842.163l2.551,1.194a1.8,1.8,0,0,1,1.031,1.788L44.9,59.783a1.827,1.827,0,0,1-.163.6L43.4,63.239a1.789,1.789,0,0,1-.355.509l-.037.037-.861.864a1.8,1.8,0,0,1-2.033.358l-2.551-1.194a1.8,1.8,0,0,1-1.031-1.785M50.46,50.859l-.053.924a.74.74,0,0,1-.069.283l-.76,1.628a.838.838,0,0,1-.17.236l-.676.632a.769.769,0,0,1-.851.135l-.468-.217a1.626,1.626,0,0,0-.525-.245l-1.021-.478a.772.772,0,0,1-.443-.738l.053-.924a.739.739,0,0,1,.069-.283l.76-1.628a.8.8,0,0,1,.17-.236l.676-.632A.762.762,0,0,1,48,49.182l2.014.94a.772.772,0,0,1,.443.738m-5.646-8.688a4.217,4.217,0,0,0-1.266.943L38.978,48.1a1.445,1.445,0,0,1-.015-.2l-.022-3.07a1.752,1.752,0,0,1,.1-.6l.411-1.166A1.758,1.758,0,0,1,41.087,41.9l2.743-.022a1.738,1.738,0,0,1,.984.3M37.4,34.92l.33-.839a.737.737,0,0,1,.688-.474l2.165-.019a.75.75,0,0,1,.7.462l.342.836a.7.7,0,0,1,.057.28l.013,1.747a.724.724,0,0,1-.051.279l-.33.839a.744.744,0,0,1-.689.475l-2.165.019a.75.75,0,0,1-.7-.465l-.343-.836a.707.707,0,0,1-.056-.276L37.348,35.2a.689.689,0,0,1,.05-.279M21.021,28.971l.807-1.175a1.744,1.744,0,0,1,1.427-.757l7.284-.06a1.743,1.743,0,0,1,1.439.735l.83,1.163a1.737,1.737,0,0,1,.326,1l.016,2.244a1.744,1.744,0,0,1-.308,1.005l-.811,1.178a1.756,1.756,0,0,1-1.426.757l-7.284.056a1.741,1.741,0,0,1-1.439-.735l-.827-1.163a1.757,1.757,0,0,1-.324-1l-.019-2.247a1.74,1.74,0,0,1,.308-1.005m-1.59,12.364,1.207-1.555A1.743,1.743,0,0,1,22,39.1l9.979-.082a1.749,1.749,0,0,1,1.376.654L34.6,41.213a1.738,1.738,0,0,1,.386,1.081L35,44.877a1.75,1.75,0,0,1-.371,1.087l-1.21,1.555a1.739,1.739,0,0,1-1.367.675l-9.976.079A1.743,1.743,0,0,1,20.7,47.62l-1.232-1.534a1.755,1.755,0,0,1-.383-1.081l-.022-2.583a1.735,1.735,0,0,1,.368-1.087m-.786,13.452,1.442-1.86a1.752,1.752,0,0,1,1.367-.676l11.29-.091a1.747,1.747,0,0,1,1.377.653l.254.314-5.367,5.86a4.3,4.3,0,0,0-.716,1.071l-1.1,2.347-5.659.047A1.748,1.748,0,0,1,20.16,61.8l-1.474-1.832a1.758,1.758,0,0,1-.383-1.081l-.025-3.013a1.732,1.732,0,0,1,.368-1.084M32.355,80.138a1.8,1.8,0,0,1,1.028,1.791l-.116,1.279a1.793,1.793,0,0,1-.16.6l-1.345,2.881a1.734,1.734,0,0,1-.355.506l-.054.053-.851.861a1.792,1.792,0,0,1-2.036.358l-2.52-1.175-.028-.013a1.8,1.8,0,0,1-1.028-1.791l.116-1.282a1.792,1.792,0,0,1,.16-.6l1.345-2.881a1.779,1.779,0,0,1,.355-.506l.7-.7.21-.211a1.8,1.8,0,0,1,2.033-.361l1.169.547ZM21.213,75.221a1.8,1.8,0,0,1-.292-.286L19.689,73.4A1.761,1.761,0,0,1,19.3,72.32l-.019-2.583a1.741,1.741,0,0,1,.368-1.087L20.858,67.1a1.748,1.748,0,0,1,1.367-.675l3.111-.025ZM7.6,44.484l.412-1.166A1.749,1.749,0,0,1,9.65,42.153l2.743-.022a1.748,1.748,0,0,1,1.653,1.141l.431,1.159a1.743,1.743,0,0,1,.11.594l.025,3.073a1.767,1.767,0,0,1-.1.6L14.1,49.86a1.75,1.75,0,0,1-1.637,1.166l-2.743.022A1.75,1.75,0,0,1,8.066,49.91l-.431-1.163a1.681,1.681,0,0,1-.11-.594L7.5,45.084a1.7,1.7,0,0,1,.1-.6M5.725,63.016l-.609-1.411a1.774,1.774,0,0,1-.141-.679l-.025-3.261a1.678,1.678,0,0,1,.132-.682l.585-1.42a1.745,1.745,0,0,1,1.6-1.081l4.182-.035a1.752,1.752,0,0,1,1.622,1.059l.606,1.408a1.725,1.725,0,0,1,.141.679l.028,3.265a1.786,1.786,0,0,1-.132.679l-.584,1.417a1.744,1.744,0,0,1-1.6,1.084l-4.182.035a1.753,1.753,0,0,1-1.621-1.056M7.661,75.406l-.433-1.175a1.837,1.837,0,0,1-.11-.594l-.022-3.095a1.733,1.733,0,0,1,.1-.594l.415-1.182A1.75,1.75,0,0,1,9.244,67.6l2.74-.022a1.743,1.743,0,0,1,1.652,1.144l.434,1.172a1.735,1.735,0,0,1,.11.594l.025,3.1a1.816,1.816,0,0,1-.1.594l-.414,1.182a1.752,1.752,0,0,1-1.637,1.169l-2.737.022a1.75,1.75,0,0,1-1.656-1.141m7.805,9-.075.191A1.742,1.742,0,0,1,13.778,85.7l-1.194.013a1.757,1.757,0,0,1-1.631-1.081l-.079-.192a1.808,1.808,0,0,1-.132-.656L10.731,82.2a1.722,1.722,0,0,1,.122-.653l.075-.2a1.751,1.751,0,0,1,1.612-1.106l1.194-.009a1.748,1.748,0,0,1,1.631,1.081l.079.191a1.8,1.8,0,0,1,.132.654l.013,1.583a1.8,1.8,0,0,1-.123.657m.521-47.01-.33.839a.747.747,0,0,1-.692.478l-2.162.016a.753.753,0,0,1-.7-.465l-.34-.833a.707.707,0,0,1-.056-.279L11.692,35.4a.722.722,0,0,1,.054-.279l.326-.836a.753.753,0,0,1,.692-.478l2.162-.016a.749.749,0,0,1,.7.465l.343.833a.843.843,0,0,1,.056.277l.013,1.747a.758.758,0,0,1-.051.28m12.559,59.33a1.759,1.759,0,0,1-.4.553l-.154.144A1.8,1.8,0,0,1,26,97.737L24.9,97.219A1.805,1.805,0,0,1,23.861,95.5l.013-.211a1.678,1.678,0,0,1,.167-.666l.688-1.474a1.767,1.767,0,0,1,.4-.556l.154-.144a1.8,1.8,0,0,1,1.986-.311l1.109.515a1.8,1.8,0,0,1,1.033,1.725l-.013.21a1.8,1.8,0,0,1-.163.666l-.591,1.257Zm8.506-21.992a1.772,1.772,0,0,1-.424.572l-1.166,1.056a1.791,1.791,0,0,1-1.967.3l-2.438-1.137L29.6,74.841a1.8,1.8,0,0,1-1.034-1.7l.06-1.574a1.817,1.817,0,0,1,.167-.692l1.417-3.038a1.859,1.859,0,0,1,.424-.572l1.021-.927h0l.145-.132a1.8,1.8,0,0,1,1.967-.292l3.893,1.816a1.8,1.8,0,0,1,1.034,1.7L38.639,71a1.761,1.761,0,0,1-.17.691Z" transform="translate(0 -0.001)" fill="#fff"/>
        <path id="Path_1569" data-name="Path 1569" d="M55.374,155.44l1.455.679-8.757.072a1.731,1.731,0,0,1-1.087-.371l4.122-8.826,6.322-.053-1.021.927a1.863,1.863,0,0,0-.424.572l-1.417,3.038a1.813,1.813,0,0,0-.166.691l-.06,1.574a1.8,1.8,0,0,0,1.034,1.7" transform="translate(-25.772 -80.6)" fill="#fff"/>
        <path id="Path_1570" data-name="Path 1570" d="M59.8,205.175a1.753,1.753,0,0,1-.361,1.078l-.308.4a1.751,1.751,0,0,1-1.373.685l-1.263.009.591-1.257a1.8,1.8,0,0,0,.163-.666l.013-.211a1.8,1.8,0,0,0-1.034-1.725l-1.109-.516a1.8,1.8,0,0,0-1.986.311l-.154.144a1.767,1.767,0,0,0-.4.556l-.688,1.474a1.682,1.682,0,0,0-.167.666l-.013.21a1.774,1.774,0,0,0,.107.707,1.58,1.58,0,0,1-.352-.33l-.311-.393a1.744,1.744,0,0,1-.377-1.071l-.009-.98a1.755,1.755,0,0,1,.361-1.078l.3-.4a1.744,1.744,0,0,1,1.377-.685l4.908-.041a1.744,1.744,0,0,1,1.382.663l.314.393a1.749,1.749,0,0,1,.38,1.075Z" transform="translate(-27.845 -110.839)" fill="#fff"/>
        <path id="Path_1571" data-name="Path 1571" d="M48.266,176.164l4.339-.035-.7.7a1.772,1.772,0,0,0-.355.506l-1.345,2.881a1.793,1.793,0,0,0-.16.6l-.116,1.282a1.8,1.8,0,0,0,1.027,1.791l.028.013-2.658.022a1.756,1.756,0,0,1-1.382-.66l-.893-1.119a1.742,1.742,0,0,1-.383-1.078l-.016-2a1.744,1.744,0,0,1,.365-1.081l.876-1.135a1.749,1.749,0,0,1,1.37-.682" transform="translate(-25.043 -96.611)" fill="#fff"/>
        <path id="Path_1572" data-name="Path 1572" d="M71.644,180.924a1.764,1.764,0,0,1-.364,1.084l-.88,1.135a1.749,1.749,0,0,1-1.37.679h-.044l.053-.053a1.738,1.738,0,0,0,.355-.506l1.345-2.881a1.793,1.793,0,0,0,.16-.6l.116-1.279a1.8,1.8,0,0,0-1.028-1.791l-1.379-.644.358,0a1.742,1.742,0,0,1,1.383.657l.9,1.119a1.758,1.758,0,0,1,.383,1.081Z" transform="translate(-37.634 -96.576)" fill="#fff"/>
        <path id="Path_1573" data-name="Path 1573" d="M69.05,123.287a1.743,1.743,0,0,1-.37,1.087l-1.446,1.86a1.761,1.761,0,0,1-1.367.676l-5.631.044,1.1-2.347a4.287,4.287,0,0,1,.717-1.071l5.366-5.86,1.222,1.521a1.745,1.745,0,0,1,.386,1.084Z" transform="translate(-33.041 -64.547)" fill="#fff"/>
        <path id="Path_1574" data-name="Path 1574" d="M98.115,126.385a1.7,1.7,0,0,1-.132.682l-.584,1.417a1.749,1.749,0,0,1-1.6,1.084l-3.478.028.038-.038a1.792,1.792,0,0,0,.355-.509l1.335-2.856a1.81,1.81,0,0,0,.163-.6l.113-1.266a1.8,1.8,0,0,0-1.03-1.788l-2.552-1.194a1.751,1.751,0,0,0-.842-.163l.035-.085a1.738,1.738,0,0,1,1.6-1.084l4.182-.035a1.752,1.752,0,0,1,.481.066,1.654,1.654,0,0,1,.525.245,1.709,1.709,0,0,1,.616.745l.609,1.408a1.808,1.808,0,0,1,.142.679Z" transform="translate(-49.311 -65.811)" fill="#fff"/>
        <path id="Path_1575" data-name="Path 1575" d="M95.118,151.762a1.725,1.725,0,0,0-.475.157l-2.159,1.087a1.793,1.793,0,0,0-.824.845l-1.307,2.8a1.794,1.794,0,0,0-.119,1.172l.056.242h-.016a1.756,1.756,0,0,1-1.656-1.144l-.434-1.175a1.725,1.725,0,0,1-.107-.591l-.025-3.1a1.744,1.744,0,0,1,.1-.594l.415-1.178a1.751,1.751,0,0,1,1.637-1.172l2.737-.022a1.75,1.75,0,0,1,1.656,1.144l.433,1.175a1.518,1.518,0,0,1,.088.352" transform="translate(-48.3 -81.78)" fill="#fff"/>
        <path id="Path_1576" data-name="Path 1576" d="M90.232,180.739a1.608,1.608,0,0,1-.075.518l-.964-.449a1.8,1.8,0,0,0-1.568.022l-1.807.9c-.044.022-.088.047-.129.069a1.372,1.372,0,0,1-.088-.182l-.079-.192a1.646,1.646,0,0,1-.132-.651l-.016-1.587a1.789,1.789,0,0,1,.123-.654l.075-.191a1.749,1.749,0,0,1,1.615-1.109l1.191-.009a1.748,1.748,0,0,1,1.631,1.081l.079.192a1.719,1.719,0,0,1,.132.653Z" transform="translate(-46.83 -97.214)" fill="#fff"/>
        <path id="Path_1577" data-name="Path 1577" d="M93.4,99.078a1.749,1.749,0,0,1-.1.6l-.415,1.169a1.748,1.748,0,0,1-1.633,1.166l-2.744.022a1.75,1.75,0,0,1-1.656-1.14l-.43-1.159a1.7,1.7,0,0,1-.095-.4L90.9,94.35a4.228,4.228,0,0,1,1.266-.943h0a1.749,1.749,0,0,1,.666.845l.433,1.159a1.832,1.832,0,0,1,.11.6Z" transform="translate(-47.357 -51.236)" fill="#fff"/>
        <path id="Path_1578" data-name="Path 1578" d="M101.249,86.141,93.6,74.5c-.066-.1-.129-.2-.186-.308l-1.847-3.412a4.244,4.244,0,0,1-.116-3.818L96.781,55.54A4.244,4.244,0,0,0,97,52.533l-.65-.3-.647-.3a4.24,4.24,0,0,0-2.165,2.1L88.209,65.447a4.243,4.243,0,0,1-3,2.363l-3.8.773a3.509,3.509,0,0,1-.358.056L71.1,69.8l-3.894.452a4.071,4.071,0,0,0-1.373.405h0a4.223,4.223,0,0,0-1.266.943L60,76.583,55.4,81.61l-5.367,5.86a4.3,4.3,0,0,0-.716,1.071l-1.1,2.347-1.86,3.987L42.233,103.7l-3.513,7.526a4.24,4.24,0,0,0-.4,1.935l.437,13.524.006.2a4.249,4.249,0,0,0,.518,1.9l7.362,13.458,2.137,4.446a4.239,4.239,0,0,0,2.03,2.008l.917.431,1.012.471a4.254,4.254,0,0,0,2.665.308l4.345-.908,14.677-3.846a4.2,4.2,0,0,0,1.543-.764l10.916-8.556a4.244,4.244,0,0,0,1.228-1.546L98.71,111.608a4.13,4.13,0,0,0,.362-1.235l2.84-21.338a4.258,4.258,0,0,0-.663-2.894M77.111,79.712l.977-2.089a1.813,1.813,0,0,1,.729-.8l1.27-.732a1.8,1.8,0,0,1,1.659-.073l6.778,3.168A1.787,1.787,0,0,1,89.532,80.5l.255,1.445a1.778,1.778,0,0,1-.141,1.072l-.974,2.089a1.809,1.809,0,0,1-.732.8l-1.273.732a1.793,1.793,0,0,1-1.656.072l-6.778-3.164a1.808,1.808,0,0,1-1.012-1.32l-.251-1.442a1.816,1.816,0,0,1,.142-1.071m-1.861,6.941,9.288,4.336a1.8,1.8,0,0,1,.986,1.216l.469,1.97a1.8,1.8,0,0,1-.123,1.172l-1.121,2.4a1.779,1.779,0,0,1-.823.845l-1.81.908a1.8,1.8,0,0,1-1.565.022l-6.316-2.95-2.969-1.386a1.8,1.8,0,0,1-.99-1.216l-.462-1.967a1.8,1.8,0,0,1,.119-1.172l1.125-2.407a1.8,1.8,0,0,1,.82-.845l1.807-.9a1.7,1.7,0,0,1,.468-.157,1.763,1.763,0,0,1,1.1.132M63.508,106.879l-.5-2.112-.056-.242a1.793,1.793,0,0,1,.119-1.172l1.307-2.8a1.788,1.788,0,0,1,.823-.845l2.159-1.087a1.707,1.707,0,0,1,.474-.157,1.767,1.767,0,0,1,1.09.135l5.342,2.495,5.166,2.413a1.8,1.8,0,0,1,.986,1.213l.559,2.354a1.806,1.806,0,0,1-.12,1.175l-1.307,2.8a1.79,1.79,0,0,1-.823.845l-2.165,1.084A1.8,1.8,0,0,1,75,113l-3.773-1.763L64.5,108.1a1.8,1.8,0,0,1-.99-1.216m3.818-28.213a.788.788,0,0,1,.17-.236l.675-.632a.763.763,0,0,1,.851-.135l2.014.94a.772.772,0,0,1,.443.739l-.053.924a.727.727,0,0,1-.069.283l-.76,1.628a.839.839,0,0,1-.17.236l-.675.632a.768.768,0,0,1-.851.135l-.468-.217a1.639,1.639,0,0,0-.525-.245l-1.021-.478a.773.773,0,0,1-.443-.739l.054-.924a.729.729,0,0,1,.069-.283ZM57.551,90.512l.113-1.27a1.813,1.813,0,0,1,.163-.6l1.332-2.856a1.8,1.8,0,0,1,.358-.509l.9-.9a1.785,1.785,0,0,1,1.191-.521,1.756,1.756,0,0,1,.842.163L65,85.211A1.8,1.8,0,0,1,66.031,87l-.113,1.266a1.816,1.816,0,0,1-.163.6L64.42,91.721a1.786,1.786,0,0,1-.355.509l-.038.038-.861.864a1.8,1.8,0,0,1-2.033.358L58.582,92.3a1.8,1.8,0,0,1-1.031-1.785m-4.87,4.311.144-.132a1.8,1.8,0,0,1,1.967-.292l3.893,1.816a1.8,1.8,0,0,1,1.034,1.7l-.06,1.574a1.772,1.772,0,0,1-.169.691l-1.417,3.038a1.765,1.765,0,0,1-.424.572l-1.166,1.056a1.791,1.791,0,0,1-1.967.3L52.077,104l-1.455-.679a1.8,1.8,0,0,1-1.034-1.7l.06-1.574a1.813,1.813,0,0,1,.167-.691l1.417-3.038a1.863,1.863,0,0,1,.424-.572l1.021-.927ZM49.165,125.76l-.154.145a1.8,1.8,0,0,1-1.986.314l-1.109-.519a1.806,1.806,0,0,1-1.033-1.722l.013-.21a1.678,1.678,0,0,1,.167-.666l.688-1.474a1.771,1.771,0,0,1,.4-.556l.154-.145a1.8,1.8,0,0,1,1.986-.311l1.109.516a1.8,1.8,0,0,1,1.034,1.725l-.013.21a1.8,1.8,0,0,1-.163.666l-.591,1.257-.1.217a1.747,1.747,0,0,1-.4.553m4.21-17.14a1.8,1.8,0,0,1,1.028,1.791l-.116,1.279a1.791,1.791,0,0,1-.16.6l-1.345,2.881a1.73,1.73,0,0,1-.355.506l-.053.053-.851.861a1.794,1.794,0,0,1-2.036.358l-2.52-1.175-.028-.013a1.8,1.8,0,0,1-1.027-1.791l.116-1.282a1.79,1.79,0,0,1,.16-.6l1.345-2.881a1.773,1.773,0,0,1,.355-.506l.7-.7.211-.21a1.8,1.8,0,0,1,2.033-.361l1.169.547Zm7.111,32.726-.428.911a1.8,1.8,0,0,1-.81.842l-.462.233a1.8,1.8,0,0,1-1.574.028l-4.569-2.134a1.794,1.794,0,0,1-.99-1.228l-.116-.5a1.808,1.808,0,0,1,.123-1.163l.427-.911a1.8,1.8,0,0,1,.811-.839l.459-.236a1.8,1.8,0,0,1,1.577-.028l4.568,2.134a1.812,1.812,0,0,1,.99,1.225l.116.5a1.8,1.8,0,0,1-.122,1.163m6.768-9.3-.87,1.863a1.814,1.814,0,0,1-.82.845l-1.317.663a1.8,1.8,0,0,1-1.568.025l-7.551-3.525a1.8,1.8,0,0,1-.99-1.223l-.148-.638-.186-.795a1.8,1.8,0,0,1,.123-1.166l.87-1.866a1.8,1.8,0,0,1,.817-.842l1.313-.663A1.781,1.781,0,0,1,58.5,124.7l1.279.6,6.271,2.926a1.8,1.8,0,0,1,.987,1.219l.336,1.436a1.8,1.8,0,0,1-.119,1.169m1.427-7.095L63.213,122.4,59.4,120.611a1.814,1.814,0,0,1-.99-1.216l-.462-1.967a1.792,1.792,0,0,1,.12-1.172l1.125-2.407a1.8,1.8,0,0,1,.691-.776c.041-.022.085-.047.129-.069l1.807-.9a1.8,1.8,0,0,1,1.568-.022l.964.449,5.065,2.366,3.255,1.521a1.794,1.794,0,0,1,.987,1.213l.468,1.97A1.805,1.805,0,0,1,74,120.77l-1.122,2.4a1.763,1.763,0,0,1-.823.845l-1.81.908a1.8,1.8,0,0,1-1.565.022m7.629,10.209a1.807,1.807,0,0,1-.167.666l-.688,1.474a1.774,1.774,0,0,1-.405.556L74.9,138a1.8,1.8,0,0,1-1.986.311l-1.109-.519a1.794,1.794,0,0,1-1.034-1.722l.013-.21a1.8,1.8,0,0,1,.167-.666l.688-1.474a1.8,1.8,0,0,1,.4-.553l.154-.144a1.8,1.8,0,0,1,1.986-.314l1.109.516a1.8,1.8,0,0,1,1.034,1.725ZM84.8,124.6l-.116,1.282a1.736,1.736,0,0,1-.16.6l-1.344,2.878a1.789,1.789,0,0,1-.355.509l-.908.911a1.794,1.794,0,0,1-2.033.358l-2.548-1.187a1.8,1.8,0,0,1-1.028-1.791l.116-1.282a1.791,1.791,0,0,1,.16-.6l1.345-2.881a1.838,1.838,0,0,1,.355-.506l.908-.911a1.8,1.8,0,0,1,2.033-.361l2.548,1.191A1.793,1.793,0,0,1,84.8,124.6m7.4-9.923a1.761,1.761,0,0,1-.17.691l-1.417,3.038a1.752,1.752,0,0,1-.424.572l-1.169,1.056a1.8,1.8,0,0,1-1.964.3l-3.893-1.816a1.8,1.8,0,0,1-1.037-1.7l.063-1.571a1.822,1.822,0,0,1,.167-.691l1.42-3.038a1.8,1.8,0,0,1,.421-.572l1.166-1.059a1.8,1.8,0,0,1,1.967-.3l3.893,1.819a1.8,1.8,0,0,1,1.037,1.693Zm3.095-14.021-.113,1.27a1.808,1.808,0,0,1-.16.6l-1.335,2.856a1.715,1.715,0,0,1-.358.512l-.9.9a1.8,1.8,0,0,1-2.03.358l-2.554-1.191a1.8,1.8,0,0,1-1.028-1.791l.113-1.266a1.793,1.793,0,0,1,.16-.6l1.335-2.859a1.8,1.8,0,0,1,.358-.509l.9-.9a1.8,1.8,0,0,1,2.033-.361l2.551,1.194a1.794,1.794,0,0,1,1.031,1.785m.013-9.244a.735.735,0,0,1-.069.283l-.76,1.628a.8.8,0,0,1-.17.236l-.679.632a.769.769,0,0,1-.848.135l-2.014-.94a.768.768,0,0,1-.443-.739l.053-.924a.73.73,0,0,1,.07-.283l.76-1.628a.78.78,0,0,1,.17-.236l.679-.632a.762.762,0,0,1,.848-.139l2.014.943a.774.774,0,0,1,.443.739Z" transform="translate(-21.02 -28.483)" fill="#fff"/>
        <path id="Path_1579" data-name="Path 1579" d="M104.378,120.369l-.525-.245a1.649,1.649,0,0,1,.525.245" transform="translate(-56.966 -65.891)" fill="#fff"/>
      </g>
    </g>
    <g id="Group_1005" data-name="Group 1005" transform="translate(751.231 4393.398)">
      <g id="Group_1019" data-name="Group 1019" clip-path="url(#clip-path-4)">
        <path id="Path_1580" data-name="Path 1580" d="M97.868,110.515c4.343-2.148,28.927-8.793,17.18-7.824-3.07-.071-14.017,4.583-13.348.834,6.665-2.909,20.063-6.42,4.14-5.474-1.889-2.165,4.739-1.359,5.788-2.762-2.16-.183-4.614,1.584-6.549,1.076,19.046-2.8,42.065-17.786,7.293-25.034-14.733-4.944-17.665-29.217-6.935-40.006a37.16,37.16,0,0,0-5.809,4.593c8.865-11.255,18.5-12.122,38.176-16.848,4.436.183,9.125-2.66,13.338-2.432-1.7,2.461-6,2.876-7.933,5.517,4.692,1.627,38.736-7.323,18.657,2.866,9.37.955-19.071,6.677-23.185,8.715,4.151,2.971,13.751-2.691,19.712-2.852-6.323,2.719-50.407,12.139-9.386,4.052-9.9,3.445-21.895,3.519-31.173,8.6C105.393,65.5,152.242,52.068,145.9,84.424c-8.556,35.623-35.359,16.08-48.229,30.151-1.973-.937-3.032-13.158-3.829-3.829-1.4,2.791-1.857-5.913-2.432-7.378-.754-2.7-.955,3.27-.968,4.464.306.853-.759,2.26-.887.683-.825-13.246-8.116-9.849-19.022-6.888-3.729,1.626-4.7,8.481-9.159,7.869-.5.7-2.279,2.58-2.456.825,4.016-12.573-5.021,7.521-4.08-.934-2.7.83-5.162,8.832-7.5,7.431C63.895,86.792,79.259,42.188,98.131,19.9c.4,18.941-1.11,38.4-.164,57.5,3.187,1.55,10.811-3.793,13.336-1.823,9.294.891-9.633,4.609-13,6.672,3.772-.329,7.933-.941,11.809-1.579,5.66.534-5.24,2.542-6.773,3.578,8.552-1.275,5.328,2.326,9.87,2.513,6.107,2.8-12.061,4.459-14.714,6.517,3.288-.458,15.126-3.359,13.891-2.127-14.607.436-16.089,5.994-14.519,19.373M70.059,71.466c4.943-7.959,9.043-17.1,13.1-25.5-4.235,7.31-10.909,20.705-13.1,25.5m13.9,1.136c-1.425,2.688-5.738,8.749-4.972,10.813,7.76.254,6.143-5.311,4.972-10.813m41.628-50.021a48.494,48.494,0,0,0-9.021,2.572,63.5,63.5,0,0,0,9.021-2.572M114.668,48.829a29.256,29.256,0,0,1,1.66-4.692c-1.119.657-1.994,3.141-1.66,4.692M100.886,78.095c.83.443,3.675-.093,4.433-.837-1.306-.306-3.009.68-4.433.837m.107-38.166a31.8,31.8,0,0,1,2.217-4.505c-.906.541-1.89,2.554-2.217,4.505M60.261,91.759a12.318,12.318,0,0,0-1.543,3,8.319,8.319,0,0,0,1.543-3M97.4,74.651a6.954,6.954,0,0,0-.031,3.2,7.262,7.262,0,0,0,.031-3.2m10.73-6.311q-1.315-.916-2.627-1.833a5.227,5.227,0,0,0,2.627,1.833m12.509-27.054c.505-.2.908-.1,1.051-.507-.22-.465-.787-.024-1.051.507m-49.668,59.44c-.133-.054-.768.024-.519.206.218.055.344-.109.519-.206M85.095,70.518c-.019-.375-.306.119-.052.173.014,0,.035-.112.052-.173" transform="translate(34.526 12.127)" fill="#fabd49"/>
        <path id="Path_1581" data-name="Path 1581" d="M.177,127.884c14.149-31,28.2-63.505,41.209-94.864-1.785,1.771-2.264,5.335-3.623,7.7C29.408,58.81,18.089,87.5,11.527,100.455c.856-11.266,39.916-74.4,21.611-66.942-.306.08-.579.3-.993.194,2.911-1.911-1.664-1.363-3.362-1.9-2.784-3.443-3.6-.512-4.813-3.189-7.207-5.322-2.373-2.051,1.934-6.034.669-1.32-7.1,1.709-3.817-.149,4.076-.782,7.028-1.892,9.887-4.211C78.551-5.038,105.53,40.415,62.207,68.91c15.688,17.839-6.776,51.155-23.725,54.338,12-8.493,5.583-6.062-4.67-3.142,16.653-3.26-20.037,7.022-25.515,4.348,6.982-18.33-1.906-.889-6.321,3.931-1.774-1.517,1.2-4.256,1.218-6.188-1.378,1.61-1.65,4.171-3.018,5.688M43.27,76.22c-8.964,1.48-8.123,18.365-13.663,25.592C42.073,106.18,64.22,82.325,43.27,76.22M66.548,38.949C63.85,17.806,49.176,51.4,50.789,55.88c8.416-.455,15.392-8.815,15.759-16.931M30.358,98.183c1.128-1.724,6.146-14.235,6.183-15.473-2.463,4.962-5.066,10.117-6.183,15.473M44.045,15.326a28.762,28.762,0,0,0-8.561,1.92l8.561-1.92M9.789,122.8c-1.468,2.141.918.837,2.051,1.131,3.957-.109-1.28-.017-2.051-1.131m42.28-35a6.4,6.4,0,0,0-.514,1.994,3,3,0,0,0,.514-1.994M62.813,31.372c-.166-.152-.612-.346-.63-.016a.54.54,0,0,0,.63.016m3.914,3.455a.943.943,0,0,0,.311.688c0-.282.062-.495-.311-.688" transform="translate(0.129 8.62)" fill="#fabd49"/>
        <path id="Path_1582" data-name="Path 1582" d="M62.119,145.726c.054-3.516,2.011-2.236-1.532-4.087-.811-.937-3.175,2.518-3.533.126.178-2.969.263-4.227-1.889-1.435.771-5.98,4.419-12.066,6.3-18.083-2.937,4.033-4.142,9.922-6.818,13.628-.342-3.149,2.7-7.137,3.756-10.448,6.7-14.29-8.606,8.972-13.376,10-2.646-.508-5.41-4.229-2.432-6.3,3.473-2.876.519-7.855.854-11.729-4.414,6.615-6.33,15.494-12.141,21.163,1.4-4.213-.235-3.021-2.12-.272-1.894-1.876-2.866,3.058-5.256,5.207.062-2.8,2.176-5.906,2.077-9.029-1.076,1.361-3.346,5.8-2,1.366,1.263-12.5,12.767-36.583-.277-9.867,3.355-9.65,9.1-19.209,13.6-28.655,6.517-10.743,7.284-23.175,10.832-30.686,2.66,3.277,1.665-5.7,6.878,2.238,5.46,1.257,2.468,18.453,4.329,25.821C57.059,108.892,75.59,78.952,80.946,75.423c2.349-2.087,2.731-.27,1.705,1.9,2.1-1.252,3.243-.844,2.074,1.693,1.586.853,4.312-6.107,7.044-3-2.819,22.718-25.975,65.2-29.65,69.714M57.285,88.583c.149-2.2-1.19-16.132-1.6-17.021-.581,1.582.5,13.421,1.6,17.021m-12.833,26.95a17.338,17.338,0,0,0,.738,9.043c1.406-.994.246-7.094-.738-9.043m-14.4.877c.944-1.141,5.4-11.845,5.472-13.175Q32.5,109.72,30.055,116.41" transform="translate(17.214 47.769)" fill="#fabd49"/>
        <path id="Path_1583" data-name="Path 1583" d="M102.279,40.77C95.491,33.5,169.567,24.3,182.2,20.138c-2.931,2.262-27.023,5.031-28.645,6.932,5.206-.036,17.528-4.434,19.347-1.352-10.693,3.554,3.369.738,7.99,1.136-.851,4.229-16.144,5.588-21.983,7.9-1.435.965,3.724-.017,1.787,2.238,2.892.507,13.011-.581,11.257.069-20.776,4.265-29.413,6.022-34.691,28.688-13.4,33.821.571-3.781,6.2-18.355-7.648,13.486-14.787,44.537-21.895,49.879.953-4.818-4.863,7.393-6.494,9.182-.783-2.76,4.18-11.714,2.509-12.155-.444,1.352-4.348,5.577-4.253,3.295,4.561-13.346-3.283,4.721-6.3,8.656,1.859-17.341,16.883-40.537,16.981-54.9-8.182,1.586-14.946,2.1-2.354-1.368-5.7.105-21.139,4.516-21.8,3.322,5.652-4.861-3.405-2.919-6.432-4.943.512-2.062,7.264-1.947,4.856-3.829-.031-1.019,2.1-.15,1.444-1.275-.538-1.4,2.15-1.389,2.558-2.487M113.294,86.7c-.6,1.155-1.531,2.155-1.178,3.583a12.944,12.944,0,0,0,1.178-3.583m16.487-54.756a4.266,4.266,0,0,0-1.709.377,3.556,3.556,0,0,0,1.709-.377" transform="translate(68.146 14.69)" fill="#fabd49"/>
        <path id="Path_1584" data-name="Path 1584" d="M54.954,45.692c1.792-.327,6.1-1.89,2.027-2.485-2.394-1.593,5.079-4.166-1.406-3.909-3.729-1.935,5.375-2.3,2.637-4.536.042-6.375,26.947-7.1,35.751-9.285.178,1.155-4.894.664-3.431,1.659,2.857.941-2,2.6-.356,3.407.713,2.653-1.411,4.708-3.955,5.619,2.957,1.809-2.338,1.707-1.252,2.9-3.289,2.205-6.869,2.959-11.4,3.5-3.232,3.557-5.083,9.574,1.693,8.573-7.54,3.251,3.895,1.871,1.906,8.36C74.569,63.47,69,62.3,64.94,63.8c3.281.5,6.726-1.5,9.82-1.012C68.028,63.955,59.5,67.464,60.924,75.22c2.108-.353,4.813-1.413,6.785-.787-.36.863-5.671,2.029-2.572,2.463,2.017.531,4.623,2.426.782,1.726-3.12,2.106-3.317,2.463.157,3.155-.15,2.17-9.382,2.345-6.909,3.457,4-1.406,9.851-.889,2.733,1.532,4.621.849-20.383,6.148-23.868,5.491.761-7.468,10.525-18.2,10.335-25.888-1.47-2.169-9.95-2.286-2.406-5.206,1.29-.884,3.526-1.558,4.05-2.988-.514-1.1-4.609.514-3.027-1.71,4.645-.738,16-11.027,7.969-10.773m4.3-.588c-.51,1.389-3.831,7.146-2.347,6.352.752-1.3,2.42-5.673,2.347-6.352" transform="translate(27.742 18.584)" fill="#fabd49"/>
        <path id="Path_1585" data-name="Path 1585" d="M73.961,132.8c-3.066,3.419-4.353,3.542-1.973-1.148,8.537-30.98,19.316-39.132,13.056-52.864-1.6-.918,2.288-1.71.676-1.626-4.649-.353,6.868-3.62,9.052-3.646,27.8-4.445,20.2,27.362,9.358,41.057-6.537,9.362-21.973,14.97-30.169,18.227m17.808-23.994c6.479-1.878,17.336-18.138,8.435-21.293-4.081,5.64-5.475,14.609-8.435,21.293m-14.23,8.39a77.979,77.979,0,0,0-2.857,7.8,27.041,27.041,0,0,0,2.857-7.8m21.461,2a12.147,12.147,0,0,0-3.208,2.444A9.485,9.485,0,0,0,99,119.191M96.965,74.277a2.341,2.341,0,0,0,1.6-.007,2.8,2.8,0,0,0-1.6.007" transform="translate(51.613 53.318)" fill="#fabd49"/>
        <path id="Path_1586" data-name="Path 1586" d="M92.687,88.426c-.118,17.632-12.148,53.613-32.6,39.819-16.9-19.93,22.663-81.526,32.6-39.819M78.743,90.05c-12.2,2.636-13.059,34.565-2.037,22.118,19.026-35.756-11.4-10.79,2.037-22.118m-3.774,1.038c1.518-1.7,3.654-2.553,5.818-3.466-2.572-1.944-4.5,1.723-5.818,3.466" transform="translate(40.802 54.155)" fill="#fabd49"/>
        <path id="Path_1587" data-name="Path 1587" d="M124.332,96.11c8.936,2.49-7.724,8.208-3.054,9.778-4.37.218-13.69,3.869-9.989,7.89,3.386-.713,20.549-2.532,11.567-.761,4.54.322,3.227,1.022-.327,2.418,12.869,4.481,1.027,3.808,4.324,6.124,7.26,3.772-41.367,8.914-43.2,8.723,1.678-.673,6.02-.3,2.554-1.3-.313-1.3,1.793-1.486,2.39-2.349-.291-.6-1.557-1.266-.384-1.819,2.608-1.785,6.153-.948,6.2-4.725.4-1.674,3.77-.778,4.2-2.807,2.419-11.255,10.588-24.622,9.716-34.319-.313-2.774-1.188-4.329,2.793-4.927-5.356.4-6.871-1.517-1.027-2.835-.951.2-4.374-.531-1.783-.825,7.068.064,43.252-7.881,28.4,2.169-1.3,1.09-3.03,1.205-.4,2.07,4.564,3.36-13.2,5.117-2,4.718-.171,3.483-25.579,5.6-2.918,3.405,4.391.024-7.84,1.88-10.23,2.029-3.535,3.027-1.849,5.443,2.67,4.356,2.364-.119.119,1.7.493,2.987m-19.458,4.166a11.857,11.857,0,0,0-1.164,2.938,9.091,9.091,0,0,0,1.164-2.938m1.947-5c.194-.175.327-.356.227-.626-.131.2-.313.363-.227.626" transform="translate(61.02 52.123)" fill="#fabd49"/>
        <path id="Path_1588" data-name="Path 1588" d="M39.8,66.977c-1.307,3.077-5.73,10.71-8.763,8.789.719-1.325,8.81-10.759,8.763-8.789" transform="translate(22.639 48.66)" fill="#fabd49"/>
        <path id="Path_1589" data-name="Path 1589" d="M71.929,72.855c2.022,1.37-4.861,2.207-5.617,4.045-.918-1.563,3.71-3.786,5.617-4.045" transform="translate(48.284 53.144)" fill="#fabd49"/>
        <path id="Path_1590" data-name="Path 1590" d="M49.073,78.678c.752-1.78.837-5.031,2.835-5.45.82,1.482-1.724,4.19-2.835,5.45" transform="translate(35.796 53.416)" fill="#fabd49"/>
        <path id="Path_1591" data-name="Path 1591" d="M31.43,73.182c1.423.32-1.759,2.49-2.305,2.771-1.408-1.333.733-3.072,2.305-2.771" transform="translate(20.91 53.357)" fill="#fabd49"/>
        <path id="Path_1592" data-name="Path 1592" d="M87.824,54.215c2.755.351-1.268,2.38-2.458,1.6-1.584-.737,1.78-1.579,2.458-1.6" transform="translate(61.964 39.547)" fill="#fabd49"/>
        <path id="Path_1593" data-name="Path 1593" d="M105.348,66.858a4.4,4.4,0,0,1-2.151,4.374c-.348-1.3,1.045-3.564,2.151-4.374" transform="translate(75.238 48.77)" fill="#fabd49"/>
        <path id="Path_1594" data-name="Path 1594" d="M85.2,71.309c3.637-1.292,2.2,1.008-.583,1.055-2.561.853-1.276-1.55.583-1.055" transform="translate(60.674 51.729)" fill="#fabd49"/>
        <path id="Path_1595" data-name="Path 1595" d="M92.374,39.722c1.223.346,3.386.2,3.615,1.614-.718.2-5.88-.543-3.615-1.614" transform="translate(66.966 28.975)" fill="#fabd49"/>
        <path id="Path_1596" data-name="Path 1596" d="M72.231,103.379c-.322,1.64-2.56,5.349-3.822,5.335.732-2.119,2.7-3.428,3.822-5.335" transform="translate(49.901 75.41)" fill="#fabd49"/>
        <path id="Path_1597" data-name="Path 1597" d="M70.946,71.25c-.692-.707-1.252-3.281-.342-3.874.949.534,1.254,3.085.342,3.874" transform="translate(51.156 49.148)" fill="#fabd49"/>
        <path id="Path_1598" data-name="Path 1598" d="M85.263,104.344c-.24.668-3.046,1.785-2.9.564.31-.617,2.523-1.572,2.9-.564" transform="translate(60.075 75.792)" fill="#fabd49"/>
        <path id="Path_1599" data-name="Path 1599" d="M96.788,77.53c-1.972-.114-.223-1.6.837-1.643,1.261.01.078,2.027-.837,1.643" transform="translate(69.95 55.356)" fill="#fabd49"/>
        <path id="Path_1600" data-name="Path 1600" d="M43.6,49.085c2.33.08-.443,1.681-1.491,1.147-1.311-.645.858-1.323,1.491-1.147" transform="translate(30.416 35.784)" fill="#fabd49"/>
        <path id="Path_1601" data-name="Path 1601" d="M57.195,54.648c-.145.815-1.911,1.413-2.433.789-.256-.79,2.387-1.916,2.433-.789" transform="translate(39.933 39.516)" fill="#fabd49"/>
        <path id="Path_1602" data-name="Path 1602" d="M115.129,78.382c-1.984.012-.325-1.24.742-1.256,1.664-.042.465,1.653-.742,1.256" transform="translate(83.305 56.259)" fill="#fabd49"/>
        <path id="Path_1603" data-name="Path 1603" d="M66.958,33.855c-2.177.047.483-1.837,1.321-1.346.427.782-.346,1.534-1.321,1.346" transform="translate(48.232 23.654)" fill="#fabd49"/>
        <path id="Path_1604" data-name="Path 1604" d="M104.281,39.036c-.457.953-2.11,1.79-2.93.979.266-.924,2.042-.808,2.93-.979" transform="translate(73.931 28.475)" fill="#fabd49"/>
        <path id="Path_1605" data-name="Path 1605" d="M67.936,107.932a2.041,2.041,0,0,1-2.271,1.16c-.6-.9,1.892-2.07,2.271-1.16" transform="translate(47.832 78.491)" fill="#fabd49"/>
        <path id="Path_1606" data-name="Path 1606" d="M82.7,72.347c.081.989-1.684,1.261-1.721.189-.073-1.043,1.69-1.371,1.721-.189" transform="translate(59.071 52.225)" fill="#fabd49"/>
        <path id="Path_1607" data-name="Path 1607" d="M85.129,57.212c-2.319-.619,2.874-2.145,1.238-.356a9.521,9.521,0,0,1-1.238.356" transform="translate(61.655 40.86)" fill="#fabd49"/>
        <path id="Path_1608" data-name="Path 1608" d="M78.66,76.157c1.212.453-.956,1.475-1.479,1.121-.875-.706,1.041-.932,1.479-1.121" transform="translate(56.135 55.553)" fill="#fabd49"/>
        <path id="Path_1609" data-name="Path 1609" d="M94.566,75.3c-.853-.116-.636-1.311.316-1.173,1.117-.022.624,1.252-.316,1.173" transform="translate(68.592 54.064)" fill="#fabd49"/>
        <path id="Path_1610" data-name="Path 1610" d="M65.339,34.826c-1.413-.3.611-1.731,1.017-.754.048.458-.7.64-1.017.754" transform="translate(47.301 24.608)" fill="#fabd49"/>
        <path id="Path_1611" data-name="Path 1611" d="M104.666,70.039c.18.572.232,2.081-.649,2.006-.477-.313.168-2.132.649-2.006" transform="translate(75.754 51.085)" fill="#fabd49"/>
        <path id="Path_1612" data-name="Path 1612" d="M88.4,100.588c1.209-.017.344.955-.386.953-1.091-.019-.474-1.205.386-.953" transform="translate(63.772 73.348)" fill="#fabd49"/>
        <path id="Path_1613" data-name="Path 1613" d="M108.669,66.929a.614.614,0,0,1,.171-.9c.521-.05.228.8-.171.9" transform="translate(79.171 48.163)" fill="#fabd49"/>
        <path id="Path_1614" data-name="Path 1614" d="M67.777,75.084a.475.475,0,0,1-.526.349c-.6-.223.5-.986.526-.349" transform="translate(48.925 54.589)" fill="#fabd49"/>
        <path id="Path_1615" data-name="Path 1615" d="M.284,78.917a.781.781,0,0,1-.244.839c-.161-.379.218-.6.244-.839" transform="translate(0 57.566)" fill="#fabd49"/>
        <path id="Path_1616" data-name="Path 1616" d="M67.236,96.9c-.071.652-1.157,1.774-1.774,1.019-.673-.737,1.8-2.4,1.774-1.019" transform="translate(47.667 70.296)" fill="#fabd49"/>
        <path id="Path_1617" data-name="Path 1617" d="M91.9,71.837c0-16.158,11.6-28.261,27.974-28.261s27.97,12.1,27.97,28.261-11.593,28.19-27.97,28.19S91.9,88,91.9,71.837m41.308,0c0-8.407-5.436-14.638-13.334-14.638-8.044,0-13.334,6.231-13.334,14.638,0,8.334,5.29,14.64,13.334,14.64,7.9,0,13.334-6.306,13.334-14.64" transform="translate(67.034 31.787)" fill="#fff"/>
        <path id="Path_1618" data-name="Path 1618" d="M128.645,87.457h1.883a1.908,1.908,0,0,0,2.1-2.1V57.236a1.908,1.908,0,0,0-2.1-2.1h-1.883V44.12h25.58c12.248,0,20.653,6.088,20.653,17.1,0,7.246-3.985,12.248-10.29,14.711l4.493,9.132a4.127,4.127,0,0,0,4.2,2.392h2.61V98.471H160.82l-9.42-20.58h-4.856v7.464a1.889,1.889,0,0,0,2.03,2.1h3.117V98.471H128.645Zm24.928-20.219c4.132,0,7.1-2.1,7.1-6.088,0-3.914-2.971-5.87-7.1-5.87h-7.03V67.238Z" transform="translate(93.84 32.183)" fill="#fff"/>
        <path id="Path_1619" data-name="Path 1619" d="M92.945,112.7c0-16.451,11.16-28.19,26.234-28.19,6.738,0,12.464,2.537,15.724,7.03l.218-6.088h11.957v19.494H134.687c-.725-3.48-5.363-7.393-12.393-7.393-8.914,0-14.638,6.306-14.638,15.292,0,9.784,5.87,15.8,15.29,15.8,6.378,0,11.887-3.116,11.887-7.248v-.073a1.847,1.847,0,0,0-1.958-2.029H119.686V108.569h27.393V139.8H135.194l-.145-5.508c-2.971,4.059-8.189,6.667-15.653,6.667-14.493,0-26.45-10.581-26.45-28.263" transform="translate(67.799 61.645)" fill="#fff"/>
        <path id="Path_1620" data-name="Path 1620" d="M128.645,128.39h1.883a1.909,1.909,0,0,0,2.1-2.1V98.171a1.909,1.909,0,0,0-2.1-2.1h-1.883V85.053H169.88v16.378H158.718v-3.26a1.922,1.922,0,0,0-2.029-2.1H146.47v10.581h12.248v9.638H146.47v12.1h10.581a1.854,1.854,0,0,0,2.029-2.1v-4.275h11.307V139.4H128.645Z" transform="translate(93.84 62.042)" fill="#fff"/>
        <path id="Path_1621" data-name="Path 1621" d="M147.726,33.491l-.393-10.24a1.425,1.425,0,0,0-.166-.61L135.558.972a1.408,1.408,0,0,0-1.211-.744L124.361,0a1.413,1.413,0,0,0-.655.145L94.047,14.756l-.393.185-.41.033a1.411,1.411,0,0,0-.586,2.681l3.111,1.5a1.4,1.4,0,0,0,1.1.052L116.2,12.03l3.63-1.448V10.6l-.713,3.819-1.259,6.944a1.4,1.4,0,0,0,.076.766l5.8,14.756.828-.391.263-11.575a1.408,1.408,0,0,1,1.482-1.375l.766.04,2.928.152,7.594.41,1.076.067.417.655.166.24L146.2,35.459l.735.937.939,1.233Z" transform="translate(67.008 0)" fill="#fff"/>
        <path id="Path_1622" data-name="Path 1622" d="M134.734,21.314l-.432-.026-4.946-.268-2.151-.112-.171-.009a2.022,2.022,0,0,0-2.117,1.953l-.232,8.46a2.031,2.031,0,0,1-1.14,1.754l-1.918.924-1.812.88-.709-1.8-6.847-17.45a2.026,2.026,0,0,1-.112-1.088l.432-2.375a2.017,2.017,0,0,0-2.729-2.228l-13,5.136a2.013,2.013,0,0,0-1.278,1.883l.052,12.667a2,2,0,0,0,.336,1.1l.3.448,5.768-3.333,2.132.363.975,1.693-.751,2.029L98.366,35.38,97.1,48.09l3.506-1.01,5.759.716.605,1.071L110.437,55a2.008,2.008,0,0,0,2.857.692L141.09,37.4l.673-.432.086-.067.681-2.729a2,2,0,0,0-.275-1.607Z" transform="translate(69.713 7.135)" fill="#fff"/>
        <path id="Path_1623" data-name="Path 1623" d="M128.645,44.584h1.883a1.907,1.907,0,0,0,2.1-2.1V14.365a1.908,1.908,0,0,0-2.1-2.1h-1.883V1.247H169.3V18.061H156.906v-3.7a1.923,1.923,0,0,0-2.027-2.1h-8.334V23.133h11.594v9.638H146.545v9.711a1.887,1.887,0,0,0,2.027,2.1h3.768V55.6h-23.7Z" transform="translate(93.84 0.91)" fill="#fff"/>
      </g>
    </g>
    <g id="Group_1006" data-name="Group 1006" transform="translate(206.52 4691.974)">
      <path id="Path_1491" data-name="Path 1491" d="M0,31.322v8.563H10.065V74.916H20.653V39.885h10V31.322Z" transform="translate(0 -2.08)" fill="#fff"/>
      <g id="Group_1003-2" data-name="Group 1003">
        <g id="Group_1002-2" data-name="Group 1002" clip-path="url(#clip-path-5)">
          <path id="Path_1492" data-name="Path 1492" d="M47.267,74.915H36.68V31.321H50.8c5.751,0,9.933,1.046,12.81,3.269,3.006,2.354,4.705,6.275,4.705,11.045,0,6.6-2.809,11.045-8.431,13.268l9.608,16.012H56.809L47.267,58.054Zm3.4-22.81c4.38,0,6.928-2.222,6.928-6.012,0-3.661-2.483-6.079-6.275-6.079H47.267V52.106Z" transform="translate(-2.436 -2.08)" fill="#fff"/>
          <path id="Path_1493" data-name="Path 1493" d="M87.61,68.643l-1.9,6.273H74.408L88.786,31.322h13.464l14.313,43.593H104.93l-1.9-6.273Zm7.712-24.837-5.1,16.275h10.2Z" transform="translate(-4.941 -2.08)" fill="#fff"/>
          <rect id="Rectangle_1217" data-name="Rectangle 1217" width="10.589" height="43.593" transform="translate(115.081 29.242)" fill="#fff"/>
          <path id="Path_1494" data-name="Path 1494" d="M153.384,74.916H142.795V31.322h10.589l15.882,24.51V31.322h10.588V74.916H169.266L153.384,50.08Z" transform="translate(-9.482 -2.08)" fill="#fff"/>
          <path id="Path_1495" data-name="Path 1495" d="M81.17,14.659a2.9,2.9,0,0,0,2.2-1.253c.205-.226.35-.411.494-.411a.238.238,0,0,1,.266.226,1.579,1.579,0,0,1-.164.555c-.451,1.09-1.643,3.308-4.313,3.308a3.831,3.831,0,0,1-4.027-3.78,4.724,4.724,0,0,1,3.041-4.376A3.409,3.409,0,0,1,77.6,6.586c0-1.849,1.972-3.389,4.067-3.389,1.808,0,2.836.759,2.836,2.177,0,1.027-.555,1.787-1.418,1.787a.936.936,0,0,1-1.005-.9c0-.8.862-.822.862-1.438,0-.33-.246-.514-.7-.514-1.109,0-1.89,1.213-1.89,2.671a1.465,1.465,0,0,0,.43,1.212,3.13,3.13,0,0,1,1.111-.163c.656,0,1.088.369,1.088.924a1.186,1.186,0,0,1-1.334,1.13,3.851,3.851,0,0,1-1.665-.431,3.948,3.948,0,0,0-1.131,2.732,2.176,2.176,0,0,0,2.321,2.28" transform="translate(-5.021 -0.212)" fill="#fff"/>
          <path id="Path_1496" data-name="Path 1496" d="M86.891,15.39c0,.513.184.863.555.863.288,0,.452-.184.452-.555,0-1.212-2.034-1.4-2.034-2.937,0-1.294,1.295-1.951,2.835-1.951,1.5,0,2.177.574,2.177,1.416a.937.937,0,0,1-.965,1.047.728.728,0,0,1-.739-.7c0-.308.164-.431.164-.616,0-.205-.164-.287-.391-.287a.674.674,0,0,0-.6.677c0,1.213,2.26,1.377,2.26,2.876,0,1.335-1.068,2.24-2.875,2.24-1.541,0-2.67-.679-2.67-1.788a.981.981,0,0,1,.945-1.047c.555,0,.883.267.883.76" transform="translate(-5.648 -0.718)" fill="#fff"/>
          <path id="Path_1497" data-name="Path 1497" d="M95.014,12.442a10.551,10.551,0,0,0-.431,2.321c0,.616.308.843.8.843.411,0,.822-.39,1.15-.657.144-.124.247-.206.37-.206a.256.256,0,0,1,.268.247.709.709,0,0,1-.164.41,4.778,4.778,0,0,1-3.164,1.87A1.876,1.876,0,0,1,91.727,15.3c0-1.315.637-2.342.637-3.369,0-.267-.555-.1-.555-.473,0-.2.123-.595.349-.595,1.089,0,2.1-1.069,2.63-1.932.205-.329.37-.452.555-.452a.312.312,0,0,1,.328.329c0,.452-.288,1.294-.288,1.643,0,.267.082.412.7.412.163,0,.287.062.287.226,0,.41-.226.7-.472.7a.771.771,0,0,0-.883.657" transform="translate(-6.091 -0.563)" fill="#fff"/>
          <path id="Path_1498" data-name="Path 1498" d="M105.566,14.947c.144-.144.226-.205.349-.205a.294.294,0,0,1,.288.288,1.1,1.1,0,0,1-.33.657,3.357,3.357,0,0,1-2.608,1.356,1.652,1.652,0,0,1-1.6-1.028,4.039,4.039,0,0,1-2.547,1.028A2.083,2.083,0,0,1,96.9,14.66a3.907,3.907,0,0,1,3.9-4.129,3.138,3.138,0,0,1,1.5.349,14.322,14.322,0,0,0,.6-3.451c0-.678-.349-1.006-.78-1.006q-.308,0-.308-.246c0-.432,1.089-1.109,2.259-1.109a1.543,1.543,0,0,1,1.747,1.6c0,1.829-1.726,5.382-1.726,7.867a.749.749,0,0,0,.7.843c.349,0,.513-.165.78-.432m-4.354-3.512c-1.15,0-1.623,2.3-1.623,3.43,0,.514.2.842.657.842.39,0,.8-.349,1.067-.985a8.867,8.867,0,0,0,.555-2.692c0-.371-.226-.6-.657-.6" transform="translate(-6.434 -0.336)" fill="#fff"/>
          <rect id="Rectangle_1218" data-name="Rectangle 1218" width="10.589" height="43.593" transform="translate(329.198 29.242)" fill="#fff"/>
          <path id="Path_1499" data-name="Path 1499" d="M379.93,74.916H369.341V31.322H379.93l15.881,24.51V31.322H406.4V74.916H395.811L379.93,50.08Z" transform="translate(-24.525 -2.08)" fill="#fff"/>
          <path id="Path_1500" data-name="Path 1500" d="M422.291,61.654a3.208,3.208,0,0,0-.065.72c0,2.156,2.353,3.986,5.164,3.986,2.548,0,4.509-1.5,4.509-3.465,0-2.026-1.176-2.941-6.275-4.771-9.541-3.4-13.268-7.386-13.268-14.053,0-8.17,6.014-13.66,15.1-13.66,5.883,0,10.72,2.484,13.268,6.732a16.97,16.97,0,0,1,2.287,6.994H432.225c-.327-3.006-1.83-4.379-4.836-4.379-2.615,0-4.314,1.372-4.314,3.464A3.5,3.5,0,0,0,425.1,46.36a23.9,23.9,0,0,0,4.968,2.158c4.967,1.9,7.32,3.137,9.28,4.9a11.488,11.488,0,0,1,3.661,8.759c0,8.1-6.274,13.528-15.62,13.528-9.543,0-15.49-5.424-15.49-14.052Z" transform="translate(-27.35 -2.019)" fill="#fff"/>
          <path id="Path_1501" data-name="Path 1501" d="M456.882,68.643l-1.9,6.273H443.68l14.378-43.593h13.464l14.312,43.593H474.2l-1.9-6.273Zm7.712-24.837-5.1,16.275h10.2Z" transform="translate(-29.461 -2.08)" fill="#fff"/>
          <path id="Path_1502" data-name="Path 1502" d="M500.326,74.916H489.738V31.322h10.589l15.882,24.51V31.322H526.8V74.916H516.209L500.326,50.08Z" transform="translate(-32.519 -2.08)" fill="#fff"/>
          <path id="Path_1503" data-name="Path 1503" d="M543.3,48.773h14.378v8.562H543.3v9.02h14.378v8.561H532.717V31.322h24.966v8.562H543.3Z" transform="translate(-35.373 -2.08)" fill="#fff"/>
          <path id="Path_1504" data-name="Path 1504" d="M437.894,16.1c-.452,0-.822-.945-.822-1.4,0-.555.308-.761.78-1.232,2.218-2.158,4.806-4.684,4.806-6.779,0-1.006-.471-1.439-1.4-1.439a1.311,1.311,0,0,0-1.293,1.273c0,.575.595.6.595,1.4a1.044,1.044,0,0,1-1.027,1.027,1.465,1.465,0,0,1-1.458-1.664c0-1.706,1.643-3.143,3.82-3.143,2.116,0,3.862,1.006,3.862,3.1,0,2.547-3.882,4.622-5.177,6.265a5.057,5.057,0,0,1,.534-.041c.7,0,1.356.122,1.931.122a1.646,1.646,0,0,0,1.6-.718c.185-.226.288-.33.431-.33.226,0,.308.145.308.371,0,.863-1.047,3.286-3.122,3.286-1.4,0-1.706-.555-3.041-.555-.493,0-.883.452-1.335.452" transform="translate(-29.022 -0.275)" fill="#fff"/>
          <path id="Path_1505" data-name="Path 1505" d="M455.633,8.227c0,3.7-2.219,8.073-5.732,8.073-1.93,0-3.348-1.294-3.348-4.128,0-4.54,2.712-8.074,5.731-8.074,1.911,0,3.349,1.233,3.349,4.129m-6.183,5.341c0,.841.37,1.54.986,1.54,1.664,0,2.424-5.444,2.424-8.381,0-.761-.122-1.541-.781-1.541-1.52,0-2.629,3.39-2.629,8.382" transform="translate(-29.651 -0.272)" fill="#fff"/>
          <path id="Path_1506" data-name="Path 1506" d="M456.879,16.1c-.452,0-.822-.945-.822-1.4,0-.555.308-.761.78-1.232,2.218-2.158,4.806-4.684,4.806-6.779,0-1.006-.471-1.439-1.4-1.439a1.311,1.311,0,0,0-1.293,1.273c0,.575.595.6.595,1.4a1.044,1.044,0,0,1-1.027,1.027,1.465,1.465,0,0,1-1.458-1.664c0-1.706,1.643-3.143,3.82-3.143,2.116,0,3.862,1.006,3.862,3.1,0,2.547-3.882,4.622-5.177,6.265a5.057,5.057,0,0,1,.534-.041c.7,0,1.356.122,1.931.122a1.647,1.647,0,0,0,1.6-.718c.185-.226.288-.33.431-.33.226,0,.308.145.308.371,0,.863-1.047,3.286-3.122,3.286-1.4,0-1.706-.555-3.041-.555-.493,0-.883.452-1.335.452" transform="translate(-30.282 -0.275)" fill="#fff"/>
          <path id="Path_1507" data-name="Path 1507" d="M466.515,16.1c-.452,0-.822-.945-.822-1.4,0-.555.308-.761.781-1.232,2.218-2.158,4.806-4.684,4.806-6.779,0-1.006-.471-1.439-1.4-1.439a1.311,1.311,0,0,0-1.293,1.273c0,.575.595.6.595,1.4a1.044,1.044,0,0,1-1.027,1.027A1.465,1.465,0,0,1,466.7,7.285c0-1.706,1.643-3.143,3.82-3.143,2.116,0,3.862,1.006,3.862,3.1,0,2.547-3.882,4.622-5.177,6.265a5.058,5.058,0,0,1,.534-.041c.7,0,1.356.122,1.931.122a1.646,1.646,0,0,0,1.6-.718c.185-.226.288-.33.431-.33.226,0,.308.145.308.371,0,.863-1.047,3.286-3.122,3.286-1.4,0-1.706-.555-3.041-.555-.493,0-.883.452-1.335.452" transform="translate(-30.922 -0.275)" fill="#fff"/>
          <path id="Path_1508" data-name="Path 1508" d="M294.021,8.834q-1.395-.909-2.849-1.74A55.68,55.68,0,0,0,273.015.775a56.662,56.662,0,0,0-53.507,20.5,55.853,55.853,0,0,0-12.192,34.909A56.234,56.234,0,0,0,316.511,75.095l-.164-.257c.1-.053.237-.165.286-.136,0,0,.009.006.02.006a56.092,56.092,0,0,0,3.135-18.521A57.14,57.14,0,0,0,294.021,8.834m-7.336,88.683q-1.861,1.039-3.818,1.885a48.251,48.251,0,0,1-28.4,3.227c-20.338-4.032-35.728-21.772-37.909-42.275A45.569,45.569,0,0,1,219.91,37.9C227.9,18.917,248.161,6.881,268.649,9.144,288.2,11.3,304.75,26.05,309.494,45.066c.165.649.311,1.3.446,1.952a44.119,44.119,0,0,1,.9,8.3c.238,17.013-9.115,33.843-24.151,42.2" transform="translate(-13.766 0)" fill="#fff"/>
          <path id="Path_1509" data-name="Path 1509" d="M272,48.14a12.388,12.388,0,0,0-17.3,14.566,12.682,12.682,0,0,0,10.172,8.844c6.425.911,13.117-3.828,14.164-10.278l-.014-.4a.3.3,0,0,0,.063.015A12.967,12.967,0,0,0,272,48.14m-2.108,16.209a5.7,5.7,0,0,1-3.223.892,6.378,6.378,0,0,1-4.763-2.409c-3.062-3.8.034-9.517,4.763-9.517a6,6,0,0,1,5.995,5.99,6.064,6.064,0,0,1-2.772,5.044" transform="translate(-16.882 -3.118)" fill="#fff"/>
          <path id="Path_1510" data-name="Path 1510" d="M279.763,81.812a1.957,1.957,0,1,0-.863,2.661,1.964,1.964,0,0,0,.863-2.661m0,0a1.957,1.957,0,1,0-.863,2.661,1.964,1.964,0,0,0,.863-2.661m-16,1.924a2.043,2.043,0,1,0,1.9,2.122,1.963,1.963,0,0,0-1.9-2.122m16-1.924a1.957,1.957,0,1,0-.863,2.661,1.964,1.964,0,0,0,.863-2.661m0,0a1.957,1.957,0,1,0-.863,2.661,1.964,1.964,0,0,0,.863-2.661m-16,1.924a2.043,2.043,0,1,0,1.9,2.122,1.963,1.963,0,0,0-1.9-2.122m0,0a2.043,2.043,0,1,0,1.9,2.122,1.963,1.963,0,0,0-1.9-2.122m16-1.924a1.957,1.957,0,1,0-.863,2.661,1.964,1.964,0,0,0,.863-2.661m0,0a1.957,1.957,0,1,0-.863,2.661,1.964,1.964,0,0,0,.863-2.661m-16,1.924a2.043,2.043,0,1,0,1.9,2.122,1.963,1.963,0,0,0-1.9-2.122m0,0a2.043,2.043,0,1,0,1.9,2.122,1.963,1.963,0,0,0-1.9-2.122m16-1.924a1.957,1.957,0,1,0-.863,2.661,1.964,1.964,0,0,0,.863-2.661m0,0a1.957,1.957,0,1,0-.863,2.661,1.964,1.964,0,0,0,.863-2.661m-16,1.924a2.043,2.043,0,1,0,1.9,2.122,1.963,1.963,0,0,0-1.9-2.122m0,0a2.043,2.043,0,1,0,1.9,2.122,1.963,1.963,0,0,0-1.9-2.122M278.537,29.6l-.741-.252-.824,2.428.6.2a1.273,1.273,0,0,0,1.817-.736,1.235,1.235,0,0,0-.848-1.638m1.226,52.209a1.957,1.957,0,1,0-.863,2.661,1.964,1.964,0,0,0,.863-2.661m0,0a1.957,1.957,0,1,0-.863,2.661,1.964,1.964,0,0,0,.863-2.661m-16,1.924a2.043,2.043,0,1,0,1.9,2.122,1.963,1.963,0,0,0-1.9-2.122M278.537,29.6l-.741-.252-.824,2.428.6.2a1.273,1.273,0,0,0,1.817-.736,1.235,1.235,0,0,0-.848-1.638m18.85,39.605s1.2-8.888,1.2-11.853c0-3.063-1.2-12.26-1.2-12.26a6.041,6.041,0,0,1,.33-1.987c-.024-.034-.054-.058-.077-.092l.12-.058a4.86,4.86,0,0,1,4.43-3.339h1.458A42.8,42.8,0,0,0,273.062,15.3c-.121-.024-.252-.053-.388-.077-3.46-.32-7.84-.94-11.5-.577-.126.015-.257.024-.392.039A42.754,42.754,0,0,0,225.9,39.62h1.9c2.65,0,4.8,2.452,4.8,5.476,0,0-1.2,9.2-1.2,12.26,0,2.965,1.2,11.853,1.2,11.853,0,3.023-2.152,5.476-4.8,5.476h-1.9a42.894,42.894,0,0,0,27.195,23.5l.746.2c5.364,1.007,10.366,2.257,15.725,1.148.131-.01.262-.024.4-.044a42.275,42.275,0,0,0,8.984-2.1c.237-.082.48-.175.717-.257a28.656,28.656,0,0,0,11.718-6.663c.179-.145.368-.31.562-.465a42.8,42.8,0,0,0,11.7-15.322H302.19c-2.656,0-4.8-2.453-4.8-5.476M276.245,26.871l3.033,1.027c2.093.712,2.927,2.166,2.3,4a3.064,3.064,0,0,1-4.182,1.977l-1.022-.349-.969,2.864-2.147-.727Zm3.818,30.281a15.121,15.121,0,0,1-1.512,6.615c-.116.228-.232.456-.368.688a16.047,16.047,0,0,1-2.781,3.663l-.809.751a14.265,14.265,0,0,1-9.415,3.557c-.131,0-.262,0-.393,0s-.266,0-.392,0a14.591,14.591,0,0,1-9.648-3.847,24.144,24.144,0,0,1-2.491-2.99,15.171,15.171,0,0,1-.984-1.419,10.431,10.431,0,0,1-.819-1.745,15.275,15.275,0,1,1,29.613-5.272M268.71,25.6l2.243.315-1.033,7.39,3,.421-.252,1.807-5.248-.737Zm-8.068.063.324,5.393a2.458,2.458,0,0,0,.407,1.425,1.513,1.513,0,0,0,2.355-.222,2.728,2.728,0,0,0,.155-1.377l-.325-5.393,2.263-.135.32,5.3a4.392,4.392,0,0,1-.78,3.141,3.68,3.68,0,0,1-2.67,1.235,3.872,3.872,0,0,1-2.946-.983,4.191,4.191,0,0,1-1.047-2.951l-.315-5.292ZM249.9,28.906a4.567,4.567,0,0,1,2.656-1.9,5.536,5.536,0,0,1,2.248-.2,4.761,4.761,0,0,1,1.546.524l-.955,1.876a2.948,2.948,0,0,0-2.156-.223,2.5,2.5,0,0,0-1.643,3.3,2.62,2.62,0,0,0,3.367,1.894,2.318,2.318,0,0,0,1.546-1.3l1.739,1.1a4.911,4.911,0,0,1-2.965,2.278,4.344,4.344,0,0,1-3.674-.354,5.1,5.1,0,0,1-2.185-2.889,5.011,5.011,0,0,1,.474-4.113m-6.658,9.58,1.934-1.09a.554.554,0,0,0,.063.141,1.016,1.016,0,0,0,1.381.2.86.86,0,0,0,.48-1.115c-.213-.378-.528-.422-1.666-.228-2.137.368-3.247.02-3.944-1.216a2.91,2.91,0,0,1,1.391-4.119,3.182,3.182,0,0,1,3.173-.145,3.594,3.594,0,0,1,1.159,1.061L245.2,33.1a.912.912,0,0,0-1.357-.305c-.489.275-.664.707-.445,1.1a.758.758,0,0,0,.708.373,5.4,5.4,0,0,0,1.153-.12,5.811,5.811,0,0,1,2.239-.063,2.434,2.434,0,0,1,1.6,1.241c.843,1.5.242,3.169-1.5,4.148-1.779,1-3.455.62-4.352-.984m8.039,42.1a1.856,1.856,0,0,0-2.608.863,1.942,1.942,0,0,0,.752,2.771,1.7,1.7,0,0,0,1.5.141l.32,1.5a3.639,3.639,0,0,1-2.752-.373,3.212,3.212,0,0,1-1.725-2.132,3.806,3.806,0,0,1,.387-2.67,3.76,3.76,0,0,1,2.433-1.909,3.4,3.4,0,0,1,2.389.417,4.1,4.1,0,0,1,1.274,1.08,3.494,3.494,0,0,1,.533,1.1l-1.493.475a2.172,2.172,0,0,0-1.007-1.255m6.677,8.179-1.624-.451.732-2.631-2.19-.611-.732,2.631-1.618-.45,1.85-6.673,1.624.451-.761,2.734,2.19.611.761-2.734,1.619.451Zm5.7.615a3.591,3.591,0,0,1-2.4-6.29,3.747,3.747,0,0,1,2.607-.907,3.514,3.514,0,0,1,3.5,3.7,3.6,3.6,0,0,1-3.7,3.5m8.771-.925a3.223,3.223,0,0,1-2.7-.471,3.821,3.821,0,0,1-1.464-2.272,3.754,3.754,0,0,1,.582-3.033,3.4,3.4,0,0,1,2.069-1.26,4.066,4.066,0,0,1,1.677-.019,3.364,3.364,0,0,1,1.119.474l-.809,1.338a2.178,2.178,0,0,0-1.584-.286,1.857,1.857,0,0,0-1.4,2.365,1.944,1.944,0,0,0,2.384,1.6,1.727,1.727,0,0,0,1.221-.877l1.226.916a3.655,3.655,0,0,1-2.321,1.526m7.186-2.6a3.585,3.585,0,0,1-5.03-4.468,3.735,3.735,0,0,1,1.891-2.006,3.516,3.516,0,0,1,4.812,1.663,3.6,3.6,0,0,1-1.672,4.812m9.3-51.235-1.856-1.071-3.721,6.469-1.963-1.129,3.722-6.469-1.866-1.071.911-1.585,5.685,3.271ZM277.108,80.8a1.957,1.957,0,0,0-.867,2.709,1.959,1.959,0,1,0,.867-2.709m2.277-49.562a1.235,1.235,0,0,0-.848-1.638l-.741-.252-.824,2.428.6.2a1.273,1.273,0,0,0,1.817-.736M263.762,83.736a2.043,2.043,0,1,0,1.9,2.122,1.963,1.963,0,0,0-1.9-2.122m0,0a2.043,2.043,0,1,0,1.9,2.122,1.963,1.963,0,0,0-1.9-2.122m16-1.924a1.957,1.957,0,1,0-.863,2.661,1.964,1.964,0,0,0,.863-2.661m0,0a1.957,1.957,0,1,0-.863,2.661,1.964,1.964,0,0,0,.863-2.661m-16,1.924a2.043,2.043,0,1,0,1.9,2.122,1.963,1.963,0,0,0-1.9-2.122m0,0a2.043,2.043,0,1,0,1.9,2.122,1.963,1.963,0,0,0-1.9-2.122m16-1.924a1.957,1.957,0,1,0-.863,2.661,1.964,1.964,0,0,0,.863-2.661m0,0a1.957,1.957,0,1,0-.863,2.661,1.964,1.964,0,0,0,.863-2.661m-16,1.924a2.043,2.043,0,1,0,1.9,2.122,1.963,1.963,0,0,0-1.9-2.122m0,0a2.043,2.043,0,1,0,1.9,2.122,1.963,1.963,0,0,0-1.9-2.122m16-1.924a1.957,1.957,0,1,0-.863,2.661,1.964,1.964,0,0,0,.863-2.661m0,0a1.957,1.957,0,1,0-.863,2.661,1.964,1.964,0,0,0,.863-2.661m-16,1.924a2.043,2.043,0,1,0,1.9,2.122,1.963,1.963,0,0,0-1.9-2.122m0,0a2.043,2.043,0,1,0,1.9,2.122,1.963,1.963,0,0,0-1.9-2.122m16-1.924a1.957,1.957,0,1,0-.863,2.661,1.964,1.964,0,0,0,.863-2.661m0,0a1.957,1.957,0,1,0-.863,2.661,1.964,1.964,0,0,0,.863-2.661m-16,1.924a2.043,2.043,0,1,0,1.9,2.122,1.963,1.963,0,0,0-1.9-2.122m16-1.924a1.957,1.957,0,1,0-.863,2.661,1.964,1.964,0,0,0,.863-2.661m0,0a1.957,1.957,0,1,0-.863,2.661,1.964,1.964,0,0,0,.863-2.661" transform="translate(-15 -0.965)" fill="#fff"/>
        </g>
      </g>
    </g>
    <g id="Group_1007" data-name="Group 1007" transform="translate(206.52 4896.5)">
      <g id="Group_1013" data-name="Group 1013" transform="translate(0 -36)" clip-path="url(#clip-path-6)">
        <g id="Group_1012" data-name="Group 1012">
          <g id="Group_1011" data-name="Group 1011" clip-path="url(#clip-path-6)">
            <g id="Group_1007-2" data-name="Group 1007" transform="translate(0.803 15.192)" opacity="0.25">
              <g id="Group_1006-2" data-name="Group 1006">
                <g id="Group_1005-2" data-name="Group 1005" clip-path="url(#clip-path-8)">
                  <path id="Path_1511" data-name="Path 1511" d="M16.206,51.565v2.9H35.675V65.956H16.206V89.541H2V31.059M35.675,42.542V31.059H16.206" transform="translate(-1.736 -29.648)" fill="none" stroke="#fff" stroke-miterlimit="10" stroke-width="1"/>
                  <path id="Path_1512" data-name="Path 1512" d="M136.408,52.039v.005a30.89,30.89,0,0,1,.567,3.256,33.857,33.857,0,0,1,.251,4.138,30.388,30.388,0,0,1-30.6,30.251c-17.454,0-31.3-13.332-31.3-30.166a30.748,30.748,0,0,1,.267-4.047,29.029,29.029,0,0,1,.593-3.2M97.5,30.191h.005a34.792,34.792,0,0,1,9.467-1.272,32.286,32.286,0,0,1,7.527.871h.005M97.7,74.074a.005.005,0,0,0,.005.005,16.287,16.287,0,0,0,8.655,2.454,16.112,16.112,0,0,0,8.307-2.293m6.741-22.072v-.005a15.959,15.959,0,0,0-14.957-10.087,16.153,16.153,0,0,0-15.23,9.986" transform="translate(-35.861 -28.652)" fill="none" stroke="#fff" stroke-miterlimit="10" stroke-width="1"/>
                  <path id="Path_1513" data-name="Path 1513" d="M221.236,31.059h4.736a45.24,45.24,0,0,1,7.735.593m10.718,32.454q5.052-4.963,5.046-13.845a24.425,24.425,0,0,0-.3-3.924v-.005a20.6,20.6,0,0,0-.754-3.143M207.033,31.059V89.541h14.2V66.918l12.8,22.623h17.01l-4.822-8.035-3.811-6.356m-21.18-30.6V42.718h5.437a9.519,9.519,0,0,1,4.138.871m-5.944,15.353h-3.63V50.9" transform="translate(-97.163 -29.648)" fill="none" stroke="#fff" stroke-miterlimit="10" stroke-width="1"/>
                  <path id="Path_1514" data-name="Path 1514" d="M321.585,74.3a17.039,17.039,0,0,0,8.949,2.5,15.489,15.489,0,0,0,9.809-3.336M359,55.225h1.689c.091,1.144.091,2.545.091,3.068,0,9.649-3.159,17.1-9.649,23.152a32.213,32.213,0,0,1-21.479,8.243c-17.363,0-30.6-13.065-30.6-30.251a33.781,33.781,0,0,1,.246-4.063v-.005a30.652,30.652,0,0,1,.556-3.17v-.005M330.8,62.4V55.225h12.942m9.943-14.391.438-.337a30.93,30.93,0,0,0-15.166-10.2h-.005a33.033,33.033,0,0,0-17.229-.449c-.005-.005-.005,0-.011.005m-6.842,22.291a16.048,16.048,0,0,1,15.053-10.071c.294,0,.588.005.877.021" transform="translate(-139.992 -28.652)" fill="none" stroke="#fff" stroke-miterlimit="10" stroke-width="1"/>
                  <path id="Path_1515" data-name="Path 1515" d="M438.086,75.15v2.908h19.293V89.541h-33.5V31.059m33.5,11.483V31.059H438.086m19.293,34.9V54.468H438.086v-2.9" transform="translate(-198.092 -29.648)" fill="none" stroke="#fff" stroke-miterlimit="10" stroke-width="1"/>
                </g>
              </g>
            </g>
            <g id="Group_1010" data-name="Group 1010" transform="translate(0.536 8.563)" opacity="0.5">
              <g id="Group_1009" data-name="Group 1009">
                <g id="Group_1008" data-name="Group 1008" clip-path="url(#clip-path-9)">
                  <path id="Path_1516" data-name="Path 1516" d="M35.675,39.433V50.921H16.206V74.506H2V16.019m33.672,0V27.507H16.206v5.57" transform="translate(-1.468 -16.019)" fill="none" stroke="#fff" stroke-miterlimit="10" stroke-width="2"/>
                  <path id="Path_1517" data-name="Path 1517" d="M75.489,52.741a30.214,30.214,0,0,0-.166,3.2,29.742,29.742,0,0,0,.267,3.988C77.574,74.834,90.58,86.1,106.627,86.1a30.241,30.241,0,0,0,30.6-30.251q0-1.676-.155-3.288m-47.015-.027a16.3,16.3,0,0,1,16.4-14.048c8.323,0,14.781,5.934,16.128,14.252" transform="translate(-35.594 -26.477)" fill="none" stroke="#fff" stroke-miterlimit="10" stroke-width="2"/>
                  <path id="Path_1518" data-name="Path 1518" d="M249.285,32.136a25.152,25.152,0,0,1,.187,3.084,26.484,26.484,0,0,1-.3,4.111v.005a16.349,16.349,0,0,1-8.056,12.252m-34.079-35.57V74.506h14.2V51.883l.032.059,12.771,22.564h17.01l-3.811-6.356m-26-30.6V27.683h5.437c3.886,0,6.746,1.892,7.88,4.977" transform="translate(-96.896 -16.019)" fill="none" stroke="#fff" stroke-miterlimit="10" stroke-width="2"/>
                  <path id="Path_1519" data-name="Path 1519" d="M360.651,47.083h.043c.091,1.139.091,2.545.091,3.068a39.154,39.154,0,0,1-.3,4.966A28.911,28.911,0,0,1,351.136,73.3a32.187,32.187,0,0,1-21.479,8.243c-15.994,0-28.492-11.087-30.358-26.274v-.005a31.253,31.253,0,0,1-.246-3.972c0-1.091.053-2.165.15-3.218m31.593-.989V58.571h10.012M313.7,48.137v-.005c1.352-8.323,7.885-14.2,16.219-14.2,5.522,0,9.644,2.106,13.418,6.752l6.254-4.832,4.528-3.5a31.047,31.047,0,0,0-3.491-3.662" transform="translate(-139.725 -21.916)" fill="none" stroke="#fff" stroke-miterlimit="10" stroke-width="2"/>
                  <path id="Path_1520" data-name="Path 1520" d="M457.379,63.018V74.506h-33.5V16.019m14.2,40.643V50.921h19.293V39.433m-19.293-6.356v-5.57h19.293V16.019" transform="translate(-197.825 -16.019)" fill="none" stroke="#fff" stroke-miterlimit="10" stroke-width="2"/>
                </g>
              </g>
            </g>
            <path id="Path_1521" data-name="Path 1521" d="M16.205,27.545H35.672V39.032H16.205V62.619H2V4.133H35.672V15.62H16.205Z" transform="translate(-0.931 -1.924)" fill="none" stroke="#fff" stroke-miterlimit="10" stroke-width="4"/>
            <path id="Path_1522" data-name="Path 1522" d="M137.225,32.515a30.389,30.389,0,0,1-30.6,30.252c-17.449,0-31.3-13.328-31.3-30.164A30.5,30.5,0,0,1,85.14,10.155C90.751,4.894,98.38,2,106.973,2,124.247,2,137.225,15.065,137.225,32.515Zm-47.438-.088c0,9.645,7.278,17.186,16.573,17.186A16.676,16.676,0,0,0,122.845,32.69c0-10-7.015-17.537-16.4-17.537C96.889,15.153,89.787,22.518,89.787,32.427Z" transform="translate(-35.056 -0.931)" fill="none" stroke="#fff" stroke-miterlimit="10" stroke-width="4"/>
            <path id="Path_1523" data-name="Path 1523" d="M221.238,62.62H207.032V4.133h18.94c7.717,0,13.329,1.4,17.187,4.385,4.033,3.156,6.313,8.418,6.313,14.819,0,8.856-3.771,14.819-11.311,17.8L251.05,62.62H234.039L221.238,40Zm4.559-30.6c5.875,0,9.3-2.981,9.3-8.067,0-4.911-3.332-8.155-8.418-8.155h-5.437V32.017Z" transform="translate(-96.359 -1.924)" fill="none" stroke="#fff" stroke-miterlimit="10" stroke-width="4"/>
            <path id="Path_1524" data-name="Path 1524" d="M360.7,28.306c.088,1.14.088,2.543.088,3.069,0,9.646-3.157,17.1-9.646,23.149a32.211,32.211,0,0,1-21.483,8.243c-17.362,0-30.6-13.065-30.6-30.251C299.053,15.153,312.206,2,329.48,2a31.292,31.292,0,0,1,24.64,11.574L343.334,21.9c-3.77-4.647-7.891-6.752-13.415-6.752-9.383,0-16.485,7.453-16.485,17.45a17.048,17.048,0,0,0,17.1,17.274,15.268,15.268,0,0,0,14.644-10.084H330.8V28.306Z" transform="translate(-139.189 -0.931)" fill="none" stroke="#fff" stroke-miterlimit="10" stroke-width="4"/>
            <path id="Path_1525" data-name="Path 1525" d="M438.084,27.545h19.291V39.032H438.084v12.1h19.291V62.619h-33.5V4.133h33.5V15.62H438.084Z" transform="translate(-197.287 -1.924)" fill="none" stroke="#fff" stroke-miterlimit="10" stroke-width="4"/>
          </g>
        </g>
      </g>
    </g>
  </g>
</svg>
