<svg xmlns="http://www.w3.org/2000/svg" xmlns:xlink="http://www.w3.org/1999/xlink" width="709.994" height="383.384" viewBox="0 0 709.994 383.384">
  <defs>
    <clipPath id="clip-path">
      <rect id="Rectangle_1014" data-name="Rectangle 1014" width="307.283" height="383.384" rx="40" transform="translate(0 0)" fill="#f0f0f0"/>
    </clipPath>
    <clipPath id="clip-path-2">
      <rect id="Rectangle_1049" data-name="Rectangle 1049" width="307.283" height="383.384" rx="40" transform="translate(0 0)" fill="#003049"/>
    </clipPath>
    <clipPath id="clip-path-3">
      <rect id="Rectangle_1048" data-name="Rectangle 1048" width="313.614" height="227.625" fill="none"/>
    </clipPath>
    <clipPath id="clip-path-5">
      <rect id="Rectangle_1039" data-name="Rectangle 1039" width="156.537" height="52.235" fill="none"/>
    </clipPath>
    <clipPath id="clip-path-6">
      <rect id="Rectangle_1040" data-name="Rectangle 1040" width="156.537" height="52.236" fill="none"/>
    </clipPath>
  </defs>
  <g id="Group_637" data-name="Group 637" transform="translate(-416 -4677.031)">
    <rect id="Rectangle_1006" data-name="Rectangle 1006" width="709.994" height="383.384" rx="40" transform="translate(416 4677.031)" fill="#f57f08"/>
    <g id="Group_502" data-name="Group 502" transform="translate(454.502 4726.901)">
      <text id="Elizeth" transform="translate(0 45.766)" fill="#eef4f4" font-size="27" font-family="Elizeth-Bold, Elizeth" font-weight="700"><tspan x="0" y="0">Elizeth</tspan></text>
      <text id="A_B_C_D_E_F_G_H_I_J_K_L_M_N_O_P_Q_R_S_T_U_V_W_X_Y_Z_a_b_c_d_e_f_g_h_i_j_k_l_m_n_o_p_q_r_s_t_u_v_w_x_y_z_okina_Ā_ā_Ē_ē_Ī_ī_Ō_ō_Ū_ū" data-name="A B C D E F G H I J K L M N O P Q R S T U V W X Y Z
a b c d e f g h i j k l m n o p q r s t u v w x y z
‘okina Ā ā Ē ē Ī ī Ō ō Ū ū" transform="translate(0 74.436)" fill="#eef4f4" font-size="12" font-family="Elizeth-Bold, Elizeth" font-weight="700"><tspan x="0" y="0">A B C D E F G H I J K L M N O P Q R S T U V W X Y Z</tspan><tspan x="0" y="23">a b c d e f g h i j k l m n o p q r s t u v w x y z</tspan><tspan x="0" y="46">‘okina Ā ā Ē ē Ī ī Ō ō Ū ū</tspan></text>
      <text id="Headings" transform="translate(0 6)" fill="#eef4f4" font-size="6" font-family="Plus Jakarta Sans" font-weight="500"><tspan x="0" y="0">HEADINGS</tspan></text>
    </g>
    <g id="Group_501" data-name="Group 501" transform="translate(454.502 4883.368)">
      <text id="Neuzeit_Grotesk" data-name="Neuzeit Grotesk" transform="translate(0 48.309)" fill="#eef4f4" font-size="28" font-family="NeuzeitGro-Reg, Neuzeit Grotesk"><tspan x="0" y="0">Neuzeit Grotesk</tspan></text>
      <text id="A_B_C_D_E_F_G_H_I_J_K_L_M_N_O_P_Q_R_S_T_U_V_W_X_Y_Z_a_b_c_d_e_f_g_h_i_j_k_l_m_n_o_p_q_r_s_t_u_v_w_x_y_z_ʻokina_Ā_ā_Ē_ē_Ī_ī_Ō_ō_Ū_ū" data-name="A B C D E F G H I J K L M N O P Q R S T U V W X Y Z
a b c d e f g h i j k l m n o p q r s t u v w x y z
ʻokina Ā ā Ē ē Ī ī Ō ō Ū ū" transform="translate(0 72.878)" fill="#eef4f4" font-size="13" font-family="NeuzeitGro-Reg, Neuzeit Grotesk"><tspan x="0" y="0">A B C D E F G H I J K L M N O P Q R S T U V W X Y Z</tspan><tspan x="0" y="25">a b c d e f g h i j k l m n o p q r s t u v w x y z</tspan><tspan font-family="Helvetica"><tspan x="0" y="50">ʻ</tspan><tspan y="50" font-family="NeuzeitGro-Reg, Neuzeit Grotesk">okina Ā ā Ē ē Ī ī Ō ō Ū ū</tspan></tspan></text>
      <text id="Body" transform="translate(0 6)" fill="#eef4f4" font-size="6" font-family="Plus Jakarta Sans" font-weight="500"><tspan x="0" y="0">BODY</tspan></text>
    </g>
    <rect id="Rectangle_843" data-name="Rectangle 843" width="307.283" height="383.384" rx="40" transform="translate(818.711 4677.031)" fill="#003049"/>
    <g id="Mask_Group_42" data-name="Mask Group 42" transform="translate(818.71 4677.031)" clip-path="url(#clip-path-2)">
      <g id="Group_577" data-name="Group 577" transform="translate(-6.102 -23.378)" opacity="0.251">
        <g id="Group_575" data-name="Group 575" transform="translate(0 0)">
          <g id="Group_574" data-name="Group 574" clip-path="url(#clip-path-3)">
            <g id="Group_573" data-name="Group 573">
              <g id="Group_572" data-name="Group 572" clip-path="url(#clip-path-3)">
                <g id="Group_550" data-name="Group 550" opacity="0.3">
                  <g id="Group_549" data-name="Group 549">
                    <g id="Group_548" data-name="Group 548" clip-path="url(#clip-path-5)">
                      <text id="FITNESS" transform="translate(0 39.555)" fill="#004f75" font-size="47" font-family="NeuzeitGro-Bol, Neuzeit Grotesk"><tspan x="0" y="0" letter-spacing="-0.025em">F</tspan><tspan y="0" letter-spacing="-0.024em">I</tspan><tspan y="0" letter-spacing="-0.025em">T</tspan><tspan y="0" letter-spacing="-0.024em">N</tspan><tspan y="0" letter-spacing="-0.014em">E</tspan><tspan y="0" letter-spacing="-0.012em">S</tspan><tspan y="0">S</tspan></text>
                    </g>
                  </g>
                </g>
                <g id="Group_553" data-name="Group 553" transform="translate(0 43.847)" opacity="0.5">
                  <g id="Group_552" data-name="Group 552">
                    <g id="Group_551" data-name="Group 551" clip-path="url(#clip-path-6)">
                      <text id="FITNESS-2" data-name="FITNESS" transform="translate(0 39.555)" fill="#004f75" font-size="47" font-family="NeuzeitGro-Bol, Neuzeit Grotesk"><tspan x="0" y="0" letter-spacing="-0.025em">F</tspan><tspan y="0" letter-spacing="-0.024em">I</tspan><tspan y="0" letter-spacing="-0.025em">T</tspan><tspan y="0" letter-spacing="-0.024em">N</tspan><tspan y="0" letter-spacing="-0.014em">E</tspan><tspan y="0" letter-spacing="-0.012em">S</tspan><tspan y="0">S</tspan></text>
                    </g>
                  </g>
                </g>
                <g id="Group_556" data-name="Group 556" transform="translate(0 87.691)" opacity="0.6">
                  <g id="Group_555" data-name="Group 555">
                    <g id="Group_554" data-name="Group 554" clip-path="url(#clip-path-6)">
                      <text id="FITNESS-3" data-name="FITNESS" transform="translate(0 39.555)" fill="#004f75" font-size="47" font-family="NeuzeitGro-Bol, Neuzeit Grotesk"><tspan x="0" y="0" letter-spacing="-0.025em">F</tspan><tspan y="0" letter-spacing="-0.024em">I</tspan><tspan y="0" letter-spacing="-0.025em">T</tspan><tspan y="0" letter-spacing="-0.024em">N</tspan><tspan y="0" letter-spacing="-0.014em">E</tspan><tspan y="0" letter-spacing="-0.012em">S</tspan><tspan y="0">S</tspan></text>
                    </g>
                  </g>
                </g>
                <g id="Group_559" data-name="Group 559" transform="translate(0 131.54)" opacity="0.8">
                  <g id="Group_558" data-name="Group 558">
                    <g id="Group_557" data-name="Group 557" clip-path="url(#clip-path-6)">
                      <text id="FITNESS-4" data-name="FITNESS" transform="translate(0 39.555)" fill="#004f75" font-size="47" font-family="NeuzeitGro-Bol, Neuzeit Grotesk"><tspan x="0" y="0" letter-spacing="-0.025em">F</tspan><tspan y="0" letter-spacing="-0.024em">I</tspan><tspan y="0" letter-spacing="-0.025em">T</tspan><tspan y="0" letter-spacing="-0.024em">N</tspan><tspan y="0" letter-spacing="-0.014em">E</tspan><tspan y="0" letter-spacing="-0.012em">S</tspan><tspan y="0">S</tspan></text>
                    </g>
                  </g>
                </g>
                <text id="FITNESS-5" data-name="FITNESS" transform="translate(0 214.944)" fill="#004f75" font-size="47" font-family="NeuzeitGro-Bol, Neuzeit Grotesk"><tspan x="0" y="0" letter-spacing="-0.025em">F</tspan><tspan y="0" letter-spacing="-0.024em">I</tspan><tspan y="0" letter-spacing="-0.025em">T</tspan><tspan y="0" letter-spacing="-0.024em">N</tspan><tspan y="0" letter-spacing="-0.014em">E</tspan><tspan y="0" letter-spacing="-0.012em">S</tspan><tspan y="0">S</tspan></text>
                <g id="Group_562" data-name="Group 562" transform="translate(157.076)" opacity="0.3">
                  <g id="Group_561" data-name="Group 561">
                    <g id="Group_560" data-name="Group 560" clip-path="url(#clip-path-5)">
                      <text id="FITNESS-6" data-name="FITNESS" transform="translate(0 39.555)" fill="#004f75" font-size="47" font-family="NeuzeitGro-Bol, Neuzeit Grotesk"><tspan x="0" y="0" letter-spacing="-0.024em">FITN</tspan><tspan y="0" letter-spacing="-0.014em">E</tspan><tspan y="0" letter-spacing="-0.012em">S</tspan><tspan y="0">S</tspan></text>
                    </g>
                  </g>
                </g>
                <g id="Group_565" data-name="Group 565" transform="translate(157.076 43.847)" opacity="0.5">
                  <g id="Group_564" data-name="Group 564">
                    <g id="Group_563" data-name="Group 563" clip-path="url(#clip-path-6)">
                      <text id="FITNESS-7" data-name="FITNESS" transform="translate(0 39.555)" fill="#004f75" font-size="47" font-family="NeuzeitGro-Bol, Neuzeit Grotesk"><tspan x="0" y="0" letter-spacing="-0.024em">FITN</tspan><tspan y="0" letter-spacing="-0.014em">E</tspan><tspan y="0" letter-spacing="-0.012em">S</tspan><tspan y="0">S</tspan></text>
                    </g>
                  </g>
                </g>
                <g id="Group_568" data-name="Group 568" transform="translate(157.076 87.691)" opacity="0.6">
                  <g id="Group_567" data-name="Group 567">
                    <g id="Group_566" data-name="Group 566" clip-path="url(#clip-path-6)">
                      <text id="FITNESS-8" data-name="FITNESS" transform="translate(0 39.555)" fill="#004f75" font-size="47" font-family="NeuzeitGro-Bol, Neuzeit Grotesk"><tspan x="0" y="0" letter-spacing="-0.024em">FITN</tspan><tspan y="0" letter-spacing="-0.014em">E</tspan><tspan y="0" letter-spacing="-0.012em">S</tspan><tspan y="0">S</tspan></text>
                    </g>
                  </g>
                </g>
                <g id="Group_571" data-name="Group 571" transform="translate(157.076 131.54)" opacity="0.8">
                  <g id="Group_570" data-name="Group 570">
                    <g id="Group_569" data-name="Group 569" clip-path="url(#clip-path-6)">
                      <text id="FITNESS-9" data-name="FITNESS" transform="translate(0 39.555)" fill="#004f75" font-size="47" font-family="NeuzeitGro-Bol, Neuzeit Grotesk"><tspan x="0" y="0" letter-spacing="-0.024em">FITN</tspan><tspan y="0" letter-spacing="-0.014em">E</tspan><tspan y="0" letter-spacing="-0.012em">S</tspan><tspan y="0">S</tspan></text>
                    </g>
                  </g>
                </g>
                <text id="FITNESS-10" data-name="FITNESS" transform="translate(157.076 214.944)" fill="#004f75" font-size="47" font-family="NeuzeitGro-Bol, Neuzeit Grotesk"><tspan x="0" y="0" letter-spacing="-0.024em">FITN</tspan><tspan y="0" letter-spacing="-0.014em">E</tspan><tspan y="0" letter-spacing="-0.012em">S</tspan><tspan y="0">S</tspan></text>
              </g>
            </g>
          </g>
        </g>
        <g id="Group_576" data-name="Group 576" transform="translate(0 213.39)">
          <g id="Group_574-2" data-name="Group 574" clip-path="url(#clip-path-3)">
            <g id="Group_573-2" data-name="Group 573">
              <g id="Group_572-2" data-name="Group 572" clip-path="url(#clip-path-3)">
                <g id="Group_550-2" data-name="Group 550" opacity="0.3">
                  <g id="Group_549-2" data-name="Group 549">
                    <g id="Group_548-2" data-name="Group 548" clip-path="url(#clip-path-5)">
                      <text id="FITNESS-11" data-name="FITNESS" transform="translate(0 39.555)" fill="#004f75" font-size="47" font-family="NeuzeitGro-Bol, Neuzeit Grotesk"><tspan x="0" y="0" letter-spacing="-0.025em">F</tspan><tspan y="0" letter-spacing="-0.024em">I</tspan><tspan y="0" letter-spacing="-0.025em">T</tspan><tspan y="0" letter-spacing="-0.024em">N</tspan><tspan y="0" letter-spacing="-0.014em">E</tspan><tspan y="0" letter-spacing="-0.012em">S</tspan><tspan y="0">S</tspan></text>
                    </g>
                  </g>
                </g>
                <g id="Group_553-2" data-name="Group 553" transform="translate(0 43.847)" opacity="0.5">
                  <g id="Group_552-2" data-name="Group 552">
                    <g id="Group_551-2" data-name="Group 551" clip-path="url(#clip-path-6)">
                      <text id="FITNESS-12" data-name="FITNESS" transform="translate(0 39.555)" fill="#004f75" font-size="47" font-family="NeuzeitGro-Bol, Neuzeit Grotesk"><tspan x="0" y="0" letter-spacing="-0.025em">F</tspan><tspan y="0" letter-spacing="-0.024em">I</tspan><tspan y="0" letter-spacing="-0.025em">T</tspan><tspan y="0" letter-spacing="-0.024em">N</tspan><tspan y="0" letter-spacing="-0.014em">E</tspan><tspan y="0" letter-spacing="-0.012em">S</tspan><tspan y="0">S</tspan></text>
                    </g>
                  </g>
                </g>
                <g id="Group_556-2" data-name="Group 556" transform="translate(0 87.691)" opacity="0.6">
                  <g id="Group_555-2" data-name="Group 555">
                    <g id="Group_554-2" data-name="Group 554" clip-path="url(#clip-path-6)">
                      <text id="FITNESS-13" data-name="FITNESS" transform="translate(0 39.555)" fill="#004f75" font-size="47" font-family="NeuzeitGro-Bol, Neuzeit Grotesk"><tspan x="0" y="0" letter-spacing="-0.025em">F</tspan><tspan y="0" letter-spacing="-0.024em">I</tspan><tspan y="0" letter-spacing="-0.025em">T</tspan><tspan y="0" letter-spacing="-0.024em">N</tspan><tspan y="0" letter-spacing="-0.014em">E</tspan><tspan y="0" letter-spacing="-0.012em">S</tspan><tspan y="0">S</tspan></text>
                    </g>
                  </g>
                </g>
                <g id="Group_559-2" data-name="Group 559" transform="translate(0 131.54)" opacity="0.8">
                  <g id="Group_558-2" data-name="Group 558">
                    <g id="Group_557-2" data-name="Group 557" clip-path="url(#clip-path-6)">
                      <text id="FITNESS-14" data-name="FITNESS" transform="translate(0 39.555)" fill="#004f75" font-size="47" font-family="NeuzeitGro-Bol, Neuzeit Grotesk"><tspan x="0" y="0" letter-spacing="-0.025em">F</tspan><tspan y="0" letter-spacing="-0.024em">I</tspan><tspan y="0" letter-spacing="-0.025em">T</tspan><tspan y="0" letter-spacing="-0.024em">N</tspan><tspan y="0" letter-spacing="-0.014em">E</tspan><tspan y="0" letter-spacing="-0.012em">S</tspan><tspan y="0">S</tspan></text>
                    </g>
                  </g>
                </g>
                <text id="FITNESS-15" data-name="FITNESS" transform="translate(0 214.944)" fill="#004f75" font-size="47" font-family="NeuzeitGro-Bol, Neuzeit Grotesk"><tspan x="0" y="0" letter-spacing="-0.025em">F</tspan><tspan y="0" letter-spacing="-0.024em">I</tspan><tspan y="0" letter-spacing="-0.025em">T</tspan><tspan y="0" letter-spacing="-0.024em">N</tspan><tspan y="0" letter-spacing="-0.014em">E</tspan><tspan y="0" letter-spacing="-0.012em">S</tspan><tspan y="0">S</tspan></text>
                <g id="Group_562-2" data-name="Group 562" transform="translate(157.076)" opacity="0.3">
                  <g id="Group_561-2" data-name="Group 561">
                    <g id="Group_560-2" data-name="Group 560" clip-path="url(#clip-path-5)">
                      <text id="FITNESS-16" data-name="FITNESS" transform="translate(0 39.555)" fill="#004f75" font-size="47" font-family="NeuzeitGro-Bol, Neuzeit Grotesk"><tspan x="0" y="0" letter-spacing="-0.024em">FITN</tspan><tspan y="0" letter-spacing="-0.014em">E</tspan><tspan y="0" letter-spacing="-0.012em">S</tspan><tspan y="0">S</tspan></text>
                    </g>
                  </g>
                </g>
                <g id="Group_565-2" data-name="Group 565" transform="translate(157.076 43.847)" opacity="0.5">
                  <g id="Group_564-2" data-name="Group 564">
                    <g id="Group_563-2" data-name="Group 563" clip-path="url(#clip-path-6)">
                      <text id="FITNESS-17" data-name="FITNESS" transform="translate(0 39.555)" fill="#004f75" font-size="47" font-family="NeuzeitGro-Bol, Neuzeit Grotesk"><tspan x="0" y="0" letter-spacing="-0.024em">FITN</tspan><tspan y="0" letter-spacing="-0.014em">E</tspan><tspan y="0" letter-spacing="-0.012em">S</tspan><tspan y="0">S</tspan></text>
                    </g>
                  </g>
                </g>
                <g id="Group_568-2" data-name="Group 568" transform="translate(157.076 87.691)" opacity="0.6">
                  <g id="Group_567-2" data-name="Group 567">
                    <g id="Group_566-2" data-name="Group 566" clip-path="url(#clip-path-6)">
                      <text id="FITNESS-18" data-name="FITNESS" transform="translate(0 39.555)" fill="#004f75" font-size="47" font-family="NeuzeitGro-Bol, Neuzeit Grotesk"><tspan x="0" y="0" letter-spacing="-0.024em">FITN</tspan><tspan y="0" letter-spacing="-0.014em">E</tspan><tspan y="0" letter-spacing="-0.012em">S</tspan><tspan y="0">S</tspan></text>
                    </g>
                  </g>
                </g>
                <g id="Group_571-2" data-name="Group 571" transform="translate(157.076 131.54)" opacity="0.8">
                  <g id="Group_570-2" data-name="Group 570">
                    <g id="Group_569-2" data-name="Group 569" clip-path="url(#clip-path-6)">
                      <text id="FITNESS-19" data-name="FITNESS" transform="translate(0 39.555)" fill="#004f75" font-size="47" font-family="NeuzeitGro-Bol, Neuzeit Grotesk"><tspan x="0" y="0" letter-spacing="-0.024em">FITN</tspan><tspan y="0" letter-spacing="-0.014em">E</tspan><tspan y="0" letter-spacing="-0.012em">S</tspan><tspan y="0">S</tspan></text>
                    </g>
                  </g>
                </g>
                <text id="FITNESS-20" data-name="FITNESS" transform="translate(157.076 214.944)" fill="#004f75" font-size="47" font-family="NeuzeitGro-Bol, Neuzeit Grotesk"><tspan x="0" y="0" letter-spacing="-0.024em">FITN</tspan><tspan y="0" letter-spacing="-0.014em">E</tspan><tspan y="0" letter-spacing="-0.012em">S</tspan><tspan y="0">S</tspan></text>
              </g>
            </g>
          </g>
        </g>
      </g>
    </g>
    <g id="Group_578" data-name="Group 578" transform="translate(876.953 4798.396)">
      <path id="Path_1013" data-name="Path 1013" d="M17.427,42.718a12.188,12.188,0,0,0,8.8-3.3,10.232,10.232,0,0,0,2.887-7.377,9.051,9.051,0,0,0-2.52-6.735c-1.741-1.787-4.49-3.024-8.385-3.849l-2.566-.55a7.742,7.742,0,0,1-3.941-1.7,2.937,2.937,0,0,1-.825-2.154,3.559,3.559,0,0,1,1.008-2.612,4.934,4.934,0,0,1,3.574-1.283,5.822,5.822,0,0,1,4.216,1.466,4.108,4.108,0,0,1,1.237,3.115V18.2h6.6V7.62h-6.14l-.183,2.475-.275-.322a10.172,10.172,0,0,0-7.331-2.657,10.95,10.95,0,0,0-8.019,3.07,9.559,9.559,0,0,0-2.8,7.011,8.569,8.569,0,0,0,2.383,6.414c1.558,1.6,4.032,2.75,7.468,3.528l2.8.642c2.291.5,3.895,1.145,4.811,2.061a3.387,3.387,0,0,1,1.008,2.52,3.7,3.7,0,0,1-1.054,2.7,5.98,5.98,0,0,1-4.353,1.421,7.014,7.014,0,0,1-5.132-1.833,4.865,4.865,0,0,1-1.42-3.528v-.412H2.581V41.985h6.37L9.088,39.6a.622.622,0,0,0,.137.183A11.4,11.4,0,0,0,17.427,42.718Z" transform="translate(-2.581 -7.116)" fill="none" stroke="#ff8000" stroke-miterlimit="10" stroke-width="1.309"/>
      <path id="Path_1014" data-name="Path 1014" d="M56.068,42.718a16.766,16.766,0,0,0,17-14.2H66.011a10.136,10.136,0,0,1-9.9,7.285c-6,0-10.127-4.628-10.127-10.905,0-6.323,4.079-10.951,10.082-10.951a10.177,10.177,0,0,1,9.943,7.332h7.055V7.62H66.744L66.7,12.293a13.442,13.442,0,0,0-11.09-5.177c-9.713,0-17.09,7.468-17.09,17.778C38.519,35.066,45.9,42.718,56.068,42.718Z" transform="translate(-9.469 -7.116)" fill="none" stroke="#ff8000" stroke-miterlimit="10" stroke-width="1.309"/>
      <path id="Path_1015" data-name="Path 1015" d="M102.2,42.838c8.568,0,14.159-5.453,14.159-14.25V15.116a1.362,1.362,0,0,1,1.512-1.466h1.191V7.739H104.629V13.65h2.8a1.349,1.349,0,0,1,1.466,1.466V28.862c0,4.215-2.474,7.056-6.69,7.056-4.169,0-6.69-2.84-6.69-7.056V15.116a1.349,1.349,0,0,1,1.466-1.466h2.8V7.739H85.339V13.65h1.237A1.315,1.315,0,0,1,88,15.116V28.587C88,37.385,93.724,42.838,102.2,42.838Z" transform="translate(-18.443 -7.236)" fill="none" stroke="#ff8000" stroke-miterlimit="10" stroke-width="1.309"/>
      <path id="Path_1016" data-name="Path 1016" d="M130.856,42.1h23.735V29.5h-6.736v5.223a1.349,1.349,0,0,1-1.466,1.466H141.4V15.116a1.349,1.349,0,0,1,1.466-1.466h1.558V7.739H130.856V13.65h1.558a1.327,1.327,0,0,1,1.466,1.466V34.728a1.328,1.328,0,0,1-1.466,1.466h-1.558Z" transform="translate(-27.167 -7.236)" fill="none" stroke="#ff8000" stroke-miterlimit="10" stroke-width="1.309"/>
      <path id="Path_1017" data-name="Path 1017" d="M174.178,23.639V13.833h3.436c3.895,0,6.278,1.7,6.278,4.9s-2.383,4.9-6.278,4.9ZM163.96,42.1h14.846V36.194h-3.161a1.349,1.349,0,0,1-1.466-1.466V29.779h3.895c7.56,0,13.242-3.895,13.242-11.043s-5.682-11-13.242-11H163.96V13.65h1.558a1.327,1.327,0,0,1,1.466,1.466V34.728a1.328,1.328,0,0,1-1.466,1.466H163.96Z" transform="translate(-33.512 -7.236)" fill="none" stroke="#ff8000" stroke-miterlimit="10" stroke-width="1.309"/>
      <path id="Path_1018" data-name="Path 1018" d="M209.095,42.1h13.838V36.194h-1.7a1.349,1.349,0,0,1-1.466-1.466v-21.4h3.436a1.349,1.349,0,0,1,1.466,1.466v5.5H231V7.739H201.03V20.295h6.324V14.8a1.371,1.371,0,0,1,1.466-1.466h3.436v21.4a1.349,1.349,0,0,1-1.466,1.466h-1.7Z" transform="translate(-40.617 -7.236)" fill="none" stroke="#ff8000" stroke-miterlimit="10" stroke-width="1.309"/>
    </g>
    <text id="_SHAPE" data-name="&amp; SHAPE" transform="translate(875.478 4873.988)" fill="#f3f1eb" font-size="42" font-family="Elizeth-Bold, Elizeth" font-weight="700"><tspan x="0" y="0">&amp; SHA</tspan><tspan y="0" letter-spacing="-0.009em">P</tspan><tspan y="0">E</tspan></text>
    <text id="The_go_to_fitness_chocolate_company_where_you_can_have_your_cake_chocolate_and_eat_it_too_Fitness_should_be_explosive_tasty_and_rewarding_" data-name="The go to fitness chocolate company, where you can have your cake chocolate and eat it too! Fitness should be explosive, tasty and rewarding!" transform="translate(875.063 4889.339)" fill="#f27f01" font-size="16" font-family="NeuzeitGro-Reg, Neuzeit Grotesk"><tspan x="0" y="11">The </tspan><tspan y="11" letter-spacing="-0.003em">g</tspan><tspan y="11">o </tspan><tspan y="11" letter-spacing="-0.008em">t</tspan><tspan y="11">o </tspan><tspan y="11" letter-spacing="-0.006em">f</tspan><tspan y="11">i</tspan><tspan y="11" letter-spacing="-0.002em">t</tspan><tspan y="11">n</tspan><tspan y="11" letter-spacing="-0.001em">e</tspan><tspan y="11">ss </tspan><tspan y="11" letter-spacing="-0.01em">c</tspan><tspan y="11">ho</tspan><tspan y="11" letter-spacing="-0.016em">c</tspan><tspan y="11">ol</tspan><tspan y="11" letter-spacing="-0.003em">a</tspan><tspan y="11" letter-spacing="-0.008em">t</tspan><tspan y="11">e </tspan><tspan x="0" y="33" letter-spacing="-0.017em">c</tspan><tspan y="33">o</tspan><tspan y="33" letter-spacing="-0.007em">m</tspan><tspan y="33">pa</tspan><tspan y="33" letter-spacing="-0.012em">n</tspan><tspan y="33" letter-spacing="-0.048em">y</tspan><tspan y="33">, whe</tspan><tspan y="33" letter-spacing="-0.016em">r</tspan><tspan y="33">e </tspan><tspan y="33" letter-spacing="-0.014em">y</tspan><tspan y="33">ou </tspan><tspan y="33" letter-spacing="-0.015em">c</tspan><tspan y="33">an </tspan></text>
    <rect id="Rectangle_1038" data-name="Rectangle 1038" width="194.579" height="131.163" transform="translate(875.063 4803.142)" fill="none"/>
  </g>
</svg>
