<?xml version="1.0" encoding="utf-8"?>
<!-- Generator: Adobe Illustrator 27.2.0, SVG Export Plug-In . SVG Version: 6.00 Build 0)  -->
<svg version="1.1" id="Layer_1" xmlns="http://www.w3.org/2000/svg" xmlns:xlink="http://www.w3.org/1999/xlink" x="0px" y="0px"
	 viewBox="0 0 815.8 555" style="enable-background:new 0 0 815.8 555;" xml:space="preserve">
<style type="text/css">
	.st0{clip-path:url(#SVGID_00000165216416662972615170000006216502399658042528_);}
	.st1{fill:#FFFFFF;}
	.st2{fill:#D42828;}
	.st3{clip-path:url(#SVGID_00000021118057917747185650000008154265162128051341_);}
	.st4{clip-path:url(#SVGID_00000013170086693350596330000009160979067179765120_);}
	.st5{clip-path:url(#SVGID_00000102523957628764430660000018148649886044519560_);}
	.st6{fill:#FABD49;}
	.st7{clip-path:url(#SVGID_00000049222206076157523740000006876789096104079016_);}
	.st8{opacity:0.25;}
	.st9{fill:none;stroke:#FFFFFF;stroke-miterlimit:10;}
	.st10{opacity:0.5;}
	.st11{fill:none;stroke:#FFFFFF;stroke-width:2;stroke-miterlimit:10;}
	.st12{fill:none;stroke:#FFFFFF;stroke-width:4;stroke-miterlimit:10;}
</style>
<g id="Group_1076" transform="translate(-206.52 -4393.398)">
	<g id="Group_1002" transform="translate(514.22 4816.383)">
		<g>
			<g>
				<defs>
					<rect id="SVGID_1_" x="1.6" y="-13.3" width="227.9" height="139.2"/>
				</defs>
				<clipPath id="SVGID_00000008856316554792917840000014714920186452894618_">
					<use xlink:href="#SVGID_1_"  style="overflow:visible;"/>
				</clipPath>
				
					<g id="Group_1016" transform="translate(0 0)" style="clip-path:url(#SVGID_00000008856316554792917840000014714920186452894618_);">
					<path id="Path_1538" class="st1" d="M229.4,79.9c-19.7-44.3,18.3-94.3-53.3-93.2c-71.6-1.1-33.6,48.9-53.3,93.2
						c-2.8,30.4,25.3,45.8,53.3,46C204.1,125.6,232.2,110.3,229.4,79.9 M176.1,31.5c-23.4,1.4-42.7,19.1-24.4,1.8
						c-19.9-22.9,2.7-32.1,24.4-32.9c21.6,0.8,44.3,10,24.4,32.9C218.8,50.6,199.4,32.9,176.1,31.5"/>
					<path id="Path_1539" class="st2" d="M77.7,113.1c-3.2,0.3,1.2-2.4-1.5-2.6c-3.6,5.9-11.4,4.8-17.4,5.9
						c-3.5,1.1-25,1.8-13.9-1.9c0.8-1.7,3.8-1.3,5.8-2c1.8-0.3,2.6-1.6,4.6-1.7c-4.8-1.2-3.2-1.2,0.8-2.1c-1.2-1-5.1-0.6-1.1-1.5
						c23.1-0.5,9.9-9.1,9.5-23c-6,6.7-12,32.6-19,25.9c-0.1-4.6-0.5-0.9-1.2,1.4c-4.5-1.9,0.7-24.8-7.1-9
						c-6.3,7.8-3.8,5.8-11.7,15.9c1-2.5,3.3-7.3-0.3-5.1c-0.4,0.5-1.2,0.1-0.8-0.5c1.3-3.5-2.8,3.3-3.7,4.7
						c-1.9,2.6-0.2-2.4-1.8-0.8c-1.1-3.8,3.2-9.9,5.9-14.4C33,91.7,38.7,70.2,48.4,68.7c2.4,3.9,0.4,13.1,2.2,18.4
						c2.4-4,15.7-26.5,12.4-17.9c1.2-0.3-0.4,0.7,0.4,1.6c-1.7,4.3,0.5-0.3,1.9-0.3c-2.8,10.3,4.4-2.3,0.3,7.4
						c-2.9,5.7,6.9-7.3,5.4-6.1c-2.4-1,2.3-1.9,3.2-1.9c3.1-0.2-0.4-2.6-1.2-0.4c-1.1,1.8-2.3-4.1-2.6-1.3c-3.1,2.6-3.5-8.9-5-11.1
						C57,53.2,53.3,61.8,48.9,67c-1.1-3.1-1.8,1.9-4.3,1.4c-0.9-0.4,0.8-2.2-0.3-1.8c-1.2-0.1,0-1.4,0.2-2c-0.3-1.4-2.7,3.6-4,3.2
						c-0.3-3,4.4-4.4-0.1-3.8c-0.4,0.6-1.9,2.5-1.3,0.5c1.9-6.6,25.5-33,16.6-32c-6.3,2.4-25.9,46.8-21.6,30
						c-3.6,6.9-2.4,0.6-3.4,1.2c-0.9,1.8-8.4,13.1-8.1,10.4c1.1-2.7,1.9-5.4,2.5-8.2c-1.3,0.8-1.6,3.6-3.2,3.7
						c-0.1-1.5,4-6.9,0.1-2.9c1.5-6-0.9,0.1-3,2.1c1.4-10.1,29.2-40,19.7-41C33.6,27.6,14,32.7,18,29.2c-0.4-0.1-1,0.2-1.1-0.4
						c-0.2-0.9,3.2-0.5,1.2-0.9c-0.6-2.4,6.2-3,8.3-4.1c-5.6-0.1-9.3-0.2-1.4-1.6c-0.5-0.4-1-0.6-1.2-1.2c-0.5-0.5-2.7,0.2-1.8-1
						c26.1-7.3,53.5-8.5,82.9-11.2c2.9,0.1,6.6-1.1,9.2,0c-3.3,2.1-8.5,2-12.5,3c-2.4,0.4-4,0.3-4.8,1.8c-8,1.9,6.1-0.4,8.7,0.9
						c-1.1,1.7-12.3,2.1-8.6,2.6c0.9,0.1,5.4-0.2,3.9,1.1c-2.7,0.5-5.6,0.6-8.3,1.3c4.2-0.5,8.7-0.4,1.8,0.8
						c-12,2.2-25.1,2.3-36.4,6C56,31.4,71.3,24,75.4,27c9.4,2.7,11.9,13.2,5.8,20.5c-4.2,5-8.9,8-3.9,13.4c0.3-1,2.5-3.4,0.7-3.7
						c-0.6-4.4,6-9.9,8.1-14.4c4.9-7.5,10.3-14.7,16.1-21.6c0.7-2.6,1.5,0.7,1.9,1.6c0.3-2,1.5-3.2,2.2-0.6c1.4-1.7,2.2,1.1,2,2.6
						c0.3,7.5-3.3,19.3,0.9,24.1c0.1,1.8-1.7,3.3-1.8,5.2c-0.7,2.3,1.3,9.6-1.2,9.4c-1.1-4.4-0.8,1.3-3.3,1.1
						c-3.2,2.2-1.3-3.7-3.4,3c4.3-0.1,12.3-1,3.8,0.8c7.8,0.9-10.4,1.2-2.4,2.1c1.7-0.2,15.2,1.9,11.6,3.1c3.9,8.1-36.3-1.2-37,11.1
						c5.1,21.3,0.6,23.7,14.8,3.5c-3.4,1.1,5.2-8.8,6.4-10.1c0.8,0.1-0.2,3.3,0.9,1.9c0.3-0.8,0.5-0.1,1-0.1
						c1.6-0.7,1.2,3.5,2.1,1.4c2.9-6.2,1.9,0.4,4.6-2.9c0.7,4.3,1.4,9,1.7,13.6c-1.2,10.3,3.5,3.7,2.2,8.2c-0.5,0.9-2,1-1.3,2.6
						c5.1-7.8,8.9-25.1,14-31.9c1.9,2.1,0.4-1.1,1.3-1.8c3,2.6,2.3,8.4,3.8,12.2c0.2,14,7.9-17.2,8.6-10.4c0.5-1,1.4-2.7,1.8-0.8
						c0.7-1.1,3-4.6,1.8-2c0,3.4,2.1-2.7,2.9-0.2c1.9-0.8,2.4-3,3.4-4.7c1.3-1,0.4,1.2,0.6,1.9c0.8-0.8,1-2.6,2.1-2.6
						c-1.1,6.1-5.4,12.3-7.4,18.4c-5.1,10.1-7.1,24.4-14.9,31.9c-1.3,0.5,1-5.5-1.5-2.1c-1.6,0.5-1.2,1.7-2.5,2.6
						c-1.1-2.5-1-10.2-2.6-11c-1,3.2-7.6,21.6-7.7,11.8c-2.3,2.1-1.3-0.2-2.9-0.8c-1.8-1,0.9,6.2-1.8,3.3c0.4,3.7-0.9,3.1-2.1,0.5
						c-1.3-4.3-0.1,2.2-1.2,3.3c-1.9-2-1.5-5.8-3.5-8.1c-2.4-0.5-2-3-2.5-5.8C81.7,103,74.7,131.5,77.7,113.1 M67,46.9
						c2.2-1.8,5.9-2.8,6.3-6.3C73.3,28.9,56.2,52.3,67,46.9 M80.8,62.6c-2.1,1.4-5.1,7.3-0.6,6.4c5.2-1.9,18.8,2.2,18.4-4.5
						c1-10.6-3.5-7.5-11.4-6.4C85.5,58.5,81.8,66.8,80.8,62.6 M97.5,43.3c-1.7,2.3-3.3,4.5-4.7,6.7C98,50.4,97.8,47.7,97.5,43.3
						 M97.3,94.7c-0.9,1.1-1.7,2.2-2.4,3.5C98.1,98.7,97.7,97.3,97.3,94.7 M77.8,62.5c-0.8,0.4-0.8,0.4-0.6,1
						C77.4,63.2,77.6,62.8,77.8,62.5 M55,32c0.3,0.1,0.6-0.1,0.8-0.2C55.4,31.3,55.1,31.3,55,32"/>
					<path id="Path_1540" class="st2" d="M145.4,59.8c-7.8,10.5-6.1-2.8-7.3-8.8c-1.9-6.3-9,21.5-11.8,21.5c0.4-1.8,1.2-4.9-0.9-2.5
						c-0.6-0.7,0.9-1.8,0.1-2.4c-0.3-1.2-0.5-0.2-1.1-0.2c-0.6-0.4,0.4-1.1,0.1-1.6c-2.6,1.7,0-2,0.2-3.3c-1.1,1-2,2.2-2.7,3.5
						c1.4-5.3,2.2-6.5-2.1-1.9c2.1-5.9,4.6-11.7,7.2-17.4c-9.4,15,10.1-22.6,10.1-28.1c1.7-0.2,3,3.4,4.2,2.7
						c5.1-7.8,3.7,8.9,4.8,12.5c0.4,16,9.3-17.1,14.5-21.8c1.6-0.1-2.8,5.4-0.2,5.9c1.6-0.6,1.4-3.7,3-4.3c1,3.4,1.7-3.6,3.7-3.5
						c5-6.5,1.3,1.8,0.3,5.4c1.3,5.1-2.6,11.8-5.4,18.1c-5.6,13.4-6.5,18.3-13.2,26.1c-0.8,1.9-1.8,1.6-1.3-0.4
						c-1.2,0.4-1.2,2.7-2.3,3.1C144.8,61.7,145.7,60.2,145.4,59.8"/>
					<path id="Path_1541" class="st2" d="M152.2,85.2c6.6-0.4-0.8,2.7,3.9,3.1c0.9,0.1,3.7-0.5,3,1.1c-2.9,3.7-13.9,2.2-11.9,8.2
						c4.4,0,10-2.4,13.6,0.4c-0.6,1.2-3.8-0.1-3.9,1.5c0.6,1.5,8.6-1.4,7.1,1.1c-0.1,0.5,1.3,1-0.8,1.3c-8.1,4.1-20,1.2-27,7.5
						c-0.6-1.1,0.4-2.4-0.7-3.5c-5.4,0,3.8-11.8,3.9-15.8c10.2-23.6,1.5-16.8,26.8-17.9c1.2,0.2-1.5,0.5-1.9,0.7
						c0.9-0.1,3.5-0.1,2,1.2c-3.4,1.4,1.1,0.1,0.6,2c-0.3,1.8,2.6,1.1,3.7,1.5C172.6,82.9,151.8,75.5,152.2,85.2"/>
					<path id="Path_1542" class="st2" d="M113.2,69.8c0.5-3.4,0.8-5.7-1.1-1.2c0.5-2.3-0.9-2-0.4-4c0.5-1.8,0.5-2.1-0.4-0.2
						c0.6-5.3-0.5-1.9-2.8,0.5c-0.1-1.9,2.5-5.1-0.2-4c-0.3-0.2-0.1-0.5-0.1-0.7c-0.1-4.6,6.8-20.7,12.2-34.4c0.6-1.3,2.2-8.4,3-4.6
						c-0.2,0.7,0.6,0.7,0.7,0.1c0.1-0.9,1.9-3.9,1.9-1.5c-0.4,2.1-0.7,3.5,1.5,4.1c3.5,3.1,2.3-2.3,4.2-0.5
						C127.2,39.2,119.5,54.4,113.2,69.8"/>
					<path id="Path_1543" class="st2" d="M15.4,109.8c-1.5,1.1-3.4,7.4-5,5.1c-0.6,0.8-3.6,3-3.6,1.5c0.6-2.8-3.3,5.2-5.1,5.2
						C4,111.3,13,99.5,19.6,88.1c2-4.7,3.4,0,5.1-1.1c1.5-1.8,2.5,2.5,5.2,0.1C32.1,89.5,4.4,133,15.4,109.8"/>
					<path id="Path_1544" class="st2" d="M131.8,18.3c-1.3,0.3-1.1,0.1-1.1-1.1c-0.6,0.4-2.2,1.7-2.1,0.1c0.4-2.1-2.2,1-1.9-1.9
						c-7.2,4.3,0.7-6.5,2.3-10.4c1.3,0.6,0.9,2.6,2.7,1c2-0.6,4.1,0.2,6.2-0.4C137.9,7,133.1,20.3,131.8,18.3"/>
					<path id="Path_1545" class="st2" d="M27.5,81.2c-9,8.2,0.2-14.9,5-8.4c3.7,3.1,5-0.4,5.4,1.5C36.3,77,34.5,84,30.7,83
						C29.3,82.1,26.9,84.1,27.5,81.2"/>
					<path id="Path_1546" class="st2" d="M114.5,37.6c1.5-5.4,3.7-11.9,6.8-16.4C120.6,26.6,116.8,32.5,114.5,37.6"/>
					<path id="Path_1547" class="st2" d="M104.3,13.5c-0.5,0-2.5,0-1.4-0.6c0.7,0,4.3-1,2.9,0.5C105.3,13.6,104.8,13.6,104.3,13.5"
						/>
					<path id="Path_1548" class="st2" d="M86.2,92.7c-0.9-0.3,1.1-3.1,1.6-1.8C87.6,91.6,87,92.3,86.2,92.7"/>
					<path id="Path_1549" class="st2" d="M142.2,67.1c-0.4-1.2,0.2-2.5,1.3-2.4C143.8,65.4,142.6,66.4,142.2,67.1"/>
					<path id="Path_1550" class="st2" d="M85.6,34.3c-0.2,1.9-1.7-1-1.1-1.5C85.3,32.4,85.6,33.6,85.6,34.3"/>
					<path id="Path_1551" class="st2" d="M121.9,57.4c-0.5,1.1-0.7,3-1.8,3.6C120.3,59.6,120.9,58.4,121.9,57.4"/>
					<path id="Path_1552" class="st2" d="M133.5,109.9c0-0.8,0-2.5,0.9-2.3C135.4,108.3,134,109.2,133.5,109.9"/>
					<path id="Path_1553" class="st2" d="M59.2,95.1c0-0.9,0.4-2.4,1.3-2.5C60.8,93.5,59.9,94.5,59.2,95.1"/>
					<path id="Path_1554" class="st2" d="M67.4,70.6c-0.3,0.6-0.6,1.8-1.3,1.9C65.5,72.2,67.1,70.1,67.4,70.6"/>
					<path id="Path_1555" class="st2" d="M64.1,87.7c0.3,0.6,1,1.4,0.7,2C64,89.8,63.8,88.4,64.1,87.7"/>
					<path id="Path_1556" class="st2" d="M112.9,40.5c0-0.4,0.3-1,0.8-0.8C114.6,40.2,112.9,41.9,112.9,40.5"/>
					<path id="Path_1557" class="st2" d="M29.6,114.2c0.2-1,1-1.7,1.5-2.6C30.9,112.7,30.4,113.6,29.6,114.2"/>
					<path id="Path_1558" class="st2" d="M150.4,71.4c0.7-0.1,0.9,0.9,0,0.8C149.6,72.3,149.6,71.3,150.4,71.4"/>
					<path id="Path_1559" class="st2" d="M104,70.1c-1,0.1-0.9-0.7,0-0.6C105,69.2,105,70.3,104,70.1"/>
					<path id="Path_1560" class="st2" d="M77.2,58.1C77,58.4,77,59,76.5,59C75.7,58.8,77,56.9,77.2,58.1"/>
					<path id="Path_1561" class="st2" d="M51.3,111.8c-1.3,0,0.2-1.1,0.7-0.6C52.2,111.6,51.5,111.8,51.3,111.8"/>
					<path id="Path_1562" class="st2" d="M100.3,13.3c0.6-0.1,0.6,0.7,0,0.6C99.5,14,99.2,13.2,100.3,13.3"/>
					<path id="Path_1563" class="st2" d="M85.5,35.7c0.5,0,0.5,0.8,0.1,0.9C85.3,36.6,84.9,35.6,85.5,35.7"/>
					<path id="Path_1564" class="st2" d="M78,93.4c-0.4-0.3-0.8-0.8-0.4-1.1C78,92.4,78.1,93.1,78,93.4"/>
					<path id="Path_1565" class="st2" d="M106.3,70.3c-0.1,0.2-0.5,0.2-0.5-0.1C105.8,70,106.3,70.1,106.3,70.3"/>
					<path id="Path_1566" class="st2" d="M65.6,73.5c-0.2,0-0.1-0.3,0.1-0.3C65.9,73.2,65.9,73.6,65.6,73.5"/>
					<path id="Path_1567" class="st2" d="M67,46.9c-0.4,0.1-1.3,0.4-1.4-0.3C65.8,45.7,67.1,46.1,67,46.9"/>
				</g>
			</g>
		</g>
	</g>
	<g id="Group_1003" transform="translate(777.39 4621.33)">
		<g>
			<g>
				<defs>
					<rect id="SVGID_00000140704207369916335470000014436599329411655831_" x="0" y="0" width="244.9" height="327.1"/>
				</defs>
				<clipPath id="SVGID_00000130644005314505185270000008956296219447797667_">
					<use xlink:href="#SVGID_00000140704207369916335470000014436599329411655831_"  style="overflow:visible;"/>
				</clipPath>
				<g id="Group_1015" style="clip-path:url(#SVGID_00000130644005314505185270000008956296219447797667_);">
					<path id="Path_1526" class="st1" d="M39.4,89.5l2.3,8.6l4.5-2.8L39.4,89.5z M232.4,93.6c-32.1-20.8-105.3-65.3-105.3-65.3
						s-5.8,3.6-15.1,9.3l1.7,2.6l-6.3,4l2.5,3.9l6.3-4l2.4,3.8l-6.3,4l2.5,4l6.3-4l2.4,3.8l-11,6.9L101,44.5
						c-0.9,0.6-1.9,1.2-2.8,1.7l11.5,18.2l-4.7,2.9l-4.8-7.6l-6.3,4l4.8,7.6l-4.7,3L82.5,56c-0.6,0.4-1.2,0.8-1.9,1.2l1.8,2.8
						L78,62.8l9.7,15.5L83,81.2l-9.7-15.4l-4.4,2.8l-1.8-2.8c-2.9,1.8-5.8,3.6-8.7,5.4l1.8,2.8l-4.4,2.8l9.7,15.5l-4.7,2.9
						l-9.7-15.5l-4.4,2.8l-1.8-2.8c-1.7,1.1-3.3,2.1-4.9,3.1l17.5,14.5l-5.1,3.2l-2.6-2.2l-6.8,4.3l0.9,3.3l-5,3.1l-5.5-22
						c-5.9,3.8-11.5,7.4-16.4,10.6c0,37,0,67.3-0.1,104.3c16.5-26.5,32.9-53.1,49.4-79.6c5.2-8.5,10.8-17.2,19.4-22.3
						c7-4.1,15.4-5.3,22.8-8.7c7.2-3.3,14.1-8.8,22.1-8.3c9.5,0.7,16.4,9.8,22.2,16.7c1.6,1.9,2.6,4.2,2.7,6.7
						c0.2,7.9-8.3,9.7-14.6,8.3c-2.9-0.7-5.9-1.8-8.8-2.5c-1.5-0.4-2.3-1.9-1.9-3.3c0.2-0.9,0.9-1.6,1.7-1.9
						c4.1-1.5,8.6-1.6,12.7-0.2c0.5-1.9-1-4-2.8-4.7c-1.9-0.6-4-0.6-5.9-0.1c-8.5,1.9-16.1,6.8-21.3,13.8c12.5-1.3,25.1,1.3,36,7.5
						c1.5,0.8,2.7,2.1,3.4,3.7c1.9,4.5-1.9,7.4-5.5,8.4c-9.4,2.4-20.4-3.7-28.7,1.4l5.6,0.5c-8.7,5.1-18.9,7.2-28.9,6.2
						c-2.2-4.8-7.9-7-12.8-4.8c-0.1,0-0.2,0.1-0.3,0.1l2.4,2.1l0.5,1c0.4,0.8,0.7,1.6,1,2.4l0.5,1.8l-1.2,6.5l-3.2,8.9
						c-0.3,0.7-0.6,1.4-1,2c-9.3,15.8-2.6,36.7-8.4,54.3c-3.3,10-10.6,18.9-12.5,29c-0.1,0.6,0.3,1.2,0.9,1.3
						c0.5,0.1,0.9-0.1,1.2-0.5c8.1-14.1,19-26.8,33.6-33.7c16.2-7.6,37.3-6.4,49.9,6.3c-13.7-7.6-32.9-9.2-45.1-0.5
						c-0.1,0.1-0.2,0.3-0.1,0.4c0.1,0.1,0.2,0.1,0.3,0.1c6.7-1.4,13.3-4.2,19.6-1.8c8.2,3.2,11.4,14.8,5.1,20.6
						c-0.3,0.3-0.3,0.8,0,1.1c0.2,0.2,0.5,0.3,0.8,0.2c0.6-0.2,1.3-0.4,1.9-0.7l28.1-15.7c22.4-14.4,50.3-19.2,76-11.1
						C234.3,171.6,233.5,134.7,232.4,93.6 M138,170.8h-6.6c-0.4-1.9-2.9-3.9-6.6-3.9c-4.7,0-7.8,3.4-7.8,8.2c0,5.2,3.1,8.4,8.2,8.4
						c3.4,0,6.3-1.7,6.3-3.9l0,0c0.1-0.5-0.3-1-0.9-1.1c-0.1,0-0.1,0-0.2,0h-7v-5.7H138v16.7h-6.3l-0.1-2.9
						c-1.6,2.2-4.4,3.5-8.3,3.5c-7.7,0-14.1-5.6-14.1-15.1c0-8.8,5.9-15,14-15c3.6,0,6.6,1.3,8.4,3.7l0.1-3.2h6.4L138,170.8z
						 M166.9,166.3h-0.6c-0.7,0-1.3,0.3-1.7,1l-7.2,12.1v3c-0.1,0.5,0.3,1,0.9,1.1c0.1,0,0.1,0,0.2,0h1.3v5.9h-12.7v-5.9h1.3
						c0.6,0,1-0.4,1.1-0.9c0-0.1,0-0.1,0-0.2v-3l-7.2-12.1c-0.3-0.6-0.9-1-1.6-1H140v-5.9h12.1v5.9h-0.9c-1,0-1.4,0.6-0.8,1.5
						l3.2,5.8l3.2-5.8c0.5-0.9,0.1-1.5-0.9-1.5H155v-5.9h11.9V166.3z M206,166.3h-1c-0.8,0-1.2,0.5-1.2,1.3v14.6
						c0,0.7,0.5,1.2,1.2,1.2c0.1,0,0.1,0,0.2,0h0.9v5.9h-11.9v-5.9h1.1c0.7,0,1.2-0.5,1.2-1.1c0-0.1,0-0.2,0-0.2v-14.3L190,189h-5.1
						l-6.6-21.2v14.3c0,0.8,0.4,1.4,1.2,1.4h1.3v5.9h-11.9v-5.9h0.8c0.7,0.1,1.3-0.4,1.3-1c0-0.1,0-0.1,0-0.2v-14.7
						c0-0.8-0.4-1.3-1.2-1.3h-1v-5.9h13.3l5.2,17.7l5.1-17.7H206V166.3z M93.5,49.2c-2.1,1.3-4.2,2.6-6.3,3.9l4.3,6.9l6.3-4
						L93.5,49.2z"/>
					<path id="Path_1527" class="st1" d="M198,266.2c-0.2,0-0.3,0.2-0.3,0.3c0,0.1,0.1,0.2,0.2,0.3c10,2.2,19.9,1.6,30.2,1.1
						c2-0.1,4-0.3,6.1-0.5c2.4-0.3,5.1-0.5,7.1-1.8c1.3-0.8,1.3-2.4,1.6-3.7c0.4-1.7,0.7-3.5,1-5.2c0-0.3,0.1-1-0.2-1.2
						c-0.3-0.1-0.9,0.5-1.1,0.7c-0.9,0.6-1.8,1.2-2.8,1.6c-1.9,0.9-3.9,1.7-5.9,2.5c-3.9,1.5-7.9,2.7-12,3.5
						C214.1,265.4,206.1,265.9,198,266.2"/>
					<path id="Path_1528" class="st1" d="M162.4,304.3c-12.8-6.6-23.9-18.2-26.5-32.1c-0.2-1.2-0.3-2.3-0.4-3.5c0-0.1-0.2-0.1-0.2,0
						c-1.9,8,0,15.2,3.4,21.9c-8.9,6.4-21.8,8.8-33.1,8.7c-12.5-1.4-24.9-5.3-34.9-12c-0.3-0.2-0.6-0.1-0.8,0.2
						c-0.2,0.2-0.1,0.6,0.1,0.7c7.9,7.2,17.6,12.2,28.1,14.4c15.8,3.4,30.9,0.8,47-1.9c1.5,1.5,3.1,2.9,4.9,4
						c2.5,2.6,5.6,4.8,8.9,6.3c1,0.6,2.1,1.3,3.2,1.8c0.2,0.1,0.3,0.2,0.5,0.3c-6.2,2.2-47.4,10.6-80.6,3.8
						c-10.7-2.2-21.3-4.9-31.7-8.1c-0.2-0.1-0.5,0.1-0.5,0.3c-0.1,0.2,0,0.4,0.2,0.5c23.1,12.1,51.5,17.5,75.5,17.5
						c22.2,0,48.9-5.1,71.5-16.1c0.2-0.1,0.2-0.3,0.2-0.5c-0.1-0.1-0.2-0.2-0.3-0.2c-3.2,0.2-7.3,0.4-9.8,0.3
						c-4-0.2-7.9-0.7-11.8-1.7C170.6,307.9,166.4,306.3,162.4,304.3"/>
					<path id="Path_1529" class="st1" d="M132.8,297.2c-0.3,0-0.7-0.6-1.1-0.9c0.5-0.5,1-1,1.6-1.3c0.3-0.1,0.9,0.6,1.7,1.2
						C134.4,296.6,133.6,297,132.8,297.2"/>
					<path id="Path_1530" class="st1" d="M150,299.6c-0.2,0-0.5-0.4-0.8-0.5c0.3-0.3,0.7-0.6,1.1-0.7c0.2-0.1,0.6,0.3,1.2,0.6
						C151.1,299.2,150.5,299.4,150,299.6"/>
					<path id="Path_1531" class="st1" d="M155.8,302.7c-0.4-0.2-0.8-0.5-1.1-0.8c0.3-0.3,0.6-0.7,1-0.7c0.7,0.1,1.4,0.3,2,0.6
						C156.4,302.4,156,302.8,155.8,302.7"/>
					<path id="Path_1532" class="st1" d="M82.2,320.6c-0.5-0.6-1-1.1-1.5-1.7c0,0,0.3-0.3,0.5-0.4l1.5,1.7L82.2,320.6"/>
					<path id="Path_1533" class="st1" d="M145.6,317.8c-0.1-0.2-0.2-0.5-0.3-0.8c0-0.1,0.3-0.2,0.5-0.4c0.1,0.2,0.1,0.4,0.2,0.6
						L145.6,317.8"/>
					<path id="Path_1534" class="st1" d="M160.4,322.2l-1.9-1.1c1-0.3,2-0.7,3-0.9c0.2-0.1,0.6,0.3,0.8,0.5L160.4,322.2"/>
					<path id="Path_1535" class="st1" d="M51.2,272.6c0.4-0.3,0.7-0.7,0.4-1c-4.5,0.7-9.1,0.4-13.5-0.9c-2.3-0.7-4.9-1.7-7.4-1.3
						c-2.5,0.4-4.2,2.7-6.8,3c-1.4,0.1-2.8-0.2-4.1-0.8c-1.7-0.6-3.2-1.6-4.3-3c-0.9-1.5-1.3-3.2-1.2-4.9
						c-0.1-8.3,3.2-16.8,5.6-24.8c2.1-7,4.3-14,6.6-21c0-0.1,0-0.3-0.2-0.3c-0.1,0-0.3,0-0.3,0.2l0,0c-3,7.3-6.2,14.6-9.5,21.9
						c-3.6,8-8.7,16.1-7.7,25.3c0.3,3.9,2.3,7.6,5.4,10c9.9,7.4,26.4,1.2,36.6-2.2C50.9,272.8,51.1,272.7,51.2,272.6"/>
					<path id="Path_1536" class="st1" d="M168.6,248.6c-0.1,0.1-0.1,0.2-0.1,0.3c0.1,0.1,0.2,0.1,0.3,0.1
						c13.5-7.7,28.7-11.7,44.2-13c9.1-0.7,19.2-1.2,27.9,2c0.4,0.2,0.8,0.3,1.2,0.5c0.5,0.2,1,0.5,1.5,0.8c0.4,0.2,0.8,0.1,1.1-0.2
						c0.1-0.1,0.1-0.3,0.1-0.4v-9.2c0-0.7-0.5-1.3-1.2-1.3l0,0c-15.8-1.2-32.5,0.1-47.5,5.4C186.2,237,176.9,242.1,168.6,248.6"/>
					<path id="Path_1537" class="st1" d="M127.3,12.3l-8.4,5.3l0,0l-1.5-2.3l-6.3,4l-2.5-3.9l6.3-4l-2.4-3.7l-6.3,4l-2.5-3.9l6.3-4
						L107.8,0L96.9,6.9L108,24.6l0,0l-2.8,1.8l0,0L94.1,8.6L88.7,12l1.5,13.4l-11.5-7.1l-5.4,3.4l11.2,17.8l0,0L69.6,49l0,0
						l-8.9-14.1l4.4-2.8l-2.4-3.7l-13.4,8.5l2.4,3.7l4.4-2.8L65,51.9l0,0l-6,3.8l0,0l-1.6-2.5l-6.3,4l-2.5-3.9l6.3-4l-2.4-3.7
						l-6.3,4l-2.5-3.9l6.3-4L47.6,38l-10.9,6.9L48,62.8l0,0L45.9,64l0,0l-1.6-2.5l-6.3,4l-2.5-4l6.3-4l-2.4-3.7l-6.3,4l-2.5-3.9
						l6.3-4l-2.4-3.7L23.7,53L35,70.9l0,0l-2.8,1.8l0,0l-11.3-18l-5.4,3.4L17,71.6L5.4,64.5L0,67.9l11.3,18l0,0l-6.1,3.9v119.6h7.4
						V92.9l114.3-72.7l111.2,70.4v123.2l6.8,2.4V86.9L127.3,12.3z M100.6,29.3L100.6,29.3l-4.7,3l0,0l-1.3-12.5L100.6,29.3z
						 M89,36.7l-6-9.6l10.8,6.5l0,0L89,36.7z M27.6,75.6L27.6,75.6l-4.9,3.1l0,0l-1.3-12.8L27.6,75.6z M16,83l-6.2-9.8l11.1,6.7l0,0
						L16,83L16,83z"/>
				</g>
			</g>
		</g>
	</g>
	<g id="Group_1004" transform="translate(674 4560.569)">
		<g>
			<g>
				<defs>
					<rect id="SVGID_00000070081304851536571730000001700095936266245553_" x="-237.8" y="11.3" width="71.9" height="107.9"/>
				</defs>
				<clipPath id="SVGID_00000119075985916420123500000016652310812595861153_">
					<use xlink:href="#SVGID_00000070081304851536571730000001700095936266245553_"  style="overflow:visible;"/>
				</clipPath>
				<g id="Group_1017" style="clip-path:url(#SVGID_00000119075985916420123500000016652310812595861153_);">
					<path id="Path_1568" class="st1" d="M-200.1,81l-0.4-1.9l-0.1-0.2c-0.1-0.3,0-0.7,0.1-1l1.2-2.5c0.2-0.3,0.4-0.6,0.7-0.8l1.9-1
						c0.1-0.1,0.3-0.1,0.4-0.1c0.3-0.1,0.7,0,1,0.1l4.7,2.2v-4l-2.6-1.2c-0.4-0.2-0.8-0.6-0.9-1.1l-0.4-1.7c-0.1-0.3,0-0.7,0.1-1
						l1-2.1c0.2-0.3,0.4-0.6,0.7-0.8l1.6-0.8c0.1-0.1,0.3-0.1,0.4-0.1v-6.1c0-0.4-0.1-0.7-0.2-1.1l-2.5-7.7l-3.2-10
						c-0.3-0.8-0.8-1.6-1.6-2l-10.3-6.2c-0.1-0.1-0.2-0.1-0.3-0.2l-2.7-2c-0.9-0.7-1.5-1.8-1.5-2.9l-0.1-10.9c0-0.9-0.3-1.8-0.9-2.4
						h-0.6h-0.6c-0.6,0.7-0.9,1.5-0.9,2.4l0,0l0.1,10.9c0,1.2-0.5,2.3-1.5,3l-2.7,2c-0.1,0.1-0.2,0.1-0.3,0.2l-10.2,6.4
						c-0.7,0.5-1.3,1.2-1.6,2l-5.4,17.8c-0.1,0.4-0.2,0.7-0.2,1.1l0.2,21.7c0,0.6,0.1,1.1,0.4,1.7l5.5,10.6c0.3,0.5,0.6,1,1.1,1.3
						l8.6,6.2l2.1,1.6l3.3,2.7c0.7,0.5,1.5,0.8,2.3,0.8h0.9h1c0.8,0,1.6-0.3,2.2-0.8l1.7-1.3l-0.2-0.7c-0.1-0.3,0-0.7,0.1-1l0.8-1.7
						c0.2-0.3,0.4-0.6,0.7-0.7l1.2-0.6c0.4-0.2,1-0.2,1.4,0l1.1,0.5l3.1-2.6l-3.4-1.6c-0.4-0.2-0.8-0.6-0.9-1.1l-0.4-1.7
						c-0.1-0.3,0-0.7,0.1-1l1-2.1c0.1-0.3,0.3-0.5,0.6-0.7c0,0,0.1,0,0.1-0.1l1.6-0.8c0.4-0.2,0.9-0.2,1.4,0l0.9,0.4l4.5,2.1
						l1.6-3.2l-6-2.8C-199.6,81.8-200,81.4-200.1,81 M-205.4,66.4l0.1-1.1c0-0.2,0.1-0.4,0.1-0.5l1.2-2.5c0.1-0.2,0.2-0.3,0.3-0.4
						l0.8-0.8c0.3-0.3,0.7-0.4,1.1-0.5c0.3,0,0.5,0,0.7,0.1l2.3,1.1c0.6,0.3,1,0.9,0.9,1.6l-0.1,1.1c0,0.2-0.1,0.4-0.1,0.5l-1.2,2.5
						c-0.1,0.2-0.2,0.3-0.3,0.5l0,0l-0.8,0.8c-0.5,0.5-1.2,0.6-1.8,0.3l-2.3-1.1C-205.1,67.7-205.4,67.1-205.4,66.4 M-193,56.5v0.8
						c0,0.1,0,0.2-0.1,0.3l-0.7,1.4c0,0.1-0.1,0.1-0.2,0.2l-0.6,0.6c-0.2,0.2-0.5,0.2-0.8,0.1l-0.4-0.2c-0.1-0.1-0.3-0.2-0.5-0.2
						l-0.9-0.4c-0.3-0.1-0.4-0.4-0.4-0.7v-0.8c0-0.1,0-0.2,0.1-0.3l0.7-1.4c0-0.1,0.1-0.1,0.2-0.2l0.6-0.6c0.2-0.2,0.5-0.2,0.8-0.1
						l1.8,0.8C-193.1,56-193,56.2-193,56.5 M-198,48.8c-0.4,0.2-0.8,0.5-1.1,0.8l-4.1,4.4c0-0.1,0-0.1,0-0.2v-2.7
						c0-0.2,0-0.4,0.1-0.5l0.4-1c0.2-0.6,0.8-1,1.5-1h2.4C-198.6,48.5-198.3,48.6-198,48.8 M-204.6,42.3l0.3-0.7
						c0.1-0.3,0.3-0.4,0.6-0.4h1.9c0.3,0,0.5,0.2,0.6,0.4l0.3,0.7c0,0.1,0.1,0.2,0.1,0.2v1.6c0,0.1,0,0.2,0,0.2l-0.3,0.7
						c-0.1,0.3-0.3,0.4-0.6,0.4h-1.9c-0.3,0-0.5-0.2-0.6-0.4l-0.3-0.7c0-0.1,0-0.2,0-0.2v-1.6C-204.7,42.5-204.6,42.4-204.6,42.3
						 M-219.2,37.1l0.7-1c0.3-0.4,0.8-0.7,1.3-0.7l6.5-0.1c0.5,0,1,0.2,1.3,0.7l0.7,1c0.2,0.3,0.3,0.6,0.3,0.9v2
						c0,0.3-0.1,0.6-0.3,0.9l-0.7,1c-0.3,0.4-0.8,0.7-1.3,0.7h-6.5c-0.5,0-1-0.2-1.3-0.7l-0.7-1c-0.2-0.3-0.3-0.6-0.3-0.9v-2
						C-219.4,37.6-219.3,37.3-219.2,37.1 M-220.6,48l1.1-1.4c0.3-0.4,0.7-0.6,1.2-0.6l8.9-0.1c0.5,0,0.9,0.2,1.2,0.6l1.1,1.4
						c0.2,0.3,0.3,0.6,0.3,1v2.3c0,0.3-0.1,0.7-0.3,1l-1.1,1.4c-0.3,0.4-0.7,0.6-1.2,0.6l-8.9,0.1c-0.5,0-0.9-0.2-1.2-0.6l-1.1-1.4
						c-0.2-0.3-0.3-0.6-0.3-1V49C-220.9,48.7-220.8,48.3-220.6,48 M-221.3,60l1.3-1.7c0.3-0.4,0.7-0.6,1.2-0.6l10-0.1
						c0.5,0,0.9,0.2,1.2,0.6l0.2,0.3l-4.8,5.2c-0.3,0.3-0.5,0.6-0.6,1l-1,2.1h-5c-0.5,0-0.9-0.2-1.2-0.6l-1.3-1.6
						c-0.2-0.3-0.3-0.6-0.3-1v-2.7C-221.6,60.6-221.5,60.3-221.3,60 M-209.1,82.5c0.6,0.3,1,0.9,0.9,1.6l-0.1,1.1
						c0,0.2-0.1,0.4-0.1,0.5l-1.2,2.6c-0.1,0.2-0.2,0.3-0.3,0.4l0,0l-0.8,0.8c-0.5,0.5-1.2,0.6-1.8,0.3l-2.2-1l0,0
						c-0.6-0.3-1-0.9-0.9-1.6l0.1-1.1c0-0.2,0.1-0.4,0.1-0.5l1.2-2.6c0.1-0.2,0.2-0.3,0.3-0.4l0.6-0.6l0.2-0.2
						c0.5-0.5,1.2-0.6,1.8-0.3l1,0.5L-209.1,82.5z M-219,78.1c-0.1-0.1-0.2-0.2-0.3-0.3l-1.1-1.4c-0.2-0.3-0.3-0.6-0.3-1v-2.3
						c0-0.3,0.1-0.7,0.3-1l1.1-1.4c0.3-0.4,0.7-0.6,1.2-0.6h2.8L-219,78.1z M-231.1,50.8l0.4-1c0.2-0.6,0.8-1,1.5-1h2.4
						c0.7,0,1.2,0.4,1.5,1l0.4,1c0.1,0.2,0.1,0.3,0.1,0.5V54c0,0.2,0,0.4-0.1,0.5l-0.4,1c-0.2,0.6-0.8,1-1.5,1h-2.4
						c-0.7,0-1.2-0.4-1.5-1l-0.4-1c-0.1-0.2-0.1-0.3-0.1-0.5v-2.7C-231.2,51.2-231.1,51-231.1,50.8 M-232.7,67.3l-0.5-1.3
						c-0.1-0.2-0.1-0.4-0.1-0.6v-2.9c0-0.2,0-0.4,0.1-0.6l0.5-1.3c0.2-0.6,0.8-1,1.4-1h3.7c0.6,0,1.2,0.4,1.4,0.9l0.5,1.3
						c0.1,0.2,0.1,0.4,0.1,0.6v2.9c0,0.2,0,0.4-0.1,0.6l-0.5,1.3c-0.2,0.6-0.8,1-1.4,1h-3.7C-231.9,68.2-232.5,67.9-232.7,67.3
						 M-231,78.3l-0.4-1c-0.1-0.2-0.1-0.3-0.1-0.5v-2.7c0-0.2,0-0.4,0.1-0.5l0.4-1c0.2-0.6,0.8-1,1.5-1h2.4c0.7,0,1.2,0.4,1.5,1
						l0.4,1c0.1,0.2,0.1,0.3,0.1,0.5v2.8c0,0.2,0,0.4-0.1,0.5l-0.4,1c-0.2,0.6-0.8,1-1.5,1h-2.4C-230.2,79.3-230.8,78.9-231,78.3
						 M-224.1,86.3l-0.1,0.2c-0.2,0.6-0.8,1-1.4,1h-1.1c-0.6,0-1.2-0.4-1.4-1l-0.1-0.2c-0.1-0.2-0.1-0.4-0.1-0.6v-1.4
						c0-0.2,0-0.4,0.1-0.6l0.1-0.2c0.2-0.6,0.8-1,1.4-1h1.1c0.6,0,1.2,0.4,1.4,1l0.1,0.2c0.1,0.2,0.1,0.4,0.1,0.6v1.4
						C-224,85.9-224,86.1-224.1,86.3 M-223.6,44.5l-0.3,0.7c-0.1,0.3-0.3,0.4-0.6,0.4h-1.9c-0.3,0-0.5-0.2-0.6-0.4l-0.3-0.7
						c0-0.1-0.1-0.2,0-0.2v-1.5c0-0.1,0-0.2,0-0.2l0.3-0.7c0.1-0.3,0.3-0.4,0.6-0.4h1.9c0.3,0,0.5,0.2,0.6,0.4l0.3,0.7
						c0,0.1,0,0.2,0,0.2v1.6C-223.6,44.4-223.6,44.5-223.6,44.5 M-212.5,97.2c-0.1,0.2-0.2,0.4-0.4,0.5l-0.1,0.1
						c-0.5,0.4-1.2,0.6-1.8,0.3l-1-0.5c-0.6-0.3-1-0.9-0.9-1.5v-0.2c0-0.2,0.1-0.4,0.1-0.6l0.6-1.3c0.1-0.2,0.2-0.4,0.4-0.5l0.1-0.1
						c0.5-0.4,1.2-0.6,1.8-0.3l1,0.5c0.6,0.3,1,0.9,0.9,1.5v0.2c0,0.2-0.1,0.4-0.1,0.6l-0.5,1.1L-212.5,97.2z M-204.9,77.7
						c-0.1,0.2-0.2,0.4-0.4,0.5l-1,0.9c-0.5,0.4-1.2,0.5-1.7,0.3l-2.2-1l-1.3-0.6c-0.6-0.3-0.9-0.9-0.9-1.5l0.1-1.4
						c0-0.2,0.1-0.4,0.1-0.6l1.3-2.7c0.1-0.2,0.2-0.4,0.4-0.5l0.9-0.8l0,0l0.1-0.1c0.5-0.4,1.2-0.5,1.7-0.3l3.5,1.6
						c0.6,0.3,0.9,0.9,0.9,1.5v1.4c0,0.2-0.1,0.4-0.2,0.6L-204.9,77.7z"/>
					<path id="Path_1569" class="st1" d="M-211.5,77.8l1.3,0.6l-7.8,0.1c-0.3,0-0.7-0.1-1-0.3l3.7-7.8h5.6l-0.9,0.8
						c-0.2,0.1-0.3,0.3-0.4,0.5l-1.3,2.7c-0.1,0.2-0.1,0.4-0.1,0.6l-0.1,1.4C-212.5,76.9-212.1,77.5-211.5,77.8"/>
					<path id="Path_1570" class="st1" d="M-209.4,95.1c0,0.3-0.1,0.7-0.3,1l-0.3,0.4c-0.3,0.4-0.7,0.6-1.2,0.6h-1.1l0.5-1.1
						c0.1-0.2,0.1-0.4,0.1-0.6v-0.2c0-0.7-0.3-1.3-0.9-1.5l-1-0.5c-0.6-0.3-1.3-0.2-1.8,0.3l-0.1,0.1c-0.1,0.1-0.3,0.3-0.4,0.5
						l-0.6,1.3c-0.1,0.2-0.1,0.4-0.1,0.6v0.2c0,0.2,0,0.4,0.1,0.6c-0.1-0.1-0.2-0.2-0.3-0.3l-0.3-0.3c-0.2-0.3-0.3-0.6-0.3-1v-0.9
						c0-0.3,0.1-0.7,0.3-1l0.3-0.4c0.3-0.4,0.7-0.6,1.2-0.6h4.4c0.5,0,0.9,0.2,1.2,0.6l0.3,0.3c0.2,0.3,0.3,0.6,0.3,1L-209.4,95.1z"
						/>
					<path id="Path_1571" class="st1" d="M-217.2,82h3.9l-0.6,0.6c-0.1,0.1-0.2,0.3-0.3,0.4l-1.2,2.6c-0.1,0.2-0.1,0.3-0.1,0.5
						l-0.1,1.1c-0.1,0.7,0.3,1.3,0.9,1.6l0,0h-2.4c-0.5,0-0.9-0.2-1.2-0.6l-0.8-1c-0.2-0.3-0.3-0.6-0.3-1v-1.8c0-0.3,0.1-0.7,0.3-1
						l0.8-1C-218.1,82.2-217.7,82-217.2,82"/>
					<path id="Path_1572" class="st1" d="M-207.6,86.2c0,0.3-0.1,0.7-0.3,1l-0.8,1c-0.3,0.4-0.7,0.6-1.2,0.6l0,0l0,0
						c0.1-0.1,0.2-0.3,0.3-0.4l1.2-2.6c0.1-0.2,0.1-0.3,0.1-0.5l0.1-1.1c0.1-0.7-0.3-1.3-0.9-1.6l-1.2-0.6h0.3
						c0.5,0,0.9,0.2,1.2,0.6l0.8,1c0.2,0.3,0.3,0.6,0.3,1L-207.6,86.2z"/>
					<path id="Path_1573" class="st1" d="M-205.8,63.5c0,0.3-0.1,0.7-0.3,1l-1.3,1.7c-0.3,0.4-0.7,0.6-1.2,0.6h-5l1-2.1
						c0.2-0.3,0.4-0.7,0.6-1l4.8-5.2l1.1,1.4c0.2,0.3,0.3,0.6,0.3,1L-205.8,63.5z"/>
					<path id="Path_1574" class="st1" d="M-194.5,65.1c0,0.2,0,0.4-0.1,0.6l-0.5,1.3c-0.2,0.6-0.8,1-1.4,1h-3.1l0,0
						c0.1-0.1,0.2-0.3,0.3-0.5l1.2-2.5c0.1-0.2,0.1-0.3,0.1-0.5l0.1-1.1c0.1-0.7-0.3-1.3-0.9-1.6l-2.3-1.1c-0.2-0.1-0.5-0.2-0.7-0.1
						v-0.1c0.2-0.6,0.8-1,1.4-1h3.7c0.1,0,0.3,0,0.4,0.1c0.2,0,0.3,0.1,0.5,0.2c0.2,0.2,0.4,0.4,0.5,0.7l0.5,1.3
						c0.1,0.2,0.1,0.4,0.1,0.6L-194.5,65.1z"/>
					<path id="Path_1575" class="st1" d="M-196.2,73.5c-0.1,0-0.3,0.1-0.4,0.1l-1.9,1c-0.3,0.2-0.6,0.4-0.7,0.8l-1.2,2.5
						c-0.2,0.3-0.2,0.7-0.1,1v0.2l0,0c-0.7,0-1.2-0.4-1.5-1l-0.4-1c-0.1-0.2-0.1-0.3-0.1-0.5v-2.8c0-0.2,0-0.4,0.1-0.5l0.4-1
						c0.2-0.6,0.8-1,1.5-1h2.4c0.7,0,1.2,0.4,1.5,1l0.4,1C-196.3,73.3-196.3,73.4-196.2,73.5"/>
					<path id="Path_1576" class="st1" d="M-199.3,85.5c0,0.2,0,0.3-0.1,0.5l-0.9-0.4c-0.4-0.2-1-0.2-1.4,0l-1.6,0.8
						c0,0-0.1,0-0.1,0.1c0-0.1-0.1-0.1-0.1-0.2l-0.1-0.2c-0.1-0.2-0.1-0.4-0.1-0.6v-1.4c0-0.2,0-0.4,0.1-0.6l0.1-0.2
						c0.2-0.6,0.8-1,1.4-1h1.1c0.6,0,1.2,0.4,1.4,1l0.1,0.2c0.1,0.2,0.1,0.4,0.1,0.6L-199.3,85.5z"/>
					<path id="Path_1577" class="st1" d="M-196.9,53.8c0,0.2,0,0.4-0.1,0.5l-0.4,1c-0.2,0.6-0.8,1-1.5,1h-2.4c-0.7,0-1.2-0.4-1.5-1
						l-0.4-1c0-0.1-0.1-0.2-0.1-0.4l4.1-4.4c0.3-0.3,0.7-0.6,1.1-0.8l0,0c0.3,0.2,0.5,0.4,0.6,0.8l0.4,1c0.1,0.2,0.1,0.4,0.1,0.5
						L-196.9,53.8z"/>
					<path id="Path_1578" class="st1" d="M-166.6,62.5l-6.8-10.3c-0.1-0.1-0.1-0.2-0.2-0.3l-1.6-3c-0.6-1.1-0.6-2.3-0.1-3.4
						l4.7-10.1c0.4-0.8,0.5-1.8,0.2-2.7l-0.6-0.3l-0.6-0.3c-0.8,0.4-1.5,1-1.9,1.9l-4.7,10.1c-0.5,1.1-1.5,1.9-2.7,2.1l-3.4,0.7
						c-0.1,0-0.2,0-0.3,0l-8.8,1l-3.5,0.4c-0.4,0-0.8,0.2-1.2,0.4l0,0c-0.4,0.2-0.8,0.5-1.1,0.8l-4.1,4.4l-4.1,4.5l-4.8,5.2
						c-0.3,0.3-0.5,0.6-0.6,1l-1,2.1l-1.7,3.5l-3.7,7.8l-3.1,6.7c-0.3,0.5-0.4,1.1-0.4,1.7l0.4,12v0.2c0,0.6,0.2,1.2,0.5,1.7l6.5,12
						l1.9,3.9c0.4,0.8,1,1.4,1.8,1.8l0.8,0.4l0.9,0.4c0.7,0.3,1.6,0.4,2.4,0.3l3.9-0.8l13-3.4c0.5-0.1,1-0.4,1.4-0.7l9.7-7.6
						c0.5-0.4,0.8-0.8,1.1-1.4l9.4-20.1c0.2-0.3,0.3-0.7,0.3-1.1l2.5-19C-165.9,64.2-166.1,63.3-166.6,62.5 M-188,56.8l0.9-1.9
						c0.1-0.3,0.4-0.5,0.6-0.7l1.1-0.7c0.5-0.3,1-0.3,1.5-0.1l6,2.8c0.5,0.2,0.8,0.7,0.9,1.2l0.2,1.3c0.1,0.3,0,0.7-0.1,1l-0.9,1.9
						c-0.1,0.3-0.4,0.5-0.7,0.7l-1.1,0.7c-0.5,0.3-1,0.3-1.5,0.1l-6-2.8c-0.5-0.2-0.8-0.7-0.9-1.2l-0.2-1.3
						C-188.2,57.5-188.1,57.1-188,56.8 M-189.7,63l8.3,3.9c0.4,0.2,0.8,0.6,0.9,1.1l0.4,1.7c0.1,0.3,0,0.7-0.1,1l-1,2.1
						c-0.2,0.3-0.4,0.6-0.7,0.8l-1.6,0.8c-0.4,0.2-0.9,0.2-1.4,0l-5.6-2.6l-2.6-1.2c-0.4-0.2-0.8-0.6-0.9-1.1l-0.4-1.7
						c-0.1-0.3,0-0.7,0.1-1l1-2.1c0.2-0.3,0.4-0.6,0.7-0.8l1.6-0.8c0.1-0.1,0.3-0.1,0.4-0.1C-190.3,62.8-190,62.8-189.7,63
						 M-200.1,81l-0.4-1.9v-0.2c-0.1-0.3,0-0.7,0.1-1l1.2-2.5c0.2-0.3,0.4-0.6,0.7-0.8l1.9-1c0.1-0.1,0.3-0.1,0.4-0.1
						c0.3-0.1,0.7,0,1,0.1l4.7,2.2l4.6,2.1c0.4,0.2,0.8,0.6,0.9,1.1l0.5,2.1c0.1,0.4,0,0.7-0.1,1l-1.2,2.5c-0.2,0.3-0.4,0.6-0.7,0.8
						l-1.9,1c-0.4,0.2-0.9,0.2-1.4,0l-3.4-1.6l-6-2.8C-199.6,81.8-200,81.4-200.1,81 M-196.7,55.9c0-0.1,0.1-0.1,0.2-0.2l0.6-0.6
						c0.2-0.2,0.5-0.2,0.8-0.1l1.8,0.8c0.3,0.1,0.4,0.4,0.4,0.7v0.8c0,0.1,0,0.2-0.1,0.3l-0.7,1.4c0,0.1-0.1,0.1-0.2,0.2l-0.6,0.6
						c-0.2,0.2-0.5,0.2-0.8,0.1l-0.4-0.2c-0.1-0.1-0.3-0.2-0.5-0.2l-0.9-0.4c-0.3-0.1-0.4-0.4-0.4-0.7v-0.8c0-0.1,0-0.2,0.1-0.3
						L-196.7,55.9z M-205.4,66.4l0.1-1.1c0-0.2,0.1-0.4,0.1-0.5l1.2-2.5c0.1-0.2,0.2-0.3,0.3-0.5l0.8-0.8c0.3-0.3,0.7-0.4,1.1-0.5
						c0.3,0,0.5,0,0.7,0.1l2.3,1.1c0.6,0.3,1,0.9,0.9,1.6l-0.1,1.1c0,0.2-0.1,0.4-0.1,0.5l-1.2,2.5c-0.1,0.2-0.2,0.3-0.3,0.5l0,0
						l-0.8,0.8c-0.5,0.5-1.2,0.6-1.8,0.3l-2.3-1.1C-205.1,67.7-205.4,67.1-205.4,66.4 M-209.7,70.3l0.1-0.1c0.5-0.4,1.2-0.5,1.7-0.3
						l3.5,1.6c0.6,0.3,0.9,0.9,0.9,1.5l-0.1,1.4c0,0.2-0.1,0.4-0.2,0.6l-1.3,2.7c-0.1,0.2-0.2,0.4-0.4,0.5l-1,0.9
						c-0.5,0.4-1.2,0.5-1.7,0.3l-2.2-1l-1.3-0.6c-0.6-0.3-0.9-0.9-0.9-1.5l0.1-1.4c0-0.2,0.1-0.4,0.1-0.6l1.3-2.7
						c0.1-0.2,0.2-0.4,0.4-0.5L-209.7,70.3L-209.7,70.3z M-212.8,97.7l-0.1,0.1c-0.5,0.4-1.2,0.6-1.8,0.3l-1-0.5
						c-0.6-0.3-0.9-0.9-0.9-1.5v-0.2c0-0.2,0.1-0.4,0.1-0.6l0.6-1.3c0.1-0.2,0.2-0.4,0.4-0.5l0.1-0.1c0.5-0.4,1.2-0.6,1.8-0.3l1,0.5
						c0.6,0.3,1,0.9,0.9,1.5v0.2c0,0.2-0.1,0.4-0.1,0.6l-0.5,1.1l-0.1,0.2C-212.6,97.4-212.7,97.6-212.8,97.7 M-209.1,82.5
						c0.6,0.3,1,0.9,0.9,1.6l-0.1,1.1c0,0.2-0.1,0.4-0.1,0.5l-1.2,2.6c-0.1,0.2-0.2,0.3-0.3,0.4l0,0l-0.8,0.8
						c-0.5,0.5-1.2,0.6-1.8,0.3l-2.2-1l0,0c-0.6-0.3-1-0.9-0.9-1.6l0.1-1.1c0-0.2,0.1-0.4,0.1-0.5l1.2-2.6c0.1-0.2,0.2-0.3,0.3-0.4
						l0.6-0.6l0.2-0.2c0.5-0.5,1.2-0.6,1.8-0.3l1,0.5L-209.1,82.5z M-202.8,111.6l-0.4,0.8c-0.2,0.3-0.4,0.6-0.7,0.7l-0.4,0.2
						c-0.4,0.2-1,0.2-1.4,0l-4.1-1.9c-0.4-0.2-0.8-0.6-0.9-1.1l-0.1-0.4c-0.1-0.3,0-0.7,0.1-1l0.4-0.8c0.2-0.3,0.4-0.6,0.7-0.7
						l0.4-0.2c0.4-0.2,1-0.2,1.4,0l4.1,1.9c0.4,0.2,0.8,0.6,0.9,1.1l0.1,0.4C-202.6,110.9-202.6,111.2-202.8,111.6 M-196.8,103.3
						l-0.8,1.7c-0.2,0.3-0.4,0.6-0.7,0.8l-1.2,0.6c-0.4,0.2-0.9,0.2-1.4,0l-6.7-3.1c-0.4-0.2-0.8-0.6-0.9-1.1l-0.1-0.6l-0.2-0.7
						c-0.1-0.3,0-0.7,0.1-1l0.8-1.7c0.2-0.3,0.4-0.6,0.7-0.7l1.2-0.6c0.4-0.2,1-0.2,1.4,0l1.1,0.5l5.6,2.6c0.4,0.2,0.8,0.6,0.9,1.1
						l0.3,1.3C-196.6,102.6-196.6,103-196.8,103.3 M-195.5,97l-4.9-2.3l-3.4-1.6c-0.4-0.2-0.8-0.6-0.9-1.1l-0.4-1.7
						c-0.1-0.3,0-0.7,0.1-1l1-2.1c0.1-0.3,0.3-0.5,0.6-0.7c0,0,0.1,0,0.1-0.1l1.6-0.8c0.4-0.2,0.9-0.2,1.4,0l0.9,0.4l4.5,2.1
						l2.9,1.4c0.4,0.2,0.8,0.6,0.9,1.1l0.4,1.7c0.1,0.3,0,0.7-0.1,1l-1,2.1c-0.2,0.3-0.4,0.6-0.7,0.8l-1.6,0.8
						C-194.5,97.2-195,97.2-195.5,97 M-188.7,106.1c0,0.2-0.1,0.4-0.1,0.6l-0.6,1.3c-0.1,0.2-0.2,0.4-0.4,0.5l-0.1,0.1
						c-0.5,0.4-1.2,0.6-1.8,0.3l-1-0.5c-0.6-0.3-1-0.9-0.9-1.5v-0.2c0-0.2,0.1-0.4,0.1-0.6l0.6-1.3c0.1-0.2,0.2-0.4,0.4-0.5l0.1-0.1
						c0.5-0.4,1.2-0.6,1.8-0.3l1,0.5c0.6,0.3,1,0.9,0.9,1.5V106.1z M-181.2,96.7l-0.1,1.1c0,0.2-0.1,0.4-0.1,0.5l-1.2,2.6
						c-0.1,0.2-0.2,0.3-0.3,0.5l-0.8,0.8c-0.5,0.5-1.2,0.6-1.8,0.3l-2.3-1.1c-0.6-0.3-1-0.9-0.9-1.6l0.1-1.1c0-0.2,0.1-0.4,0.1-0.5
						l1.2-2.6c0.1-0.2,0.2-0.3,0.3-0.4l0.8-0.8c0.5-0.5,1.2-0.6,1.8-0.3l2.3,1.1C-181.5,95.4-181.1,96-181.2,96.7 M-174.6,87.9
						c0,0.2-0.1,0.4-0.2,0.6l-1.3,2.7c-0.1,0.2-0.2,0.4-0.4,0.5l-1,0.9c-0.5,0.4-1.2,0.5-1.7,0.3l-3.5-1.6c-0.6-0.3-0.9-0.9-0.9-1.5
						l0.1-1.4c0-0.2,0.1-0.4,0.1-0.6l1.3-2.7c0.1-0.2,0.2-0.4,0.4-0.5l1-0.9c0.5-0.4,1.2-0.5,1.7-0.3l3.5,1.6
						c0.6,0.3,0.9,0.9,0.9,1.5L-174.6,87.9z M-171.8,75.4l-0.1,1.1c0,0.2-0.1,0.4-0.1,0.5l-1.2,2.5c-0.1,0.2-0.2,0.3-0.3,0.5
						l-0.8,0.8c-0.5,0.5-1.2,0.6-1.8,0.3l-2.3-1.1c-0.6-0.3-1-0.9-0.9-1.6l0.1-1.1c0-0.2,0.1-0.4,0.1-0.5l1.2-2.5
						c0.1-0.2,0.2-0.3,0.3-0.5l0.8-0.8c0.5-0.5,1.2-0.6,1.8-0.3l2.3,1.1C-172.2,74.1-171.8,74.8-171.8,75.4 M-171.8,67.2
						c0,0.1,0,0.2-0.1,0.3l-0.7,1.4c0,0.1-0.1,0.1-0.2,0.2l-0.6,0.6c-0.2,0.2-0.5,0.2-0.8,0.1L-176,69c-0.3-0.1-0.4-0.4-0.4-0.7
						v-0.8c0-0.1,0-0.2,0.1-0.3l0.7-1.4c0-0.1,0.1-0.1,0.2-0.2l0.6-0.6c0.2-0.2,0.5-0.2,0.8-0.1l1.8,0.8c0.3,0.1,0.4,0.4,0.4,0.7
						V67.2z"/>
					<path id="Path_1579" class="st1" d="M-195.7,59.7l-0.5-0.2C-196,59.5-195.9,59.6-195.7,59.7"/>
				</g>
			</g>
		</g>
	</g>
	<g id="Group_1005" transform="translate(751.231 4393.398)">
		<g>
			<g>
				<defs>
					<rect id="SVGID_00000088131213923079700350000017198997556079163277_" x="17.1" y="22.3" width="248.4" height="186.6"/>
				</defs>
				<clipPath id="SVGID_00000016064197498701222410000004716067595786141118_">
					<use xlink:href="#SVGID_00000088131213923079700350000017198997556079163277_"  style="overflow:visible;"/>
				</clipPath>
				<g id="Group_1019" style="clip-path:url(#SVGID_00000016064197498701222410000004716067595786141118_);">
					<path id="Path_1580" class="st6" d="M139,135.2c4-2,26.6-8.1,15.8-7.2c-2.8-0.1-12.9,4.2-12.3,0.8c6.1-2.7,18.5-5.9,3.8-5
						c-1.7-2,4.4-1.3,5.3-2.5c-2-0.2-4.2,1.5-6,1c17.5-2.6,38.7-16.4,6.7-23.1c-13.6-4.6-16.3-26.9-6.4-36.8
						c-1.9,1.2-3.7,2.6-5.3,4.2c8.2-10.4,17-11.2,35.2-15.5c4.1,0.2,8.4-2.4,12.3-2.2c-1.6,2.3-5.5,2.6-7.3,5.1
						c4.3,1.5,35.7-6.7,17.2,2.6c8.6,0.9-17.6,6.1-21.3,8c3.8,2.7,12.7-2.5,18.2-2.6c-5.8,2.5-46.4,11.2-8.6,3.7
						c-9.1,3.2-20.2,3.2-28.7,7.9c-11.5,20.2,31.7,7.9,25.8,37.6C175.5,144,150.8,126,139,139c-1.8-0.9-2.8-12.1-3.5-3.5
						c-1.3,2.6-1.7-5.4-2.2-6.8c-0.7-2.5-0.9,3-0.9,4.1c0.3,0.8-0.7,2.1-0.8,0.6c-0.8-12.2-7.5-9.1-17.5-6.3
						c-3.4,1.5-4.3,7.8-8.4,7.2c-0.5,0.6-2.1,2.4-2.3,0.8c3.7-11.6-4.6,6.9-3.8-0.9c-2.5,0.8-4.8,8.1-6.9,6.8
						c15.2-27.6,29.4-68.7,46.8-89.2c0.4,17.4-1,35.4-0.2,52.9c2.9,1.4,10-3.5,12.3-1.7c8.6,0.8-8.9,4.2-12,6.1
						c3.5-0.3,7.3-0.9,10.9-1.5c5.2,0.5-4.8,2.3-6.2,3.3c7.9-1.2,4.9,2.1,9.1,2.3c5.6,2.6-11.1,4.1-13.5,6c3-0.4,13.9-3.1,12.8-2
						C139,117.8,137.6,122.9,139,135.2 M113.4,99.3c4.6-7.3,8.3-15.7,12.1-23.5C121.6,82.5,115.5,94.9,113.4,99.3 M126.2,100.3
						c-1.3,2.5-5.3,8.1-4.6,10C128.8,110.5,127.3,105.4,126.2,100.3 M164.6,54.3c-2.8,0.5-5.6,1.3-8.3,2.4
						C159.1,56,161.9,55.2,164.6,54.3 M154.5,78.4c0.4-1.5,0.9-2.9,1.5-4.3C155,74.7,154.2,77,154.5,78.4 M141.8,105.4
						c0.8,0.4,3.4-0.1,4.1-0.8C144.7,104.3,143.1,105.2,141.8,105.4 M141.9,70.2c0.6-1.4,1.3-2.8,2-4.1
						C143.1,66.6,142.2,68.4,141.9,70.2 M104.4,118c-0.6,0.9-1.1,1.8-1.4,2.8C103.6,119.9,104.1,119,104.4,118 M138.6,102.2
						c-0.2,1-0.2,2,0,2.9C138.8,104.2,138.8,103.2,138.6,102.2 M148.5,96.4c-0.8-0.6-1.6-1.1-2.4-1.7
						C146.7,95.5,147.5,96.1,148.5,96.4 M160,71.5c0.5-0.2,0.8-0.1,1-0.5C160.8,70.6,160.2,71,160,71.5 M114.3,126.2
						c-0.1,0-0.7,0-0.5,0.2C114,126.5,114.1,126.3,114.3,126.2 M127.3,98.4c0-0.3-0.3,0.1,0,0.2C127.2,98.6,127.3,98.5,127.3,98.4"
						/>
					<path id="Path_1581" class="st6" d="M17.4,148c13-28.5,26-58.5,37.9-87.4c-1.6,1.6-2.1,4.9-3.3,7.1
						c-7.7,16.7-18.1,43.1-24.2,55c0.8-10.4,36.8-68.5,19.9-61.6c-0.3,0.1-0.5,0.3-0.9,0.2c2.7-1.8-1.5-1.3-3.1-1.7
						c-2.6-3.2-3.3-0.5-4.4-2.9c-6.6-4.9-2.2-1.9,1.8-5.6c0.6-1.2-6.5,1.6-3.5-0.1c3.8-0.7,6.5-1.7,9.1-3.9
						c42.9-21.4,67.7,20.4,27.8,46.7c14.4,16.4-6.2,47.1-21.8,50c11-7.8,5.1-5.6-4.3-2.9c15.3-3-18.4,6.5-23.5,4
						c6.4-16.9-1.8-0.8-5.8,3.6c-1.6-1.4,1.1-3.9,1.1-5.7C18.9,144.2,18.7,146.6,17.4,148 M57.1,100.4c-8.3,1.4-7.5,16.9-12.6,23.6
						C56,128,76.4,106,57.1,100.4 M78.5,66.1C76,46.6,62.5,77.6,64,81.7C71.8,81.3,78.2,73.6,78.5,66.1 M45.2,120.6
						c1-1.6,5.7-13.1,5.7-14.2C48.6,111,46.2,115.7,45.2,120.6 M57.8,44.3c-2.7,0.2-5.4,0.8-7.9,1.8L57.8,44.3 M26.3,143.3
						c-1.4,2,0.8,0.8,1.9,1C31.8,144.2,27,144.3,26.3,143.3 M65.2,111.1c-0.3,0.6-0.4,1.2-0.5,1.8C65.1,112.4,65.3,111.7,65.2,111.1
						 M75.1,59.1c-0.2-0.1-0.6-0.3-0.6,0C74.7,59.2,74.9,59.2,75.1,59.1 M78.7,62.3c0,0.2,0.1,0.5,0.3,0.6
						C79,62.7,79,62.5,78.7,62.3"/>
					<path id="Path_1582" class="st6" d="M90.2,200.5c0-3.2,1.9-2.1-1.4-3.8c-0.7-0.9-2.9,2.3-3.3,0.1c0.2-2.7,0.2-3.9-1.7-1.3
						c0.7-5.5,4.1-11.1,5.8-16.7c-2.7,3.7-3.8,9.1-6.3,12.5c-0.3-2.9,2.5-6.6,3.5-9.6c6.2-13.2-7.9,8.3-12.3,9.2
						c-2.4-0.5-5-3.9-2.2-5.8c3.2-2.6,0.5-7.2,0.8-10.8c-4.1,6.1-5.8,14.3-11.2,19.5c1.3-3.9-0.2-2.8-2-0.3
						c-1.7-1.7-2.6,2.8-4.8,4.8c0.1-2.6,2-5.4,1.9-8.3c-1,1.3-3.1,5.3-1.8,1.3c1.2-11.5,11.8-33.7-0.3-9.1
						c3.1-8.9,8.4-17.7,12.5-26.4c6-9.9,6.7-21.3,10-28.3c2.4,3,1.5-5.2,6.3,2.1c5,1.2,2.3,17,4,23.8c-2.1,13.1,14.9-14.5,19.9-17.7
						c2.2-1.9,2.5-0.2,1.6,1.7c1.9-1.2,3-0.8,1.9,1.6c1.5,0.8,4-5.6,6.5-2.8C114.9,157.2,93.6,196.3,90.2,200.5 M85.7,147.8
						c0.1-2-1.1-14.9-1.5-15.7C83.7,133.6,84.7,144.5,85.7,147.8 M73.9,172.7c-0.5,2.8-0.3,5.7,0.7,8.3
						C75.9,180.1,74.8,174.5,73.9,172.7 M60.7,173.5c0.9-1.1,5-10.9,5-12.1C63.8,165.3,62.2,169.4,60.7,173.5"/>
					<path id="Path_1583" class="st6" d="M174.1,73.4c-6.3-6.7,62-15.2,73.6-19c-2.7,2.1-24.9,4.6-26.4,6.4c4.8,0,16.1-4.1,17.8-1.2
						c-9.8,3.3,3.1,0.7,7.4,1c-0.8,3.9-14.9,5.1-20.2,7.3c-1.3,0.9,3.4,0,1.6,2.1c2.7,0.5,12-0.5,10.4,0.1
						c-19.1,3.9-27.1,5.5-31.9,26.4c-12.3,31.1,0.5-3.5,5.7-16.9c-7,12.4-13.6,41-20.2,45.9c0.9-4.4-4.5,6.8-6,8.5
						c-0.7-2.5,3.8-10.8,2.3-11.2c-0.4,1.2-4,5.1-3.9,3c4.2-12.3-3,4.3-5.8,8c1.7-16,15.5-37.3,15.6-50.6c-7.5,1.5-13.8,1.9-2.2-1.3
						c-5.2,0.1-19.5,4.2-20.1,3.1c5.2-4.5-3.1-2.7-5.9-4.6c0.5-1.9,6.7-1.8,4.5-3.5c0-0.9,1.9-0.1,1.3-1.2
						C171.2,74.4,173.7,74.4,174.1,73.4 M184.2,115.7c-0.6,1.1-1.4,2-1.1,3.3C183.6,117.9,184,116.8,184.2,115.7 M199.4,65.2
						c-0.5,0-1.1,0.1-1.6,0.3C198.4,65.6,198.9,65.5,199.4,65.2"/>
					<path id="Path_1584" class="st6" d="M93.3,81.5c1.7-0.3,5.6-1.7,1.9-2.3c-2.2-1.5,4.7-3.8-1.3-3.6c-3.4-1.8,4.9-2.1,2.4-4.2
						c0-5.9,24.8-6.5,32.9-8.5c0.2,1.1-4.5,0.6-3.2,1.5c2.6,0.9-1.8,2.4-0.3,3.1c0.7,2.4-1.3,4.3-3.6,5.2c2.7,1.7-2.2,1.6-1.2,2.7
						c-3,2-6.3,2.7-10.5,3.2c-3,3.3-4.7,8.8,1.6,7.9c-6.9,3,3.6,1.7,1.8,7.7c-2.4,3.7-7.5,2.6-11.3,4c3,0.5,6.2-1.4,9-0.9
						c-6.2,1.1-14.1,4.3-12.7,11.4c1.9-0.3,4.4-1.3,6.2-0.7c-0.3,0.8-5.2,1.9-2.4,2.3c1.9,0.5,4.3,2.2,0.7,1.6
						c-2.9,1.9-3.1,2.3,0.1,2.9c-0.1,2-8.6,2.2-6.4,3.2c3.7-1.3,9.1-0.8,2.5,1.4c4.3,0.8-18.8,5.7-22,5.1c0.7-6.9,9.7-16.8,9.5-23.8
						c-1.4-2-9.2-2.1-2.2-4.8c1.2-0.8,3.2-1.4,3.7-2.8c-0.5-1-4.2,0.5-2.8-1.6C90.2,90.7,100.7,81.2,93.3,81.5 M97.2,80.9
						c-0.5,1.3-3.5,6.6-2.2,5.8C95.8,85.6,97.3,81.6,97.2,80.9"/>
					<path id="Path_1585" class="st6" d="M132.8,193.7c-2.8,3.1-4,3.3-1.8-1.1c7.9-28.5,17.8-36,12-48.7c-1.5-0.8,2.1-1.6,0.6-1.5
						c-4.3-0.3,6.3-3.3,8.3-3.4c25.6-4.1,18.6,25.2,8.6,37.8C154.5,185.5,140.3,190.7,132.8,193.7 M149.2,171.6
						c6-1.7,16-16.7,7.8-19.6C153.2,157.2,151.9,165.4,149.2,171.6 M136.1,179.3c-1,2.3-1.9,4.7-2.6,7.2
						C134.7,184.2,135.6,181.8,136.1,179.3 M155.8,181.1c-1.1,0.6-2.1,1.3-3,2.3C154,182.9,155,182.1,155.8,181.1 M153.9,139.8
						c0.5,0.2,1,0.2,1.5,0C154.9,139.6,154.4,139.6,153.9,139.8"/>
					<path id="Path_1586" class="st6" d="M140,153.6c-0.1,16.2-11.2,49.4-30,36.7C94.5,171.9,130.9,115.2,140,153.6 M127.2,155.1
						c-11.2,2.4-12,31.8-1.9,20.4C142.9,142.5,114.8,165.5,127.2,155.1 M123.7,156c1.4-1.6,3.4-2.4,5.4-3.2
						C126.7,151.1,124.9,154.4,123.7,156"/>
					<path id="Path_1587" class="st6" d="M187.8,158.8c8.2,2.3-7.1,7.6-2.8,9c-4,0.2-12.6,3.6-9.2,7.3c3.1-0.7,18.9-2.3,10.7-0.7
						c4.2,0.3,3,0.9-0.3,2.2c11.8,4.1,0.9,3.5,4,5.6c6.7,3.5-38.1,8.2-39.8,8c1.5-0.6,5.5-0.3,2.4-1.2c-0.3-1.2,1.7-1.4,2.2-2.2
						c-0.3-0.6-1.4-1.2-0.4-1.7c2.4-1.6,5.7-0.9,5.7-4.4c0.4-1.5,3.5-0.7,3.9-2.6c2.2-10.4,9.7-22.7,8.9-31.6
						c-0.3-2.6-1.1-4,2.6-4.5c-4.9,0.4-6.3-1.4-0.9-2.6c-0.9,0.2-4-0.5-1.6-0.8c6.5,0.1,39.8-7.3,26.2,2c-1.2,1-2.8,1.1-0.4,1.9
						c4.2,3.1-12.2,4.7-1.8,4.3c-0.2,3.2-23.6,5.2-2.7,3.1c4,0-7.2,1.7-9.4,1.9c-3.3,2.8-1.7,5,2.5,4
						C189.5,155.9,187.5,157.6,187.8,158.8 M169.9,162.6c-0.5,0.8-0.8,1.8-1.1,2.7C169.3,164.5,169.7,163.6,169.9,162.6 M171.7,158
						c0.2-0.2,0.3-0.3,0.2-0.6C171.8,157.6,171.6,157.8,171.7,158"/>
					<path id="Path_1588" class="st6" d="M74.6,128.8c-1.2,2.8-5.3,9.9-8.1,8.1C67.2,135.6,74.7,127,74.6,128.8"/>
					<path id="Path_1589" class="st6" d="M127.8,138.3c1.9,1.3-4.5,2-5.2,3.7C121.8,140.6,126.1,138.6,127.8,138.3"/>
					<path id="Path_1590" class="st6" d="M95.3,143.9c0.7-1.6,0.8-4.6,2.6-5C98.6,140.3,96.3,142.8,95.3,143.9"/>
					<path id="Path_1591" class="st6" d="M65.3,138.8c1.3,0.3-1.6,2.3-2.1,2.6C61.9,140.1,63.9,138.5,65.3,138.8"/>
					<path id="Path_1592" class="st6" d="M155.1,108.6c2.5,0.3-1.2,2.2-2.3,1.5C151.3,109.4,154.4,108.7,155.1,108.6"/>
					<path id="Path_1593" class="st6" d="M183.4,128.8c0.2,1.6-0.6,3.2-2,4C181.1,131.6,182.4,129.5,183.4,128.8"/>
					<path id="Path_1594" class="st6" d="M151.5,135.6c3.3-1.2,2,0.9-0.5,1C148.6,137.3,149.7,135.1,151.5,135.6"/>
					<path id="Path_1595" class="st6" d="M163.9,85.6c1.1,0.3,3.1,0.2,3.3,1.5C166.5,87.2,161.8,86.5,163.9,85.6"/>
					<path id="Path_1596" class="st6" d="M129.6,186.9c-0.3,1.5-2.4,4.9-3.5,4.9C126.7,189.9,128.6,188.7,129.6,186.9"/>
					<path id="Path_1597" class="st6" d="M129.6,133.2c-0.6-0.7-1.2-3-0.3-3.6C130.1,130.1,130.4,132.4,129.6,133.2"/>
					<path id="Path_1598" class="st6" d="M151,188.2c-0.2,0.6-2.8,1.6-2.7,0.5C148.6,188.1,150.6,187.2,151,188.2"/>
					<path id="Path_1599" class="st6" d="M170.7,144.7c-1.8-0.1-0.2-1.5,0.8-1.5C172.6,143.2,171.5,145,170.7,144.7"/>
					<path id="Path_1600" class="st6" d="M85.3,100.4c2.1,0.1-0.4,1.5-1.4,1.1C82.7,100.9,84.7,100.3,85.3,100.4"/>
					<path id="Path_1601" class="st6" d="M106.6,109c-0.1,0.8-1.8,1.3-2.2,0.7C104.1,109,106.5,108,106.6,109"/>
					<path id="Path_1602" class="st6" d="M199.8,146.3c-1.8,0-0.3-1.1,0.7-1.2C202.1,145.1,201,146.6,199.8,146.3"/>
					<path id="Path_1603" class="st6" d="M123.2,75.2c-2,0,0.4-1.7,1.2-1.2C124.8,74.7,124.1,75.4,123.2,75.2"/>
					<path id="Path_1604" class="st6" d="M181.2,84.5c-0.4,0.9-1.9,1.6-2.7,0.9C178.8,84.5,180.4,84.6,181.2,84.5"/>
					<path id="Path_1605" class="st6" d="M123.7,194c-0.4,0.8-1.2,1.2-2.1,1.1C121.1,194.2,123.4,193.1,123.7,194"/>
					<path id="Path_1606" class="st6" d="M147.7,137c0.1,0.9-1.6,1.2-1.6,0.2C146,136.2,147.6,135.9,147.7,137"/>
					<path id="Path_1607" class="st6" d="M152.3,112.6c-2.1-0.6,2.6-2,1.1-0.3C153.1,112.4,152.7,112.5,152.3,112.6"/>
					<path id="Path_1608" class="st6" d="M141.3,143.6c1.1,0.4-0.9,1.4-1.4,1C139.1,144,140.8,143.7,141.3,143.6"/>
					<path id="Path_1609" class="st6" d="M167.4,141.4c-0.8-0.1-0.6-1.2,0.3-1.1C168.7,140.3,168.2,141.5,167.4,141.4"/>
					<path id="Path_1610" class="st6" d="M120.8,77c-1.3-0.3,0.6-1.6,0.9-0.7C121.8,76.7,121.1,76.9,120.8,77"/>
					<path id="Path_1611" class="st6" d="M183.3,133.8c0.2,0.5,0.2,1.9-0.6,1.8C182.2,135.4,182.8,133.7,183.3,133.8"/>
					<path id="Path_1612" class="st6" d="M157.3,182.5c1.1,0,0.3,0.9-0.4,0.9C155.9,183.3,156.5,182.2,157.3,182.5"/>
					<path id="Path_1613" class="st6" d="M190.1,128.3c-0.2-0.2-0.1-0.6,0.1-0.8c0,0,0,0,0.1,0C190.7,127.4,190.5,128.2,190.1,128.3
						"/>
					<path id="Path_1614" class="st6" d="M124.6,141.7c-0.1,0.2-0.3,0.4-0.5,0.3C123.6,141.8,124.6,141.1,124.6,141.7"/>
					<path id="Path_1615" class="st6" d="M17.4,148c0.1,0.3,0,0.6-0.2,0.8C17,148.4,17.4,148.2,17.4,148"/>
					<path id="Path_1616" class="st6" d="M122.9,176.2c-0.1,0.6-1.1,1.6-1.6,0.9C120.7,176.5,123,175,122.9,176.2"/>
					<path id="Path_1617" class="st1" d="M163.5,117.7c0-14.9,10.7-26,25.8-26s25.8,11.1,25.8,26s-10.7,26-25.8,26
						S163.5,132.6,163.5,117.7 M201.5,117.7c0-7.7-5-13.5-12.3-13.5c-7.4,0-12.3,5.7-12.3,13.5c0,7.7,4.9,13.5,12.3,13.5
						C196.5,131.2,201.5,125.4,201.5,117.7"/>
					<path id="Path_1618" class="st1" d="M222,132.5h1.7c1,0.1,1.8-0.6,1.9-1.6c0-0.1,0-0.2,0-0.4v-25.9c0.1-1-0.6-1.8-1.6-1.9
						c-0.1,0-0.2,0-0.4,0H222V92.6h23.6c11.3,0,19,5.6,19,15.7c0,6.7-3.7,11.3-9.5,13.5l4.1,8.4c0.7,1.5,2.2,2.4,3.9,2.2h2.4v10.1
						h-13.9l-8.7-18.9h-4.5v6.9c-0.1,1,0.6,1.8,1.5,1.9c0.1,0,0.2,0,0.3,0h2.9v10.1H222V132.5z M244.9,113.8c3.8,0,6.5-1.9,6.5-5.6
						c0-3.6-2.7-5.4-6.5-5.4h-6.5v11H244.9z"/>
					<path id="Path_1619" class="st1" d="M165.1,182.8c0-15.1,10.3-26,24.2-26c6.2,0,11.5,2.3,14.5,6.5l0.2-5.6h11v17.9h-11.4
						c-0.7-3.2-4.9-6.8-11.4-6.8c-8.2,0-13.5,5.8-13.5,14.1c0,9,5.4,14.5,14.1,14.5c5.9,0,10.9-2.9,10.9-6.7v-0.1
						c0.1-0.9-0.6-1.8-1.5-1.9c-0.1,0-0.2,0-0.3,0h-12.1V179H215v28.8h-11l-0.1-5.1c-2.7,3.7-7.5,6.1-14.4,6.1
						C176.2,208.9,165.1,199.1,165.1,182.8"/>
					<path id="Path_1620" class="st1" d="M222,197.6h1.7c1,0.1,1.8-0.6,1.9-1.6c0-0.1,0-0.2,0-0.4v-25.9c0.1-1-0.6-1.8-1.6-1.9
						c-0.1,0-0.2,0-0.4,0H222v-10.1h38v15.1h-10.3v-3c0.1-1-0.6-1.8-1.6-1.9c-0.1,0-0.2,0-0.3,0h-9.4v9.7h11.3v8.9h-11.3v11.1h9.7
						c0.9,0.1,1.8-0.6,1.9-1.5c0-0.1,0-0.3,0-0.4v-3.9h10.4v16H222V197.6z"/>
					<path id="Path_1621" class="st1" d="M214.9,53.1l-0.4-9.4c0-0.2-0.1-0.4-0.2-0.6l-10.7-20c-0.2-0.4-0.6-0.7-1.1-0.7l-9.2-0.2
						c-0.2,0-0.4,0-0.6,0.1l-27.3,13.5L165,36h-0.4c-0.7,0-1.3,0.6-1.3,1.3c0,0.5,0.3,0.9,0.7,1.1l2.9,1.4c0.3,0.2,0.7,0.2,1,0
						l17.8-6.6l3.3-1.3l0,0l-0.7,3.5l-1.2,6.4c0,0.2,0,0.5,0.1,0.7l5.3,13.6l0.8-0.4l0.2-10.7c0-0.7,0.6-1.3,1.3-1.3l0,0h0.7
						l2.7,0.1l7,0.4l1,0.1l0.4,0.6l0.2,0.2l6.4,9.5l0.7,0.9l0.9,1.1L214.9,53.1z"/>
					<path id="Path_1622" class="st1" d="M205.4,48.5H205l-4.6-0.2l-2-0.1h-0.2c-1,0-1.9,0.7-1.9,1.8l0,0l-0.2,7.8
						c0,0.7-0.4,1.3-1,1.6l-1.8,0.9l-1.7,0.8l-0.7-1.7l-6.3-16.1c-0.1-0.3-0.2-0.7-0.1-1l0.4-2.2c0.2-1-0.5-2-1.5-2.2
						c-0.3-0.1-0.7,0-1,0.1l-12,4.7c-0.7,0.3-1.2,1-1.2,1.7v11.7c0,0.4,0.1,0.7,0.3,1l0.3,0.4l5.3-3.1l2,0.3l0.9,1.6l-0.7,1.9
						l-5.5,3.2l-1.2,11.7l3.2-0.9l5.3,0.7l0.6,1l3.2,5.6c0.5,0.9,1.6,1.2,2.5,0.7c0,0,0.1,0,0.1-0.1l25.6-16.8l0.6-0.4l0.1-0.1
						l0.6-2.5c0.1-0.5,0-1-0.3-1.5L205.4,48.5z"/>
					<path id="Path_1623" class="st1" d="M222,64.2h1.7c1,0.1,1.8-0.6,1.9-1.6c0-0.1,0-0.3,0-0.4V36.4c0.1-1-0.6-1.8-1.6-1.9
						c-0.1,0-0.2,0-0.4,0H222V24.3h37.4v15.5H248v-3.4c0.1-1-0.6-1.8-1.6-1.9c-0.1,0-0.2,0-0.3,0h-7.7v10h10.7v8.9h-10.7v8.9
						c-0.1,1,0.6,1.8,1.5,1.9c0.1,0,0.2,0,0.3,0h3.5v10.1H222V64.2z"/>
				</g>
			</g>
		</g>
	</g>
	<g id="Group_1006" transform="translate(206.52 4691.974)">
		<path id="Path_1491" class="st1" d="M0-248v8.8h10.3v36h10.9v-36h10.3v-8.8H0z"/>
		<g id="Group_1003-2">
			<g>
				<g>
					<defs>
						<rect id="SVGID_00000016796257957883748470000016240495913108474017_" y="-278" width="536.5" height="115.5"/>
					</defs>
					<clipPath id="SVGID_00000050634139575173812980000018149318572278719926_">
						<use xlink:href="#SVGID_00000016796257957883748470000016240495913108474017_"  style="overflow:visible;"/>
					</clipPath>
					<g id="Group_1002-2" style="clip-path:url(#SVGID_00000050634139575173812980000018149318572278719926_);">
						<path id="Path_1492" class="st1" d="M46-203.2H35.2V-248h14.5c5.9,0,10.2,1.1,13.2,3.4c3.1,2.4,4.8,6.4,4.8,11.3
							c0,6.8-2.9,11.3-8.7,13.6l9.9,16.4h-13L46-220.5V-203.2z M49.5-226.6c4.5,0,7.1-2.3,7.1-6.2c0-3.8-2.6-6.2-6.4-6.2H46v12.4
							H49.5z"/>
						<path id="Path_1493" class="st1" d="M84.9-209.6l-2,6.4H71.4L86.1-248H100l14.7,44.8h-11.9l-2-6.4L84.9-209.6z M92.8-235.2
							l-5.2,16.7h10.5L92.8-235.2z"/>
						<rect id="Rectangle_1217" x="118.2" y="-248" class="st1" width="10.9" height="44.8"/>
						<path id="Path_1494" class="st1" d="M147.8-203.2h-10.9V-248h10.9l16.3,25.2V-248H175v44.8h-10.9l-16.3-25.5V-203.2z"/>
						<path id="Path_1495" class="st1" d="M78.2-263.2c0.9-0.1,1.7-0.5,2.3-1.3c0.2-0.2,0.4-0.4,0.5-0.4s0.3,0.1,0.3,0.2l0,0
							c0,0.2-0.1,0.4-0.2,0.6c-0.5,1.1-1.7,3.4-4.4,3.4c-2.2,0.1-4-1.6-4.1-3.7c0-0.1,0-0.1,0-0.2c0-2,1.3-3.8,3.1-4.5
							c-0.7-0.6-1.1-1.5-1.1-2.4c0-1.9,2-3.5,4.2-3.5c1.9,0,2.9,0.8,2.9,2.2c0,1.1-0.6,1.8-1.5,1.8c-0.5,0-1-0.4-1-0.9l0,0
							c0-0.8,0.9-0.8,0.9-1.5c0-0.3-0.3-0.5-0.7-0.5c-1.1,0-1.9,1.2-1.9,2.7c-0.1,0.5,0.1,0.9,0.4,1.2c0.4-0.1,0.8-0.2,1.1-0.2
							c0.7,0,1.1,0.4,1.1,0.9c0,0.7-0.6,1.2-1.3,1.2h-0.1c-0.6,0-1.2-0.2-1.7-0.4c-0.7,0.7-1.2,1.8-1.2,2.8
							c-0.1,1.2,0.9,2.3,2.1,2.3C78-263.2,78.1-263.2,78.2-263.2"/>
						<path id="Path_1496" class="st1" d="M83.5-262.9c0,0.5,0.2,0.9,0.6,0.9c0.3,0,0.5-0.2,0.5-0.6c0-1.2-2.1-1.4-2.1-3
							c0-1.3,1.3-2,2.9-2c1.5,0,2.2,0.6,2.2,1.5c0.1,0.5-0.3,1-0.8,1.1h-0.1c-0.4,0-0.7-0.3-0.8-0.7c0-0.3,0.2-0.4,0.2-0.6
							s-0.2-0.3-0.4-0.3c-0.4,0-0.6,0.3-0.6,0.7c0,1.2,2.3,1.4,2.3,3c0,1.4-1.1,2.3-3,2.3c-1.6,0-2.7-0.7-2.7-1.8
							c0-0.6,0.4-1,0.9-1.1l0,0C83.1-263.7,83.4-263.4,83.5-262.9"/>
						<path id="Path_1497" class="st1" d="M91.3-265.8c-0.2,0.8-0.4,1.6-0.4,2.4c0,0.6,0.3,0.9,0.8,0.9c0.4,0,0.8-0.4,1.2-0.7
							c0.1-0.1,0.3-0.2,0.4-0.2s0.3,0.1,0.3,0.3l0,0c0,0.2-0.1,0.3-0.2,0.4c-0.8,1-2,1.7-3.3,1.9c-1.1,0.1-2-0.6-2.2-1.7
							c0-0.1,0-0.2,0-0.4c0-1.4,0.7-2.4,0.7-3.5c0-0.3-0.6-0.1-0.6-0.5c0-0.2,0.1-0.6,0.4-0.6c1.1,0,2.2-1.1,2.7-2
							c0.2-0.3,0.4-0.5,0.6-0.5s0.3,0.1,0.3,0.3l0,0c0,0.5-0.3,1.3-0.3,1.7c0,0.3,0.1,0.4,0.7,0.4c0.2,0,0.3,0.1,0.3,0.2
							c0,0.4-0.2,0.7-0.5,0.7C91.8-266.5,91.4-266.3,91.3-265.8L91.3-265.8"/>
						<path id="Path_1498" class="st1" d="M101.8-263c0.1-0.1,0.2-0.2,0.4-0.2c0.2,0,0.3,0.1,0.3,0.3c0,0.3-0.2,0.5-0.3,0.7
							c-0.6,0.9-1.6,1.4-2.7,1.4c-0.7,0-1.4-0.4-1.6-1.1c-0.7,0.6-1.6,1-2.6,1.1c-1.2,0.1-2.2-0.8-2.3-2c0-0.2,0-0.3,0-0.5
							c-0.1-2.2,1.6-4.1,3.8-4.2c0.1,0,0.2,0,0.2,0c0.5,0,1.1,0.1,1.5,0.4c0.3-1.2,0.6-2.3,0.6-3.5c0-0.7-0.4-1-0.8-1
							c-0.2,0-0.3-0.1-0.3-0.3c0-0.4,1.1-1.1,2.3-1.1c0.9-0.1,1.7,0.5,1.8,1.4c0,0.1,0,0.2,0,0.3c0,1.9-1.8,5.5-1.8,8.1
							c-0.1,0.4,0.2,0.8,0.7,0.9c0,0,0,0,0.1,0C101.4-262.6,101.6-262.7,101.8-263 M97.4-266.6c-1.2,0-1.7,2.4-1.7,3.5
							c0,0.5,0.2,0.9,0.7,0.9c0.4,0,0.8-0.4,1.1-1c0.3-0.9,0.5-1.8,0.6-2.8C98-266.4,97.8-266.6,97.4-266.6"/>
						<rect id="Rectangle_1218" x="338.1" y="-248" class="st1" width="10.9" height="44.8"/>
						<path id="Path_1499" class="st1" d="M365.1-203.2h-10.9V-248h10.9l16.3,25.2V-248h10.9v44.8h-10.9l-16.3-25.5V-203.2z"/>
						<path id="Path_1500" class="st1" d="M405.7-216.8c-0.1,0.2-0.1,0.5-0.1,0.7c0,2.2,2.4,4.1,5.3,4.1c2.6,0,4.6-1.5,4.6-3.6
							s-1.2-3-6.4-4.9c-9.8-3.5-13.6-7.6-13.6-14.4c0-8.4,6.2-14,15.5-14c6,0,11,2.6,13.6,6.9c1.3,2.2,2.1,4.6,2.3,7.2h-11.1
							c-0.3-3.1-1.9-4.5-5-4.5c-2.7,0-4.4,1.4-4.4,3.6c0,1.4,0.8,2.6,2.1,3.2c1.6,0.9,3.3,1.7,5.1,2.2c5.1,2,7.5,3.2,9.5,5
							c2.5,2.3,3.9,5.6,3.8,9c0,8.3-6.4,13.9-16,13.9c-9.8,0-15.9-5.6-15.9-14.4H405.7z"/>
						<path id="Path_1501" class="st1" d="M439-209.6l-2,6.4h-11.6l14.8-44.8H454l14.7,44.8h-12l-2-6.4H439z M447-235.2l-5.2,16.7
							h10.5L447-235.2z"/>
						<path id="Path_1502" class="st1" d="M480.5-203.2h-10.9V-248h10.9l16.3,25.2V-248h10.9v44.8h-10.9l-16.3-25.5V-203.2z"/>
						<path id="Path_1503" class="st1" d="M521.7-230h14.8v8.8h-14.8v9.3h14.8v8.8h-25.6V-248h25.6v8.8h-14.8V-230z"/>
						<path id="Path_1504" class="st1" d="M420-261.8c-0.5,0-0.8-1-0.8-1.4c0-0.6,0.3-0.8,0.8-1.3c2.3-2.2,4.9-4.8,4.9-7
							c0-1-0.5-1.5-1.4-1.5c-0.7,0-1.3,0.6-1.3,1.3c0,0.6,0.6,0.6,0.6,1.4c0,0.6-0.5,1-1.1,1.1c-0.8,0-1.5-0.7-1.5-1.5
							c0-0.1,0-0.1,0-0.2c0-1.8,1.7-3.2,3.9-3.2c2.2,0,4,1,4,3.2c0,2.6-4,4.7-5.3,6.4c0.2,0,0.4,0,0.5,0c0.7,0,1.4,0.1,2,0.1
							c0.6,0.1,1.3-0.2,1.6-0.7c0.2-0.2,0.3-0.3,0.4-0.3c0.2,0,0.3,0.1,0.3,0.4c0,0.9-1.1,3.4-3.2,3.4c-1.4,0-1.8-0.6-3.1-0.6
							C420.8-262.2,420.4-261.8,420-261.8"/>
						<path id="Path_1505" class="st1" d="M437.6-269.8c0,3.8-2.3,8.3-5.9,8.3c-2,0-3.4-1.3-3.4-4.2c0-4.7,2.8-8.3,5.9-8.3
							C436.1-274.1,437.6-272.8,437.6-269.8 M431.2-264.4c0,0.9,0.4,1.6,1,1.6c1.7,0,2.5-5.6,2.5-8.6c0-0.8-0.1-1.6-0.8-1.6
							C432.4-273,431.2-269.5,431.2-264.4"/>
						<path id="Path_1506" class="st1" d="M438.2-261.8c-0.5,0-0.8-1-0.8-1.4c0-0.6,0.3-0.8,0.8-1.3c2.3-2.2,4.9-4.8,4.9-7
							c0-1-0.5-1.5-1.4-1.5c-0.7,0-1.3,0.6-1.3,1.3c0,0.6,0.6,0.6,0.6,1.4c0,0.6-0.5,1-1.1,1.1c-0.8,0-1.5-0.7-1.5-1.5
							c0-0.1,0-0.1,0-0.2c0-1.8,1.7-3.2,3.9-3.2c2.2,0,4,1,4,3.2c0,2.6-4,4.7-5.3,6.4c0.2,0,0.4,0,0.5,0c0.7,0,1.4,0.1,2,0.1
							c0.6,0.1,1.3-0.2,1.6-0.7c0.2-0.2,0.3-0.3,0.4-0.3c0.2,0,0.3,0.1,0.3,0.4c0,0.9-1.1,3.4-3.2,3.4c-1.4,0-1.8-0.6-3.1-0.6
							C439.1-262.2,438.6-261.8,438.2-261.8"/>
						<path id="Path_1507" class="st1" d="M447.4-261.8c-0.5,0-0.8-1-0.8-1.4c0-0.6,0.3-0.8,0.8-1.3c2.3-2.2,4.9-4.8,4.9-7
							c0-1-0.5-1.5-1.4-1.5c-0.7,0-1.3,0.6-1.3,1.3c0,0.6,0.6,0.6,0.6,1.4c0,0.6-0.5,1-1.1,1.1c-0.8,0-1.5-0.7-1.5-1.5
							c0-0.1,0-0.1,0-0.2c0-1.8,1.7-3.2,3.9-3.2c2.2,0,4,1,4,3.2c0,2.6-4,4.7-5.3,6.4c0.2,0,0.4,0,0.5,0c0.7,0,1.4,0.1,2,0.1
							c0.6,0.1,1.3-0.2,1.6-0.7c0.2-0.2,0.3-0.3,0.4-0.3c0.2,0,0.3,0.1,0.3,0.4c0,0.9-1.1,3.4-3.2,3.4c-1.4,0-1.8-0.6-3.1-0.6
							C448.3-262.2,447.9-261.8,447.4-261.8"/>
						<path id="Path_1508" class="st1" d="M287.9-268.9c-1-0.6-1.9-1.2-2.9-1.8c-5.8-3.2-12.1-5.4-18.7-6.5
							c-20.8-3.4-41.8,4.6-55,21.1c-8.1,10.2-12.5,22.8-12.5,35.9c0,31.9,25.9,57.8,57.8,57.8c24.4,0,46.2-15.3,54.4-38.3l-0.2-0.3
							c0.1-0.1,0.2-0.2,0.3-0.1l0,0c2.1-6.1,3.2-12.5,3.2-19C314.2-239.9,304.3-258.2,287.9-268.9 M280.3-177.8
							c-1.3,0.7-2.6,1.4-3.9,1.9c-9.2,4-19.3,5.2-29.2,3.3c-20.9-4.1-36.7-22.4-38.9-43.4c-0.8-7.9,0.4-15.8,3.4-23.1
							c8.2-19.5,29-31.9,50.1-29.5c20.1,2.2,37.1,17.4,42,36.9c0.2,0.7,0.3,1.3,0.5,2c0.6,2.8,0.9,5.7,0.9,8.5
							C305.4-203.7,295.8-186.4,280.3-177.8"/>
						<path id="Path_1509" class="st1" d="M262.1-231.8c-6.3-3.1-13.9-0.4-17,5.9c-1.4,2.8-1.6,6-0.8,9c1.5,4.8,5.5,8.3,10.4,9.1
							c6.6,0.9,13.5-3.9,14.5-10.6v-0.4c0,0,0,0,0.1,0C269.8-224.1,266.9-229.3,262.1-231.8 M259.9-215.1c-1,0.6-2.1,0.9-3.3,0.9
							c-1.9-0.1-3.7-1-4.9-2.5c-3.1-3.9,0-9.8,4.9-9.8c3.4,0,6.2,2.8,6.2,6.2C262.7-218.2,261.6-216.3,259.9-215.1"/>
						<path id="Path_1510" class="st1" d="M272-195c-0.5-1-1.7-1.4-2.7-0.8c-1,0.5-1.4,1.7-0.8,2.7c0.5,1,1.7,1.4,2.7,0.9
							C272.1-192.7,272.5-193.9,272-195C272-194.9,272-195,272-195 M272-195c-0.5-1-1.7-1.4-2.7-0.8c-1,0.5-1.4,1.7-0.8,2.7
							c0.5,1,1.7,1.4,2.7,0.9C272.1-192.7,272.5-193.9,272-195C272-194.9,272-195,272-195 M255.5-193c-1.2-0.1-2.2,0.8-2.2,1.9
							c-0.1,1.2,0.8,2.2,1.9,2.2c1.2,0.1,2.2-0.8,2.2-1.9c0,0,0,0,0-0.1c0.1-1.1-0.7-2.1-1.8-2.2C255.6-193,255.6-193,255.5-193
							 M272-195c-0.5-1-1.7-1.4-2.7-0.8c-1,0.5-1.4,1.7-0.8,2.7c0.5,1,1.7,1.4,2.7,0.9C272.1-192.7,272.5-193.9,272-195
							C272-194.9,272-195,272-195 M272-195c-0.5-1-1.7-1.4-2.7-0.8c-1,0.5-1.4,1.7-0.8,2.7c0.5,1,1.7,1.4,2.7,0.9
							C272.1-192.7,272.5-193.9,272-195C272-194.9,272-195,272-195 M255.5-193c-1.2-0.1-2.2,0.8-2.2,1.9c-0.1,1.2,0.8,2.2,1.9,2.2
							c1.2,0.1,2.2-0.8,2.2-1.9c0,0,0,0,0-0.1c0.1-1.1-0.7-2.1-1.8-2.2C255.6-193,255.6-193,255.5-193 M255.5-193
							c-1.2-0.1-2.2,0.8-2.2,1.9c-0.1,1.2,0.8,2.2,1.9,2.2c1.2,0.1,2.2-0.8,2.2-1.9c0,0,0,0,0-0.1c0.1-1.1-0.7-2.1-1.8-2.2
							C255.6-193,255.6-193,255.5-193 M272-195c-0.5-1-1.7-1.4-2.7-0.8c-1,0.5-1.4,1.7-0.8,2.7c0.5,1,1.7,1.4,2.7,0.9
							C272.1-192.7,272.5-193.9,272-195C272-194.9,272-195,272-195 M272-195c-0.5-1-1.7-1.4-2.7-0.8c-1,0.5-1.4,1.7-0.8,2.7
							c0.5,1,1.7,1.4,2.7,0.9C272.1-192.7,272.5-193.9,272-195C272-194.9,272-195,272-195 M255.5-193c-1.2-0.1-2.2,0.8-2.2,1.9
							c-0.1,1.2,0.8,2.2,1.9,2.2c1.2,0.1,2.2-0.8,2.2-1.9c0,0,0,0,0-0.1c0.1-1.1-0.7-2.1-1.8-2.2C255.6-193,255.6-193,255.5-193
							 M255.5-193c-1.2-0.1-2.2,0.8-2.2,1.9c-0.1,1.2,0.8,2.2,1.9,2.2c1.2,0.1,2.2-0.8,2.2-1.9c0,0,0,0,0-0.1
							c0.1-1.1-0.7-2.1-1.8-2.2C255.6-193,255.6-193,255.5-193 M272-195c-0.5-1-1.7-1.4-2.7-0.8c-1,0.5-1.4,1.7-0.8,2.7
							c0.5,1,1.7,1.4,2.7,0.9C272.1-192.7,272.5-193.9,272-195C272-194.9,272-195,272-195 M272-195c-0.5-1-1.7-1.4-2.7-0.8
							c-1,0.5-1.4,1.7-0.8,2.7c0.5,1,1.7,1.4,2.7,0.9C272.1-192.7,272.5-193.9,272-195C272-194.9,272-195,272-195 M255.5-193
							c-1.2-0.1-2.2,0.8-2.2,1.9c-0.1,1.2,0.8,2.2,1.9,2.2c1.2,0.1,2.2-0.8,2.2-1.9c0,0,0,0,0-0.1c0.1-1.1-0.7-2.1-1.8-2.2
							C255.6-193,255.6-193,255.5-193 M255.5-193c-1.2-0.1-2.2,0.8-2.2,1.9c-0.1,1.2,0.8,2.2,1.9,2.2c1.2,0.1,2.2-0.8,2.2-1.9
							c0,0,0,0,0-0.1c0.1-1.1-0.7-2.1-1.8-2.2C255.6-193,255.6-193,255.5-193 M270.7-248.6l-0.8-0.3l-0.8,2.5l0.6,0.2
							c0.6,0.3,1.4,0.1,1.8-0.5c0-0.1,0.1-0.1,0.1-0.2c0.3-0.7-0.1-1.4-0.7-1.6C270.8-248.6,270.8-248.6,270.7-248.6 M272-195
							c-0.5-1-1.7-1.4-2.7-0.8c-1,0.5-1.4,1.7-0.8,2.7c0.5,1,1.7,1.4,2.7,0.9C272.1-192.7,272.5-193.9,272-195L272-195 M272-195
							c-0.5-1-1.7-1.4-2.7-0.8c-1,0.5-1.4,1.7-0.8,2.7c0.5,1,1.7,1.4,2.7,0.9C272.1-192.7,272.5-193.9,272-195L272-195 M255.5-193
							c-1.2-0.1-2.2,0.8-2.2,1.9s0.8,2.2,1.9,2.2c1.2,0.1,2.2-0.8,2.2-1.9c0,0,0,0,0-0.1c0.1-1.1-0.7-2.1-1.8-2.2
							C255.6-193,255.6-193,255.5-193 M270.7-248.6l-0.8-0.3l-0.8,2.5l0.6,0.2c0.6,0.3,1.4,0.1,1.8-0.5c0-0.1,0.1-0.1,0.1-0.2
							c0.3-0.7-0.1-1.4-0.7-1.6C270.8-248.6,270.8-248.6,270.7-248.6 M290.1-207.9c0,0,1.2-9.1,1.2-12.2c0-3.1-1.2-12.6-1.2-12.6
							c0-0.7,0.1-1.4,0.3-2l-0.1-0.1l0.1-0.1c0.7-2,2.5-3.3,4.6-3.4h1.5c-5.8-12.9-17.5-22.2-31.4-25c-0.1,0-0.3-0.1-0.4-0.1
							c-3.6-0.3-8.1-1-11.8-0.6c-0.1,0-0.3,0-0.4,0c-15.7,1.5-29.3,11.3-35.8,25.6h2c2.7,0,4.9,2.5,4.9,5.6c0,0-1.2,9.5-1.2,12.6
							c0,3,1.2,12.2,1.2,12.2c0,3.1-2.2,5.6-4.9,5.6h-2c5.3,11.7,15.5,20.6,27.9,24.1l0.8,0.2c5.5,1,10.6,2.3,16.2,1.2
							c0.1,0,0.3,0,0.4,0c3.1-0.4,6.2-1.1,9.2-2.2c0.2-0.1,0.5-0.2,0.7-0.3c4.5-1.3,8.6-3.6,12-6.8c0.2-0.1,0.4-0.3,0.6-0.5
							c5.2-4.3,9.3-9.6,12-15.7H295C292.3-202.3,290.1-204.8,290.1-207.9 M268.3-251.4l3.1,1.1c2.1,0.7,3,2.2,2.4,4.1
							c-0.5,1.7-2.2,2.6-3.9,2.2c-0.1,0-0.3-0.1-0.4-0.1l-1-0.4l-1,2.9l-2.2-0.7L268.3-251.4z M272.3-220.3c0,2.4-0.5,4.7-1.6,6.8
							c-0.1,0.2-0.2,0.5-0.4,0.7c-0.8,1.4-1.7,2.7-2.9,3.8l-0.8,0.8c-2.7,2.4-6.1,3.7-9.7,3.7c-0.1,0-0.3,0-0.4,0s-0.3,0-0.4,0
							c-3.7-0.1-7.2-1.5-9.9-4c-0.9-1-1.8-2-2.6-3.1c-0.4-0.5-0.7-1-1-1.5c-0.3-0.6-0.6-1.2-0.8-1.8c-3-8.1,1.2-17.2,9.3-20.1
							c8.1-3,17.2,1.2,20.1,9.3C271.9-224,272.3-222.1,272.3-220.3 M260.6-252.7l2.3,0.3l-1.1,7.6l3.1,0.4l-0.3,1.9l-5.4-0.8
							L260.6-252.7z M252.3-252.6l0.3,5.5c0,0.5,0.1,1,0.4,1.5c0.6,0.6,1.6,0.6,2.2,0c0.1-0.1,0.2-0.2,0.2-0.3
							c0.2-0.4,0.2-0.9,0.2-1.4l-0.3-5.5l2.3-0.1l0.3,5.4c0.2,1.1-0.1,2.3-0.8,3.2c-0.7,0.8-1.7,1.2-2.7,1.3c-1.1,0.1-2.2-0.3-3-1
							c-0.7-0.8-1.1-1.9-1.1-3l-0.3-5.4L252.3-252.6z M241.3-249.3c0.6-1,1.6-1.7,2.7-2c0.7-0.2,1.5-0.3,2.3-0.2
							c0.6,0.1,1.1,0.3,1.6,0.5l-1,1.9c-0.7-0.4-1.5-0.4-2.2-0.2c-1.4,0.4-2.2,1.8-1.8,3.2c0,0.1,0,0.1,0.1,0.2
							c0.3,1.4,1.8,2.3,3.2,2c0.1,0,0.2,0,0.2-0.1c0.7-0.2,1.3-0.7,1.6-1.3l1.8,1.1c-0.7,1.2-1.8,2-3,2.3c-1.2,0.4-2.6,0.3-3.8-0.4
							c-1.1-0.7-1.9-1.7-2.2-3C240.3-246.5,240.5-248,241.3-249.3 M234.4-239.5l2-1.1c0,0.1,0,0.1,0.1,0.1c0.3,0.4,1,0.5,1.4,0.2
							c0.5-0.2,0.7-0.7,0.5-1.1c-0.2-0.4-0.5-0.4-1.7-0.2c-2.2,0.4-3.3,0-4.1-1.2c-0.8-1.4-0.3-3.3,1.1-4.1c0.1-0.1,0.2-0.1,0.3-0.2
							c1-0.6,2.2-0.7,3.3-0.1c0.5,0.3,0.9,0.6,1.2,1.1l-2.1,1.2c-0.2-0.5-0.8-0.6-1.3-0.4l-0.1,0.1c-0.5,0.3-0.7,0.7-0.5,1.1
							c0.1,0.3,0.4,0.4,0.7,0.4c0.4,0,0.8,0,1.2-0.1c0.8-0.2,1.5-0.2,2.3-0.1c0.7,0.2,1.3,0.6,1.6,1.3c0.9,1.5,0.2,3.3-1.5,4.3
							C237.1-237.4,235.4-237.8,234.4-239.5 M242.7-196.2c-0.9-0.5-2.1-0.2-2.6,0.7c0,0.1-0.1,0.1-0.1,0.2c-0.6,0.9-0.3,2.2,0.6,2.8
							c0.1,0,0.1,0.1,0.2,0.1c0.5,0.3,1,0.3,1.5,0.1l0.3,1.5c-1,0.3-2,0.1-2.8-0.4c-0.9-0.4-1.5-1.2-1.8-2.2
							c-0.2-0.9-0.1-1.9,0.4-2.7c0.5-1,1.4-1.7,2.5-2c0.8-0.2,1.7,0,2.5,0.4c0.5,0.3,1,0.7,1.3,1.1c0.2,0.3,0.4,0.7,0.5,1.1
							l-1.5,0.5C243.6-195.5,243.2-195.9,242.7-196.2 M249.6-187.8l-1.7-0.5l0.8-2.7l-2.2-0.6l-0.8,2.7l-1.7-0.5l1.9-6.9l1.7,0.5
							l-0.8,2.8l2.2,0.6l0.8-2.8l1.7,0.5L249.6-187.8z M255.4-187.2c-2,0-3.7-1.6-3.7-3.7c0-1.1,0.4-2.1,1.3-2.8
							c0.7-0.6,1.7-1,2.7-0.9c2,0,3.6,1.6,3.6,3.6c0,0.1,0,0.1,0,0.2C259.2-188.7,257.5-187.1,255.4-187.2L255.4-187.2 M264.4-188.1
							c-1,0.3-2,0.1-2.8-0.5s-1.3-1.4-1.5-2.3c-0.3-1.1,0-2.2,0.6-3.1c0.5-0.7,1.3-1.1,2.1-1.3c0.6-0.1,1.2-0.1,1.7,0
							c0.4,0.1,0.8,0.3,1.1,0.5l-0.8,1.4c-0.5-0.3-1.1-0.4-1.6-0.3c-1,0.2-1.7,1.2-1.5,2.3c0,0.1,0,0.1,0,0.2
							c0.2,1.1,1.2,1.8,2.3,1.7c0.1,0,0.1,0,0.2,0c0.5-0.1,1-0.4,1.3-0.9l1.3,0.9C266.3-188.9,265.4-188.3,264.4-188.1 M271.8-190.8
							c-1.8,1-4,0.3-5-1.5c-0.5-1-0.6-2.1-0.2-3.1c0.4-0.9,1.1-1.6,1.9-2.1c1.8-0.9,4-0.2,4.9,1.6c0,0.1,0.1,0.1,0.1,0.2
							C274.4-193.9,273.7-191.7,271.8-190.8L271.8-190.8 M281.4-243.4l-1.9-1.1l-3.8,6.6l-2-1.2l3.8-6.6l-1.9-1.1l0.9-1.6l5.8,3.4
							L281.4-243.4z M269.2-196c-1,0.5-1.4,1.7-0.9,2.7c0,0,0,0.1,0.1,0.1c0.5,1,1.8,1.3,2.7,0.8c1-0.5,1.3-1.8,0.8-2.7
							C271.4-196.1,270.2-196.5,269.2-196 M271.6-246.9c0.3-0.7-0.1-1.4-0.7-1.6h-0.1l-0.8-0.3l-0.8,2.5l0.6,0.2
							c0.6,0.3,1.4,0.1,1.8-0.5C271.5-246.8,271.6-246.8,271.6-246.9 M255.5-193c-1.2-0.1-2.2,0.8-2.2,1.9c-0.1,1.2,0.8,2.2,1.9,2.2
							c1.2,0.1,2.2-0.8,2.2-1.9c0,0,0,0,0-0.1c0.1-1.1-0.7-2.1-1.8-2.2C255.6-193,255.6-193,255.5-193 M255.5-193
							c-1.2-0.1-2.2,0.8-2.2,1.9c-0.1,1.2,0.8,2.2,1.9,2.2c1.2,0.1,2.2-0.8,2.2-1.9c0,0,0,0,0-0.1c0.1-1.1-0.7-2.1-1.8-2.2
							C255.6-193,255.6-193,255.5-193 M272-195c-0.5-1-1.7-1.4-2.7-0.8c-1,0.5-1.4,1.7-0.8,2.7c0.5,1,1.7,1.4,2.7,0.9
							C272.1-192.7,272.5-193.9,272-195C272-194.9,272-195,272-195 M272-195c-0.5-1-1.7-1.4-2.7-0.8c-1,0.5-1.4,1.7-0.8,2.7
							c0.5,1,1.7,1.4,2.7,0.9C272.1-192.7,272.5-193.9,272-195C272-194.9,272-195,272-195 M255.5-193c-1.2-0.1-2.2,0.8-2.2,1.9
							c-0.1,1.2,0.8,2.2,1.9,2.2c1.2,0.1,2.2-0.8,2.2-1.9c0,0,0,0,0-0.1c0.1-1.1-0.7-2.1-1.8-2.2C255.6-193,255.6-193,255.5-193
							 M255.5-193c-1.2-0.1-2.2,0.8-2.2,1.9c-0.1,1.2,0.8,2.2,1.9,2.2c1.2,0.1,2.2-0.8,2.2-1.9c0,0,0,0,0-0.1
							c0.1-1.1-0.7-2.1-1.8-2.2C255.6-193,255.6-193,255.5-193 M272-195c-0.5-1-1.7-1.4-2.7-0.8c-1,0.5-1.4,1.7-0.8,2.7
							c0.5,1,1.7,1.4,2.7,0.9C272.1-192.7,272.5-193.9,272-195C272-194.9,272-195,272-195 M272-195c-0.5-1-1.7-1.4-2.7-0.8
							c-1,0.5-1.4,1.7-0.8,2.7c0.5,1,1.7,1.4,2.7,0.9C272.1-192.7,272.5-193.9,272-195C272-194.9,272-195,272-195 M255.5-193
							c-1.2-0.1-2.2,0.8-2.2,1.9c-0.1,1.2,0.8,2.2,1.9,2.2c1.2,0.1,2.2-0.8,2.2-1.9c0,0,0,0,0-0.1c0.1-1.1-0.7-2.1-1.8-2.2
							C255.6-193,255.6-193,255.5-193 M255.5-193c-1.2-0.1-2.2,0.8-2.2,1.9c-0.1,1.2,0.8,2.2,1.9,2.2c1.2,0.1,2.2-0.8,2.2-1.9
							c0,0,0,0,0-0.1c0.1-1.1-0.7-2.1-1.8-2.2C255.6-193,255.6-193,255.5-193 M272-195c-0.5-1-1.7-1.4-2.7-0.8
							c-1,0.5-1.4,1.7-0.8,2.7c0.5,1,1.7,1.4,2.7,0.9C272.1-192.7,272.5-193.9,272-195C272-194.9,272-195,272-195 M272-195
							c-0.5-1-1.7-1.4-2.7-0.8c-1,0.5-1.4,1.7-0.8,2.7c0.5,1,1.7,1.4,2.7,0.9C272.1-192.7,272.5-193.9,272-195
							C272-194.9,272-195,272-195 M255.5-193c-1.2-0.1-2.2,0.8-2.2,1.9c-0.1,1.2,0.8,2.2,1.9,2.2c1.2,0.1,2.2-0.8,2.2-1.9
							c0,0,0,0,0-0.1c0.1-1.1-0.7-2.1-1.8-2.2C255.6-193,255.6-193,255.5-193 M255.5-193c-1.2-0.1-2.2,0.8-2.2,1.9
							c-0.1,1.2,0.8,2.2,1.9,2.2c1.2,0.1,2.2-0.8,2.2-1.9c0,0,0,0,0-0.1c0.1-1.1-0.7-2.1-1.8-2.2C255.6-193,255.6-193,255.5-193
							 M272-195c-0.5-1-1.7-1.4-2.7-0.8c-1,0.5-1.4,1.7-0.8,2.7c0.5,1,1.7,1.4,2.7,0.9C272.1-192.7,272.5-193.9,272-195
							C272-194.9,272-195,272-195 M272-195c-0.5-1-1.7-1.4-2.7-0.8c-1,0.5-1.4,1.7-0.8,2.7c0.5,1,1.7,1.4,2.7,0.9
							C272.1-192.7,272.5-193.9,272-195C272-194.9,272-195,272-195 M255.5-193c-1.2-0.1-2.2,0.8-2.2,1.9c-0.1,1.2,0.8,2.2,1.9,2.2
							c1.2,0.1,2.2-0.8,2.2-1.9c0,0,0,0,0-0.1c0.1-1.1-0.7-2.1-1.8-2.2C255.6-193,255.6-193,255.5-193 M272-195
							c-0.5-1-1.7-1.4-2.7-0.8c-1,0.5-1.4,1.7-0.8,2.7c0.5,1,1.7,1.4,2.7,0.9C272.1-192.7,272.5-193.9,272-195
							C272-194.9,272-195,272-195 M272-195c-0.5-1-1.7-1.4-2.7-0.8c-1,0.5-1.4,1.7-0.8,2.7c0.5,1,1.7,1.4,2.7,0.9
							C272.1-192.7,272.5-193.9,272-195C272-194.9,272-195,272-195"/>
					</g>
				</g>
			</g>
		</g>
	</g>
	<g>
		<path class="st1" d="M252.1,4658.9c0.1,0,0.1,0,0.2,0c0-0.1-0.1-0.1-0.1-0.2C252.1,4658.8,252.1,4658.8,252.1,4658.9z"/>
		<path class="st1" d="M288.6,4550h-2.3v-7c0-10.8,8.8-19.6,19.6-19.6h22.2c10.8,0,19.6,8.8,19.6,19.6v7h-12.3v-3.9v-0.1v-0.2v-0.1
			v-0.2v-2.5c0-4.1-3.3-7.4-7.4-7.4h-22c-4.1,0-7.4,3.3-7.4,7.4v7h-9L288.6,4550L288.6,4550z"/>
		<path class="st1" d="M332,4542.5c0-2.1-1.7-3.8-3.8-3.8H306c-2.1,0-3.8,1.7-3.8,3.8v7.5H332V4542.5z"/>
		<g>
			<path class="st1" d="M294.2,4636.4c0-1.3-0.8-1.9-2.7-1.9h-0.9v3.9h1C293.4,4638.3,294.2,4637.7,294.2,4636.4z"/>
			<path class="st1" d="M293.6,4641.5c-0.4-0.2-0.8-0.3-2.1-0.3h-0.9v3.9h1.5c1.7,0,2.4-0.5,2.4-1.9
				C294.5,4642.4,294.2,4641.9,293.6,4641.5z"/>
			<path class="st1" d="M307.1,4602c-3,0-5.1,2.3-5.1,5.5c0,3.1,2.1,5.5,5.1,5.5s5.1-2.4,5.1-5.5
				C312.3,4604.4,310.1,4602,307.1,4602z"/>
			<path class="st1" d="M328.5,4573.9c0-1.3-0.9-2.1-2.2-2.1h-1.4v4.3h1.2C327.6,4576,328.5,4575.2,328.5,4573.9z"/>
			<polygon class="st1" points="312.1,4573.1 310.3,4578.8 313.9,4578.8 			"/>
			<path class="st1" d="M322.6,4634.7h-1.5v4.6h1.3c1.7,0,2.6-0.8,2.6-2.3C325,4635.7,324,4634.7,322.6,4634.7z"/>
			<path class="st1" d="M277.2,4608.4c-0.5-0.2-0.7-0.4-0.7-0.7c0-0.4,0.3-0.6,0.3-0.7s-0.1-0.1-0.2-0.1s-0.2,0-0.5,0.2
				c-0.4,0.3-0.8,1-0.8,1.9c0,0.8,0.4,1.2,1.1,1.2s1.1-0.7,1.1-1.3C277.5,4608.8,277.4,4608.5,277.2,4608.4z"/>
			<path class="st1" d="M369.5,4607.6c0-0.3-0.1-0.4-0.4-0.4c-0.5,0-1.2,0.8-1.2,1.8C368.9,4608.9,369.5,4608,369.5,4607.6z"/>
			<path class="st1" d="M363.2,4553.6H271l-0.1,0.5l-0.4,1.6l-30,110.4h62.7c0-0.1,0-0.1,0.1-0.2c0,0.1,0,0.1,0,0.2h72.4l0.1-0.1
				c0,0,0,0.1,0.1,0.1h17.9L363.2,4553.6z M321.1,4568.6h5c2,0,3.5,0.4,4.5,1.2c1.1,0.8,1.7,2.2,1.7,3.9c0,2.3-1,3.9-3,4.7l3.4,5.7
				h-4.5l-3.4-6v6h-3.7V4568.6z M309.8,4568.6h4.8l5.1,15.4h-4.1l-0.7-2.2h-5.4l-0.7,2.2h-4L309.8,4568.6z M294.6,4568.6h8.8v3h-5.1
				v3.1h5.1v3h-5.1v3.2h5.1v3h-8.8V4568.6z M275.5,4611.6c-1.1,0-2-0.5-2.3-1.3c-0.5,0.6-1.5,1.3-2.4,1.3c-1.2,0-1.7-0.7-1.7-1.6
				c0-1.1,0.5-1.9,0.5-2.7c0-0.2-0.5-0.1-0.5-0.4c0-0.2,0.1-0.5,0.3-0.5c0.9,0,1.7-0.9,2.1-1.6c0.2-0.3,0.3-0.4,0.5-0.4
				s0.3,0.1,0.3,0.3c0,0.4-0.2,1.1-0.2,1.3c0,0.2,0.1,0.3,0.6,0.3c0.1,0,0.2,0.1,0.2,0.2c0,0.3-0.2,0.6-0.4,0.6
				c-0.4,0-0.6,0.1-0.7,0.5c-0.1,0.5-0.4,1.3-0.4,1.9c0,0.5,0.3,0.7,0.7,0.7c0.3,0,0.7-0.3,0.9-0.5l0,0c0-0.1,0-0.1,0-0.2
				c0-1.6,1.3-3.2,3.6-3.2c1.2,0,2.1,0.8,2.1,2C278.8,4609.9,277.6,4611.6,275.5,4611.6z M284.7,4568.6h3.7v12.4h5v3h-8.7V4568.6z
				 M285,4613.1h0.8c0.5,0,0.7-0.3,0.7-0.7v-9.9c0-0.5-0.3-0.7-0.7-0.7H285v-3h6.8v3H291c-0.5,0-0.7,0.3-0.7,0.7v10.6h2.5
				c0.5,0,0.7-0.3,0.7-0.7v-2.6h3.4v6.3h-12v-3H285z M296.9,4647.3c-0.8,0.5-1.8,0.8-3.5,0.8h-6.8v-16.6h5.7c2.1,0,3.3,0.2,4.2,0.8
				c1.1,0.7,1.8,2.1,1.8,3.7c0,1.1-0.4,2.1-1.1,2.9c-0.5,0.5-0.8,0.7-1.7,1c1,0.2,1.5,0.4,2,0.9c0.7,0.7,1.1,1.7,1.1,2.9
				C298.6,4645.2,298,4646.6,296.9,4647.3z M314.1,4640.9c0,2.4-0.6,4.3-1.7,5.5s-2.9,1.9-4.9,1.9c-2.1,0-3.9-0.7-5.1-2.1
				c-1.1-1.2-1.5-2.8-1.5-5.4v-9.5h4v9.7c0,1.2,0.2,2,0.6,2.6s1.2,0.9,2,0.9c0.9,0,1.8-0.4,2.2-1.1c0.3-0.5,0.4-1.2,0.4-2.4v-9.7h4
				V4640.9z M307.1,4616.5c-5.1,0-8.9-3.9-8.9-9s3.8-9,8.9-9c5.2,0,8.9,3.9,8.9,9S312.3,4616.5,307.1,4616.5z M324.7,4648l-3.6-6.4
				v6.4h-4v-16.6h5.4c2.2,0,3.8,0.4,4.9,1.2c1.1,0.9,1.8,2.4,1.8,4.2c0,2.5-1.1,4.2-3.2,5.1l3.7,6.1L324.7,4648L324.7,4648z
				 M331.5,4602.5l-4.9,13.7h-3.9l-4.9-13.7c-0.2-0.5-0.5-0.7-1-0.7h-0.5v-3h7.2v3h-0.6c-0.7,0-1.1,0.5-0.9,1.2l2.8,9l2.7-9
				c0.2-0.7-0.1-1.2-0.8-1.2h-0.6v-3h7.1v3h-0.5C332,4601.8,331.7,4602,331.5,4602.5z M346.1,4648h-4l-6.1-9.5v9.5h-4v-16.6h4
				l6.1,9.3v-9.3h4V4648z M347.7,4616.1h-13.2v-3h0.8c0.5,0,0.7-0.3,0.7-0.7v-9.9c0-0.5-0.3-0.7-0.7-0.7h-0.8v-3h13v5.3h-3.1v-1.6
				c0-0.5-0.3-0.7-0.7-0.7h-4v3.9h4.1v2.8h-4.1v4.6h4.3c0.5,0,0.7-0.3,0.7-0.7v-1.9h3.1L347.7,4616.1L347.7,4616.1z M348,4584h-3.7
				l-5.6-8.8v8.8H335v-15.4h3.7l5.6,8.7v-8.7h3.7L348,4584L348,4584z M371.2,4610.5c-0.6,0.6-1.4,1.4-3,1.4c-1.1,0-2-0.4-2.4-1.2
				l0,0c-0.4,0.5-1.1,1.1-2.1,1.1s-1.5-0.5-1.5-1.3c0-0.9,0.5-1.8,0.5-2.4c0-0.3-0.2-0.4-0.4-0.4c-0.4,0-0.7,0.4-1.1,1
				c-0.3,0.6-0.7,2.3-0.7,2.6c0,0.3-0.1,0.4-0.4,0.4c-0.5,0-1.2,0.1-1.5,0.1c-0.2,0-0.3-0.1-0.3-0.4c0-0.2,0-0.4,0.1-0.7
				c-0.5,0.5-1.3,1-2.1,1c-1.2,0-1.7-0.7-1.7-1.6c0-1.1,0.5-1.9,0.5-2.7c0-0.2-0.5-0.1-0.5-0.4c0-0.2,0.1-0.5,0.3-0.5
				c0.9,0,1.7-0.9,2.1-1.6c0.2-0.3,0.3-0.4,0.5-0.4s0.3,0.1,0.3,0.3c0,0.4-0.2,1.1-0.2,1.3c0,0.2,0.1,0.3,0.6,0.3
				c0.1,0,0.2,0.1,0.2,0.2c0,0.3-0.2,0.6-0.4,0.6c-0.4,0-0.6,0.1-0.7,0.5c-0.1,0.5-0.4,1.3-0.4,1.9c0,0.5,0.3,0.7,0.7,0.7
				c0.3,0,0.7-0.3,0.9-0.5l0.1-0.1c0.4-1.7,1.2-4.1,1.2-5.8c0-0.6-0.3-0.8-0.6-0.8c-0.2,0-0.3-0.1-0.3-0.2c0-0.4,0.9-0.9,1.8-0.9
				s1.4,0.5,1.4,1.3c0,0.9-0.7,3.4-1,4.2c0.4-0.5,1.2-1,2.2-1c0.9,0,1.4,0.4,1.4,1.1c0,0.8-0.5,1.5-0.5,2.2c0,0.4,0.2,0.6,0.5,0.6
				s0.4-0.1,0.6-0.4c0,0,0,0,0.1-0.1c0-0.2,0-0.3,0-0.5c0-1.6,1.3-3.1,3.5-3.1c1.1,0,1.7,0.5,1.7,1.2c0,1-1.1,1.9-2.8,2
				c0,0.6,0.5,1,1.3,1c0.9,0,1.4-0.6,1.8-0.9c0.1-0.1,0.3-0.2,0.4-0.2s0.2,0.1,0.2,0.2C371.5,4610.1,371.5,4610.2,371.2,4610.5z"/>
		</g>
		<polygon class="st1" points="351.4,4550 365.9,4550 389,4634.9 394.3,4621.8 369.9,4544.4 351.3,4541.1 		"/>
		<polygon class="st1" points="282.2,4550 267.7,4550 244.6,4634.9 239.3,4621.8 263.7,4544.4 282.3,4541.1 		"/>
		<polygon class="st1" points="317.1,4671.3 274.3,4671.3 312.2,4690.9 317,4690.9 317.2,4690.9 322,4690.9 359.8,4671.3 		"/>
	</g>
	<g>
		<g>
			<path class="st1" d="M655.7,4669.1c28,0,56-0.1,84,0.1c3.2,0,9.6-2,8.8,3.1c-0.6,3.7,1,9.3-8.8,9.3c-56.4-0.2-112.8-0.1-169.2,0
				c-8.7,0-8.2-4.5-9-8.4c-1.1-5.9,5.3-3.9,9-3.9C598.9,4669.1,627.3,4669.2,655.7,4669.1C655.7,4669.2,655.7,4669.1,655.7,4669.1z"
				/>
			<path class="st1" d="M679.4,4735.8L679.4,4735.8L679.4,4735.8c-5.7-8.5-14.5-15.1-24.6-15c-10.1-0.1-18.9,6.5-24.6,15l0,0l0,0
				l0,0l0,0c5.6,8.5,14.5,15.1,24.6,15C664.9,4750.9,673.7,4744.3,679.4,4735.8L679.4,4735.8L679.4,4735.8z M635.3,4735.8
				c5.2-1.6,1.6-9.1,13.2-8.8c-2.2,2-7.8,5.4-6.5,8.2c0.1,0.2,0.8,0.5,1.9,0.6c-1.1,0.2-1.7,0.4-1.9,0.6c-1.3,2.8,4.3,6.2,6.5,8.2
				C636.8,4744.9,640.5,4737.3,635.3,4735.8z M661.1,4744.6c2.2-2,7.8-5.4,6.5-8.2c-0.1-0.2-0.8-0.5-1.9-0.6
				c1.1-0.2,1.7-0.4,1.9-0.6c1.3-2.8-4.3-6.2-6.5-8.2c11.6-0.3,8,7.3,13.2,8.8C669.2,4737.3,672.8,4744.9,661.1,4744.6z"/>
			<path class="st1" d="M655.1,4771.9c-26.2,0-52.3,0-78.5,0c-7.4,0-15,1.2-14.9-6.6c0.1-7.4,7.2-6.1,14.1-6.1
				c53.3,0,106.6,0,159.9,0c7.1,0,12.7-0.3,12.9,6.1c0.2,6.9-5.7,6.7-13.5,6.7C708.4,4771.8,681.7,4771.9,655.1,4771.9z"/>
			<path class="st1" d="M701,4699.7c3.6-4,6.1-7.5,9.9-9.7c9.4-6,16.7,8.9,9.8,14.7c-2.4,2.1-5,1.7-7.5,0.3
				C709.4,4703,705.9,4700.5,701,4699.7z"/>
			<path class="st1" d="M729.9,4715.2c-3.8,0-7.6,0-11.5,0c-0.5,0-1.1,0.2-1.3-0.6c-0.1-0.4-0.6-0.2-0.9-0.2c-1.4,0-2.8,0-4.3,0
				c-0.7,0-1.1-0.2-1-1c0.2-1-0.3-1.2-1.2-1.2c-16.5,0-33,0-49.5,0c-1,0-1.4,0.3-1.3,1.3c0,0.3,0,0.6,0,0.9c-0.2,1.2,0.4,1.7,1.5,2
				c4.1,1,8,2.4,11.7,4.3c3.8,1.9,7.3,4.1,10,7.4c2.6,3.1,4.1,6.6,3.1,10.7c-1,3.9-3.8,6.3-7.4,7.8c-1,0.4-1.4,0.9-1.3,1.9
				c0.1,1.2,0,2.5,0,3.7c0,0.7,0.3,0.9,0.9,0.9c2.9,0,5.9,0,8.8,0c0.3,0,23.9,0,25.2,0c2.4,0,4.7,0,7.1,0c0.8,0,1.2-0.2,1.1-1
				c0-0.1,0-0.2,0-0.3c0-1.5,0.4-3.1-0.1-4.4s-2.4-1.4-3.7-2.1c-2.6-1.5-4.9-3.3-6.5-5.8c-1.2-1.9-1.9-3.9-1.4-6.2
				c0.4-2.3,2-3.8,4.3-3.6c3,0.2,5.9-0.6,8.9-0.8c8.8-0.7,15.8-4.7,21.2-11.6c0.4-0.5,0.9-0.9,0.6-1.6c-0.3-0.8-1-0.7-1.7-0.7
				C737.6,4715.2,733.8,4715.2,729.9,4715.2z"/>
			<polyline class="st1" points="659,4698.6 678,4698.6 678,4695.3 659,4695.3 			"/>
			<path class="st1" d="M681.2,4693.4h-2c-0.1,0-0.3,0.1-0.3,0.3v6.6c0,0.1,0.1,0.3,0.3,0.3h2V4693.4z"/>
			<path class="st1" d="M691.9,4687h-9.1c-0.4,0-0.7,0.3-0.7,0.7v18.5c0,0.4,0.3,0.7,0.7,0.7h9.1c0.4,0,0.7-0.3,0.7-0.7v-18.5
				C692.6,4687.3,692.3,4687,691.9,4687z"/>
			<path class="st1" d="M608.8,4699.7c-3.6-4-6.1-7.5-9.9-9.7c-9.4-6-16.7,8.9-9.8,14.7c2.4,2.1,5,1.7,7.5,0.3
				C600.4,4703,604,4700.5,608.8,4699.7z"/>
			<path class="st1" d="M579.9,4715.2c3.8,0,7.6,0,11.5,0c0.5,0,1.1,0.2,1.3-0.6c0.1-0.4,0.6-0.2,0.9-0.2c1.4,0,2.8,0,4.3,0
				c0.7,0,1.1-0.2,1-1c-0.2-1,0.3-1.2,1.2-1.2c16.5,0,33,0,49.5,0c1,0,1.4,0.3,1.3,1.3c0,0.3,0,0.6,0,0.9c0.2,1.2-0.4,1.7-1.5,2
				c-4.1,1-8,2.4-11.7,4.3c-3.8,1.9-7.3,4.1-10,7.4c-2.6,3.1-4.1,6.6-3.1,10.7c1,3.9,3.8,6.3,7.4,7.8c1,0.4,1.4,0.9,1.3,1.9
				c-0.1,1.2,0,2.5,0,3.7c0,0.7-0.3,0.9-0.9,0.9c-2.9,0-5.9,0-8.8,0c-0.3,0-23.9,0-25.2,0c-2.4,0-4.7,0-7.1,0c-0.8,0-1.2-0.2-1.1-1
				c0-0.1,0-0.2,0-0.3c0-1.5-0.4-3.1,0.1-4.4s2.4-1.4,3.7-2.1c2.6-1.5,4.9-3.3,6.5-5.8c1.2-1.9,1.9-3.9,1.4-6.2
				c-0.4-2.3-2-3.8-4.3-3.6c-3,0.2-5.9-0.6-8.9-0.8c-8.8-0.7-15.8-4.7-21.2-11.6c-0.4-0.5-0.9-0.9-0.6-1.6c0.3-0.8,1-0.7,1.7-0.7
				C572.3,4715.2,576.1,4715.2,579.9,4715.2z"/>
			<polyline class="st1" points="650.9,4698.6 631.8,4698.6 631.8,4695.3 650.9,4695.3 			"/>
			<path class="st1" d="M628.7,4693.4h2c0.1,0,0.3,0.1,0.3,0.3v6.6c0,0.1-0.1,0.3-0.3,0.3h-2V4693.4z"/>
			<path class="st1" d="M618,4687h9.1c0.4,0,0.7,0.3,0.7,0.7v18.5c0,0.4-0.3,0.7-0.7,0.7H618c-0.4,0-0.7-0.3-0.7-0.7v-18.5
				C617.3,4687.3,617.6,4687,618,4687z"/>
		</g>
		<g>
			<path class="st1" d="M604.9,4550.5h1.1c0.8,0,1.2-0.5,1.2-1.2v-16.5c0-0.8-0.4-1.2-1.2-1.2h-1.1v-6.5h13.3v6.5h-1.1
				c-0.8,0-1.2,0.5-1.2,1.2v17.7h3.7c0.8,0,1.2-0.5,1.2-1.2v-4.8h7.3v12.4h-23.2V4550.5z"/>
			<path class="st1" d="M631.5,4550.5h1.3c0.8,0,1.2-0.5,1.2-1.2v-16.5c0-0.8-0.4-1.2-1.2-1.2h-1.3v-6.5h13.6v6.5h-1.3
				c-0.8,0-1.2,0.5-1.2,1.2v16.5c0,0.8,0.4,1.2,1.2,1.2h1.3v6.5h-13.6V4550.5z"/>
			<path class="st1" d="M648.6,4550.5h1.1c0.8,0,1.2-0.5,1.2-1.2v-16.5c0-0.8-0.4-1.2-1.2-1.2h-1.1v-6.5h23.8v9.9h-7.3v-2.2
				c0-0.8-0.5-1.2-1.2-1.2H659v6.4h6.8v5.6H659v5.7c0,0.8,0.4,1.2,1.2,1.2h2.2v6.5h-13.9v-6.5H648.6z"/>
			<path class="st1" d="M683.1,4550.5h1.4c0.8,0,1.1-0.5,1.1-1.2v-18h-2.2c-0.8,0-1.2,0.4-1.2,1.2v5h-6.8v-12.4h29.1v12.4h-6.8v-5
				c0-0.8-0.5-1.2-1.2-1.2h-2.2v18c0,0.8,0.4,1.2,1.2,1.2h1.4v6.5H683v-6.5H683.1z"/>
		</g>
		<g>
			<path class="st1" d="M573.3,4601.4l-0.1-0.2l-0.2,2.3h-6.9v-11h7.4v0.3c0,1.3,0.4,2.3,1.2,3.1c0.9,0.9,2.3,1.5,4,1.5
				c1.4,0,2.5-0.4,3.2-1.1c0.5-0.5,0.8-1.3,0.8-2.1c0-0.8-0.3-1.4-0.8-1.9c-0.7-0.7-2-1.2-3.7-1.6l-2.2-0.5
				c-3.6-0.8-6.1-1.9-7.6-3.5c-1.6-1.5-2.3-3.6-2.3-6.1c0-2.7,0.9-5,2.6-6.7c1.8-1.8,4.4-2.9,7.6-2.9c3,0,5.4,0.9,7,2.5
				c0.1,0.1,0.3,0.3,0.4,0.4l0.1-2.3h6.6v10h-7.1v-0.2c0-1.1-0.3-2-1-2.6c-0.8-0.8-2-1.2-3.4-1.2c-1.2,0-2.2,0.4-2.8,1
				c-0.5,0.5-0.7,1.1-0.7,1.9c0,0.6,0.2,1.1,0.6,1.5c0.5,0.6,1.4,0.9,2.9,1.2l2,0.5c3.8,0.8,6.5,2,8.3,3.8c1.7,1.7,2.5,3.9,2.5,6.7
				c0,2.8-1,5.2-2.7,7c-2,1.9-4.8,3.1-8,3.1C577.7,4604.1,575.1,4603.1,573.3,4601.4z"/>
			<path class="st1" d="M593.6,4587.6c0-9.7,6.8-16.6,15.4-16.6c4.1,0,7.8,1.7,9.8,4.8l0.1-4.3h6.9v13.6h-8.2
				c-0.9-3.7-3.7-6.2-7.8-6.2c-4.7,0-7.7,3.7-7.7,8.6s3.1,8.6,7.8,8.6c4,0,6.8-2.5,7.7-6.2h8.2c-0.8,8.2-7.2,14.1-16,14.1
				C600.4,4604.1,593.6,4597.1,593.6,4587.6z"/>
			<path class="st1" d="M630.3,4590.8v-11.6c0-0.8-0.4-1.2-1.2-1.2h-1v-6.5h14.1v6.5h-2c-0.8,0-1.2,0.5-1.2,1.2v11.8
				c0,3.1,1.8,5.1,4.8,5.1c3.1,0,4.8-2.1,4.8-5.1v-11.8c0-0.8-0.4-1.2-1.2-1.2h-2v-6.5h14.1v6.5h-1c-0.8,0-1.2,0.5-1.2,1.2v11.6
				c0,8.2-5.3,13.3-13.5,13.3C635.7,4604.1,630.3,4599,630.3,4590.8z"/>
			<path class="st1" d="M661.7,4597h1.1c0.8,0,1.2-0.5,1.2-1.2v-16.5c0-0.8-0.4-1.2-1.2-1.2h-1.1v-6.5H675v6.5h-1
				c-0.8,0-1.2,0.5-1.2,1.2v17.7h3.7c0.8,0,1.2-0.5,1.2-1.2v-4.8h7.3v12.4h-23.2L661.7,4597L661.7,4597z"/>
			<path class="st1" d="M687.2,4597h1.1c0.8,0,1.2-0.5,1.2-1.2v-16.5c0-0.8-0.4-1.2-1.2-1.2h-1.1v-6.5h13.5
				c7.3,0,12.3,3.7,12.3,10.4c0,6.7-5,10.4-12.3,10.4h-3v3.4c0,0.8,0.4,1.2,1.2,1.2h2.2v6.5h-13.9V4597z M700.3,4585.8
				c2.7,0,4.5-1.4,4.5-3.9s-1.8-3.8-4.5-3.8h-2.5v7.7L700.3,4585.8L700.3,4585.8z"/>
			<path class="st1" d="M722.5,4597h1.4c0.8,0,1.1-0.5,1.1-1.2v-18h-2.2c-0.8,0-1.2,0.4-1.2,1.2v5h-6.8v-12.4H744v12.4h-6.8v-5
				c0-0.8-0.5-1.2-1.2-1.2h-2.2v18c0,0.8,0.4,1.2,1.2,1.2h1.4v6.5h-13.9V4597z"/>
		</g>
		<g>
			<path class="st1" d="M574.8,4632.7h13.5v8h-13.5v16.4h-9.9v-40.6h23.4v8h-13.5V4632.7z"/>
			<path class="st1" d="M635.1,4636.8c0,11.6-9.5,21-21.2,21c-12.1,0-21.7-9.3-21.7-20.9c0-5.9,2.4-11.4,6.8-15.6
				c3.9-3.7,9.2-5.7,15.2-5.7C626.1,4615.6,635.1,4624.7,635.1,4636.8z M602.2,4636.7c0,6.7,5.1,11.9,11.5,11.9
				c6.3,0,11.4-5.2,11.4-11.7c0-6.9-4.9-12.2-11.4-12.2C607.1,4624.7,602.2,4629.9,602.2,4636.7z"/>
			<path class="st1" d="M650.9,4657H641v-40.6h13.1c5.4,0,9.3,1,11.9,3c2.8,2.2,4.4,5.8,4.4,10.3c0,6.1-2.6,10.3-7.9,12.4l8.9,14.9
				h-11.8l-8.9-15.7v15.7H650.9z M654,4635.8c4.1,0,6.5-2.1,6.5-5.6c0-3.4-2.3-5.7-5.8-5.7h-3.8v11.3L654,4635.8L654,4635.8z"/>
			<path class="st1" d="M717.9,4633.9c0.1,0.8,0.1,1.8,0.1,2.1c0,6.7-2.2,11.9-6.7,16.1c-4.1,3.7-9.4,5.7-14.9,5.7
				c-12.1,0-21.2-9.1-21.2-21c0-12.1,9.1-21.2,21.1-21.2c6.8,0,13,2.9,17.1,8l-7.5,5.8c-2.6-3.2-5.5-4.7-9.3-4.7
				c-6.5,0-11.4,5.2-11.4,12.1c0,6.7,5.2,12,11.9,12c4.7,0,8.5-2.7,10.2-7h-10v-8h20.6V4633.9z"/>
			<path class="st1" d="M731.3,4632.7h13.4v8h-13.4v8.4h13.4v8h-23.2v-40.6h23.2v8h-13.4V4632.7z"/>
		</g>
		<g>
			<path class="st1" d="M593.6,4543.1l-0.4-0.5l-3.6-5.4l-0.1-0.1l-0.2-0.3h-0.6l-3.9-0.2l-1.5-0.1h-0.4c-0.4,0-0.8,0.3-0.8,0.7
				l-0.1,6l-0.4,0.2l-3-7.7c0-0.1-0.1-0.3,0-0.4l0.7-3.6l0.4-2l0,0l-1.9,0.8l-10,3.7c-0.2,0.1-0.4,0.1-0.6,0l-1.6-0.8
				c-0.7-0.3-0.5-1.4,0.3-1.4l0,0h0.2l0.2-0.1l15.4-7.6c0.1-0.1,0.2-0.1,0.3-0.1l5.2,0.1c0.3,0,0.5,0.2,0.6,0.4l6,11.3
				c0.1,0.1,0.1,0.2,0.1,0.3l0.2,5.3l0.1,2.2L593.6,4543.1z"/>
			<path class="st1" d="M592.7,4545.6l-0.4,1.4l0,0l-0.4,0.2l-14.5,9.5c-0.5,0.3-1.2,0.2-1.5-0.4l-1.8-3.2l-0.3-0.6l-3-0.4l-1.8,0.5
				l0.7-6.6l3.1-1.8l0.4-1.1l-0.5-0.9l-1.1-0.2l-3,1.7l-0.2-0.2c-0.1-0.2-0.2-0.4-0.2-0.6v-6.6c0-0.4,0.3-0.8,0.7-1l6.8-2.7
				c0.8-0.3,1.6,0.4,1.4,1.2l-0.2,1.2c0,0.2,0,0.4,0.1,0.6l3.6,9.1l0.4,0.9l0.9-0.5l1-0.5c0.4-0.2,0.6-0.5,0.6-0.9l0.1-4.4
				c0-0.6,0.5-1,1.1-1h0.1l1.1,0.1l2.6,0.1h0.2l3.9,5.8C592.8,4545,592.8,4545.3,592.7,4545.6z"/>
		</g>
		<g>
			<path class="st1" d="M715.3,4543.1l0.4-0.5l3.6-5.4l0.1-0.1l0.2-0.3h0.6l3.9-0.2l1.5-0.1h0.4c0.4,0,0.8,0.3,0.8,0.7l0.1,6
				l0.4,0.2l3-7.7c0-0.1,0.1-0.3,0-0.4l-0.7-3.6l-0.4-2l0,0l1.9,0.8l10,3.7c0.2,0.1,0.4,0.1,0.6,0l1.6-0.8c0.7-0.3,0.5-1.4-0.3-1.4
				l0,0h-0.2l-0.2-0.1l-15.4-7.6c-0.1-0.1-0.2-0.1-0.3-0.1l-5.2,0.1c-0.3,0-0.5,0.2-0.6,0.4l-6,11.3c-0.1,0.1-0.1,0.2-0.1,0.3
				l-0.2,5.3l-0.1,2.2L715.3,4543.1z"/>
			<path class="st1" d="M716.2,4545.6l0.4,1.4l0,0l0.4,0.2l14.5,9.5c0.5,0.3,1.2,0.2,1.5-0.4l1.8-3.2l0.3-0.6l3-0.4l1.8,0.5
				l-0.7-6.6l-3.1-1.8l-0.4-1.1l0.5-0.9l1.1-0.2l3,1.7l0.2-0.2c0.1-0.2,0.2-0.4,0.2-0.6v-6.6c0-0.4-0.3-0.8-0.7-1l-6.8-2.7
				c-0.8-0.3-1.6,0.4-1.4,1.2l0.2,1.2c0,0.2,0,0.4-0.1,0.6l-3.6,9.1l-0.4,0.9l-0.9-0.5l-1-0.5c-0.4-0.2-0.6-0.5-0.6-0.9l-0.1-4.4
				c0-0.6-0.5-1-1.1-1h-0.1l-1.1,0.1l-2.6,0.1h-0.2l-3.9,5.8C716.2,4545,716.1,4545.3,716.2,4545.6z"/>
		</g>
	</g>
	<g>
		<path class="st1" d="M235.3,4750.4h0.8c0.6,0,0.9-0.3,0.9-0.9v-12.3c0-0.6-0.3-0.9-0.9-0.9h-0.8v-4.8h18v7.2h-4.9v-1.4
			c0-0.6-0.3-0.9-0.9-0.9H243v4.6h5.4v4.2H243v5.3h4.6c0.6,0,0.9-0.3,0.9-0.9v-1.9h4.9v7.6h-18.2L235.3,4750.4L235.3,4750.4z"/>
		<path class="st1" d="M257.1,4737.3c-0.2-0.7-0.6-1-1.3-1H255v-4.8h10.6v4.8h-0.8c-0.8,0-1.2,0.5-1,1.4l3,10.8l3-10.8
			c0.3-0.9-0.1-1.4-1-1.4H268v-4.8h10.4v4.8h-0.7c-0.7,0-1.1,0.3-1.3,1l-6.1,18h-7.2L257.1,4737.3z"/>
		<path class="st1" d="M280.1,4750.4h0.8c0.6,0,0.9-0.3,0.9-0.9v-12.3c0-0.6-0.3-0.9-0.9-0.9h-0.8v-4.8h18v7.2h-4.9v-1.4
			c0-0.6-0.3-0.9-0.9-0.9h-4.5v4.6h5.4v4.2h-5.4v5.3h4.6c0.6,0,0.9-0.3,0.9-0.9v-1.9h4.9v7.6H280v-4.9H280.1z"/>
		<path class="st1" d="M300.1,4750.4h0.8c0.6,0,0.9-0.3,0.9-0.9v-12.3c0-0.6-0.3-0.9-0.9-0.9h-0.8v-4.8h11.2c5.4,0,9,2.7,9,7.5
			c0,3.2-1.7,5.4-4.5,6.4l2,4c0.4,0.8,1,1,1.8,1h1.1v4.8h-6.6l-4.1-9h-2v3.3c0,0.6,0.3,0.9,0.9,0.9h1.4v4.8h-10.1L300.1,4750.4
			L300.1,4750.4z M311,4741.6c1.8,0,3.1-0.9,3.1-2.7c0-1.7-1.3-2.6-3.1-2.6h-3v5.2h3V4741.6z"/>
		<path class="st1" d="M326.7,4750.4h1c0.5,0,0.9-0.3,0.9-0.9v-2.5l-5.9-9.9c-0.3-0.6-0.8-0.8-1.3-0.8h-0.5v-4.8h9.9v4.8h-0.7
			c-0.8,0-1.1,0.5-0.7,1.2l2.6,4.8l2.6-4.8c0.4-0.7,0.1-1.2-0.7-1.2h-0.8v-4.8h9.8v4.8h-0.5c-0.6,0-1,0.2-1.4,0.8l-5.9,9.9v2.5
			c0,0.6,0.3,0.9,0.9,0.9h1v4.8h-10.4v-4.8H326.7z"/>
		<path class="st1" d="M349.9,4750.4h1.1c0.6,0,0.9-0.3,0.9-0.9V4736h-1.6c-0.6,0-0.9,0.3-0.9,0.9v3.7h-5.1v-9.2H366v9.2h-5v-3.7
			c0-0.6-0.3-0.9-0.9-0.9h-1.6v13.5c0,0.6,0.3,0.9,0.9,0.9h1v4.8H350v-4.8H349.9z"/>
		<path class="st1" d="M367.4,4750.4h0.8c0.6,0,0.9-0.3,0.9-0.9v-12.3c0-0.6-0.3-0.9-0.9-0.9h-0.8v-4.8h10.9v4.8h-1.8
			c-0.6,0-0.9,0.3-0.9,0.9v3.2h7.9v-3.2c0-0.6-0.3-0.9-0.9-0.9h-1.8v-4.8h10.9v4.8h-0.8c-0.6,0-0.9,0.3-0.9,0.9v12.3
			c0,0.6,0.3,0.9,0.9,0.9h0.8v4.8h-10.9v-4.8h1.8c0.5,0,0.9-0.3,0.9-0.9v-4.3h-7.9v4.3c0,0.6,0.3,0.9,0.9,0.9h1.8v4.8h-10.9V4750.4z
			"/>
		<path class="st1" d="M393.5,4750.4h1c0.6,0,0.9-0.3,0.9-0.9v-12.3c0-0.6-0.3-0.9-0.9-0.9h-1v-4.8h10.2v4.8h-1
			c-0.6,0-0.9,0.3-0.9,0.9v12.3c0,0.6,0.3,0.9,0.9,0.9h1v4.8h-10.2V4750.4z"/>
		<path class="st1" d="M405.5,4750.4h0.8c0.6,0,0.9-0.3,0.9-0.9v-12.3c0-0.6-0.3-0.9-0.9-0.9h-0.8v-4.8h6.6l10.6,13.7v-8
			c0-0.6-0.3-0.9-0.9-0.9H420v-4.8h10.5v4.8h-0.7c-0.6,0-0.9,0.3-0.9,0.9v18H424l-10.7-13.8v8.1c0,0.6,0.3,0.9,0.9,0.9h1.8v4.8
			h-10.6v-4.8H405.5z"/>
		<path class="st1" d="M431.2,4743.4c0-7.2,4.9-12.3,11.5-12.3c2.9,0,5.4,1.1,6.9,3.1l0.1-2.7h5.2v8.5h-5.4
			c-0.3-1.5-2.3-3.2-5.4-3.2c-3.9,0-6.4,2.8-6.4,6.7c0,4.3,2.6,6.9,6.7,6.9c2.8,0,5.2-1.4,5.2-3.2l0,0c0-0.5-0.3-0.9-0.9-0.9h-5.8
			v-4.7h12v13.7h-5.2l-0.1-2.4c-1.3,1.8-3.6,2.9-6.8,2.9C436.5,4755.7,431.2,4751.1,431.2,4743.4z"/>
		<path class="st1" d="M462.6,4750.4h1c0.6,0,0.9-0.3,0.9-0.9v-12.3c0-0.6-0.3-0.9-0.9-0.9h-1v-4.8h10.2v4.8h-1
			c-0.6,0-0.9,0.3-0.9,0.9v12.3c0,0.6,0.3,0.9,0.9,0.9h1v4.8h-10.2V4750.4z"/>
		<path class="st1" d="M479.9,4753.7l-0.1-0.1l-0.1,1.7h-5.2v-8.2h5.5v0.2c0,1,0.3,1.7,0.9,2.3c0.7,0.7,1.7,1.1,3,1.1
			c1.1,0,1.9-0.3,2.4-0.8c0.4-0.4,0.6-1,0.6-1.6s-0.2-1-0.6-1.4c-0.5-0.5-1.5-0.9-2.8-1.2l-1.6-0.4c-2.7-0.6-4.5-1.4-5.7-2.6
			c-1.2-1.1-1.7-2.7-1.7-4.6c0-2,0.7-3.7,2-5s3.3-2.2,5.6-2.2c2.2,0,4.1,0.7,5.2,1.8c0.1,0.1,0.2,0.2,0.3,0.3l0.1-1.7h4.9v7.4h-5.3
			v-0.2c0-0.9-0.3-1.5-0.7-2c-0.6-0.6-1.5-0.9-2.5-0.9c-0.9,0-1.6,0.3-2.1,0.7c-0.3,0.3-0.5,0.8-0.5,1.4c0,0.5,0.1,0.9,0.4,1.1
			c0.4,0.4,1.1,0.7,2.2,0.9l1.5,0.3c2.8,0.6,4.9,1.5,6.2,2.8c1.3,1.3,1.8,2.9,1.8,5s-0.8,3.9-2,5.2c-1.5,1.4-3.5,2.3-6,2.3
			C483.2,4755.7,481.2,4755,479.9,4753.7z"/>
		<path class="st1" d="M228.6,4788.4h0.8c0.6,0,0.9-0.3,0.9-0.9v-12.3c0-0.6-0.3-0.9-0.9-0.9h-0.8v-4.8h10.9v4.8h-1.8
			c-0.6,0-0.9,0.3-0.9,0.9v3.2h7.9v-3.2c0-0.6-0.3-0.9-0.9-0.9H242v-4.8h10.9v4.8h-0.8c-0.6,0-0.9,0.3-0.9,0.9v12.3
			c0,0.6,0.3,0.9,0.9,0.9h0.8v4.8H242v-4.8h1.8c0.5,0,0.9-0.3,0.9-0.9v-4.3h-7.9v4.3c0,0.6,0.3,0.9,0.9,0.9h1.8v4.8h-10.9V4788.4z"
			/>
		<path class="st1" d="M254.5,4788.4h0.9c0.7,0,1.1-0.3,1.3-1l4.5-13.1h-2.6v-4.8h11.9l6.1,18c0.2,0.7,0.6,1,1.3,1h0.8v4.8h-10.9
			v-4.8h1.1c0.8,0,1.2-0.5,1-1.4l-0.4-1.6h-6.1l-0.4,1.6c-0.3,0.9,0.2,1.4,1,1.4h1.1v4.8h-10.6L254.5,4788.4L254.5,4788.4z
			 M268.5,4781.5l-2-7.1l-2,7.1H268.5z"/>
		<path class="st1" d="M280.5,4788.4h0.8c0.6,0,0.9-0.3,0.9-0.9v-12.3c0-0.6-0.3-0.9-0.9-0.9h-0.8v-4.8h11.2c5.4,0,9,2.7,9,7.5
			c0,3.2-1.7,5.4-4.5,6.4l2,4c0.4,0.8,1,1,1.8,1h1.1v4.8h-6.6l-4.1-9h-2.1v3.3c0,0.6,0.3,0.9,0.9,0.9h1.4v4.8h-10.1L280.5,4788.4
			L280.5,4788.4z M291.4,4779.6c1.8,0,3.1-0.9,3.1-2.7c0-1.7-1.3-2.6-3.1-2.6h-3.1v5.2h3.1V4779.6z"/>
		<path class="st1" d="M302.9,4788.4h0.8c0.6,0,0.9-0.3,0.9-0.9v-12.3c0-0.6-0.3-0.9-0.9-0.9h-0.8v-4.8H313c7.8,0,12.5,5,12.5,11.9
			s-4.7,11.9-12.5,11.9h-10.1V4788.4z M312.5,4788.1c4,0,6.6-2.3,6.6-6.6c0-4.3-2.5-6.8-6.6-6.8h-1.7v13.4H312.5z"/>
		<path class="st1" d="M332.9,4788.4h0.8c0.6,0,0.9-0.3,0.9-0.9v-12.3c0-0.6-0.3-0.9-0.9-0.9h-0.8v-4.8h11.7c4.6,0,7.2,2.4,7.2,5.9
			c0,1.9-1.1,3.8-2.5,4.6c2.2,0.6,4.5,2.7,4.5,6c0,4.5-3.2,7.3-9,7.3H333v-4.9H332.9z M343.3,4778.5c1.6,0,2.3-1,2.3-2.2
			c0-1.1-0.7-2.1-2.4-2.1h-2.6v4.3L343.3,4778.5L343.3,4778.5z M344.1,4788.4c2.1,0,3.1-1.1,3.1-2.7c0-1.4-1-2.6-2.9-2.6h-3.5v5.3
			L344.1,4788.4L344.1,4788.4z"/>
		<path class="st1" d="M355,4788.4h0.8c0.6,0,0.9-0.3,0.9-0.9v-12.3c0-0.6-0.3-0.9-0.9-0.9H355v-4.8h18v7.2h-4.9v-1.4
			c0-0.6-0.3-0.9-0.9-0.9h-4.5v4.6h5.4v4.2h-5.4v5.3h4.6c0.6,0,0.9-0.3,0.9-0.9v-1.9h4.9v7.6H355V4788.4z"/>
		<path class="st1" d="M375,4788.4h0.8c0.6,0,0.9-0.3,0.9-0.9v-12.3c0-0.6-0.3-0.9-0.9-0.9H375v-4.8h17.8v7.3h-5.4v-1.6
			c0-0.6-0.3-0.9-0.9-0.9h-3.6v4.8h5.1v4.2h-5.1v4.2c0,0.6,0.3,0.9,0.9,0.9h1.6v4.8H375V4788.4z"/>
		<path class="st1" d="M393.3,4781.4c0-7.1,5.1-12.4,12.2-12.4c7.2,0,12.2,5.3,12.2,12.4s-5.1,12.3-12.2,12.3
			C398.4,4793.8,393.3,4788.5,393.3,4781.4z M411.4,4781.4c0-3.7-2.4-6.4-5.8-6.4c-3.5,0-5.8,2.7-5.8,6.4c0,3.6,2.3,6.4,5.8,6.4
			C409,4787.8,411.4,4785.1,411.4,4781.4z"/>
		<path class="st1" d="M418.7,4788.4h0.8c0.6,0,0.9-0.3,0.9-0.9v-12.3c0-0.6-0.3-0.9-0.9-0.9h-0.8v-4.8h11.2c5.4,0,9,2.7,9,7.5
			c0,3.2-1.7,5.4-4.5,6.4l2,4c0.4,0.8,1,1,1.8,1h1.1v4.8h-6.6l-4.1-9h-2.1v3.3c0,0.6,0.3,0.9,0.9,0.9h1.4v4.8h-10.1L418.7,4788.4
			L418.7,4788.4z M429.6,4779.6c1.8,0,3.1-0.9,3.1-2.7c0-1.7-1.3-2.6-3.1-2.6h-3.1v5.2h3.1V4779.6z"/>
		<path class="st1" d="M441.1,4788.4h0.8c0.6,0,0.9-0.3,0.9-0.9v-12.3c0-0.6-0.3-0.9-0.9-0.9h-0.8v-4.8h18v7.2h-4.9v-1.4
			c0-0.6-0.3-0.9-0.9-0.9h-4.5v4.6h5.4v4.2h-5.4v5.3h4.6c0.6,0,0.9-0.3,0.9-0.9v-1.9h4.9v7.6H441v-4.9H441.1z"/>
		<path class="st1" d="M467,4788.4h1c0.6,0,0.9-0.3,0.9-0.9v-12.3c0-0.6-0.3-0.9-0.9-0.9h-1v-4.8h10.2v4.8h-1
			c-0.6,0-0.9,0.3-0.9,0.9v12.3c0,0.6,0.3,0.9,0.9,0.9h1v4.8H467V4788.4z"/>
		<path class="st1" d="M484.3,4788.4h1.1c0.6,0,0.9-0.3,0.9-0.9V4774h-1.6c-0.6,0-0.9,0.3-0.9,0.9v3.7h-5.1v-9.2h21.7v9.2h-5v-3.7
			c0-0.6-0.3-0.9-0.9-0.9h-1.6v13.5c0,0.6,0.3,0.9,0.9,0.9h1v4.8h-10.4v-4.8H484.3z"/>
		<path class="st1" d="M272.7,4819.4c0-7.2,4.9-12.3,11.5-12.3c2.9,0,5.4,1.1,6.9,3.1l0.1-2.7h5.2v8.5H291c-0.3-1.5-2.3-3.2-5.4-3.2
			c-3.9,0-6.4,2.8-6.4,6.7c0,4.3,2.6,6.9,6.7,6.9c2.8,0,5.2-1.4,5.2-3.2l0,0c0-0.5-0.3-0.9-0.9-0.9h-5.8v-4.7h12v13.7h-5.2l-0.1-2.4
			c-1.3,1.8-3.6,2.9-6.8,2.9C277.9,4831.8,272.7,4827.1,272.7,4819.4z"/>
		<path class="st1" d="M298.7,4826.5h0.8c0.6,0,0.9-0.3,0.9-0.9v-12.3c0-0.6-0.3-0.9-0.9-0.9h-0.8v-4.8h18v7.2h-4.9v-1.4
			c0-0.6-0.3-0.9-0.9-0.9h-4.5v4.6h5.4v4.2h-5.4v5.3h4.6c0.6,0,0.9-0.3,0.9-0.9v-1.9h4.9v7.6h-18.2v-4.9H298.7z"/>
		<path class="st1" d="M324.2,4826.5h1.1c0.6,0,0.9-0.3,0.9-0.9v-13.5h-1.6c-0.6,0-0.9,0.3-0.9,0.9v3.7h-5.1v-9.2h21.7v9.2h-5v-3.7
			c0-0.6-0.3-0.9-0.9-0.9h-1.6v13.5c0,0.6,0.3,0.9,0.9,0.9h1v4.8h-10.4v-4.8H324.2z"/>
		<path class="st1" d="M347.1,4829.7l-0.1-0.1l-0.1,1.7h-5.2v-8.2h5.5v0.2c0,1,0.3,1.7,0.9,2.3c0.7,0.7,1.7,1.1,3,1.1
			c1.1,0,1.9-0.3,2.4-0.8c0.4-0.4,0.6-1,0.6-1.6s-0.2-1-0.6-1.4c-0.5-0.5-1.5-0.9-2.8-1.2l-1.6-0.4c-2.7-0.6-4.5-1.4-5.7-2.6
			c-1.2-1.1-1.7-2.7-1.7-4.6c0-2,0.7-3.7,2-5s3.3-2.2,5.6-2.2c2.2,0,4.1,0.7,5.2,1.8c0.1,0.1,0.2,0.2,0.3,0.3l0.1-1.7h4.9v7.4h-5.3
			v-0.2c0-0.9-0.3-1.5-0.7-2c-0.6-0.6-1.5-0.9-2.5-0.9c-0.9,0-1.6,0.3-2.1,0.7c-0.3,0.3-0.5,0.8-0.5,1.4c0,0.5,0.1,0.9,0.4,1.1
			c0.4,0.4,1.1,0.7,2.2,0.9l1.5,0.3c2.8,0.6,4.9,1.5,6.2,2.8c1.3,1.3,1.8,2.9,1.8,5s-0.8,3.9-2,5.2c-1.5,1.4-3.5,2.3-6,2.3
			C350.4,4831.8,348.5,4831,347.1,4829.7z"/>
		<path class="st1" d="M368.3,4826.5h0.8c0.6,0,0.9-0.3,0.9-0.9v-12.3c0-0.6-0.3-0.9-0.9-0.9h-0.8v-4.8h18v7.2h-4.9v-1.4
			c0-0.6-0.3-0.9-0.9-0.9H376v4.6h5.4v4.2H376v5.3h4.6c0.6,0,0.9-0.3,0.9-0.9v-1.9h4.9v7.6h-18.2v-4.9H368.3z"/>
		<path class="st1" d="M388.1,4826.5h0.9c0.7,0,1.1-0.3,1.3-1l4.5-13.1h-2.6v-4.8h11.9l6.1,18c0.2,0.7,0.6,1,1.3,1h0.8v4.8h-10.9
			v-4.8h1.1c0.8,0,1.2-0.5,1-1.4l-0.4-1.6H397l-0.4,1.6c-0.3,0.9,0.2,1.4,1,1.4h1.1v4.8h-10.6V4826.5z M402.1,4819.5l-2-7.1l-2,7.1
			H402.1z"/>
		<path class="st1" d="M419.4,4829.7l-0.1-0.1l-0.1,1.7H414v-8.2h5.5v0.2c0,1,0.3,1.7,0.9,2.3c0.7,0.7,1.7,1.1,3,1.1
			c1.1,0,1.9-0.3,2.4-0.8c0.4-0.4,0.6-1,0.6-1.6s-0.2-1-0.6-1.4c-0.5-0.5-1.5-0.9-2.8-1.2l-1.6-0.4c-2.7-0.6-4.5-1.4-5.7-2.6
			c-1.2-1.1-1.7-2.7-1.7-4.6c0-2,0.7-3.7,2-5s3.3-2.2,5.6-2.2c2.2,0,4.1,0.7,5.2,1.8c0.1,0.1,0.2,0.2,0.3,0.3l0.1-1.7h4.9v7.4h-5.3
			v-0.2c0-0.9-0.3-1.5-0.7-2c-0.6-0.6-1.5-0.9-2.5-0.9c-0.9,0-1.6,0.3-2.1,0.7c-0.3,0.3-0.5,0.8-0.5,1.4c0,0.5,0.1,0.9,0.4,1.1
			c0.4,0.4,1.1,0.7,2.2,0.9l1.5,0.3c2.8,0.6,4.9,1.5,6.2,2.8c1.3,1.3,1.8,2.9,1.8,5s-0.8,3.9-2,5.2c-1.5,1.4-3.5,2.3-6,2.3
			C422.7,4831.8,420.7,4831,419.4,4829.7z"/>
		<path class="st1" d="M439.6,4826.5h1c0.5,0,0.9-0.3,0.9-0.9v-2.5l-5.9-9.9c-0.3-0.6-0.8-0.8-1.3-0.8h-0.5v-4.8h9.9v4.8H443
			c-0.8,0-1.1,0.5-0.7,1.2l2.6,4.8l2.6-4.8c0.4-0.7,0.1-1.2-0.7-1.2H446v-4.8h9.8v4.8h-0.5c-0.6,0-1,0.2-1.4,0.8l-5.9,9.9v2.5
			c0,0.6,0.3,0.9,0.9,0.9h1v4.8h-10.4v-4.8H439.6z"/>
	</g>
</g>
<g>
	<g class="st8">
		<g>
			<path class="st9" d="M31.7,504.6v2.9h19.4v3.4v8H31.7v9.2v6.3v8H17.5v-8v-6.3v-44 M51.1,495.6v-2.5v-5.6v-3.4H31.7"/>
			<path class="st9" d="M117.6,506L117.6,506c0.2,1.1,0.4,2.1,0.6,3.3c0.2,1.3,0.3,2.7,0.3,4.1c0,16.7-13.6,30.2-30.5,30.2
				c-17.4,0-31.2-13.3-31.2-30.1c0-1.4,0.1-2.7,0.3-4c0.1-1.1,0.3-2.1,0.6-3.2 M78.7,484.2L78.7,484.2c3-0.8,6.1-1.3,9.4-1.3
				c2.6,0,5.1,0.3,7.5,0.9h0 M78.9,528C78.9,528,78.9,528,78.9,528c2.5,1.6,5.5,2.5,8.6,2.5c3,0,5.9-0.8,8.3-2.3 M102.6,506.2
				C102.6,506.2,102.6,506.2,102.6,506.2c-2.5-6.1-8.1-10.1-14.9-10.1c-7,0-12.7,4-15.2,10"/>
			<path class="st9" d="M141,484.1h4.7c2.9,0,5.4,0.2,7.7,0.6 M164.2,517.1c3.4-3.3,5-7.9,5-13.8c0-1.4-0.1-2.7-0.3-3.9v0
				c-0.2-1.1-0.4-2.1-0.8-3.1 M126.9,484.1v44v6.3v8H141v-8v-6.3v-8.2l12.8,22.6h17l-4.8-8l-3.8-6.3 M141,497.6v-1.8h5.4
				c1.6,0,2.9,0.3,4.1,0.9 M144.6,511.9h-3.6h0v-0.1v-6.3v-1.6"/>
			<path class="st9" d="M198.4,528.2c2.6,1.6,5.6,2.5,8.9,2.5c3.8,0,7.1-1.2,9.8-3.3 M235.7,509.2h1.5h0.2c0.1,1.1,0.1,2.5,0.1,3.1
				c0,9.6-3.2,17.1-9.6,23.1c-5.9,5.2-13.5,8.2-21.4,8.2c-17.3,0-30.5-13-30.5-30.2c0-1.4,0.1-2.7,0.2-4.1v0
				c0.1-1.1,0.3-2.1,0.6-3.2c0,0,0,0,0,0 M207.6,516.4v-3.7v-3.4h12.9 M230.4,494.9l0.4-0.3c-1.4-1.7-2.9-3.2-4.5-4.5
				c-1.4-1.1-2.8-2.1-4.4-3c-2-1.1-4.1-2-6.3-2.7c0,0,0,0,0,0c-3-0.9-6.2-1.4-9.4-1.4c-2.7,0-5.3,0.3-7.7,0.9c0,0,0,0,0,0
				 M191.7,506.1c2.5-6.1,8.2-10,15-10c0.3,0,0.6,0,0.9,0"/>
			<path class="st9" d="M256.6,528.1v2.9h19.2v3.4v8h-33.4v-8v-6.3v-44 M275.9,495.6v-2.5v-5.6v-3.4h-19.2 M275.9,518.9v-2.3v-5.7
				v-3.4h-19.2v-2.9"/>
		</g>
	</g>
	<g class="st10">
		<g>
			<path class="st11" d="M51.1,499.5v5.1v2.9v3.4H31.7v8v9.2v6.3H17.5v-6.3v-44v-8 M51.1,476.1v5.1v2.9v3.4H31.7v5.6"/>
			<path class="st11" d="M56.8,502.3c-0.1,1.1-0.2,2.1-0.2,3.2c0,1.3,0.1,2.7,0.3,4c2,14.9,15,26.1,31,26.1
				c15.5,0,28.3-11.4,30.3-26.3c0.2-1.3,0.3-2.6,0.3-3.9c0-1.1-0.1-2.2-0.2-3.3 M71.3,502.1c1.4-8.2,7.9-14,16.4-14
				c8.3,0,14.7,5.9,16.1,14.2"/>
			<path class="st11" d="M169,492.2c0.1,1,0.2,2,0.2,3.1c0,1.4-0.1,2.8-0.3,4.1v0c-0.9,5.5-3.5,9.6-8,12.2 M126.9,476.1v8v44v6.3
				H141v-6.3v-8.2v-8v-0.1l0,0.1l12.7,22.5h12.2h4.8l-3.8-6.3 M141,497.6v-1.8v-8h5.4c3.9,0,6.7,1.9,7.9,5"/>
			<path class="st11" d="M237.4,501.2L237.4,501.2c0.1,1.1,0.1,2.5,0.1,3.1c0,1.7-0.1,3.4-0.3,5c-0.9,7.3-4,13.2-9.3,18.1
				c-5.9,5.3-13.5,8.2-21.4,8.2c-16,0-28.4-11.1-30.3-26.2v0c-0.2-1.3-0.2-2.6-0.2-4c0-1.1,0.1-2.2,0.1-3.2 M207.6,501.2v5.1v2.9
				v3.4h10 M190.5,502.3L190.5,502.3c1.3-8.3,7.9-14.2,16.2-14.2c5.5,0,9.6,2.1,13.4,6.7l6.2-4.8l4.5-3.5c-1.1-1.3-2.2-2.5-3.5-3.7"
				/>
			<path class="st11" d="M275.9,523v5.1v2.9v3.4h-33.4v-6.3v-44v-8 M256.6,516.6v-5.7h19.2v-3.4v-2.9v-5.1 M256.6,493.1v-5.6h19.2
				v-3.4v-2.9v-5.1"/>
		</g>
	</g>
	<g>
		<path class="st12" d="M31.7,493.1h19.4v11.5H31.7v23.5H17.5v-58.3h33.6v11.5H31.7V493.1z"/>
		<path class="st12" d="M118.4,499.1c0,16.7-13.6,30.2-30.5,30.2c-17.4,0-31.2-13.3-31.2-30.1c0-8.5,3.4-16.4,9.8-22.4
			c5.6-5.2,13.2-8.1,21.8-8.1C105.4,468.6,118.4,481.7,118.4,499.1z M71.1,499c0,9.6,7.3,17.1,16.5,17.1c9.1,0,16.4-7.5,16.4-16.9
			c0-10-7-17.5-16.4-17.5C78.1,481.7,71.1,489.1,71.1,499z"/>
		<path class="st12" d="M141,528.1h-14.2v-58.3h18.9c7.7,0,13.3,1.4,17.1,4.4c4,3.1,6.3,8.4,6.3,14.8c0,8.8-3.8,14.8-11.3,17.8
			l12.9,21.4h-17L141,505.5V528.1z M145.6,497.6c5.9,0,9.3-3,9.3-8c0-4.9-3.3-8.1-8.4-8.1H141v16.2H145.6z"/>
		<path class="st12" d="M237.4,494.9c0.1,1.1,0.1,2.5,0.1,3.1c0,9.6-3.1,17.1-9.6,23.1c-5.9,5.2-13.5,8.2-21.4,8.2
			c-17.3,0-30.5-13-30.5-30.2c0-17.3,13.1-30.4,30.4-30.4c9.8,0,18.6,4.2,24.6,11.5l-10.8,8.3c-3.8-4.6-7.9-6.7-13.4-6.7
			c-9.4,0-16.4,7.4-16.4,17.4c0,9.6,7.5,17.2,17.1,17.2c6.7,0,12.2-3.8,14.6-10.1h-14.3v-11.5H237.4z"/>
		<path class="st12" d="M256.6,493.1h19.2v11.5h-19.2v12.1h19.2v11.5h-33.4v-58.3h33.4v11.5h-19.2V493.1z"/>
	</g>
</g>
</svg>
