<svg id="Group_909" data-name="Group 909" xmlns="http://www.w3.org/2000/svg" xmlns:xlink="http://www.w3.org/1999/xlink" width="411" height="425.845" viewBox="0 0 411 425.845">
  <defs>
    <clipPath id="clip-path">
      <rect id="Rectangle_1175" data-name="Rectangle 1175" width="411.001" height="425.845" fill="none"/>
    </clipPath>
  </defs>
  <g id="Group_908" data-name="Group 908" clip-path="url(#clip-path)">
    <path id="Path_1372" data-name="Path 1372" d="M124.342,62.6l-.647-4.146-2.888-14.026a4.152,4.152,0,0,0-.648-1.492l-7.522-10.716a4.073,4.073,0,0,0-1.4-1.237L90.381,19.864a4.109,4.109,0,0,0-1.149-.4L69.255,15.725a4.008,4.008,0,0,0-2.758.481L55.141,22.84a3.2,3.2,0,0,1-.306.16l-3.3,1.579a4.017,4.017,0,0,1-3.61-.088L37.426,18.9a4.037,4.037,0,0,0-2.83-.356l-.32.6-.313.6a4.039,4.039,0,0,0,1.87,2.147l10.506,5.595a4.012,4.012,0,0,1,2.081,2.947l.538,3.623c.015.109.029.225.037.334l.822,13.133a4.011,4.011,0,0,0,1.142,2.553L65.2,64.564a3.825,3.825,0,0,0,.975.727L87.034,76.408a4.04,4.04,0,0,0,1.805.472l12.964.262a4.02,4.02,0,0,0,1.819-.393l13.051-6.271,4.3-1.8a3.968,3.968,0,0,0,1.994-1.811l.451-.844.494-.931a4.026,4.026,0,0,0,.429-2.5m-15.3-18.551.546-1.018a1.7,1.7,0,0,1,1.673-.9l.2.022a1.644,1.644,0,0,1,.619.19l1.353.727a1.632,1.632,0,0,1,.5.407l.131.153a1.691,1.691,0,0,1,.2,1.885l-.547,1.019a1.694,1.694,0,0,1-1.673.894l-.2-.022a1.813,1.813,0,0,1-.619-.188l-1.36-.728a1.7,1.7,0,0,1-.5-.407l-.124-.153a1.691,1.691,0,0,1-.2-1.885M98.951,36.853,100.2,34.51a1.7,1.7,0,0,1,1.739-.881l1.2.175a1.673,1.673,0,0,1,.56.181l2.648,1.412a1.7,1.7,0,0,1,.459.357l.815.9a1.7,1.7,0,0,1,.24,1.935L106.6,40.934a1.69,1.69,0,0,1-1.738.879l-1.2-.175a1.494,1.494,0,0,1-.553-.181l-2.648-1.412A1.591,1.591,0,0,1,100,39.69l-.816-.9a1.7,1.7,0,0,1-.232-1.935M87.908,30.5l1.907-3.579a1.687,1.687,0,0,1,1.651-.888l1.484.131a1.641,1.641,0,0,1,.64.2l2.794,1.484a1.67,1.67,0,0,1,.517.429l.938,1.157a1.694,1.694,0,0,1,.182,1.863l-1.907,3.579a1.705,1.705,0,0,1-1.651.9l-1.484-.138a1.867,1.867,0,0,1-.641-.19L89.544,33.95a1.64,1.64,0,0,1-.516-.422l-.938-1.157a1.7,1.7,0,0,1-.182-1.87m.99,7.4a1.714,1.714,0,0,1,.757.816l.916,2.094a1.719,1.719,0,0,1-.059,1.478l-5.151,9.662a1.7,1.7,0,0,1-1.193.873l-2.248.407a1.706,1.706,0,0,1-1.1-.175L78.246,51.68a1.688,1.688,0,0,1-.756-.815l-.917-2.089a1.726,1.726,0,0,1,.059-1.476l5.151-9.662a1.694,1.694,0,0,1,1.194-.872l2.247-.409a1.693,1.693,0,0,1,1.1.168Zm-12-12.12,1.251-2.35a1.694,1.694,0,0,1,1.732-.881l1.193.168a1.883,1.883,0,0,1,.553.182l2.633,1.4a1.671,1.671,0,0,1,.459.363l.807.888a1.706,1.706,0,0,1,.232,1.935l-1.251,2.35a1.7,1.7,0,0,1-1.738.881l-1.186-.175a1.453,1.453,0,0,1-.553-.182l-2.633-1.4a1.739,1.739,0,0,1-.459-.363l-.807-.888A1.7,1.7,0,0,1,76.9,25.78m-8.309-1.564.99-1.854a.727.727,0,0,1,.72-.379l.866.1a.641.641,0,0,1,.262.08l1.5.8a.71.71,0,0,1,.212.175l.568.669a.714.714,0,0,1,.08.807L72.8,26.456a.718.718,0,0,1-.72.379l-.865-.1a.635.635,0,0,1-.262-.08l-1.5-.794a.684.684,0,0,1-.21-.174l-.568-.669a.733.733,0,0,1-.088-.809M70.237,32.2a1.7,1.7,0,0,1,1.193-.873l1.878-.341a1.713,1.713,0,0,1,1.106.175l2.2,1.178a1.683,1.683,0,0,1,.757.815l.763,1.754a1.691,1.691,0,0,1-.051,1.476l-4.554,8.541a1.667,1.667,0,0,1-1.193.866l-1.878.341a1.691,1.691,0,0,1-1.1-.174l-2.211-1.179a1.652,1.652,0,0,1-.757-.815l-.763-1.745a1.7,1.7,0,0,1,.05-1.478ZM55.97,35.659a1.675,1.675,0,0,1,.015-1.563L59.3,27.86a1.7,1.7,0,0,1,1.3-.887l1.375-.168a1.681,1.681,0,0,1,1,.188l1.92,1.019a1.737,1.737,0,0,1,.713.735l.625,1.229a1.689,1.689,0,0,1-.015,1.572L62.9,37.776a1.682,1.682,0,0,1-1.3.888l-1.375.168a1.649,1.649,0,0,1-1-.19l-1.928-1.019A1.766,1.766,0,0,1,56.6,36.9Zm6.126,10.9-.99,1.856a.726.726,0,0,1-.72.378L59.52,48.7a.666.666,0,0,1-.262-.08l-1.5-.8a.806.806,0,0,1-.212-.166l-.566-.67a.727.727,0,0,1-.081-.815l.982-1.848a.721.721,0,0,1,.72-.378l.866.094a.648.648,0,0,1,.262.081l1.5.793a.692.692,0,0,1,.212.175l.568.669a.731.731,0,0,1,.087.807m9.334,7.835-1.251,2.351a1.7,1.7,0,0,1-1.738.879l-1.186-.168a1.856,1.856,0,0,1-.56-.181l-2.626-1.4a1.625,1.625,0,0,1-.466-.364l-.8-.887a1.7,1.7,0,0,1-.24-1.935l1.251-2.351a1.7,1.7,0,0,1,1.738-.879l1.186.174a1.555,1.555,0,0,1,.56.182l2.626,1.4a1.759,1.759,0,0,1,.466.363l.8.888a1.7,1.7,0,0,1,.24,1.935m10.651,6.817-1.906,3.58a1.7,1.7,0,0,1-1.652.9l-1.476-.139a1.553,1.553,0,0,1-.647-.188l-2.794-1.491a1.554,1.554,0,0,1-.517-.422l-.938-1.157a1.706,1.706,0,0,1-.182-1.87l1.907-3.579a1.687,1.687,0,0,1,1.651-.888l1.484.131a1.691,1.691,0,0,1,.641.2l2.794,1.484a1.646,1.646,0,0,1,.516.429l.938,1.15a1.7,1.7,0,0,1,.182,1.869m10.884,5.333-1.251,2.344a1.687,1.687,0,0,1-1.739.879l-1.2-.175a1.633,1.633,0,0,1-.553-.181L85.573,68a1.6,1.6,0,0,1-.466-.357l-.815-.9A1.694,1.694,0,0,1,84.06,64.8L85.3,62.462a1.689,1.689,0,0,1,1.738-.881l1.208.175a1.7,1.7,0,0,1,.553.181l2.648,1.412a1.564,1.564,0,0,1,.457.357l.816.9a1.7,1.7,0,0,1,.24,1.935m.873-7.952a1.682,1.682,0,0,1-1.1-.175l-2.213-1.178a1.688,1.688,0,0,1-.756-.815l-.764-1.747a1.7,1.7,0,0,1,.051-1.476l4.554-8.541a1.7,1.7,0,0,1,1.194-.873l1.876-.341a1.718,1.718,0,0,1,1.106.174L99.992,44.8a1.686,1.686,0,0,1,.756.815l.772,1.754a1.726,1.726,0,0,1-.059,1.476l-4.554,8.541a1.669,1.669,0,0,1-1.194.866Zm7.747,10.731-.546,1.019a1.7,1.7,0,0,1-1.673.9l-.2-.022a1.889,1.889,0,0,1-.619-.19L97.191,70.3a1.684,1.684,0,0,1-.5-.407l-.131-.153a1.686,1.686,0,0,1-.2-1.884l.546-1.019a1.7,1.7,0,0,1,1.673-.894l.2.021a1.673,1.673,0,0,1,.612.19l1.36.728a1.684,1.684,0,0,1,.5.407l.131.153a1.7,1.7,0,0,1,.2,1.884m9.465-14.295-3.7,6.94a1.72,1.72,0,0,1-1.2.873l-1.369.24a1.684,1.684,0,0,1-1.1-.175L101.978,62a1.721,1.721,0,0,1-.756-.815l-.56-1.273a1.7,1.7,0,0,1,.05-1.478l3.7-6.947a1.667,1.667,0,0,1,1.193-.866l1.376-.247a1.678,1.678,0,0,1,1.091.175l1.716.909a1.717,1.717,0,0,1,.757.815l.56,1.273a1.686,1.686,0,0,1-.059,1.485m7.2,5.543-2.233,4.205a1.722,1.722,0,0,1-1.207.873l-.481.079a1.669,1.669,0,0,1-1.091-.175l-.837-.443a1.716,1.716,0,0,1-.75-.809l-.2-.444a1.679,1.679,0,0,1,.05-1.491l2.241-4.2a1.678,1.678,0,0,1,1.2-.873l.479-.087a1.724,1.724,0,0,1,1.091.175l.837.451a1.644,1.644,0,0,1,.75.807l.2.444a1.692,1.692,0,0,1-.059,1.484" transform="translate(7.579 3.494)" fill="#f5f3ed"/>
    <path id="Path_1373" data-name="Path 1373" d="M266.043,109.544l-7.472,33a1.653,1.653,0,0,1-1.174,1.23l-41.651,11.5-.308.073-.273.218-17.018,12.5a1.656,1.656,0,0,1-2.588-.942l-3.014-12.31a1.66,1.66,0,0,1,.456-1.584l10.1-9.79a1.656,1.656,0,0,1,2.456.168l1.7,2.163.011.015a1.655,1.655,0,0,0,2.275.349l34.75-24.606.236-.168a1.656,1.656,0,0,0-.694-2.984l-.251-.042-5.613-.938a1.656,1.656,0,0,1-.656-.262l-4.738-3.207a1.654,1.654,0,0,1-.674-1.788l2.644-10.172.944-3.666.2-.744v-.018l-.127-.308,15.5-12.123.854-.689h.018l7.547,3.6a1.655,1.655,0,0,1,.879,1.037l5.664,19.669a1.666,1.666,0,0,1,.023.824" transform="translate(42.955 18.837)" fill="#f5f3ed"/>
    <path id="Path_1374" data-name="Path 1374" d="M194.365,70.147l-3.1,65.272a1.7,1.7,0,0,1-1.1,1.509L162.113,147.36a1.7,1.7,0,0,1-2.045-.716L126.407,90.7a1.7,1.7,0,0,1,.026-1.791L149.2,53.454a1.69,1.69,0,0,1,.5-.5l4.217-2.778.037.068,6.115-4.03,4.791-3.167L178,34.4a1.7,1.7,0,0,1,2.507.785l13.733,34.251a1.706,1.706,0,0,1,.12.712" transform="translate(28.153 7.614)" fill="#f5f3ed"/>
    <path id="Path_1375" data-name="Path 1375" d="M234.081,103.112a1.7,1.7,0,0,1,.051,1.043l-.637,2.359-.163.57-.291.329-39.906,43.571a1.7,1.7,0,0,1-2.863-.615l-4.693-14.251a1.705,1.705,0,0,1-.083-.612l3.142-66.066-.091-.225v-.051l-.144-.329L176.8,39.884a1.7,1.7,0,0,1,2.51-2.046L218.8,63.951a1.692,1.692,0,0,1,.649.81L233.8,102.38Z" transform="translate(39.423 8.379)" fill="#f5f3ed"/>
    <path id="Path_1376" data-name="Path 1376" d="M196.233,137.554l4.582,25.57a1.689,1.689,0,0,1-.254,1.233l-17.319,26.262-.454.653.146.78,5.425,27.09a1.69,1.69,0,0,1-.127,1.051l-16.857,36.06-.163.363v8.609a1.706,1.706,0,0,1-.253.893l-7.521,12.162a1.7,1.7,0,0,1-3.013-.251L133.031,211a1.68,1.68,0,0,1-.126-.64V190.624a1.711,1.711,0,0,1,.078-.508l2.118-6.737,12.335-39.357a1.714,1.714,0,0,1,.527-.793l4.594-3.854,6.535-5.482a1.755,1.755,0,0,1,.473-.283l30.3-11.819.58-.236Z" transform="translate(29.657 27.125)" fill="#f5f3ed"/>
    <path id="Path_1377" data-name="Path 1377" d="M152.412,130.493l-2.938,2.471a1.188,1.188,0,0,1-1.782-.295l-1.6-2.647a1.192,1.192,0,0,1-.171-.614V123.68a1.177,1.177,0,0,1,.079-.424l.327-.855a1.189,1.189,0,0,1,2.118-.2l4.208,6.758a1.187,1.187,0,0,1-.243,1.537" transform="translate(32.562 27.143)" fill="#f5f3ed"/>
    <path id="Path_1378" data-name="Path 1378" d="M155.234,137.944h0a1.607,1.607,0,0,0-.53.774l-14.185,45.247-.429,1.257-11.946-12.108-.565-.61a1.609,1.609,0,0,0-2.734,1.507l.214.809,3.1,11.7a1.609,1.609,0,0,1-.208,1.289L116.106,206a1.608,1.608,0,0,1-2.521.223L80.927,171.4a1.609,1.609,0,0,1-.435-1.1V159.163a1.608,1.608,0,0,1,.828-1.407l40.49-22.474a1.6,1.6,0,0,1,.78-.2h31.638a1.609,1.609,0,0,1,1.005,2.865" transform="translate(17.962 30.142)" fill="#f5f3ed"/>
    <path id="Path_1379" data-name="Path 1379" d="M225.81,254.7l-62.219,1.9a1.7,1.7,0,0,1-1.5-2.577l3.727-6.123,2.262-3.662a1.7,1.7,0,0,1,.7-.632l5.77-2.818a1.724,1.724,0,0,1,.731-.171l8.447-.067,9.835.13a1.7,1.7,0,0,0,.881-.232l7.163-4.2a1.707,1.707,0,0,1,.859-.232h9.756a1.693,1.693,0,0,1,.949.291l7.171,4.841a1.7,1.7,0,0,1,.52.558l3.279,5.68,3.043,4.7a1.7,1.7,0,0,1-1.371,2.619" transform="translate(36.114 52.666)" fill="#f5f3ed"/>
    <path id="Path_1380" data-name="Path 1380" d="M125.208,211.926l-.435-.454-12.107-11.917a1.7,1.7,0,0,1-.231-2.134l5.579-8.568a1.7,1.7,0,0,1,2.472-.406l11.759,9.281a1.7,1.7,0,0,1,.506.659l7.083,16.407,5.986,15.59a1.746,1.746,0,0,1,.105.455l1.128,12.422a1.691,1.691,0,0,1-.237,1.03l-3.227,5.34a1.709,1.709,0,0,0-.245.911l.172,8.8a1.7,1.7,0,0,1-1.7,1.73h-17.6l-.038-.412,4.25-2.877,2.847-2.052a1.694,1.694,0,0,0,.686-1.624l-1.818-12.3Z" transform="translate(25.028 41.97)" fill="#f5f3ed"/>
    <path id="Path_1381" data-name="Path 1381" d="M288.611,247.665h0a1.661,1.661,0,0,1-1.661,1.661H235.806l-.291.091-11.948,4.214a1.661,1.661,0,0,1-1.94-.654l-7.566-11.5a1.661,1.661,0,0,1-.216-1.347l.489-1.807a1.66,1.66,0,0,1,1.6-1.227h28.415l.544-.835,3.537-5.4a1.661,1.661,0,0,1,1.389-.751h3.095a1.658,1.658,0,0,1,.714.161l34.334,16.374a1.13,1.13,0,0,1,.645,1.02" transform="translate(47.706 51.348)" fill="#f5f3ed"/>
    <path id="Path_1382" data-name="Path 1382" d="M243.3,86.054l-12.063,9.807a1.7,1.7,0,0,1-2.653-.707L215.776,61.841a1.7,1.7,0,0,1,1.552-2.306l11.044-.2a1.7,1.7,0,0,1,1.5.842L243.7,83.883a1.7,1.7,0,0,1-.4,2.171" transform="translate(48.124 13.24)" fill="#f5f3ed"/>
    <path id="Path_1383" data-name="Path 1383" d="M126.117,81.61l-6.058,1.243a1.7,1.7,0,0,0-1.034.667L109.132,97.2a1.674,1.674,0,0,0-.289.658l-6.319,31.289a1.7,1.7,0,0,0,1.608,2.03l18.121.582a1.689,1.689,0,0,0,.953-.257l19.168-11.965a1.7,1.7,0,0,0,.607-.657l2.949-5.672a1.7,1.7,0,0,0-.061-1.673L127.9,82.382a1.7,1.7,0,0,0-1.785-.772" transform="translate(22.87 18.203)" fill="#f5f3ed"/>
    <path id="Path_1384" data-name="Path 1384" d="M75.219,70.673l1.728.846a1.687,1.687,0,0,0,.707.172l16.311.38a1.7,1.7,0,0,1,1.542,1.085l1.038,2.688.659,1.723a1.725,1.725,0,0,1,.108.5l.109,1.688a1.709,1.709,0,0,0,.034.248L99.6,89.968a1.724,1.724,0,0,0,.179.472l3.65,6.51a1.689,1.689,0,0,0,.464.53l7.014,5.24a1.7,1.7,0,0,1,.632,1.764l-5.893,24a1.7,1.7,0,0,1-2.983.641l-2.687-3.437a1.708,1.708,0,0,1-.241-.421l-3.055-7.721L90.241,98.956a1.712,1.712,0,0,1-.089-.435L88.881,80.564a1.7,1.7,0,0,0-1.255-1.519L77.405,76.318a1.69,1.69,0,0,1-.763-.442l-1.517-1.52-2.176-2.2a1.69,1.69,0,0,1-.489-1.2l.011-1.881Z" transform="translate(16.169 15.413)" fill="#f5f3ed"/>
    <path id="Path_1385" data-name="Path 1385" d="M178.177,30.666l-.619-.789-5.847-8.719-.141-.2-.35-.552-.905-.057-6.4-.345-2.466-.128-.646-.034A1.188,1.188,0,0,0,159.555,21l-.221,9.753-.7.329-4.888-12.433a1.177,1.177,0,0,1-.062-.646l1.06-5.85.6-3.217V8.916l-3.058,1.219L136,16.184a1.187,1.187,0,0,1-.93-.044l-2.621-1.266a1.188,1.188,0,0,1,.494-2.257l.345-.029.33-.155L158.609.122A1.171,1.171,0,0,1,159.162,0l8.413.191a1.186,1.186,0,0,1,1.02.626l9.781,18.258a1.188,1.188,0,0,1,.141.515l.33,8.628.121,3.487Z" transform="translate(29.406 0)" fill="#f5f3ed"/>
    <path id="Path_1386" data-name="Path 1386" d="M175.765,32.2l-.575,2.3-.072.059-.568.363-23.42,15.409a1.691,1.691,0,0,1-2.407-.582L145.8,44.585l-.51-.9-4.852-.6-2.954.851,1.069-10.709,5.071-2.925.634-1.71-.822-1.426-1.8-.306-4.86,2.808-.254-.378a1.683,1.683,0,0,1-.284-.925L136.2,17.689a1.7,1.7,0,0,1,1.078-1.586l10.956-4.329a1.7,1.7,0,0,1,2.3,1.878l-.364,2a1.707,1.707,0,0,0,.1.916l5.768,14.7.6,1.522,1.528-.742,1.616-.779a1.709,1.709,0,0,0,.96-1.476l.2-7.13a1.7,1.7,0,0,1,1.783-1.644l.144.007,1.811.094,4.17.226.363.021,6.337,9.481a1.68,1.68,0,0,1,.232,1.353" transform="translate(30.391 2.6)" fill="#f5f3ed"/>
    <path id="Path_1387" data-name="Path 1387" d="M0,344.8H3.088a3.129,3.129,0,0,0,3.447-3.446v-46.1a3.129,3.129,0,0,0-3.447-3.444H0V273.748H66.654v27.565H46.338v-6.059a3.152,3.152,0,0,0-3.327-3.444H29.347V309.63h19.01v15.8H29.347v15.922a3.1,3.1,0,0,0,3.327,3.446h6.178v18.06H0Z" transform="translate(0 61.086)" fill="#f5f3ed"/>
    <path id="Path_1388" data-name="Path 1388" d="M56.15,318.823c0-26.495,19.01-46.338,45.862-46.338s45.862,19.843,45.862,46.338-19.01,46.218-45.862,46.218S56.15,345.319,56.15,318.823m67.723,0c0-13.782-8.911-24-21.861-24-13.188,0-21.861,10.218-21.861,24,0,13.664,8.673,24,21.861,24,12.951,0,21.861-10.337,21.861-24" transform="translate(12.53 60.804)" fill="#f5f3ed"/>
    <path id="Path_1389" data-name="Path 1389" d="M133.962,344.8h3.088a3.13,3.13,0,0,0,3.447-3.447v-46.1a3.13,3.13,0,0,0-3.447-3.446h-3.088v-18.06H175.9c20.079,0,33.862,9.981,33.862,28.039,0,11.882-6.535,20.08-16.871,24.119l7.366,14.971c1.425,2.852,3.564,3.921,6.891,3.921h4.277v18.059H186.715l-15.446-33.743h-7.96v12.238a3.1,3.1,0,0,0,3.327,3.447h5.109v18.059H133.962Zm40.871-33.15c6.773,0,11.644-3.446,11.644-9.98,0-6.417-4.872-9.624-11.644-9.624H163.309v19.6Z" transform="translate(29.893 61.086)" fill="#f5f3ed"/>
    <path id="Path_1390" data-name="Path 1390" d="M200.313,318.7c0-26.972,18.3-46.219,43.011-46.219,11.047,0,20.435,4.159,25.781,11.526l.356-9.981h19.606v31.961H268.748c-1.188-5.7-8.791-12.119-20.315-12.119-14.614,0-24,10.336-24,25.07,0,16.04,9.625,25.9,25.07,25.9,10.457,0,19.486-5.109,19.486-11.882v-.119a3.029,3.029,0,0,0-3.208-3.327H244.154V311.931h44.913V363.14H269.581l-.237-9.031c-4.873,6.655-13.428,10.931-25.664,10.931-23.763,0-43.367-17.347-43.367-46.336" transform="translate(44.699 60.804)" fill="#f5f3ed"/>
    <path id="Path_1391" data-name="Path 1391" d="M280.067,344.8h3.089a3.129,3.129,0,0,0,3.447-3.446v-46.1a3.129,3.129,0,0,0-3.447-3.444h-3.089V273.748h67.6V300.6h-18.3v-5.346a3.152,3.152,0,0,0-3.327-3.444H309.3v17.345h20.08v15.8H309.3V344.8h17.347c2.258,0,3.327-1.306,3.327-3.446v-7.011H348.5v28.516H280.067Z" transform="translate(62.496 61.086)" fill="#f5f3ed"/>
  </g>
</svg>
