<?xml version="1.0" encoding="utf-8"?>
<!-- Generator: Adobe Illustrator 27.2.0, SVG Export Plug-In . SVG Version: 6.00 Build 0)  -->
<svg version="1.1" id="Group_909" xmlns="http://www.w3.org/2000/svg" xmlns:xlink="http://www.w3.org/1999/xlink" x="0px" y="0px"
	 viewBox="0 0 217.3 225.2" style="enable-background:new 0 0 217.3 225.2;" xml:space="preserve">
<style type="text/css">
	.st0{clip-path:url(#SVGID_00000145779924565788442520000011109190111456598703_);}
	.st1{fill:#F5F3ED;}
</style>
<g>
	<defs>
		<rect id="SVGID_1_" width="217.3" height="225.2"/>
	</defs>
	<clipPath id="SVGID_00000013912993451284878100000009870737468254271670_">
		<use xlink:href="#SVGID_1_"  style="overflow:visible;"/>
	</clipPath>
	<g id="Group_908" style="clip-path:url(#SVGID_00000013912993451284878100000009870737468254271670_);">
		<path id="Path_1372" class="st1" d="M69.8,34.9l-0.3-2.2l-1.5-7.4c-0.1-0.3-0.2-0.6-0.3-0.8l-4-5.7c-0.2-0.3-0.4-0.5-0.7-0.7
			l-11-5.9c-0.2-0.1-0.4-0.2-0.6-0.2l-10.6-2c-0.5-0.1-1,0-1.5,0.3l-6,3.5C33.1,14,33.1,14,33,14l-1.7,0.8c-0.6,0.3-1.3,0.3-1.9,0
			l-5.6-3c-0.5-0.2-1-0.3-1.5-0.2L22.1,12L22,12.3c0.2,0.5,0.5,0.9,1,1.1l5.6,3c0.6,0.3,1,0.9,1.1,1.6l0.3,1.9c0,0.1,0,0.1,0,0.2
			l0.4,6.9c0,0.5,0.2,1,0.6,1.3l7.5,7.7c0.2,0.2,0.3,0.3,0.5,0.4l11,5.9c0.3,0.2,0.6,0.2,1,0.2l6.9,0.1c0.3,0,0.7-0.1,1-0.2l6.9-3.3
			l2.3-1c0.5-0.2,0.8-0.5,1.1-1l0.2-0.4l0.3-0.5C69.7,35.9,69.8,35.4,69.8,34.9 M61.7,25.1l0.3-0.5c0.2-0.3,0.5-0.5,0.9-0.5l0.1,0
			c0.1,0,0.2,0,0.3,0.1l0.7,0.4c0.1,0.1,0.2,0.1,0.3,0.2l0.1,0.1c0.2,0.3,0.3,0.7,0.1,1l-0.3,0.5c-0.2,0.3-0.5,0.5-0.9,0.5l-0.1,0
			c-0.1,0-0.2,0-0.3-0.1l-0.7-0.4c-0.1-0.1-0.2-0.1-0.3-0.2l-0.1-0.1C61.5,25.8,61.5,25.5,61.7,25.1 M56.3,21.3l0.7-1.2
			c0.2-0.3,0.5-0.5,0.9-0.5l0.6,0.1c0.1,0,0.2,0,0.3,0.1l1.4,0.7c0.1,0,0.2,0.1,0.2,0.2l0.4,0.5c0.3,0.3,0.3,0.7,0.1,1l-0.7,1.2
			c-0.2,0.3-0.5,0.5-0.9,0.5l-0.6-0.1c-0.1,0-0.2,0-0.3-0.1L57.1,23c-0.1,0-0.2-0.1-0.2-0.2l-0.4-0.5C56.2,22.1,56.2,21.7,56.3,21.3
			 M50.5,18l1-1.9c0.2-0.3,0.5-0.5,0.9-0.5l0.8,0.1c0.1,0,0.2,0,0.3,0.1l1.5,0.8c0.1,0.1,0.2,0.1,0.3,0.2l0.5,0.6
			c0.2,0.3,0.3,0.7,0.1,1l-1,1.9c-0.2,0.3-0.5,0.5-0.9,0.5l-0.8-0.1c-0.1,0-0.2,0-0.3-0.1l-1.5-0.8c-0.1-0.1-0.2-0.1-0.3-0.2
			L50.6,19C50.4,18.7,50.3,18.3,50.5,18 M51,21.9c0.2,0.1,0.3,0.2,0.4,0.4l0.5,1.1c0.1,0.3,0.1,0.5,0,0.8l-2.7,5.1
			c-0.1,0.2-0.4,0.4-0.6,0.5L47.3,30c-0.2,0-0.4,0-0.6-0.1l-1.4-0.7c-0.2-0.1-0.3-0.2-0.4-0.4l-0.5-1.1c-0.1-0.3-0.1-0.5,0-0.8
			l2.7-5.1c0.1-0.2,0.4-0.4,0.6-0.5l1.2-0.2c0.2,0,0.4,0,0.6,0.1L51,21.9z M44.7,15.5l0.7-1.2c0.2-0.3,0.5-0.5,0.9-0.5l0.6,0.1
			c0.1,0,0.2,0,0.3,0.1l1.4,0.7c0.1,0,0.2,0.1,0.2,0.2l0.4,0.5c0.3,0.3,0.3,0.7,0.1,1l-0.7,1.2c-0.2,0.3-0.5,0.5-0.9,0.5L47.1,18
			c-0.1,0-0.2,0-0.3-0.1l-1.4-0.7c-0.1,0-0.2-0.1-0.2-0.2l-0.4-0.5C44.5,16.2,44.5,15.8,44.7,15.5 M40.3,14.7l0.5-1
			c0.1-0.1,0.2-0.2,0.4-0.2l0.5,0.1c0,0,0.1,0,0.1,0l0.8,0.4c0,0,0.1,0.1,0.1,0.1l0.3,0.4c0.1,0.1,0.1,0.3,0,0.4l-0.5,1
			c-0.1,0.1-0.2,0.2-0.4,0.2L41.7,16c0,0-0.1,0-0.1,0l-0.8-0.4c0,0-0.1-0.1-0.1-0.1l-0.3-0.4C40.2,15,40.2,14.8,40.3,14.7
			 M41.1,18.9c0.1-0.2,0.4-0.4,0.6-0.5l1-0.2c0.2,0,0.4,0,0.6,0.1l1.2,0.6c0.2,0.1,0.3,0.2,0.4,0.4l0.4,0.9c0.1,0.3,0.1,0.5,0,0.8
			l-2.4,4.5c-0.1,0.2-0.4,0.4-0.6,0.5l-1,0.2c-0.2,0-0.4,0-0.6-0.1l-1.2-0.6c-0.2-0.1-0.3-0.2-0.4-0.4l-0.4-0.9
			c-0.1-0.3-0.1-0.5,0-0.8L41.1,18.9z M33.6,20.7c-0.1-0.3-0.1-0.6,0-0.8l1.8-3.3c0.1-0.3,0.4-0.4,0.7-0.5l0.7-0.1
			c0.2,0,0.4,0,0.5,0.1l1,0.5c0.2,0.1,0.3,0.2,0.4,0.4l0.3,0.6c0.1,0.3,0.1,0.6,0,0.8l-1.8,3.3c-0.1,0.3-0.4,0.4-0.7,0.5l-0.7,0.1
			c-0.2,0-0.4,0-0.5-0.1l-1-0.5c-0.2-0.1-0.3-0.2-0.4-0.4L33.6,20.7z M36.8,26.5l-0.5,1c-0.1,0.1-0.2,0.2-0.4,0.2l-0.5,0
			c0,0-0.1,0-0.1,0l-0.8-0.4c0,0-0.1-0.1-0.1-0.1l-0.3-0.4c-0.1-0.1-0.1-0.3,0-0.4l0.5-1c0.1-0.1,0.2-0.2,0.4-0.2l0.5,0
			c0,0,0.1,0,0.1,0l0.8,0.4c0,0,0.1,0.1,0.1,0.1l0.3,0.4C36.9,26.2,36.9,26.3,36.8,26.5 M41.8,30.6l-0.7,1.2
			c-0.2,0.3-0.5,0.5-0.9,0.5l-0.6-0.1c-0.1,0-0.2,0-0.3-0.1l-1.4-0.7c-0.1,0-0.2-0.1-0.2-0.2l-0.4-0.5c-0.3-0.3-0.3-0.7-0.1-1
			l0.7-1.2c0.2-0.3,0.5-0.5,0.9-0.5l0.6,0.1c0.1,0,0.2,0,0.3,0.1l1.4,0.7c0.1,0,0.2,0.1,0.2,0.2l0.4,0.5
			C41.9,29.9,42,30.3,41.8,30.6 M47.4,34.2l-1,1.9c-0.2,0.3-0.5,0.5-0.9,0.5l-0.8-0.1c-0.1,0-0.2,0-0.3-0.1l-1.5-0.8
			c-0.1-0.1-0.2-0.1-0.3-0.2l-0.5-0.6c-0.2-0.3-0.3-0.7-0.1-1l1-1.9c0.2-0.3,0.5-0.5,0.9-0.5l0.8,0.1c0.1,0,0.2,0,0.3,0.1l1.5,0.8
			c0.1,0.1,0.2,0.1,0.3,0.2l0.5,0.6C47.5,33.5,47.6,33.9,47.4,34.2 M53.2,37l-0.7,1.2c-0.2,0.3-0.5,0.5-0.9,0.5l-0.6-0.1
			c-0.1,0-0.2,0-0.3-0.1l-1.4-0.8c-0.1,0-0.2-0.1-0.2-0.2l-0.4-0.5c-0.3-0.3-0.3-0.7-0.1-1l0.7-1.2c0.2-0.3,0.5-0.5,0.9-0.5l0.6,0.1
			c0.1,0,0.2,0,0.3,0.1l1.4,0.7c0.1,0,0.2,0.1,0.2,0.2L53,36C53.3,36.3,53.3,36.7,53.2,37 M53.6,32.8c-0.2,0-0.4,0-0.6-0.1l-1.2-0.6
			c-0.2-0.1-0.3-0.2-0.4-0.4l-0.4-0.9c-0.1-0.3-0.1-0.5,0-0.8l2.4-4.5c0.1-0.2,0.4-0.4,0.6-0.5l1-0.2c0.2,0,0.4,0,0.6,0.1l1.2,0.6
			c0.2,0.1,0.3,0.2,0.4,0.4l0.4,0.9c0.1,0.3,0.1,0.5,0,0.8l-2.4,4.5c-0.1,0.2-0.4,0.4-0.6,0.5L53.6,32.8z M57.7,38.5L57.4,39
			c-0.2,0.3-0.5,0.5-0.9,0.5l-0.1,0c-0.1,0-0.2,0-0.3-0.1L55.4,39c-0.1-0.1-0.2-0.1-0.3-0.2l-0.1-0.1c-0.2-0.3-0.3-0.7-0.1-1
			l0.3-0.5c0.2-0.3,0.5-0.5,0.9-0.5l0.1,0c0.1,0,0.2,0,0.3,0.1l0.7,0.4c0.1,0.1,0.2,0.1,0.3,0.2l0.1,0.1
			C57.8,37.8,57.9,38.2,57.7,38.5 M62.7,30.9l-2,3.7c-0.1,0.2-0.4,0.4-0.6,0.5l-0.7,0.1c-0.2,0-0.4,0-0.6-0.1l-0.9-0.5
			c-0.2-0.1-0.3-0.2-0.4-0.4l-0.3-0.7c-0.1-0.3-0.1-0.5,0-0.8l2-3.7c0.1-0.2,0.4-0.4,0.6-0.5l0.7-0.1c0.2,0,0.4,0,0.6,0.1l0.9,0.5
			c0.2,0.1,0.3,0.2,0.4,0.4l0.3,0.7C62.9,30.4,62.9,30.7,62.7,30.9 M66.5,33.9l-1.2,2.2c-0.1,0.2-0.4,0.4-0.6,0.5l-0.3,0
			c-0.2,0-0.4,0-0.6-0.1l-0.4-0.2c-0.2-0.1-0.3-0.2-0.4-0.4l-0.1-0.2c-0.1-0.3-0.1-0.5,0-0.8l1.2-2.2c0.1-0.2,0.4-0.4,0.6-0.5l0.3,0
			c0.2,0,0.4,0,0.6,0.1l0.4,0.2c0.2,0.1,0.3,0.2,0.4,0.4l0.1,0.2C66.7,33.3,66.7,33.6,66.5,33.9"/>
		<path id="Path_1373" class="st1" d="M163.4,67.9l-4,17.4c-0.1,0.3-0.3,0.6-0.6,0.7l-22,6.1l-0.2,0l-0.1,0.1l-9,6.6
			c-0.4,0.3-0.9,0.2-1.2-0.2c-0.1-0.1-0.1-0.2-0.1-0.3l-1.6-6.5c-0.1-0.3,0-0.6,0.2-0.8l5.3-5.2c0.3-0.3,0.9-0.3,1.2,0
			c0,0,0,0,0.1,0.1l0.9,1.1l0,0c0.3,0.4,0.8,0.5,1.2,0.2l18.4-13l0.1-0.1c0.4-0.3,0.5-0.8,0.2-1.2c-0.1-0.2-0.3-0.3-0.6-0.4l-0.1,0
			l-3-0.5c-0.1,0-0.2-0.1-0.3-0.1l-2.5-1.7c-0.3-0.2-0.5-0.6-0.4-0.9l1.4-5.4l0.5-1.9l0.1-0.4v0l-0.1-0.2l8.2-6.4l0.5-0.4h0l4,1.9
			c0.2,0.1,0.4,0.3,0.5,0.5l3,10.4C163.4,67.6,163.4,67.7,163.4,67.9"/>
		<path id="Path_1374" class="st1" d="M117.7,41.1L116,75.6c0,0.4-0.2,0.7-0.6,0.8l-14.8,5.5c-0.4,0.1-0.9,0-1.1-0.4L81.7,52
			c-0.2-0.3-0.2-0.7,0-0.9l12-18.7c0.1-0.1,0.2-0.2,0.3-0.3l2.2-1.5l0,0l3.2-2.1l2.5-1.7l6.9-4.6c0.4-0.3,1-0.2,1.2,0.3
			c0,0,0.1,0.1,0.1,0.2l7.3,18.1C117.6,40.9,117.7,41,117.7,41.1"/>
		<path id="Path_1375" class="st1" d="M144.6,59c0.1,0.2,0.1,0.4,0,0.6l-0.3,1.2l-0.1,0.3l-0.2,0.2l-21.1,23
			c-0.3,0.4-0.9,0.4-1.3,0.1c-0.1-0.1-0.2-0.2-0.2-0.4l-2.5-7.5c0-0.1,0-0.2,0-0.3l1.7-34.9l0-0.1v0l-0.1-0.2l-6.1-15.3
			c-0.2-0.5,0-1,0.5-1.2c0.3-0.1,0.6-0.1,0.8,0.1l20.9,13.8c0.2,0.1,0.3,0.3,0.3,0.4l7.6,19.9L144.6,59z"/>
		<path id="Path_1376" class="st1" d="M119.4,87.1l2.4,13.5c0,0.2,0,0.5-0.1,0.7l-9.2,13.9l-0.2,0.3l0.1,0.4l2.9,14.3
			c0,0.2,0,0.4-0.1,0.6l-8.9,19.1l-0.1,0.2v4.6c0,0.2,0,0.3-0.1,0.5l-4,6.4c-0.3,0.4-0.8,0.5-1.2,0.3c-0.2-0.1-0.3-0.2-0.4-0.4
			L86,125.9c0-0.1-0.1-0.2-0.1-0.3v-10.4c0-0.1,0-0.2,0-0.3l1.1-3.6l6.5-20.8c0.1-0.2,0.1-0.3,0.3-0.4l2.4-2l3.5-2.9
			c0.1-0.1,0.2-0.1,0.3-0.1l16-6.2l0.3-0.1L119.4,87.1z"/>
		<path id="Path_1377" class="st1" d="M97.8,83.4l-1.6,1.3c-0.3,0.2-0.7,0.2-0.9-0.1c0,0,0-0.1-0.1-0.1l-0.8-1.4
			c-0.1-0.1-0.1-0.2-0.1-0.3v-3c0-0.1,0-0.2,0-0.2l0.2-0.5c0.1-0.3,0.5-0.5,0.8-0.4c0.1,0,0.2,0.1,0.3,0.3l2.2,3.6
			C98.1,82.8,98,83.2,97.8,83.4"/>
		<path id="Path_1378" class="st1" d="M91.6,88.9L91.6,88.9c-0.1,0.1-0.2,0.2-0.3,0.4l-7.5,23.9l-0.2,0.7l-6.3-6.4l-0.3-0.3
			c-0.3-0.3-0.9-0.4-1.2,0c-0.2,0.2-0.3,0.5-0.2,0.8l0.1,0.4l1.6,6.2c0.1,0.2,0,0.5-0.1,0.7l-6.3,9.6c-0.3,0.4-0.8,0.5-1.2,0.2
			c-0.1,0-0.1-0.1-0.2-0.1l-17.3-18.4c-0.1-0.2-0.2-0.4-0.2-0.6v-5.9c0-0.3,0.2-0.6,0.4-0.7l21.4-11.9c0.1-0.1,0.3-0.1,0.4-0.1H91
			c0.5,0,0.9,0.4,0.9,0.9C91.9,88.5,91.8,88.7,91.6,88.9"/>
		<path id="Path_1379" class="st1" d="M138.5,162.5l-32.9,1c-0.5,0-0.9-0.4-0.9-0.9c0-0.2,0-0.3,0.1-0.5l2-3.2l1.2-1.9
			c0.1-0.1,0.2-0.3,0.4-0.3l3.1-1.5c0.1-0.1,0.3-0.1,0.4-0.1l4.5,0l5.2,0.1c0.2,0,0.3,0,0.5-0.1l3.8-2.2c0.1-0.1,0.3-0.1,0.5-0.1
			h5.2c0.2,0,0.4,0.1,0.5,0.2l3.8,2.6c0.1,0.1,0.2,0.2,0.3,0.3l1.7,3l1.6,2.5c0.3,0.4,0.1,1-0.3,1.2
			C138.8,162.5,138.7,162.5,138.5,162.5"/>
		<path id="Path_1380" class="st1" d="M79.4,134.2l-0.2-0.2l-6.4-6.3c-0.3-0.3-0.4-0.8-0.1-1.1l2.9-4.5c0.3-0.4,0.8-0.5,1.2-0.3
			c0,0,0,0,0.1,0l6.2,4.9c0.1,0.1,0.2,0.2,0.3,0.3l3.7,8.7l3.2,8.2c0,0.1,0,0.2,0.1,0.2l0.6,6.6c0,0.2,0,0.4-0.1,0.5l-1.7,2.8
			c-0.1,0.1-0.1,0.3-0.1,0.5l0.1,4.7c0,0.5-0.4,0.9-0.9,0.9c0,0,0,0,0,0h-9.3l0-0.2l2.2-1.5l1.5-1.1c0.3-0.2,0.4-0.5,0.4-0.9l-1-6.5
			L79.4,134.2z"/>
		<path id="Path_1381" class="st1" d="M177.8,158.1L177.8,158.1c0,0.5-0.4,0.9-0.9,0.9l0,0h-27l-0.2,0l-6.3,2.2
			c-0.4,0.1-0.8,0-1-0.3l-4-6.1c-0.1-0.2-0.2-0.5-0.1-0.7l0.3-1c0.1-0.4,0.4-0.6,0.8-0.6h15l0.3-0.4l1.9-2.9
			c0.2-0.2,0.4-0.4,0.7-0.4h1.6c0.1,0,0.3,0,0.4,0.1l18.2,8.7C177.7,157.7,177.8,157.9,177.8,158.1"/>
		<path id="Path_1382" class="st1" d="M154.1,52.5l-6.4,5.2c-0.4,0.3-1,0.3-1.3-0.1c-0.1-0.1-0.1-0.2-0.1-0.2l-6.8-17.6
			c-0.2-0.5,0.1-1,0.5-1.2c0.1,0,0.2-0.1,0.3-0.1l5.8-0.1c0.3,0,0.6,0.2,0.8,0.4l7.3,12.5C154.5,51.7,154.4,52.2,154.1,52.5"/>
		<path id="Path_1383" class="st1" d="M78.8,52.8l-3.2,0.7c-0.2,0-0.4,0.2-0.5,0.4L69.8,61c-0.1,0.1-0.1,0.2-0.2,0.3l-3.3,16.5
			c-0.1,0.5,0.2,1,0.7,1.1c0,0,0.1,0,0.1,0l9.6,0.3c0.2,0,0.4,0,0.5-0.1l10.1-6.3c0.1-0.1,0.2-0.2,0.3-0.3l1.6-3
			c0.1-0.3,0.1-0.6,0-0.9l-9.5-15.4C79.5,52.9,79.1,52.7,78.8,52.8"/>
		<path id="Path_1384" class="st1" d="M48.3,45.5l0.9,0.4c0.1,0.1,0.2,0.1,0.4,0.1l8.6,0.2c0.4,0,0.7,0.2,0.8,0.6l0.5,1.4l0.3,0.9
			c0,0.1,0.1,0.2,0.1,0.3l0.1,0.9c0,0,0,0.1,0,0.1l1.1,5.3c0,0.1,0.1,0.2,0.1,0.2l1.9,3.4c0.1,0.1,0.1,0.2,0.2,0.3l3.7,2.8
			c0.3,0.2,0.4,0.6,0.3,0.9l-3.1,12.7c-0.1,0.5-0.6,0.8-1.1,0.7c-0.2,0-0.4-0.2-0.5-0.3l-1.4-1.8c-0.1-0.1-0.1-0.1-0.1-0.2l-1.6-4.1
			l-3.4-9.8c0-0.1,0-0.2,0-0.2l-0.7-9.5c0-0.4-0.3-0.7-0.7-0.8l-5.4-1.4c-0.2,0-0.3-0.1-0.4-0.2l-0.8-0.8l-1.2-1.2
			c-0.2-0.2-0.3-0.4-0.3-0.6l0-1L48.3,45.5z"/>
		<path id="Path_1385" class="st1" d="M109.8,16.2l-0.3-0.4l-3.1-4.6l-0.1-0.1l-0.2-0.3l-0.5,0l-3.4-0.2l-1.3-0.1l-0.3,0
			c-0.3,0-0.6,0.2-0.7,0.6c0,0,0,0,0,0l-0.1,5.2l-0.4,0.2l-2.6-6.6c0-0.1-0.1-0.2,0-0.3l0.6-3.1l0.3-1.7v0l-1.6,0.6l-8.6,3.2
			c-0.2,0.1-0.3,0.1-0.5,0l-1.4-0.7c-0.3-0.2-0.4-0.5-0.3-0.8c0.1-0.2,0.3-0.3,0.6-0.4l0.2,0l0.2-0.1l13.2-6.5C99.5,0,99.6,0,99.7,0
			l4.4,0.1c0.2,0,0.4,0.1,0.5,0.3l5.2,9.7c0,0.1,0.1,0.2,0.1,0.3l0.2,4.6l0.1,1.8L109.8,16.2z"/>
		<path id="Path_1386" class="st1" d="M109,18.4l-0.3,1.2l0,0l-0.3,0.2L96,28c-0.4,0.3-1,0.2-1.2-0.3c0,0,0,0,0-0.1l-1.5-2.7
			l-0.3-0.5l-2.6-0.3l-1.6,0.4l0.6-5.7l2.7-1.5l0.3-0.9l-0.4-0.8l-1-0.2l-2.6,1.5l-0.1-0.2c-0.1-0.1-0.1-0.3-0.2-0.5l0-5.6
			c0-0.4,0.2-0.7,0.6-0.8l5.8-2.3c0.5-0.2,1,0,1.2,0.5c0.1,0.2,0.1,0.3,0,0.5l-0.2,1.1c0,0.2,0,0.3,0.1,0.5l3,7.8l0.3,0.8l0.8-0.4
			l0.9-0.4c0.3-0.1,0.5-0.4,0.5-0.8l0.1-3.8c0-0.5,0.4-0.9,0.9-0.9c0,0,0,0,0,0l0.1,0l1,0l2.2,0.1l0.2,0l3.4,5
			C109,17.9,109.1,18.2,109,18.4"/>
		<path id="Path_1387" class="st1" d="M0,214.6h1.6c0.9,0.1,1.7-0.6,1.8-1.5c0-0.1,0-0.2,0-0.4v-24.4c0.1-0.9-0.6-1.7-1.5-1.8
			c-0.1,0-0.2,0-0.4,0H0V177h35.2v14.6H24.5v-3.2c0.1-0.9-0.6-1.7-1.5-1.8c-0.1,0-0.2,0-0.3,0h-7.2v9.4h10.1v8.4H15.5v8.4
			c-0.1,0.9,0.5,1.7,1.4,1.8c0.1,0,0.2,0,0.3,0h3.3v9.5H0V214.6z"/>
		<path id="Path_1388" class="st1" d="M36.3,200.7c0-14,10.1-24.5,24.2-24.5s24.2,10.5,24.2,24.5s-10.1,24.4-24.2,24.4
			S36.3,214.7,36.3,200.7 M72.1,200.7c0-7.3-4.7-12.7-11.6-12.7c-7,0-11.6,5.4-11.6,12.7c0,7.2,4.6,12.7,11.6,12.7
			C67.4,213.4,72.1,208,72.1,200.7"/>
		<path id="Path_1389" class="st1" d="M86.6,214.6h1.6c0.9,0.1,1.7-0.6,1.8-1.5c0-0.1,0-0.2,0-0.4v-24.4c0.1-0.9-0.6-1.7-1.5-1.8
			c-0.1,0-0.2,0-0.4,0h-1.6V177h22.2c10.6,0,17.9,5.3,17.9,14.8c0,6.3-3.5,10.6-8.9,12.8l3.9,7.9c0.8,1.5,1.9,2.1,3.6,2.1h2.3v9.5
			h-13.1l-8.2-17.8h-4.2v6.5c-0.1,0.9,0.5,1.7,1.4,1.8c0.1,0,0.2,0,0.3,0h2.7v9.5h-20V214.6z M108.2,197.1c3.6,0,6.2-1.8,6.2-5.3
			c0-3.4-2.6-5.1-6.2-5.1h-6.1v10.4L108.2,197.1z"/>
		<path id="Path_1390" class="st1" d="M129.6,200.7c0-14.3,9.7-24.4,22.7-24.4c5.8,0,10.8,2.2,13.6,6.1l0.2-5.3h10.4v16.9h-10.7
			c-0.6-3-4.6-6.4-10.7-6.4c-7.7,0-12.7,5.5-12.7,13.3c0,8.5,5.1,13.7,13.3,13.7c5.5,0,10.3-2.7,10.3-6.3v-0.1
			c0.1-0.9-0.6-1.7-1.4-1.8c-0.1,0-0.2,0-0.3,0h-11.4v-9.3h23.7v27.1h-10.3l-0.1-4.8c-2.6,3.5-7.1,5.8-13.6,5.8
			C139.9,225.2,129.6,216,129.6,200.7"/>
		<path id="Path_1391" class="st1" d="M181.1,214.6h1.6c0.9,0.1,1.7-0.6,1.8-1.5c0-0.1,0-0.2,0-0.4v-24.4c0.1-0.9-0.6-1.7-1.5-1.8
			c-0.1,0-0.2,0-0.4,0h-1.6V177h35.7v14.2h-9.7v-2.8c0.1-0.9-0.6-1.7-1.5-1.8c-0.1,0-0.2,0-0.3,0h-8.9v9.2h10.6v8.4h-10.6v10.5h9.2
			c1.2,0,1.8-0.7,1.8-1.8v-3.7h9.8v15.1h-36.2V214.6z"/>
	</g>
</g>
</svg>
