<?xml version="1.0" encoding="utf-8"?>
<!-- Generator: Adobe Illustrator 27.2.0, SVG Export Plug-In . SVG Version: 6.00 Build 0)  -->
<svg version="1.1" id="Layer_1" xmlns="http://www.w3.org/2000/svg" xmlns:xlink="http://www.w3.org/1999/xlink" x="0px" y="0px"
	 viewBox="0 0 2044.5 49.8" style="enable-background:new 0 0 2044.5 49.8;" xml:space="preserve">
<style type="text/css">
	.st0{opacity:0.5;}
	.st1{fill:#1D1D1D;}
</style>
<g id="pikotriangles-08" transform="translate(41 -150.211)" class="st0">
	<path id="Path_679" class="st1" d="M163.2,200l41-49.8h-82L163.2,200z"/>
	<path id="Path_679_00000080199198769570151040000005888877087257174715_" class="st1" d="M82,200l41-49.8H41L82,200z"/>
	<path id="Path_680" class="st1" d="M245.2,200l41-49.8h-82L245.2,200z"/>
	<path id="Path_681" class="st1" d="M327.1,200l41-49.8h-82L327.1,200z"/>
	<path id="Path_682" class="st1" d="M409.1,200l41-49.8h-82L409.1,200z"/>
	<path id="Path_683" class="st1" d="M490.7,200l41-49.8h-82L490.7,200z"/>
	<path id="Path_684" class="st1" d="M572.7,200l41-49.8h-82L572.7,200z"/>
	<path id="Path_685" class="st1" d="M654.3,200l41-49.8h-82L654.3,200z"/>
	<path id="Path_686" class="st1" d="M736.3,200l41-49.8h-82L736.3,200z"/>
	<path id="Path_687" class="st1" d="M817.8,200l41-49.8h-82L817.8,200z"/>
	<path id="Path_688" class="st1" d="M899.8,200l41-49.8h-82L899.8,200z"/>
	<path id="Path_689" class="st1" d="M981.4,200l41-49.8h-82L981.4,200z"/>
	<path id="Path_690" class="st1" d="M1063.4,200l41-49.8h-82L1063.4,200z"/>
	<path id="Path_691" class="st1" d="M1145,200l41-49.8h-82L1145,200z"/>
	<path id="Path_692" class="st1" d="M1227,200l41-49.8h-82L1227,200z"/>
	<path id="Path_693" class="st1" d="M1308.6,200l41-49.8h-82L1308.6,200z"/>
	<path id="Path_694" class="st1" d="M1390.6,200l41-49.8h-82L1390.6,200z"/>
	<path id="Path_695" class="st1" d="M1472.2,200l41-49.8h-82L1472.2,200z"/>
	<path id="Path_696" class="st1" d="M1554.2,200l41-49.8h-82L1554.2,200z"/>
	<path id="Path_697" class="st1" d="M1635.7,200l41-49.8h-82L1635.7,200z"/>
	<path id="Path_1011" class="st1" d="M1880.5,200l41-49.8h-82L1880.5,200z"/>
	<path id="Path_698" class="st1" d="M1717.8,200l41-49.8h-82L1717.8,200z"/>
	<path id="Path_1012" class="st1" d="M1962.5,200l41-49.8h-82L1962.5,200z"/>
	<path id="Path_701" class="st1" d="M0,200l41-49.8h-82L0,200z"/>
</g>
</svg>
