<?xml version="1.0" encoding="utf-8"?>
<!-- Generator: Adobe Illustrator 27.2.0, SVG Export Plug-In . SVG Version: 6.00 Build 0)  -->
<svg version="1.1" id="Layer_1" xmlns="http://www.w3.org/2000/svg" xmlns:xlink="http://www.w3.org/1999/xlink" x="0px" y="0px"
	 viewBox="0 0 1922.3 99.7" style="enable-background:new 0 0 1922.3 99.7;" xml:space="preserve">
<style type="text/css">
	.st0{opacity:0.5;}
	.st1{fill:#1D1D1D;}
</style>
<g id="pikotriangles-08" transform="translate(0.289 -0.44)" class="st0">
	<path id="Path_624" class="st1" d="M203.9,50.2l41-49.8h-82L203.9,50.2z"/>
	<path id="Path_625" class="st1" d="M121.9,50.2l41-49.8h-82L121.9,50.2z"/>
	<path id="Path_626" class="st1" d="M285.9,50.2l41-49.8h-82L285.9,50.2z"/>
	<path id="Path_627" class="st1" d="M367.8,50.2l41-49.8h-82L367.8,50.2z"/>
	<path id="Path_628" class="st1" d="M449.8,50.2l41-49.8h-82L449.8,50.2z"/>
	<path id="Path_629" class="st1" d="M531.4,50.2l41-49.8h-82L531.4,50.2z"/>
	<path id="Path_630" class="st1" d="M613.4,50.2l41-49.8h-82L613.4,50.2z"/>
	<path id="Path_631" class="st1" d="M695,50.2l41-49.8h-82L695,50.2z"/>
	<path id="Path_632" class="st1" d="M777,50.2l41-49.8h-82L777,50.2z"/>
	<path id="Path_633" class="st1" d="M858.6,50.2l41-49.8h-82L858.6,50.2z"/>
	<path id="Path_634" class="st1" d="M940.6,50.2l41-49.8h-82L940.6,50.2z"/>
	<path id="Path_635" class="st1" d="M1022.1,50.2l41-49.8h-82L1022.1,50.2z"/>
	<path id="Path_636" class="st1" d="M1104.1,50.2l41-49.8h-82L1104.1,50.2z"/>
	<path id="Path_637" class="st1" d="M1185.7,50.2l41-49.8h-82L1185.7,50.2z"/>
	<path id="Path_638" class="st1" d="M1267.7,50.2l41-49.8h-82L1267.7,50.2z"/>
	<path id="Path_639" class="st1" d="M1349.3,50.2l41-49.8h-82L1349.3,50.2z"/>
	<path id="Path_640" class="st1" d="M1431.3,50.2l41-49.8h-82L1431.3,50.2z"/>
	<path id="Path_641" class="st1" d="M1512.9,50.2l41-49.8h-82L1512.9,50.2z"/>
	<path id="Path_642" class="st1" d="M1594.9,50.2l41-49.8h-82L1594.9,50.2z"/>
	<path id="Path_643" class="st1" d="M1676.5,50.2l41-49.8h-82L1676.5,50.2z"/>
	<path id="Path_644" class="st1" d="M1758.5,50.2l41-49.8h-82L1758.5,50.2z"/>
	<path id="Path_645" class="st1" d="M163.2,100.1l41-49.8h-82L163.2,100.1z"/>
	<path id="Path_646" class="st1" d="M81.1,100.1l41-49.8h-82L81.1,100.1z"/>
	<path id="Path_647" class="st1" d="M245.2,100.1l41-49.8h-82L245.2,100.1z"/>
	<path id="Path_648" class="st1" d="M327,100.1l41-49.8h-82L327,100.1z"/>
	<path id="Path_649" class="st1" d="M490.6,100.1l41-49.8h-82L490.6,100.1z"/>
	<path id="Path_650" class="st1" d="M572.6,100.1l41-49.8h-82L572.6,100.1z"/>
	<path id="Path_651" class="st1" d="M654.2,100.1l41-49.8h-82L654.2,100.1z"/>
	<path id="Path_652" class="st1" d="M736.2,100.1l41-49.8h-82L736.2,100.1z"/>
	<path id="Path_653" class="st1" d="M899.8,100.1l41-49.8h-82L899.8,100.1z"/>
	<path id="Path_654" class="st1" d="M981.3,100.1l41-49.8h-82L981.3,100.1z"/>
	<path id="Path_655" class="st1" d="M1063.4,100.1l41-49.8h-82L1063.4,100.1z"/>
	<path id="Path_656" class="st1" d="M1144.9,100.1l41-49.8h-82L1144.9,100.1z"/>
	<path id="Path_657" class="st1" d="M1226.9,100.1l41-49.8h-82L1226.9,100.1z"/>
	<path id="Path_658" class="st1" d="M1472.1,100.1l41-49.8h-82L1472.1,100.1z"/>
	<path id="Path_659" class="st1" d="M1554.1,100.1l41-49.8h-82L1554.1,100.1z"/>
	<path id="Path_660" class="st1" d="M1635.7,100.1l41-49.8h-82L1635.7,100.1z"/>
	<path id="Path_661" class="st1" d="M1799.3,100.1l41-49.8h-82L1799.3,100.1z"/>
	<path id="Path_675" class="st1" d="M1840.3,50.2l41-49.8h-82L1840.3,50.2z"/>
	<path id="Path_676" class="st1" d="M1881,100.1l41-49.8h-82L1881,100.1z"/>
	<path id="Path_699" class="st1" d="M40.7,50.2l41-49.8h-82L40.7,50.2z"/>
</g>
</svg>
