<svg xmlns="http://www.w3.org/2000/svg" xmlns:xlink="http://www.w3.org/1999/xlink" width="346.448" height="382.329" viewBox="0 0 346.448 382.329">
  <defs>
    <clipPath id="clip-path">
      <rect id="Rectangle_18" data-name="Rectangle 18" width="136.198" height="118.317" fill="#eff4f4"/>
    </clipPath>
    <clipPath id="clip-path-2">
      <rect id="Rectangle_19" data-name="Rectangle 19" width="115.293" height="131.272" fill="none"/>
    </clipPath>
    <clipPath id="clip-path-3">
      <rect id="Rectangle_20" data-name="Rectangle 20" width="78.874" height="148.377" fill="none"/>
    </clipPath>
    <clipPath id="clip-path-4">
      <rect id="Rectangle_21" data-name="Rectangle 21" width="147.476" height="33.279" fill="none"/>
    </clipPath>
  </defs>
  <g id="Group_1037" data-name="Group 1037" transform="translate(-11498.552 -3853.176)">
    <g id="Group_73" data-name="Group 73" transform="translate(11654.001 4064)">
      <path id="Path_112" data-name="Path 112" d="M1541.641,895.57l1.224-1.284c.4-.438.777-.891,1.165-1.335.773-.9,1.561-1.775,2.275-2.719a11.22,11.22,0,0,0,1.9-3.393,12.82,12.82,0,0,0,.487-1.845c.059-.31.1-.62.135-.931s.028-.634.028-.949l-.043-2.037-.032-1c-.008-.332-.02-.663-.052-1q-.148-2.017-.345-3.95l-.6,1.043q.131.982.249,1.988l.111,1.009.071,1a.565.565,0,0,1-.5.6.51.51,0,0,1-.566-.478l-.1-1.307c-.02-.217-.032-.429-.059-.648l-.079-.655c-.147.254-.286.514-.452.758.226,2.048.455,4.2.5,6.334a.584.584,0,0,1-.52.6.5.5,0,0,1-.55-.5c-.032-.851-.067-1.69-.115-2.519s-.143-1.677-.226-2.5l-.535.838-.083.133a.146.146,0,0,1,.008.041c.063.651.071,1.275.095,1.922l.051,1.949a.561.561,0,0,1-.519.575.515.515,0,0,1-.535-.515q-.024-1.133-.068-2.241a12.326,12.326,0,0,0-.475,1.177c-.139.4-.242.82-.365,1.22a12.39,12.39,0,0,0-.424,2.524c-.071,1.353-.245,2.663-.412,4.021-.087.674-.17,1.364-.277,2.043Zm-1.078-.1a73.667,73.667,0,0,0,1.082-8.025,14.532,14.532,0,0,1,.262-1.972c.067-.32.146-.636.234-.947s.194-.614.289-.927a12.521,12.521,0,0,1,.729-1.8c.285-.581.638-1.124.979-1.686.571-.9,1.169-1.795,1.724-2.709l1.6-2.782a1.041,1.041,0,0,1,1.958.352,72.106,72.106,0,0,1,.5,8.051c0,.348-.008.7-.031,1.046a8.279,8.279,0,0,1-.127,1.038,13.877,13.877,0,0,1-.543,2.027c-.119.334-.25.665-.389.993q-.107.246-.226.49c-.083.159-.171.314-.258.469a15.3,15.3,0,0,1-1.224,1.8c-.721.955-1.522,1.847-2.3,2.754-.4.45-.781.908-1.185,1.351l-1.237,1.3a1.147,1.147,0,0,1-1.291.3,1.013,1.013,0,0,1-.547-1.126" transform="translate(-1400.237 -757.104)" fill="#eff4f4"/>
      <path id="Path_113" data-name="Path 113" d="M1555.4,877.819c1.32-1.961,2.6-3.954,3.745-6.022a11.209,11.209,0,0,0,1.323-3.653c.059-.316.111-.631.142-.945.02-.158.036-.316.048-.473s.008-.32,0-.479a11.47,11.47,0,0,0-.155-1.888l-.344-1.993c-.135-.663-.289-1.327-.436-1.978-.3-1.307-.583-2.571-.979-3.842l-.214.632a.247.247,0,0,1,.028.076c.083.279.151.556.214.831l.194.835.376,1.7c.115.569.254,1.153.348,1.725l.286,1.736a.589.589,0,0,1-.44.657.507.507,0,0,1-.606-.431q-.22-1.382-.459-2.723c-.19-.906-.4-1.8-.6-2.68l-.447,1.131c0,.013.012.026.016.04a70.313,70.313,0,0,1,1.49,8.927.593.593,0,0,1-.464.651.5.5,0,0,1-.586-.461q-.22-1.934-.475-3.792c-.2-1.25-.444-2.491-.682-3.7l-.4.886-.114.268a.939.939,0,0,1,.031.1l.229,1.182.112.6.087.591c.119.79.229,1.591.337,2.4a.569.569,0,0,1-.456.633.514.514,0,0,1-.591-.452c-.135-1.02-.281-2.023-.432-3.009a14.4,14.4,0,0,0-.392,4.756,73.072,73.072,0,0,1,.261,8.165m-1.09.064c.067-1.359.028-2.748,0-4.095-.02-.676-.035-1.339-.071-2l-.155-2a13.711,13.711,0,0,1-.032-1.974,15.812,15.812,0,0,1,.186-1.947,12.535,12.535,0,0,1,.463-1.876,13.51,13.51,0,0,1,.67-1.833l.661-1.461c.21-.491.4-.994.594-1.49.384-1,.813-1.98,1.13-3a1.058,1.058,0,0,1,1.01-.714,1.025,1.025,0,0,1,.983.748l.547,1.925c.162.643.309,1.288.459,1.945.29,1.308.6,2.66.8,4a13.41,13.41,0,0,1,.171,2.078c0,.351-.012.7-.04,1.055s-.095.693-.162,1.039a14.349,14.349,0,0,1-.555,2.063,9.355,9.355,0,0,1-.4,1.007q-.238.491-.512.968c-1.16,2.094-2.452,4.113-3.788,6.1a1.175,1.175,0,0,1-1.244.492,1,1,0,0,1-.714-1.021" transform="translate(-1405.74 -749.526)" fill="#eff4f4"/>
      <path id="Path_114" data-name="Path 114" d="M1559.133,878.865l-.067-.487-.087-.494a.5.5,0,0,0-.614-.418.546.546,0,0,0-.365.29.567.567,0,0,0-.067.361l.138.97a.5.5,0,0,0,.6.429.6.6,0,0,0,.459-.651" transform="translate(-1407.329 -758.488)" fill="#eff4f4"/>
      <path id="Path_115" data-name="Path 115" d="M1565.258,858.366l.729-1.616.365-.808c.127-.268.246-.539.348-.816l1.3-3.3a13.518,13.518,0,0,0,.718-3.823,11.934,11.934,0,0,0-.583-3.743c-.2-.64-.444-1.283-.69-1.917l-.729-1.878c-.468-1.231-1.042-2.452-1.6-3.634l-.215,1.184.452.9c.147.3.278.6.416.9q.4.91.808,1.845a.563.563,0,0,1-.265.728.515.515,0,0,1-.693-.272q-.523-1.222-1.066-2.4l-.2.86.678,1.426c.226.48.451.967.646,1.45.4.971.8,1.963,1.189,2.975a.585.585,0,0,1-.286.736.509.509,0,0,1-.686-.3c-.626-1.6-1.244-3.145-1.917-4.648-.068.326-.175.641-.262.962l-.04.15a.154.154,0,0,1,.02.036c.471,1.178.958,2.395,1.391,3.628a.567.567,0,0,1-.333.7.511.511,0,0,1-.67-.317l-.356-1.051c-.131-.35-.269-.7-.4-1.047a17.374,17.374,0,0,0-.056,2.532,13.772,13.772,0,0,0,.428,2.538q.464,1.926.883,3.943c.08.339.135.671.19,1l.167,1.009Zm-1.046.248q-.315-2.066-.666-4.042c-.254-1.327-.575-2.645-.875-3.921a15.147,15.147,0,0,1,.036-7.737c.071-.258.15-.513.218-.772l.178-.782.361-1.563.182-.781.087-.391.072-.4.281-1.579a1.072,1.072,0,0,1,.9-.867,1.018,1.018,0,0,1,1.086.578l.832,1.808c.27.609.563,1.232.792,1.85q.737,1.862,1.446,3.82a13.331,13.331,0,0,1,.642,4.121,14.5,14.5,0,0,1-.792,4.227l-1.319,3.343c-.1.281-.226.554-.353.826l-.368.819-.741,1.637a1.114,1.114,0,0,1-1.125.694.993.993,0,0,1-.868-.892" transform="translate(-1409.066 -741.483)" fill="#eff4f4"/>
      <path id="Path_116" data-name="Path 116" d="M1571.612,837.576l.484-1.706c.155-.57.273-1.15.412-1.725l.4-1.728c.063-.289.139-.575.194-.866l.154-.873a14.168,14.168,0,0,0,.21-1.953c.008-.325.008-.649,0-.97s-.064-.645-.111-.963a11.774,11.774,0,0,0-1.158-3.6q-1-1.808-2.009-3.519l-.249-.426-.274-.424-.547-.84-1.094-1.643-.016.667a.4.4,0,0,1,.048.062l.939,1.454c.154.245.313.493.464.74l.432.748q.856,1.5,1.716,3.081a.571.571,0,0,1-.217.761.5.5,0,0,1-.71-.214c-.2-.412-.432-.823-.658-1.23l-.681-1.209c-.46-.8-.9-1.58-1.379-2.349,0,.406-.055.809-.079,1.213.008.011.02.021.024.033q.571.941,1.141,1.913l.57.979c.186.329.349.658.527.99q.517,1,1.034,2.025c.341.685.7,1.383.995,2.082a.6.6,0,0,1-.258.761.5.5,0,0,1-.7-.249c-.265-.587-.507-1.162-.8-1.738l-.871-1.7c-.583-1.122-1.145-2.213-1.807-3.285l-.072.97c0,.1-.02.194-.028.291a.382.382,0,0,1,.06.085c.38.69.756,1.393,1.137,2.106l.562,1.08c.19.363.381.729.543,1.094a.574.574,0,0,1-.25.741.508.508,0,0,1-.7-.239c-.218-.461-.42-.914-.658-1.367l-.714-1.347a14.433,14.433,0,0,0,1.161,4.636l.408.925.372.929.725,1.893c.238.637.491,1.289.706,1.938Zm-1,.412-.626-1.959-.317-.962c-.111-.32-.237-.641-.356-.959-.487-1.273-.959-2.51-1.482-3.724a13.532,13.532,0,0,1-1.094-3.765,12.731,12.731,0,0,1-.111-3.879l.241-3.2c.056-.533.044-1.07.063-1.6l.04-1.606a1.088,1.088,0,0,1,.753-1c.44-.142.087-.658.344-.277a29.421,29.421,0,0,1,3,4.027c.694,1.147,1.347,2.326,2.021,3.537a12.479,12.479,0,0,1,1.193,8.259l-.158.884c-.052.294-.131.584-.194.877l-.4,1.751c-.139.582-.258,1.17-.416,1.748l-.492,1.729a1.145,1.145,0,0,1-1,.867,1.01,1.01,0,0,1-1.006-.743" transform="translate(-1410.837 -732.976)" fill="#eff4f4"/>
      <path id="Path_117" data-name="Path 117" d="M1573.285,838.567l-.456-.88a.506.506,0,0,0-.717-.2.568.568,0,0,0-.262.388.54.54,0,0,0,.056.365l.456.878a.505.505,0,0,0,.713.214.59.59,0,0,0,.21-.766" transform="translate(-1413.005 -742.153)" fill="#eff4f4"/>
      <path id="Path_118" data-name="Path 118" d="M1464.208,942.074c1.165-.212,2.33-.4,3.491-.636l3.455-.8a12.924,12.924,0,0,0,3.554-1.567,6.8,6.8,0,0,0,.781-.562c.245-.2.487-.413.717-.63a11.812,11.812,0,0,0,1.26-1.4l.614-.806.583-.838,1.137-1.667.546-.827c.182-.274.365-.546.535-.837l1.01-1.7-1.093.5c-.162.292-.321.59-.488.878l-.515.85c-.344.568-.7,1.14-1.062,1.715a.564.564,0,0,1-.749.193.513.513,0,0,1-.167-.725q.708-1.129,1.375-2.24l-.821.323-.792,1.366c-.135.227-.269.463-.412.683l-.424.661c-.575.883-1.165,1.773-1.78,2.67a.569.569,0,0,1-.773.169.5.5,0,0,1-.138-.727c.971-1.406,1.886-2.817,2.75-4.2-.313.112-.626.214-.943.321l-.143.053c-.007.012-.012.025-.019.036l-1.079,1.6c-.368.534-.737,1.088-1.129,1.593a.571.571,0,0,1-.769.124.51.51,0,0,1-.115-.732c.444-.6.887-1.176,1.3-1.807-.182.1-.364.212-.546.324s-.36.211-.539.323a11.851,11.851,0,0,0-1.034.734q-.5.4-.963.846c-.309.3-.6.628-.887.937q-1.332,1.471-2.754,2.964c-.955.958-1.95,1.891-2.976,2.846m-.793-.724q1.527-1.424,2.96-2.834c.479-.456.939-.977,1.394-1.463l1.344-1.474c.222-.248.452-.485.686-.712s.472-.469.718-.687a12.869,12.869,0,0,1,1.537-1.2c.27-.178.543-.346.824-.5s.554-.328.844-.474a12.492,12.492,0,0,1,1.795-.765l.756-.256c.254-.087.5-.193.749-.288l1.49-.589c.5-.2,1-.377,1.487-.6l1.462-.662a1.073,1.073,0,0,1,1.22.248,1.023,1.023,0,0,1,.139,1.224l-1.022,1.708-.527.861c-.179.289-.369.555-.551.835-.749,1.1-1.521,2.239-2.337,3.349a13.346,13.346,0,0,1-3.035,2.863,14.433,14.433,0,0,1-3.935,1.724l-3.5.808c-1.173.236-2.354.429-3.531.644a1.114,1.114,0,0,1-1.208-.54.991.991,0,0,1,.245-1.219" transform="translate(-1368.626 -779.417)" fill="#eff4f4"/>
      <path id="Path_119" data-name="Path 119" d="M1485.7,934.911l1.68-.569.42-.142.412-.162.824-.324,1.648-.651.825-.326.808-.364a13.685,13.685,0,0,0,1.728-.933c.273-.175.543-.358.8-.55a9.642,9.642,0,0,0,.733-.634,11.552,11.552,0,0,0,2.311-2.99q.927-1.842,1.77-3.636c.54-1.232,1.043-2.464,1.526-3.667l-.562.359a.532.532,0,0,1-.02.077l-.673,1.587c-.234.529-.46,1.078-.718,1.587q-.754,1.556-1.573,3.149a.568.568,0,0,1-.749.257.5.5,0,0,1-.221-.706c.439-.815.848-1.664,1.252-2.482l.594-1.23.289-.612.27-.631-.511.327-.528.3c-.007.012-.007.025-.015.038-.3.667-.614,1.339-.931,2.016s-.646,1.37-1.006,2.019-.714,1.326-1.086,2-.749,1.356-1.157,2a.6.6,0,0,1-.773.219.5.5,0,0,1-.191-.717c.337-.551.674-1.078.983-1.64l.919-1.678.876-1.658c.143-.271.281-.553.412-.839l.4-.849-.839.485c-.088.048-.166.1-.254.146a.4.4,0,0,1-.035.1q-.535,1.054-1.1,2.125l-.571,1.075c-.19.363-.388.722-.6,1.064a.571.571,0,0,1-.749.214.508.508,0,0,1-.2-.714c.254-.442.512-.866.753-1.315l.709-1.349q-.463.375-.892.8c-.281.287-.566.549-.832.848a12.788,12.788,0,0,0-1.446,1.93c-.175.285-.349.579-.531.859l-.559.829-1.149,1.673c-.773,1.143-1.609,2.2-2.472,3.3m-.9-.593,1.26-1.625c.412-.542.824-1.064,1.209-1.634.773-1.121,1.521-2.223,2.234-3.326a13.415,13.415,0,0,1,2.485-3.035,13.045,13.045,0,0,1,3.134-2.282l2.781-1.6c.908-.565,1.8-1.153,2.7-1.726a1.1,1.1,0,0,1,1.24.042,1.052,1.052,0,0,1,.341,1.2c-.479,1.218-1,2.438-1.533,3.685-.266.632-.567,1.221-.86,1.832l-.915,1.835a12.464,12.464,0,0,1-6.138,5.653l-.816.369-.836.33-1.672.659-.836.329-.417.163-.428.145-1.7.576a1.143,1.143,0,0,1-1.28-.336,1.015,1.015,0,0,1,.044-1.252" transform="translate(-1377.396 -775.405)" fill="#eff4f4"/>
      <path id="Path_120" data-name="Path 120" d="M1496.7,936.315l.468-.875a.5.5,0,0,0-.238-.7.563.563,0,0,0-.468,0,.577.577,0,0,0-.273.252l-.463.874a.5.5,0,0,0,.225.708.589.589,0,0,0,.749-.259" transform="translate(-1381.928 -781.838)" fill="#eff4f4"/>
      <path id="Path_121" data-name="Path 121" d="M1506.109,924.584l.789-.4c.261-.142.515-.292.773-.439l1.537-.883.765-.442.384-.222.376-.238,1.49-.956a11.637,11.637,0,0,0,1.565-1.182,13.16,13.16,0,0,0,1.307-1.433,12.4,12.4,0,0,0,1.062-1.579,11.72,11.72,0,0,0,.733-1.749l.622-1.93.146-.478.135-.49.262-.977.495-1.929.23-.952.2-.973c-.293.276-.575.56-.888.816-.257,1.288-.547,2.6-.856,3.931a.569.569,0,0,1-.666.4.508.508,0,0,1-.384-.632c.233-.833.408-1.715.59-2.562l-.666.578c-.051.258-.1.52-.151.776l-.178.76-.369,1.536c-.258,1.024-.511,2.092-.836,3.1a.584.584,0,0,1-.686.395.5.5,0,0,1-.364-.646l.36-1.208.174-.6.155-.616q.309-1.23.587-2.434l-.784.616-.119.1c0,.014,0,.027-.008.041-.162.618-.317,1.259-.5,1.872l-.582,1.85a.563.563,0,0,1-.678.372.512.512,0,0,1-.344-.658c.229-.716.448-1.426.662-2.128a11.8,11.8,0,0,0-1.566,2c-.115.18-.222.368-.332.551s-.215.363-.317.549a12.8,12.8,0,0,0-.555,1.157l-.8,1.857c-.265.628-.57,1.212-.868,1.827l-.919,1.838c-.159.307-.313.621-.479.924Zm-.99-.448c.337-.6.674-1.189.99-1.789l.912-1.833.872-1.809c.285-.6.535-1.232.792-1.839a16.612,16.612,0,0,1,1.966-3.4,12.253,12.253,0,0,1,1.276-1.454c.234-.222.468-.444.706-.667s.487-.432.745-.635c.84-.664,1.7-1.3,2.488-2.024l1.216-1.05.606-.525.579-.554a1.052,1.052,0,0,1,1.224-.163,1.027,1.027,0,0,1,.523,1.123c-.135.645-.262,1.309-.416,1.954l-.5,1.935-.539,1.966c-.19.655-.408,1.289-.618,1.943a11.487,11.487,0,0,1-1.97,3.675,14.651,14.651,0,0,1-1.446,1.574,8.081,8.081,0,0,1-.832.692c-.293.217-.59.425-.9.622l-1.514.968-.376.241-.389.224-.78.448-1.557.894c-.257.148-.515.3-.777.444l-.8.41a1.159,1.159,0,0,1-1.323-.138,1,1,0,0,1-.159-1.237" transform="translate(-1385.727 -770.245)" fill="#eff4f4"/>
      <path id="Path_122" data-name="Path 122" d="M1524.8,911.459l2.786-2.191,2.678-2.32a7.3,7.3,0,0,0,.7-.693c.222-.242.432-.491.634-.747a13.547,13.547,0,0,0,1.086-1.6,6.757,6.757,0,0,0,.424-.859q.19-.442.344-.893a11.506,11.506,0,0,0,.468-1.825l.162-1,.131-1.014.23-2c.162-1.309.23-2.654.3-3.957l-.412.523a.528.528,0,0,1,0,.081c-.036.571-.075,1.151-.122,1.728l-.2,1.715-.226,1.742-.118.881-.151.865a.588.588,0,0,1-.634.476.506.506,0,0,1-.436-.6l.234-1.362c.076-.45.127-.921.187-1.375.11-.916.218-1.82.309-2.713l-.8.919a.135.135,0,0,1,0,.042c-.067.734-.146,1.476-.23,2.225s-.214,1.469-.333,2.215-.245,1.5-.38,2.256c-.151.744-.318,1.486-.484,2.24a.6.6,0,0,1-.658.461.5.5,0,0,1-.408-.622l.408-1.874.19-.926c.06-.311.107-.63.159-.942.2-1.257.4-2.484.551-3.7-.214.243-.444.471-.666.707l-.2.215a1.034,1.034,0,0,1,0,.1q-.161,1.177-.349,2.383c-.032.2-.06.4-.1.6l-.115.59-.238,1.189a.571.571,0,0,1-.638.449.512.512,0,0,1-.417-.616c.2-1.008.4-1.981.559-2.979a14.1,14.1,0,0,0-1.13,2.092c-.159.367-.3.744-.42,1.13s-.229.781-.333,1.166c-.325,1.281-.67,2.587-1.046,3.909q-.612,1.924-1.3,3.909m-1.046-.278c.472-1.3.888-2.612,1.3-3.886.1-.322.2-.632.293-.961l.262-.979.5-1.934a16.279,16.279,0,0,1,1.4-3.667c.155-.283.321-.56.495-.829s.341-.55.531-.813a12.5,12.5,0,0,1,1.233-1.511l.555-.58.523-.606,1.054-1.213c.717-.793,1.363-1.647,2.025-2.487a1.075,1.075,0,0,1,1.2-.346,1.022,1.022,0,0,1,.689,1.021l-.115,1.983c-.047.666-.083,1.35-.167,2.007-.15,1.324-.313,2.682-.515,4.048a13.38,13.38,0,0,1-1.355,3.943,14.629,14.629,0,0,1-1.2,1.76q-.333.423-.7.826a8.487,8.487,0,0,1-.776.769l-2.715,2.35-2.821,2.218a1.137,1.137,0,0,1-1.331.077.992.992,0,0,1-.349-1.191" transform="translate(-1393.359 -764.142)" fill="#eff4f4"/>
      <path id="Path_123" data-name="Path 123" d="M1532.5,912.726l.158-.986a.5.5,0,0,0-.448-.591.551.551,0,0,0-.439.154.569.569,0,0,0-.175.329c-.052.324-.1.662-.162.978a.5.5,0,0,0,.436.6.571.571,0,0,0,.63-.483" transform="translate(-1396.517 -772.234)" fill="#eff4f4"/>
      <path id="Path_124" data-name="Path 124" d="M1377.942,935.442l1.577.808c.527.267,1.046.548,1.589.781,1.078.484,2.151.982,3.233,1.452a13.385,13.385,0,0,0,3.78.9,12.181,12.181,0,0,0,3.765-.407,71.012,71.012,0,0,0,7.556-2.671l-1.169-.27c-1.224.567-2.453,1.028-3.725,1.506a.566.566,0,0,1-.713-.3.516.516,0,0,1,.3-.678q1.243-.468,2.445-.948l-.848-.242c-.959.4-1.942.821-2.936,1.191s-1.993.7-3.023,1.045a.58.58,0,0,1-.717-.323.5.5,0,0,1,.324-.668q1.218-.407,2.4-.827l1.169-.423.579-.214.582-.239-.48-.136-.471-.16-.146-.047c-.016.005-.024.013-.04.017-1.2.417-2.429.83-3.685,1.223a.568.568,0,0,1-.685-.367.509.509,0,0,1,.349-.654c.357-.105.709-.2,1.066-.315l1.066-.354c-.42-.064-.848-.091-1.264-.125a12.142,12.142,0,0,0-1.264-.043,12.864,12.864,0,0,0-2.556.31c-1.3.252-2.619.479-3.973.7-.682.12-1.348.184-2.029.265Zm-.2-1.059q2.075-.211,4.061-.469c1.344-.209,2.667-.451,3.958-.695.646-.114,1.312-.23,1.966-.283a12.971,12.971,0,0,1,1.945-.02c.634.055,1.284.107,1.922.217a12.43,12.43,0,0,1,1.886.48c2.045.624,4.1,1.218,6.19,1.664a1.082,1.082,0,0,1,.824.937,1.02,1.02,0,0,1-.63,1.059c-1.209.49-2.457,1-3.725,1.455q-1.89.642-3.879,1.258a12.892,12.892,0,0,1-4.144.449,7.453,7.453,0,0,1-1.054-.115c-.352-.057-.7-.129-1.054-.213a15.451,15.451,0,0,1-2.072-.658c-1.1-.475-2.183-.98-3.277-1.47-.551-.236-1.078-.522-1.609-.792l-1.6-.819a1.124,1.124,0,0,1-.642-1.153,1.013,1.013,0,0,1,.935-.833" transform="translate(-1333.436 -781.104)" fill="#eff4f4"/>
      <path id="Path_125" data-name="Path 125" d="M1398.279,942.807l1.68.566,1.7.485,1.708.484.424.121.432.1.864.2a11.425,11.425,0,0,0,7.521-.72q1.849-.908,3.6-1.829c1.173-.663,2.318-1.341,3.428-2.013l-.666-.05a.441.441,0,0,1-.063.047l-1.494.862c-.5.281-1.014.589-1.526.838q-1.539.784-3.154,1.56a.563.563,0,0,1-.749-.236.5.5,0,0,1,.246-.7c.844-.4,1.68-.82,2.5-1.233l1.212-.622c.2-.105.4-.2.6-.316l.6-.341-.606-.046-.6-.076c-.011.007-.024.016-.035.023q-.962.523-1.961,1.043l-1,.519-.508.26-.507.234q-1.017.469-2.069.933l-1.058.463c-.353.153-.713.313-1.066.443a.6.6,0,0,1-.748-.295.5.5,0,0,1,.281-.686c1.189-.437,2.369-.993,3.514-1.509l1.7-.79c.558-.276,1.117-.578,1.664-.867l-.963-.121-.289-.031a.7.7,0,0,1-.091.058c-1.411.691-2.869,1.379-4.375,2.044a.577.577,0,0,1-.729-.286.51.51,0,0,1,.273-.689c.931-.365,1.867-.828,2.774-1.252q-.594.019-1.188.1c-.2.026-.4.057-.594.092s-.393.057-.587.093a12.588,12.588,0,0,0-2.31.661c-1.256.513-2.516.914-3.812,1.336-.65.209-1.308.417-1.97.619Zm-.361-1.022a71.621,71.621,0,0,0,7.719-2.428,14.189,14.189,0,0,1,3.808-.923,12.638,12.638,0,0,1,1.938-.107c.325.007.646.027.967.059l.971.115,3.181.4,3.2.249a1.082,1.082,0,0,1,.606.249,1.04,1.04,0,0,1-.1,1.7q-1.67,1.009-3.443,2.014c-.59.346-1.185.639-1.791.946l-1.835.911a11.515,11.515,0,0,1-4.014,1.114c-.353.037-.709.061-1.066.072-.178,0-.356.01-.535,0s-.357-.021-.535-.037a15.445,15.445,0,0,1-2.151-.341l-.872-.2-.439-.1-.432-.122-1.727-.49-1.723-.492-1.7-.574a1.145,1.145,0,0,1-.816-1.044,1,1,0,0,1,.789-.972" transform="translate(-1341.73 -783.321)" fill="#eff4f4"/>
      <path id="Path_126" data-name="Path 126" d="M1412.356,944.726l.9-.413a.506.506,0,0,0,.233-.7.582.582,0,0,0-.376-.284.573.573,0,0,0-.368.037l-.9.413a.505.505,0,0,0-.249.7.592.592,0,0,0,.756.25" transform="translate(-1347.61 -785.356)" fill="#eff4f4"/>
      <path id="Path_127" data-name="Path 127" d="M1419.819,946.374c.294.049.579.111.872.148l.88.112,1.759.223.88.111.44.054.44.034,1.767.135a10.274,10.274,0,0,0,3.863-.355,12.491,12.491,0,0,0,1.8-.626c.142-.063.285-.129.424-.2s.281-.153.416-.233c.278-.161.543-.331.8-.512l1.657-1.176c.543-.4,1.082-.77,1.609-1.2q1.582-1.257,3.063-2.508l-1.2.091c-.491.44-.994.881-1.5,1.323l-.772.663c-.257.222-.519.418-.784.629a.567.567,0,0,1-.772-.075.512.512,0,0,1,.075-.737c.689-.545,1.363-1.076,2.02-1.67-.293.02-.586.051-.883.062q-1.172,1.008-2.41,2.02l-1.251,1.012c-.42.323-.848.634-1.284.951a.585.585,0,0,1-.785-.1.5.5,0,0,1,.1-.735c.686-.5,1.355-.995,2.013-1.507q.986-.8,1.934-1.6l-.995.025-.155.007c-.012.01-.02.02-.031.029l-.761.606c-.253.2-.511.381-.769.572l-1.58,1.131a.561.561,0,0,1-.765-.109.513.513,0,0,1,.119-.733c.614-.435,1.22-.872,1.811-1.307a12.221,12.221,0,0,0-2.453.658c-.4.163-.793.3-1.177.481a12.489,12.489,0,0,0-1.141.589l-1.752,1c-.3.172-.594.327-.9.477l-.9.457-1.843.91-.939.452c-.313.15-.626.277-.943.415m-.523-.958.939-.409c.313-.136.622-.269.931-.426l1.831-.911,1.783-.917c.586-.307,1.173-.662,1.743-.992a13.758,13.758,0,0,1,1.775-.878c.3-.126.6-.228.911-.339s.615-.217.927-.308a12.53,12.53,0,0,1,1.894-.4c.322-.043.642-.068.968-.09s.65-.055.979-.063l1.6-.041c.536-.02,1.07-.008,1.605-.063l3.2-.243a1.041,1.041,0,0,1,.812,1.817c-.491.457-1,.858-1.514,1.28l-1.565,1.257c-1.058.864-2.156,1.625-3.281,2.413a13.51,13.51,0,0,1-1.807,1.056,12.868,12.868,0,0,1-1.978.688,14.819,14.819,0,0,1-2.1.391,13.153,13.153,0,0,1-2.175,0l-1.788-.137-.448-.035-.443-.055-.892-.112-1.779-.227-.891-.114c-.3-.038-.59-.1-.884-.15a1.166,1.166,0,0,1-.974-.912,1,1,0,0,1,.618-1.081" transform="translate(-1350.515 -783.732)" fill="#eff4f4"/>
      <path id="Path_128" data-name="Path 128" d="M1441.857,945.941l3.542-.085c.293-.012.591-.007.884-.031l.884-.066,1.767-.134a11.1,11.1,0,0,0,3.76-.964,10.724,10.724,0,0,0,1.676-.9,12.045,12.045,0,0,0,1.47-1.2l1.45-1.412.356-.353.345-.371.69-.741,1.339-1.474.649-.732c.214-.249.421-.511.63-.766l-.642.182a.571.571,0,0,1-.043.068c-1.514,1.668-3.106,3.42-4.838,5a.582.582,0,0,1-.789.009.509.509,0,0,1,.012-.744c.678-.642,1.344-1.283,1.989-1.92.325-.309.638-.663.951-.994l.927-1-1.185.273-.024.034c-.5.566-1.011,1.083-1.529,1.61s-1.058,1.057-1.6,1.588c-.27.263-.543.536-.82.794l-.848.754q-.85.754-1.732,1.513a.6.6,0,0,1-.8-.018.507.507,0,0,1,.048-.744q1.474-1.271,2.865-2.533l.344-.315.34-.333.67-.667,1.311-1.328-.955.171-.289.057a.412.412,0,0,1-.063.081c-1.109,1.173-2.29,2.221-3.51,3.32a.566.566,0,0,1-.776-.017.514.514,0,0,1,.04-.743c.764-.688,1.513-1.374,2.239-2.056a14.439,14.439,0,0,0-4.145,2.358l-1.573,1.258-.8.63c-.27.206-.543.394-.816.593-1.1.783-2.231,1.574-3.4,2.352m-.666-.868c.289-.185.574-.358.859-.553l.852-.588,1.664-1.177c.547-.4,1.086-.77,1.612-1.19l1.566-1.258a13.907,13.907,0,0,1,1.613-1.135,16.322,16.322,0,0,1,1.712-.944,12.518,12.518,0,0,1,1.811-.678,16.616,16.616,0,0,1,1.89-.476c1.05-.189,2.108-.356,3.142-.62l1.565-.36.781-.179c.257-.065.515-.145.773-.216a1.043,1.043,0,0,1,1.094,1.664c-.42.507-.84,1.04-1.284,1.53l-1.347,1.475-1.4,1.486c-.472.5-.963.948-1.458,1.427a12.908,12.908,0,0,1-1.617,1.316,8.85,8.85,0,0,1-.9.556c-.3.163-.622.314-.947.455a14.567,14.567,0,0,1-2.016.7,8.824,8.824,0,0,1-1.058.235c-.357.053-.721.094-1.086.121l-1.787.136-.9.067c-.3.024-.6.02-.9.032l-3.586.086a1.18,1.18,0,0,1-1.105-.754.992.992,0,0,1,.44-1.162" transform="translate(-1359.506 -782.234)" fill="#eff4f4"/>
      <path id="Path_129" data-name="Path 129" d="M1455.069,947.378l.365-.33.356-.349a.5.5,0,0,0,0-.743.548.548,0,0,0-.443-.137.568.568,0,0,0-.337.146l-.721.66a.5.5,0,0,0-.016.742.593.593,0,0,0,.8.012" transform="translate(-1364.979 -786.377)" fill="#eff4f4"/>
      <path id="Path_130" data-name="Path 130" d="M1317.621,873.138c.123.269.238.54.369.805l.4.788.809,1.577c.515,1.062,1.133,2.072,1.716,3.1.162.285.337.565.519.836a7.118,7.118,0,0,0,.59.779,13.465,13.465,0,0,0,1.367,1.374,11.082,11.082,0,0,0,1.529,1.129,11.977,11.977,0,0,0,1.711.815l1.895.707c.63.23,1.288.426,1.921.63l1.9.582c.317.093.622.191.943.274l.963.243c-.258-.308-.535-.6-.777-.917q-1.907-.48-3.883-1.04a.556.556,0,0,1-.377-.679.51.51,0,0,1,.65-.356l.622.193.642.176,1.268.337-.543-.693-.769-.186c-.257-.064-.5-.138-.757-.208l-1.513-.44-1.533-.466-.773-.242-.753-.266a.586.586,0,0,1-.36-.7.5.5,0,0,1,.662-.335c1.569.582,3.217,1.046,4.794,1.493l-.578-.812-.091-.124c-.012,0-.028,0-.04-.008-.614-.189-1.236-.38-1.85-.586l-1.819-.666a.563.563,0,0,1-.337-.7.508.508,0,0,1,.67-.313q1.057.391,2.092.757a14.242,14.242,0,0,0-4.116-2.96c-1.2-.574-2.437-1.162-3.6-1.828l-1.791-1-.9-.519c-.3-.177-.582-.363-.876-.547m.5-.971c.586.363,1.145.731,1.744,1.07l1.786,1,1.763.953c.594.3,1.2.591,1.8.876a13.961,13.961,0,0,1,1.723.968l.8.554q.4.284.772.593a12.1,12.1,0,0,1,1.387,1.342c.21.245.432.483.638.732s.408.508.6.775l.932,1.307c.15.22.313.432.479.64l.5.63.99,1.26c.166.209.324.425.5.627l.527.606a1.055,1.055,0,0,1,.1,1.232,1.032,1.032,0,0,1-1.145.471c-.638-.163-1.288-.328-1.934-.5l-1.906-.59-1.938-.627c-.329-.1-.646-.222-.959-.343l-.955-.362a11.57,11.57,0,0,1-3.578-2.133,14.81,14.81,0,0,1-1.5-1.519q-.179-.206-.345-.418c-.11-.143-.214-.292-.313-.443-.2-.3-.4-.61-.579-.928-.59-1.039-1.213-2.061-1.739-3.138l-.816-1.6-.408-.8c-.135-.267-.25-.544-.376-.815a1.171,1.171,0,0,1,.2-1.318,1,1,0,0,1,1.245-.1" transform="translate(-1308.859 -756.263)" fill="#eff4f4"/>
      <path id="Path_131" data-name="Path 131" d="M1328.587,892.341c.686.961,1.363,1.93,2.06,2.881l2.188,2.785a13.09,13.09,0,0,0,2.924,2.553,11.7,11.7,0,0,0,3.515,1.4c.654.151,1.331.267,2,.381l1.985.326c1.3.224,2.643.342,3.939.473l-.5-.436a.467.467,0,0,1-.084,0l-1.719-.2c-.567-.084-1.13-.181-1.7-.277l-1.727-.3c-.579-.1-1.165-.213-1.732-.349a.583.583,0,0,1-.444-.654.5.5,0,0,1,.618-.409l1.348.3c.456.088.915.165,1.371.245q1.36.235,2.69.438l-.88-.839c-.016,0-.028,0-.043,0-.729-.1-1.462-.216-2.207-.334s-1.458-.281-2.2-.432-1.482-.315-2.235-.484-1.47-.382-2.215-.583a.6.6,0,0,1-.428-.676.5.5,0,0,1,.638-.38,73.15,73.15,0,0,0,7.378,1.642c-.242-.218-.452-.463-.678-.694l-.206-.207a.627.627,0,0,1-.1-.008c-1.553-.291-3.166-.594-4.719-1.013a.57.57,0,0,1-.42-.658.51.51,0,0,1,.634-.387l1.478.363c.487.118.971.236,1.474.327-.337-.22-.658-.445-.995-.651a11.711,11.711,0,0,0-1.046-.57,14.677,14.677,0,0,0-2.259-.852q-1.9-.576-3.851-1.229c-1.272-.46-2.544-.958-3.844-1.478m.321-1.03c1.284.523,2.568,1.006,3.823,1.47.619.239,1.277.438,1.914.642l1.906.588a15.166,15.166,0,0,1,6.641,3.957c.186.192.365.391.555.578l.583.552,1.157,1.106c.757.756,1.589,1.431,2.394,2.136a1.075,1.075,0,0,1,.286,1.212,1.017,1.017,0,0,1-1.05.642l-1.973-.208-1-.116-.5-.061-.5-.077q-1.973-.315-4.018-.7a13.436,13.436,0,0,1-3.875-1.536,14.43,14.43,0,0,1-3.23-2.826l-2.215-2.82c-.7-.964-1.391-1.946-2.084-2.919a1.12,1.12,0,0,1-.02-1.328.987.987,0,0,1,1.2-.294" transform="translate(-1313.323 -764.105)" fill="#eff4f4"/>
      <path id="Path_132" data-name="Path 132" d="M1340.176,900.56l.979.2a.505.505,0,0,0,.61-.421.576.576,0,0,0-.452-.635l-.975-.2a.5.5,0,0,0-.619.407.576.576,0,0,0,.456.649" transform="translate(-1318.306 -767.478)" fill="#eff4f4"/>
      <path id="Path_133" data-name="Path 133" d="M1342.553,909.565l1.224,1.281c.416.42.852.819,1.276,1.229.856.812,1.692,1.645,2.6,2.4a11.277,11.277,0,0,0,3.3,2.053,12.567,12.567,0,0,0,1.819.576c.3.071.615.131.919.177s.634.061.946.073c1.375.041,2.706.086,4.038.07q2.021-.052,3.963-.157l-1.014-.649c-.658.055-1.324.105-1.993.152-.337.022-.677.047-1.014.063l-1,.026a.57.57,0,0,1-.575-.523.514.514,0,0,1,.507-.544l1.308-.038.65-.025.658-.048c-.249-.159-.5-.313-.737-.489-2.052.127-4.216.254-6.344.2a.583.583,0,0,1-.571-.545.5.5,0,0,1,.523-.527q1.272.015,2.516.006c.412,0,.84-.021,1.256-.04l1.249-.065-.812-.577-.127-.087c-.012,0-.027,0-.04.005-.654.03-1.276.007-1.926,0l-1.945-.042a.564.564,0,0,1-.551-.545.516.516,0,0,1,.543-.511c.753.019,1.5.032,2.239.039a11.682,11.682,0,0,0-1.153-.529c-.389-.16-.8-.285-1.2-.424a12.6,12.6,0,0,0-2.5-.544c-1.347-.134-2.647-.371-3.994-.6-.666-.12-1.355-.233-2.025-.376Zm.158-1.072,2,.455.986.214,1.01.178,1.989.33.983.153.487.073.5.056a14.278,14.278,0,0,1,3.8.966,12.494,12.494,0,0,1,1.76.815c.567.311,1.089.692,1.632,1.058.876.614,1.736,1.249,2.619,1.848l2.7,1.73a1.041,1.041,0,0,1-.447,1.939,71.983,71.983,0,0,1-8.059.116c-.345-.012-.694-.039-1.043-.079a7.794,7.794,0,0,1-1.026-.178,13.668,13.668,0,0,1-2-.638q-.493-.2-.974-.436c-.159-.079-.321-.161-.476-.246s-.3-.186-.455-.283a15.389,15.389,0,0,1-1.739-1.306c-.919-.766-1.767-1.609-2.635-2.431-.428-.415-.872-.819-1.292-1.245l-1.236-1.3a1.148,1.148,0,0,1-.238-1.3,1.012,1.012,0,0,1,1.153-.493" transform="translate(-1319.015 -771.14)" fill="#eff4f4"/>
      <path id="Path_134" data-name="Path 134" d="M1359.017,924.311c1.895,1.411,3.82,2.779,5.829,4.024a11.156,11.156,0,0,0,3.583,1.5c.309.075.622.137.934.188.155.025.313.048.468.066s.317.024.479.031a11.832,11.832,0,0,0,1.89-.067l2-.248c.67-.1,1.339-.222,2-.338,1.319-.24,2.595-.461,3.879-.794l-.618-.243a.7.7,0,0,1-.075.026l-.424.094-.421.077-.84.152-1.711.294c-.571.091-1.161.2-1.736.268l-1.748.2a.584.584,0,0,1-.634-.47.508.508,0,0,1,.46-.585c.927-.1,1.843-.212,2.738-.327.915-.147,1.819-.306,2.707-.468l-1.11-.5a.342.342,0,0,1-.036.012,70.314,70.314,0,0,1-8.983,1.061.593.593,0,0,1-.626-.5.5.5,0,0,1,.488-.563q1.943-.124,3.807-.294c1.256-.136,2.509-.322,3.721-.5l-.864-.443-.266-.128a.58.58,0,0,1-.1.026l-1.189.173-.6.083-.594.06q-1.195.118-2.413.219a.567.567,0,0,1-.61-.483.513.513,0,0,1,.479-.569q1.54-.13,3.024-.288a14.337,14.337,0,0,0-4.727-.619,73.238,73.238,0,0,1-8.163-.129m-.008-1.091c1.351.13,2.738.161,4.085.193.674.014,1.339.028,2.005.028l2-.063a13.8,13.8,0,0,1,1.973.064,16.246,16.246,0,0,1,1.93.28,12.246,12.246,0,0,1,1.85.551,13.736,13.736,0,0,1,1.8.757l1.426.731c.479.235.971.443,1.458.667.975.434,1.938.9,2.94,1.272a1.054,1.054,0,0,1,.662,1.043,1.03,1.03,0,0,1-.793.948l-1.949.452c-.65.132-1.3.245-1.962.364-1.32.227-2.687.473-4.03.606a13.054,13.054,0,0,1-2.084.069c-.349-.016-.7-.044-1.05-.09s-.686-.127-1.03-.209a14.785,14.785,0,0,1-2.029-.654,9.193,9.193,0,0,1-.986-.452q-.475-.26-.939-.557c-2.033-1.261-3.986-2.646-5.9-4.076a1.166,1.166,0,0,1-.428-1.262,1,1,0,0,1,1.054-.664" transform="translate(-1325.728 -777.158)" fill="#eff4f4"/>
      <path id="Path_135" data-name="Path 135" d="M1372.518,928.514c.325-.027.653-.06.986-.106a.508.508,0,0,0,.449-.594.6.6,0,0,0-.63-.464l-.975.093a.5.5,0,0,0-.459.582.594.594,0,0,0,.63.49" transform="translate(-1331.43 -778.843)" fill="#eff4f4"/>
      <path id="Path_136" data-name="Path 136" d="M1306.813,785.7c-.068.287-.139.574-.2.864l-.155.872-.313,1.744-.155.871-.079.436-.056.439-.222,1.757a13.043,13.043,0,0,0-.107,1.957,13.422,13.422,0,0,0,.265,1.922,12.212,12.212,0,0,0,.531,1.826,6.747,6.747,0,0,0,.393.864c.146.281.3.555.47.822l1.09,1.713c.368.564.717,1.119,1.122,1.666q1.176,1.642,2.349,3.188l-.026-1.2q-.624-.772-1.245-1.567c-.42-.531-.84-1.069-1.216-1.617a.568.568,0,0,1,.115-.767.511.511,0,0,1,.734.111l.76,1.061c.249.35.539.7.808,1.04-.008-.294-.019-.588-.019-.883q-.951-1.222-1.9-2.507l-.947-1.3c-.3-.439-.59-.881-.887-1.329a.584.584,0,0,1,.138-.778.5.5,0,0,1,.729.134c.468.709.923,1.4,1.4,2.086.5.684,1,1.354,1.505,2.011l.024-1v-.154c-.008-.011-.02-.02-.028-.031l-.567-.79c-.19-.264-.352-.531-.531-.8l-1.054-1.633a.565.565,0,0,1,.151-.759.51.51,0,0,1,.725.159q.607.951,1.212,1.872a12,12,0,0,0-.53-2.481c-.143-.408-.262-.806-.42-1.2s-.333-.785-.531-1.169l-.915-1.8c-.159-.3-.3-.609-.432-.915l-.413-.924-.816-1.884-.4-.96c-.127-.32-.241-.641-.36-.964m.983-.473c.241.645.468,1.277.737,1.91l.816,1.875.824,1.827c.274.6.6,1.2.9,1.79a13.893,13.893,0,0,1,.788,1.814c.107.308.194.615.29.927s.186.626.261.942a12.591,12.591,0,0,1,.3,1.912c.028.322.032.644.044.969s.024.651.011.979l-.039,1.6c-.007.535-.043,1.069-.016,1.6l.083,3.209a1.043,1.043,0,0,1-1.858.719c-.432-.516-.8-1.044-1.2-1.577l-1.177-1.627c-.808-1.1-1.517-2.233-2.246-3.4a13.372,13.372,0,0,1-.964-1.857,12.733,12.733,0,0,1-.586-2.008,14.383,14.383,0,0,1-.285-2.119,13.191,13.191,0,0,1,.11-2.17l.226-1.779.059-.445.079-.442.155-.882.317-1.767.158-.883c.061-.294.132-.583.2-.876a1.167,1.167,0,0,1,.958-.926,1,1,0,0,1,1.05.674" transform="translate(-1303.931 -720.585)" fill="#eff4f4"/>
      <path id="Path_137" data-name="Path 137" d="M1304.708,807.614l-.091,3.539c-.023.59,0,1.18.012,1.77l.044,1.77a11.127,11.127,0,0,0,.773,3.8,10.981,10.981,0,0,0,.812,1.718,11.824,11.824,0,0,0,1.125,1.527c.9,1.03,1.763,2.03,2.726,2.983l1.407,1.411c.464.462.924.918,1.427,1.357l-.151-.648c-.02-.015-.04-.031-.059-.05q-1.2-1.2-2.417-2.462l-.606-.638c-.2-.214-.385-.433-.579-.652l-1.149-1.333a.585.585,0,0,1,.028-.789.512.512,0,0,1,.745.051q.909,1.065,1.819,2.083c.294.34.623.671.939,1l.959.976-.214-1.2a.166.166,0,0,1-.032-.026c-.543-.522-1.026-1.062-1.529-1.611s-1-1.107-1.506-1.676c-.246-.285-.507-.571-.749-.861l-.709-.882q-.708-.89-1.423-1.809a.593.593,0,0,1,.059-.8.507.507,0,0,1,.741.088q1.195,1.536,2.385,2.986c.38.484.829.955,1.24,1.422l1.26,1.376-.119-.963-.043-.289a.531.531,0,0,1-.08-.069c-1.118-1.169-2.1-2.4-3.138-3.673a.569.569,0,0,1,.06-.775.509.509,0,0,1,.737.078q.975,1.2,1.942,2.341a14.4,14.4,0,0,0-2.144-4.26l-1.177-1.633-.59-.835c-.195-.28-.368-.562-.555-.846q-1.088-1.7-2.179-3.506m.9-.623c.17.3.325.594.511.888l.543.879,1.094,1.72.546.842c.178.279.361.555.559.831l1.177,1.624a13.8,13.8,0,0,1,1.054,1.669,16.685,16.685,0,0,1,.855,1.757,12.585,12.585,0,0,1,.587,1.841c.063.314.15.629.218.947s.119.64.158.965c.143,1.059.246,2.124.459,3.172l.281,1.578c.091.526.178,1.053.313,1.571a1.051,1.051,0,0,1-.487,1.133,1.037,1.037,0,0,1-1.233-.126l-.737-.671c-.249-.226-.5-.454-.721-.687l-1.407-1.42-1.415-1.468c-.464-.5-.9-1.011-1.347-1.528a11.5,11.5,0,0,1-2.148-3.572,14.707,14.707,0,0,1-.6-2.048,9.577,9.577,0,0,1-.182-1.068c-.031-.36-.056-.724-.063-1.091l-.047-1.792c-.012-.6-.036-1.195-.008-1.792l.091-3.584a1.181,1.181,0,0,1,.809-1.066.992.992,0,0,1,1.141.5" transform="translate(-1303.557 -729.525)" fill="#eff4f4"/>
      <path id="Path_138" data-name="Path 138" d="M1309.327,821.045l.309.38.333.376a.5.5,0,0,0,.741.037.6.6,0,0,0,.031-.78l-.621-.754a.5.5,0,0,0-.741-.051.592.592,0,0,0-.051.793" transform="translate(-1305.858 -735.096)" fill="#eff4f4"/>
      <path id="Path_139" data-name="Path 139" d="M1305.431,829.776l.448,3.514.622,3.488q.047.243.1.484c.044.159.09.317.138.474.1.313.2.622.318.926a12.736,12.736,0,0,0,.828,1.749,9.1,9.1,0,0,0,1.1,1.559,11.742,11.742,0,0,0,1.34,1.331c1.01.882,2.116,1.7,3.177,2.5q.8.6,1.6,1.172l1.653,1.1-.441-1.117c-.583-.346-1.1-.722-1.663-1.094s-1.106-.759-1.661-1.15a.563.563,0,0,1-.158-.757.516.516,0,0,1,.733-.128q1.094.765,2.172,1.489l-.281-.835-1.328-.862c-.448-.291-.856-.6-1.288-.907q-1.282-.925-2.579-1.914a.567.567,0,0,1-.119-.781.5.5,0,0,1,.734-.1c.32.265.665.522,1.006.775l1.023.751q1.016.741,2.02,1.442l-.269-.957-.049-.148c-.011-.007-.023-.012-.035-.021l-1.545-1.158-.781-.6-.741-.618a.567.567,0,0,1-.087-.771.512.512,0,0,1,.737-.078l.86.709c.281.234.567.465.867.688-.2-.378-.365-.758-.578-1.123a12.051,12.051,0,0,0-.682-1.068,12.741,12.741,0,0,0-.8-1c-.143-.162-.293-.321-.439-.477s-.289-.312-.441-.464q-1.4-1.4-2.825-2.9-1.331-1.511-2.682-3.12m.765-.756c.891,1.067,1.791,2.1,2.678,3.1.226.249.436.5.677.744l.705.727,1.407,1.417a16.558,16.558,0,0,1,2.433,3.072q.25.416.464.847l.417.873a12.38,12.38,0,0,1,.677,1.827l.219.771.107.385.131.38.515,1.517.511,1.518.59,1.491a1.067,1.067,0,0,1-.309,1.2,1.027,1.027,0,0,1-1.233.074,71.605,71.605,0,0,1-6.5-4.784,12.745,12.745,0,0,1-2.695-3.181,14,14,0,0,1-.9-1.93c-.13-.336-.249-.678-.352-1.026-.056-.173-.1-.349-.15-.525s-.076-.357-.108-.538l-.629-3.533-.456-3.56a1.186,1.186,0,0,1,.119-.706,1.081,1.081,0,0,1,.491-.473.982.982,0,0,1,1.2.31" transform="translate(-1303.892 -738.567)" fill="#eff4f4"/>
      <path id="Path_140" data-name="Path 140" d="M1309.6,851.5c.61,2.284,1.375,4.521,2.18,6.742a13.932,13.932,0,0,0,.844,1.771q.243.423.511.825c.091.134.182.265.278.395s.2.252.3.374a12.157,12.157,0,0,0,2.865,2.465q1.789,1.021,3.546,1.953c.575.317,1.2.6,1.791.883l1.787.831-.329-.577a.387.387,0,0,1-.075-.027l-1.557-.751c-.257-.128-.523-.255-.781-.39l-.757-.412q-1.516-.833-3.071-1.732a.588.588,0,0,1-.206-.765.5.5,0,0,1,.717-.186l.586.363.611.346,1.212.676c.808.44,1.588.879,2.4,1.283-.206-.348-.376-.718-.567-1.076l-.036-.015a70.61,70.61,0,0,1-7.794-4.594.6.6,0,0,1-.178-.781.5.5,0,0,1,.725-.152l1.581,1.07c.54.343,1.09.674,1.629,1l1.617.96c.269.156.527.314.8.463l.828.439c-.146-.289-.3-.574-.436-.867l-.127-.263a.61.61,0,0,1-.1-.042q-1.028-.584-2.068-1.2c-.7-.411-1.406-.83-2.068-1.282a.572.572,0,0,1-.178-.76.51.51,0,0,1,.726-.162l1.268.825c.428.268.875.522,1.312.777-.234-.321-.491-.629-.753-.929s-.515-.6-.792-.881a12.789,12.789,0,0,0-1.862-1.539,73.389,73.389,0,0,1-6.392-5.057m.638-.87c1.05.91,2.069,1.795,3.123,2.636q1.622,1.248,3.209,2.4a14.071,14.071,0,0,1,2.9,2.638c.2.251.408.5.606.755s.388.52.563.79a12.163,12.163,0,0,1,.935,1.707l1.458,2.855c.23.481.515.934.777,1.4l.8,1.39a1.092,1.092,0,0,1-.119,1.24,1.027,1.027,0,0,1-1.205.272q-1.777-.819-3.605-1.72c-1.189-.618-2.362-1.28-3.567-1.963a9.9,9.9,0,0,1-1.691-1.21,14.117,14.117,0,0,1-1.479-1.495,9.586,9.586,0,0,1-.654-.843q-.291-.443-.559-.912a15.236,15.236,0,0,1-.935-1.965c-.816-2.249-1.589-4.516-2.207-6.829a1.134,1.134,0,0,1,.4-1.259,1.013,1.013,0,0,1,1.248.109" transform="translate(-1305.59 -747.433)" fill="#eff4f4"/>
      <path id="Path_141" data-name="Path 141" d="M1318.04,862.945l.848.512a.507.507,0,0,0,.718-.2.578.578,0,0,0-.218-.75l-.852-.51a.5.5,0,0,0-.717.187.586.586,0,0,0,.222.762" transform="translate(-1309.348 -752.15)" fill="#eff4f4"/>
      <path id="Path_142" data-name="Path 142" d="M1346.468,710.644l-1.339,1.159-.333.291-.321.3-.642.611-1.279,1.221c-.21.206-.428.4-.638.614l-.61.641a13.633,13.633,0,0,0-1.248,1.511c-.19.264-.365.534-.535.808-.154.284-.3.573-.432.866a12.569,12.569,0,0,0-.665,1.789,9.063,9.063,0,0,0-.349,1.848c-.111,1.368-.211,2.707-.274,4.029q-.048,2.023-.036,3.967l.7-.979c-.044-1.319-.091-2.685-.035-4.017a.563.563,0,0,1,.546-.546.511.511,0,0,1,.519.532l-.023,1.311c-.009.435-.021.86,0,1.3.162-.243.349-.473.531-.7-.016-1.034-.024-2.085-.013-3.154l.009-.8.035-.791.091-1.6a.585.585,0,0,1,.571-.544.5.5,0,0,1,.5.549c-.1,1.7-.186,3.344-.15,5.021l.614-.783.091-.124c0-.014,0-.027,0-.041.048-1.273.139-2.55.234-3.863a.562.562,0,0,1,.571-.52.51.51,0,0,1,.483.565q-.082,1.131-.146,2.238a12,12,0,0,0,.583-1.125q.13-.289.249-.588c.083-.192.166-.386.242-.583a12.518,12.518,0,0,0,.661-2.472l.166-1,.206-.978.432-1.98.229-1,.119-.5.134-.491Zm1.058.208-.55,1.98c-.178.656-.357,1.3-.5,1.969-.293,1.33-.574,2.627-.812,3.922a13.764,13.764,0,0,1-1.157,3.745,12.918,12.918,0,0,1-.9,1.719q-.255.411-.547.8c-.19.26-.4.512-.594.773l-1.981,2.522-1.858,2.612a1.072,1.072,0,0,1-1.154.43,1.046,1.046,0,0,1-.765-.981c-.031-1.318,0-2.632.032-3.99.012-.336.016-.68.032-1.017l.071-1.006.159-2.04a11.624,11.624,0,0,1,1.1-4.016,12.515,12.515,0,0,1,2.453-3.523l.617-.648c.21-.213.428-.415.646-.622l1.3-1.238.65-.619.325-.308.337-.294,1.355-1.175a1.143,1.143,0,0,1,1.312-.172,1.015,1.015,0,0,1,.431,1.175" transform="translate(-1317.078 -689.988)" fill="#eff4f4"/>
      <path id="Path_143" data-name="Path 143" d="M1332.482,726.34c-.194.224-.388.445-.578.673l-.546.7-1.094,1.392c-.748.913-1.406,1.893-2.1,2.851-.19.268-.373.542-.543.822a7.04,7.04,0,0,0-.459.862,14.028,14.028,0,0,0-.678,1.815,11.239,11.239,0,0,0-.384,1.862,12.132,12.132,0,0,0-.028,1.894l.151,2.018c.051.665.15,1.346.23,2.006l.265,1.97c.048.326.091.645.147.97l.182.975.273-.606a.531.531,0,0,1-.02-.078c-.317-2.234-.626-4.578-.729-6.92a.577.577,0,0,1,.5-.609.509.509,0,0,1,.563.488q.083,1.4.191,2.755c.087.913.214,1.829.324,2.722l.555-1.081a.162.162,0,0,1-.007-.04c-.052-.366-.111-.74-.15-1.106l-.1-1.1q-.1-1.108-.191-2.243c-.028-.377-.063-.762-.079-1.138l-.035-1.132q-.03-1.138-.048-2.3a.6.6,0,0,1,.527-.6.5.5,0,0,1,.539.517q.03,1.947.107,3.822c.016.618.087,1.261.135,1.883l.174,1.856.483-.842.143-.256a.466.466,0,0,1-.024-.1c-.182-1.6-.225-3.179-.289-4.82a.569.569,0,0,1,.511-.585.512.512,0,0,1,.543.508q.054,1.543.143,3.038a12.547,12.547,0,0,0,.618-2.3c.032-.2.059-.4.084-.6s.059-.393.079-.59c.044-.4.067-.8.076-1.2.02-1.329.035-2.7.155-4.038l.162-2.044.1-1.037c.039-.342.087-.68.13-1.023m1.09.044c-.087.684-.182,1.348-.242,2.032l-.158,2.038-.131,2c-.028.668-.031,1.343-.04,2a13.961,13.961,0,0,1-.162,1.969l-.166.962q-.09.481-.214.95a12.247,12.247,0,0,1-.642,1.822c-.135.291-.258.593-.4.886s-.293.583-.456.866l-.8,1.388c-.138.229-.261.466-.38.705l-.364.713-.733,1.426c-.119.239-.246.473-.361.714l-.329.731a1.051,1.051,0,0,1-1.074.609,1.037,1.037,0,0,1-.907-.843c-.119-.648-.242-1.307-.353-1.967l-.261-1.978-.237-2.022c-.044-.343-.068-.678-.091-1.015l-.072-1.018a11.644,11.644,0,0,1,.444-4.143,12.309,12.309,0,0,1,1.862-3.866c.7-.971,1.364-1.963,2.124-2.888l1.105-1.41.555-.7c.19-.23.388-.453.582-.68a1.164,1.164,0,0,1,1.28-.368,1,1,0,0,1,.614,1.086" transform="translate(-1312.298 -696.388)" fill="#eff4f4"/>
      <path id="Path_144" data-name="Path 144" d="M1332.739,739.618c.016.33.02.652.047.986a.508.508,0,0,0,.571.477.6.6,0,0,0,.4-.247.548.548,0,0,0,.1-.351l-.044-.98a.5.5,0,0,0-.558-.487.592.592,0,0,0-.519.6" transform="translate(-1315.462 -702.01)" fill="#eff4f4"/>
      <path id="Path_145" data-name="Path 145" d="M1320.925,744.37c-.586,1.025-1.188,2.042-1.759,3.075l-1.613,3.152a13.116,13.116,0,0,0-1.094,3.725,11.685,11.685,0,0,0,.206,3.778c.075.33.142.656.226.986l.266.987.543,1.94.277.952.139.472.163.475.649,1.87.325-1.156-.361-.938-.317-.94q-.315-.945-.626-1.915a.569.569,0,0,1,.337-.7.514.514,0,0,1,.662.341c.27.845.547,1.675.824,2.492l.281-.835-.531-1.484-.261-.754-.234-.751q-.457-1.508-.892-3.077a.572.572,0,0,1,.365-.7.5.5,0,0,1,.646.361c.459,1.653.931,3.252,1.446,4.81.107-.314.242-.618.357-.927l.055-.145c0-.013-.012-.025-.016-.038l-.527-1.853-.257-.943-.127-.476-.111-.471a.569.569,0,0,1,.4-.664.508.508,0,0,1,.634.382l.253,1.079c.083.357.2.722.293,1.079.04-.207.076-.416.107-.626s.072-.414.1-.623a11.94,11.94,0,0,0,.107-1.26,14.336,14.336,0,0,0-.174-2.564q-.267-1.962-.5-4.01c-.115-1.346-.19-2.71-.262-4.107m1.066-.14c.068,1.386.159,2.752.265,4.086.04.661.139,1.345.219,2.008l.261,1.976a15.167,15.167,0,0,1-.8,7.683l-.294.744-.258.759L1320.87,763l-.258.758-.131.379-.107.385-.44,1.541a1.067,1.067,0,0,1-.975.771,1.025,1.025,0,0,1-1.026-.683l-.646-1.879c-.21-.633-.432-1.279-.6-1.917-.364-1.282-.725-2.6-1.058-3.941a13.511,13.511,0,0,1-.234-4.161,14.435,14.435,0,0,1,1.217-4.117l1.636-3.193c.575-1.046,1.185-2.076,1.775-3.115a1.122,1.122,0,0,1,1.2-.573.984.984,0,0,1,.773.971" transform="translate(-1308.359 -703.734)" fill="#eff4f4"/>
      <path id="Path_146" data-name="Path 146" d="M1312.354,764.2l-.65,1.648c-.218.548-.384,1.115-.583,1.671l-.567,1.678c-.091.281-.194.558-.277.84l-.246.852a14,14,0,0,0-.4,1.92c-.044.322-.076.644-.1.964s0,.648.016.968a11.54,11.54,0,0,0,.8,3.69q.814,1.9,1.648,3.694c.578,1.2,1.212,2.382,1.823,3.525l.083-.66c-.012-.021-.027-.043-.043-.067l-.784-1.536-.393-.781c-.127-.262-.238-.523-.357-.786q-.7-1.579-1.4-3.23a.567.567,0,0,1,.29-.735.5.5,0,0,1,.681.283c.155.429.356.862.535,1.288l.559,1.268.559,1.245c.186.411.368.818.586,1.226.04-.4.123-.8.194-1.2-.008-.011-.016-.022-.024-.035q-.475-.99-.943-2.011c-.313-.681-.63-1.373-.9-2.066s-.555-1.4-.828-2.115-.559-1.444-.784-2.168a.6.6,0,0,1,.333-.731.5.5,0,0,1,.67.317c.206.61.388,1.205.622,1.807l.693,1.78.7,1.736.175.428.2.429.4.849.17-.956c.016-.1.032-.192.052-.287a.624.624,0,0,1-.052-.09q-.463-1.085-.919-2.2l-.456-1.128c-.151-.38-.305-.763-.428-1.142a.569.569,0,0,1,.321-.711.508.508,0,0,1,.674.308c.171.48.325.949.519,1.424l.578,1.409a14.575,14.575,0,0,0-.7-4.72l-.316-.961-.274-.96-.535-1.954-.265-.995c-.087-.334-.175-.67-.241-1Zm1.038-.308.428,2.009.222.988c.071.327.17.661.253.987.361,1.314.709,2.592,1.106,3.848a13.485,13.485,0,0,1,.717,3.851,12.958,12.958,0,0,1-.273,3.862l-.563,3.154c-.052.261-.083.527-.115.793l-.1.794-.2,1.59a1.1,1.1,0,0,1-.84.918,1.027,1.027,0,0,1-1.125-.509q-.927-1.724-1.838-3.544c-.158-.3-.3-.607-.432-.912l-.412-.922-.816-1.88c-.139-.321-.262-.648-.372-.98s-.182-.665-.254-1a13.955,13.955,0,0,1-.274-2.083c-.019-.353-.024-.71-.015-1.067a8.737,8.737,0,0,1,.1-1.066,14.994,14.994,0,0,1,.448-2.128l.246-.863c.083-.286.186-.567.281-.851l.575-1.7c.2-.564.368-1.138.59-1.693l.658-1.67a1.144,1.144,0,0,1,1.082-.761,1.014,1.014,0,0,1,.931.84" transform="translate(-1305.565 -711.816)" fill="#eff4f4"/>
      <path id="Path_147" data-name="Path 147" d="M1314.454,778.268l.365.921a.5.5,0,0,0,.689.27.567.567,0,0,0,.306-.36.588.588,0,0,0-.02-.369l-.368-.918a.5.5,0,0,0-.686-.285.588.588,0,0,0-.285.741" transform="translate(-1307.986 -717.704)" fill="#eff4f4"/>
      <path id="Path_148" data-name="Path 148" d="M1420.381,677.757l-1.767.134-.88.067c-.3.021-.59.044-.884.087l-3.51.447a13.039,13.039,0,0,0-3.689,1.206,6.715,6.715,0,0,0-.828.482c-.265.176-.527.362-.777.556a11.572,11.572,0,0,0-1.391,1.267l-.69.741c-.221.253-.443.518-.661.775l-1.292,1.547c-.424.519-.844,1.012-1.244,1.545l-1.173,1.6,1.137-.385c.19-.272.377-.56.571-.822l.594-.795c.4-.531.808-1.064,1.229-1.6a.561.561,0,0,1,.764-.119.517.517,0,0,1,.092.738q-.814,1.052-1.589,2.093l.849-.241c1.2-1.736,2.524-3.345,3.919-5.013a.569.569,0,0,1,.785-.092.506.506,0,0,1,.067.737c-1.106,1.3-2.156,2.617-3.151,3.907l.967-.224.15-.038a.161.161,0,0,1,.024-.034l1.229-1.486c.416-.494.84-1.01,1.28-1.473a.565.565,0,0,1,.773-.047.511.511,0,0,1,.044.74c-.5.549-1,1.082-1.47,1.668.194-.085.384-.174.574-.268s.381-.173.571-.268c.372-.189.741-.4,1.1-.627a14.346,14.346,0,0,0,2.017-1.591q1.462-1.33,3.027-2.672c1.042-.87,2.124-1.689,3.237-2.538m.717.8q-1.658,1.263-3.218,2.52c-.261.2-.519.429-.772.653l-.761.668-1.477,1.332c-.246.224-.5.438-.753.639s-.516.421-.781.615a13.177,13.177,0,0,1-1.648,1.038q-.428.226-.868.417c-.293.124-.586.271-.887.387a12.421,12.421,0,0,1-1.854.583l-.781.179c-.262.058-.515.142-.773.212l-1.541.438c-.512.151-1.03.28-1.537.447l-1.514.514a1.073,1.073,0,0,1-1.189-.367,1.024,1.024,0,0,1-.016-1.233l1.185-1.6.606-.805c.206-.263.42-.514.634-.773.852-1.022,1.731-2.078,2.651-3.1a13.352,13.352,0,0,1,3.3-2.547,14.587,14.587,0,0,1,4.081-1.325l3.558-.452c.293-.043.59-.067.892-.087l.891-.069,1.787-.136a1.123,1.123,0,0,1,1.149.649,1.014,1.014,0,0,1-.365,1.2" transform="translate(-1343.117 -676.592)" fill="#eff4f4"/>
      <path id="Path_149" data-name="Path 149" d="M1399.836,680.909c-1.149.268-2.306.513-3.435.858l-1.7.484-.852.243c-.285.087-.562.187-.84.279a13.778,13.778,0,0,0-1.811.758,9.453,9.453,0,0,0-1.641,1.022,11.826,11.826,0,0,0-2.592,2.744q-1.1,1.743-2.116,3.447c-.662,1.16-1.276,2.348-1.874,3.5l.59-.3a.529.529,0,0,1,.031-.075l.824-1.514.425-.764c.142-.253.293-.492.443-.739q.9-1.475,1.874-2.981a.568.568,0,0,1,.768-.176.5.5,0,0,1,.15.725c-.265.372-.511.773-.761,1.166l-.729,1.176-.709,1.166c-.234.386-.464.768-.682,1.176.357-.193.729-.352,1.1-.519a.15.15,0,0,0,.015-.038c.369-.634.741-1.273,1.13-1.916l.583-.968c.2-.32.408-.623.614-.937q.624-.934,1.276-1.881l.658-.949c.222-.318.456-.61.69-.918a.6.6,0,0,1,.789-.143.5.5,0,0,1,.115.733c-.384.513-.769,1.011-1.137,1.53l-1.074,1.581c-.7,1.052-1.387,2.066-2.009,3.16l.883-.4c.088-.042.179-.076.27-.115a.776.776,0,0,1,.043-.092q.636-1,1.3-2.008l.674-1.014.341-.507.356-.488a.574.574,0,0,1,.768-.138.51.51,0,0,1,.127.73c-.3.411-.594.815-.884,1.229l-.836,1.275a11.653,11.653,0,0,0,.963-.706c.313-.247.622-.487.915-.757a12.592,12.592,0,0,0,1.625-1.779c.4-.547.821-1.055,1.249-1.568l1.307-1.551c.884-1.062,1.823-2.029,2.785-3.033m.84.681-1.414,1.491c-.464.5-.924.975-1.359,1.505q-1.325,1.555-2.551,3.084a13.518,13.518,0,0,1-2.766,2.775,13.041,13.041,0,0,1-3.344,1.953l-2.917,1.319c-.246.1-.484.23-.717.352l-.713.365-1.427.73a1.066,1.066,0,0,1-.645.1,1.042,1.042,0,0,1-.8-1.5q.9-1.735,1.886-3.516c.162-.3.333-.588.507-.872l.527-.861,1.09-1.737a12.476,12.476,0,0,1,6.66-5.011c.282-.094.563-.195.848-.283l.864-.246,1.723-.49c1.145-.349,2.318-.6,3.484-.869a1.136,1.136,0,0,1,1.236.461,1.013,1.013,0,0,1-.166,1.242" transform="translate(-1335.521 -677.877)" fill="#eff4f4"/>
      <path id="Path_150" data-name="Path 150" d="M1400.043,688.819l-.551.825a.5.5,0,0,0,.167.722.564.564,0,0,0,.468.044.583.583,0,0,0,.293-.224l.547-.824a.5.5,0,0,0-.151-.726.588.588,0,0,0-.772.183" transform="translate(-1342.658 -681.429)" fill="#eff4f4"/>
      <path id="Path_151" data-name="Path 151" d="M1380.335,687.556c-1.109.41-2.171.931-3.249,1.409-.535.248-1.082.476-1.608.741l-1.573.806a10.319,10.319,0,0,0-3.115,2.315,12.51,12.51,0,0,0-1.208,1.468,10.844,10.844,0,0,0-.9,1.664,70.3,70.3,0,0,0-2.829,7.478l.471-.371.487-.348c.388-1.254.789-2.543,1.24-3.824a.565.565,0,0,1,.7-.336.509.509,0,0,1,.321.667c-.147.414-.3.81-.44,1.232l-.4,1.254.717-.512c.143-.513.317-.991.48-1.49l.515-1.494.543-1.511c.178-.514.393-.988.591-1.488a.586.586,0,0,1,.721-.327.5.5,0,0,1,.3.679l-.472,1.169c-.159.388-.313.768-.452,1.172-.281.8-.555,1.585-.816,2.368l.839-.537.127-.086.012-.04c.424-1.227.927-2.392,1.442-3.593a.56.56,0,0,1,.709-.3.516.516,0,0,1,.281.689q-.446,1.036-.864,2.056a12.136,12.136,0,0,0,1.747-1.836c.258-.346.519-.669.753-1.024a11.982,11.982,0,0,0,.665-1.1l.971-1.771c.337-.585.69-1.148,1.046-1.728.717-1.146,1.446-2.345,2.254-3.45m.943.544-1.165,1.679c-.372.579-.733,1.16-1.086,1.734-.708,1.153-1.4,2.27-2.012,3.463a13.986,13.986,0,0,1-1.055,1.675c-.194.263-.4.51-.6.763s-.412.506-.63.745a15.758,15.758,0,0,1-2.98,2.471c-1.814,1.125-3.558,2.367-5.266,3.644a1.048,1.048,0,0,1-1.232.043,1.036,1.036,0,0,1-.412-1.169l.293-.953.15-.479.167-.465.682-1.878.724-1.906.809-1.867a13.46,13.46,0,0,1,.995-1.837,11.162,11.162,0,0,1,1.323-1.624,14.413,14.413,0,0,1,1.589-1.427,13.238,13.238,0,0,1,1.854-1.132l1.6-.816c.531-.268,1.086-.5,1.629-.751,1.089-.484,2.167-1.011,3.289-1.427a1.162,1.162,0,0,1,1.3.268,1.01,1.01,0,0,1,.036,1.247" transform="translate(-1328.538 -680.585)" fill="#eff4f4"/>
      <path id="Path_152" data-name="Path 152" d="M1362.481,697.481l-2.98,1.91c-.974.667-1.926,1.362-2.888,2.042a9.655,9.655,0,0,0-1.47,1.3,12.845,12.845,0,0,0-1.232,1.489,9.194,9.194,0,0,0-.94,1.661,11.718,11.718,0,0,0-.638,1.773c-.372,1.289-.638,2.645-.915,3.939-.131.656-.274,1.289-.381,1.947l-.3,1.958.46-.481a.505.505,0,0,1,0-.081c.095-.561.178-1.146.3-1.7l.361-1.688c.253-1.13.5-2.3.836-3.418a.582.582,0,0,1,.673-.412.5.5,0,0,1,.372.641c-.515,1.765-.891,3.6-1.251,5.35l.879-.838v-.041c.142-.722.285-1.46.448-2.19s.357-1.44.546-2.17.385-1.472.6-2.205.459-1.448.7-2.18a.594.594,0,0,1,.693-.4.5.5,0,0,1,.345.659l-.583,1.828c-.186.608-.38,1.195-.535,1.819q-.487,1.844-.9,3.632l.733-.635.214-.2c0-.034.008-.068.016-.1q.274-1.158.574-2.34c.206-.78.444-1.539.682-2.321a.566.566,0,0,1,.673-.385.515.515,0,0,1,.357.654c-.3.981-.587,1.943-.848,2.905a12.9,12.9,0,0,0,1.331-1.966,17.186,17.186,0,0,0,.971-2.206c.448-1.241.911-2.52,1.422-3.783q.8-1.857,1.672-3.766m1.018.387a73.461,73.461,0,0,0-3.094,7.483c-.111.314-.234.621-.365.921s-.273.6-.412.9a13.363,13.363,0,0,1-.967,1.693,15.946,15.946,0,0,1-2.552,2.912c-.824.681-1.573,1.443-2.353,2.174-.38.372-.781.729-1.153,1.112l-1.105,1.161a1.067,1.067,0,0,1-1.221.227,1.023,1.023,0,0,1-.586-1.084l.3-1.965.166-1c.06-.329.131-.651.2-.978l.428-1.977.23-1c.075-.336.154-.672.246-1a12.994,12.994,0,0,1,1.732-3.788,14.512,14.512,0,0,1,1.363-1.637c.25-.259.507-.51.777-.754.134-.121.273-.242.412-.357s.293-.219.443-.326c.975-.69,1.942-1.393,2.924-2.069l3.02-1.935a1.161,1.161,0,0,1,1.336.062.992.992,0,0,1,.229,1.22" transform="translate(-1322.373 -684.629)" fill="#eff4f4"/>
      <path id="Path_153" data-name="Path 153" d="M1362.363,708.639l-.253.967a.506.506,0,0,0,.392.632.558.558,0,0,0,.452-.112.58.58,0,0,0,.2-.31l.127-.481.135-.469a.5.5,0,0,0-.372-.639.576.576,0,0,0-.682.411" transform="translate(-1327.437 -689.446)" fill="#eff4f4"/>
      <path id="Path_154" data-name="Path 154" d="M1503.068,696.781l-1.485-.955-.745-.477c-.249-.161-.5-.319-.756-.462l-3.067-1.763a13.447,13.447,0,0,0-3.669-1.263,12,12,0,0,0-3.78.033,70.29,70.29,0,0,0-7.775,1.9l1.137.384c1.273-.444,2.536-.774,3.848-1.127a.559.559,0,0,1,.677.369.509.509,0,0,1-.368.644q-1.284.344-2.524.7l.82.323,1.506-.46c.5-.149,1.022-.311,1.526-.431q1.527-.384,3.11-.743a.581.581,0,0,1,.685.392.509.509,0,0,1-.392.632q-1.254.286-2.469.588l-1.208.307c-.4.1-.792.2-1.192.331.309.114.61.255.911.392l.143.061a.351.351,0,0,1,.04-.013c1.232-.294,2.5-.6,3.784-.849a.565.565,0,0,1,.642.431.506.506,0,0,1-.408.616l-1.09.2-1.094.249a17.426,17.426,0,0,0,2.492.419,13.273,13.273,0,0,0,2.568-.056c1.311-.117,2.654-.219,4.021-.3,1.36-.065,2.715-.069,4.113-.078m.1,1.071q-2.086.01-4.093.073c-.329.006-.67.03-1.006.056l-1.01.075-1.982.169c-.333.032-.658.044-.986.06s-.666.026-.991.022a13.09,13.09,0,0,1-1.938-.17c-.317-.05-.63-.12-.947-.188s-.63-.136-.943-.222a12.254,12.254,0,0,1-1.827-.662c-.483-.23-.983-.419-1.478-.614l-1.49-.587c-.982-.416-2-.72-3.011-1.072a1.075,1.075,0,0,1-.726-1.013,1.019,1.019,0,0,1,.729-.992l1.906-.554.967-.271c.325-.091.654-.18.975-.25,1.3-.3,2.623-.593,3.982-.87a13.154,13.154,0,0,1,4.164-.036,14.36,14.36,0,0,1,4.054,1.4l3.11,1.786c.262.145.511.3.761.468l.757.483,1.51.967a1.254,1.254,0,0,1,.468.539,1.075,1.075,0,0,1,.052.678,1,1,0,0,1-1.006.728" transform="translate(-1375.838 -682.285)" fill="#eff4f4"/>
      <path id="Path_155" data-name="Path 155" d="M1483.584,687.35l-1.613-.728c-.543-.227-1.1-.436-1.645-.656-1.1-.429-2.187-.886-3.313-1.241a11.393,11.393,0,0,0-7.544-.03q-1.925.719-3.76,1.461c-1.232.548-2.437,1.1-3.6,1.662l.654.117a.334.334,0,0,1,.067-.04l1.57-.708.8-.352c.27-.12.535-.233.8-.333,1.07-.417,2.167-.83,3.284-1.237a.566.566,0,0,1,.725.309.5.5,0,0,1-.317.67c-.879.318-1.747.65-2.6.979s-1.684.644-2.52,1.035l.6.107c.2.035.4.088.594.132a.238.238,0,0,1,.036-.02c.67-.282,1.355-.563,2.048-.842l1.046-.416.531-.207.527-.184c.709-.243,1.423-.485,2.152-.723l1.094-.355c.368-.118.741-.238,1.105-.333a.6.6,0,0,1,.713.367.5.5,0,0,1-.345.655c-1.224.318-2.452.75-3.641,1.15l-1.767.617c-.583.22-1.165.464-1.739.7l.943.217.285.06a.8.8,0,0,1,.1-.049c1.47-.548,2.991-1.089,4.552-1.6a.573.573,0,0,1,.693.356.51.51,0,0,1-.34.659c-.963.27-1.938.635-2.881.968q.594.041,1.193.022c.2-.006.4-.018.6-.031s.392-.018.59-.034a12.6,12.6,0,0,0,2.366-.43c1.3-.386,2.583-.654,3.919-.95.666-.141,1.343-.291,2.017-.416Zm.258,1.052a72.567,72.567,0,0,0-7.913,1.648,14.058,14.058,0,0,1-3.876.539,12.592,12.592,0,0,1-1.933-.085c-.321-.039-.642-.091-.959-.155l-.951-.21-3.118-.72-3.15-.564a1.087,1.087,0,0,1-.88-.871,1.05,1.05,0,0,1,.563-1.111c1.177-.567,2.381-1.114,3.622-1.664.622-.284,1.24-.525,1.87-.766l1.914-.723a11.45,11.45,0,0,1,4.1-.71,12.365,12.365,0,0,1,4.228.726c1.141.361,2.243.823,3.356,1.258.555.221,1.114.434,1.664.664l1.636.738a1.146,1.146,0,0,1,.709,1.119,1.012,1.012,0,0,1-.883.889" transform="translate(-1367.805 -679.163)" fill="#eff4f4"/>
      <path id="Path_156" data-name="Path 156" d="M1484.461,689.138l-.935.321a.5.5,0,0,0-.3.677.574.574,0,0,0,.714.318l.931-.322a.505.505,0,0,0,.317-.672.589.589,0,0,0-.725-.323" transform="translate(-1376.837 -681.652)" fill="#eff4f4"/>
      <path id="Path_157" data-name="Path 157" d="M1462.955,680.993c-.285-.077-.567-.168-.852-.233l-.864-.2-1.724-.4c-1.146-.29-2.31-.47-3.471-.682a11.7,11.7,0,0,0-1.95-.2,13.374,13.374,0,0,0-1.929.167,12.248,12.248,0,0,0-1.847.442,10.6,10.6,0,0,0-1.724.783l-1.763,1-.86.5-.852.545c-1.13.731-2.226,1.451-3.293,2.192.4,0,.8.017,1.2.025.531-.388,1.074-.776,1.62-1.164l.832-.581.42-.291.42-.27a.568.568,0,0,1,.761.153.507.507,0,0,1-.147.726l-1.094.708-1.078.763.884.021c.844-.605,1.708-1.183,2.591-1.774l1.343-.88c.452-.3.908-.552,1.367-.829a.588.588,0,0,1,.773.174.5.5,0,0,1-.17.722l-1.086.645c-.356.216-.709.424-1.062.664q-1.059.7-2.081,1.4l.995.075.155.009a.154.154,0,0,1,.031-.025c1.078-.725,2.179-1.351,3.317-2a.562.562,0,0,1,.749.187.514.514,0,0,1-.194.718q-.974.557-1.925,1.118a12.08,12.08,0,0,0,2.5-.408c.206-.054.412-.121.614-.181s.4-.12.606-.187q.6-.2,1.189-.472c1.213-.551,2.46-1.118,3.72-1.579l1.918-.722.979-.356c.325-.119.649-.213.979-.32m.424,1.005-.974.313c-.325.1-.642.208-.967.333l-1.91.723-1.866.734c-.614.255-1.225.544-1.826.816a16.618,16.618,0,0,1-3.741,1.162,15.968,15.968,0,0,1-3.868.173l-1.6-.121-.8-.062c-.266-.017-.535-.015-.8-.024-1.07-.023-2.136-.06-3.206-.076a1.034,1.034,0,0,1-1.006-.7,1.045,1.045,0,0,1,.376-1.183c.27-.2.539-.395.813-.585l.821-.547,1.675-1.093c.571-.359,1.146-.739,1.728-1.08l1.771-1a13.193,13.193,0,0,1,1.9-.868,7.875,7.875,0,0,1,1-.295c.341-.08.682-.148,1.03-.2a14.75,14.75,0,0,1,2.128-.178,7.9,7.9,0,0,1,1.082.057c.356.039.717.09,1.078.154,1.177.215,2.357.4,3.519.691l1.747.4.872.2c.294.066.579.159.864.236a1.161,1.161,0,0,1,.876,1,1,1,0,0,1-.721,1.014" transform="translate(-1359.532 -677.215)" fill="#eff4f4"/>
      <path id="Path_158" data-name="Path 158" d="M1441.845,677.944l-3.527-.269-.44-.032-.443-.012-.884-.023-1.767-.044c-.329-.008-.658,0-.982.011s-.65.072-.971.124a13.494,13.494,0,0,0-1.878.456c-.3.1-.6.207-.9.327a6.921,6.921,0,0,0-.856.408,12,12,0,0,0-1.576,1.045l-1.582,1.259c-.519.416-1.026.884-1.526,1.322l-1.478,1.331-.721.663c-.234.229-.468.467-.7.7l.654-.117c.016-.021.036-.043.052-.062,1.672-1.506,3.427-3.1,5.305-4.495a.581.581,0,0,1,.785.069.511.511,0,0,1-.088.739q-1.106.857-2.167,1.71c-.705.583-1.391,1.206-2.06,1.8l1.2-.153a.238.238,0,0,0,.028-.031,71.717,71.717,0,0,1,7.109-5.578.6.6,0,0,1,.792.1.508.508,0,0,1-.123.736c-1.058.744-2.092,1.488-3.094,2.231-1,.77-1.97,1.583-2.912,2.368l.97-.073.289-.028a.414.414,0,0,1,.071-.075l.927-.769.468-.385.475-.36c.638-.48,1.284-.961,1.945-1.442a.564.564,0,0,1,.769.1.511.511,0,0,1-.111.735q-1.241.91-2.428,1.819a12.086,12.086,0,0,0,2.246-.777c.365-.165.722-.357,1.074-.552s.7-.388,1.035-.61l1.684-1.092c.571-.357,1.149-.746,1.732-1.067q1.754-1.005,3.6-2m.578.923c-.606.291-1.217.647-1.811.975l-1.771,1c-1.161.645-2.294,1.406-3.4,2.128a13.586,13.586,0,0,1-1.716.967,13.446,13.446,0,0,1-1.795.777,12.409,12.409,0,0,1-1.866.492,14.225,14.225,0,0,1-1.926.29l-1.6.121c-.265.015-.531.046-.8.083l-.793.1-1.589.2-.793.1c-.265.04-.527.092-.789.138a1.051,1.051,0,0,1-1.11-.541,1.036,1.036,0,0,1,.187-1.224c.468-.462.939-.95,1.426-1.4l1.486-1.332,1.533-1.339c.258-.229.52-.437.785-.646l.8-.631a12.42,12.42,0,0,1,7.9-2.62l1.788.045.9.024.448.012.448.033,3.57.272a1.155,1.155,0,0,1,1.026.854.993.993,0,0,1-.55,1.112" transform="translate(-1351.287 -676.514)" fill="#eff4f4"/>
      <path id="Path_159" data-name="Path 159" d="M1442.4,682.111c-.262.19-.527.41-.784.615a.507.507,0,0,0-.072.74.561.561,0,0,0,.428.181.619.619,0,0,0,.349-.123l.781-.584a.5.5,0,0,0,.087-.736.591.591,0,0,0-.789-.093" transform="translate(-1359.798 -678.753)" fill="#eff4f4"/>
      <path id="Path_160" data-name="Path 160" d="M1537.077,723.844c-.733-.926-1.447-1.865-2.235-2.742l-1.157-1.336-.583-.667-.61-.641a13.384,13.384,0,0,0-1.447-1.318c-.253-.2-.515-.391-.78-.57s-.559-.329-.844-.477a12.608,12.608,0,0,0-1.751-.747,9.232,9.232,0,0,0-1.826-.438q-2.045-.265-4.01-.468-2.021-.142-3.958-.225l.943.743c1.319.02,2.682.04,4.01.157a.563.563,0,0,1,.519.575.512.512,0,0,1-.555.491c-.883-.058-1.735-.128-2.607-.151.233.176.452.375.673.566q1.551.049,3.15.137l.8.049.788.074,1.593.166a.58.58,0,0,1,.515.6.5.5,0,0,1-.57.473c-1.7-.179-3.328-.35-5-.394l.749.65.119.1c.016,0,.028,0,.044,0,1.264.11,2.54.258,3.843.419a.557.557,0,0,1,.492.6.512.512,0,0,1-.587.453c-.749-.092-1.493-.177-2.227-.255a12.105,12.105,0,0,0,1.094.637c.19.1.384.187.575.277s.377.184.57.269a12.646,12.646,0,0,0,2.437.781l.987.215.967.25,1.957.526c1.331.349,2.608.784,3.927,1.23m-.261,1.049-1.95-.646c-.65-.207-1.276-.42-1.941-.591-1.312-.356-2.6-.7-3.875-1a13.494,13.494,0,0,1-3.681-1.335,12.492,12.492,0,0,1-1.672-.978q-.4-.276-.773-.583c-.253-.2-.492-.426-.745-.635l-2.417-2.1-2.52-1.978a1.086,1.086,0,0,1-.372-1.177,1.051,1.051,0,0,1,1.019-.717c1.315.038,2.627.131,3.982.226.333.027.677.044,1.01.083l1,.116,2.029.256a11.627,11.627,0,0,1,3.954,1.29c.313.163.622.34.927.526a9.814,9.814,0,0,1,.868.625,15.6,15.6,0,0,1,1.6,1.464l.618.649.586.675,1.173,1.354c.8.888,1.526,1.839,2.263,2.777a1.137,1.137,0,0,1,.111,1.316,1.018,1.018,0,0,1-1.2.378" transform="translate(-1390.558 -691.464)" fill="#eff4f4"/>
      <path id="Path_161" data-name="Path 161" d="M1521.264,709.362l-.642-.609-.669-.579-1.335-1.158c-.875-.79-1.819-1.5-2.742-2.231q-.386-.3-.8-.578a7.014,7.014,0,0,0-.836-.5,13.281,13.281,0,0,0-1.779-.763,11.172,11.172,0,0,0-1.839-.475,11.866,11.866,0,0,0-1.89-.117l-2.021.052c-.666.018-1.352.086-2.013.133l-1.981.17c-.324.033-.646.059-.974.1l-.983.135.595.3a.483.483,0,0,1,.079-.018c2.242-.207,4.6-.4,6.942-.393a.578.578,0,0,1,.582.529.507.507,0,0,1-.515.536c-.931.012-1.854.033-2.758.06s-1.838.122-2.734.193l1.05.6c.016,0,.028-.006.043-.008.369-.031.745-.075,1.109-.092l1.106-.053q1.111-.049,2.246-.082c.377-.007.769-.027,1.142-.021l1.129.018c.761.015,1.526.036,2.3.063a.594.594,0,0,1,.574.555.506.506,0,0,1-.543.512c-1.3-.043-2.571-.067-3.819-.076-.618-.014-1.26.021-1.886.043l-1.863.085.816.523.25.152a.5.5,0,0,1,.1-.015c1.609-.107,3.182-.074,4.826-.059a.566.566,0,0,1,.559.538.513.513,0,0,1-.535.519c-1.03-.013-2.04-.014-3.039-.005a12.152,12.152,0,0,0,2.266.727c.194.043.393.079.591.116s.388.076.586.107c.392.062.793.107,1.2.131l2.009.137.511.039.5.055,1,.118,2.032.261,1.03.143Zm-.1,1.085c-.677-.118-1.339-.244-2.013-.34l-2.029-.255-1.989-.223c-.662-.064-1.339-.1-2-.138a16.581,16.581,0,0,1-3.847-.728,12.549,12.549,0,0,1-1.791-.726c-.281-.149-.575-.288-.864-.441s-.567-.318-.84-.5l-1.347-.864-.337-.216-.349-.2-.693-.4-1.387-.8c-.23-.131-.459-.269-.693-.4l-.713-.364a1.049,1.049,0,0,1-.555-1.1,1.031,1.031,0,0,1,.883-.864c.654-.088,1.315-.182,1.982-.256l1.985-.166,2.032-.142c.681-.047,1.347-.043,2.036-.061a11.534,11.534,0,0,1,4.11.641,14.807,14.807,0,0,1,1.961.847c.158.084.317.169.471.258s.3.194.456.295c.3.2.594.418.88.644.939.741,1.894,1.46,2.781,2.259l1.351,1.173.678.587.65.616a1.165,1.165,0,0,1,.3,1.3,1.007,1.007,0,0,1-1.117.558" transform="translate(-1383.578 -686.614)" fill="#eff4f4"/>
      <path id="Path_162" data-name="Path 162" d="M1522.421,709.41c-.329,0-.654-.008-.983,0a.509.509,0,0,0-.507.547.615.615,0,0,0,.226.411.568.568,0,0,0,.349.121l.979,0a.5.5,0,0,0,.515-.535.59.59,0,0,0-.579-.546" transform="translate(-1392.236 -689.933)" fill="#eff4f4"/>
      <path id="Path_163" data-name="Path 163" d="M1568.532,778.835l-.309-1.741-.079-.435-.1-.431-.2-.861-.4-1.723-.2-.861c-.075-.285-.158-.568-.237-.852a13.847,13.847,0,0,0-.666-1.841,9.546,9.546,0,0,0-.939-1.687,11.856,11.856,0,0,0-2.611-2.722q-1.682-1.186-3.337-2.279c-.269-.185-.558-.359-.848-.532l-.852-.514-1.7-1,.273.605a.464.464,0,0,1,.072.034l1.47.894.745.46.714.481q1.426.973,2.884,2.015a.571.571,0,0,1,.135.777.5.5,0,0,1-.733.117c-.357-.283-.741-.551-1.125-.816l-1.137-.787-1.129-.766c-.376-.25-.741-.5-1.137-.737.174.365.309.747.46,1.121.012.007.024.011.036.019q.927.594,1.858,1.217l.939.629c.305.215.6.437.9.659q.9.667,1.815,1.365l.915.7c.3.237.586.485.884.73a.6.6,0,0,1,.1.8.5.5,0,0,1-.737.081c-.491-.411-.971-.819-1.47-1.213l-1.526-1.15c-1.019-.75-1.993-1.485-3.055-2.157l.356.9.1.274a.448.448,0,0,1,.091.05c.642.453,1.292.917,1.942,1.393s1.327.956,1.938,1.469a.572.572,0,0,1,.1.772.511.511,0,0,1-.737.091c-.393-.318-.785-.633-1.181-.941l-1.232-.9c.2.341.424.672.658.993s.456.644.709.95a12.777,12.777,0,0,0,1.7,1.707c.527.427,1.014.873,1.506,1.325l1.482,1.381c1.014.932,1.938,1.916,2.889,2.927m-.721.8-1.419-1.485c-.472-.487-.927-.969-1.435-1.432q-1.486-1.4-2.952-2.7a13.442,13.442,0,0,1-2.635-2.9,13.014,13.014,0,0,1-1.779-3.43l-1.173-2.974c-.095-.25-.2-.494-.312-.736l-.333-.728-.658-1.457a1.091,1.091,0,0,1,.234-1.22,1.038,1.038,0,0,1,1.229-.159q1.688.982,3.419,2.052c1.129.724,2.227,1.5,3.36,2.29a12.491,12.491,0,0,1,4.672,6.891c.079.288.166.574.238.863l.2.872.4,1.745.2.873.1.437.079.441.318,1.763a1.14,1.14,0,0,1-.523,1.214,1.015,1.015,0,0,1-1.232-.227" transform="translate(-1406.144 -710.692)" fill="#eff4f4"/>
      <path id="Path_164" data-name="Path 164" d="M1569.962,779.092l-.8-.591a.5.5,0,0,0-.729.131.567.567,0,0,0-.067.464.587.587,0,0,0,.21.3l.8.588a.5.5,0,0,0,.733-.117.589.589,0,0,0-.147-.779" transform="translate(-1411.581 -718.079)" fill="#eff4f4"/>
      <path id="Path_165" data-name="Path 165" d="M1561.1,758.966c-.357-1.125-.82-2.21-1.244-3.31-.222-.547-.424-1.1-.657-1.641l-.73-1.611a13.372,13.372,0,0,0-.931-1.721,13.086,13.086,0,0,0-1.224-1.5,12.456,12.456,0,0,0-1.41-1.276,10.014,10.014,0,0,0-1.613-.983,71.067,71.067,0,0,0-7.322-3.19c.237.321.452.659.665,1,1.232.446,2.5.906,3.757,1.42a.566.566,0,0,1,.3.714.51.51,0,0,1-.681.288c-.4-.17-.8-.343-1.208-.5l-1.233-.459.476.741c.986.349,1.941.741,2.928,1.137l1.486.613c.5.209.963.44,1.45.665a.583.583,0,0,1,.293.734.505.505,0,0,1-.693.265c-.773-.357-1.514-.714-2.29-1.038s-1.558-.629-2.326-.927l.5.861.079.132.044.013c1.205.484,2.338,1.043,3.515,1.615a.565.565,0,0,1,.27.724.519.519,0,0,1-.706.244q-1.011-.494-2.009-.96a12,12,0,0,0,1.748,1.832,13.9,13.9,0,0,0,2.044,1.521l1.724,1.054c.563.365,1.109.746,1.672,1.129,1.109.771,2.266,1.559,3.332,2.418m-.59.914-1.62-1.243c-.555-.4-1.121-.787-1.676-1.17-1.118-.761-2.2-1.505-3.356-2.179a13.886,13.886,0,0,1-1.62-1.132c-.254-.2-.5-.418-.729-.638q-.374-.321-.714-.665a12.491,12.491,0,0,1-1.252-1.468c-.193-.258-.361-.534-.547-.8s-.356-.543-.519-.827c-1.034-1.866-2.187-3.662-3.376-5.433a1.042,1.042,0,0,1,1.2-1.584c1.263.432,2.464.947,3.7,1.474.618.265,1.249.533,1.867.815l1.826.9a13,13,0,0,1,1.783,1.08,11.553,11.553,0,0,1,1.557,1.4,15.008,15.008,0,0,1,1.347,1.655,13.86,13.86,0,0,1,1.034,1.906l.737,1.632c.238.548.444,1.109.666,1.662.432,1.114.9,2.212,1.264,3.353a1.162,1.162,0,0,1-.333,1.287,1,1,0,0,1-1.248-.027" transform="translate(-1402.019 -703.507)" fill="#eff4f4"/>
      <path id="Path_166" data-name="Path 166" d="M1550.608,740.593l-1.763-3.065c-.611-1.007-1.264-1.989-1.894-2.984a9.475,9.475,0,0,0-1.22-1.531,13.125,13.125,0,0,0-1.426-1.3,8.036,8.036,0,0,0-.777-.553q-.41-.25-.832-.467a11.958,11.958,0,0,0-1.74-.722c-1.272-.43-2.6-.767-3.887-1.1-.646-.163-1.28-.331-1.922-.475l-1.941-.391.455.48a.71.71,0,0,1,.083.009c1.137.223,2.227.52,3.348.823s2.271.615,3.372,1a.58.58,0,0,1,.376.691.505.505,0,0,1-.658.344l-1.316-.426-.653-.205-.67-.185c-.888-.243-1.771-.475-2.639-.695l.792.917c.016,0,.028,0,.044.006.709.177,1.446.349,2.159.553s1.423.425,2.144.649,1.454.451,2.167.705,1.426.526,2.144.8a.6.6,0,0,1,.365.713.508.508,0,0,1-.678.313l-1.8-.67-.888-.321-.44-.158-.456-.144q-1.818-.573-3.586-1.077l.6.763.186.225a.629.629,0,0,1,.1.018q1.141.328,2.306.684c.761.249,1.514.52,2.282.794a.569.569,0,0,1,.353.693.513.513,0,0,1-.67.321c-.963-.344-1.918-.672-2.857-.986a11.985,11.985,0,0,0,1.895,1.423,17.516,17.516,0,0,0,2.151,1.078l1.847.778.934.4c.313.136.626.274.923.423q1.818.882,3.681,1.849m-.44,1a71.884,71.884,0,0,0-7.315-3.454q-.464-.19-.9-.408c-.293-.146-.574-.3-.871-.455a13.207,13.207,0,0,1-1.645-1.047c-.257-.193-.507-.395-.745-.606s-.479-.431-.717-.648a12.316,12.316,0,0,1-1.32-1.432c-.638-.854-1.355-1.645-2.052-2.453-.349-.4-.693-.811-1.05-1.206l-1.106-1.157a1.064,1.064,0,0,1-.167-1.23,1.024,1.024,0,0,1,1.11-.535,73.145,73.145,0,0,1,7.822,1.955,12.986,12.986,0,0,1,1.913.8q.463.24.915.516a7.9,7.9,0,0,1,.868.6,14.771,14.771,0,0,1,1.569,1.436,11.044,11.044,0,0,1,1.352,1.7c.638,1.008,1.3,2,1.917,3.022l1.787,3.105a1.174,1.174,0,0,1-.13,1.329,1,1,0,0,1-1.233.172" transform="translate(-1396.814 -697.086)" fill="#eff4f4"/>
      <path id="Path_167" data-name="Path 167" d="M1551.953,740.521l-.955-.3a.505.505,0,0,0-.65.358.549.549,0,0,0,.088.456.568.568,0,0,0,.3.217c.321.094.622.2.931.31a.5.5,0,0,0,.658-.343.579.579,0,0,0-.372-.7" transform="translate(-1404.229 -702.494)" fill="#eff4f4"/>
      <path id="Path_168" data-name="Path 168" d="M1574.237,807.8a13.468,13.468,0,0,0-2.025-3.637c-.876-1.061-1.787-2.086-2.671-3.08-.222-.249-.44-.5-.669-.739l-.705-.721-1.4-1.406a1.024,1.024,0,0,0-1.221-.168,1.071,1.071,0,0,0-.543,1.117l.286,1.574c.087.525.138,1.056.21,1.584l.2,1.586c.032.265.075.528.1.794l.063.8a12.041,12.041,0,0,0,.3,1.921c.071.315.167.626.253.935s.175.616.281.919c.052.143.111.282.166.423l.968-.413c-.072-.187-.143-.375-.2-.566s-.123-.4-.183-.6-.126-.4-.178-.609c.507.555.963,1.124,1.43,1.7a.51.51,0,0,0,.737.067.565.565,0,0,0,.072-.771c-.392-.5-.844-1-1.268-1.484l-1.284-1.435-.031-.027-.016-.154-.075-.99c1.129,1.177,2.266,2.408,3.392,3.692a.5.5,0,0,0,.741.044.567.567,0,0,0,.024-.787q-1.076-1.22-2.148-2.376l-.535-.574c-.178-.19-.377-.377-.559-.563l-1.129-1.1-.111-.873q.909.918,1.83,1.88a.517.517,0,0,0,.745.018.563.563,0,0,0,0-.772q-.7-.737-1.4-1.449l-.7-.705c-.23-.233-.487-.461-.729-.687l-.21-1.181,1.4,1.4c.468.474.892.963,1.344,1.456l1.335,1.507.666.771.63.788a11.522,11.522,0,0,1,1.046,1.563c.155.277.3.561.432.851a6.7,6.7,0,0,1,.357.89,13.221,13.221,0,0,1,.646,3.822l-.087,3.534c0,.59-.068,1.176-.1,1.763l-.135,1.762-.444-.8a2.88,2.88,0,0,1,.032,1.2,1.461,1.461,0,0,1-.218.519.976.976,0,0,0,.868.214,1.13,1.13,0,0,0,.808-1.038l.134-1.784c.036-.6.107-1.188.107-1.785l.083-3.58a14.669,14.669,0,0,0-.7-4.227" transform="translate(-1410.208 -726.042)" fill="#eff4f4"/>
      <path id="Path_169" data-name="Path 169" d="M1573.652,797.776c-.02-.6-.012-1.193-.071-1.787l-.274-3.57a14.685,14.685,0,0,0-1.121-4.136,13.478,13.478,0,0,0-2.378-3.417c-.974-.968-1.985-1.9-2.964-2.8-.25-.224-.488-.449-.741-.669l-.773-.647-1.537-1.258a1.031,1.031,0,0,0-1.438.141,1.112,1.112,0,0,0-.2,1.039l.42,1.479c.142.514.246,1.037.368,1.555l.361,1.558c.059.26.127.518.174.78l.139.787a12.552,12.552,0,0,0,.491,1.881c.1.305.23.605.344.9s.238.595.373.886a12.464,12.464,0,0,0,.7,1.3c.5.22.872.384,1.375.6l.281-.053a11.756,11.756,0,0,1-.915-1.371,10.582,10.582,0,0,1-.571-1.126c-.087-.192-.163-.387-.242-.581s-.166-.39-.241-.588c.562.5,1.073,1.022,1.6,1.551a.511.511,0,0,0,.741-.007.567.567,0,0,0-.008-.775c-.44-.463-.939-.908-1.411-1.35l-1.422-1.3a.168.168,0,0,0-.032-.024l-.028-.151-.178-.977c1.24,1.058,2.5,2.169,3.748,3.334a.5.5,0,0,0,.737-.03.563.563,0,0,0-.056-.786q-1.189-1.108-2.374-2.15l-.59-.518c-.194-.171-.408-.337-.614-.5l-1.233-.983-.2-.858q1,.822,2.013,1.687a.514.514,0,0,0,.74-.056.561.561,0,0,0-.079-.768q-.772-.663-1.537-1.3l-.765-.632c-.254-.209-.531-.41-.793-.612l-.329-1.153,1.537,1.25c.511.425.982.869,1.478,1.314l1.482,1.366.741.7.705.721a12.035,12.035,0,0,1,1.2,1.451c.182.26.353.528.515.8a7.161,7.161,0,0,1,.444.85,13.224,13.224,0,0,1,1.022,3.739l.27,3.524c.055.587.047,1.176.071,1.765l.044,1.767-.135-.195-.241.409a.608.608,0,0,0,.725.884,1.132,1.132,0,0,0,.7-1.114Z" transform="translate(-1409.033 -718.432)" fill="#eff4f4"/>
    </g>
    <g id="Group_95" data-name="Group 95" transform="translate(11532.4 3853.176)">
      <g id="Group_94" data-name="Group 94" transform="translate(0 0)" clip-path="url(#clip-path)">
        <path id="Path_1024" data-name="Path 1024" d="M4.372,29.69c2.3-5.8,4.229-4.524,7.921-8.862,4.8-2.029,14.436-7.066,17.923-7.028,9.546.109,17.424,4.129,24.348,10.573a2.214,2.214,0,0,0-.694-1.848c-11.509-10.934-28.3-14.1-41.6-3.184C2.457,24.43-3.977,39.949,2.808,50.773c2.229,3.55,4.794,5.341,8.4,5.849,13.856,2.675,27.379-6.115,41.211-5.132,3.578.133,6.776,1.273,9.4,5.636-4.809-2.286-8.544-5.346-13.343-2.2,5.412-1.045,9.846.8,13.78,4.367-1.2,1.117-2.908-1.435-3.369,1.055-.366,1.967,1.6,3.255,1.616,5.517,0,1.335,1.825-1.492,2.585-.276a28.486,28.486,0,0,1-5.156,11.257c2.2-.622,3.483-3.953,5.479-2.951,1.977.993,2.257-.181,2.884-1.554.5-1.088.974-2.2,1.644-3.706.808,2.257-.5,4.243.6,5.959a5.254,5.254,0,0,1,.694-1.668c.594-.57-.675-2.414,1.692-2.081,1.725.242,1.592.874,1.744,2.067.261,2.062.575,4.105.874,6.158-.029-.014-.033-.038-.052-.052-1.245,8.187-2.167,16.474-6.453,23.7-2.376,1.254-6.562,5.707-7.983,6.472-7.422,3.987-20.047,2.727-25.944-.656-9.613-5.512-14.569-15.476-14.8-28.273.39-7.807,7.327-13.552,10.786-20.242-32.654,22.78,8.814,77.334,38.151,43.511l.048-.071c.3-.375.6-.7.9-1.1-.029,0-.062.019-.081.014,4.357-5.731,6.02-13.11,8.643-20.494,3.108,8.083,4.79,16,7.047,24.314,1.026,3.626,1.948,7.5,4.966,9.655,4.7,3.364,11.817,3.222,17.591-.009l.195-.086c1.54-.523,8.411-6.134,9.228-7.441,4.372-6.971,5.1-14.488,4.091-22.233-1.1,3.982-1.041,8.068-2.091,12.188-1.093,4.281-6.177,10.725-9.451,15.068-.2.076-.665.879-5.2,2.324a18.742,18.742,0,0,1-2.328.561c-6.4,1.677-13.466-1.5-15.134-9.484C83.544,96.651,78.337,87.6,79.5,76.413c.128-1.2-1.625-2.067.727-3.692,2.628-1.81,2.352.946,3.464,1.345.295.1.556.475.855-.086-.47-.993-.955-1.986-1.492-3.112,1.321-.138,1.673,1.825,3.036.713-.014-2.514-2.8-2.618-3.34-4.756,1.3-.143,1.81,1.093,2.732,1.44,1.169.437,2.723,2.2,3.569.119A3.126,3.126,0,0,0,86.918,64.2c-1.155-.337-2.623-.029-3.616-1.73l5.859,1.259c-1.373-1.492-2.314-2.713.613-3.364a11.263,11.263,0,0,1,5.721.09c10.226,2.965,18.826,8.315,23.744,19.116-.646-5.854-3.778-10.221-6.648-14.954,2.157-.87,3.711-.048,5.251.447a52.336,52.336,0,0,1,14.626,7.213c3.013,2.157,3.188.589,3.578-2.281.813-6.049-1.806-10.344-4.714-14.54-.955,2.119.48,3.464,1.112,4.97,1.454,2.851,3.621,7.322,1.231,10.078-1.254,1.354-3.607-1.159-5.265-2.119-6.049-3.512-12.882-4.828-19.121-7.508-8.41-3.607-16.631-5.911-26.367-3.659,1.183-2.1,3.716-.9,3.317-3.188-.361-2.172-2.495-1.521-4.8-1.863,5.274-1.863,4.077-7.432,6.861-10.7,2.67-3.131,4.97-6.7,7.874-9.641,11.941-12.82,27.322-.893,31.627,12.4-.276-11.39-14.288-22.632-24.894-19.249-4.657,1.521-4.557,1.136-4.348-4.391.185-5.065-.195-10.05-3.844-13.5-.5-2.024-2.138-2.737-3.54-3.7C79.064-4.033,64.623,3.5,51.722.51c-.385-.109-.936.333-1.772.656,2.594,3.483,1.278,10.492,6.776,10.772,4.752.318,6.315,3.844,7.237,8.23,1.506,7.194,2.875,14.436,4.951,21.425.58,1.934,1.188,4.091.594,5.607-3.892-6.054-5.612-14.821-11.4-19.43,3.35,5.731,6.7,11.461,8.653,19.6-5.783-7.118-13.124-6.077-19.824-6.776.266.4.974.965.884,1.411-.195,1.031-1.022.551-1.568.447-4.348-.832-8.876.7-13.214-.223,3.383,1.886,7.831.347,10.278,2.713C34.531,52.408,22.4,58.191,11.58,55.192A13.908,13.908,0,0,1,1.715,42.367a79.22,79.22,0,0,1,.67-7.959M47.617,48.3c3.431-.423,6.548-3.4,10.017-2.4,3.939,1.131,7.484,2.723,9.484,8.273-7.28-.537-12.725-5.593-19.5-5.868M54.692,7.889c2.832-.8,4.818-.133,5.464,3.421-3.9-.589-3.9-.589-5.464-3.421M71.3,48.06c-.238-3.963-1.278-7.641-2.414-11.96,2.927,4.22,3.431,6.795,2.414,11.96m3.136,34.569c-1.421-.722.247-2.708-.865-3.526,1.326-3.882-.841-7.422-.133-11.361,2.309,3.906,2.594,8.292,1,14.887m1.9-37.192c-.385-2.309-.675-4.747-3.293-5.07-.86-.1-1-.737-1.207-1.349-1.749-5.293-4.471-10.059-5.707-15.619-1.368-7.213-3.122-13.119-8.187-19.031C71.423.082,83.744-1.391,94.763,7.252c4.414,10.368,3.754,21.825-6.462,27.8-3.331,2.176-4.619,5.978-7.921,8.624.927-3.193,2.984-5.583,2.523-8.667-.546,1.169-1.074,2.3-1.611,3.44M76.417,52.636a102.476,102.476,0,0,1,18.57-22.3c-3.6,7.717-14.241,20.656-18.57,22.3m12.53,5.445c8.415-.879,15.638,1.582,21.492,7.845-6.662-4.025-13.628-7.175-21.492-7.845" transform="translate(0 0.001)" fill="#eff4f4"/>
      </g>
    </g>
    <g id="Group_651" data-name="Group 651" transform="translate(10806.323 -3031.42)">
      <g id="Group_97" data-name="Group 97" transform="translate(825.29 6972.514) rotate(14)">
        <g id="Group_96" data-name="Group 96" transform="translate(-26.149 10.061)" clip-path="url(#clip-path-2)">
          <path id="Path_1025" data-name="Path 1025" d="M64.558,116.011c-1.03,1.692-2.9,2.221-4.436,3.221,1.546-5.238,2.936-10.528,4.673-15.7,2.861-8.525,3.3-17.469,5.252-26.445-2.751.865-3.574,2.753-4.113,4.85-3.161,12.3-5.719,24.773-10.431,36.634-.269.678-.856,1.365-.18,2.3l3.08-.793c-.2.248-.355.6-.617.728-13.024,6.579-26.356,11.87-41.429,10.128a26.373,26.373,0,0,1-11.066-3.7c-4-2.521-5.211-7-5.283-11.442C-.183,103.95,3.18,93.6,11.631,84.616c12.532-13.322,27.825-22.436,43.609-31a46.858,46.858,0,0,0,8.12-5.352c10.155-8.628,20.936-16.517,30.1-26.311,3.472-3.709,7.271-7.295,12.4-8.952,1.621-.524,1.84-2.415,2.3-3.9a22.114,22.114,0,0,1,3.463-7.589c.665-.835,1.482-1.988,2.751-1.3,1.515.819.827,2.137.255,3.223-2.5,4.745-5.635,9.321-5.034,15.039.811,7.715.246,15.451.559,23.158.853,20.929-9.013,37.425-21.24,53.037-.124.158-.388.207-.583.3.377-2.1,2.038-3.417,3.124-5.074.919-1.4,1.968-2.667,2.091-4.471a224.122,224.122,0,0,0,.439-25.81A14.514,14.514,0,0,0,92.028,52.2c-1.517,3.129-1.239,6.041-1.217,8.855.078,9.741-.144,19.453-2.323,29.006-.373,1.635-.97,3.22-.152,4.873a4.36,4.36,0,0,1-2.418,3.031c4.171-16.156,5.445-34.756,2.765-40.736-1.752,1.053-2.006,2.7-2.175,4.569-.766,8.459-.487,17-1.944,25.4-.787,4.539-1.7,9.055-2.614,13.886,1.843-.879,2.311-2.893,4.086-3.231-2.171,4.144-5.728,7.023-9.264,9.852a77.434,77.434,0,0,1-10.606,7.5,24.017,24.017,0,0,0,1.711-4.275c1.3-6.576,2.951-13.08,4.312-19.645a169.679,169.679,0,0,0,3-19.278c-3.126,2.12-4.446,4.922-5.449,11.332-1.243,7.951-2.4,15.909-5.121,23.548-1.136,3.193-1.98,6.489-3.033,9.992l2.976-.866m42.8-81.91c.291.328.538.869.882.942.767.161.444-.573.472-.9.261-3.016-.482-5.834-1.919-9.388a16.259,16.259,0,0,0,.5,7.541c-1.731-.417-.624-2.821-2.437-3.368a30.064,30.064,0,0,0,1.77,13.483c-2.369-1.906-1.338-5.393-4.09-7.438v8.1c-.935-1.132-.081-3.062-1.922-4.152-.089,3.925-.577,7.538-.111,11.245.636,5.068,2.116,10.019,2.087,15.175-2.006-7.261-2.842-14.738-3.726-22.8-1.762,3.235-1.274,27.731.343,35.123,3.355-3.579,4.076-7.794,3.325-12.4l1.282,1.993a14.67,14.67,0,0,0,1.33-11.5c-1.093-4.2-1.792-8.51-2.65-12.753,2.27,4.639,2.175,9.943,4.068,15.291,1.752-5.1.915-9.591.124-14.084l1.183,2.309c1.06-1.365.725-2.862.857-4.265.266-2.84-1.58-5.33-1.367-8.163m-89.166,90.9c.546-3.291,3.338-5.719,3.691-9.389-3.532,2.011-6.594,4.031-8.1,7.826-.491,1.239-.973,2.74-2.505,3.321-.227-1.709,1.677-2.8,1.412-4.9l-7.351,4.067c2.165,1.291,3.864,2.971,6.052.713-.178,1.161-.1,1.9,1.326,2.494,2.906,1.211,3.19-1.634,4.671-2.595.247,1.045-1.538,2.188-.279,2.943,1.473.884,1.971-.866,2.708-1.728,1.058-1.238,1.471-3.011,3.118-3.762l-3.1,5.672c2.84.563,4.971.378,6.217-2.475a25.542,25.542,0,0,1,2.337-3.619c-.661,1.507-1.315,3.019-1.987,4.521-.491,1.1.04,1.377,1.025,1.35a3.271,3.271,0,0,0,3.327-2.185c.794-1.925,1.907-3.719,2.881-5.57l-2.4,6.821c3.339.295,5.076-1.018,6.133-3.766.783-2.037,1.458-4.2,3-5.877.023,2.949-2.588,5.055-2.779,8.13,2.259-.275,3.676-1.137,4.49-3.168,2.157-5.386,4.71-10.627,6.631-16.093,1.736-4.94,2.845-10.1,4.364-15.655a8.288,8.288,0,0,0-4.815,5.294c-1.414,3.741-2.783,7.5-4.171,11.249.029-4.11,2.637-7.639,2.881-11.86-1.455.417-1.782,1.562-2.424,2.431-3.957,5.358-5.245,12-8.545,17.676-.256-2.038.98-3.628,1.657-5.375,1.278-3.3,2.653-6.565,3.988-9.845-2.215.946-3.764,2.031-4.629,4.068-1.96,4.611-4.233,9.09-6.38,13.623.99-4.5,3.755-8.41,4.665-13.221a8.417,8.417,0,0,0-4.839,4.823,54.348,54.348,0,0,1-6.63,11.593c1.185-3.921,4.024-7.188,4.891-11.591a9.977,9.977,0,0,0-5.81,6.118,24.63,24.63,0,0,1-4.721,7.935M78.819,46.191c-2.794-.023-5.588-.065-8.382-.062a5.8,5.8,0,0,0-5.483,3.208c7.657.155,14.98,1.551,22.346.131,1.653-.319,3.288-.4,3.874-2.591-4.29-.34-8.425.15-12.475-.752,5.018.091,10.062.334,14.68-2.183a168.318,168.318,0,0,0-17.185-1.7c-2.289-.087-4.932.159-6.38,3.08,3.122.456,6.186-.338,9.005.871M11.566,113.856c1.474-1.468,3.539-1.131,5.3-1.721,4.246-1.422,8.661-2.482,12.724-6.125l-8.972,1.377c3.8-1.188,7.612-2.348,11.4-3.578a8.319,8.319,0,0,0,4.877-3.357,22.622,22.622,0,0,0-8.493,1.281c2.832-2.2,6.465-2.157,9.627-3.432,1.463-.59,3.367-.3,4.463-2.326a65.216,65.216,0,0,0-10.43.178c-8.377.457-16.721,1.924-25.135,1.125-2.564-.244-3.5.851-3.742,3.015-.338,2.969,2.091,2.073,3.472,2.188,6.5.541,12.977-.185,19.46-.567-.524.782-1.375.6-2.124.72-6.117.98-12.278.542-18.424.609-1.05.011-2.445-1.072-3.2.675a3.225,3.225,0,0,0,.795,4.142c-2.268-.211-1.582,1.628-1.784,2.718-.222,1.2.57,1.843,1.715,1.922a5.232,5.232,0,0,1,3.021,1.135c-.992-.147-1.984-.3-2.977-.441-1.434-.2-2.107.436-1.954,1.87.127,1.194-.625,2.924,1.611,2.947,6.5.066,12.6-1.084,18.062-6.109l-9.293,1.754m58.6-56.194c-4.318-.463-8.648-.835-12.95-1.416-3.468-.468-6.127.916-8.943,3.151,6.984,1.009,13.64,1.5,20.036,3.51q-9.088-1.251-18.177-2.5c-2.91-.4-5.68-.384-7.848,2.454,5.2,1.19,10.439.933,15.261,2.83-2.982-.421-5.952-.947-8.946-1.236C43.866,64,38.832,62.368,35.155,67.4c3.472.464,6.867.884,10.251,1.379,7.383,1.081,14.6,3.315,22.2,2.873a6.75,6.75,0,0,0,6.351-4.018c-1.674,0-2.977.1-4.257-.021-3.058-.3-6.248-.007-9-1.819,5.621.812,11.237,1.578,16.524-1.38-2.957-1.3-6.214-.078-9.052-1.6,3.321.024,6.653.207,9.924-.571,1.712-.407,3.315-.969,3.544-3.221-4.025-.146-7.884-.191-11.607-1.425,5.176-.126,10.676,1.7,15.944-2.5-8.852-.7-16.934-1.343-25.016-1.98-1.959-.155-3.669.221-4.809,2.227,4.786.939,9.508.972,14.01,2.313M47.878,73.81A47.73,47.73,0,0,0,64.8,75.273c1.373-.147,2.854-.187,3.262-2.239a43.447,43.447,0,0,1-9.809-1.165,196.76,196.76,0,0,0-21.141-3.442c-2.733-.25-5.627-.511-7.664,2.8,5.462.9,10.9.653,15.943,2.542-5.245-.293-10.377-1.6-15.66-1.64A5.256,5.256,0,0,0,24.465,75.1c2.1,0,3.748-.148,5.359.026a134.708,134.708,0,0,1,20.708,3.391q-2.485-.285-4.969-.57c-6.839-.8-13.559-2.513-20.532-2.338-3.052.077-4.673,1.687-6.433,4.149,6.888-.092,13.356-.356,19.468,2.254-5.935-1.042-11.854-1.973-17.945-1.7-3.377.151-5.117,1.9-6.812,4.755,1.287-.057,2.161-.133,3.033-.126,6.683.049,13.372.068,19.761,2.475-6.738-1.007-13.457-2.035-20.325-1.774-2.716.1-4.782.859-6.187,3.18-.495.817-1.856,1.423-1.35,2.453s1.834.519,2.758.407c5.8-.705,11.617-.375,17.427-.487,6.148-.118,12.284.781,18.431.157,1.218-.124,2.585-.031,3.494-1.7-1.65-.151-2.971-.234-4.282-.4-2.6-.327-5.358-.095-7.584-1.923,5.765.538,11.733,2.673,17.626-1.871-4.846-1.154-9.217-.529-12.94-2.892,6.018,1.354,12.029,2.65,18.173-1.756-3.966-1.724-7.651-1.155-10.953-2.383,12.816-.1,12.816-.1,14.166-2.094a33.677,33.677,0,0,1-5.87-.059c-3.629-.673-7.55-.165-10.81-2.461m20.749,38.24c4.333-1.887,6.1-3.575,6.484-5.958,1.32-8.164,2.7-16.318,3.966-24.49A82.022,82.022,0,0,0,80.293,66.82a7.031,7.031,0,0,0-3.749,5.409c-1.449,7.337-2.688,14.716-4.131,22.055-1.155,5.879-2.49,11.722-3.786,17.767M85.169,62.183,83.5,61.892c-3.8,14.569-4.76,29.7-7.782,44.883,3.163-1.571,4.83-3.6,5.421-6.545.769-3.832,1.772-7.624,2.4-11.478a125.6,125.6,0,0,0,1.633-26.569m-20.6,19.467A8.749,8.749,0,0,0,60.1,87.188c-3.875,11.642-6.732,23.632-11.813,34.866-.207.457-.505,1.038.157,1.476,3.2-.267,5.269-1.651,6.125-5.052.84-3.34,2.409-6.488,3.445-9.787a174.337,174.337,0,0,0,6.553-27.04M46.241,93.513c-.466-.261-.733-.529-1.024-.557A203.751,203.751,0,0,0,7.763,92.5a2.876,2.876,0,0,0-2.609,2.991c-.072,1.953,1.794,1.042,2.771,1.081,10.182.4,20.282-1.028,30.423-1.578,2.533-.138,5.366.188,7.893-1.476m11.947-5.944c-3.623,2.261-5,6.065-5.747,9.776-1.78,8.879-5.341,17.044-8.988,25.215-.345.772-1.278,1.77-.46,2.406.928.721,2.176.011,3.036-.6a4.509,4.509,0,0,0,1.131-1.982c1.48-3.623,3.021-7.226,4.356-10.9a139.928,139.928,0,0,0,6.672-23.909M95.519,47.784c-2.84,5.824-.225,11.842-.395,17.752-.179,6.181-.04,12.37-.04,18.756,1.311-1.606,2.8-3.037,2.9-5.14a125.964,125.964,0,0,0-2.46-31.368m-34.48,4.49c8.057.351,15.816,2.377,23.8,1.3,1.69-.227,3.28-.447,3.64-2.887-7.814.7-15.368-.5-22.964-.633-1.708-.03-3.387.022-4.474,2.218M74.691,40.858c5.964.727,11.813,2.084,17.776,1.27,2.116-.289,3.871-.914,4.686-3.941-7.635,1.894-15.38-1.19-22.462,2.671M99.584,34.91c-5.86.249-11.639.482-17.431.562a3.852,3.852,0,0,0-3.774,2.713c7.375-.622,14.787,1.456,21.206-3.275m-16.817-.846c6.553.58,13.025.768,18.717-3.148-6.281.853-12.976-.7-18.717,3.148m3.457-3.348c5.646.318,10.591-.725,15.515-1.89.735-.174,1.7-.534,1.577-1.432-.154-1.153-1.233-.635-1.9-.582-3.541.281-7.071.684-10.613.946-1.95.144-3.111,1.266-4.578,2.958m4.653-4.177a32.192,32.192,0,0,0,12.5-1.289c.739-.231,1.632-.58,1.316-1.575-.256-.806-1.142-.484-1.739-.434-2.887.242-5.782.46-8.647.877-1.355.2-2.918.429-3.426,2.42M12.258,118.347a39.576,39.576,0,0,1-8.267.487c-1.782.024-2.29.713-1.638,2.525.726,2.019,1.6,2.771,3.617,1.5,2.14-1.353,4.49-2.385,6.287-4.51M93.362,23.4c4.487-.412,8.061-.581,11.46-2a1.7,1.7,0,0,0,1.251-1.741c-.023-.441-.243-1-.789-.819-3.733,1.232-8.144.657-11.922,4.564m5.177-4.333c2.814.159,5.072-1.073,7.347-2.232.9-.458,1.45-1.3.912-2.2-.51-.859-1.47-.25-2.122-.016-2.451.878-4.252,2.723-6.137,4.451M109.4,10.837l5-9.236-.972-.489c-2.711,2.452-3.272,6.024-4.032,9.725m-22.189,44.3c3.825-2.914,7.752-8.642,7.836-11.3l-7.836,11.3" transform="translate(0 0.001)" fill="#eff4f4"/>
        </g>
      </g>
      <g id="Group_99" data-name="Group 99" transform="translate(928.447 6902.338) rotate(-13)">
        <g id="Group_98" data-name="Group 98" clip-path="url(#clip-path-3)">
          <path id="Path_1026" data-name="Path 1026" d="M78.8,4.026c-.044-1.359.6-3.21-1.2-3.828A4.327,4.327,0,0,0,73.24,1.382c-6.329,6-13.8,10.587-19.848,17.038A49.66,49.66,0,0,0,41.486,39.472a97.807,97.807,0,0,1-11.173,25.8c-5.37,8.522-11.481,16.608-16.063,25.589C8.043,103.03,3.076,115.6,4.962,129.777c.214,1.606-.4,3.311-.55,4.977-.361,3.914-2.986,6.973-3.973,10.644-.275,1.022-1.058,2.277.517,2.837,1.461.519,2.3-.466,2.8-1.721a18.407,18.407,0,0,0,1.1-3.17c1.883-9.669,8.25-16.151,15.511-22.028,6.272-5.076,12.718-9.961,18.727-15.333C54.6,92.124,67.522,76.666,71.837,55.342,74.675,41.319,79.2,27.624,78.828,13.1c0-3.025.067-6.053-.03-9.075M16.6,89.288c1.217-.573,1.319.886,1.66,1.544,2.618,5.053,5.169,10.14,7.708,15.234a19.815,19.815,0,0,1,.846,2.281,1.824,1.824,0,0,1-1.246,2.31c-1.1.381-1.227-.63-1.534-1.3q-3.934-8.688-7.855-17.384c-.438-.974-.643-2.179.421-2.679m-1.262,3.1a139.613,139.613,0,0,1,8.108,18.588c.431,1.313.032,2.34-1.131,2.727-1.662.553-1.258-1.089-1.544-1.862q-2.955-7.972-5.806-15.983c-.377-1.062-1.317-2.241.373-3.471m-1.758,3.323c5.434,10.259,7.347,18.967,4.632,21.713a91.948,91.948,0,0,0-5.939-16.81c-.79-1.758.139-3.194,1.307-4.9m-8.095,39.95.821-6.041c2.741,2.547.668,4.258-.821,6.041m.554-14.774a15.985,15.985,0,0,1,3.134,8.369c-2.407-2.281-4.416-4.707-3.134-8.369m5.177,4.358c-2.67-3.649-7.144-6.766-3.571-12.66,1.293,4.468,4.072,8.043,3.571,12.66m2.024-3.329c-2.319-4.1-5.17-8.011-4.356-13.179,2.019,4.2,4.868,8.114,4.356,13.179m1.244-3.251c-1.3-3.069-2.315-6.279-3.824-9.238-1.427-2.8-1.22-5.236.759-8.188,2.688,6.226,5.981,11.889,4.694,18.753-1.421.39-1.379-.74-1.629-1.328m1.289,5.153c6.571-7.778,13.946-14.605,23.2-19.329l-23.2,19.329M41.666,97.957c-1.711.5-1.474-1.5-1.859-2.453a7.746,7.746,0,0,0-1.8-3.1c.435,2.07.921,4.132,1.283,6.215.159.92-.1,1.972-1.117,2.165-1.052.2-.971-.924-1.213-1.6-.82-2.282-1.394-4.7-3.435-6.318,1.106,3.266,3.54,6.287,2.157,10.294-1.74-1.052-1.716-2.879-2.819-3.938a32.2,32.2,0,0,0,.421,3.3c.231,1.021.627,2.2-.639,2.552-1.243.342-1.169-1.092-1.468-1.817-1.01-2.441-1.6-5.089-3.669-6.969.723,2.89,2.437,5.465,2.663,8.524.087,1.175.213,2.406-1.06,2.871-1.636.6-1.684-1.046-2.14-1.923-2.782-5.341-5.455-10.738-8.292-16.049-.945-1.768-1.353-3.282.447-4.94,3.1,2.862,4.154,7.275,7.487,9.9A53.368,53.368,0,0,0,22,86.911c-.538-.849-1.087-1.7-1.541-2.59s-.437-1.9.493-2.362c1.012-.5,1.13.731,1.617,1.221,1.3,1.3,1.448,3.587,3.576,4.184C25,85.506,23.891,83.632,22.717,81.8c-.569-.887-1-1.785-.242-2.692.8-.959,1.54.225,2.332.227-.494-.985-1.408-2.247-.28-3,1.384-.927,1.6,1.013,2.408,1.585.619.439,1.207.921,1.809,1.384a28.794,28.794,0,0,0-2-3.07c-1.274-1.518-1.2-2.741.569-3.93A94.245,94.245,0,0,0,39.134,87.8c-.018-.013-.033-.03-.052-.044.405,2.573,2.84,4.177,3.241,6.738.193,1.235,1.092,2.955-.657,3.464m4.131-.916,7.525-8.707c-1.457,3.812-4.427,6.314-7.525,8.707M61.369,77.929c3.155-6.609,6.273-13.232,8.276-20.342-1.262,7.341-3.46,14.363-8.276,20.342M76.3,21.58a22.074,22.074,0,0,1,.22,5.7c-1.955-4.183-2.81-8.842-5.948-12.4,1.445,4.488,4.034,8.588,4.53,13.4.055.532.144,1.06.262,1.918-1.939-1.75-1.739-4.317-3.4-5.8.9,3.984,3.3,7.675,2.522,12.632-2.406-3.411-2.652-7.431-5.738-9.712,1.9,4.211,4.257,8.268,4.763,13.923-3.336-4.594-5.494-8.984-9.028-12.329,1.655,4.372,4.943,7.888,6.454,12.337.343,1.01,1.236,1.873.846,3.293-1.976-1.336-2.077-4.106-4.324-4.938,1.441,2.81,3.334,5.465,3.466,9.3-2.634-1.32-2.46-4.2-4.464-5.26,1.081,3.478,3.472,6.709,2.087,11.164-2.246-3.014-3.474-6.251-6.082-8.445.611,2.76,2.9,4.638,3.778,7.3.863,2.6,1.4,5.07-.3,7.921-2.19-2.846-2.941-6.344-5.557-8.559.9,3.344,3.367,6.047,3.906,9.532.209,1.354.966,2.8-.484,4.125-1.885-2.047-1.581-5.45-4.381-6.78,1.408,3.807,4.121,7.335,2.758,12.627-2.827-3.98-3.822-8.3-7.5-10.635,2.021,3.31,4.472,6.376,5.448,10.262.436,1.739.538,3.269-1.118,4.726C56.077,73.4,54.491,69,51.055,66.011q2.777,5.45,5.553,10.9c.8,1.576,1.192,3.122-.406,4.671-2.005-1.7-2.415-4.516-4.454-6.093.235,2.155,1.805,3.759,2.379,5.788.4,1.418,1.161,3.131-.375,3.919-1.844.947-1.561-1.511-2.45-2.231a6.116,6.116,0,0,1-.962-1.344c-.219,1.71.72,3.183,1,4.794.227,1.287.371,2.393-1.172,3-1.192-1.557-.843-3.839-2.459-5.161.005,2.665,2.027,5.3.249,8.482-1.9-2.512-1.857-5.656-4.328-7.24.707,2.445,2.118,4.679,2.173,7.32.022,1.04.012,2.275-1.054,2.59-1.232.363-1.127-1.1-1.532-1.778-1.209-2.032-2.091-4.284-4.044-5.79-.9-2.71-3-4.61-4.683-6.783a59.8,59.8,0,0,1-5.925-8.5c-.447-.844-.758-1.647-.034-2.459.654-.734,1.153.283,1.758.2,2.445,4.136,5.965,7.232,9.77,10.054a66.269,66.269,0,0,0-9.758-10.1c-.271-1.188-1.1-2.513.443-3.385,1.421-.805,1.749.8,2.556,1.361.433.3.91.531,1.367.793-2.066-2.435-3.706-4.874.077-7.342l2.879,3.15c2.319,3.81,4.652,7.608,8.5,10.142C43.4,71.533,41.05,67.8,37.711,64.882c-.774-2.622-3.861-5.1-.26-8.028,1.227,0,1.248,1.9,2.531,2.095-1.058-2.147-2.534-4.142-1.126-6.8a1.923,1.923,0,0,1,2.035-1.172c-.942-1.663-1.929-3.335.851-4.226,2.021,3.216,4.321,6.166,7.75,8.032a66.81,66.81,0,0,0-7.722-8.069.841.841,0,0,0-.028-.3,3.4,3.4,0,0,1,.524-4.014c1.295-1.155,1.7,1.341,2.939,1.238-.84-2.1-4.016-3.749-1.173-6.551,1.842.423,2.6,2.579,4.48,3.056-.449-1.493-1.843-2.166-2.818-3.193-2.046-2.155-1.66-4.032,1.223-5.512-1.043-1.5-.366-2.858.714-3.769,1.336-1.127,1.938.7,2.874,1.169.76.384,1.328,1.143,2.279,1.164-.692-.692-1.412-1.359-2.066-2.085-.673-.748-2.129-1.151-1.431-2.585a2.5,2.5,0,0,1,3.033-1.336c-1.246-2.206.918-2.882,1.9-3.981a1.554,1.554,0,0,1,2.413-.089c-1.3-1.553-.261-2.8,1.028-3.938,1.558-1.373,2.278.192,3.2,1.017.814.727,1.657,1.423,2.486,2.133-.635-.9-1.327-1.766-1.887-2.711-.521-.88-2.428-1.421-.859-2.9,1.271-1.2,2.484-1.352,3.555-.055a2.043,2.043,0,0,1,.4-3.019c1.845-1.719,2.587.829,3.948.873-.373-1.167-1.993-2.056-.186-3.6,1.875-1.6,2.615-.043,3.726.775A5.864,5.864,0,0,0,71.6,6.954c-.785-1.261.014-1.85.929-2.367,1.23-.692,1.583.427,1.952,1.134A28.034,28.034,0,0,1,77.527,19.05c-1.593-3.241-2.063-6.019-3.7-8.231.838,3.584,1.764,7.151,2.478,10.76m.953-12.163c-.791-1.577-1.568-3.161-2.376-4.728a1.475,1.475,0,0,1,.912-2.363c1.2-.408,1.589.574,1.868,1.4a8.6,8.6,0,0,1-.4,5.691" transform="translate(0 0)" fill="#eff4f4"/>
          <path id="Path_1027" data-name="Path 1027" d="M0,0C.089.131.186.262.3.4A4.674,4.674,0,0,0,0,0" transform="translate(64.162 13.463)" fill="#2f2f2f"/>
          <path id="Path_1028" data-name="Path 1028" d="M0,0A4.519,4.519,0,0,0,.4.425,3.342,3.342,0,0,0,0,0" transform="translate(56.636 19.921)" fill="#2f2f2f"/>
          <path id="Path_1029" data-name="Path 1029" d="M0,0Q5.207,5.3,10.42,10.6c.67.678,1.106,1.732,2.342,1.582C9.023,7.582,5.3,2.968,0,0" transform="translate(49.51 33.847)" fill="#eff4f4"/>
          <path id="Path_1030" data-name="Path 1030" d="M0,0C2.157,2.807,3.5,6.3,6.818,8.131,4.771,5.231,3.1,2.019,0,0" transform="translate(41.991 62.796)" fill="#eff4f4"/>
          <path id="Path_1031" data-name="Path 1031" d="M0,0C3.013,2.637,5.5,5.847,8.838,8.131,6.339,4.935,4.049,1.511,0,0" transform="translate(56.791 33.865)" fill="#eff4f4"/>
          <path id="Path_1032" data-name="Path 1032" d="M0,0C1.3,3.5,4.65,5.257,6.794,8.039,5.428,4.6,2.348,2.609,0,0" transform="translate(34.936 69.277)" fill="#eff4f4"/>
        </g>
      </g>
      <g id="Group_101" data-name="Group 101" transform="matrix(0.809, 0.588, -0.588, 0.809, 711.789, 7153.317)">
        <g id="Group_100" data-name="Group 100" clip-path="url(#clip-path-4)">
          <path id="Path_1033" data-name="Path 1033" d="M144.979,11.488a31.34,31.34,0,0,0-12.536-6.927A74.923,74.923,0,0,0,111.888,1.6c-7.618.128-15.25.51-22.826-.526A123.561,123.561,0,0,0,50.6,2.032C37.763,4.3,25.521,8.423,15.7,17.392c-3.48,3.178-6.543,2.986-10.283,1.575a15.514,15.514,0,0,0-3.248-.782c-.937-.135-1.895.133-2.123,1.191-.3,1.382.909,1.231,1.719,1.458,6.891,1.932,13.747,3.953,20.946,4.558a120.373,120.373,0,0,1,12.3,1.8A331.541,331.541,0,0,0,104.5,33.2c2.688,0,5.377-.034,8.065.007a48.5,48.5,0,0,0,27-7.938,19.774,19.774,0,0,0,6.434-6.291c2.17-3.489,2.058-4.813-1.015-7.49M40.951,26.827l9.519.837a14.174,14.174,0,0,1-9.519-.837m20.8,2.251c2.284,0,4.573-.081,6.853.024,2.21.1,4.411.4,7.188.661-5.127,1.194-9.538-.729-14.042-.684m83.895-12.283c-.881,1.013-1.729,2.058-2.651,3.031-3.656,3.856-9.846,7.039-14.627,7.526.448-1.422,2.219-1.365,2.779-2.579-3.09,1.011-5.858,2.92-9.462,3.58,1.251-1.763,3.469-1.782,4.132-3.607-2.663,1.1-5.322,2.207-7.991,3.292-1.214.493-1.372-.114-1.1-1.117l-6.985,2.823-.322-.591,3.227-2.535c-3,.981-4.908,2.616-7.635,2.983.83-1.839,2.908-1.974,3.455-3.562-3.025.756-5.374,3.345-8.937,3.519,1.2-2.357,3.8-2.844,4.749-4.936-3.277,1.425-5.86,4.258-10,4.947,1-2.112,3.379-2.48,3.977-4.384-3.332,1.164-5.768,4.436-9.664,4.3-.386-1.132.936-1.25.914-2.058-2.16-.091-3.718,1.972-6.3,1.809,1.378-2.561,4.452-2.877,5.545-5.218-3.63,1.435-6.409,4.8-11.157,4.97.809-1.07,1.345-1.778,1.881-2.486-2.471.809-4.671,2.614-7.927,2.1,2.455-2.57,6.2-2.965,7.824-6.008-4.177,2.173-8.04,5.1-13.51,5.77,2.146-2.738,5.294-3.3,6.953-5.66-3.811,1.532-6.948,4.59-11.382,5.3-.133-1.7,1.77-1.447,1.83-2.589-2.154,0-3.75,1.9-6.164,1.813,1.454-2.322,4.3-2.98,5.458-5.325-2.5,1.57-4.99,3.171-7.524,4.692-.877.528-2.167.782-2.805.1-.891-.949.907-1.165,1.006-1.982-2.064-.013-3.436,2.714-6.153,1.359L50.2,23.223c-2.553.3-4.294,2.789-7.154,2.733.962-1.924,3.3-2.125,4.132-3.924-2.108.084-3.426,1.81-5.238,2.525-1.2.472-2.295,1.295-3.815.846,1.087-1.828,3.506-2.056,4.265-4.024-2.941.925-5.288,3.311-9.246,3.868l3.781-3.163c-2.5.609-4.614,2.437-7.814,2.517l4.537-3.894c-2.664.577-4.607,2.865-7.688,3.3l3.083-3.34c-2.531.446-4.272,2.745-7.621,3.133l3.157-3.312c-2.2.573-3.827,2.4-6.354,2.865.606-2.105,2.982-2.648,3.233-4.641-1.831,1.4-3.376,3.217-5.737,3.905A19.234,19.234,0,0,1,26.8,11.476l-.642,1.864c2.494-2.618,4.935-4.971,9.075-5.1,1.382-.042,3.1-1.832,4.9-2.391.709-.22,1.422-.792,2.025.165a12.774,12.774,0,0,1,5.668-2.329c.956-.169,1.161.189,1.161.975,1.838-1.276,3.436-3.624,6.065-1.356,1.177-.492,2.093-1.361,3.515-1.565,2.836-.405,1.833.9,1.215,2.187,1.8-1.147,3-4.4,5.9-1.661C67.533.8,69.585.98,71.789,1.26c-.3,1.433-1.444,1.847-2.016,2.71,2.441-1.165,4.3-3.849,7.577-2.843.524.161,1.078.166,1.263.81a5.757,5.757,0,0,1,3.482-.8c2.723.089,1.122,1.214.569,2.113a7.054,7.054,0,0,1,6.106-1.369,1.33,1.33,0,0,1,1.176,1.582c1.6-.933,3.222-2.354,4.642.236,1.377-1.48,3.174-1.19,4.852-.995,1.846.215.758.966.145,1.556,1.667,0,2.85-3,4.875-.79,1.322-.15,2.406-1.143,3.856-.96.991.126,1.411.47,1.243,1.456,3.059-1.891,3.228-1.885,4.255.167,2.891-1.865,5.254-1.719,7.21.449a8.78,8.78,0,0,1,1.848-.663c.727-.1,1.651-.238,2.085.534.414.738-.435,1.137-.793,1.643-.623.882-1.7,1.444-1.852,2.657,1.161-1.155,2.248-2.4,3.5-3.444a2.615,2.615,0,0,1,4.463,1.38c2.681-1.436,7.147-.05,8.849,2.747,1.484-.17,2.912-.262,2.6,1.956,1.354-.2,2.576.186,3.04,1.474.405,1.122-.827,1.7-1.462,2.408-.891.992-1.894,1.882-2.85,2.815,1.675-.34,2.409-1.895,3.644-2.8.541-.4.929-1.6,1.823-.844.878.739.358,1.618-.273,2.342" transform="translate(0 0)" fill="#eff4f4"/>
          <path id="Path_1034" data-name="Path 1034" d="M84.8,19.552C82.942,21.805,79.979,23,78.814,25.9c3.852-3.543,7.977-6.826,10.827-11.328-1.622,1.653-3.368,3.206-4.837,4.985" transform="translate(-25.781 -4.765)" fill="#eff4f4"/>
          <path id="Path_1035" data-name="Path 1035" d="M141.87,12.123c-3.072,3.006-6.061,6.1-9.083,9.155,4.794-3.05,8-7.8,12.207-11.465-1.434.233-2.206,1.412-3.124,2.31" transform="translate(-43.436 -3.21)" fill="#eff4f4"/>
          <path id="Path_1036" data-name="Path 1036" d="M66.222,16.869l-9.371,9.4a34.517,34.517,0,0,0,9.371-9.4" transform="translate(-18.596 -5.518)" fill="#eff4f4"/>
        </g>
      </g>
    </g>
  </g>
</svg>
