<svg xmlns="http://www.w3.org/2000/svg" xmlns:xlink="http://www.w3.org/1999/xlink" width="1070.394" height="606.892" viewBox="0 0 1070.394 606.892">
  <defs>
    <clipPath id="clip-path">
      <rect id="Rectangle_1014" data-name="Rectangle 1014" width="463.263" height="561.053" rx="40" transform="translate(0)" fill="#f0f0f0"/>
    </clipPath>
    <clipPath id="clip-path-2">
      <rect id="Rectangle_1049" data-name="Rectangle 1049" width="463.263" height="561.053" rx="40" transform="translate(0)" fill="#003049"/>
    </clipPath>
    <clipPath id="clip-path-3">
      <path id="Path_1392" data-name="Path 1392" d="M0,0,11.752.17,11.9,10.317.148,10.147Z" fill="#2b2b2b"/>
    </clipPath>
    <clipPath id="clip-path-4">
      <rect id="Rectangle_25" data-name="Rectangle 25" width="11.89" height="10.027" fill="#2b2b2b"/>
    </clipPath>
  </defs>
  <g id="Group_914" data-name="Group 914" transform="translate(-416 -4677.031)">
    <rect id="Rectangle_1006" data-name="Rectangle 1006" width="1070.393" height="606.892" rx="40" transform="translate(416 4677.031)" fill="#f4f4f4"/>
    <g id="Group_502" data-name="Group 502" transform="translate(485.036 4725.639)">
      <text id="The_Seasons" data-name="The Seasons" transform="translate(0 59.041)" fill="#2b2b2b" font-size="40" font-family="FONTSPRINGDEMO-TheSeasonsBold, FONTSPRING DEMO - The Seasons" font-weight="700"><tspan x="0" y="0">The Seasons</tspan></text>
      <text id="A_B_C_D_E_F_G_H_I_J_K_L_M_N_O_P_Q_R_S_T_U_V_W_X_Y_Z_a_b_c_d_e_f_g_h_i_j_k_l_m_n_o_p_q_r_s_t_u_v_w_x_y_z" data-name="A B C D E F G H I J K L M N O P Q R S T U V W X Y Z
a b c d e f g h i j k l m n o p q r s t u v w x y z" transform="translate(0 101.849)" fill="#2b2b2b" font-size="16" font-family="FONTSPRINGDEMO-TheSeasonsBold, FONTSPRING DEMO - The Seasons" font-weight="700"><tspan x="0" y="0">A B C D E F G H I J K L M N O P Q R S T U V W X Y Z</tspan><tspan x="0" y="31">a b c d e f g h i j k l m n o p q r s t u v w x y z</tspan></text>
      <text id="Headings" transform="translate(0 8)" fill="#2b2b2b" font-size="8" font-family="Plus Jakarta Sans" font-weight="500"><tspan x="0" y="0">HEADINGS</tspan></text>
    </g>
    <g id="Group_643" data-name="Group 643" transform="translate(478.913 5077.45)">
      <text id="Lindsey_Signature" data-name="Lindsey Signature" transform="translate(6.021 59.069)" fill="#2b2b2b" font-size="40" font-family="LindseySignature, Lindsey Signature"><tspan x="0" y="0">Lindsey Signature</tspan></text>
      <text id="A_B_C_D_E_F_G_H_I_J_K_L_M_N_O_P_Q_R_S_T_U_V_W_X_Y_Z_a_b_c_d_e_f_g_h_i_j_k_l_m_n_o_p_q_r_s_t_u_v_w_x_y_z-2" data-name="A B C D E F G H I J K L M N O P Q R S T U V W X Y Z
a b c d e f g h i j k l m n o p q r s t u v w x y z" transform="translate(5 101.867)" fill="#2b2b2b" font-size="17" font-family="LindseySignature, Lindsey Signature"><tspan x="0" y="0">A B C D E F G H I J K L M N O P Q R S T U V W X Y Z</tspan><tspan x="0" y="33">a b c d e f g h i j k l m n o p q r s t u v w x y z</tspan></text>
      <text id="Alt_Headings" data-name="Alt Headings" transform="translate(6.122 7.999)" fill="#2b2b2b" font-size="8" font-family="Plus Jakarta Sans" font-weight="500"><tspan x="0" y="0">ALT HEADINGS</tspan></text>
    </g>
    <g id="Group_501" data-name="Group 501" transform="translate(485.036 4890.05)">
      <text id="Baskerville_URW" data-name="Baskerville URW" transform="translate(0 52.674)" fill="#2b2b2b" font-size="41" font-family="BaskervilleURW-Reg, Baskerville URW"><tspan x="0" y="0">Baskerville URW</tspan></text>
      <text id="A_B_C_D_E_F_G_H_I_J_K_L_M_N_O_P_Q_R_S_T_U_V_W_X_Y_Z_a_b_c_d_e_f_g_h_i_j_k_l_m_n_o_p_q_r_s_t_u_v_w_x_y_z_ʻokina_Ā_ā_Ē_ē_Ī_ī_Ō_ō_Ū_ū" data-name="A B C D E F G H I J K L M N O P Q R S T U V W X Y Z
a b c d e f g h i j k l m n o p q r s t u v w x y z
ʻokina Ā ā Ē ē Ī ī Ō ō Ū ū" transform="translate(0 89.141)" fill="#2b2b2b" font-size="17" font-family="BaskervilleURW-Reg, Baskerville URW"><tspan x="0" y="0">A B C D E F G H I J K L M N O P Q R S T U V W X Y Z</tspan><tspan x="0" y="33">a b c d e f g h i j k l m n o p q r s t u v w x y z</tspan><tspan font-family="Helvetica"><tspan x="0" y="66">ʻ</tspan><tspan y="66" font-family="BaskervilleURW-Reg, Baskerville URW">okina Ā ā Ē ē Ī ī Ō ō Ū ū</tspan></tspan></text>
      <text id="Body" transform="translate(0 7.999)" fill="#2b2b2b" font-size="8" font-family="Plus Jakarta Sans" font-weight="500"><tspan x="0" y="0">BODY</tspan></text>
    </g>
    <path id="Path_1165" data-name="Path 1165" d="M39.353,0H423.91c21.734,0,39.353,18.5,39.353,41.32V565.572c0,22.82-17.619,41.32-39.353,41.32H39.353C17.619,606.892,0,588.392,0,565.572V41.32C0,18.5,17.619,0,39.353,0Z" transform="translate(1023.131 4677.031)" fill="#9a9567"/>
    <g id="Group_645" data-name="Group 645" transform="translate(1101.778 4752.879)">
      <g id="Group_140" data-name="Group 140" transform="translate(0 0)">
        <path id="Path_51" data-name="Path 51" d="M0,842.689c3.061-.759,3.949-2.7,3.949-9.6V788.436c0-5.9-1.284-6.739-3.949-7.75v-.927l10.76-4.044.888.59v49.2l17.175-14.069c6.416-5.392,7.106-8.34,4.935-9.183v-.59H45.405v1.1c-2.962.759-6.218,1.6-12.042,6.318l-7.106,5.9,11.549,17.775c3.849,5.9,6.91,9.773,11.35,10.025v1.01H42.74c-4.836,0-8.093-2.527-12.931-10.109l-8.981-14.237-9.18,7.582v6.065c0,6.908.888,8.845,3.948,9.6v1.095H0Z" transform="translate(0 -775.715)" fill="#2b2b2b"/>
        <path id="Path_52" data-name="Path 52" d="M113.28,862.521V846.936c0-5.9-1.284-6.74-3.949-7.751v-.927l10.76-4.044.889.59v26.2c0,9.6,3.159,13.9,11.054,13.9,5.824,0,11.154-3.116,15.6-7.16V846.936c0-5.9-1.282-6.74-3.948-7.751v-.927l10.758-4.044.888.59v31.508c0,6.907.888,8.845,3.948,9.6v1.095h-8.389c-2.172,0-3.258-.926-3.258-3.369v-4.3c-5.033,4.465-11.845,8.509-19.248,8.509-10.365,0-15.1-5.644-15.1-15.333" transform="translate(-60.672 -808.942)" fill="#2b2b2b"/>
        <path id="Path_53" data-name="Path 53" d="M266.471,874.593V859.43c-3.059,10.363-11.351,18.534-21.122,18.534-7.3,0-13.819-3.791-13.819-11.036,0-8.762,10.364-12.047,22.11-14.828l12.832-2.948c-.493-8.172-5.429-11.963-13.819-11.963-5.922,0-11.647,2.359-16.582,7.5l-.888-.674c5.627-5.98,12.833-9.6,21.42-9.6,11.943,0,17.471,5.644,17.471,15.164v16.849c0,6.907.888,8.845,3.948,9.6v1.1h-8.587c-1.974,0-2.962-.927-2.962-2.528M249,872.993c10.561,0,17.373-11.374,17.471-20.219v-2.528l-12.436,2.865c-7.305,1.769-15.2,4.549-15.1,11.458,0,5.475,4.443,8.424,10.068,8.424" transform="translate(-128.485 -809.052)" fill="#2b2b2b"/>
        <path id="Path_54" data-name="Path 54" d="M342.86,875.916c3.059-.759,3.948-2.7,3.948-9.6V846.936c0-5.9-1.185-6.74-3.948-7.751v-.926l10.858-4.044.789.59v31.508c0,6.908.988,8.845,3.95,9.6v1.095h-15.6Z" transform="translate(-190.267 -808.942)" fill="#2b2b2b"/>
        <path id="Path_55" data-name="Path 55" d="M387.21,875.916c3.059-.759,3.948-2.7,3.948-9.6V846.936c0-5.9-1.185-6.74-3.948-7.751v-.926l10.858-4.044.789.59v7.245c5.726-3.959,13.326-7.751,20.927-7.751,9.672,0,15.595,4.8,15.595,14.659v17.355c0,6.908.889,8.845,3.948,9.6v1.095H423.732v-1.095c3.059-.759,3.948-2.7,3.948-9.6v-15.67c0-8.761-4.343-13.563-13.03-13.563-5.428,0-10.758,2.78-15.793,6.318v22.915c0,6.908.988,8.845,3.949,9.6v1.095h-15.6Z" transform="translate(-214.879 -808.942)" fill="#2b2b2b"/>
        <path id="Path_56" data-name="Path 56" d="M546.788,874.593V859.43c-3.059,10.363-11.351,18.534-21.123,18.534-7.3,0-13.819-3.791-13.819-11.036,0-8.762,10.364-12.047,22.11-14.828l12.832-2.948c-.493-8.172-5.429-11.963-13.819-11.963-5.922,0-11.647,2.359-16.582,7.5l-.888-.674c5.627-5.98,12.833-9.6,21.42-9.6,11.943,0,17.471,5.644,17.471,15.164v16.849c0,6.907.888,8.845,3.948,9.6v1.1H549.75c-1.974,0-2.962-.927-2.962-2.528m-17.471-1.6c10.561,0,17.373-11.374,17.471-20.219v-2.528l-12.436,2.865c-7.305,1.769-15.2,4.549-15.1,11.458,0,5.475,4.443,8.424,10.068,8.424" transform="translate(-284.044 -809.052)" fill="#2b2b2b"/>
        <g id="Group_118" data-name="Group 118" transform="translate(151.642 15.11) rotate(-39)">
          <g id="Group_117" data-name="Group 117" transform="translate(0 0)" clip-path="url(#clip-path-3)">
            <path id="Path_1040" data-name="Path 1040" d="M.414,2.552c.191-.494.359-.383.672-.75a7.171,7.171,0,0,1,1.538-.58,3.172,3.172,0,0,1,2.114.937A.194.194,0,0,0,4.677,2a2.665,2.665,0,0,0-3.594-.325A1.991,1.991,0,0,0,.306,4.358a1.007,1.007,0,0,0,.732.512c1.2.247,2.355-.49,3.55-.389a.932.932,0,0,1,.818.5c-.418-.2-.744-.469-1.154-.205a1.355,1.355,0,0,1,1.195.392c-.1.094-.253-.127-.289.086-.029.168.142.281.146.475,0,.115.156-.126.223-.02a2.358,2.358,0,0,1-.431.959c.189-.051.3-.335.469-.246s.195-.013.247-.13c.042-.093.081-.187.137-.316.073.195-.038.363.059.512a.435.435,0,0,1,.058-.142c.051-.048-.061-.208.143-.176.149.023.138.077.153.179.025.177.055.353.083.529,0,0,0,0,0,0a5.318,5.318,0,0,1-.527,2.024c-.2.1-.559.481-.681.545a2.756,2.756,0,0,1-2.24-.089A2.759,2.759,0,0,1,1.68,6.906c.024-.669.615-1.153.905-1.722C-.2,7.1,3.443,11.826,5.932,8.962l0-.006c.025-.032.051-.06.076-.093H6a6.128,6.128,0,0,0,.72-1.747,21.19,21.19,0,0,1,.638,2.094,1.465,1.465,0,0,0,.441.834,1.463,1.463,0,0,0,1.518.021l.017-.007a3.654,3.654,0,0,0,.787-.627,2.723,2.723,0,0,0,.325-1.9c-.09.34-.08.691-.165,1.043a4.8,4.8,0,0,1-.8,1.28,1.148,1.148,0,0,1-.446.193,1.6,1.6,0,0,1-.2.045A1.061,1.061,0,0,1,7.525,9.26a8.133,8.133,0,0,1-.57-2.608c.01-.1-.143-.179.058-.316.224-.152.2.084.3.12.026.009.049.041.074-.006l-.133-.269c.114-.01.147.159.263.065,0-.216-.245-.228-.294-.412.112-.011.158.1.238.127.1.039.238.192.308.015a.275.275,0,0,0-.189-.362c-.1-.03-.226-.006-.314-.153l.507.115c-.12-.13-.2-.236.049-.288a.98.98,0,0,1,.494.015,3.1,3.1,0,0,1,2.073,1.669A3.21,3.21,0,0,0,9.8,5.682a.594.594,0,0,1,.454.045,4.686,4.686,0,0,1,1.271.637c.263.189.276.055.306-.191A1.725,1.725,0,0,0,11.4,4.92c-.08.181.046.3.1.428.129.246.322.632.119.866-.107.115-.313-.1-.457-.188a14.893,14.893,0,0,0-1.659-.668,3.563,3.563,0,0,0-2.28-.347c.1-.179.32-.072.282-.269s-.217-.134-.416-.166c.453-.153.342-.632.579-.909s.42-.568.667-.817c1.014-1.084,2.356-.042,2.745,1.1A1.934,1.934,0,0,0,8.911,2.271c-.4.125-.392.092-.381-.382A1.456,1.456,0,0,0,8.182.726C8.136.552,7.994.489,7.872.4,6.817-.247,5.581.381,4.464.108,4.43.1,4.383.136,4.312.162c.228.3.123.9.6.932.41.033.55.338.635.715.139.619.266,1.242.454,1.844a.826.826,0,0,1,.058.482c-.343-.524-.5-1.278-1.008-1.68A6.022,6.022,0,0,1,5.82,4.146C5.312,3.528,4.68,3.608,4.1,3.54c.023.035.085.084.078.122-.016.088-.087.046-.135.036-.376-.077-.765.049-1.141-.036.294.166.676.04.89.246a3.132,3.132,0,0,1-2.726.839A1.239,1.239,0,0,1,.2,3.635a6.705,6.705,0,0,1,.048-.682M4.169,4.2c.3-.032.561-.284.861-.194a1.1,1.1,0,0,1,.829.721c-.629-.055-1.105-.5-1.69-.528M4.729.745c.243-.065.416-.005.476.3C4.868.99,4.868.99,4.729.745M6.212,4.211a5.325,5.325,0,0,0-.223-1.029,1.128,1.128,0,0,1,.223,1.029m.314,2.968c-.123-.064.018-.232-.079-.3.11-.331-.082-.638-.026-.974a1.608,1.608,0,0,1,.1,1.278m.117-3.187c-.036-.2-.064-.408-.29-.439-.074-.01-.087-.064-.106-.117a14.139,14.139,0,0,1-.512-1.347A3.291,3.291,0,0,0,5.005.447,3.248,3.248,0,0,1,8.186.741a1.737,1.737,0,0,1-.523,2.376c-.285.182-.391.507-.673.73.076-.273.251-.475.207-.74L7.063,3.4M6.66,4.61A8.432,8.432,0,0,1,8.234,2.72,5.209,5.209,0,0,1,6.66,4.61m1.088.483a2.17,2.17,0,0,1,1.864.7,4.42,4.42,0,0,0-1.864-.7" transform="translate(0 0)" fill="#2b2b2b"/>
          </g>
        </g>
        <g id="Group_119" data-name="Group 119" transform="translate(279.361 58.465)">
          <g id="Group_117-2" data-name="Group 117" transform="translate(0 0)" clip-path="url(#clip-path-4)">
            <path id="Path_1040-2" data-name="Path 1040" d="M.382,2.516c.2-.491.369-.383.692-.751a7.577,7.577,0,0,1,1.565-.6,3.149,3.149,0,0,1,2.126.9A.185.185,0,0,0,4.7,1.909a2.727,2.727,0,0,0-3.632-.27A1.983,1.983,0,0,0,.245,4.3a.981.981,0,0,0,.733.5c1.21.227,2.39-.518,3.6-.435a.915.915,0,0,1,.821.478c-.42-.194-.746-.453-1.165-.186a1.36,1.36,0,0,1,1.2.37c-.1.095-.254-.122-.294.089-.032.167.14.276.141.468,0,.113.159-.126.226-.023a2.382,2.382,0,0,1-.45.954c.192-.053.3-.335.478-.25s.2-.015.252-.132c.044-.092.085-.186.144-.314.071.191-.044.36.052.5a.438.438,0,0,1,.061-.141c.052-.048-.059-.2.148-.176.151.021.139.074.152.175.023.175.05.348.076.522,0,0,0,0,0,0A5.273,5.273,0,0,1,5.852,8.7c-.207.106-.573.484-.7.548A2.84,2.84,0,0,1,2.89,9.2,2.623,2.623,0,0,1,1.6,6.8c.034-.662.64-1.148.942-1.715-2.851,1.93.77,6.554,3.331,3.687l0-.006c.026-.032.053-.06.078-.093H5.946A6.17,6.17,0,0,0,6.7,6.939,20.085,20.085,0,0,1,7.316,9a1.388,1.388,0,0,0,.434.818,1.509,1.509,0,0,0,1.536,0L9.3,9.809a3.843,3.843,0,0,0,.806-.631,2.677,2.677,0,0,0,.357-1.884c-.1.337-.091.684-.183,1.033A4.92,4.92,0,0,1,9.457,9.6,1.213,1.213,0,0,1,9,9.8a1.678,1.678,0,0,1-.2.048,1.043,1.043,0,0,1-1.321-.8A7.739,7.739,0,0,1,6.94,6.476c.011-.1-.142-.175.063-.313.229-.153.205.08.3.114.026.008.049.04.075-.007C7.34,6.185,7.3,6.1,7.25,6.006c.115-.012.146.155.265.06,0-.213-.244-.222-.292-.4.114-.012.158.093.239.122.1.037.238.186.312.01a.263.263,0,0,0-.186-.355c-.1-.029-.229,0-.316-.147l.511.107c-.12-.126-.2-.23.054-.285a1.012,1.012,0,0,1,.5.008,3,3,0,0,1,2.073,1.62,3.037,3.037,0,0,0-.58-1.267.609.609,0,0,1,.458.038,4.626,4.626,0,0,1,1.277.611c.263.183.278.05.312-.193A1.638,1.638,0,0,0,11.466,4.7c-.083.18.042.294.1.421.127.242.316.621.107.854-.11.115-.315-.1-.46-.18a14.838,14.838,0,0,0-1.669-.636,3.638,3.638,0,0,0-2.3-.31c.1-.178.324-.076.29-.27s-.218-.129-.419-.158c.46-.158.356-.63.6-.906s.434-.568.687-.817c1.042-1.086,2.385-.076,2.761,1.051A1.885,1.885,0,0,0,8.984,2.117c-.407.129-.4.1-.38-.372A1.385,1.385,0,0,0,8.269.6C8.225.429,8.082.369,7.96.287,6.9-.342,5.642.3,4.515.043,4.482.034,4.434.071,4.361.1c.226.3.112.889.592.913.415.027.551.326.632.7.132.61.251,1.223.432,1.816A.791.791,0,0,1,6.068,4c-.34-.513-.49-1.256-1-1.647a5.7,5.7,0,0,1,.755,1.661c-.5-.6-1.146-.515-1.731-.574.023.034.085.082.077.12-.017.087-.089.047-.137.038-.38-.07-.775.059-1.154-.019.3.16.684.029.9.23a3.292,3.292,0,0,1-2.771.869A1.185,1.185,0,0,1,.15,3.59a6.521,6.521,0,0,1,.058-.674M4.157,4.093c.3-.036.572-.288.874-.2a1.062,1.062,0,0,1,.828.7c-.636-.046-1.111-.474-1.7-.5M4.775.669C5.022.6,5.2.657,5.252.959c-.34-.05-.34-.05-.477-.29m1.45,3.4a5.067,5.067,0,0,0-.211-1.014,1.077,1.077,0,0,1,.211,1.014M6.5,7c-.124-.061.022-.23-.075-.3.116-.329-.073-.629-.012-.963A1.545,1.545,0,0,1,6.5,7m.166-3.152c-.034-.2-.059-.4-.287-.43-.075-.009-.088-.062-.105-.114a13.377,13.377,0,0,1-.5-1.324A3.116,3.116,0,0,0,5.059.37,3.33,3.33,0,0,1,8.273.615,1.721,1.721,0,0,1,7.709,2.97c-.291.184-.4.507-.692.731.081-.271.261-.473.22-.734L7.1,3.258m-.426,1.2a8.75,8.75,0,0,1,1.621-1.89,5.406,5.406,0,0,1-1.621,1.89m1.094.461a2.168,2.168,0,0,1,1.876.665,4.416,4.416,0,0,0-1.876-.665" transform="translate(0 0)" fill="#2b2b2b"/>
          </g>
        </g>
      </g>
      <text id="To_build_a_close-knit_community_where_needs_can_be_fulfilled_within_our_island_home._" data-name="To build a close-knit community where
needs can be fulfilled within our island
home. " transform="translate(0 148.473)" fill="#2b2b2b" font-size="14" font-family="BaskervilleURW-Reg, Baskerville URW"><tspan x="0" y="0">To build a close-knit community where</tspan><tspan x="0" y="20">needs can be fulfilled within our island</tspan><tspan x="0" y="40">home. </tspan></text>
      <text id="Kuaina_Vision" data-name="Kuaina Vision" transform="translate(0 116.651)" fill="#2b2b2b" font-size="15" font-family="FONTSPRINGDEMO-TheSeasonsBold, FONTSPRING DEMO - The Seasons" font-weight="700"><tspan x="0" y="0">Kuaina Vision</tspan></text>
      <text id="Change_the_focus_to_real_people._Rely_on_people_in_our_community_instead_of_big_corporations._" data-name="Change the focus to real people. Rely 
on people in our community instead of 
big corporations. " transform="translate(0 279.77)" fill="#2b2b2b" font-size="13" font-family="BaskervilleURW-Reg, Baskerville URW"><tspan x="0" y="0">Change the focus to real people. Rely </tspan><tspan x="0" y="19">on people in our community instead of </tspan><tspan x="0" y="38">big corporations. </tspan></text>
      <text id="Kuaina_Mission" data-name="Kuaina Mission" transform="translate(0 247.947)" fill="#2b2b2b" font-size="15" font-family="FONTSPRINGDEMO-TheSeasonsBold, FONTSPRING DEMO - The Seasons" font-weight="700"><tspan x="0" y="0">Kuaina Mission</tspan></text>
      <g id="Group_142" data-name="Group 142" transform="translate(0 344.275)">
        <g id="Group_644" data-name="Group 644" transform="translate(-6.439 -13.216)">
          <text id="Mrs._Zamora" data-name="Mrs. Zamora" transform="translate(6 87)" fill="#2b2b2b" font-size="81" font-family="LindseySignature, Lindsey Signature"><tspan x="0" y="0">Mrs. Zamora</tspan></text>
          <text id="Creator_Entrepreneur" data-name="Creator | Entrepreneur" transform="translate(236.942 100.539)" fill="#2b2b2b" font-size="5" font-family="BaskervilleURW-Reg, Baskerville URW"><tspan x="0" y="0">Creator | Entrepreneur</tspan></text>
          <text id="Mother_" data-name="Mother |" transform="translate(216.646 100.539)" fill="#2b2b2b" font-size="5" font-family="BaskervilleURW-Reg, Baskerville URW"><tspan x="0" y="0">Mother |</tspan></text>
        </g>
      </g>
    </g>
  </g>
</svg>
