<svg xmlns="http://www.w3.org/2000/svg" width="275.023" height="275.065" viewBox="0 0 275.023 275.065">
  <g id="Group_911" data-name="Group 911" transform="translate(0)">
    <g id="Group_43" data-name="Group 43" transform="translate(0 0)">
      <g id="Group_37" data-name="Group 37" transform="translate(86.65 63.969)">
        <path id="Path_73" data-name="Path 73" d="M917.808,139.891c5.708-1.456,7.364-5.18,7.364-18.455v-85.8c0-11.333-2.393-12.952-7.364-14.894V18.957l20.067-7.771,1.657,1.133v94.547l32.033-27.037c11.967-10.361,13.256-16.027,9.205-17.646V61.05H1002.5v2.1c-5.524,1.457-11.6,3.076-22.461,12.141L966.779,86.628l21.54,34.16c7.18,11.332,12.887,18.779,21.172,19.265V142H997.525c-9.022,0-15.1-4.857-24.118-19.428l-16.752-27.36-17.122,14.57v11.657c0,13.275,1.657,17,7.364,18.455V142H917.808Z" transform="translate(-917.808 -11.186)" fill="#f4f4f4"/>
        <path id="Path_74" data-name="Path 74" d="M1045.427,170.242c0-4.695,4.419-8.579,9.574-8.579s9.389,3.885,9.389,8.579-4.235,8.743-9.389,8.743-9.574-4.047-9.574-8.743" transform="translate(-948.217 -47.041)" fill="#f4f4f4"/>
      </g>
      <g id="Group_35" data-name="Group 35" transform="translate(0 0)">
        <path id="Path_112" data-name="Path 112" d="M1542.375,909.973l2.044-2.143c.662-.73,1.3-1.487,1.945-2.228,1.29-1.495,2.607-2.963,3.8-4.539a18.747,18.747,0,0,0,3.169-5.665,21.407,21.407,0,0,0,.813-3.081c.1-.518.172-1.036.224-1.554s.047-1.059.047-1.584l-.072-3.4-.053-1.675c-.013-.554-.033-1.106-.086-1.672q-.248-3.367-.576-6.594l-1.005,1.742q.218,1.639.416,3.319l.186,1.685.119,1.672a.943.943,0,0,1-.827,1,.85.85,0,0,1-.946-.8l-.165-2.182c-.034-.362-.053-.717-.1-1.081l-.133-1.093c-.245.425-.476.858-.754,1.266.377,3.419.76,7.019.833,10.575a.975.975,0,0,1-.867,1,.844.844,0,0,1-.919-.83c-.052-1.42-.113-2.822-.192-4.2s-.238-2.8-.378-4.168l-.892,1.4-.14.221a.23.23,0,0,1,.014.069c.106,1.086.119,2.129.158,3.208l.086,3.254a.936.936,0,0,1-.866.96.861.861,0,0,1-.894-.86c-.027-1.261-.066-2.509-.113-3.741a20.553,20.553,0,0,0-.794,1.965c-.231.665-.4,1.369-.609,2.037a20.716,20.716,0,0,0-.708,4.214c-.119,2.259-.409,4.447-.688,6.713-.145,1.126-.284,2.278-.463,3.411Zm-1.8-.172a123.021,123.021,0,0,0,1.806-13.4,24.239,24.239,0,0,1,.437-3.292c.113-.535.244-1.062.39-1.581s.324-1.024.483-1.547a20.956,20.956,0,0,1,1.217-3c.477-.97,1.065-1.877,1.634-2.814.953-1.51,1.951-3,2.877-4.522l2.673-4.646a1.737,1.737,0,0,1,3.268.588,120.5,120.5,0,0,1,.84,13.442c.007.58-.013,1.163-.053,1.747a13.717,13.717,0,0,1-.212,1.733,23.194,23.194,0,0,1-.906,3.384c-.2.557-.417,1.11-.648,1.658q-.179.411-.378.817c-.138.265-.284.524-.43.783a25.571,25.571,0,0,1-2.044,3.006c-1.2,1.594-2.541,3.083-3.843,4.6-.662.751-1.3,1.516-1.978,2.256l-2.065,2.17a1.915,1.915,0,0,1-2.156.5,1.69,1.69,0,0,1-.913-1.88" transform="translate(-1306.297 -678.798)" fill="#f4f4f4"/>
        <path id="Path_113" data-name="Path 113" d="M1556.317,892.773c2.2-3.275,4.333-6.6,6.252-10.054a18.736,18.736,0,0,0,2.21-6.1c.1-.527.185-1.054.237-1.579q.05-.4.08-.789c.006-.266.013-.535.006-.8a19.153,19.153,0,0,0-.258-3.152l-.575-3.328c-.224-1.107-.482-2.215-.728-3.3-.509-2.182-.973-4.292-1.634-6.414l-.358,1.055a.4.4,0,0,1,.046.126c.14.466.252.928.358,1.388l.324,1.394.628,2.831c.193.95.424,1.926.582,2.88l.476,2.9a.984.984,0,0,1-.734,1.1.847.847,0,0,1-1.012-.72q-.366-2.307-.767-4.547c-.317-1.513-.661-3.008-1-4.475l-.747,1.889c.007.022.02.042.027.066a117.357,117.357,0,0,1,2.487,14.9.989.989,0,0,1-.774,1.086.838.838,0,0,1-.979-.769q-.368-3.229-.794-6.331c-.331-2.087-.741-4.159-1.137-6.17l-.669,1.48-.191.447a1.324,1.324,0,0,1,.052.168l.384,1.973.186,1,.145.986q.3,1.978.563,4.011a.95.95,0,0,1-.761,1.057.857.857,0,0,1-.985-.755c-.225-1.7-.47-3.377-.722-5.023a24.027,24.027,0,0,0-.655,7.941,122.113,122.113,0,0,1,.436,13.633m-1.819.107c.113-2.269.047-4.588,0-6.836-.033-1.128-.059-2.236-.119-3.347l-.258-3.343a22.858,22.858,0,0,1-.053-3.3,26.435,26.435,0,0,1,.311-3.25,21.025,21.025,0,0,1,.773-3.132,22.672,22.672,0,0,1,1.119-3.06l1.1-2.44c.351-.819.662-1.659.992-2.487.642-1.665,1.356-3.306,1.886-5.013a1.767,1.767,0,0,1,1.686-1.192,1.711,1.711,0,0,1,1.641,1.248l.913,3.213c.271,1.073.516,2.151.767,3.247.484,2.184,1.006,4.441,1.337,6.679a22.5,22.5,0,0,1,.284,3.469c0,.586-.02,1.176-.067,1.761-.066.578-.159,1.157-.271,1.735a23.871,23.871,0,0,1-.927,3.445,15.582,15.582,0,0,1-.674,1.681q-.4.82-.854,1.616c-1.937,3.5-4.094,6.867-6.324,10.183a1.962,1.962,0,0,1-2.077.821,1.665,1.665,0,0,1-1.191-1.7" transform="translate(-1306.453 -678.583)" fill="#f4f4f4"/>
        <path id="Path_114" data-name="Path 114" d="M1559.941,879.81l-.113-.813-.145-.824a.843.843,0,0,0-1.025-.7.91.91,0,0,0-.609.483.945.945,0,0,0-.113.6l.231,1.62a.832.832,0,0,0,1.006.717.994.994,0,0,0,.767-1.087" transform="translate(-1306.498 -678.837)" fill="#f4f4f4"/>
        <path id="Path_115" data-name="Path 115" d="M1567.314,873.495l1.217-2.7.609-1.349c.212-.448.41-.9.583-1.362l2.17-5.51a22.574,22.574,0,0,0,1.2-6.383,19.908,19.908,0,0,0-.973-6.249c-.338-1.069-.741-2.142-1.152-3.2l-1.217-3.134c-.781-2.056-1.74-4.093-2.666-6.067l-.358,1.977.754,1.5c.245.5.464,1,.7,1.51q.674,1.52,1.349,3.081a.94.94,0,0,1-.443,1.216.86.86,0,0,1-1.158-.455q-.873-2.04-1.78-4.007l-.33,1.436,1.131,2.38c.378.8.754,1.614,1.078,2.422.668,1.621,1.336,3.277,1.985,4.967a.975.975,0,0,1-.476,1.229.851.851,0,0,1-1.145-.5c-1.044-2.674-2.076-5.251-3.2-7.759-.113.544-.292,1.07-.437,1.605l-.066.25a.243.243,0,0,1,.034.06c.787,1.966,1.6,4,2.322,6.057a.947.947,0,0,1-.556,1.172.853.853,0,0,1-1.119-.529l-.6-1.755c-.219-.584-.45-1.169-.674-1.747a29.13,29.13,0,0,0-.093,4.228,22.929,22.929,0,0,0,.715,4.237q.774,3.216,1.475,6.583c.132.565.225,1.12.317,1.677l.279,1.685Zm-1.747.413q-.527-3.448-1.111-6.749c-.424-2.216-.96-4.416-1.462-6.546a25.287,25.287,0,0,1,.059-12.917c.119-.43.251-.856.364-1.289l.3-1.306.6-2.609.3-1.3.145-.652.119-.66.47-2.637a1.789,1.789,0,0,1,1.494-1.447,1.7,1.7,0,0,1,1.813.965l1.39,3.018c.45,1.018.939,2.057,1.323,3.089q1.231,3.109,2.415,6.378a22.264,22.264,0,0,1,1.072,6.88,24.194,24.194,0,0,1-1.323,7.058l-2.2,5.582c-.172.469-.377.925-.589,1.379l-.615,1.368-1.237,2.733a1.86,1.86,0,0,1-1.878,1.159,1.657,1.657,0,0,1-1.449-1.49" transform="translate(-1306.548 -678.355)" fill="#f4f4f4"/>
        <path id="Path_116" data-name="Path 116" d="M1575.018,852.749l.808-2.849c.258-.952.456-1.921.688-2.88l.661-2.885c.106-.482.231-.96.324-1.445l.258-1.457a23.738,23.738,0,0,0,.351-3.261c.013-.543.013-1.083-.007-1.62s-.106-1.076-.185-1.607a19.651,19.651,0,0,0-1.932-6q-1.667-3.019-3.354-5.875l-.416-.712-.457-.708-.913-1.4-1.826-2.744-.026,1.113a.691.691,0,0,1,.08.1l1.568,2.428c.258.409.522.822.774,1.235l.721,1.249q1.429,2.511,2.864,5.144a.952.952,0,0,1-.364,1.271.841.841,0,0,1-1.184-.358c-.331-.687-.72-1.374-1.1-2.053l-1.138-2.018c-.767-1.332-1.5-2.637-2.3-3.922,0,.678-.093,1.35-.132,2.026.013.019.034.035.04.054q.953,1.572,1.906,3.194l.952,1.635c.312.549.583,1.1.881,1.653q.863,1.667,1.726,3.382c.569,1.143,1.171,2.309,1.66,3.476a1,1,0,0,1-.43,1.271.832.832,0,0,1-1.164-.415c-.443-.979-.846-1.94-1.33-2.9l-1.455-2.845c-.972-1.874-1.912-3.694-3.017-5.484l-.119,1.619c-.006.163-.033.323-.046.485a.643.643,0,0,1,.1.141c.635,1.153,1.263,2.325,1.9,3.516l.939,1.8c.318.607.636,1.217.906,1.827a.958.958,0,0,1-.417,1.237.847.847,0,0,1-1.17-.4c-.364-.769-.7-1.525-1.1-2.282l-1.191-2.249a24.109,24.109,0,0,0,1.938,7.74l.681,1.544.622,1.552,1.211,3.161c.4,1.064.821,2.152,1.178,3.235Zm-1.673.687-1.045-3.27-.529-1.606c-.185-.534-.4-1.07-.6-1.6-.813-2.125-1.6-4.191-2.474-6.217a22.6,22.6,0,0,1-1.826-6.286,21.265,21.265,0,0,1-.186-6.475l.4-5.345c.093-.89.073-1.786.105-2.68l.066-2.681a1.816,1.816,0,0,1,1.257-1.668c.734-.236.145-1.1.575-.463a49.11,49.11,0,0,1,5.014,6.723c1.159,1.916,2.25,3.883,3.375,5.905a20.834,20.834,0,0,1,1.991,13.789l-.264,1.477c-.087.491-.218.975-.324,1.464l-.675,2.923c-.231.972-.43,1.953-.695,2.918l-.821,2.886a1.911,1.911,0,0,1-1.673,1.448,1.686,1.686,0,0,1-1.68-1.24" transform="translate(-1306.598 -678.114)" fill="#f4f4f4"/>
        <path id="Path_117" data-name="Path 117" d="M1574.252,839.34l-.761-1.47a.844.844,0,0,0-1.2-.333.948.948,0,0,0-.437.648.9.9,0,0,0,.093.61l.761,1.466a.842.842,0,0,0,1.19.358.985.985,0,0,0,.351-1.279" transform="translate(-1306.659 -678.374)" fill="#f4f4f4"/>
        <path id="Path_118" data-name="Path 118" d="M1464.98,950.993c1.944-.355,3.89-.674,5.828-1.062l5.769-1.333a21.569,21.569,0,0,0,5.934-2.616,11.242,11.242,0,0,0,1.3-.938c.41-.337.813-.689,1.2-1.053a19.638,19.638,0,0,0,2.1-2.338l1.025-1.345.972-1.4,1.9-2.783.912-1.381c.3-.457.609-.911.894-1.4l1.686-2.846-1.826.828c-.271.486-.536.985-.814,1.466l-.86,1.418c-.575.948-1.171,1.9-1.773,2.863a.941.941,0,0,1-1.25.323.856.856,0,0,1-.278-1.21q1.182-1.885,2.3-3.74l-1.37.54-1.322,2.28c-.225.379-.45.772-.688,1.141l-.708,1.1c-.96,1.474-1.945,2.96-2.971,4.458a.95.95,0,0,1-1.29.282.837.837,0,0,1-.231-1.214c1.621-2.349,3.149-4.7,4.591-7.017-.523.187-1.046.357-1.574.536l-.238.088c-.013.02-.02.042-.033.06l-1.8,2.674c-.615.891-1.231,1.816-1.885,2.659a.953.953,0,0,1-1.284.207.851.851,0,0,1-.192-1.222c.741-1,1.482-1.964,2.17-3.016-.3.172-.608.354-.912.541s-.6.352-.9.54a19.89,19.89,0,0,0-1.727,1.226q-.833.661-1.608,1.412c-.516.5-1,1.048-1.482,1.564q-2.222,2.455-4.6,4.949c-1.594,1.6-3.255,3.158-4.968,4.753m-1.323-1.209q2.55-2.378,4.942-4.731c.8-.761,1.568-1.631,2.328-2.443l2.243-2.461c.371-.414.755-.81,1.145-1.188s.788-.784,1.2-1.147a21.466,21.466,0,0,1,2.566-2c.45-.3.906-.577,1.376-.838s.926-.547,1.41-.791a20.871,20.871,0,0,1,3-1.277l1.263-.428c.423-.144.833-.322,1.25-.481l2.487-.984c.828-.337,1.675-.63,2.481-1l2.441-1.105a1.791,1.791,0,0,1,2.037.414,1.708,1.708,0,0,1,.232,2.044l-1.707,2.851-.88,1.437c-.3.482-.616.927-.921,1.394-1.25,1.841-2.54,3.737-3.9,5.59a22.28,22.28,0,0,1-5.068,4.78,24.11,24.11,0,0,1-6.569,2.878l-5.847,1.348c-1.958.393-3.93.717-5.9,1.075a1.86,1.86,0,0,1-2.017-.9,1.655,1.655,0,0,1,.41-2.035" transform="translate(-1305.401 -679.43)" fill="#f4f4f4"/>
        <path id="Path_119" data-name="Path 119" d="M1486.463,945.619l2.805-.95.7-.237.688-.27,1.376-.542,2.752-1.086,1.377-.543,1.349-.608a22.85,22.85,0,0,0,2.884-1.558c.457-.292.906-.6,1.336-.918a16.106,16.106,0,0,0,1.224-1.058,19.287,19.287,0,0,0,3.857-4.993q1.548-3.075,2.957-6.07c.9-2.057,1.741-4.113,2.547-6.122l-.939.6a.8.8,0,0,1-.033.129l-1.124,2.649c-.391.884-.768,1.8-1.2,2.649q-1.26,2.6-2.626,5.257a.948.948,0,0,1-1.25.429.834.834,0,0,1-.37-1.178c.733-1.36,1.415-2.779,2.089-4.145l.992-2.053.483-1.021.45-1.054-.853.547-.881.506c-.013.021-.013.042-.026.063-.5,1.114-1.026,2.236-1.555,3.367s-1.078,2.286-1.68,3.371q-.884,1.654-1.813,3.333c-.622,1.117-1.25,2.264-1.931,3.332a1,1,0,0,1-1.29.366.834.834,0,0,1-.318-1.2c.563-.92,1.125-1.8,1.641-2.738l1.535-2.8,1.462-2.768c.238-.452.47-.923.688-1.4l.661-1.417-1.4.809c-.146.08-.278.17-.424.244a.7.7,0,0,1-.059.161q-.893,1.76-1.833,3.549l-.953,1.795c-.317.6-.647,1.206-1,1.776a.953.953,0,0,1-1.25.358.848.848,0,0,1-.331-1.192c.424-.737.854-1.446,1.257-2.2l1.184-2.253q-.774.626-1.489,1.331c-.469.478-.946.916-1.389,1.415a21.3,21.3,0,0,0-2.415,3.223c-.292.475-.582.967-.887,1.433l-.933,1.385-1.918,2.793c-1.29,1.909-2.686,3.68-4.128,5.5m-1.508-.991,2.1-2.713c.688-.9,1.376-1.776,2.018-2.729,1.29-1.872,2.541-3.712,3.731-5.552a22.4,22.4,0,0,1,4.148-5.067,21.8,21.8,0,0,1,5.233-3.81l4.644-2.67c1.515-.944,3-1.925,4.511-2.881a1.828,1.828,0,0,1,2.071.069,1.756,1.756,0,0,1,.569,2c-.8,2.034-1.668,4.072-2.56,6.153-.444,1.056-.946,2.039-1.436,3.059l-1.528,3.063a20.805,20.805,0,0,1-10.247,9.438l-1.362.616-1.4.55-2.791,1.1-1.4.549-.695.272-.715.242-2.838.962a1.907,1.907,0,0,1-2.137-.561,1.693,1.693,0,0,1,.073-2.091" transform="translate(-1305.65 -679.317)" fill="#f4f4f4"/>
        <path id="Path_120" data-name="Path 120" d="M1497.4,937.4l.781-1.461a.839.839,0,0,0-.4-1.172.939.939,0,0,0-.781,0,.962.962,0,0,0-.456.421l-.774,1.459a.841.841,0,0,0,.376,1.182.983.983,0,0,0,1.251-.432" transform="translate(-1305.779 -679.499)" fill="#f4f4f4"/>
        <path id="Path_121" data-name="Path 121" d="M1506.869,936.845l1.317-.675c.437-.236.86-.488,1.29-.732l2.567-1.474,1.277-.738.642-.37.629-.4,2.487-1.6a19.4,19.4,0,0,0,2.614-1.973,21.989,21.989,0,0,0,2.182-2.392,20.678,20.678,0,0,0,1.773-2.636,19.581,19.581,0,0,0,1.224-2.92l1.039-3.221.244-.8.225-.818.437-1.631.827-3.22.385-1.589.337-1.625c-.489.461-.959.935-1.482,1.362-.43,2.15-.913,4.339-1.429,6.563a.951.951,0,0,1-1.111.673.848.848,0,0,1-.642-1.056c.39-1.391.681-2.863.985-4.278l-1.112.966c-.086.431-.165.868-.251,1.3l-.3,1.269-.616,2.564c-.43,1.71-.853,3.493-1.4,5.177a.975.975,0,0,1-1.145.659.84.84,0,0,1-.608-1.078l.6-2.017.291-1.005.258-1.028q.516-2.053.98-4.063l-1.31,1.028-.2.164c-.007.023-.007.046-.014.068-.271,1.032-.529,2.1-.84,3.125l-.972,3.089a.94.94,0,0,1-1.132.621.855.855,0,0,1-.575-1.1c.383-1.2.747-2.38,1.1-3.553a19.658,19.658,0,0,0-2.614,3.331c-.192.3-.371.614-.555.92s-.358.606-.53.917c-.337.623-.649,1.267-.926,1.932l-1.329,3.1c-.443,1.048-.953,2.024-1.449,3.05l-1.534,3.068c-.265.512-.522,1.037-.8,1.543Zm-1.653-.748c.562-1,1.125-1.985,1.653-2.987l1.522-3.06,1.455-3.021c.476-.995.894-2.057,1.323-3.071a27.724,27.724,0,0,1,3.282-5.67,20.48,20.48,0,0,1,2.13-2.427c.391-.371.781-.741,1.178-1.114s.813-.722,1.243-1.061c1.4-1.108,2.831-2.177,4.154-3.378l2.03-1.754,1.012-.877.966-.924a1.757,1.757,0,0,1,2.044-.272,1.716,1.716,0,0,1,.873,1.874c-.225,1.078-.437,2.185-.695,3.263l-.834,3.23-.9,3.283c-.318,1.094-.682,2.153-1.032,3.244a19.182,19.182,0,0,1-3.289,6.135,24.493,24.493,0,0,1-2.414,2.628,13.447,13.447,0,0,1-1.39,1.156c-.489.362-.986.709-1.5,1.039l-2.527,1.616-.629.4-.648.375-1.3.748-2.6,1.493c-.43.247-.86.5-1.3.741l-1.336.684a1.934,1.934,0,0,1-2.209-.23,1.666,1.666,0,0,1-.265-2.066" transform="translate(-1305.886 -679.17)" fill="#f4f4f4"/>
        <path id="Path_122" data-name="Path 122" d="M1525.549,924.951l4.651-3.658,4.472-3.873a12.177,12.177,0,0,0,1.171-1.156c.371-.4.721-.82,1.059-1.247a22.639,22.639,0,0,0,1.813-2.673,11.3,11.3,0,0,0,.707-1.433q.318-.738.576-1.491a19.193,19.193,0,0,0,.781-3.046l.271-1.668.219-1.693.383-3.342c.272-2.184.384-4.431.5-6.607l-.688.874a.879.879,0,0,1,0,.135c-.059.953-.125,1.922-.2,2.885l-.331,2.863-.377,2.908-.2,1.471-.252,1.443a.983.983,0,0,1-1.058.795.845.845,0,0,1-.728-1l.391-2.274c.126-.751.211-1.537.312-2.3.185-1.529.364-3.039.516-4.529l-1.33,1.534a.231.231,0,0,1,0,.069c-.112,1.226-.244,2.464-.383,3.716-.165,1.23-.357,2.452-.555,3.7s-.41,2.5-.635,3.766c-.252,1.242-.53,2.481-.807,3.739a1,1,0,0,1-1.1.769.842.842,0,0,1-.681-1.038l.681-3.129.317-1.546c.1-.519.179-1.051.265-1.573.337-2.1.661-4.147.919-6.184-.357.405-.74.787-1.111,1.181l-.331.359a1.711,1.711,0,0,1-.006.174q-.268,1.966-.582,3.979c-.053.333-.1.674-.159,1l-.192.985-.4,1.986a.954.954,0,0,1-1.065.749.854.854,0,0,1-.7-1.028c.332-1.682.675-3.308.933-4.973a23.674,23.674,0,0,0-1.886,3.493q-.4.919-.7,1.886c-.205.648-.383,1.3-.555,1.947-.543,2.139-1.118,4.319-1.747,6.526q-1.021,3.213-2.176,6.526m-1.747-.465c.788-2.165,1.482-4.36,2.164-6.488.165-.538.337-1.056.489-1.6l.437-1.634.833-3.228a27.224,27.224,0,0,1,2.329-6.122c.258-.472.536-.934.827-1.384s.569-.918.887-1.357a20.81,20.81,0,0,1,2.058-2.523l.926-.969.873-1.012,1.759-2.025c1.2-1.324,2.276-2.75,3.381-4.152a1.8,1.8,0,0,1,2-.577,1.707,1.707,0,0,1,1.151,1.705l-.192,3.311c-.079,1.111-.14,2.255-.277,3.35-.251,2.211-.523,4.479-.86,6.759a22.342,22.342,0,0,1-2.263,6.584,24.4,24.4,0,0,1-2,2.939q-.556.706-1.171,1.379a14.206,14.206,0,0,1-1.3,1.284l-4.532,3.923-4.71,3.7a1.9,1.9,0,0,1-2.223.127,1.656,1.656,0,0,1-.582-1.989" transform="translate(-1306.102 -678.997)" fill="#f4f4f4"/>
        <path id="Path_123" data-name="Path 123" d="M1533.219,913.784l.265-1.647a.84.84,0,0,0-.748-.986.92.92,0,0,0-.733.258.952.952,0,0,0-.292.549c-.086.541-.159,1.105-.271,1.633a.838.838,0,0,0,.729,1,.953.953,0,0,0,1.051-.805" transform="translate(-1306.192 -679.227)" fill="#f4f4f4"/>
        <path id="Path_124" data-name="Path 124" d="M1378.71,937.15l2.632,1.349c.88.445,1.747.915,2.653,1.3,1.8.808,3.592,1.639,5.4,2.424a22.337,22.337,0,0,0,6.311,1.5,20.333,20.333,0,0,0,6.285-.68,118.625,118.625,0,0,0,12.615-4.46l-1.951-.451c-2.044.946-4.1,1.717-6.218,2.515a.945.945,0,0,1-1.191-.5.861.861,0,0,1,.509-1.132q2.074-.782,4.082-1.582l-1.416-.4c-1.6.67-3.242,1.371-4.9,1.988q-2.47.89-5.047,1.745a.968.968,0,0,1-1.2-.54.842.842,0,0,1,.542-1.115q2.034-.679,4.009-1.381l1.951-.707.967-.358.972-.4-.8-.226-.786-.267-.244-.078c-.026.009-.041.021-.066.029-2,.7-4.056,1.386-6.153,2.042a.949.949,0,0,1-1.145-.612.851.851,0,0,1,.582-1.092c.6-.176,1.184-.327,1.78-.526l1.779-.591c-.7-.108-1.415-.151-2.11-.208a20.211,20.211,0,0,0-2.11-.071,21.467,21.467,0,0,0-4.267.518c-2.163.42-4.373.8-6.634,1.165-1.139.2-2.25.307-3.387.442Zm-.331-1.767q3.464-.352,6.781-.783c2.243-.349,4.452-.753,6.609-1.16,1.078-.19,2.19-.385,3.282-.471a21.621,21.621,0,0,1,3.248-.033c1.059.092,2.143.178,3.209.362a20.72,20.72,0,0,1,3.148.8c3.414,1.042,6.841,2.033,10.334,2.777a1.807,1.807,0,0,1,1.376,1.565,1.7,1.7,0,0,1-1.052,1.767c-2.018.818-4.1,1.668-6.219,2.43-2.1.715-4.267,1.415-6.476,2.1a21.521,21.521,0,0,1-6.919.75,12.464,12.464,0,0,1-1.76-.193c-.588-.1-1.17-.215-1.759-.356a25.825,25.825,0,0,1-3.46-1.1c-1.833-.794-3.646-1.636-5.471-2.454-.92-.395-1.8-.871-2.685-1.322l-2.673-1.367a1.877,1.877,0,0,1-1.072-1.924,1.692,1.692,0,0,1,1.562-1.391" transform="translate(-1304.404 -679.478)" fill="#f4f4f4"/>
        <path id="Path_125" data-name="Path 125" d="M1399.049,945.808l2.805.945,2.844.811,2.851.807.708.2.722.168,1.442.333a19.072,19.072,0,0,0,12.556-1.2q3.085-1.517,6.013-3.054c1.958-1.107,3.871-2.239,5.723-3.361l-1.112-.084a.726.726,0,0,1-.106.078L1431,942.89c-.84.47-1.693.983-2.547,1.4q-2.569,1.309-5.265,2.6a.941.941,0,0,1-1.25-.394.834.834,0,0,1,.41-1.165c1.408-.672,2.8-1.369,4.167-2.058l2.024-1.038c.337-.176.668-.34,1-.527l1-.571-1.011-.076-1.006-.126c-.02.012-.04.028-.059.038q-1.607.873-3.275,1.742l-1.673.866-.847.433-.846.391q-1.7.783-3.454,1.558l-1.766.772c-.589.255-1.191.522-1.78.74a1.006,1.006,0,0,1-1.25-.492.834.834,0,0,1,.47-1.146c1.985-.73,3.956-1.658,5.867-2.519l2.832-1.319c.932-.462,1.865-.965,2.779-1.448l-1.608-.2-.483-.052a1.064,1.064,0,0,1-.152.1c-2.355,1.154-4.79,2.3-7.3,3.413a.964.964,0,0,1-1.217-.477.851.851,0,0,1,.456-1.151c1.555-.61,3.116-1.382,4.631-2.09q-.992.031-1.985.16-.5.065-.992.154c-.324.045-.655.095-.979.155a21,21,0,0,0-3.857,1.1c-2.1.856-4.2,1.526-6.364,2.231q-1.628.523-3.288,1.034Zm-.6-1.706a119.632,119.632,0,0,0,12.886-4.054,23.693,23.693,0,0,1,6.358-1.541,21.155,21.155,0,0,1,3.235-.179c.543.012,1.078.045,1.614.1l1.621.192,5.312.675,5.346.415a1.808,1.808,0,0,1,1.012.415,1.735,1.735,0,0,1-.159,2.833q-2.789,1.684-5.749,3.362c-.986.578-1.978,1.066-2.99,1.579l-3.063,1.521a19.23,19.23,0,0,1-6.7,1.86c-.588.061-1.185.1-1.78.121-.3.007-.595.018-.892.007s-.6-.036-.894-.061a25.8,25.8,0,0,1-3.592-.569l-1.456-.338-.733-.171-.722-.2-2.884-.817-2.877-.822-2.845-.958a1.912,1.912,0,0,1-1.363-1.744,1.678,1.678,0,0,1,1.317-1.622" transform="translate(-1304.639 -679.541)" fill="#f4f4f4"/>
        <path id="Path_126" data-name="Path 126" d="M1412.9,945.673l1.5-.689a.845.845,0,0,0,.389-1.174.969.969,0,0,0-.629-.474.957.957,0,0,0-.615.062l-1.5.69a.843.843,0,0,0-.415,1.168.99.99,0,0,0,1.262.417" transform="translate(-1304.806 -679.599)" fill="#f4f4f4"/>
        <path id="Path_127" data-name="Path 127" d="M1420.593,951.088c.49.082.967.185,1.456.248l1.469.187,2.937.373,1.469.186.734.091.734.056,2.95.225a21.862,21.862,0,0,0,3.268.01,22.1,22.1,0,0,0,3.182-.6,20.817,20.817,0,0,0,3-1.045c.238-.106.476-.215.708-.329s.469-.255.694-.39c.464-.268.906-.552,1.336-.855l2.766-1.964c.906-.662,1.806-1.286,2.686-2.009q2.64-2.1,5.114-4.188l-2,.151c-.819.734-1.66,1.471-2.507,2.208l-1.29,1.107c-.43.37-.867.7-1.31,1.05a.946.946,0,0,1-1.29-.126.855.855,0,0,1,.126-1.23c1.151-.909,2.275-1.8,3.373-2.789-.489.033-.979.086-1.475.1q-1.956,1.683-4.023,3.373l-2.09,1.689c-.7.539-1.416,1.058-2.144,1.588a.976.976,0,0,1-1.31-.16.841.841,0,0,1,.165-1.228c1.145-.839,2.263-1.661,3.361-2.516q1.647-1.339,3.228-2.675l-1.661.043-.258.011c-.02.016-.033.033-.052.048l-1.27,1.011c-.423.334-.854.636-1.284.955l-2.639,1.889a.937.937,0,0,1-1.277-.182.858.858,0,0,1,.2-1.225c1.026-.726,2.037-1.455,3.023-2.181a20.4,20.4,0,0,0-4.095,1.1c-.661.272-1.323.505-1.965.8a20.742,20.742,0,0,0-1.9.984l-2.925,1.677c-.5.288-.991.547-1.495.8l-1.5.764-3.077,1.519-1.568.755c-.522.25-1.045.462-1.575.692m-.873-1.6,1.568-.683c.523-.227,1.039-.45,1.555-.712l3.056-1.521,2.977-1.531c.979-.513,1.958-1.106,2.911-1.657a23.053,23.053,0,0,1,2.963-1.466c.5-.21,1.005-.38,1.521-.565s1.026-.363,1.548-.514a20.867,20.867,0,0,1,3.162-.663c.537-.072,1.073-.113,1.615-.151.542-.056,1.085-.092,1.634-.106l2.678-.068c.893-.034,1.786-.013,2.68-.1l5.338-.405a1.738,1.738,0,0,1,1.356,3.032c-.82.763-1.674,1.433-2.527,2.137l-2.613,2.1c-1.766,1.442-3.6,2.712-5.478,4.029a22.621,22.621,0,0,1-3.017,1.763,21.516,21.516,0,0,1-3.3,1.148,24.8,24.8,0,0,1-3.506.653,21.956,21.956,0,0,1-3.631,0l-2.984-.229-.747-.058-.74-.091-1.489-.188-2.97-.378-1.489-.19c-.5-.063-.985-.168-1.476-.25a1.947,1.947,0,0,1-1.627-1.523,1.667,1.667,0,0,1,1.032-1.8" transform="translate(-1304.888 -679.553)" fill="#f4f4f4"/>
        <path id="Path_128" data-name="Path 128" d="M1442.631,952.825l5.915-.142c.489-.02.985-.012,1.474-.052l1.476-.111,2.95-.224a18.538,18.538,0,0,0,6.278-1.609,17.892,17.892,0,0,0,2.8-1.505,20.087,20.087,0,0,0,2.454-2l2.422-2.357.595-.589.575-.62,1.152-1.237,2.236-2.46,1.084-1.222c.358-.416.7-.853,1.053-1.278l-1.073.3a.92.92,0,0,1-.072.113c-2.528,2.785-5.187,5.71-8.078,8.351a.971.971,0,0,1-1.317.016.85.85,0,0,1,.02-1.243c1.132-1.073,2.243-2.142,3.321-3.205.542-.517,1.065-1.107,1.587-1.66l1.548-1.677-1.978.457-.04.056c-.827.945-1.687,1.808-2.553,2.688s-1.766,1.764-2.673,2.651c-.45.44-.906.9-1.37,1.326L1461,946.851q-1.419,1.258-2.891,2.525a1,1,0,0,1-1.336-.031.847.847,0,0,1,.08-1.242q2.461-2.122,4.783-4.23l.575-.526.568-.556,1.119-1.114,2.189-2.216-1.594.285-.484.1a.671.671,0,0,1-.106.135c-1.852,1.958-3.823,3.709-5.86,5.543a.946.946,0,0,1-1.3-.029.859.859,0,0,1,.066-1.24c1.276-1.149,2.526-2.293,3.737-3.432a24.108,24.108,0,0,0-6.92,3.937l-2.626,2.1-1.342,1.052c-.45.344-.906.658-1.363.99-1.838,1.308-3.724,2.627-5.67,3.926m-1.111-1.449c.483-.309.959-.6,1.435-.923l1.422-.982,2.779-1.965c.913-.665,1.813-1.285,2.693-1.987l2.613-2.1a23.168,23.168,0,0,1,2.693-1.9,27.148,27.148,0,0,1,2.857-1.576,20.873,20.873,0,0,1,3.024-1.132,27.709,27.709,0,0,1,3.155-.795c1.754-.316,3.52-.594,5.245-1.036l2.614-.6,1.3-.3c.429-.108.86-.241,1.29-.36a1.741,1.741,0,0,1,1.826,2.778c-.7.846-1.4,1.736-2.144,2.555l-2.249,2.463L1469.748,946c-.788.827-1.607,1.584-2.434,2.382a21.581,21.581,0,0,1-2.7,2.2,14.848,14.848,0,0,1-1.495.928c-.509.272-1.039.525-1.582.759a24.381,24.381,0,0,1-3.366,1.176,14.761,14.761,0,0,1-1.766.392c-.6.088-1.2.156-1.813.2l-2.984.227-1.495.112c-.5.041-1,.034-1.5.053l-5.987.143a1.969,1.969,0,0,1-1.845-1.259,1.656,1.656,0,0,1,.734-1.94" transform="translate(-1305.143 -679.51)" fill="#f4f4f4"/>
        <path id="Path_129" data-name="Path 129" d="M1455.707,948.425l.609-.552.595-.583a.841.841,0,0,0,0-1.24.916.916,0,0,0-.74-.229.947.947,0,0,0-.563.243l-1.2,1.1a.839.839,0,0,0-.027,1.239.991.991,0,0,0,1.329.021" transform="translate(-1305.298 -679.628)" fill="#f4f4f4"/>
        <path id="Path_130" data-name="Path 130" d="M1318.335,873.9c.206.449.4.9.616,1.344l.674,1.316,1.35,2.632c.86,1.774,1.892,3.458,2.865,5.172.271.476.563.943.867,1.4a11.874,11.874,0,0,0,.985,1.3,22.545,22.545,0,0,0,2.282,2.293,18.5,18.5,0,0,0,2.553,1.884,20,20,0,0,0,2.857,1.361l3.163,1.181c1.052.385,2.15.711,3.208,1.052l3.176.973c.529.154,1.039.318,1.575.457l1.607.406c-.43-.514-.893-1-1.3-1.531q-3.184-.8-6.482-1.736a.928.928,0,0,1-.628-1.134.851.851,0,0,1,1.084-.595l1.039.323,1.072.294,2.117.562-.906-1.157-1.283-.31c-.43-.107-.84-.23-1.264-.347l-2.527-.735-2.56-.778-1.29-.4-1.257-.444a.978.978,0,0,1-.6-1.174.84.84,0,0,1,1.105-.559c2.619.973,5.371,1.746,8,2.493l-.966-1.355-.152-.206c-.02-.005-.047-.007-.066-.014-1.026-.317-2.064-.635-3.09-.979l-3.036-1.112a.939.939,0,0,1-.562-1.162.848.848,0,0,1,1.119-.523q1.766.654,3.492,1.264a23.777,23.777,0,0,0-6.873-4.941c-2-.958-4.069-1.94-6.014-3.052l-2.99-1.677-1.5-.866c-.5-.3-.972-.606-1.462-.912m.827-1.621c.979.606,1.912,1.221,2.911,1.786l2.983,1.665,2.944,1.59c.992.509,2.011.987,3.011,1.463a23.308,23.308,0,0,1,2.877,1.616l1.343.924q.665.475,1.29.99a20.213,20.213,0,0,1,2.315,2.241c.351.409.721.807,1.066,1.223s.681.848,1,1.294l1.555,2.182c.251.368.523.721.8,1.068l.827,1.053,1.654,2.1c.278.349.542.71.833,1.048l.88,1.011a1.76,1.76,0,0,1,.172,2.056,1.723,1.723,0,0,1-1.911.786c-1.066-.272-2.15-.548-3.228-.841l-3.182-.985-3.235-1.048c-.55-.174-1.078-.371-1.6-.572l-1.594-.6a19.331,19.331,0,0,1-5.973-3.56,24.726,24.726,0,0,1-2.508-2.535q-.3-.344-.575-.7c-.185-.238-.357-.488-.523-.739-.337-.5-.661-1.019-.966-1.549-.985-1.736-2.024-3.442-2.9-5.239l-1.363-2.666-.681-1.334c-.225-.447-.417-.908-.629-1.361a1.957,1.957,0,0,1,.337-2.2,1.676,1.676,0,0,1,2.078-.166" transform="translate(-1303.708 -678.774)" fill="#f4f4f4"/>
        <path id="Path_131" data-name="Path 131" d="M1329.319,893.091c1.145,1.6,2.275,3.221,3.44,4.811l3.652,4.65a21.861,21.861,0,0,0,4.882,4.263,19.542,19.542,0,0,0,5.868,2.332c1.092.253,2.223.446,3.341.636l3.314.544c2.164.375,4.412.57,6.576.79l-.84-.728a.794.794,0,0,1-.139,0l-2.87-.338c-.946-.14-1.886-.3-2.845-.461l-2.884-.506c-.966-.174-1.945-.355-2.891-.583a.974.974,0,0,1-.741-1.091.839.839,0,0,1,1.032-.682l2.25.5c.761.148,1.528.276,2.289.408q2.272.391,4.491.73l-1.469-1.4c-.027,0-.047,0-.072,0-1.218-.174-2.441-.36-3.685-.557s-2.434-.469-3.672-.721-2.474-.526-3.73-.808-2.455-.637-3.7-.974a1,1,0,0,1-.714-1.129.836.836,0,0,1,1.065-.634,122.107,122.107,0,0,0,12.318,2.741c-.4-.364-.754-.773-1.132-1.159l-.344-.346a1.026,1.026,0,0,1-.172-.014c-2.593-.486-5.285-.992-7.879-1.69a.952.952,0,0,1-.7-1.1.852.852,0,0,1,1.059-.646l2.467.606c.814.2,1.621.394,2.461.547-.562-.367-1.1-.743-1.661-1.087a19.525,19.525,0,0,0-1.747-.952,24.469,24.469,0,0,0-3.771-1.422q-3.166-.962-6.43-2.051c-2.124-.769-4.247-1.6-6.417-2.467m.536-1.719c2.143.873,4.287,1.679,6.383,2.454,1.033.4,2.131.73,3.2,1.071l3.182.981a25.323,25.323,0,0,1,11.087,6.607c.311.32.609.652.926.965l.973.922,1.931,1.846c1.265,1.262,2.653,2.388,4,3.566a1.8,1.8,0,0,1,.476,2.024,1.7,1.7,0,0,1-1.753,1.071l-3.294-.348-1.667-.194-.84-.1-.828-.129q-3.294-.526-6.707-1.164a22.434,22.434,0,0,1-6.47-2.564,24.1,24.1,0,0,1-5.392-4.719l-3.7-4.708c-1.177-1.61-2.322-3.249-3.479-4.873a1.871,1.871,0,0,1-.034-2.218,1.649,1.649,0,0,1,2.011-.491" transform="translate(-1303.834 -678.996)" fill="#f4f4f4"/>
        <path id="Path_132" data-name="Path 132" d="M1340.487,901.277l1.634.342a.844.844,0,0,0,1.019-.7.962.962,0,0,0-.754-1.061l-1.628-.341a.835.835,0,0,0-1.032.68.961.961,0,0,0,.761,1.083" transform="translate(-1303.975 -679.092)" fill="#f4f4f4"/>
        <path id="Path_133" data-name="Path 133" d="M1343.292,910.3l2.044,2.138c.695.7,1.423,1.367,2.13,2.051,1.43,1.356,2.825,2.746,4.341,4.008a18.843,18.843,0,0,0,5.5,3.428,20.975,20.975,0,0,0,3.037.962c.509.119,1.026.219,1.535.3s1.059.1,1.581.122c2.3.068,4.518.143,6.741.116q3.375-.088,6.616-.263l-1.693-1.083c-1.1.091-2.21.176-3.328.253-.562.036-1.131.079-1.693.1l-1.674.042a.951.951,0,0,1-.96-.874.859.859,0,0,1,.847-.908l2.183-.063,1.084-.042,1.1-.08c-.416-.266-.833-.523-1.231-.817-3.427.213-7.039.424-10.591.326a.973.973,0,0,1-.953-.911.841.841,0,0,1,.874-.88c1.415.017,2.818.02,4.2.01.688,0,1.4-.035,2.1-.067l2.085-.109-1.356-.963-.213-.145c-.019,0-.045.008-.066.009-1.091.051-2.13.012-3.214.007l-3.248-.069a.942.942,0,0,1-.92-.91.861.861,0,0,1,.906-.853c1.257.033,2.508.054,3.738.066a19.362,19.362,0,0,0-1.925-.884c-.648-.267-1.343-.476-2-.709a21.027,21.027,0,0,0-4.174-.908c-2.249-.223-4.419-.62-6.668-1-1.112-.2-2.263-.39-3.381-.628Zm.265-1.789,3.341.76,1.647.358,1.688.3,3.321.551,1.641.255.813.122.833.094a23.839,23.839,0,0,1,6.344,1.613,20.923,20.923,0,0,1,2.938,1.36c.946.519,1.819,1.155,2.725,1.768,1.462,1.025,2.9,2.084,4.373,3.086l4.505,2.888a1.738,1.738,0,0,1-.747,3.238,120.127,120.127,0,0,1-13.455.194c-.577-.021-1.158-.065-1.741-.133a13.036,13.036,0,0,1-1.713-.3,22.911,22.911,0,0,1-3.334-1.066q-.825-.332-1.627-.728c-.265-.131-.537-.268-.795-.41s-.509-.311-.76-.473a25.726,25.726,0,0,1-2.9-2.179c-1.535-1.279-2.951-2.686-4.4-4.059-.714-.693-1.456-1.368-2.156-2.078l-2.064-2.166a1.915,1.915,0,0,1-.4-2.175,1.69,1.69,0,0,1,1.926-.822" transform="translate(-1303.995 -679.196)" fill="#f4f4f4"/>
        <path id="Path_134" data-name="Path 134" d="M1359.762,925.045c3.163,2.355,6.377,4.639,9.731,6.717a18.633,18.633,0,0,0,5.981,2.5c.516.125,1.038.229,1.561.314.258.042.523.079.781.111s.529.04.8.052a19.726,19.726,0,0,0,3.155-.112l3.348-.414c1.118-.17,2.236-.371,3.334-.565,2.2-.4,4.333-.77,6.476-1.325l-1.032-.406a1.254,1.254,0,0,1-.125.044l-.708.157-.7.13-1.4.254L1388.1,933c-.953.151-1.938.333-2.9.447l-2.918.331a.975.975,0,0,1-1.059-.785.847.847,0,0,1,.768-.977c1.548-.171,3.076-.354,4.571-.547,1.528-.246,3.036-.511,4.519-.781l-1.852-.835a.632.632,0,0,1-.06.02,117.313,117.313,0,0,1-15,1.771.99.99,0,0,1-1.046-.829.842.842,0,0,1,.814-.941q3.244-.207,6.356-.49c2.1-.227,4.188-.538,6.212-.835l-1.442-.739-.444-.213a.942.942,0,0,1-.165.043l-1.985.289-1.005.139-.992.1q-1.994.2-4.029.365a.946.946,0,0,1-1.018-.806.857.857,0,0,1,.8-.95q2.571-.218,5.048-.481a23.929,23.929,0,0,0-7.892-1.033,122.433,122.433,0,0,1-13.629-.214m-.013-1.822c2.256.217,4.572.269,6.82.322,1.125.023,2.236.046,3.348.047l3.347-.1a23.063,23.063,0,0,1,3.294.108,27.072,27.072,0,0,1,3.222.468,20.448,20.448,0,0,1,3.089.92,22.935,22.935,0,0,1,3,1.264l2.381,1.221c.8.392,1.621.74,2.435,1.113,1.628.724,3.235,1.509,4.909,2.124a1.76,1.76,0,0,1,1.105,1.742,1.721,1.721,0,0,1-1.323,1.582l-3.254.755c-1.085.221-2.171.408-3.275.607-2.2.379-4.486.79-6.729,1.012a21.8,21.8,0,0,1-3.479.116c-.582-.028-1.171-.074-1.753-.15-.575-.094-1.144-.211-1.72-.35a24.607,24.607,0,0,1-3.387-1.092,15.317,15.317,0,0,1-1.647-.754q-.793-.435-1.568-.929c-3.394-2.105-6.655-4.418-9.857-6.8a1.947,1.947,0,0,1-.715-2.107,1.664,1.664,0,0,1,1.76-1.109" transform="translate(-1304.186 -679.367)" fill="#f4f4f4"/>
        <path id="Path_135" data-name="Path 135" d="M1372.944,929.3c.543-.045,1.091-.1,1.647-.178a.848.848,0,0,0,.748-.991,1.006,1.006,0,0,0-1.052-.775l-1.628.155a.841.841,0,0,0-.767.972.992.992,0,0,0,1.052.817" transform="translate(-1304.347 -679.414)" fill="#f4f4f4"/>
        <path id="Path_136" data-name="Path 136" d="M1308.378,786.469c-.113.479-.231.959-.33,1.442l-.258,1.455-.523,2.912-.258,1.455-.132.728-.093.733-.371,2.933a21.8,21.8,0,0,0-.179,3.268,22.382,22.382,0,0,0,.443,3.208,20.392,20.392,0,0,0,.887,3.048,11.181,11.181,0,0,0,.656,1.442c.243.469.5.926.786,1.372l1.819,2.86c.615.941,1.2,1.868,1.873,2.781q1.963,2.741,3.921,5.322l-.044-2.007q-1.042-1.289-2.079-2.616c-.7-.887-1.4-1.785-2.031-2.7a.948.948,0,0,1,.193-1.281.853.853,0,0,1,1.225.185l1.269,1.771c.416.585.9,1.162,1.349,1.736-.013-.49-.033-.983-.033-1.475q-1.588-2.04-3.169-4.185l-1.581-2.172c-.509-.732-.985-1.471-1.482-2.219a.976.976,0,0,1,.231-1.3.842.842,0,0,1,1.218.224c.78,1.183,1.541,2.343,2.343,3.482.839,1.142,1.672,2.259,2.512,3.358l.041-1.664v-.258c-.014-.018-.034-.034-.047-.051l-.947-1.319c-.318-.441-.587-.886-.886-1.334l-1.761-2.726a.944.944,0,0,1,.252-1.267.852.852,0,0,1,1.21.266q1.013,1.588,2.025,3.126a20.042,20.042,0,0,0-.886-4.142c-.238-.681-.437-1.346-.7-2.007s-.557-1.311-.886-1.951l-1.528-3.006c-.266-.509-.5-1.016-.721-1.527l-.689-1.543-1.363-3.146-.675-1.6c-.211-.535-.4-1.069-.6-1.609m1.641-.79c.4,1.077.782,2.132,1.231,3.189l1.363,3.131,1.376,3.05c.457,1,1.005,2.006,1.508,2.989a23.172,23.172,0,0,1,1.317,3.029c.178.514.324,1.027.483,1.547s.31,1.046.436,1.573a21,21,0,0,1,.5,3.192c.046.537.053,1.074.073,1.618s.039,1.087.02,1.634l-.066,2.679c-.012.892-.072,1.785-.027,2.678l.139,5.357a1.742,1.742,0,0,1-3.1,1.2c-.72-.862-1.343-1.743-2-2.633L1311.3,817.2c-1.349-1.837-2.533-3.728-3.749-5.671a22.389,22.389,0,0,1-1.609-3.1,21.253,21.253,0,0,1-.979-3.352,24.13,24.13,0,0,1-.475-3.539,22.083,22.083,0,0,1,.185-3.623l.377-2.969.1-.743.132-.738.258-1.473.53-2.95.264-1.474c.1-.49.219-.974.332-1.462a1.949,1.949,0,0,1,1.6-1.546,1.677,1.677,0,0,1,1.754,1.125" transform="translate(-1303.568 -677.763)" fill="#f4f4f4"/>
        <path id="Path_137" data-name="Path 137" d="M1305.478,808.388l-.152,5.908c-.04.985-.007,1.97.02,2.954l.073,2.954a18.573,18.573,0,0,0,1.29,6.351,18.331,18.331,0,0,0,1.356,2.869,19.782,19.782,0,0,0,1.879,2.55c1.495,1.719,2.944,3.389,4.551,4.981l2.349,2.357c.774.772,1.542,1.533,2.382,2.266l-.252-1.083a1.233,1.233,0,0,1-.1-.084q-2-2-4.036-4.111l-1.012-1.065c-.337-.358-.642-.724-.966-1.088l-1.919-2.225a.976.976,0,0,1,.047-1.317.854.854,0,0,1,1.243.086q1.518,1.778,3.037,3.478c.49.568,1.039,1.121,1.567,1.67l1.6,1.629-.357-2a.293.293,0,0,1-.053-.044c-.906-.871-1.713-1.773-2.553-2.69s-1.673-1.848-2.514-2.8c-.41-.476-.847-.953-1.25-1.438l-1.184-1.472q-1.182-1.486-2.375-3.02a.99.99,0,0,1,.1-1.331.846.846,0,0,1,1.238.146q1.994,2.565,3.982,4.985c.635.807,1.383,1.594,2.071,2.374l2.1,2.3-.2-1.608-.072-.482a.862.862,0,0,1-.133-.116c-1.866-1.951-3.506-4.005-5.24-6.131a.95.95,0,0,1,.1-1.295.85.85,0,0,1,1.229.13q1.628,2,3.242,3.908a24.049,24.049,0,0,0-3.579-7.113l-1.965-2.727-.986-1.394c-.324-.468-.615-.939-.926-1.413q-1.816-2.845-3.638-5.853m1.508-1.04c.285.5.543.991.853,1.483l.906,1.467,1.827,2.871.912,1.406c.3.465.6.927.933,1.387l1.965,2.711a23.032,23.032,0,0,1,1.759,2.786,27.743,27.743,0,0,1,1.429,2.933,21,21,0,0,1,.979,3.074c.106.525.251,1.05.364,1.581s.2,1.068.265,1.611c.238,1.767.41,3.546.767,5.3l.47,2.634c.152.878.3,1.758.523,2.623a1.755,1.755,0,0,1-.814,1.892,1.73,1.73,0,0,1-2.058-.209l-1.231-1.121c-.416-.377-.826-.757-1.2-1.148l-2.349-2.371-2.361-2.451c-.774-.833-1.495-1.687-2.249-2.55a19.2,19.2,0,0,1-3.586-5.964,24.531,24.531,0,0,1-1.005-3.419,15.974,15.974,0,0,1-.3-1.783c-.052-.6-.093-1.209-.106-1.821l-.079-2.991c-.02-1-.06-1.995-.014-2.992l.152-5.983a1.972,1.972,0,0,1,1.35-1.78,1.657,1.657,0,0,1,1.9.829" transform="translate(-1303.557 -678.016)" fill="#f4f4f4"/>
        <path id="Path_138" data-name="Path 138" d="M1309.413,821.67l.516.635.556.628a.843.843,0,0,0,1.237.061.917.917,0,0,0,.265-.729.93.93,0,0,0-.213-.573l-1.038-1.259a.839.839,0,0,0-1.238-.086.988.988,0,0,0-.086,1.324" transform="translate(-1303.623 -678.174)" fill="#f4f4f4"/>
        <path id="Path_139" data-name="Path 139" d="M1306.136,830.55l.747,5.866,1.039,5.824q.078.406.159.807c.073.265.151.529.231.791.159.523.337,1.039.53,1.546a21.276,21.276,0,0,0,1.382,2.921,15.225,15.225,0,0,0,1.839,2.6,19.618,19.618,0,0,0,2.237,2.223c1.686,1.473,3.533,2.843,5.305,4.175q1.34,1,2.666,1.956l2.76,1.833-.735-1.865c-.973-.577-1.844-1.205-2.778-1.827s-1.846-1.266-2.772-1.92a.94.94,0,0,1-.264-1.264.861.861,0,0,1,1.224-.213q1.827,1.277,3.625,2.485l-.47-1.395-2.217-1.439c-.747-.485-1.429-1-2.151-1.514q-2.141-1.545-4.306-3.2a.947.947,0,0,1-.2-1.3.837.837,0,0,1,1.225-.168c.535.443,1.111.871,1.679,1.293l1.708,1.253q1.7,1.237,3.373,2.408l-.449-1.6-.081-.247c-.019-.012-.038-.021-.058-.035l-2.58-1.933-1.3-1-1.238-1.031a.947.947,0,0,1-.145-1.288.854.854,0,0,1,1.23-.13l1.436,1.183c.468.391.946.777,1.448,1.15-.331-.631-.609-1.266-.966-1.874a20.207,20.207,0,0,0-1.138-1.783c-.41-.577-.86-1.137-1.331-1.676-.238-.271-.489-.536-.734-.8s-.482-.521-.735-.774q-2.34-2.341-4.716-4.842-2.223-2.524-4.478-5.208m1.277-1.262c1.488,1.781,2.99,3.507,4.472,5.18.377.416.727.834,1.131,1.241l1.177,1.214,2.348,2.367a27.633,27.633,0,0,1,4.062,5.129q.417.694.775,1.413c.232.485.463.97.7,1.457a20.622,20.622,0,0,1,1.13,3.05l.365,1.287.178.642.218.634.86,2.533.854,2.534.984,2.489a1.781,1.781,0,0,1-.516,2.006,1.715,1.715,0,0,1-2.058.123,119.55,119.55,0,0,1-10.854-7.987,21.27,21.27,0,0,1-4.5-5.31,23.414,23.414,0,0,1-1.508-3.223c-.217-.561-.416-1.132-.588-1.713-.093-.29-.173-.582-.251-.877s-.127-.6-.18-.9l-1.051-5.9-.761-5.943a1.98,1.98,0,0,1,.2-1.179,1.8,1.8,0,0,1,.82-.79,1.639,1.639,0,0,1,2,.517" transform="translate(-1303.567 -678.273)" fill="#f4f4f4"/>
        <path id="Path_140" data-name="Path 140" d="M1310.312,852.267c1.019,3.812,2.3,7.549,3.639,11.255a23.319,23.319,0,0,0,1.408,2.956q.406.706.853,1.377c.152.223.3.443.464.659s.337.42.509.625a20.309,20.309,0,0,0,4.783,4.116q2.988,1.705,5.921,3.26c.96.529,2,1,2.99,1.475l2.984,1.388-.55-.964a.662.662,0,0,1-.126-.045l-2.6-1.254c-.43-.214-.874-.426-1.3-.65l-1.263-.688q-2.531-1.391-5.127-2.891a.981.981,0,0,1-.344-1.276.84.84,0,0,1,1.2-.311l.979.606,1.019.577,2.024,1.128c1.349.734,2.652,1.468,4.008,2.142-.344-.581-.628-1.2-.946-1.8-.02-.009-.04-.015-.059-.025a117.762,117.762,0,0,1-13.013-7.67,1,1,0,0,1-.3-1.3.833.833,0,0,1,1.211-.254l2.639,1.786c.9.572,1.819,1.125,2.719,1.67l2.7,1.6c.45.26.88.524,1.342.773l1.383.732c-.244-.483-.5-.958-.728-1.447l-.211-.44a1.009,1.009,0,0,1-.159-.069q-1.717-.976-3.453-2.005c-1.164-.687-2.349-1.386-3.454-2.14a.955.955,0,0,1-.3-1.268.852.852,0,0,1,1.211-.27l2.116,1.378c.715.448,1.462.872,2.19,1.3-.391-.536-.82-1.05-1.257-1.551-.417-.509-.86-1-1.323-1.471a21.348,21.348,0,0,0-3.109-2.569,122.51,122.51,0,0,1-10.671-8.443m1.066-1.453c1.753,1.519,3.453,3,5.213,4.4q2.709,2.083,5.358,4.012a23.481,23.481,0,0,1,4.842,4.4c.331.419.681.832,1.012,1.26s.648.868.939,1.319a20.3,20.3,0,0,1,1.561,2.85l2.435,4.767c.384.8.86,1.56,1.3,2.337l1.337,2.321a1.821,1.821,0,0,1-.2,2.071,1.714,1.714,0,0,1-2.011.455q-2.967-1.367-6.02-2.871c-1.985-1.032-3.943-2.137-5.954-3.278a16.508,16.508,0,0,1-2.824-2.02,23.584,23.584,0,0,1-2.468-2.5,16.039,16.039,0,0,1-1.091-1.408q-.486-.74-.933-1.522a25.385,25.385,0,0,1-1.561-3.281c-1.363-3.754-2.653-7.54-3.685-11.4a1.894,1.894,0,0,1,.668-2.1,1.692,1.692,0,0,1,2.084.182" transform="translate(-1303.615 -678.524)" fill="#f4f4f4"/>
        <path id="Path_141" data-name="Path 141" d="M1318.23,863.633l1.415.855a.846.846,0,0,0,1.2-.336.965.965,0,0,0-.364-1.252l-1.422-.851a.839.839,0,0,0-1.2.313.977.977,0,0,0,.371,1.272" transform="translate(-1303.722 -678.658)" fill="#f4f4f4"/>
        <path id="Path_142" data-name="Path 142" d="M1353.008,711.382l-2.236,1.935-.555.485-.536.509-1.072,1.019-2.136,2.039c-.351.343-.715.675-1.065,1.025l-1.019,1.069a22.776,22.776,0,0,0-2.084,2.523c-.317.441-.609.892-.893,1.349-.258.475-.5.957-.722,1.445a20.958,20.958,0,0,0-1.111,2.987,15.154,15.154,0,0,0-.582,3.086c-.186,2.284-.351,4.52-.457,6.727q-.08,3.378-.059,6.623l1.164-1.634c-.073-2.2-.152-4.483-.059-6.706a.941.941,0,0,1,.912-.912.854.854,0,0,1,.867.888l-.039,2.188c-.014.727-.034,1.436,0,2.176.271-.405.582-.79.886-1.174-.027-1.727-.04-3.481-.021-5.265l.014-1.342.059-1.321.152-2.672a.976.976,0,0,1,.953-.908.84.84,0,0,1,.833.917c-.165,2.841-.312,5.584-.251,8.382l1.025-1.307.153-.208c0-.023-.007-.045-.007-.068.08-2.126.232-4.258.39-6.45a.938.938,0,0,1,.953-.869.851.851,0,0,1,.807.944q-.138,1.889-.244,3.736a19.825,19.825,0,0,0,.972-1.879q.218-.483.416-.982c.139-.32.278-.644.4-.974a20.923,20.923,0,0,0,1.1-4.128l.278-1.666.344-1.632.722-3.306.383-1.674.2-.841.224-.82Zm1.766.347-.919,3.305c-.3,1.1-.6,2.165-.828,3.288-.489,2.221-.958,4.386-1.356,6.547a22.976,22.976,0,0,1-1.931,6.252,21.517,21.517,0,0,1-1.5,2.869q-.425.685-.912,1.338c-.317.434-.668.854-.992,1.291l-3.307,4.21-3.1,4.36a1.79,1.79,0,0,1-1.926.719,1.746,1.746,0,0,1-1.277-1.638c-.052-2.2.007-4.395.054-6.661.02-.561.026-1.136.053-1.7l.119-1.679.265-3.405a19.41,19.41,0,0,1,1.833-6.706,20.9,20.9,0,0,1,4.095-5.881l1.031-1.082c.351-.355.715-.692,1.079-1.038l2.163-2.066,1.085-1.033.542-.515.562-.491,2.263-1.961a1.907,1.907,0,0,1,2.19-.287,1.694,1.694,0,0,1,.721,1.962" transform="translate(-1303.94 -676.896)" fill="#f4f4f4"/>
        <path id="Path_143" data-name="Path 143" d="M1337.5,727.083c-.323.375-.647.742-.965,1.123l-.912,1.16-1.827,2.324c-1.249,1.525-2.348,3.161-3.5,4.76-.317.448-.622.906-.906,1.372a11.694,11.694,0,0,0-.767,1.439,23.427,23.427,0,0,0-1.132,3.029,18.781,18.781,0,0,0-.641,3.109,20.23,20.23,0,0,0-.046,3.162l.252,3.369c.086,1.11.251,2.247.384,3.35l.443,3.289c.08.544.152,1.077.245,1.62l.3,1.628.456-1.012a.89.89,0,0,1-.033-.131c-.529-3.729-1.045-7.643-1.217-11.554a.963.963,0,0,1,.833-1.017.851.851,0,0,1,.939.815q.14,2.332.318,4.6c.146,1.524.357,3.054.542,4.545l.926-1.805a.25.25,0,0,1-.013-.067c-.086-.611-.185-1.236-.251-1.846l-.172-1.838q-.169-1.85-.318-3.745c-.047-.63-.106-1.273-.133-1.9l-.059-1.89q-.049-1.9-.079-3.842a.993.993,0,0,1,.88-1,.843.843,0,0,1,.9.863q.051,3.25.179,6.38c.027,1.032.145,2.105.225,3.143l.291,3.1.807-1.406.238-.427a.749.749,0,0,1-.039-.171c-.3-2.676-.377-5.307-.483-8.047a.949.949,0,0,1,.853-.977.855.855,0,0,1,.906.848q.089,2.577.238,5.072a20.924,20.924,0,0,0,1.032-3.838c.053-.33.1-.663.139-1s.1-.655.132-.986c.073-.662.113-1.331.126-2.006.032-2.219.059-4.508.258-6.741l.271-3.413.159-1.731c.065-.571.145-1.135.217-1.707m1.82.073c-.145,1.143-.3,2.251-.4,3.392l-.265,3.4-.218,3.339c-.046,1.115-.052,2.243-.066,3.347a23.281,23.281,0,0,1-.271,3.287l-.278,1.606q-.15.8-.358,1.586a20.4,20.4,0,0,1-1.071,3.042c-.225.485-.43.989-.661,1.479s-.489.973-.761,1.446l-1.329,2.318c-.231.383-.437.778-.636,1.177l-.608,1.19-1.224,2.38c-.2.4-.41.79-.6,1.192l-.549,1.22a1.755,1.755,0,0,1-1.793,1.017,1.731,1.731,0,0,1-1.514-1.407c-.2-1.082-.4-2.181-.589-3.283l-.437-3.3-.4-3.375c-.073-.572-.113-1.133-.152-1.694l-.12-1.7a19.447,19.447,0,0,1,.741-6.916,20.554,20.554,0,0,1,3.109-6.455c1.164-1.621,2.276-3.278,3.546-4.822l1.846-2.355.926-1.175c.317-.385.648-.757.973-1.136a1.943,1.943,0,0,1,2.137-.614,1.675,1.675,0,0,1,1.025,1.814" transform="translate(-1303.805 -677.077)" fill="#f4f4f4"/>
        <path id="Path_144" data-name="Path 144" d="M1332.739,740.023c.026.552.033,1.088.079,1.646a.848.848,0,0,0,.953.8,1,1,0,0,0,.668-.412.913.913,0,0,0,.172-.586l-.073-1.636a.837.837,0,0,0-.932-.813.989.989,0,0,0-.867,1.006" transform="translate(-1303.895 -677.237)" fill="#f4f4f4"/>
        <path id="Path_145" data-name="Path 145" d="M1324.672,745.129c-.979,1.712-1.984,3.409-2.937,5.134l-2.692,5.263a21.9,21.9,0,0,0-1.826,6.219,19.5,19.5,0,0,0,.344,6.307c.126.552.238,1.1.377,1.646l.444,1.648.906,3.238.463,1.589.231.788.272.794,1.084,3.122.543-1.929-.6-1.567-.529-1.57q-.526-1.578-1.046-3.2a.949.949,0,0,1,.562-1.164.859.859,0,0,1,1.105.568c.45,1.41.913,2.8,1.376,4.16l.469-1.395-.887-2.478-.436-1.258-.39-1.253q-.764-2.518-1.489-5.137a.955.955,0,0,1,.609-1.168.84.84,0,0,1,1.078.6c.767,2.76,1.554,5.429,2.414,8.03.179-.524.4-1.032.6-1.548l.092-.242c-.006-.022-.02-.042-.026-.064l-.88-3.094-.43-1.575-.212-.795-.185-.787a.95.95,0,0,1,.668-1.109.848.848,0,0,1,1.059.639l.423,1.8c.139.6.331,1.206.49,1.8.066-.346.126-.695.179-1.046s.12-.691.159-1.04a20.183,20.183,0,0,0,.178-2.1,23.961,23.961,0,0,0-.29-4.28q-.446-3.275-.828-6.7c-.192-2.248-.317-4.524-.437-6.857m1.78-.233c.113,2.314.265,4.6.443,6.821.066,1.1.232,2.245.365,3.352l.436,3.3a25.319,25.319,0,0,1-1.342,12.827l-.49,1.242-.43,1.267-.853,2.532-.43,1.266-.219.633-.179.643-.734,2.573a1.781,1.781,0,0,1-1.627,1.287,1.712,1.712,0,0,1-1.713-1.141l-1.078-3.136c-.351-1.058-.722-2.135-1.006-3.2-.608-2.141-1.21-4.339-1.766-6.579a22.561,22.561,0,0,1-.391-6.947,24.084,24.084,0,0,1,2.031-6.874l2.732-5.331c.96-1.747,1.978-3.467,2.964-5.2a1.874,1.874,0,0,1,2-.956,1.642,1.642,0,0,1,1.29,1.621" transform="translate(-1303.693 -677.285)" fill="#f4f4f4"/>
        <path id="Path_146" data-name="Path 146" d="M1314.948,764.964l-1.085,2.752c-.364.915-.641,1.861-.973,2.79l-.946,2.8c-.152.469-.324.931-.463,1.4l-.41,1.422a23.286,23.286,0,0,0-.668,3.205c-.073.537-.126,1.075-.159,1.609s0,1.081.027,1.616a19.257,19.257,0,0,0,1.329,6.161q1.36,3.164,2.752,6.168c.966,2.009,2.024,3.978,3.043,5.885l.138-1.1c-.02-.036-.046-.071-.072-.112l-1.31-2.564-.655-1.3c-.211-.437-.4-.873-.6-1.313q-1.171-2.636-2.336-5.393a.947.947,0,0,1,.483-1.228.836.836,0,0,1,1.138.473c.258.716.595,1.439.892,2.15l.933,2.117.933,2.079c.31.687.615,1.365.979,2.046.066-.673.206-1.335.324-2-.013-.019-.027-.037-.04-.058q-.793-1.653-1.574-3.358c-.523-1.137-1.052-2.293-1.495-3.45q-.7-1.739-1.383-3.531c-.45-1.193-.933-2.411-1.31-3.62a1,1,0,0,1,.555-1.221.834.834,0,0,1,1.118.529c.344,1.019.648,2.013,1.039,3.017l1.158,2.972,1.177,2.9.292.714.33.716.662,1.418.283-1.6c.027-.161.053-.321.086-.479a1.044,1.044,0,0,1-.086-.15q-.774-1.81-1.534-3.68l-.761-1.884c-.251-.635-.509-1.273-.715-1.907a.95.95,0,0,1,.536-1.187.849.849,0,0,1,1.125.514c.285.8.543,1.584.867,2.377l.966,2.353a24.341,24.341,0,0,0-1.164-7.881l-.529-1.6-.457-1.6-.894-3.263-.443-1.66c-.145-.557-.291-1.118-.4-1.67Zm1.733-.514.715,3.355.37,1.649c.119.546.284,1.1.423,1.649.6,2.194,1.184,4.327,1.845,6.425a22.5,22.5,0,0,1,1.2,6.429,21.615,21.615,0,0,1-.457,6.449l-.939,5.266c-.087.437-.139.881-.192,1.323l-.172,1.326-.337,2.655a1.833,1.833,0,0,1-1.4,1.532,1.714,1.714,0,0,1-1.879-.85q-1.548-2.879-3.069-5.918c-.265-.508-.5-1.014-.721-1.523l-.688-1.54-1.362-3.138c-.231-.536-.437-1.081-.622-1.637s-.3-1.11-.424-1.676a23.267,23.267,0,0,1-.457-3.477c-.033-.59-.04-1.185-.026-1.781a14.574,14.574,0,0,1,.165-1.779,25.011,25.011,0,0,1,.747-3.552l.41-1.44c.139-.478.311-.947.469-1.421l.96-2.838c.331-.942.615-1.9.985-2.827l1.1-2.787a1.91,1.91,0,0,1,1.806-1.271,1.693,1.693,0,0,1,1.555,1.4" transform="translate(-1303.614 -677.514)" fill="#f4f4f4"/>
        <path id="Path_147" data-name="Path 147" d="M1314.482,778.8l.609,1.537a.839.839,0,0,0,1.151.451.947.947,0,0,0,.51-.6.986.986,0,0,0-.034-.616l-.615-1.532a.841.841,0,0,0-1.145-.475.982.982,0,0,0-.476,1.237" transform="translate(-1303.683 -677.681)" fill="#f4f4f4"/>
        <path id="Path_148" data-name="Path 148" d="M1433.673,678.46l-2.951.223-1.469.112c-.5.035-.985.074-1.476.144l-5.861.746a21.777,21.777,0,0,0-6.159,2.013,11.241,11.241,0,0,0-1.383.8c-.443.295-.88.605-1.3.929a19.271,19.271,0,0,0-2.322,2.115l-1.151,1.237c-.37.422-.741.864-1.1,1.293l-2.157,2.583c-.708.866-1.409,1.689-2.078,2.579l-1.958,2.664,1.9-.643c.317-.455.629-.934.953-1.373l.992-1.326c.668-.887,1.349-1.777,2.051-2.672a.938.938,0,0,1,1.276-.2.863.863,0,0,1,.152,1.233q-1.36,1.757-2.653,3.494l1.416-.4c2-2.9,4.214-5.585,6.543-8.369a.949.949,0,0,1,1.309-.153.844.844,0,0,1,.113,1.231c-1.846,2.177-3.6,4.369-5.26,6.523l1.614-.374.251-.062a.267.267,0,0,1,.04-.057l2.051-2.481c.695-.824,1.4-1.686,2.137-2.458a.943.943,0,0,1,1.29-.078.853.853,0,0,1,.073,1.235c-.84.917-1.667,1.806-2.454,2.784.324-.141.641-.291.959-.448q.476-.21.953-.447c.622-.315,1.236-.665,1.833-1.047a23.907,23.907,0,0,0,3.366-2.657q2.442-2.22,5.055-4.461c1.74-1.453,3.546-2.82,5.4-4.237m1.2,1.334Q1432.1,681.9,1429.5,684c-.436.341-.866.717-1.29,1.09l-1.27,1.116-2.467,2.224c-.41.375-.833.73-1.257,1.068s-.86.7-1.3,1.027a22.047,22.047,0,0,1-2.752,1.733q-.714.377-1.449.7c-.489.208-.979.452-1.482.647a20.734,20.734,0,0,1-3.1.974l-1.3.3c-.437.1-.86.237-1.29.354l-2.573.73c-.854.252-1.72.468-2.567.746l-2.527.859a1.791,1.791,0,0,1-1.985-.613,1.709,1.709,0,0,1-.026-2.059l1.978-2.668,1.012-1.344c.344-.439.7-.858,1.059-1.29,1.422-1.707,2.89-3.469,4.425-5.172a22.291,22.291,0,0,1,5.51-4.252,24.351,24.351,0,0,1,6.814-2.212l5.941-.754c.489-.071.985-.112,1.489-.145l1.487-.116,2.984-.226a1.874,1.874,0,0,1,1.918,1.083,1.692,1.692,0,0,1-.609,2" transform="translate(-1304.678 -676.516)" fill="#f4f4f4"/>
        <path id="Path_149" data-name="Path 149" d="M1411.839,681.616c-1.918.448-3.85.856-5.735,1.432l-2.839.808-1.422.405c-.476.144-.939.311-1.4.466a23.025,23.025,0,0,0-3.023,1.265,15.773,15.773,0,0,0-2.739,1.706,19.723,19.723,0,0,0-4.326,4.58q-1.836,2.911-3.533,5.755c-1.105,1.936-2.13,3.919-3.129,5.836l.985-.505a.882.882,0,0,1,.053-.125l1.376-2.527.709-1.275c.237-.423.489-.821.74-1.235q1.507-2.463,3.129-4.977a.948.948,0,0,1,1.283-.294.838.838,0,0,1,.251,1.21c-.443.621-.853,1.291-1.27,1.947l-1.217,1.964L1388.547,700c-.39.644-.774,1.282-1.138,1.963.595-.322,1.216-.587,1.832-.866a.251.251,0,0,0,.026-.063c.616-1.059,1.238-2.125,1.886-3.2l.973-1.616c.33-.535.681-1.04,1.025-1.565q1.042-1.56,2.13-3.14l1.1-1.584c.371-.531.761-1.018,1.151-1.532a1,1,0,0,1,1.317-.238.833.833,0,0,1,.192,1.225c-.641.856-1.284,1.687-1.9,2.554l-1.793,2.639c-1.17,1.757-2.315,3.45-3.354,5.275l1.475-.668c.146-.07.3-.127.451-.192a1.184,1.184,0,0,1,.072-.154q1.061-1.664,2.169-3.353l1.125-1.693.569-.847.595-.814a.958.958,0,0,1,1.283-.231.851.851,0,0,1,.213,1.22c-.5.687-.992,1.361-1.476,2.051l-1.4,2.128a19.578,19.578,0,0,0,1.607-1.179c.523-.413,1.039-.813,1.528-1.263a20.968,20.968,0,0,0,2.713-2.97c.668-.912,1.37-1.761,2.084-2.618l2.183-2.589c1.476-1.772,3.043-3.388,4.651-5.064m1.4,1.137-2.361,2.489c-.774.835-1.542,1.628-2.27,2.513q-2.212,2.6-4.26,5.149a22.542,22.542,0,0,1-4.618,4.634,21.778,21.778,0,0,1-5.582,3.26l-4.869,2.2c-.41.175-.808.383-1.2.588l-1.191.61-2.382,1.218a1.779,1.779,0,0,1-1.077.173,1.741,1.741,0,0,1-1.343-2.5q1.508-2.9,3.149-5.869c.271-.5.556-.982.846-1.456l.88-1.438,1.82-2.9a20.831,20.831,0,0,1,11.12-8.367c.471-.156.94-.325,1.417-.472l1.442-.41,2.877-.818c1.912-.583,3.87-1,5.815-1.451a1.9,1.9,0,0,1,2.064.77,1.692,1.692,0,0,1-.278,2.074" transform="translate(-1304.463 -676.553)" fill="#f4f4f4"/>
        <path id="Path_150" data-name="Path 150" d="M1400.471,688.992l-.919,1.378a.838.838,0,0,0,.277,1.206.943.943,0,0,0,.781.073.968.968,0,0,0,.489-.374l.913-1.376a.839.839,0,0,0-.252-1.213.982.982,0,0,0-1.29.305" transform="translate(-1304.666 -676.653)" fill="#f4f4f4"/>
        <path id="Path_151" data-name="Path 151" d="M1390.742,688.267c-1.852.685-3.624,1.554-5.424,2.352-.892.414-1.806.795-2.686,1.237l-2.626,1.346a21.977,21.977,0,0,0-2.8,1.7,22.214,22.214,0,0,0-2.4,2.169,20.923,20.923,0,0,0-2.017,2.451,18.09,18.09,0,0,0-1.508,2.777,117.451,117.451,0,0,0-4.723,12.485l.787-.619.814-.58c.648-2.094,1.317-4.246,2.071-6.385a.944.944,0,0,1,1.164-.561.85.85,0,0,1,.536,1.114c-.245.691-.509,1.352-.734,2.057l-.668,2.094,1.2-.854c.238-.857.53-1.655.8-2.487l.86-2.494.906-2.523c.3-.859.655-1.65.987-2.484a.979.979,0,0,1,1.2-.546.839.839,0,0,1,.5,1.133l-.788,1.952c-.265.648-.523,1.283-.754,1.957q-.7,2-1.362,3.953l1.4-.9.211-.144.021-.067c.708-2.049,1.548-3.994,2.408-6a.935.935,0,0,1,1.184-.508.861.861,0,0,1,.47,1.15c-.5,1.154-.98,2.3-1.442,3.433a20.266,20.266,0,0,0,2.917-3.065c.43-.577.867-1.117,1.257-1.71a20.028,20.028,0,0,0,1.111-1.832l1.621-2.957c.563-.977,1.152-1.917,1.747-2.884,1.2-1.913,2.415-3.915,3.764-5.76m1.575.907-1.945,2.8c-.622.967-1.224,1.936-1.813,2.9-1.183,1.924-2.335,3.791-3.36,5.781a23.35,23.35,0,0,1-1.76,2.8c-.324.44-.661.852-1.005,1.273s-.688.844-1.052,1.243a26.309,26.309,0,0,1-4.975,4.125c-3.03,1.878-5.941,3.951-8.792,6.084a1.748,1.748,0,0,1-2.057.072,1.729,1.729,0,0,1-.688-1.952l.489-1.591.251-.8.279-.777,1.138-3.135,1.21-3.183,1.35-3.118a22.539,22.539,0,0,1,1.661-3.066,18.64,18.64,0,0,1,2.209-2.711,24.08,24.08,0,0,1,2.653-2.382,22.139,22.139,0,0,1,3.1-1.89l2.666-1.363c.887-.448,1.813-.834,2.719-1.253,1.819-.809,3.619-1.688,5.491-2.382a1.942,1.942,0,0,1,2.177.447,1.685,1.685,0,0,1,.059,2.083" transform="translate(-1304.266 -676.63)" fill="#f4f4f4"/>
        <path id="Path_152" data-name="Path 152" d="M1371.053,698.2l-4.975,3.189c-1.627,1.114-3.215,2.274-4.823,3.41a16.123,16.123,0,0,0-2.454,2.165,21.519,21.519,0,0,0-2.057,2.486,15.372,15.372,0,0,0-1.569,2.774,19.589,19.589,0,0,0-1.064,2.959c-.622,2.153-1.066,4.415-1.528,6.577-.219,1.1-.456,2.152-.635,3.25l-.5,3.27.768-.8a.939.939,0,0,1,.007-.135c.158-.937.3-1.914.5-2.841l.6-2.818c.423-1.886.839-3.841,1.4-5.706a.971.971,0,0,1,1.124-.688.837.837,0,0,1,.622,1.069c-.86,2.947-1.488,6-2.09,8.932l1.468-1.4v-.069c.238-1.206.476-2.437.748-3.656q.436-1.794.912-3.624c.324-1.215.642-2.458,1-3.682q.565-1.8,1.171-3.64a.992.992,0,0,1,1.157-.66.841.841,0,0,1,.575,1.1l-.973,3.051c-.31,1.015-.635,1.995-.893,3.036q-.814,3.078-1.508,6.063l1.224-1.061.357-.326c.007-.056.014-.114.027-.172q.456-1.933.959-3.906c.344-1.3.741-2.569,1.138-3.875a.945.945,0,0,1,1.124-.642.861.861,0,0,1,.6,1.091c-.5,1.638-.98,3.243-1.416,4.85a21.5,21.5,0,0,0,2.222-3.283,28.535,28.535,0,0,0,1.621-3.683c.747-2.072,1.521-4.208,2.375-6.316q1.33-3.1,2.791-6.288m1.7.645a122.733,122.733,0,0,0-5.167,12.494c-.185.525-.39,1.037-.609,1.538s-.456,1-.688,1.494a22.247,22.247,0,0,1-1.614,2.827,26.6,26.6,0,0,1-4.26,4.862c-1.376,1.138-2.626,2.409-3.929,3.631-.635.622-1.3,1.217-1.926,1.857l-1.845,1.937a1.78,1.78,0,0,1-2.038.38,1.708,1.708,0,0,1-.979-1.81l.509-3.28.278-1.662c.1-.548.218-1.086.331-1.633l.715-3.3.383-1.671c.126-.561.258-1.122.41-1.663a21.691,21.691,0,0,1,2.891-6.324,24.18,24.18,0,0,1,2.275-2.733c.417-.432.847-.852,1.3-1.258.224-.2.455-.4.688-.6s.489-.366.74-.544c1.628-1.151,3.242-2.327,4.882-3.453l5.041-3.231a1.938,1.938,0,0,1,2.23.1,1.657,1.657,0,0,1,.384,2.037" transform="translate(-1304.091 -676.744)" fill="#f4f4f4"/>
        <path id="Path_153" data-name="Path 153" d="M1362.544,708.924l-.423,1.615a.846.846,0,0,0,.654,1.056.931.931,0,0,0,.754-.187.964.964,0,0,0,.338-.518l.212-.8.224-.783a.832.832,0,0,0-.622-1.066.961.961,0,0,0-1.138.687" transform="translate(-1304.234 -676.881)" fill="#f4f4f4"/>
        <path id="Path_154" data-name="Path 154" d="M1518.02,700.88l-2.48-1.594-1.244-.8c-.416-.269-.833-.533-1.263-.771l-5.12-2.944a22.452,22.452,0,0,0-6.126-2.109,20.027,20.027,0,0,0-6.31.055,117.369,117.369,0,0,0-12.98,3.178l1.9.642c2.124-.741,4.234-1.292,6.424-1.882a.934.934,0,0,1,1.131.617.851.851,0,0,1-.615,1.076q-2.144.574-4.214,1.173l1.369.54L1491,697.3c.84-.248,1.707-.52,2.547-.72q2.55-.642,5.193-1.24a.97.97,0,0,1,1.144.654.851.851,0,0,1-.654,1.055q-2.094.478-4.122.982l-2.017.512c-.661.171-1.323.341-1.991.554.516.191,1.018.426,1.521.654l.238.1a.5.5,0,0,1,.066-.022c2.057-.491,4.174-.993,6.317-1.417a.943.943,0,0,1,1.072.721.845.845,0,0,1-.682,1.029l-1.819.336-1.827.415a29.129,29.129,0,0,0,4.162.7,22.158,22.158,0,0,0,4.287-.093c2.19-.195,4.433-.366,6.715-.507,2.269-.109,4.532-.115,6.867-.129m.159,1.788q-3.483.017-6.834.123c-.548.01-1.118.051-1.68.093l-1.686.126-3.309.282c-.555.054-1.1.074-1.647.1s-1.112.044-1.654.037a21.859,21.859,0,0,1-3.235-.284c-.529-.084-1.052-.2-1.582-.314s-1.052-.226-1.574-.371a20.458,20.458,0,0,1-3.051-1.1c-.806-.385-1.641-.7-2.467-1.025l-2.488-.98c-1.64-.695-3.347-1.2-5.027-1.789a1.8,1.8,0,0,1-1.211-1.691,1.7,1.7,0,0,1,1.217-1.656l3.183-.924,1.614-.453c.542-.152,1.091-.3,1.627-.418,2.17-.5,4.38-.989,6.648-1.452a21.966,21.966,0,0,1,6.952-.06,23.97,23.97,0,0,1,6.768,2.33l5.193,2.982c.437.241.853.509,1.27.781l1.263.807,2.521,1.615a2.1,2.1,0,0,1,.78.9,1.792,1.792,0,0,1,.086,1.132,1.667,1.667,0,0,1-1.68,1.216" transform="translate(-1305.606 -676.678)" fill="#f4f4f4"/>
        <path id="Path_155" data-name="Path 155" d="M1498.674,690.258l-2.692-1.216c-.906-.379-1.833-.729-2.746-1.094-1.832-.717-3.651-1.479-5.53-2.073a19.021,19.021,0,0,0-12.6-.049c-2.143.8-4.24,1.612-6.278,2.439-2.057.915-4.068,1.841-6.014,2.775l1.092.2a.6.6,0,0,1,.112-.067l2.62-1.182,1.329-.587c.45-.2.893-.39,1.343-.557,1.786-.7,3.619-1.386,5.484-2.065a.945.945,0,0,1,1.211.516.835.835,0,0,1-.53,1.118c-1.468.532-2.917,1.084-4.346,1.634s-2.811,1.075-4.208,1.729l1,.178c.331.059.661.147.993.22a.393.393,0,0,1,.059-.034c1.118-.471,2.263-.941,3.42-1.406l1.746-.694.887-.346.88-.307c1.184-.406,2.375-.81,3.592-1.207l1.827-.592c.615-.2,1.236-.4,1.845-.556a1,1,0,0,1,1.191.612.83.83,0,0,1-.576,1.094c-2.044.532-4.094,1.252-6.079,1.921l-2.95,1.031c-.973.367-1.945.775-2.9,1.164l1.575.363.475.1a1.419,1.419,0,0,1,.159-.082c2.454-.915,4.995-1.819,7.6-2.668a.957.957,0,0,1,1.158.594.851.851,0,0,1-.568,1.1c-1.608.452-3.235,1.059-4.81,1.616.661.045,1.323.057,1.99.038.331-.01.668-.03,1-.052s.655-.031.985-.057a21.022,21.022,0,0,0,3.95-.718c2.163-.645,4.312-1.091,6.542-1.585,1.111-.235,2.243-.486,3.368-.695Zm.43,1.755a121.212,121.212,0,0,0-13.211,2.751,23.466,23.466,0,0,1-6.47.9,21.05,21.05,0,0,1-3.228-.142c-.535-.065-1.071-.151-1.6-.259s-1.057-.232-1.587-.351l-5.206-1.2-5.259-.942a1.816,1.816,0,0,1-1.469-1.454,1.753,1.753,0,0,1,.94-1.855c1.965-.947,3.976-1.859,6.046-2.778,1.039-.474,2.071-.876,3.123-1.279l3.2-1.207a19.124,19.124,0,0,1,6.846-1.185,20.657,20.657,0,0,1,7.059,1.212c1.9.6,3.744,1.374,5.6,2.1.926.37,1.859.724,2.778,1.108l2.732,1.232a1.914,1.914,0,0,1,1.184,1.868,1.69,1.69,0,0,1-1.475,1.484" transform="translate(-1305.378 -676.589)" fill="#f4f4f4"/>
        <path id="Path_156" data-name="Path 156" d="M1485.316,689.158l-1.561.537a.838.838,0,0,0-.5,1.13.958.958,0,0,0,1.191.532l1.554-.538a.844.844,0,0,0,.53-1.122.983.983,0,0,0-1.211-.539" transform="translate(-1305.634 -676.66)" fill="#f4f4f4"/>
        <path id="Path_157" data-name="Path 157" d="M1477.813,682.841c-.476-.129-.946-.281-1.422-.39l-1.442-.333-2.877-.664c-1.913-.483-3.857-.785-5.8-1.139a19.519,19.519,0,0,0-3.255-.326,22.362,22.362,0,0,0-3.221.279,20.513,20.513,0,0,0-3.083.738,17.713,17.713,0,0,0-2.878,1.308l-2.943,1.676-1.435.841-1.422.909c-1.885,1.22-3.717,2.422-5.5,3.66.668-.005,1.336.029,2,.042.887-.647,1.793-1.3,2.705-1.944l1.39-.971.7-.485.7-.451a.947.947,0,0,1,1.27.255.847.847,0,0,1-.245,1.213l-1.826,1.182-1.8,1.274,1.476.036c1.41-1.01,2.852-1.975,4.327-2.962l2.243-1.47c.754-.505,1.515-.921,2.282-1.384a.982.982,0,0,1,1.29.291.841.841,0,0,1-.285,1.206l-1.812,1.076c-.6.361-1.184.708-1.772,1.108q-1.767,1.168-3.473,2.337l1.66.126.258.015a.246.246,0,0,1,.053-.043c1.8-1.21,3.638-2.255,5.537-3.333a.937.937,0,0,1,1.25.311.857.857,0,0,1-.324,1.2q-1.626.93-3.214,1.866a20.144,20.144,0,0,0,4.174-.681c.344-.091.688-.2,1.025-.3s.675-.2,1.012-.312q1-.341,1.985-.788c2.024-.92,4.108-1.866,6.211-2.636l3.2-1.206,1.634-.594c.543-.2,1.084-.356,1.634-.534m.708,1.678-1.627.523c-.543.174-1.073.348-1.614.557l-3.189,1.208-3.117,1.226c-1.025.426-2.044.908-3.049,1.363a27.757,27.757,0,0,1-6.245,1.94,26.655,26.655,0,0,1-6.457.289l-2.666-.2-1.33-.1c-.444-.028-.894-.026-1.336-.04-1.786-.039-3.566-.1-5.352-.127a1.727,1.727,0,0,1-1.68-1.17,1.744,1.744,0,0,1,.628-1.975c.45-.326.9-.659,1.356-.978l1.37-.912,2.8-1.825c.953-.6,1.913-1.233,2.885-1.8l2.956-1.676a22,22,0,0,1,3.169-1.449,13.1,13.1,0,0,1,1.673-.492c.569-.133,1.138-.246,1.72-.338a24.626,24.626,0,0,1,3.552-.3,13.194,13.194,0,0,1,1.807.1c.595.064,1.2.15,1.8.257,1.965.359,3.936.666,5.875,1.155l2.917.673,1.456.337c.489.11.966.265,1.442.394a1.939,1.939,0,0,1,1.462,1.677,1.67,1.67,0,0,1-1.2,1.693" transform="translate(-1305.144 -676.534)" fill="#f4f4f4"/>
        <path id="Path_158" data-name="Path 158" d="M1456.1,678.9l-5.888-.449-.734-.053-.74-.02-1.476-.039-2.95-.074c-.549-.014-1.1-.008-1.64.018s-1.085.12-1.621.207a22.543,22.543,0,0,0-3.135.762c-.5.164-1.006.346-1.5.546a11.525,11.525,0,0,0-1.429.682,20.02,20.02,0,0,0-2.632,1.744l-2.64,2.1c-.867.694-1.713,1.476-2.547,2.207l-2.467,2.223-1.2,1.106c-.39.381-.781.78-1.171,1.167l1.092-.2c.027-.036.059-.071.086-.1,2.791-2.514,5.722-5.169,8.857-7.5a.97.97,0,0,1,1.311.116.852.852,0,0,1-.146,1.234q-1.846,1.431-3.619,2.855c-1.177.974-2.322,2.013-3.44,3.012l2-.256a.376.376,0,0,0,.046-.052,119.636,119.636,0,0,1,11.868-9.313.993.993,0,0,1,1.323.164.849.849,0,0,1-.2,1.229q-2.65,1.862-5.167,3.724c-1.667,1.286-3.289,2.643-4.862,3.954l1.62-.122.483-.046a.7.7,0,0,1,.119-.125l1.548-1.284.781-.643.793-.6c1.066-.8,2.144-1.6,3.248-2.408a.942.942,0,0,1,1.284.159.854.854,0,0,1-.186,1.228q-2.073,1.52-4.055,3.036a20.157,20.157,0,0,0,3.75-1.3c.609-.276,1.2-.6,1.793-.921q.884-.464,1.727-1.019l2.811-1.824c.953-.6,1.919-1.245,2.891-1.782q2.929-1.678,6.014-3.342m.966,1.541c-1.012.485-2.031,1.08-3.023,1.627l-2.957,1.676c-1.938,1.076-3.83,2.347-5.669,3.552a22.768,22.768,0,0,1-2.865,1.614,22.48,22.48,0,0,1-3,1.3,20.767,20.767,0,0,1-3.115.82,23.75,23.75,0,0,1-3.215.484l-2.666.2c-.443.025-.886.076-1.329.139l-1.323.17-2.652.336-1.323.167c-.443.066-.88.154-1.317.23a1.754,1.754,0,0,1-1.853-.9,1.73,1.73,0,0,1,.311-2.044c.781-.772,1.568-1.585,2.381-2.33l2.481-2.224,2.56-2.235c.43-.383.867-.731,1.31-1.078l1.336-1.053a20.733,20.733,0,0,1,13.2-4.375l2.984.075,1.495.039.748.02.748.054,5.96.454a1.929,1.929,0,0,1,1.713,1.426,1.658,1.658,0,0,1-.919,1.857" transform="translate(-1304.91 -676.514)" fill="#f4f4f4"/>
        <path id="Path_159" data-name="Path 159" d="M1443.064,682.185c-.437.316-.88.685-1.31,1.026a.847.847,0,0,0-.121,1.236.935.935,0,0,0,.715.3,1.034,1.034,0,0,0,.582-.2l1.3-.976a.834.834,0,0,0,.146-1.229.986.986,0,0,0-1.317-.155" transform="translate(-1305.151 -676.578)" fill="#f4f4f4"/>
        <path id="Path_160" data-name="Path 160" d="M1550.641,731c-1.224-1.546-2.415-3.113-3.731-4.577l-1.931-2.231-.973-1.113-1.019-1.069a22.382,22.382,0,0,0-2.415-2.2c-.423-.334-.86-.653-1.3-.952s-.933-.549-1.409-.8a21.081,21.081,0,0,0-2.924-1.247,15.412,15.412,0,0,0-3.05-.732q-3.414-.443-6.695-.781-3.374-.237-6.609-.376l1.574,1.239c2.2.033,4.479.067,6.695.263a.939.939,0,0,1,.866.96.855.855,0,0,1-.926.82c-1.475-.1-2.9-.215-4.352-.252.39.294.754.626,1.124.945q2.59.081,5.26.228l1.336.082,1.316.123,2.659.278a.968.968,0,0,1,.86,1,.842.842,0,0,1-.952.79c-2.832-.3-5.557-.584-8.355-.657l1.25,1.085.2.165c.027,0,.047,0,.073,0,2.11.184,4.24.431,6.417.7a.929.929,0,0,1,.821,1,.855.855,0,0,1-.98.756c-1.25-.153-2.494-.295-3.718-.425a20.223,20.223,0,0,0,1.826,1.063c.317.162.641.312.96.462s.629.308.952.449a21.125,21.125,0,0,0,4.068,1.3l1.648.359,1.614.417,3.268.878c2.223.582,4.353,1.31,6.556,2.054m-.437,1.752-3.255-1.078c-1.085-.345-2.13-.7-3.241-.987-2.191-.6-4.333-1.162-6.47-1.666a22.541,22.541,0,0,1-6.145-2.229,20.848,20.848,0,0,1-2.792-1.632q-.664-.461-1.29-.974c-.423-.339-.821-.712-1.244-1.06l-4.036-3.5-4.207-3.3a1.812,1.812,0,0,1-.622-1.964,1.754,1.754,0,0,1,1.7-1.2c2.2.063,4.386.219,6.648.377.555.044,1.131.074,1.687.138l1.673.194,3.387.428a19.416,19.416,0,0,1,6.6,2.154c.523.273,1.039.567,1.548.879a16.4,16.4,0,0,1,1.449,1.043,26.1,26.1,0,0,1,2.673,2.443l1.032,1.083.978,1.127,1.958,2.261c1.336,1.483,2.547,3.07,3.778,4.636a1.9,1.9,0,0,1,.185,2.2,1.7,1.7,0,0,1-2,.631" transform="translate(-1306.023 -676.938)" fill="#f4f4f4"/>
        <path id="Path_161" data-name="Path 161" d="M1535.7,714.778l-1.071-1.017-1.118-.967-2.229-1.933c-1.462-1.319-3.037-2.5-4.578-3.724-.43-.338-.873-.661-1.329-.966a11.744,11.744,0,0,0-1.4-.84,22.134,22.134,0,0,0-2.97-1.274,18.675,18.675,0,0,0-3.07-.793,19.8,19.8,0,0,0-3.155-.2l-3.374.087c-1.112.03-2.256.144-3.361.222l-3.308.285c-.542.054-1.078.1-1.627.163l-1.641.226.992.505a.841.841,0,0,1,.132-.03c3.744-.346,7.673-.67,11.591-.656a.966.966,0,0,1,.972.883.847.847,0,0,1-.86.9c-1.554.021-3.1.054-4.6.1-1.528.065-3.069.2-4.564.322l1.753,1.009c.027,0,.047-.011.072-.013.616-.053,1.245-.125,1.853-.154l1.846-.088q1.854-.082,3.75-.136c.629-.012,1.284-.045,1.906-.035l1.885.03c1.27.025,2.547.059,3.844.1a.991.991,0,0,1,.959.926.844.844,0,0,1-.906.855c-2.163-.071-4.293-.112-6.376-.126-1.032-.023-2.1.036-3.149.071l-3.11.142,1.363.874.417.254a.863.863,0,0,1,.172-.026c2.686-.179,5.312-.124,8.057-.1a.945.945,0,0,1,.933.9.857.857,0,0,1-.894.866c-1.72-.021-3.406-.024-5.074-.009a20.316,20.316,0,0,0,3.784,1.214c.324.072.655.131.986.193s.648.126.979.179c.655.1,1.323.178,2,.218l3.355.228.853.065.833.092,1.674.2,3.394.436,1.72.238Zm-.165,1.811c-1.131-.2-2.236-.407-3.36-.567l-3.388-.426-3.32-.373c-1.1-.107-2.236-.161-3.335-.231a27.686,27.686,0,0,1-6.423-1.216,20.915,20.915,0,0,1-2.99-1.212c-.47-.249-.96-.481-1.442-.736s-.946-.531-1.4-.826l-2.25-1.442-.562-.361-.582-.332-1.158-.665L1503,706.869c-.383-.219-.767-.45-1.157-.662l-1.191-.607a1.751,1.751,0,0,1-.926-1.84,1.722,1.722,0,0,1,1.475-1.443c1.092-.147,2.2-.3,3.308-.427l3.314-.278,3.394-.236c1.137-.078,2.25-.072,3.4-.1a19.254,19.254,0,0,1,6.861,1.07,24.768,24.768,0,0,1,3.275,1.413c.264.139.529.283.787.431s.509.324.761.492c.5.339.992.7,1.469,1.075,1.568,1.237,3.162,2.438,4.644,3.772l2.256,1.958,1.131.98,1.084,1.029a1.944,1.944,0,0,1,.509,2.163,1.68,1.68,0,0,1-1.865.932" transform="translate(-1305.825 -676.801)" fill="#f4f4f4"/>
        <path id="Path_162" data-name="Path 162" d="M1523.42,709.412c-.549,0-1.091-.013-1.641,0a.849.849,0,0,0-.846.912,1.026,1.026,0,0,0,.377.686.949.949,0,0,0,.582.2l1.634,0a.839.839,0,0,0,.86-.893.985.985,0,0,0-.966-.911" transform="translate(-1306.071 -676.894)" fill="#f4f4f4"/>
        <path id="Path_163" data-name="Path 163" d="M1577.577,791.25l-.516-2.906-.132-.727-.165-.72-.331-1.438-.661-2.876-.331-1.438c-.126-.477-.264-.948-.4-1.422a23.1,23.1,0,0,0-1.112-3.074,15.941,15.941,0,0,0-1.568-2.817,19.789,19.789,0,0,0-4.359-4.545q-2.808-1.979-5.571-3.805c-.449-.309-.932-.6-1.415-.889l-1.423-.858-2.831-1.663.455,1.01a.771.771,0,0,1,.12.057l2.454,1.494,1.243.767,1.191.8q2.381,1.625,4.816,3.364a.953.953,0,0,1,.225,1.3.841.841,0,0,1-1.223.195c-.6-.472-1.238-.919-1.879-1.362l-1.9-1.314-1.885-1.278c-.629-.418-1.238-.838-1.9-1.23.291.609.516,1.247.767,1.871.02.012.04.019.059.032q1.548.992,3.1,2.031l1.568,1.051c.51.359,1.006.73,1.508,1.1q1.509,1.113,3.03,2.278l1.528,1.176c.509.4.979.809,1.475,1.22a1,1,0,0,1,.165,1.327.833.833,0,0,1-1.23.135c-.82-.687-1.621-1.367-2.454-2.025l-2.547-1.92c-1.7-1.252-3.328-2.48-5.1-3.6l.6,1.5.165.457a.757.757,0,0,1,.152.084c1.073.756,2.157,1.531,3.242,2.325s2.216,1.6,3.235,2.452a.956.956,0,0,1,.165,1.289.853.853,0,0,1-1.231.152c-.656-.531-1.31-1.057-1.971-1.571l-2.058-1.5c.337.569.708,1.122,1.1,1.659s.761,1.075,1.184,1.586a21.318,21.318,0,0,0,2.832,2.851c.88.713,1.693,1.457,2.513,2.212l2.474,2.306c1.693,1.556,3.235,3.2,4.823,4.887m-1.2,1.343L1574,790.114c-.788-.813-1.548-1.617-2.4-2.39q-2.481-2.331-4.928-4.5a22.428,22.428,0,0,1-4.4-4.836,21.727,21.727,0,0,1-2.97-5.726l-1.958-4.966c-.158-.418-.337-.824-.522-1.229l-.557-1.216-1.1-2.432a1.822,1.822,0,0,1,.39-2.036,1.733,1.733,0,0,1,2.051-.265q2.818,1.64,5.709,3.426c1.885,1.208,3.718,2.5,5.609,3.823a20.852,20.852,0,0,1,7.8,11.505c.133.48.278.958.4,1.441l.337,1.456.674,2.914.331,1.457.165.73.133.735.53,2.943a1.9,1.9,0,0,1-.874,2.026,1.694,1.694,0,0,1-2.057-.38" transform="translate(-1306.465 -677.483)" fill="#f4f4f4"/>
        <path id="Path_164" data-name="Path 164" d="M1571.044,779.556l-1.33-.987a.843.843,0,0,0-1.218.219.943.943,0,0,0-.112.774.976.976,0,0,0,.35.506l1.331.982a.841.841,0,0,0,1.224-.195.983.983,0,0,0-.245-1.3" transform="translate(-1306.619 -677.692)" fill="#f4f4f4"/>
        <path id="Path_165" data-name="Path 165" d="M1571.943,769.87c-.6-1.878-1.369-3.69-2.077-5.525-.371-.912-.708-1.837-1.1-2.74l-1.218-2.691a22.331,22.331,0,0,0-1.555-2.872,21.878,21.878,0,0,0-2.044-2.5,20.783,20.783,0,0,0-2.354-2.13,16.759,16.759,0,0,0-2.693-1.642,118.738,118.738,0,0,0-12.225-5.327c.4.537.754,1.1,1.111,1.664,2.057.744,4.181,1.513,6.272,2.371a.945.945,0,0,1,.5,1.192.852.852,0,0,1-1.138.481c-.674-.284-1.329-.573-2.018-.838l-2.058-.766.795,1.237c1.647.583,3.241,1.237,4.889,1.9l2.48,1.024c.827.349,1.608.734,2.422,1.111a.973.973,0,0,1,.489,1.226.844.844,0,0,1-1.158.443c-1.29-.6-2.527-1.192-3.823-1.733s-2.6-1.051-3.884-1.548l.827,1.437.131.22c.027.008.047.012.073.021,2.012.808,3.9,1.742,5.867,2.7a.942.942,0,0,1,.45,1.209.866.866,0,0,1-1.178.407q-1.687-.825-3.354-1.6a20.057,20.057,0,0,0,2.918,3.058,23.2,23.2,0,0,0,3.413,2.539l2.878,1.759c.94.61,1.852,1.244,2.792,1.885,1.853,1.288,3.784,2.6,5.563,4.037m-.986,1.526-2.7-2.076c-.927-.667-1.873-1.314-2.8-1.953-1.866-1.271-3.665-2.514-5.6-3.637a23.163,23.163,0,0,1-2.705-1.89c-.424-.342-.827-.7-1.218-1.065q-.624-.535-1.191-1.11a20.782,20.782,0,0,1-2.091-2.451c-.323-.431-.6-.891-.912-1.333s-.6-.907-.867-1.38c-1.727-3.116-3.651-6.115-5.636-9.071a1.74,1.74,0,0,1,2.011-2.645c2.109.721,4.114,1.58,6.185,2.46,1.032.443,2.085.89,3.116,1.361l3.049,1.5a21.681,21.681,0,0,1,2.977,1.8,19.335,19.335,0,0,1,2.6,2.339,25.022,25.022,0,0,1,2.249,2.764,23.063,23.063,0,0,1,1.727,3.183l1.231,2.725c.4.915.741,1.851,1.111,2.775.721,1.859,1.508,3.694,2.11,5.6a1.941,1.941,0,0,1-.556,2.149,1.679,1.679,0,0,1-2.084-.044" transform="translate(-1306.348 -677.279)" fill="#f4f4f4"/>
        <path id="Path_166" data-name="Path 166" d="M1562.964,749.733l-2.944-5.117c-1.019-1.681-2.11-3.32-3.162-4.983a15.809,15.809,0,0,0-2.038-2.556,21.9,21.9,0,0,0-2.381-2.171,13.422,13.422,0,0,0-1.3-.923q-.685-.418-1.389-.78a19.992,19.992,0,0,0-2.905-1.2c-2.123-.719-4.346-1.281-6.489-1.841-1.078-.273-2.137-.553-3.208-.793l-3.241-.652.76.8a1.108,1.108,0,0,1,.139.015c1.9.373,3.717.868,5.589,1.374s3.791,1.026,5.63,1.667a.967.967,0,0,1,.628,1.154.843.843,0,0,1-1.1.574l-2.2-.711-1.091-.343-1.118-.308c-1.482-.405-2.957-.793-4.406-1.161l1.323,1.531c.027,0,.046,0,.073.01,1.184.3,2.415.583,3.6.923s2.375.71,3.579,1.084,2.428.752,3.619,1.177,2.381.879,3.579,1.339a1,1,0,0,1,.609,1.19.847.847,0,0,1-1.132.522l-3-1.118-1.483-.537-.733-.264-.761-.24q-3.036-.956-5.987-1.8l1,1.273.311.377a1.072,1.072,0,0,1,.172.031q1.905.548,3.85,1.142c1.27.416,2.527.869,3.81,1.326a.949.949,0,0,1,.589,1.156.856.856,0,0,1-1.118.536c-1.607-.574-3.2-1.123-4.77-1.646a20.012,20.012,0,0,0,3.163,2.376,29.2,29.2,0,0,0,3.592,1.8l3.083,1.3,1.561.675c.523.227,1.045.457,1.541.707q3.037,1.472,6.146,3.087m-.734,1.669a119.979,119.979,0,0,0-12.212-5.767q-.774-.317-1.508-.681c-.489-.244-.959-.5-1.455-.76a22.032,22.032,0,0,1-2.746-1.749c-.43-.322-.846-.659-1.243-1.012s-.8-.72-1.2-1.082a20.581,20.581,0,0,1-2.2-2.39c-1.065-1.425-2.262-2.747-3.427-4.1-.582-.67-1.158-1.354-1.753-2.013l-1.846-1.932a1.777,1.777,0,0,1-.278-2.053,1.709,1.709,0,0,1,1.852-.893,122.186,122.186,0,0,1,13.059,3.265,21.667,21.667,0,0,1,3.194,1.332q.774.4,1.528.862a13.188,13.188,0,0,1,1.449,1,24.686,24.686,0,0,1,2.619,2.4,18.443,18.443,0,0,1,2.257,2.836c1.065,1.683,2.17,3.344,3.2,5.046l2.983,5.184a1.96,1.96,0,0,1-.217,2.219,1.662,1.662,0,0,1-2.058.287" transform="translate(-1306.2 -677.097)" fill="#f4f4f4"/>
        <path id="Path_167" data-name="Path 167" d="M1553.04,740.738l-1.594-.5a.843.843,0,0,0-1.085.6.915.915,0,0,0,.146.762.95.95,0,0,0,.5.363c.536.157,1.039.339,1.555.518a.839.839,0,0,0,1.1-.572.967.967,0,0,0-.622-1.169" transform="translate(-1306.41 -677.25)" fill="#f4f4f4"/>
        <path id="Path_168" data-name="Path 168" d="M1580.432,814.416a22.478,22.478,0,0,0-3.381-6.073c-1.462-1.771-2.984-3.482-4.459-5.143-.371-.415-.734-.827-1.118-1.234l-1.177-1.2-2.342-2.347a1.71,1.71,0,0,0-2.038-.28,1.787,1.787,0,0,0-.906,1.865l.476,2.628c.145.877.231,1.763.351,2.645l.337,2.648c.053.442.125.882.159,1.325l.106,1.33a19.985,19.985,0,0,0,.5,3.207c.119.526.278,1.045.423,1.561s.292,1.028.47,1.535c.086.238.186.471.277.707l1.615-.689c-.119-.311-.238-.627-.338-.945s-.2-.668-.3-1.005-.212-.676-.3-1.016c.847.926,1.608,1.876,2.388,2.843a.852.852,0,0,0,1.231.112.944.944,0,0,0,.119-1.288c-.655-.842-1.409-1.665-2.117-2.477l-2.144-2.4c-.02-.018-.033-.03-.052-.045l-.026-.257-.126-1.653c1.884,1.965,3.783,4.02,5.663,6.164a.842.842,0,0,0,1.236.073.947.947,0,0,0,.041-1.315q-1.8-2.037-3.586-3.968l-.893-.958c-.3-.317-.629-.63-.933-.94l-1.885-1.839-.186-1.458q1.518,1.533,3.056,3.138a.862.862,0,0,0,1.244.03.94.94,0,0,0-.006-1.289q-1.172-1.231-2.336-2.42l-1.165-1.177c-.383-.39-.813-.769-1.216-1.148l-.351-1.971,2.341,2.333c.781.791,1.489,1.607,2.243,2.43l2.23,2.516,1.111,1.288,1.052,1.316a19.222,19.222,0,0,1,1.747,2.609c.258.463.5.936.72,1.42a11.28,11.28,0,0,1,.6,1.486,22.073,22.073,0,0,1,1.079,6.381l-.145,5.9c0,.985-.113,1.963-.172,2.943l-.225,2.942-.741-1.341a4.806,4.806,0,0,1,.053,2,2.427,2.427,0,0,1-.364.866,1.629,1.629,0,0,0,1.449.358,1.887,1.887,0,0,0,1.349-1.734l.224-2.978c.06-.994.179-1.984.179-2.981l.139-5.976a24.5,24.5,0,0,0-1.171-7.057" transform="translate(-1306.58 -677.918)" fill="#f4f4f4"/>
        <path id="Path_169" data-name="Path 169" d="M1581.384,810.17c-.033-1-.02-1.992-.119-2.983l-.457-5.96a24.523,24.523,0,0,0-1.872-6.905,22.489,22.489,0,0,0-3.969-5.705c-1.627-1.617-3.314-3.167-4.948-4.672-.417-.375-.813-.749-1.237-1.116l-1.29-1.08-2.567-2.1a1.72,1.72,0,0,0-2.4.236,1.857,1.857,0,0,0-.337,1.734l.7,2.469c.238.858.41,1.732.615,2.6l.6,2.6c.1.435.211.865.291,1.3l.231,1.315a21,21,0,0,0,.82,3.141c.172.51.384,1.01.576,1.51s.4.993.623,1.48a20.817,20.817,0,0,0,1.17,2.172c.84.368,1.456.641,2.3,1.009l.47-.089a19.537,19.537,0,0,1-1.528-2.288,17.643,17.643,0,0,1-.953-1.88c-.145-.32-.272-.645-.4-.971s-.278-.651-.4-.982c.939.837,1.792,1.706,2.666,2.59a.852.852,0,0,0,1.237-.012.946.946,0,0,0-.013-1.293c-.734-.773-1.568-1.515-2.355-2.254l-2.374-2.17a.3.3,0,0,0-.053-.041l-.047-.253-.3-1.631c2.071,1.766,4.167,3.621,6.258,5.567a.834.834,0,0,0,1.231-.05.94.94,0,0,0-.093-1.312q-1.984-1.849-3.963-3.589l-.985-.865c-.324-.286-.681-.563-1.025-.842l-2.058-1.642-.33-1.432q1.677,1.373,3.361,2.817a.858.858,0,0,0,1.237-.094.938.938,0,0,0-.133-1.282q-1.29-1.108-2.566-2.175l-1.277-1.056c-.423-.349-.887-.684-1.323-1.021l-.549-1.924,2.567,2.087c.853.71,1.64,1.45,2.467,2.194l2.474,2.28,1.238,1.17,1.177,1.2a20.032,20.032,0,0,1,2,2.423c.3.434.589.882.86,1.341a12,12,0,0,1,.741,1.419,22.08,22.08,0,0,1,1.706,6.243l.451,5.884c.092.979.079,1.964.119,2.947l.073,2.949-.225-.325-.4.683a1.016,1.016,0,0,0,1.211,1.476,1.89,1.89,0,0,0,1.17-1.859Z" transform="translate(-1306.547 -677.702)" fill="#f4f4f4"/>
      </g>
    </g>
  </g>
</svg>
