<svg xmlns="http://www.w3.org/2000/svg" width="196.762" height="215.824" viewBox="0 0 196.762 215.824">
  <g id="Group_1033" data-name="Group 1033" transform="translate(-237.137 -313.176)">
    <text id="Venture" transform="translate(300.885 525)" fill="#ededed" font-size="14" font-family="Montserrat-Regular, Montserrat"><tspan x="0" y="0">Venture</tspan></text>
    <path id="Path_1431" data-name="Path 1431" d="M182.384,23.068a32.271,32.271,0,0,0-14.744-3.483,3.426,3.426,0,0,1-3.346-1.87A35.549,35.549,0,0,0,148.157,3.3C140.713-.068,132.918-.538,124.936.47c-1.614.2-3.057.6-3.45,2.433-.376,1.733.675,2.672,1.981,3.535,3.381,2.254,6.369,4.9,8.205,8.623.213.427.683.914.256,1.366-.317.333-.846.043-1.273-.06a31.619,31.619,0,0,0-11.782-.384c-10.766,1.631-18.979,7.624-26.09,15.453a2.9,2.9,0,0,0-.615,3.364c.615,1.348,1.768,1.7,3.219,1.605a34.614,34.614,0,0,1,4.208-.077c8.367.5,16.7,1.246,24.374,4.713,3.842,1.733,7.18,4.115,9.314,7.906.684,1.212.709,1.964-.657,2.911-.623.435-1.264.871-1.853,1.357-19.747,16.315-32.459,37-40.868,60.386-.291.811-.163,2.254-1.289,2.228-1.077-.017-1.077-1.443-1.4-2.28C80,94.954,69.349,78.818,53.537,66.37a1.658,1.658,0,0,1-.341-.248,1.391,1.391,0,0,1-.026-1.972c2.271-3.509,5.7-5.4,9.468-6.745,6.762-2.425,13.779-3.014,20.892-2.911,1.382.017,2.6-.256,3.142-1.648a3.216,3.216,0,0,0-.769-3.517,47.828,47.828,0,0,0-5.251-5.02C74.206,39.059,66.983,36,58.5,36.446c-1.367.068-2.7.581-4.261.35a18.274,18.274,0,0,1,6.882-7.137,2.988,2.988,0,0,0,1.5-3.4A2.767,2.767,0,0,0,60,24.127a40.5,40.5,0,0,0-9.314-.376c-9.306.726-17,4.644-22.334,12.277-1.964,2.8-4.046,3.688-7.206,3.919C11.063,40.681,3.61,47.058,1.083,56.8A37.191,37.191,0,0,0,.665,72.714c.282,1.631.964,2.834,2.671,3.014,1.6.171,2.561-.743,3.167-2.22a6.081,6.081,0,0,1,3.954-3.756c.11.137.171.179.171.222.008.956.017,1.9.017,2.86a29.387,29.387,0,0,0,6.6,18.151c.861,1.118,1.9,1.9,3.441,1.417,2.466-.768,2.245-3.2,2.126-5.908,3.047-7.854,8.683-10.9,14.94-13.028,1.5-.512,1.955-.077,2.339,1.332,3.706,13.344,6.582,26.833,7.1,40.741a2.289,2.289,0,0,1-1.648,2.672A62.756,62.756,0,0,0,7.264,174.181c-.085,2.544.9,3.466,3.39,3.517.383.009.768,0,1.152,0H173.284c.375,0,.768.017,1.144,0,2.459-.06,3.465-1.05,3.38-3.56a43.989,43.989,0,0,0-.494-5.9c-3.244-19.185-16.717-33.066-35.79-36.848-1.2-.239-1.494-.743-1.647-1.853a107.274,107.274,0,0,1-.64-20.422c.81-16.05,4.072-31.683,8.5-47.084,1.067-3.7.223-3.509,4.081-2.228,10.041,3.313,17.613,8.956,18.424,20.592a2.375,2.375,0,0,0,1.827,2.22,2.761,2.761,0,0,0,3.143-.777,38.911,38.911,0,0,0,2.612-3.526c4.329-6.745,6.523-14.07,5.729-22.138-.137-1.434.247-1.716,1.536-1.127a8.719,8.719,0,0,1,4.85,4.875c.589,1.511,1.537,2.578,3.26,2.39,4.218-.47,2.083-7.274,3.561-10.151.016-12.816-3.526-23.444-14.378-29.1M45.5,72.756c-.145-.512-.718-1.315.289-1.6,1.145-.324,2.228-1.673,3.5-.734A75.417,75.417,0,0,1,59.65,79.731c.606.657.342.888-.358,1.178a25.386,25.386,0,0,0-3.612,1.716c-1.758,1.059-2.21,2.723-1.3,4.209.887,1.451,2.621,1.75,4.336.692a24.084,24.084,0,0,1,4.961-1.955,1.044,1.044,0,0,1,1.34.316A96.444,96.444,0,0,1,74.206,99.6c-3.108,0-5.882-.026-8.648.017a21.5,21.5,0,0,0-3.227.29c-1.929.316-2.9,1.562-2.655,3.278.009.068.017.128.026.2a2.809,2.809,0,0,0,3.3,2.2,102.189,102.189,0,0,1,12.208-.222,2.97,2.97,0,0,1,3.16,2.092c.819,2.134,1.809,4.192,2.817,6.514-2.732-.23-5.216-.487-7.709-.632a57.958,57.958,0,0,0-18.73,1.8c-1.392.376-1.836-.018-1.9-1.34-.616-14.01-3.484-27.619-7.351-41.04m97.2-14.181c-2.2,7.513-4.131,15.1-5.618,22.8-.265,1.357-.751,1.289-1.759.888a24.8,24.8,0,0,0-8.964-1.7,2.694,2.694,0,0,0-.538,0,2.9,2.9,0,0,0-2.62,3.159v.017a2.6,2.6,0,0,0,2.688,2.51,26.506,26.506,0,0,1,8.367,1.776c.06.017.112.026.163.043a1.655,1.655,0,0,1,1.058,2.1c-.9,5.473-1.52,10.988-1.894,16.52-.111,1.588-.889.914-1.623.64-4.79-1.8-9.673-3.2-14.854-3.176-2.169.017-3.321,1.2-3.117,3.159.188,1.776,1.341,2.519,3.005,2.553,5.26.12,10.134,1.69,14.915,3.714a1.864,1.864,0,0,1,1.35,1.981,112.008,112.008,0,0,0,.768,13.728c.145,1.221-.256,1.392-1.3,1.409a41.87,41.87,0,0,0-14.386,2.681,1.965,1.965,0,0,1-2.5-.512,61.268,61.268,0,0,0-19.791-14.1c-1.016-.461-1.5-.863-1.059-2.109,8.324-23.606,20.968-44.267,40.86-59.984.683-.538,1.332-1.545,2.212-1.307a25.574,25.574,0,0,1,4.6,1.836c.605.282.161.931.033,1.383" transform="translate(237.137 313.176)" fill="#f4f4f4"/>
  </g>
</svg>
