<svg xmlns="http://www.w3.org/2000/svg" width="162.391" height="203.169" viewBox="0 0 162.391 203.169">
  <g id="Group_1029" data-name="Group 1029" transform="translate(-3.535 -21.355)">
    <text id="Profile" transform="translate(56.098 220.524)" fill="#ededed" font-size="14" font-family="Montserrat-Regular, Montserrat"><tspan x="0" y="0">Profile</tspan></text>
    <path id="Path_1429" data-name="Path 1429" d="M79.385,174.67c16.652,0,32.2-7.512,45.661-22.226a114.323,114.323,0,0,0,18.863-28.793c7.61-1.795,18.481-8.344,18.481-24.1,0-7.474-3.14-10.317-5.774-11.385-4.97-2.012-11.227,1.363-16.227,5.23-1.058-5.428-3.13-11.677-7.186-14.6a9.417,9.417,0,0,0-8.4-1.4c-7.437,2.16-11.683,9.324-11.364,19.162a38.494,38.494,0,0,0,2.3,11.915c.46,1.23.957,2.3,1.439,3.346,1.145,2.476,1.84,4.084,1.692,5.845-.214,2.542-2.23,5.323-5.993,8.268a14.388,14.388,0,0,1-7.247,3.162c-3.862.417-8.947-2.116-12.111-5.984A14.006,14.006,0,0,1,91.57,120c5.978,2.664,10.689,2.445,14.059-.665,7.492-6.917,1.908-23.757-3.371-32.747a37.331,37.331,0,0,0-4.848-6.631,43.131,43.131,0,0,0,4.74-2.855,31.722,31.722,0,0,0,11.635-14.131c2.895-7.23,2.383-15.088,1.746-20.37-2.009-16.676-8.815-29.16-19.682-36.1A40.407,40.407,0,0,0,80.992.895C62.044-2.466,42.334,3.731,26.974,17.907,15.584,28.417,7.09,43.2,3.054,59.533-2.992,84,0,109.151,11.479,130.354c11,20.312,29.539,35.541,50.871,41.786a60.541,60.541,0,0,0,17.035,2.53m73.5-77.9a9.717,9.717,0,0,1,.3,2.78c0,13.6-11.656,15.271-12.984,15.416a4.654,4.654,0,0,0-3.813,2.887,105.24,105.24,0,0,1-18.3,28.56c-15.61,16.966-33.493,22.65-53.157,16.9-18.991-5.558-35.526-19.166-45.363-37.335C9.187,106.789,6.494,83.978,11.989,61.74c3.609-14.6,11.147-27.768,21.226-37.069C46.444,12.462,63.293,7.1,79.439,9.966a31.294,31.294,0,0,1,11.5,4.318c10.654,6.8,14.289,19.755,15.452,29.415.831,6.893.475,11.781-1.153,15.848a22.57,22.57,0,0,1-8.325,9.981C85.841,77.186,66.154,80.759,35.246,54.3c-.548-.468-1.087-.941-1.627-1.414l-.183-.161a4.6,4.6,0,0,0-7.424,2.087c-.643,2.054-1.379,4.075-2.157,6.215a74.146,74.146,0,0,0-4.312,15.217C16.809,95.8,26.8,112.058,44.4,116.7c12.065,3.179,16.381-.771,17.876-4.649,1.932-5.011-.45-12.306-7.08-21.683C51.082,84.552,44.6,77.224,40.08,74.881a4.6,4.6,0,1,0-4.235,8.172c1.9.984,7.035,5.874,11.74,12.5,5.092,7.167,6.308,11.629,6.146,12.977-.549.168-2.407.481-6.986-.726-13.076-3.449-20.176-15.336-18.087-30.284.63-4.51,2.191-8.8,3.845-13.344.017-.046.033-.092.051-.138,19.245,15.6,37.1,22.307,52.665,19.907a4.5,4.5,0,0,0,1.613-.226c.967-.313,4.4,1.908,8.019,8.461,5.6,10.131,5.9,19.255,4.533,20.394-.015,0-2.4.844-9.885-4.392a4.6,4.6,0,0,0-7.152,2.868l-.136.684c-1.669,5.649-.152,11.9,4.181,17.2,5.142,6.291,13.251,10.034,20.187,9.314a23.539,23.539,0,0,0,11.967-5.069c5.946-4.652,9.05-9.474,9.494-14.745.359-4.276-1.165-7.574-2.51-10.481-.429-.927-.834-1.8-1.158-2.667a29.292,29.292,0,0,1-1.735-9.029c-.065-2.008.084-8.674,4.729-10.022a.874.874,0,0,1,.324-.053c1.544.409,4.208,7.785,4.58,16.748a4.6,4.6,0,0,0,7.9,3.018c4.466-4.591,10.336-8.792,12.712-9.181" transform="translate(3.535 21.355)" fill="#f4f4f4"/>
  </g>
</svg>
