<svg xmlns="http://www.w3.org/2000/svg" width="693.088" height="529" viewBox="0 0 693.088 529">
  <g id="Group_1038" data-name="Group 1038" transform="translate(494.765 3697.839)">
    <g id="Group_947" data-name="Group 947" transform="translate(-494.765 -3697.839)">
      <g id="Group_1030" data-name="Group 1030">
        <text id="Home" transform="translate(308.037 220.524)" fill="#ededed" font-size="14" font-family="Montserrat-Regular, Montserrat"><tspan x="0" y="0">Home</tspan></text>
        <path id="Path_1428" data-name="Path 1428" d="M409.652,129.53v0h-11.49c.066-8.214.051-16.554.037-24.626q-.01-5.227-.013-10.454c0-3.562,0-5.525.838-6.374s2.695-.891,6.4-.973c.243-.006.488,0,.735,0,1.612.008,3.448.028,4.48-1.961s-.049-3.384-1-4.621c-.182-.236-.365-.471-.53-.71-12.629-18.075-25.45-36.39-38.108-54.439-.129-.185-.263-.366-.394-.543-.541-.729-1.008-1.36-.892-1.934.09-.451.56-.931,1.394-1.426a2.471,2.471,0,0,0,1.252-1.848,4.1,4.1,0,0,0-1.284-3.235c-4.131-4.224-8.387-8.48-12.65-12.65-1.248-1.214-2.877-1.214-4.457-1.211h-.16c-26.48.017-53.333.017-79.814,0-1.91,0-3.756.134-5.334,1.763-2.627,2.7-5.358,5.4-8,8.018q-1.839,1.819-3.675,3.645a4.777,4.777,0,0,0-1.692,3.528,2.5,2.5,0,0,0,1.172,1.864c.85.588,1.3,1.118,1.387,1.623.107.64-.392,1.314-.97,2.094-.136.184-.276.373-.413.568-12.57,17.912-25.206,35.981-37.559,53.707-.215.31-.464.614-.715.919-1.03,1.258-2.2,2.685-1.24,4.751,1.182,2.545,3.626,2.277,5.652,2.05,1.536-.166,2.516,0,3.093.528.615.558.878,1.594.855,3.36-.178,12.811-.193,25.789-.044,38.583h-8.514a4.163,4.163,0,0,0-4.152,4.152v16.1a4.162,4.162,0,0,0,4.152,4.153H409.652a4.163,4.163,0,0,0,4.151-4.153v-16.1a4.162,4.162,0,0,0-4.151-4.151m-23.893-38.4a3.572,3.572,0,0,1,.6-2.56,2.57,2.57,0,0,1,1.912-.522c1.966.046,1.948.991,1.916,2.556,0,.172-.006.345-.006.518q-.012,10.756,0,21.529v16.885l-4.424,0c.029-12.741.028-25.658,0-38.4m-7.687,15.411q.01,3.281.012,6.56l0,5.62c-.006,3.607-.011,7.216,0,10.823H359.343c.054-13.11.052-26.436-.008-39.61h0a3.139,3.139,0,0,1,.6-2.326,2.77,2.77,0,0,1,2.072-.519c4.9.161,9.254.159,13.308-.009a2.942,2.942,0,0,1,2.2.519c.442.43.622,1.208.6,2.6-.079,5.446-.064,10.986-.048,16.342m-26.74,1.7v4.353q-.024,8.477-.015,16.949h-4.143q0-19.149.009-38.293v-.176c0-1.861.087-2.916,2-2.936a2.287,2.287,0,0,1,1.642.472,3.59,3.59,0,0,1,.5,2.485l0,.459q.034,8.343.02,16.686M315.952,79.773l-88.474,0q4.225-6.046,8.309-11.9c4.677-6.706,9.261-13.276,13.861-19.84l1.04-1.486c4.99-7.136,10.151-14.515,15.288-21.732,1.031-1.441,3.455-2.335,6.15-2.355,2.465.009,4.562.819,5.472,2.113,12.638,17.933,25.45,36.24,38.041,54.344a5.789,5.789,0,0,1,.313.862M305.736,9.954c14.231.025,28.953.046,43.433-.176l.231,0c4.559,0,7.106,2.021,9.705,5.528H336.53c-4.177,0-8.354-.027-12.532-.051-10.486-.057-21.328-.12-31.986.17a11.14,11.14,0,0,1-10.421-5.2,3.936,3.936,0,0,1,2.67-.348c.37.036.765.07,1.126.072v0q10.175-.022,20.349.007m56.088,14.26h0l-.348.242c12.724,18.353,25.646,36.855,38.413,55-.651.785-1.463.7-2.4.6a8.354,8.354,0,0,0-.886-.063c-22.206.046-44.9.057-67.457.036l-.391,0c-1.746,0-3.284.018-4.5-1.73-9.424-13.579-18.768-26.917-28.659-41.037q-5.021-7.171-10.148-14.493h71.154l.534,0c1.755-.016,3.142-.033,4.332,1.686l.348-.241Zm-44.36,88.218q0-3.152.015-6.3c.019-5.149.038-10.474-.06-15.713-.034-1.544.143-2.359.608-2.813a3.128,3.128,0,0,1,2.393-.546c5.738.247,11.344.153,16.069.028a3.12,3.12,0,0,1,2.345.573,3.347,3.347,0,0,1,.636,2.453c-.076,13.082-.082,26.343-.02,39.424H317.473c.025-3.7.014-7.456,0-11.091q-.009-3.007-.012-6.013h0ZM285.386,9.525h0v.217l0-.22Zm-17.116,5.9q.394-.456.734-.855c1.357-1.587,2.176-2.545,2.817-2.547h0c.684,0,1.633,1.046,3.291,2.955a9.993,9.993,0,0,1-3.89.393,22.952,22.952,0,0,0-2.955.054M304.987,91.1a3.411,3.411,0,0,1,.621-2.517,2.636,2.636,0,0,1,1.948-.522c2.149.057,2.247,1.125,2.242,3.167v.21q-.021,8-.011,16.01l0,5.492v3.736q0,6.426.011,12.855H305c.021-12.957.017-25.882-.013-38.427h-.422v0ZM297.3,106.483c.012,2.054.024,4.11.024,6.166,0,2.189-.007,4.376-.017,6.564-.016,3.382-.032,6.874,0,10.32H246.331c.112-12.884.1-25.937-.035-38.8h0c-.014-1.495.218-2.4.747-2.928s1.485-.742,3.04-.749c11.966.112,27.732.213,43.562-.028,1.573-.016,2.545.215,3.074.754s.741,1.51.683,3.309c-.157,5.127-.127,10.347-.1,15.395M245.885,90.735h0Zm-12.079,21.914,0,0h.423l0-6.048q-.006-7.493.012-14.979c0-.176,0-.354,0-.533a3.588,3.588,0,0,1,.492-2.471,2.283,2.283,0,0,1,1.6-.478,2.168,2.168,0,0,1,1.6.486,3.494,3.494,0,0,1,.469,2.42c0,.2-.008.406-.007.6.026,12.569.026,25.314,0,37.888h-4.158q-.014-6.169-.006-12.332v-4.553ZM407.45,135.885l-.008,11.694H220.2V135.885Z" transform="translate(21.695 30.463)" fill="#f4f4f4"/>
      </g>
      <g id="Group_1029" data-name="Group 1029">
        <text id="Profile" transform="translate(56.098 220.524)" fill="#ededed" font-size="14" font-family="Montserrat-Regular, Montserrat"><tspan x="0" y="0">Profile</tspan></text>
        <path id="Path_1429" data-name="Path 1429" d="M79.385,174.67c16.652,0,32.2-7.512,45.661-22.226a114.323,114.323,0,0,0,18.863-28.793c7.61-1.795,18.481-8.344,18.481-24.1,0-7.474-3.14-10.317-5.774-11.385-4.97-2.012-11.227,1.363-16.227,5.23-1.058-5.428-3.13-11.677-7.186-14.6a9.417,9.417,0,0,0-8.4-1.4c-7.437,2.16-11.683,9.324-11.364,19.162a38.494,38.494,0,0,0,2.3,11.915c.46,1.23.957,2.3,1.439,3.346,1.145,2.476,1.84,4.084,1.692,5.845-.214,2.542-2.23,5.323-5.993,8.268a14.388,14.388,0,0,1-7.247,3.162c-3.862.417-8.947-2.116-12.111-5.984A14.006,14.006,0,0,1,91.57,120c5.978,2.664,10.689,2.445,14.059-.665,7.492-6.917,1.908-23.757-3.371-32.747a37.331,37.331,0,0,0-4.848-6.631,43.131,43.131,0,0,0,4.74-2.855,31.722,31.722,0,0,0,11.635-14.131c2.895-7.23,2.383-15.088,1.746-20.37-2.009-16.676-8.815-29.16-19.682-36.1A40.407,40.407,0,0,0,80.992.895C62.044-2.466,42.334,3.731,26.974,17.907,15.584,28.417,7.09,43.2,3.054,59.533-2.992,84,0,109.151,11.479,130.354c11,20.312,29.539,35.541,50.871,41.786a60.541,60.541,0,0,0,17.035,2.53m73.5-77.9a9.717,9.717,0,0,1,.3,2.78c0,13.6-11.656,15.271-12.984,15.416a4.654,4.654,0,0,0-3.813,2.887,105.24,105.24,0,0,1-18.3,28.56c-15.61,16.966-33.493,22.65-53.157,16.9-18.991-5.558-35.526-19.166-45.363-37.335C9.187,106.789,6.494,83.978,11.989,61.74c3.609-14.6,11.147-27.768,21.226-37.069C46.444,12.462,63.293,7.1,79.439,9.966a31.294,31.294,0,0,1,11.5,4.318c10.654,6.8,14.289,19.755,15.452,29.415.831,6.893.475,11.781-1.153,15.848a22.57,22.57,0,0,1-8.325,9.981C85.841,77.186,66.154,80.759,35.246,54.3c-.548-.468-1.087-.941-1.627-1.414l-.183-.161a4.6,4.6,0,0,0-7.424,2.087c-.643,2.054-1.379,4.075-2.157,6.215a74.146,74.146,0,0,0-4.312,15.217C16.809,95.8,26.8,112.058,44.4,116.7c12.065,3.179,16.381-.771,17.876-4.649,1.932-5.011-.45-12.306-7.08-21.683C51.082,84.552,44.6,77.224,40.08,74.881a4.6,4.6,0,1,0-4.235,8.172c1.9.984,7.035,5.874,11.74,12.5,5.092,7.167,6.308,11.629,6.146,12.977-.549.168-2.407.481-6.986-.726-13.076-3.449-20.176-15.336-18.087-30.284.63-4.51,2.191-8.8,3.845-13.344.017-.046.033-.092.051-.138,19.245,15.6,37.1,22.307,52.665,19.907a4.5,4.5,0,0,0,1.613-.226c.967-.313,4.4,1.908,8.019,8.461,5.6,10.131,5.9,19.255,4.533,20.394-.015,0-2.4.844-9.885-4.392a4.6,4.6,0,0,0-7.152,2.868l-.136.684c-1.669,5.649-.152,11.9,4.181,17.2,5.142,6.291,13.251,10.034,20.187,9.314a23.539,23.539,0,0,0,11.967-5.069c5.946-4.652,9.05-9.474,9.494-14.745.359-4.276-1.165-7.574-2.51-10.481-.429-.927-.834-1.8-1.158-2.667a29.292,29.292,0,0,1-1.735-9.029c-.065-2.008.084-8.674,4.729-10.022a.874.874,0,0,1,.324-.053c1.544.409,4.208,7.785,4.58,16.748a4.6,4.6,0,0,0,7.9,3.018c4.466-4.591,10.336-8.792,12.712-9.181" transform="translate(3.535 21.355)" fill="#f4f4f4"/>
      </g>
      <g id="Group_1031" data-name="Group 1031">
        <text id="Map" transform="translate(579.913 220.524)" fill="#ededed" font-size="14" font-family="Montserrat-Regular, Montserrat"><tspan x="0" y="0">Map</tspan></text>
        <g id="Group_945" data-name="Group 945" transform="translate(505.6)">
          <g id="Group_441" data-name="Group 441" transform="translate(0)">
            <path id="Path_628" data-name="Path 628" d="M163.941,160.268c-.092-.148-.184-.3-.283-.445q-7.031-11.241-14.139-22.432c-1.746-2.757-3.5-5.522-5.26-8.271-.092-.156-.191-.312-.3-.46q-6.279-9.872-12.62-19.71-1.887-2.938-3.789-5.868Q119.748,91,111.865,78.987a10.182,10.182,0,0,0-2.977-2.941Q96.609,68,84.266,60.026q-2.97-1.92-5.946-3.839-9.46-6.109-18.941-12.174c-.282-.177-.559-.36-.841-.537l-7.862-5.04-6.49-4.157c-5.3-3.4-10.634-6.752-15.964-10.11a2.831,2.831,0,0,0-1.754-.742,2.48,2.48,0,0,0-2.262,1.443,2.061,2.061,0,0,0,.05,2.383c2.891,4.545,5.719,9.126,8.625,13.665q2.97,4.677,5.952,9.333,2.5,3.913,5.006,7.833c.191.29.375.586.559.876q6.077,9.5,12.188,18.975,1.91,2.97,3.832,5.932,8.177,12.661,16.459,25.26a7.794,7.794,0,0,0,2.34,2.348q12.131,7.847,24.271,15.688,2.927,1.888,5.861,3.783,9.852,6.342,19.7,12.662l.488.318q4.094,2.631,8.2,5.26,8.845,5.684,17.674,11.326c1.69,1.081,3.379,2.164,5.084,3.2a2.249,2.249,0,0,0,2.481.325,2.4,2.4,0,0,0,.474-.275,2.485,2.485,0,0,0,.5-3.486m-13.694-9.954q-3.977-2.5-7.968-5.041-4.008-2.534-8.009-5.083-9.587-6.066-19.152-12.2-16.056-10.286-32.033-20.679a7.541,7.541,0,0,1-2.284-2.277C73.632,94.153,66.584,83.18,59.535,72.2q-5.9-9.238-11.821-18.438c-.07-.107-.142-.22-.212-.326-1.627-2.538-3.26-5.062-4.879-7.593Q39.8,41.5,37.011,37.128a1.234,1.234,0,0,1-.346-.821c.6.368,1.137.686,1.675,1.026q3.9,2.48,7.813,4.977,3.816,2.438,7.628,4.878,9.363,6,18.692,12.033,6.83,4.391,13.645,8.8,9.905,6.393,19.824,12.774a3.4,3.4,0,0,1,1.011.969Q117.588,98.345,128.3,114.88q6.131,9.514,12.224,19.032,2.567,4,5.118,8c1.62,2.566,3.253,5.133,4.872,7.693.212.346.417.692.692,1.131a1.9,1.9,0,0,1-.954-.425" transform="translate(-0.881 -0.865)" fill="#f4f4f4"/>
            <path id="Path_629" data-name="Path 629" d="M96.189,84.41A11.754,11.754,0,0,0,84.75,96.083c-.106,5.811,5.3,12.131,11.637,11.517,6.441.658,11.813-5.62,11.764-11.489a11.733,11.733,0,0,0-11.963-11.7M90.59,96a5.937,5.937,0,0,1,6.038-5.762A5.855,5.855,0,1,1,90.59,96" transform="translate(-3.134 -3.122)" fill="#f4f4f4"/>
            <path id="Path_630" data-name="Path 630" d="M128.971,160.837h-.009a72.043,72.043,0,0,1-8.318,3.995l-.078.026-.009.008c-.354.121-.717.243-1.08.363a103.584,103.584,0,0,1-12.562,3.649c-.017,0-.043.01-.061.01-.985.224-1.989.432-2.982.622a3.013,3.013,0,0,0-2.473,2.1c-1.8,4.66-3.467,9.372-5.507,13.937a5.525,5.525,0,0,1-2.438,3.026h-1.3a2.879,2.879,0,0,1-1.825-1.911c-2.041-4.53-3.691-9.216-5.6-13.8-1-2.421-1.218-3.052-2.048-3.337-.528-.173-1.306-.217-2.69-.485a72.807,72.807,0,0,1-25.2-9.545c-18.26-11.439-30.131-27.546-34.669-48.789-.312-1.461-.623-2.923-.856-4.392a1.13,1.13,0,0,0-.078-.337v-.017a1.519,1.519,0,0,0-.934-.934c-3.58-1.573-7.288-2.835-10.92-4.288-1.782-.718-3.545-1.487-5.334-2.2A3.105,3.105,0,0,1,0,96.615V94.937A3.178,3.178,0,0,1,1.989,93.26c5.334-2.291,10.79-4.28,16.21-6.328a1.369,1.369,0,0,0,.943-.874V86.05a1.236,1.236,0,0,0,.078-.354,86.582,86.582,0,0,1,3.1-13.349c.069-.243.147-.476.233-.718a72.117,72.117,0,0,1,5.629-12.441,2.417,2.417,0,0,1,2.758-.363c1.885.917,2.36,1.815,1.885,3.6A14.922,14.922,0,0,1,31.7,65.17a73.129,73.129,0,0,0-6.9,22.419c0,.026-.009.061-.009.087a4.426,4.426,0,0,1-3.225,4.262q-1.518.532-3.009,1.141c-1.789.717-3.57,1.5-5.369,2.222-.346.139-.674.3-1.011.45.042.406.372.406.6.51,1.9.873,3.847,1.669,5.775,2.463,1.445.606,2.888,1.211,4.314,1.86a3.111,3.111,0,0,1,1.938,2.481c.527,2.716.846,5.457,1.47,8.154.19.83.389,1.652.6,2.472A68.067,68.067,0,0,0,75.2,162.048q2.84.764,5.775,1.27c1.807.329,3.614.623,5.395,1.038a2.637,2.637,0,0,1,1.911,1.573c.666,1.392,1.262,2.81,1.834,4.236h.009c.735,1.825,1.426,3.666,2.187,5.481.139.338.285.666.493,1.115a30.355,30.355,0,0,0,1.556-3.6c.406-1,.821-2,1.228-3,.518-1.27,1.029-2.541,1.5-3.83a3.706,3.706,0,0,1,3.354-2.594,72.674,72.674,0,0,0,17.267-4.47c2.741-1.072,5.421-2.317,8.162-3.407,1.833-.726,3.147-.259,3.873,1.219a3.058,3.058,0,0,1-.769,3.762" transform="translate(0 -2.165)" fill="#f4f4f4"/>
            <path id="Path_631" data-name="Path 631" d="M60.721,27.736h.008a72.153,72.153,0,0,1,8.319-3.995l.078-.026.008-.008c.355-.121.718-.243,1.081-.363A103.6,103.6,0,0,1,82.777,19.7c.017,0,.043-.01.06-.01.986-.224,1.99-.432,2.982-.622a3.014,3.014,0,0,0,2.474-2.1C90.09,12.3,91.759,7.59,93.8,3.026A5.522,5.522,0,0,1,96.239,0h1.3a2.879,2.879,0,0,1,1.825,1.911c2.04,4.53,3.691,9.216,5.6,13.8,1,2.421,1.218,3.052,2.047,3.337.529.173,1.307.217,2.69.484a72.82,72.82,0,0,1,25.2,9.545c18.26,11.439,30.13,27.546,34.668,48.789.313,1.461.623,2.923.857,4.392a1.124,1.124,0,0,0,.077.337v.017a1.521,1.521,0,0,0,.934.934c3.58,1.573,7.289,2.835,10.921,4.288,1.781.717,3.545,1.487,5.334,2.2a3.105,3.105,0,0,1,1.989,1.928v1.678a3.18,3.18,0,0,1-1.989,1.678c-5.334,2.291-10.79,4.28-16.211,6.328a1.371,1.371,0,0,0-.943.873v.009a1.273,1.273,0,0,0-.078.354,86.575,86.575,0,0,1-3.1,13.349c-.069.243-.147.476-.233.718a72.179,72.179,0,0,1-5.629,12.441,2.417,2.417,0,0,1-2.758.363c-1.885-.917-2.361-1.815-1.885-3.6A14.912,14.912,0,0,1,158,123.4a73.1,73.1,0,0,0,6.9-22.419c0-.026.01-.061.01-.087a4.426,4.426,0,0,1,3.225-4.262q1.517-.532,3.009-1.141c1.789-.717,3.57-1.5,5.368-2.222.347-.139.674-.3,1.012-.45-.043-.406-.373-.406-.606-.51-1.9-.873-3.847-1.669-5.774-2.463-1.445-.606-2.888-1.211-4.314-1.86a3.111,3.111,0,0,1-1.939-2.481c-.527-2.716-.846-5.456-1.469-8.154-.189-.83-.388-1.652-.6-2.472A68.07,68.07,0,0,0,114.49,26.525q-2.84-.764-5.775-1.27c-1.807-.329-3.614-.623-5.395-1.038a2.641,2.641,0,0,1-1.912-1.574c-.666-1.393-1.262-2.81-1.833-4.236h-.009c-.735-1.825-1.427-3.666-2.187-5.481-.139-.338-.285-.666-.494-1.115a30.5,30.5,0,0,0-1.556,3.6c-.405,1-.821,2-1.227,3-.519,1.27-1.029,2.541-1.5,3.83a3.705,3.705,0,0,1-3.353,2.593,72.68,72.68,0,0,0-17.267,4.47c-2.741,1.072-5.422,2.317-8.163,3.407-1.833.726-3.146.259-3.872-1.219a3.055,3.055,0,0,1,.769-3.762" transform="translate(-2.204)" fill="#f4f4f4"/>
            <path id="Path_632" data-name="Path 632" d="M129.374,144.936q-9.852-6.321-19.7-12.662l-5.861-3.783A34.94,34.94,0,0,1,60.748,85.2q-1.92-2.97-3.832-5.932Q50.8,69.8,44.729,60.289c-.184-.29-.368-.586-.559-.876a61.506,61.506,0,0,0,85.693,85.841l-.488-.318m-43.479-.58a2.506,2.506,0,0,1-2.255.3,42.159,42.159,0,0,1-12-4.285c-.347-.183-.693-.375-1.032-.558L70.6,139.8a50.3,50.3,0,0,1-20.729-20.75A55.491,55.491,0,0,1,44.89,105.3a36.211,36.211,0,0,1-.989-9.827,4.145,4.145,0,0,1,.3-1.407,1.709,1.709,0,0,1,1.669-1.216c1.01.007,2.028,0,3.047,0v.014c1.039,0,2.078-.042,3.117.007a2.316,2.316,0,0,1,1.916,2.291,2.368,2.368,0,0,1-1.91,2.311,21.982,21.982,0,0,1-2.283.085c-.671-.007-.9.291-.841.934a42.884,42.884,0,0,0,1.463,8.236c4.758,16.006,15.009,26.745,30.866,32.083a35.519,35.519,0,0,1,4.051,1.308,2.4,2.4,0,0,1,.6,4.242" transform="translate(-1.213 -2.197)" fill="#f4f4f4"/>
            <path id="Path_633" data-name="Path 633" d="M95.262,32.618a61.239,61.239,0,0,0-35.392,11.2c.283.178.559.361.842.538q9.47,6.077,18.939,12.174,2.98,1.92,5.946,3.839a34.927,34.927,0,0,1,43.288,43.055q1.9,2.927,3.789,5.868,6.341,9.841,12.619,19.71c.106.149.205.3.3.46a61.5,61.5,0,0,0-50.33-96.841m48.866,63.868c-1.018-.008-2.029,0-3.047,0v-.015c-1.018,0-2.036.042-3.047-.007a2.2,2.2,0,0,1-1.916-2.262,2.272,2.272,0,0,1,1.845-2.34,22.274,22.274,0,0,1,2.284-.092c.7.014.947-.3.891-.976a40.01,40.01,0,0,0-1.11-6.525c-3.832-15.051-12.7-25.911-26.964-32.238a47.559,47.559,0,0,0-6.709-2.242,8.112,8.112,0,0,1-1.915-.728A2.42,2.42,0,0,1,103.4,45.8a2.455,2.455,0,0,1,.961-1,2.79,2.79,0,0,1,2.079-.12,41.226,41.226,0,0,1,11.325,3.91c14.79,7.614,23.861,19.654,27.459,35.843a39.654,39.654,0,0,1,.961,8.47,6.527,6.527,0,0,1-.311,2.249,1.752,1.752,0,0,1-1.746,1.329" transform="translate(-2.215 -1.206)" fill="#f4f4f4"/>
          </g>
        </g>
      </g>
      <g id="Group_1034" data-name="Group 1034">
        <text id="Guide" transform="translate(58 525)" fill="#ededed" font-size="14" font-family="Montserrat-Regular, Montserrat"><tspan x="0" y="0">Guide</tspan></text>
        <path id="Path_1430" data-name="Path 1430" d="M268.324,156.891a7.037,7.037,0,0,1,7.846-2.683c28.617,8.517,60.9,10.6,100.959,6.292-22.25-9.262-63.686-31.055-94.124-73.747a3.782,3.782,0,0,1-.245-.33,194.612,194.612,0,0,1-11.7-18.588A3.969,3.969,0,0,1,278.011,64,186.939,186.939,0,0,0,288.2,80.4c73.108,6.824,95.285-44.129,97.84-50.751l-.415-12.988a3.967,3.967,0,1,1,7.931-.256l4.536,140.371a7.92,7.92,0,0,1-.032,1c9.539-1.448,19.451-3.173,29.884-5.259a7.092,7.092,0,0,1,7.7,10.242l-11.189,21.452a7.114,7.114,0,0,1-6.09,3.811l-48.44,1.405V206.2c12.179-1.757,18.163-4.546,18.354-4.642a3.966,3.966,0,0,1,3.535,7.1c-.83.415-14.34,6.941-42.457,6.941-14.192,0-32.12-1.661-54-6.611a3.969,3.969,0,0,1,1.619-7.772l.128.032A273.95,273.95,0,0,0,324.131,206l-2.023-15.2-31,.894h-.214a7.081,7.081,0,0,1-5.78-2.981L268.324,165.12a7.013,7.013,0,0,1,0-8.23m87.452-16.007,1.5-4.123a3.2,3.2,0,0,1,3.54-2.057l10.227,1.749,3.368-4.312a3.208,3.208,0,0,1,2.8-1.216l8.273.747,3.579-8.475-.487-15.078-3.324,6.889a3.194,3.194,0,0,1-3.164,1.794l-13.653-1.233-5.524,7.074a3.185,3.185,0,0,1-3.055,1.182L344.9,121.267l-2.79,7.675a3.189,3.189,0,0,1-2.528,2.066c5.168,3.566,10.216,6.716,15.04,9.505ZM324.92,119.95l12.24,3.921,2.652-7.294a3.192,3.192,0,0,1,3.54-2.057l15.7,2.686,5.42-6.94a3.185,3.185,0,0,1,2.8-1.216l13.184,1.189,7.671-15.9L387.573,77,382.2,89.732a3.191,3.191,0,0,1-3.23,1.939l-19.118-1.725-7.864,10.072a3.188,3.188,0,0,1-3.056,1.182l-21.2-3.626-4.1,11.289a3.194,3.194,0,0,1-3,2.1,3.231,3.231,0,0,1-.975-.152l-7.662-2.455c4.271,4.166,8.6,8.026,12.932,11.591M386.55,45.339C375.5,62.32,350.321,88.978,301.092,88.978c-2.172,0-4.4-.064-6.654-.17,2.7,3.452,5.469,6.73,8.287,9.877l15.947,5.109,3.966-10.908a3.193,3.193,0,0,1,3.54-2.057l21.95,3.754,7.761-9.939a3.192,3.192,0,0,1,2.8-1.216L377.221,85.1l9.86-23.35Zm2.98,92.2a3.213,3.213,0,0,1-2.294.7l-8.862-.8-3.47,4.445a3.19,3.19,0,0,1-3.056,1.182l-9.481-1.621-1.02,2.805a205.312,205.312,0,0,0,28.812,12.774Zm-57.276,69.312a177.78,177.78,0,0,0,29.735.234V189.649l-31.907.926Z" transform="translate(-266.989 274.776)" fill="#f4f4f4"/>
      </g>
      <g id="Group_1033" data-name="Group 1033">
        <text id="Venture" transform="translate(300.885 525)" fill="#ededed" font-size="14" font-family="Montserrat-Regular, Montserrat"><tspan x="0" y="0">Venture</tspan></text>
        <path id="Path_1431" data-name="Path 1431" d="M182.384,23.068a32.271,32.271,0,0,0-14.744-3.483,3.426,3.426,0,0,1-3.346-1.87A35.549,35.549,0,0,0,148.157,3.3C140.713-.068,132.918-.538,124.936.47c-1.614.2-3.057.6-3.45,2.433-.376,1.733.675,2.672,1.981,3.535,3.381,2.254,6.369,4.9,8.205,8.623.213.427.683.914.256,1.366-.317.333-.846.043-1.273-.06a31.619,31.619,0,0,0-11.782-.384c-10.766,1.631-18.979,7.624-26.09,15.453a2.9,2.9,0,0,0-.615,3.364c.615,1.348,1.768,1.7,3.219,1.605a34.614,34.614,0,0,1,4.208-.077c8.367.5,16.7,1.246,24.374,4.713,3.842,1.733,7.18,4.115,9.314,7.906.684,1.212.709,1.964-.657,2.911-.623.435-1.264.871-1.853,1.357-19.747,16.315-32.459,37-40.868,60.386-.291.811-.163,2.254-1.289,2.228-1.077-.017-1.077-1.443-1.4-2.28C80,94.954,69.349,78.818,53.537,66.37a1.658,1.658,0,0,1-.341-.248,1.391,1.391,0,0,1-.026-1.972c2.271-3.509,5.7-5.4,9.468-6.745,6.762-2.425,13.779-3.014,20.892-2.911,1.382.017,2.6-.256,3.142-1.648a3.216,3.216,0,0,0-.769-3.517,47.828,47.828,0,0,0-5.251-5.02C74.206,39.059,66.983,36,58.5,36.446c-1.367.068-2.7.581-4.261.35a18.274,18.274,0,0,1,6.882-7.137,2.988,2.988,0,0,0,1.5-3.4A2.767,2.767,0,0,0,60,24.127a40.5,40.5,0,0,0-9.314-.376c-9.306.726-17,4.644-22.334,12.277-1.964,2.8-4.046,3.688-7.206,3.919C11.063,40.681,3.61,47.058,1.083,56.8A37.191,37.191,0,0,0,.665,72.714c.282,1.631.964,2.834,2.671,3.014,1.6.171,2.561-.743,3.167-2.22a6.081,6.081,0,0,1,3.954-3.756c.11.137.171.179.171.222.008.956.017,1.9.017,2.86a29.387,29.387,0,0,0,6.6,18.151c.861,1.118,1.9,1.9,3.441,1.417,2.466-.768,2.245-3.2,2.126-5.908,3.047-7.854,8.683-10.9,14.94-13.028,1.5-.512,1.955-.077,2.339,1.332,3.706,13.344,6.582,26.833,7.1,40.741a2.289,2.289,0,0,1-1.648,2.672A62.756,62.756,0,0,0,7.264,174.181c-.085,2.544.9,3.466,3.39,3.517.383.009.768,0,1.152,0H173.284c.375,0,.768.017,1.144,0,2.459-.06,3.465-1.05,3.38-3.56a43.989,43.989,0,0,0-.494-5.9c-3.244-19.185-16.717-33.066-35.79-36.848-1.2-.239-1.494-.743-1.647-1.853a107.274,107.274,0,0,1-.64-20.422c.81-16.05,4.072-31.683,8.5-47.084,1.067-3.7.223-3.509,4.081-2.228,10.041,3.313,17.613,8.956,18.424,20.592a2.375,2.375,0,0,0,1.827,2.22,2.761,2.761,0,0,0,3.143-.777,38.911,38.911,0,0,0,2.612-3.526c4.329-6.745,6.523-14.07,5.729-22.138-.137-1.434.247-1.716,1.536-1.127a8.719,8.719,0,0,1,4.85,4.875c.589,1.511,1.537,2.578,3.26,2.39,4.218-.47,2.083-7.274,3.561-10.151.016-12.816-3.526-23.444-14.378-29.1M45.5,72.756c-.145-.512-.718-1.315.289-1.6,1.145-.324,2.228-1.673,3.5-.734A75.417,75.417,0,0,1,59.65,79.731c.606.657.342.888-.358,1.178a25.386,25.386,0,0,0-3.612,1.716c-1.758,1.059-2.21,2.723-1.3,4.209.887,1.451,2.621,1.75,4.336.692a24.084,24.084,0,0,1,4.961-1.955,1.044,1.044,0,0,1,1.34.316A96.444,96.444,0,0,1,74.206,99.6c-3.108,0-5.882-.026-8.648.017a21.5,21.5,0,0,0-3.227.29c-1.929.316-2.9,1.562-2.655,3.278.009.068.017.128.026.2a2.809,2.809,0,0,0,3.3,2.2,102.189,102.189,0,0,1,12.208-.222,2.97,2.97,0,0,1,3.16,2.092c.819,2.134,1.809,4.192,2.817,6.514-2.732-.23-5.216-.487-7.709-.632a57.958,57.958,0,0,0-18.73,1.8c-1.392.376-1.836-.018-1.9-1.34-.616-14.01-3.484-27.619-7.351-41.04m97.2-14.181c-2.2,7.513-4.131,15.1-5.618,22.8-.265,1.357-.751,1.289-1.759.888a24.8,24.8,0,0,0-8.964-1.7,2.694,2.694,0,0,0-.538,0,2.9,2.9,0,0,0-2.62,3.159v.017a2.6,2.6,0,0,0,2.688,2.51,26.506,26.506,0,0,1,8.367,1.776c.06.017.112.026.163.043a1.655,1.655,0,0,1,1.058,2.1c-.9,5.473-1.52,10.988-1.894,16.52-.111,1.588-.889.914-1.623.64-4.79-1.8-9.673-3.2-14.854-3.176-2.169.017-3.321,1.2-3.117,3.159.188,1.776,1.341,2.519,3.005,2.553,5.26.12,10.134,1.69,14.915,3.714a1.864,1.864,0,0,1,1.35,1.981,112.008,112.008,0,0,0,.768,13.728c.145,1.221-.256,1.392-1.3,1.409a41.87,41.87,0,0,0-14.386,2.681,1.965,1.965,0,0,1-2.5-.512,61.268,61.268,0,0,0-19.791-14.1c-1.016-.461-1.5-.863-1.059-2.109,8.324-23.606,20.968-44.267,40.86-59.984.683-.538,1.332-1.545,2.212-1.307a25.574,25.574,0,0,1,4.6,1.836c.605.282.161.931.033,1.383" transform="translate(237.137 313.176)" fill="#f4f4f4"/>
      </g>
      <g id="Group_1032" data-name="Group 1032">
        <text id="Back" transform="translate(578.691 525)" fill="#ededed" font-size="14" font-family="Montserrat-Regular, Montserrat"><tspan x="0" y="0">Back</tspan></text>
        <g id="Group_946" data-name="Group 946" transform="translate(540.628 333.854)">
          <path id="Icon_awesome-backward" data-name="Icon awesome-backward" d="M3.508,66.237l58.7,48.917a9.789,9.789,0,0,0,16.051-7.521V9.8A9.789,9.789,0,0,0,62.209,2.278L3.508,51.195A9.816,9.816,0,0,0,3.508,66.237Zm78.268,0,58.7,48.917a9.789,9.789,0,0,0,16.051-7.521V9.8a9.789,9.789,0,0,0-16.051-7.521l-58.7,48.917A9.816,9.816,0,0,0,81.776,66.237Z" transform="translate(0 156.528) rotate(-90)" fill="none" stroke="#f4f4f4" stroke-width="3"/>
          <path id="Polygon_4" data-name="Polygon 4" d="M44.131.9a1,1,0,0,1,1.527,0L88.4,51.411a1,1,0,0,1-.763,1.646H2.156a1,1,0,0,1-.763-1.646Z" transform="translate(103.449 142.569) rotate(180)" fill="#f4f4f4"/>
          <path id="Polygon_5" data-name="Polygon 5" d="M44.131.9a1,1,0,0,1,1.527,0L88.4,51.411a1,1,0,0,1-.763,1.646H2.156a1,1,0,0,1-.763-1.646Z" transform="translate(103.449 65.025) rotate(180)" fill="#f4f4f4"/>
        </g>
      </g>
    </g>
  </g>
</svg>
