<svg xmlns="http://www.w3.org/2000/svg" width="199.962" height="191.535" viewBox="0 0 199.962 191.535">
  <g id="Group_1030" data-name="Group 1030" transform="translate(-235.537 -32.989)">
    <text id="Home" transform="translate(308.037 220.524)" fill="#ededed" font-size="14" font-family="Montserrat-Regular, Montserrat"><tspan x="0" y="0">Home</tspan></text>
    <path id="Path_1428" data-name="Path 1428" d="M409.652,129.53v0h-11.49c.066-8.214.051-16.554.037-24.626q-.01-5.227-.013-10.454c0-3.562,0-5.525.838-6.374s2.695-.891,6.4-.973c.243-.006.488,0,.735,0,1.612.008,3.448.028,4.48-1.961s-.049-3.384-1-4.621c-.182-.236-.365-.471-.53-.71-12.629-18.075-25.45-36.39-38.108-54.439-.129-.185-.263-.366-.394-.543-.541-.729-1.008-1.36-.892-1.934.09-.451.56-.931,1.394-1.426a2.471,2.471,0,0,0,1.252-1.848,4.1,4.1,0,0,0-1.284-3.235c-4.131-4.224-8.387-8.48-12.65-12.65-1.248-1.214-2.877-1.214-4.457-1.211h-.16c-26.48.017-53.333.017-79.814,0-1.91,0-3.756.134-5.334,1.763-2.627,2.7-5.358,5.4-8,8.018q-1.839,1.819-3.675,3.645a4.777,4.777,0,0,0-1.692,3.528,2.5,2.5,0,0,0,1.172,1.864c.85.588,1.3,1.118,1.387,1.623.107.64-.392,1.314-.97,2.094-.136.184-.276.373-.413.568-12.57,17.912-25.206,35.981-37.559,53.707-.215.31-.464.614-.715.919-1.03,1.258-2.2,2.685-1.24,4.751,1.182,2.545,3.626,2.277,5.652,2.05,1.536-.166,2.516,0,3.093.528.615.558.878,1.594.855,3.36-.178,12.811-.193,25.789-.044,38.583h-8.514a4.163,4.163,0,0,0-4.152,4.152v16.1a4.162,4.162,0,0,0,4.152,4.153H409.652a4.163,4.163,0,0,0,4.151-4.153v-16.1a4.162,4.162,0,0,0-4.151-4.151m-23.893-38.4a3.572,3.572,0,0,1,.6-2.56,2.57,2.57,0,0,1,1.912-.522c1.966.046,1.948.991,1.916,2.556,0,.172-.006.345-.006.518q-.012,10.756,0,21.529v16.885l-4.424,0c.029-12.741.028-25.658,0-38.4m-7.687,15.411q.01,3.281.012,6.56l0,5.62c-.006,3.607-.011,7.216,0,10.823H359.343c.054-13.11.052-26.436-.008-39.61h0a3.139,3.139,0,0,1,.6-2.326,2.77,2.77,0,0,1,2.072-.519c4.9.161,9.254.159,13.308-.009a2.942,2.942,0,0,1,2.2.519c.442.43.622,1.208.6,2.6-.079,5.446-.064,10.986-.048,16.342m-26.74,1.7v4.353q-.024,8.477-.015,16.949h-4.143q0-19.149.009-38.293v-.176c0-1.861.087-2.916,2-2.936a2.287,2.287,0,0,1,1.642.472,3.59,3.59,0,0,1,.5,2.485l0,.459q.034,8.343.02,16.686M315.952,79.773l-88.474,0q4.225-6.046,8.309-11.9c4.677-6.706,9.261-13.276,13.861-19.84l1.04-1.486c4.99-7.136,10.151-14.515,15.288-21.732,1.031-1.441,3.455-2.335,6.15-2.355,2.465.009,4.562.819,5.472,2.113,12.638,17.933,25.45,36.24,38.041,54.344a5.789,5.789,0,0,1,.313.862M305.736,9.954c14.231.025,28.953.046,43.433-.176l.231,0c4.559,0,7.106,2.021,9.705,5.528H336.53c-4.177,0-8.354-.027-12.532-.051-10.486-.057-21.328-.12-31.986.17a11.14,11.14,0,0,1-10.421-5.2,3.936,3.936,0,0,1,2.67-.348c.37.036.765.07,1.126.072v0q10.175-.022,20.349.007m56.088,14.26h0l-.348.242c12.724,18.353,25.646,36.855,38.413,55-.651.785-1.463.7-2.4.6a8.354,8.354,0,0,0-.886-.063c-22.206.046-44.9.057-67.457.036l-.391,0c-1.746,0-3.284.018-4.5-1.73-9.424-13.579-18.768-26.917-28.659-41.037q-5.021-7.171-10.148-14.493h71.154l.534,0c1.755-.016,3.142-.033,4.332,1.686l.348-.241Zm-44.36,88.218q0-3.152.015-6.3c.019-5.149.038-10.474-.06-15.713-.034-1.544.143-2.359.608-2.813a3.128,3.128,0,0,1,2.393-.546c5.738.247,11.344.153,16.069.028a3.12,3.12,0,0,1,2.345.573,3.347,3.347,0,0,1,.636,2.453c-.076,13.082-.082,26.343-.02,39.424H317.473c.025-3.7.014-7.456,0-11.091q-.009-3.007-.012-6.013h0ZM285.386,9.525h0v.217l0-.22Zm-17.116,5.9q.394-.456.734-.855c1.357-1.587,2.176-2.545,2.817-2.547h0c.684,0,1.633,1.046,3.291,2.955a9.993,9.993,0,0,1-3.89.393,22.952,22.952,0,0,0-2.955.054M304.987,91.1a3.411,3.411,0,0,1,.621-2.517,2.636,2.636,0,0,1,1.948-.522c2.149.057,2.247,1.125,2.242,3.167v.21q-.021,8-.011,16.01l0,5.492v3.736q0,6.426.011,12.855H305c.021-12.957.017-25.882-.013-38.427h-.422v0ZM297.3,106.483c.012,2.054.024,4.11.024,6.166,0,2.189-.007,4.376-.017,6.564-.016,3.382-.032,6.874,0,10.32H246.331c.112-12.884.1-25.937-.035-38.8h0c-.014-1.495.218-2.4.747-2.928s1.485-.742,3.04-.749c11.966.112,27.732.213,43.562-.028,1.573-.016,2.545.215,3.074.754s.741,1.51.683,3.309c-.157,5.127-.127,10.347-.1,15.395M245.885,90.735h0Zm-12.079,21.914,0,0h.423l0-6.048q-.006-7.493.012-14.979c0-.176,0-.354,0-.533a3.588,3.588,0,0,1,.492-2.471,2.283,2.283,0,0,1,1.6-.478,2.168,2.168,0,0,1,1.6.486,3.494,3.494,0,0,1,.469,2.42c0,.2-.008.406-.007.6.026,12.569.026,25.314,0,37.888h-4.158q-.014-6.169-.006-12.332v-4.553ZM407.45,135.885l-.008,11.694H220.2V135.885Z" transform="translate(21.695 30.463)" fill="#f4f4f4"/>
  </g>
</svg>
