<svg xmlns="http://www.w3.org/2000/svg" width="187.488" height="224.524" viewBox="0 0 187.488 224.524">
  <g id="Group_1031" data-name="Group 1031" transform="translate(-505.6)">
    <text id="Map" transform="translate(579.913 220.524)" fill="#ededed" font-size="14" font-family="Montserrat-Regular, Montserrat"><tspan x="0" y="0">Map</tspan></text>
    <g id="Group_945" data-name="Group 945" transform="translate(505.6)">
      <g id="Group_441" data-name="Group 441" transform="translate(0)">
        <path id="Path_628" data-name="Path 628" d="M163.941,160.268c-.092-.148-.184-.3-.283-.445q-7.031-11.241-14.139-22.432c-1.746-2.757-3.5-5.522-5.26-8.271-.092-.156-.191-.312-.3-.46q-6.279-9.872-12.62-19.71-1.887-2.938-3.789-5.868Q119.748,91,111.865,78.987a10.182,10.182,0,0,0-2.977-2.941Q96.609,68,84.266,60.026q-2.97-1.92-5.946-3.839-9.46-6.109-18.941-12.174c-.282-.177-.559-.36-.841-.537l-7.862-5.04-6.49-4.157c-5.3-3.4-10.634-6.752-15.964-10.11a2.831,2.831,0,0,0-1.754-.742,2.48,2.48,0,0,0-2.262,1.443,2.061,2.061,0,0,0,.05,2.383c2.891,4.545,5.719,9.126,8.625,13.665q2.97,4.677,5.952,9.333,2.5,3.913,5.006,7.833c.191.29.375.586.559.876q6.077,9.5,12.188,18.975,1.91,2.97,3.832,5.932,8.177,12.661,16.459,25.26a7.794,7.794,0,0,0,2.34,2.348q12.131,7.847,24.271,15.688,2.927,1.888,5.861,3.783,9.852,6.342,19.7,12.662l.488.318q4.094,2.631,8.2,5.26,8.845,5.684,17.674,11.326c1.69,1.081,3.379,2.164,5.084,3.2a2.249,2.249,0,0,0,2.481.325,2.4,2.4,0,0,0,.474-.275,2.485,2.485,0,0,0,.5-3.486m-13.694-9.954q-3.977-2.5-7.968-5.041-4.008-2.534-8.009-5.083-9.587-6.066-19.152-12.2-16.056-10.286-32.033-20.679a7.541,7.541,0,0,1-2.284-2.277C73.632,94.153,66.584,83.18,59.535,72.2q-5.9-9.238-11.821-18.438c-.07-.107-.142-.22-.212-.326-1.627-2.538-3.26-5.062-4.879-7.593Q39.8,41.5,37.011,37.128a1.234,1.234,0,0,1-.346-.821c.6.368,1.137.686,1.675,1.026q3.9,2.48,7.813,4.977,3.816,2.438,7.628,4.878,9.363,6,18.692,12.033,6.83,4.391,13.645,8.8,9.905,6.393,19.824,12.774a3.4,3.4,0,0,1,1.011.969Q117.588,98.345,128.3,114.88q6.131,9.514,12.224,19.032,2.567,4,5.118,8c1.62,2.566,3.253,5.133,4.872,7.693.212.346.417.692.692,1.131a1.9,1.9,0,0,1-.954-.425" transform="translate(-0.881 -0.865)" fill="#f4f4f4"/>
        <path id="Path_629" data-name="Path 629" d="M96.189,84.41A11.754,11.754,0,0,0,84.75,96.083c-.106,5.811,5.3,12.131,11.637,11.517,6.441.658,11.813-5.62,11.764-11.489a11.733,11.733,0,0,0-11.963-11.7M90.59,96a5.937,5.937,0,0,1,6.038-5.762A5.855,5.855,0,1,1,90.59,96" transform="translate(-3.134 -3.122)" fill="#f4f4f4"/>
        <path id="Path_630" data-name="Path 630" d="M128.971,160.837h-.009a72.043,72.043,0,0,1-8.318,3.995l-.078.026-.009.008c-.354.121-.717.243-1.08.363a103.584,103.584,0,0,1-12.562,3.649c-.017,0-.043.01-.061.01-.985.224-1.989.432-2.982.622a3.013,3.013,0,0,0-2.473,2.1c-1.8,4.66-3.467,9.372-5.507,13.937a5.525,5.525,0,0,1-2.438,3.026h-1.3a2.879,2.879,0,0,1-1.825-1.911c-2.041-4.53-3.691-9.216-5.6-13.8-1-2.421-1.218-3.052-2.048-3.337-.528-.173-1.306-.217-2.69-.485a72.807,72.807,0,0,1-25.2-9.545c-18.26-11.439-30.131-27.546-34.669-48.789-.312-1.461-.623-2.923-.856-4.392a1.13,1.13,0,0,0-.078-.337v-.017a1.519,1.519,0,0,0-.934-.934c-3.58-1.573-7.288-2.835-10.92-4.288-1.782-.718-3.545-1.487-5.334-2.2A3.105,3.105,0,0,1,0,96.615V94.937A3.178,3.178,0,0,1,1.989,93.26c5.334-2.291,10.79-4.28,16.21-6.328a1.369,1.369,0,0,0,.943-.874V86.05a1.236,1.236,0,0,0,.078-.354,86.582,86.582,0,0,1,3.1-13.349c.069-.243.147-.476.233-.718a72.117,72.117,0,0,1,5.629-12.441,2.417,2.417,0,0,1,2.758-.363c1.885.917,2.36,1.815,1.885,3.6A14.922,14.922,0,0,1,31.7,65.17a73.129,73.129,0,0,0-6.9,22.419c0,.026-.009.061-.009.087a4.426,4.426,0,0,1-3.225,4.262q-1.518.532-3.009,1.141c-1.789.717-3.57,1.5-5.369,2.222-.346.139-.674.3-1.011.45.042.406.372.406.6.51,1.9.873,3.847,1.669,5.775,2.463,1.445.606,2.888,1.211,4.314,1.86a3.111,3.111,0,0,1,1.938,2.481c.527,2.716.846,5.457,1.47,8.154.19.83.389,1.652.6,2.472A68.067,68.067,0,0,0,75.2,162.048q2.84.764,5.775,1.27c1.807.329,3.614.623,5.395,1.038a2.637,2.637,0,0,1,1.911,1.573c.666,1.392,1.262,2.81,1.834,4.236h.009c.735,1.825,1.426,3.666,2.187,5.481.139.338.285.666.493,1.115a30.355,30.355,0,0,0,1.556-3.6c.406-1,.821-2,1.228-3,.518-1.27,1.029-2.541,1.5-3.83a3.706,3.706,0,0,1,3.354-2.594,72.674,72.674,0,0,0,17.267-4.47c2.741-1.072,5.421-2.317,8.162-3.407,1.833-.726,3.147-.259,3.873,1.219a3.058,3.058,0,0,1-.769,3.762" transform="translate(0 -2.165)" fill="#f4f4f4"/>
        <path id="Path_631" data-name="Path 631" d="M60.721,27.736h.008a72.153,72.153,0,0,1,8.319-3.995l.078-.026.008-.008c.355-.121.718-.243,1.081-.363A103.6,103.6,0,0,1,82.777,19.7c.017,0,.043-.01.06-.01.986-.224,1.99-.432,2.982-.622a3.014,3.014,0,0,0,2.474-2.1C90.09,12.3,91.759,7.59,93.8,3.026A5.522,5.522,0,0,1,96.239,0h1.3a2.879,2.879,0,0,1,1.825,1.911c2.04,4.53,3.691,9.216,5.6,13.8,1,2.421,1.218,3.052,2.047,3.337.529.173,1.307.217,2.69.484a72.82,72.82,0,0,1,25.2,9.545c18.26,11.439,30.13,27.546,34.668,48.789.313,1.461.623,2.923.857,4.392a1.124,1.124,0,0,0,.077.337v.017a1.521,1.521,0,0,0,.934.934c3.58,1.573,7.289,2.835,10.921,4.288,1.781.717,3.545,1.487,5.334,2.2a3.105,3.105,0,0,1,1.989,1.928v1.678a3.18,3.18,0,0,1-1.989,1.678c-5.334,2.291-10.79,4.28-16.211,6.328a1.371,1.371,0,0,0-.943.873v.009a1.273,1.273,0,0,0-.078.354,86.575,86.575,0,0,1-3.1,13.349c-.069.243-.147.476-.233.718a72.179,72.179,0,0,1-5.629,12.441,2.417,2.417,0,0,1-2.758.363c-1.885-.917-2.361-1.815-1.885-3.6A14.912,14.912,0,0,1,158,123.4a73.1,73.1,0,0,0,6.9-22.419c0-.026.01-.061.01-.087a4.426,4.426,0,0,1,3.225-4.262q1.517-.532,3.009-1.141c1.789-.717,3.57-1.5,5.368-2.222.347-.139.674-.3,1.012-.45-.043-.406-.373-.406-.606-.51-1.9-.873-3.847-1.669-5.774-2.463-1.445-.606-2.888-1.211-4.314-1.86a3.111,3.111,0,0,1-1.939-2.481c-.527-2.716-.846-5.456-1.469-8.154-.189-.83-.388-1.652-.6-2.472A68.07,68.07,0,0,0,114.49,26.525q-2.84-.764-5.775-1.27c-1.807-.329-3.614-.623-5.395-1.038a2.641,2.641,0,0,1-1.912-1.574c-.666-1.393-1.262-2.81-1.833-4.236h-.009c-.735-1.825-1.427-3.666-2.187-5.481-.139-.338-.285-.666-.494-1.115a30.5,30.5,0,0,0-1.556,3.6c-.405,1-.821,2-1.227,3-.519,1.27-1.029,2.541-1.5,3.83a3.705,3.705,0,0,1-3.353,2.593,72.68,72.68,0,0,0-17.267,4.47c-2.741,1.072-5.422,2.317-8.163,3.407-1.833.726-3.146.259-3.872-1.219a3.055,3.055,0,0,1,.769-3.762" transform="translate(-2.204)" fill="#f4f4f4"/>
        <path id="Path_632" data-name="Path 632" d="M129.374,144.936q-9.852-6.321-19.7-12.662l-5.861-3.783A34.94,34.94,0,0,1,60.748,85.2q-1.92-2.97-3.832-5.932Q50.8,69.8,44.729,60.289c-.184-.29-.368-.586-.559-.876a61.506,61.506,0,0,0,85.693,85.841l-.488-.318m-43.479-.58a2.506,2.506,0,0,1-2.255.3,42.159,42.159,0,0,1-12-4.285c-.347-.183-.693-.375-1.032-.558L70.6,139.8a50.3,50.3,0,0,1-20.729-20.75A55.491,55.491,0,0,1,44.89,105.3a36.211,36.211,0,0,1-.989-9.827,4.145,4.145,0,0,1,.3-1.407,1.709,1.709,0,0,1,1.669-1.216c1.01.007,2.028,0,3.047,0v.014c1.039,0,2.078-.042,3.117.007a2.316,2.316,0,0,1,1.916,2.291,2.368,2.368,0,0,1-1.91,2.311,21.982,21.982,0,0,1-2.283.085c-.671-.007-.9.291-.841.934a42.884,42.884,0,0,0,1.463,8.236c4.758,16.006,15.009,26.745,30.866,32.083a35.519,35.519,0,0,1,4.051,1.308,2.4,2.4,0,0,1,.6,4.242" transform="translate(-1.213 -2.197)" fill="#f4f4f4"/>
        <path id="Path_633" data-name="Path 633" d="M95.262,32.618a61.239,61.239,0,0,0-35.392,11.2c.283.178.559.361.842.538q9.47,6.077,18.939,12.174,2.98,1.92,5.946,3.839a34.927,34.927,0,0,1,43.288,43.055q1.9,2.927,3.789,5.868,6.341,9.841,12.619,19.71c.106.149.205.3.3.46a61.5,61.5,0,0,0-50.33-96.841m48.866,63.868c-1.018-.008-2.029,0-3.047,0v-.015c-1.018,0-2.036.042-3.047-.007a2.2,2.2,0,0,1-1.916-2.262,2.272,2.272,0,0,1,1.845-2.34,22.274,22.274,0,0,1,2.284-.092c.7.014.947-.3.891-.976a40.01,40.01,0,0,0-1.11-6.525c-3.832-15.051-12.7-25.911-26.964-32.238a47.559,47.559,0,0,0-6.709-2.242,8.112,8.112,0,0,1-1.915-.728A2.42,2.42,0,0,1,103.4,45.8a2.455,2.455,0,0,1,.961-1,2.79,2.79,0,0,1,2.079-.12,41.226,41.226,0,0,1,11.325,3.91c14.79,7.614,23.861,19.654,27.459,35.843a39.654,39.654,0,0,1,.961,8.47,6.527,6.527,0,0,1-.311,2.249,1.752,1.752,0,0,1-1.746,1.329" transform="translate(-2.215 -1.206)" fill="#f4f4f4"/>
      </g>
    </g>
  </g>
</svg>
