<svg xmlns="http://www.w3.org/2000/svg" width="169.461" height="241.666" viewBox="0 0 169.461 241.666">
  <g id="Group_1034" data-name="Group 1034" transform="translate(0 -287.334)">
    <text id="Guide" transform="translate(58 525)" fill="#ededed" font-size="14" font-family="Montserrat-Regular, Montserrat"><tspan x="0" y="0">Guide</tspan></text>
    <path id="Path_1430" data-name="Path 1430" d="M268.324,156.891a7.037,7.037,0,0,1,7.846-2.683c28.617,8.517,60.9,10.6,100.959,6.292-22.25-9.262-63.686-31.055-94.124-73.747a3.782,3.782,0,0,1-.245-.33,194.612,194.612,0,0,1-11.7-18.588A3.969,3.969,0,0,1,278.011,64,186.939,186.939,0,0,0,288.2,80.4c73.108,6.824,95.285-44.129,97.84-50.751l-.415-12.988a3.967,3.967,0,1,1,7.931-.256l4.536,140.371a7.92,7.92,0,0,1-.032,1c9.539-1.448,19.451-3.173,29.884-5.259a7.092,7.092,0,0,1,7.7,10.242l-11.189,21.452a7.114,7.114,0,0,1-6.09,3.811l-48.44,1.405V206.2c12.179-1.757,18.163-4.546,18.354-4.642a3.966,3.966,0,0,1,3.535,7.1c-.83.415-14.34,6.941-42.457,6.941-14.192,0-32.12-1.661-54-6.611a3.969,3.969,0,0,1,1.619-7.772l.128.032A273.95,273.95,0,0,0,324.131,206l-2.023-15.2-31,.894h-.214a7.081,7.081,0,0,1-5.78-2.981L268.324,165.12a7.013,7.013,0,0,1,0-8.23m87.452-16.007,1.5-4.123a3.2,3.2,0,0,1,3.54-2.057l10.227,1.749,3.368-4.312a3.208,3.208,0,0,1,2.8-1.216l8.273.747,3.579-8.475-.487-15.078-3.324,6.889a3.194,3.194,0,0,1-3.164,1.794l-13.653-1.233-5.524,7.074a3.185,3.185,0,0,1-3.055,1.182L344.9,121.267l-2.79,7.675a3.189,3.189,0,0,1-2.528,2.066c5.168,3.566,10.216,6.716,15.04,9.505ZM324.92,119.95l12.24,3.921,2.652-7.294a3.192,3.192,0,0,1,3.54-2.057l15.7,2.686,5.42-6.94a3.185,3.185,0,0,1,2.8-1.216l13.184,1.189,7.671-15.9L387.573,77,382.2,89.732a3.191,3.191,0,0,1-3.23,1.939l-19.118-1.725-7.864,10.072a3.188,3.188,0,0,1-3.056,1.182l-21.2-3.626-4.1,11.289a3.194,3.194,0,0,1-3,2.1,3.231,3.231,0,0,1-.975-.152l-7.662-2.455c4.271,4.166,8.6,8.026,12.932,11.591M386.55,45.339C375.5,62.32,350.321,88.978,301.092,88.978c-2.172,0-4.4-.064-6.654-.17,2.7,3.452,5.469,6.73,8.287,9.877l15.947,5.109,3.966-10.908a3.193,3.193,0,0,1,3.54-2.057l21.95,3.754,7.761-9.939a3.192,3.192,0,0,1,2.8-1.216L377.221,85.1l9.86-23.35Zm2.98,92.2a3.213,3.213,0,0,1-2.294.7l-8.862-.8-3.47,4.445a3.19,3.19,0,0,1-3.056,1.182l-9.481-1.621-1.02,2.805a205.312,205.312,0,0,0,28.812,12.774Zm-57.276,69.312a177.78,177.78,0,0,0,29.735.234V189.649l-31.907.926Z" transform="translate(-266.989 274.776)" fill="#f4f4f4"/>
  </g>
</svg>
