<svg xmlns="http://www.w3.org/2000/svg" width="498.005" height="88.264" viewBox="0 0 498.005 88.264">
  <g id="Group_634" data-name="Group 634" transform="translate(-416 -5965.918)">
    <g id="Group_507" data-name="Group 507" transform="translate(499.415 5983.943)">
      <text id="Home" transform="translate(26.068 69.239)" fill="#ededed" font-size="5" font-family="Montserrat-Regular, Montserrat"><tspan x="0" y="0">Home</tspan></text>
      <path id="Path_940" data-name="Path 940" d="M284.245,48.19v0h-4.131c.024-2.953.018-5.952.013-8.854q0-1.879,0-3.759c0-1.281,0-1.986.3-2.292s.969-.32,2.3-.35c.087,0,.176,0,.264,0,.58,0,1.24.01,1.611-.705a1.415,1.415,0,0,0-.361-1.662c-.066-.085-.131-.169-.191-.255-4.541-6.5-9.151-13.084-13.7-19.574-.047-.067-.094-.131-.142-.2-.194-.262-.362-.489-.321-.7.032-.162.2-.335.5-.513a.888.888,0,0,0,.45-.664,1.475,1.475,0,0,0-.462-1.163c-1.485-1.519-3.015-3.049-4.548-4.548a2.111,2.111,0,0,0-1.6-.435h-.057c-9.521.006-19.176.006-28.7,0a2.4,2.4,0,0,0-1.918.634c-.944.972-1.926,1.943-2.876,2.883q-.661.654-1.321,1.311a1.718,1.718,0,0,0-.608,1.269.9.9,0,0,0,.421.67c.306.211.469.4.5.584.038.23-.141.472-.349.753-.049.066-.1.134-.148.2-4.52,6.44-9.063,12.937-13.5,19.31-.077.111-.167.221-.257.33-.37.452-.791.965-.446,1.708.425.915,1.3.819,2.032.737a1.408,1.408,0,0,1,1.112.19c.221.2.316.573.307,1.208-.064,4.606-.07,9.272-.016,13.873h-3.061a1.5,1.5,0,0,0-1.493,1.493v5.787a1.5,1.5,0,0,0,1.493,1.493h68.91a1.5,1.5,0,0,0,1.492-1.493V49.682a1.5,1.5,0,0,0-1.492-1.492m-8.591-13.808a1.284,1.284,0,0,1,.217-.92.924.924,0,0,1,.687-.188c.707.017.7.356.689.919,0,.062,0,.124,0,.186q0,3.867,0,7.741V48.19h-1.591c.01-4.581.01-9.225,0-13.808m-2.764,5.541q0,1.18,0,2.358l0,2.02c0,1.3,0,2.595,0,3.892h-6.738c.019-4.714.019-9.5,0-14.242h0a1.129,1.129,0,0,1,.217-.836,1,1,0,0,1,.745-.186c1.762.058,3.327.057,4.785,0a1.058,1.058,0,0,1,.791.187c.159.155.224.434.216.935-.028,1.958-.023,3.95-.017,5.876m-9.614.61V42.1q-.009,3.048-.005,6.094h-1.49q0-6.885,0-13.768v-.063c0-.669.031-1.048.718-1.056a.822.822,0,0,1,.59.17,1.291,1.291,0,0,1,.178.894l0,.165q.012,3,.007,6M250.555,30.3H218.745q1.519-2.174,2.987-4.28c1.682-2.411,3.33-4.773,4.984-7.133l.374-.534c1.794-2.566,3.65-5.219,5.5-7.814a2.8,2.8,0,0,1,2.211-.847,2.43,2.43,0,0,1,1.968.76c4.544,6.448,9.15,13.03,13.678,19.539a2.08,2.08,0,0,1,.113.31M246.882,5.2c5.117.009,10.41.017,15.616-.063h.083a3.992,3.992,0,0,1,3.49,1.988h-8.117c-1.5,0-3-.01-4.506-.018-3.77-.02-7.668-.043-11.5.061A4.005,4.005,0,0,1,238.2,5.292a1.415,1.415,0,0,1,.96-.125c.133.013.275.025.4.026h0q3.658-.008,7.316,0m20.166,5.127h0l-.125.087c4.575,6.6,9.221,13.251,13.811,19.776-.234.282-.526.252-.861.216a3,3,0,0,0-.319-.023c-7.984.016-16.145.021-24.254.013h-.141a1.653,1.653,0,0,1-1.617-.622c-3.388-4.882-6.748-9.678-10.3-14.755q-1.805-2.578-3.649-5.211h25.775c.631-.006,1.13-.012,1.558.606l.125-.087ZM251.1,42.042q0-1.133.005-2.266c.007-1.851.014-3.766-.022-5.65-.012-.555.051-.848.219-1.011a1.125,1.125,0,0,1,.86-.2c2.063.089,4.079.055,5.778.01a1.122,1.122,0,0,1,.843.206,1.2,1.2,0,0,1,.229.882c-.027,4.7-.029,9.472-.007,14.175h-7.9c.009-1.331.005-2.681,0-3.988q0-1.081,0-2.162h0Zm-11.534-37h0v0Zm-6.154,2.12.264-.307c.488-.571.783-.915,1.013-.916h0c.246,0,.587.376,1.183,1.062a3.593,3.593,0,0,1-1.4.141,8.253,8.253,0,0,0-1.062.019m13.2,27.211a1.226,1.226,0,0,1,.223-.9.948.948,0,0,1,.7-.188c.773.02.808.4.806,1.139v.076q-.008,2.876,0,5.756v3.318q0,2.311,0,4.622h-1.725c.008-4.659.006-9.306,0-13.816h0ZM243.85,39.9c0,.738.009,1.478.009,2.217,0,.787,0,1.574-.006,2.36-.006,1.216-.011,2.472,0,3.711h-18.33c.04-4.632.036-9.326-.012-13.951h0a1.43,1.43,0,0,1,.269-1.053,1.548,1.548,0,0,1,1.093-.269c4.3.04,9.971.077,15.663-.01a1.516,1.516,0,0,1,1.105.271c.195.2.266.543.246,1.19-.057,1.843-.046,3.72-.035,5.535m-18.487-5.662h0ZM221.02,42.12h.153V39.944q0-2.694,0-5.386c0-.063,0-.127,0-.192a1.29,1.29,0,0,1,.177-.888.821.821,0,0,1,.576-.172.78.78,0,0,1,.574.175,1.256,1.256,0,0,1,.169.87c0,.073,0,.146,0,.217.009,4.519.009,9.1,0,13.623h-1.495q0-2.218,0-4.434V42.12Zm62.433,8.355,0,4.2H216.127v-4.2Z" transform="translate(-213.842 -2.526)" fill="#f4f4f4"/>
    </g>
    <g id="Group_512" data-name="Group 512" transform="translate(416 5979.76)">
      <text id="Profile" transform="translate(18.899 73.422)" fill="#ededed" font-size="5" font-family="Montserrat-Regular, Montserrat"><tspan x="0" y="0">Profile</tspan></text>
      <path id="Path_941" data-name="Path 941" d="M28.543,62.8c5.987,0,11.578-2.7,16.417-7.991a41.1,41.1,0,0,0,6.782-10.353,8.438,8.438,0,0,0,6.645-8.666c0-2.687-1.129-3.709-2.076-4.093-1.787-.723-4.037.49-5.834,1.88-.38-1.951-1.125-4.2-2.584-5.249a3.386,3.386,0,0,0-3.021-.5c-2.674.777-4.2,3.352-4.086,6.89A13.841,13.841,0,0,0,41.613,39c.165.442.344.829.517,1.2a4.255,4.255,0,0,1,.608,2.1c-.077.914-.8,1.914-2.155,2.973a5.173,5.173,0,0,1-2.606,1.137,5.525,5.525,0,0,1-4.355-2.152,5.036,5.036,0,0,1-.7-1.119c2.149.958,3.843.879,5.055-.239,2.694-2.487.686-8.542-1.212-11.774a13.423,13.423,0,0,0-1.743-2.384,15.509,15.509,0,0,0,1.7-1.027,11.406,11.406,0,0,0,4.183-5.081,15.071,15.071,0,0,0,.628-7.324c-.722-6-3.169-10.484-7.077-12.98A14.528,14.528,0,0,0,29.121.321,22.779,22.779,0,0,0,9.7,6.438,30.387,30.387,0,0,0,1.1,21.4,35.468,35.468,0,0,0,4.127,46.868,30.972,30.972,0,0,0,22.418,61.892a21.768,21.768,0,0,0,6.125.91m26.426-28.01a3.494,3.494,0,0,1,.11,1,5.218,5.218,0,0,1-4.668,5.543,1.673,1.673,0,0,0-1.371,1.038,37.839,37.839,0,0,1-6.579,10.269c-5.612,6.1-12.042,8.144-19.112,6.075A27.641,27.641,0,0,1,7.037,45.292,32.165,32.165,0,0,1,4.311,22.2,27.051,27.051,0,0,1,11.942,8.87a19.508,19.508,0,0,1,16.62-5.287A11.252,11.252,0,0,1,32.7,5.136c3.831,2.447,5.138,7.1,5.556,10.576a11.394,11.394,0,0,1-.415,5.7A8.115,8.115,0,0,1,34.846,25c-3.982,2.753-11.06,4.038-22.173-5.476-.2-.168-.391-.338-.585-.508l-.066-.058a1.655,1.655,0,0,0-2.669.75c-.231.739-.5,1.465-.776,2.235a26.659,26.659,0,0,0-1.55,5.471c-.983,7.032,2.609,12.878,8.937,14.547,4.338,1.143,5.89-.277,6.427-1.671.695-1.8-.162-4.425-2.545-7.8-1.478-2.091-3.81-4.726-5.434-5.568a1.655,1.655,0,1,0-1.523,2.938,18.192,18.192,0,0,1,4.221,4.493c1.831,2.577,2.268,4.181,2.21,4.666a5.086,5.086,0,0,1-2.512-.261c-4.7-1.24-7.254-5.514-6.5-10.889a23.774,23.774,0,0,1,1.383-4.8l.018-.05c6.92,5.609,13.338,8.021,18.936,7.158a1.619,1.619,0,0,0,.58-.081c.348-.113,1.582.686,2.883,3.042,2.013,3.642,2.123,6.923,1.63,7.333-.005,0-.865.3-3.554-1.579a1.655,1.655,0,0,0-2.572,1.031l-.049.246a6.738,6.738,0,0,0,1.5,6.185,8.788,8.788,0,0,0,7.258,3.349,8.463,8.463,0,0,0,4.3-1.822c2.138-1.672,3.254-3.406,3.413-5.3a7.152,7.152,0,0,0-.9-3.769c-.154-.333-.3-.648-.416-.959a10.532,10.532,0,0,1-.624-3.246c-.024-.722.03-3.119,1.7-3.6a.314.314,0,0,1,.116-.019c.555.147,1.513,2.8,1.647,6.022A1.655,1.655,0,0,0,50.4,38.093c1.606-1.651,3.716-3.161,4.571-3.3" transform="translate(0 0)" fill="#f4f4f4"/>
    </g>
    <g id="Group_510" data-name="Group 510" transform="translate(596.516 5972.082)">
      <text id="Map" transform="translate(26.72 81.1)" fill="#ededed" font-size="5" font-family="Montserrat-Regular, Montserrat"><tspan x="0" y="0">Map</tspan></text>
      <g id="Group_442" data-name="Group 442" transform="translate(0.001 0)">
        <g id="Group_441" data-name="Group 441" transform="translate(0)">
          <path id="Path_628" data-name="Path 628" d="M74.221,72.627c-.033-.053-.066-.109-.1-.16q-2.528-4.042-5.084-8.065c-.628-.991-1.258-1.985-1.891-2.974-.033-.056-.069-.112-.107-.166Q64.78,57.713,62.5,54.176q-.678-1.056-1.362-2.11Q58.332,47.723,55.5,43.4a3.661,3.661,0,0,0-1.07-1.057q-4.415-2.894-8.853-5.76l-2.138-1.38q-3.4-2.2-6.81-4.377c-.1-.064-.2-.129-.3-.193L33.5,28.823l-2.333-1.495c-1.906-1.223-3.823-2.428-5.74-3.635a1.018,1.018,0,0,0-.631-.267.892.892,0,0,0-.813.519A.741.741,0,0,0,24,24.8c1.039,1.634,2.056,3.281,3.1,4.913q1.068,1.682,2.14,3.355l1.8,2.816c.069.1.135.211.2.315q2.185,3.416,4.382,6.822.687,1.068,1.378,2.133,2.94,4.552,5.918,9.082a2.8,2.8,0,0,0,.841.844q4.362,2.821,8.726,5.64l2.107,1.36q3.542,2.28,7.081,4.552l.176.114q1.472.946,2.949,1.891,3.18,2.044,6.355,4.072c.608.389,1.215.778,1.828,1.149a.809.809,0,0,0,.892.117.862.862,0,0,0,.17-.1.894.894,0,0,0,.178-1.253M69.3,69.048q-1.43-.9-2.865-1.813t-2.88-1.827q-3.447-2.181-6.886-4.385-5.773-3.7-11.517-7.435a2.711,2.711,0,0,1-.821-.819c-2.577-3.914-5.112-7.859-7.646-11.807q-2.12-3.321-4.25-6.629l-.076-.117c-.585-.913-1.172-1.82-1.754-2.73q-1.014-1.563-2.018-3.134a.444.444,0,0,1-.124-.3c.216.132.409.247.6.369q1.4.892,2.809,1.789l2.743,1.754q3.367,2.159,6.721,4.326,2.456,1.579,4.906,3.162,3.561,2.3,7.128,4.593a1.224,1.224,0,0,1,.364.348q3.824,5.963,7.674,11.909,2.2,3.421,4.395,6.843.923,1.438,1.84,2.877c.582.923,1.17,1.845,1.752,2.766.076.124.15.249.249.407a.682.682,0,0,1-.343-.153" transform="translate(-15.593 -15.314)" fill="#f4f4f4"/>
          <path id="Path_629" data-name="Path 629" d="M88.862,84.41a4.226,4.226,0,0,0-4.113,4.2c-.038,2.089,1.906,4.362,4.184,4.141,2.316.236,4.247-2.021,4.23-4.131a4.219,4.219,0,0,0-4.3-4.207m-2.013,4.169a2.134,2.134,0,0,1,2.171-2.072,2.105,2.105,0,1,1-2.171,2.072" transform="translate(-55.404 -55.183)" fill="#f4f4f4"/>
          <path id="Path_630" data-name="Path 630" d="M46.371,95.326h0a25.9,25.9,0,0,1-2.991,1.436l-.028.009,0,0-.388.13a37.241,37.241,0,0,1-4.517,1.312l-.022,0c-.354.081-.715.155-1.072.224a1.083,1.083,0,0,0-.889.756c-.646,1.675-1.246,3.37-1.98,5.011A1.986,1.986,0,0,1,33.6,105.3h-.469a1.035,1.035,0,0,1-.656-.687c-.734-1.629-1.327-3.314-2.014-4.961-.36-.87-.438-1.1-.736-1.2-.19-.062-.47-.078-.967-.174A26.177,26.177,0,0,1,19.7,94.844,26.6,26.6,0,0,1,7.231,77.3c-.112-.525-.224-1.051-.308-1.579a.406.406,0,0,0-.028-.121V75.6a.546.546,0,0,0-.336-.336c-1.287-.565-2.62-1.019-3.926-1.542-.641-.258-1.275-.535-1.918-.789A1.116,1.116,0,0,1,0,72.235v-.6a1.143,1.143,0,0,1,.715-.6c1.918-.824,3.879-1.539,5.828-2.275a.492.492,0,0,0,.339-.314v0a.444.444,0,0,0,.028-.127,31.13,31.13,0,0,1,1.116-4.8c.025-.087.053-.171.084-.258a25.93,25.93,0,0,1,2.024-4.473.869.869,0,0,1,.992-.131c.678.33.849.653.678,1.293a5.365,5.365,0,0,1-.407.989,26.293,26.293,0,0,0-2.481,8.061c0,.009,0,.022,0,.031a1.591,1.591,0,0,1-1.16,1.532q-.546.191-1.082.41c-.643.258-1.284.538-1.93.8-.124.05-.242.109-.364.162.015.146.134.146.217.184.684.314,1.383.6,2.076.886.519.218,1.038.436,1.551.669a1.119,1.119,0,0,1,.7.892c.189.976.3,1.962.528,2.932.068.3.14.594.217.889A24.473,24.473,0,0,0,27.039,95.761q1.021.275,2.076.457c.65.118,1.3.224,1.94.373a.948.948,0,0,1,.687.566c.24.5.454,1.01.659,1.523h0c.264.656.513,1.318.786,1.971.05.122.1.24.177.4a10.913,10.913,0,0,0,.56-1.3c.146-.361.3-.718.441-1.079.186-.457.37-.914.538-1.377a1.333,1.333,0,0,1,1.206-.932,26.13,26.13,0,0,0,6.208-1.607c.985-.385,1.949-.833,2.934-1.225a.973.973,0,0,1,1.393.438,1.1,1.1,0,0,1-.277,1.352" transform="translate(0 -38.276)" fill="#f4f4f4"/>
          <path id="Path_631" data-name="Path 631" d="M60.009,9.972h0A25.944,25.944,0,0,1,63,8.536l.028-.009,0,0,.388-.131a37.249,37.249,0,0,1,4.517-1.312c.006,0,.016,0,.021,0,.355-.081.715-.155,1.072-.224a1.084,1.084,0,0,0,.89-.756c.646-1.675,1.246-3.37,1.98-5.011A1.985,1.985,0,0,1,72.779,0h.469A1.035,1.035,0,0,1,73.9.687C74.638,2.316,75.231,4,75.919,5.648c.36.87.438,1.1.736,1.2.19.062.47.078.967.174a26.182,26.182,0,0,1,9.062,3.432A26.6,26.6,0,0,1,99.149,28c.113.525.224,1.051.308,1.579a.4.4,0,0,0,.028.121V29.7a.547.547,0,0,0,.336.336c1.287.565,2.621,1.019,3.926,1.542.64.258,1.275.535,1.918.789a1.117,1.117,0,0,1,.715.693v.6a1.143,1.143,0,0,1-.715.6c-1.918.824-3.88,1.539-5.829,2.275a.493.493,0,0,0-.339.314v0a.457.457,0,0,0-.028.127,31.127,31.127,0,0,1-1.116,4.8c-.025.087-.053.171-.084.258a25.952,25.952,0,0,1-2.024,4.473.869.869,0,0,1-.992.131c-.678-.33-.849-.653-.678-1.293a5.363,5.363,0,0,1,.407-.989,26.284,26.284,0,0,0,2.481-8.061c0-.009,0-.022,0-.031a1.591,1.591,0,0,1,1.16-1.532q.545-.191,1.082-.41c.643-.258,1.284-.538,1.93-.8.125-.05.242-.109.364-.162-.016-.146-.134-.146-.218-.184-.684-.314-1.383-.6-2.076-.886-.519-.218-1.038-.436-1.551-.669a1.119,1.119,0,0,1-.7-.892c-.189-.976-.3-1.962-.528-2.932-.068-.3-.14-.594-.217-.889A24.474,24.474,0,0,0,79.341,9.537q-1.021-.275-2.076-.457c-.65-.118-1.3-.224-1.94-.373a.949.949,0,0,1-.687-.566c-.24-.5-.454-1.01-.659-1.523h0c-.264-.656-.513-1.318-.786-1.971-.05-.122-.1-.24-.178-.4a10.965,10.965,0,0,0-.56,1.3c-.146.361-.3.718-.441,1.079-.187.457-.37.914-.538,1.377a1.332,1.332,0,0,1-1.206.932,26.132,26.132,0,0,0-6.208,1.607c-.985.385-1.949.833-2.935,1.225a.972.972,0,0,1-1.392-.438,1.1,1.1,0,0,1,.277-1.352" transform="translate(-38.969)" fill="#f4f4f4"/>
          <path id="Path_632" data-name="Path 632" d="M67.5,90.163q-3.542-2.273-7.082-4.552l-2.107-1.36A12.563,12.563,0,0,1,42.827,68.683q-.69-1.068-1.378-2.133-2.2-3.4-4.382-6.822c-.066-.1-.132-.211-.2-.315A22.114,22.114,0,0,0,67.677,90.277l-.176-.114m-15.633-.208a.9.9,0,0,1-.811.107,15.158,15.158,0,0,1-4.314-1.54c-.125-.066-.249-.135-.371-.2l0,0a18.087,18.087,0,0,1-7.453-7.461,19.952,19.952,0,0,1-1.792-4.947,13.019,13.019,0,0,1-.356-3.533,1.49,1.49,0,0,1,.107-.506.615.615,0,0,1,.6-.437c.363,0,.729,0,1.1,0v.005c.374,0,.747-.015,1.121,0a.833.833,0,0,1,.689.824.851.851,0,0,1-.687.831,7.9,7.9,0,0,1-.821.03c-.241,0-.323.1-.3.336a15.419,15.419,0,0,0,.526,2.961A16.468,16.468,0,0,0,50.2,87.959a12.77,12.77,0,0,1,1.457.47.863.863,0,0,1,.216,1.525" transform="translate(-21.421 -38.841)" fill="#f4f4f4"/>
          <path id="Path_633" data-name="Path 633" d="M72.595,32.618A22.018,22.018,0,0,0,59.87,36.644c.1.064.2.13.3.194q3.4,2.185,6.81,4.377l2.138,1.38a12.558,12.558,0,0,1,15.564,15.48q.682,1.052,1.362,2.11,2.28,3.538,4.537,7.087c.038.054.074.109.107.165a22.112,22.112,0,0,0-18.1-34.819m17.57,22.964c-.366,0-.73,0-1.1,0v-.005c-.366,0-.732.015-1.1,0a.79.79,0,0,1-.689-.813.817.817,0,0,1,.663-.841,8.007,8.007,0,0,1,.821-.033c.251.005.34-.107.32-.351a14.385,14.385,0,0,0-.4-2.346A16.487,16.487,0,0,0,79,39.6a17.1,17.1,0,0,0-2.412-.806,2.916,2.916,0,0,1-.689-.262.87.87,0,0,1-.374-1.172A.883.883,0,0,1,75.866,37a1,1,0,0,1,.748-.043,14.823,14.823,0,0,1,4.072,1.406A18.281,18.281,0,0,1,90.559,51.25,14.257,14.257,0,0,1,90.9,54.3a2.347,2.347,0,0,1-.112.808.63.63,0,0,1-.628.478" transform="translate(-39.14 -21.324)" fill="#f4f4f4"/>
        </g>
      </g>
    </g>
    <g id="Group_508" data-name="Group 508" transform="translate(688.404 5965.918)">
      <text id="Guide" transform="translate(20.854 87.263)" fill="#ededed" font-size="5" font-family="Montserrat-Regular, Montserrat"><tspan x="0" y="0">Guide</tspan></text>
      <path id="Path_634" data-name="Path 634" d="M267.469,64.452a2.53,2.53,0,0,1,2.821-.965c10.289,3.062,21.9,3.813,36.3,2.262-8-3.33-22.9-11.166-33.842-26.515a1.367,1.367,0,0,1-.088-.119,69.966,69.966,0,0,1-4.207-6.683,1.427,1.427,0,0,1,2.5-1.378,67.212,67.212,0,0,0,3.663,5.895C300.9,39.4,308.875,21.083,309.793,18.7l-.149-4.67a1.426,1.426,0,1,1,2.851-.092l1.631,50.47a2.847,2.847,0,0,1-.011.36c3.43-.521,6.993-1.141,10.745-1.891a2.55,2.55,0,0,1,2.768,3.682L323.6,74.274a2.558,2.558,0,0,1-2.19,1.37L304,76.15v6.033a25.119,25.119,0,0,0,6.6-1.669,1.426,1.426,0,0,1,1.271,2.553c-.3.149-5.156,2.5-15.265,2.5a88.256,88.256,0,0,1-19.415-2.377,1.427,1.427,0,0,1,.582-2.794l.046.011a98.5,98.5,0,0,0,9.719,1.707l-.727-5.466-11.146.322h-.077a2.546,2.546,0,0,1-2.078-1.072l-6.036-8.483a2.521,2.521,0,0,1,0-2.959M298.912,58.7l.539-1.483a1.149,1.149,0,0,1,1.273-.739l3.677.629,1.211-1.55a1.153,1.153,0,0,1,1.008-.437l2.974.269,1.287-3.047-.175-5.421-1.195,2.477a1.149,1.149,0,0,1-1.138.645l-4.909-.443-1.986,2.544a1.145,1.145,0,0,1-1.1.425L295,51.644,294,54.4a1.147,1.147,0,0,1-.909.743c1.858,1.282,3.673,2.415,5.407,3.418ZM287.818,51.17l4.4,1.41.953-2.622a1.148,1.148,0,0,1,1.273-.74l5.646.966,1.949-2.5a1.145,1.145,0,0,1,1.008-.437l4.74.428,2.758-5.717-.2-6.234-1.932,4.577a1.147,1.147,0,0,1-1.161.7l-6.874-.62L297.55,44a1.146,1.146,0,0,1-1.1.425l-7.623-1.3-1.476,4.059a1.148,1.148,0,0,1-1.079.756,1.162,1.162,0,0,1-.35-.055L283.168,47c1.536,1.5,3.093,2.886,4.65,4.167m22.159-26.826c-3.973,6.105-13.026,15.69-30.726,15.69-.781,0-1.581-.023-2.392-.061.969,1.241,1.966,2.42,2.979,3.551l5.734,1.837L287,41.439a1.148,1.148,0,0,1,1.273-.74l7.892,1.35,2.79-3.574a1.148,1.148,0,0,1,1.008-.437l6.662.6,3.545-8.4ZM311.049,57.5a1.155,1.155,0,0,1-.825.253l-3.186-.288-1.248,1.6a1.147,1.147,0,0,1-1.1.425l-3.409-.583-.367,1.009A73.821,73.821,0,0,0,311.275,64.5ZM290.455,82.416a63.921,63.921,0,0,0,10.691.084V76.23l-11.472.333Z" transform="translate(-266.989 -12.557)" fill="#f4f4f4"/>
    </g>
    <g id="Group_511" data-name="Group 511" transform="translate(774.426 5975.21)">
      <text id="Venture" transform="translate(22.809 77.972)" fill="#ededed" font-size="5" font-family="Montserrat-Regular, Montserrat"><tspan x="0" y="0">Venture</tspan></text>
      <path id="Path_635" data-name="Path 635" d="M65.576,8.294a11.6,11.6,0,0,0-5.3-1.252,1.232,1.232,0,0,1-1.2-.672,12.781,12.781,0,0,0-5.8-5.185A15.188,15.188,0,0,0,44.92.169c-.58.071-1.1.215-1.24.875-.135.623.243.961.712,1.271a8.112,8.112,0,0,1,2.95,3.1c.077.153.246.328.092.491-.114.12-.3.015-.458-.021a11.368,11.368,0,0,0-4.236-.138c-3.871.586-6.824,2.741-9.381,5.556a1.05,1.05,0,0,0,.937,1.787,12.446,12.446,0,0,1,1.513-.028,24.436,24.436,0,0,1,8.764,1.694A6.871,6.871,0,0,1,47.922,17.6c.246.436.255.706-.236,1.047-.224.157-.454.313-.666.488C39.92,25,35.349,32.437,32.326,40.844c-.1.292-.059.81-.464.8-.387-.006-.387-.519-.5-.82a38.817,38.817,0,0,0-12.11-16.963.6.6,0,0,1-.122-.089.5.5,0,0,1-.01-.709,6.334,6.334,0,0,1,3.4-2.425,21.074,21.074,0,0,1,7.512-1.047c.5.006.936-.092,1.13-.592a1.156,1.156,0,0,0-.277-1.265A17.2,17.2,0,0,0,29,15.931,11.357,11.357,0,0,0,21.033,13.1a7,7,0,0,1-1.532.126,6.57,6.57,0,0,1,2.474-2.566,1.074,1.074,0,0,0,.54-1.222,1,1,0,0,0-.942-.767,14.562,14.562,0,0,0-3.349-.135,10.31,10.31,0,0,0-8.03,4.414A3.04,3.04,0,0,1,7.6,14.363,7.792,7.792,0,0,0,.389,20.422a13.372,13.372,0,0,0-.15,5.722c.1.586.347,1.019.96,1.084a1.063,1.063,0,0,0,1.139-.8A2.187,2.187,0,0,1,3.76,25.079c.04.049.061.064.061.08,0,.344.006.685.006,1.028A10.566,10.566,0,0,0,6.2,32.713a1.073,1.073,0,0,0,1.237.51c.887-.276.807-1.151.764-2.124,1.1-2.824,3.122-3.92,5.372-4.684.541-.184.7-.028.841.479a63.584,63.584,0,0,1,2.554,14.648.823.823,0,0,1-.592.961A22.564,22.564,0,0,0,2.611,62.626c-.031.915.323,1.246,1.219,1.265.138,0,.276,0,.414,0H62.3c.135,0,.276.006.411,0,.884-.021,1.246-.378,1.215-1.28a15.889,15.889,0,0,0-13.046-15.37c-.433-.086-.537-.267-.592-.666a38.57,38.57,0,0,1-.23-7.343A74.851,74.851,0,0,1,53.119,22.3c.384-1.329.08-1.262,1.467-.8,3.61,1.191,6.333,3.22,6.624,7.4a.854.854,0,0,0,.657.8A.993.993,0,0,0,63,29.425a13.993,13.993,0,0,0,.939-1.268A12.2,12.2,0,0,0,66,20.2c-.049-.516.089-.617.552-.405a3.135,3.135,0,0,1,1.744,1.753c.212.543.553.927,1.172.859,1.516-.169.749-2.615,1.28-3.65.006-4.608-1.268-8.429-5.17-10.461M16.361,26.159c-.052-.184-.258-.473.1-.574.412-.117.8-.6,1.259-.264a27.116,27.116,0,0,1,3.723,3.346c.218.236.123.319-.129.424a9.128,9.128,0,0,0-1.3.617,1.046,1.046,0,0,0-.466,1.513,1.058,1.058,0,0,0,1.559.249,8.659,8.659,0,0,1,1.784-.7.375.375,0,0,1,.482.114,34.676,34.676,0,0,1,3.3,4.93c-1.117,0-2.115-.009-3.11.006a7.73,7.73,0,0,0-1.16.1,1,1,0,0,0-.955,1.179c0,.025.006.046.009.07a1.01,1.01,0,0,0,1.188.792,36.741,36.741,0,0,1,4.389-.08,1.068,1.068,0,0,1,1.136.752c.294.767.65,1.507,1.013,2.342-.982-.083-1.876-.175-2.772-.227a20.839,20.839,0,0,0-6.734.648c-.5.135-.66-.006-.681-.482a63.277,63.277,0,0,0-2.643-14.756m34.947-5.1c-.792,2.7-1.485,5.43-2.02,8.2-.1.488-.27.464-.632.319a8.916,8.916,0,0,0-3.223-.611.969.969,0,0,0-.193,0A1.043,1.043,0,0,0,44.3,30.1v.006a.936.936,0,0,0,.967.9,9.53,9.53,0,0,1,3.008.638c.021.006.04.009.059.015a.6.6,0,0,1,.38.755c-.325,1.968-.546,3.951-.681,5.94-.04.571-.32.328-.584.23a14.925,14.925,0,0,0-5.341-1.142c-.78.006-1.194.43-1.121,1.136a.97.97,0,0,0,1.081.918,14.555,14.555,0,0,1,5.363,1.335.67.67,0,0,1,.485.712,40.272,40.272,0,0,0,.276,4.936c.052.439-.092.5-.466.506a15.054,15.054,0,0,0-5.173.964.706.706,0,0,1-.9-.184A22.029,22.029,0,0,0,34.536,42.7c-.365-.166-.54-.31-.381-.758,2.993-8.488,7.539-15.916,14.691-21.567.246-.193.479-.556.8-.47a9.2,9.2,0,0,1,1.655.66c.218.1.058.335.012.5" transform="translate(0 0)" fill="#f4f4f4"/>
    </g>
    <g id="Group_509" data-name="Group 509" transform="translate(870.223 5982.645)">
      <text id="Back" transform="translate(13.686 70.537)" fill="#ededed" font-size="5" font-family="Montserrat-Regular, Montserrat"><tspan x="0" y="0">Back</tspan></text>
      <g id="Group_440" data-name="Group 440" transform="translate(0 0)">
        <path id="Icon_awesome-backward" data-name="Icon awesome-backward" d="M1.261,23.815,22.367,41.4a3.52,3.52,0,0,0,5.771-2.7V3.523a3.52,3.52,0,0,0-5.771-2.7L1.261,18.407A3.529,3.529,0,0,0,1.261,23.815Zm28.141,0L50.508,41.4a3.52,3.52,0,0,0,5.771-2.7V3.523a3.52,3.52,0,0,0-5.771-2.7L29.4,18.407A3.529,3.529,0,0,0,29.4,23.815Z" transform="translate(0 56.279) rotate(-90)" fill="none" stroke="#f4f4f4" stroke-width="3"/>
        <path id="Polygon_4" data-name="Polygon 4" d="M15.378.9a1,1,0,0,1,1.527,0L30.891,17.431a1,1,0,0,1-.763,1.646H2.156a1,1,0,0,1-.763-1.646Z" transform="translate(37.195 51.26) rotate(180)" fill="#f4f4f4"/>
        <path id="Polygon_5" data-name="Polygon 5" d="M15.378.9a1,1,0,0,1,1.527,0L30.891,17.431a1,1,0,0,1-.763,1.646H2.156a1,1,0,0,1-.763-1.646Z" transform="translate(37.195 23.38) rotate(180)" fill="#f4f4f4"/>
      </g>
    </g>
  </g>
</svg>
