<svg xmlns="http://www.w3.org/2000/svg" width="556.399" height="350.857" viewBox="0 0 556.399 350.857">
  <g id="Group_533" data-name="Group 533" transform="translate(-995.24 -5803.5)">
    <g id="_1" transform="translate(995.24 5803.5)">
      <g id="Group_432" data-name="Group 432" transform="translate(0 0)">
        <path id="Path_847" data-name="Path 847" d="M137.741,52.686H108.656V36.771a6.033,6.033,0,0,0-6.036-6.036H90.569A36.726,36.726,0,0,0,52.309.048,37,37,0,0,0,18.087,30.735H6.036A6.033,6.033,0,0,0,0,36.771v87.8a1.639,1.639,0,0,0,.944,1.493,1.561,1.561,0,0,0,.7.154,1.772,1.772,0,0,0,1.032-.351l21.49-17.209H35.121v11.524a6.033,6.033,0,0,0,6.036,6.036H119.61L141.1,143.43a1.632,1.632,0,0,0,1.032.351,1.561,1.561,0,0,0,.7-.154,1.653,1.653,0,0,0,.944-1.493V58.722A6.033,6.033,0,0,0,137.741,52.686ZM52.484,3.34A33.482,33.482,0,0,1,87.8,36.771,32.748,32.748,0,0,1,77.728,60.654a21.294,21.294,0,0,0-6.651,15.234v2.656H63.569l9.9-35.385a1.651,1.651,0,0,0-2.5-1.822l-8.583,5.729-7.046-5.641a1.65,1.65,0,0,0-2.063,0l-7.046,5.641-8.583-5.729a1.642,1.642,0,0,0-2.48,1.822l9.724,35.406H37.558V76.3A21.437,21.437,0,0,0,31.148,60.9,33.449,33.449,0,0,1,52.462,3.34ZM43.353,90.616H65.3a2.744,2.744,0,1,1,0,5.488H43.353a2.744,2.744,0,0,1,0-5.488ZM68.047,84.58A2.745,2.745,0,0,1,65.3,87.324H43.353a2.745,2.745,0,0,1-2.744-2.744V81.836H68.047ZM48.336,78.544l-8.8-32.026,5.9,3.929a1.649,1.649,0,0,0,1.932-.088l6.958-5.575,6.958,5.575a1.683,1.683,0,0,0,1.954.088l5.883-3.929-8.956,32H48.336ZM23.6,105.345a1.772,1.772,0,0,0-1.032.351L3.293,121.15V36.771a2.745,2.745,0,0,1,2.744-2.744H17.714c-.044.5-.11,1.01-.132,1.537a36.784,36.784,0,0,0,11.3,27.7,18.009,18.009,0,0,1,5.4,13.039v3.907a1.658,1.658,0,0,0,1.646,1.646h1.383V84.6a5.967,5.967,0,0,0,1.932,4.39,5.967,5.967,0,0,0-1.932,4.39,6.033,6.033,0,0,0,6.036,6.036H65.3a6.033,6.033,0,0,0,6.036-6.036,5.967,5.967,0,0,0-1.932-4.39A5.967,5.967,0,0,0,71.34,84.6V81.858h1.383a1.658,1.658,0,0,0,1.646-1.646v-4.3a18.027,18.027,0,0,1,5.663-12.885A36.433,36.433,0,0,0,91.1,36.771c0-.922-.066-1.822-.132-2.744H102.62a2.745,2.745,0,0,1,2.744,2.744v65.852a2.745,2.745,0,0,1-2.744,2.744H23.6Zm116.888,33.343-19.273-15.431a1.589,1.589,0,0,0-1.032-.351H41.158a2.745,2.745,0,0,1-2.744-2.744V108.638H102.62a6.033,6.033,0,0,0,6.036-6.036V55.978h29.085a2.745,2.745,0,0,1,2.744,2.744V138.71Z" transform="translate(0 0.003)" fill="#1d1d1d"/>
        <path id="Path_848" data-name="Path 848" d="M36.077,19.265a1.621,1.621,0,0,0,1.6,1.317.853.853,0,0,0,.329-.044,1.614,1.614,0,0,0,1.273-1.932,24.907,24.907,0,0,0-2.48-6.893,1.64,1.64,0,0,0-2.9,1.537,21.639,21.639,0,0,1,2.151,6.014Z" transform="translate(40.29 12.966)" fill="#1d1d1d"/>
        <path id="Path_849" data-name="Path 849" d="M19.7,13.429a22.52,22.52,0,0,1,29.59.834,1.674,1.674,0,0,0,1.119.439,1.646,1.646,0,0,0,1.119-2.854A25.8,25.8,0,0,0,17.593,10.9,1.653,1.653,0,1,0,19.7,13.451Z" transform="translate(20.315 5.983)" fill="#1d1d1d"/>
        <path id="Path_850" data-name="Path 850" d="M6.523,37.92h-2.5a1.361,1.361,0,1,0,0,2.722h2.5a1.361,1.361,0,1,0,0-2.722Z" transform="translate(3.179 45.324)" fill="#1d1d1d"/>
        <path id="Path_851" data-name="Path 851" d="M10.313,37.92h-2.5a1.361,1.361,0,1,0,0,2.722h2.5a1.361,1.361,0,1,0,0-2.722Z" transform="translate(7.708 45.324)" fill="#1d1d1d"/>
        <path id="Path_852" data-name="Path 852" d="M6.491,39.25A1.368,1.368,0,0,0,5.13,40.611v2.5a1.361,1.361,0,0,0,2.722,0v-2.5A1.368,1.368,0,0,0,6.491,39.25Z" transform="translate(6.131 46.914)" fill="#1d1d1d"/>
        <path id="Path_853" data-name="Path 853" d="M6.491,35.45A1.368,1.368,0,0,0,5.13,36.811v2.5a1.361,1.361,0,0,0,2.722,0v-2.5A1.368,1.368,0,0,0,6.491,35.45Z" transform="translate(6.131 42.372)" fill="#1d1d1d"/>
        <path id="Path_854" data-name="Path 854" d="M25.246,61H22.216a1.646,1.646,0,1,0,0,3.293h3.029a1.646,1.646,0,1,0,0-3.293Z" transform="translate(24.583 72.907)" fill="#1d1d1d"/>
        <path id="Path_855" data-name="Path 855" d="M29.856,61H26.826a1.646,1.646,0,1,0,0,3.293h3.029a1.646,1.646,0,1,0,0-3.293Z" transform="translate(30.092 72.907)" fill="#1d1d1d"/>
        <path id="Path_856" data-name="Path 856" d="M25.206,62.62a1.658,1.658,0,0,0-1.646,1.646V67.3a1.646,1.646,0,1,0,3.293,0V64.266A1.658,1.658,0,0,0,25.206,62.62Z" transform="translate(28.156 74.843)" fill="#1d1d1d"/>
        <path id="Path_857" data-name="Path 857" d="M25.206,58a1.658,1.658,0,0,0-1.646,1.646v3.029a1.646,1.646,0,1,0,3.293,0V59.646A1.658,1.658,0,0,0,25.206,58Z" transform="translate(28.156 69.321)" fill="#1d1d1d"/>
        <path id="Path_858" data-name="Path 858" d="M55.246,41H52.216a1.646,1.646,0,1,0,0,3.293h3.029a1.646,1.646,0,1,0,0-3.293Z" transform="translate(60.435 49.005)" fill="#1d1d1d"/>
        <path id="Path_859" data-name="Path 859" d="M59.856,41H56.826a1.646,1.646,0,1,0,0,3.293h3.029a1.646,1.646,0,1,0,0-3.293Z" transform="translate(65.944 49.005)" fill="#1d1d1d"/>
        <path id="Path_860" data-name="Path 860" d="M55.206,42.62a1.658,1.658,0,0,0-1.646,1.646V47.3a1.646,1.646,0,0,0,3.293,0V44.266A1.658,1.658,0,0,0,55.206,42.62Z" transform="translate(64.008 50.941)" fill="#1d1d1d"/>
        <path id="Path_861" data-name="Path 861" d="M55.206,38a1.658,1.658,0,0,0-1.646,1.646v3.029a1.646,1.646,0,1,0,3.293,0V39.646A1.658,1.658,0,0,0,55.206,38Z" transform="translate(64.008 45.42)" fill="#1d1d1d"/>
        <path id="Path_862" data-name="Path 862" d="M43.206,8.293h3.029a1.646,1.646,0,1,0,0-3.293H43.206a1.646,1.646,0,1,0,0,3.293Z" transform="translate(49.667 5.983)" fill="#1d1d1d"/>
        <path id="Path_863" data-name="Path 863" d="M47.826,8.293h3.029a1.646,1.646,0,1,0,0-3.293H47.826a1.646,1.646,0,1,0,0,3.293Z" transform="translate(55.189 5.983)" fill="#1d1d1d"/>
        <path id="Path_864" data-name="Path 864" d="M46.206,12.942A1.658,1.658,0,0,0,47.853,11.3V8.266a1.646,1.646,0,0,0-3.293,0V11.3A1.658,1.658,0,0,0,46.206,12.942Z" transform="translate(53.253 7.919)" fill="#1d1d1d"/>
        <path id="Path_865" data-name="Path 865" d="M46.206,8.322a1.658,1.658,0,0,0,1.646-1.646V3.646a1.646,1.646,0,0,0-3.293,0V6.675A1.658,1.658,0,0,0,46.206,8.322Z" transform="translate(53.253 2.397)" fill="#1d1d1d"/>
        <path id="Path_866" data-name="Path 866" d="M59.216,15.293h3.029a1.646,1.646,0,1,0,0-3.293H59.216a1.646,1.646,0,0,0,0,3.293Z" transform="translate(68.801 14.348)" fill="#1d1d1d"/>
        <path id="Path_867" data-name="Path 867" d="M63.826,15.293h3.029a1.646,1.646,0,0,0,0-3.293H63.826a1.646,1.646,0,1,0,0,3.293Z" transform="translate(74.31 14.348)" fill="#1d1d1d"/>
        <path id="Path_868" data-name="Path 868" d="M62.216,19.942A1.658,1.658,0,0,0,63.863,18.3V15.266a1.646,1.646,0,1,0-3.293,0V18.3A1.658,1.658,0,0,0,62.216,19.942Z" transform="translate(72.386 16.284)" fill="#1d1d1d"/>
        <path id="Path_869" data-name="Path 869" d="M62.216,15.322a1.658,1.658,0,0,0,1.646-1.646V10.646a1.646,1.646,0,0,0-3.293,0v3.029A1.658,1.658,0,0,0,62.216,15.322Z" transform="translate(72.386 10.763)" fill="#1d1d1d"/>
        <ellipse id="Ellipse_7" data-name="Ellipse 7" cx="1.646" cy="1.646" rx="1.646" ry="1.646" transform="translate(10.975 70.096)" fill="#1d1d1d"/>
        <ellipse id="Ellipse_8" data-name="Ellipse 8" cx="1.646" cy="1.646" rx="1.646" ry="1.646" transform="translate(10.975 63.511)" fill="#1d1d1d"/>
        <ellipse id="Ellipse_9" data-name="Ellipse 9" cx="1.646" cy="1.646" rx="1.646" ry="1.646" transform="translate(10.975 54.73)" fill="#1d1d1d"/>
        <ellipse id="Ellipse_10" data-name="Ellipse 10" cx="1.646" cy="1.646" rx="1.646" ry="1.646" transform="translate(10.975 41.56)" fill="#1d1d1d"/>
      </g>
    </g>
    <g id="_1-2" data-name="_1" transform="translate(1201.54 5803.5)">
      <g id="Group_433" data-name="Group 433" transform="translate(0 0)">
        <path id="Path_870" data-name="Path 870" d="M143.778,14.821a1.644,1.644,0,0,0-1.646-1.646h-2.2a40.905,40.905,0,0,0-23.378,7.31A58.149,58.149,0,0,0,73.4,0,58.014,58.014,0,0,0,14.576,57.823C14.269,58.942,12.052,66.537,2.7,77.6,1.493,79.027-.438,81.9.088,84.976a6.907,6.907,0,0,0,3.688,4.763,96.216,96.216,0,0,0,11,5.312c-.4,3.556-1.339,13.675-.044,20.5,1.427,7.4,14.356,8.517,21.951,8.517,3.644,0,5.729,1.954,5.729,5.4v8.275a6.033,6.033,0,0,0,6.036,6.036H113.6a6.04,6.04,0,0,0,4.149-10.427,6.049,6.049,0,0,0,0-8.78,6.049,6.049,0,0,0,1.888-4.39v-2.744h2.634a1.644,1.644,0,0,0,1.646-1.646v-8.407a21.653,21.653,0,0,1,6.8-15.519,43.008,43.008,0,0,0,11.853-20.963c.154-.659.307-1.317.417-1.976a2.552,2.552,0,0,0,.088-.4,1.1,1.1,0,0,0,.044-.263c.066-.329.11-.659.154-.988a5.129,5.129,0,0,0,.154-.988c.066-.527.132-1.032.176-1.558.066-.527.11-1.076.132-1.624.022-.724.044-1.449.044-2.2a42.729,42.729,0,0,0-6.849-23.4,40.908,40.908,0,0,0,6.849-22.7Zm-3.6,50.772a37.887,37.887,0,0,1-22.609,30.094,32.369,32.369,0,0,1-4.961,1.734,35.571,35.571,0,0,1-9.219,1.339,86.066,86.066,0,0,1,20.656-22.1h0c1.668-1.273,3.183-2.327,4.478-3.2,2.832-1.844,4.654-2.788,4.7-2.81a1.615,1.615,0,0,0,.724-2.2,1.661,1.661,0,0,0-2.217-.746c-.154.088-.922.483-2.151,1.185-1.01.615-2.349,1.427-3.907,2.48a90.412,90.412,0,0,0-23.026,22.565,37.925,37.925,0,0,1,24.234-29.041,30.963,30.963,0,0,1,3.424-1.076,37.652,37.652,0,0,1,9.636-1.251h.5c-.044,1.032-.154,2.019-.263,3.029ZM82.865,114.148H80.231v-6.3A25.079,25.079,0,0,0,72.7,89.761,40,40,0,0,1,60.387,59.6a35.975,35.975,0,0,1,.307-3.776,41.167,41.167,0,0,0,37.536,24.3h.549v34.024ZM60.409,40.613h.5c.417,0,.834,0,1.251.022a32.66,32.66,0,0,1,3.622.307A37.9,37.9,0,0,1,98.23,72.025h0v.066A87.554,87.554,0,0,0,69.1,45.75a1.666,1.666,0,0,0-2.217.724,1.636,1.636,0,0,0,.746,2.217A85.747,85.747,0,0,1,97.418,76.81,37.917,37.917,0,0,1,61.924,49.789a37.373,37.373,0,0,1-1.273-6.08q-.2-1.515-.263-3.1Zm38.37,13.7h0v8.012A41.356,41.356,0,0,0,67.741,37.891a40.048,40.048,0,0,1,45.592-14.926A41.039,41.039,0,0,0,98.779,54.311ZM48.446,140.489a2.745,2.745,0,0,1-2.744-2.744V129.47c0-5.29-3.556-8.692-9.022-8.692-8.122,0-17.89-1.537-18.7-5.839-1.471-7.7.2-20.59.22-20.721a1.651,1.651,0,0,0-1.032-1.756A96.157,96.157,0,0,1,5.423,86.885,3.762,3.762,0,0,1,3.337,84.4c-.329-1.866,1.361-4.061,1.888-4.675,10.69-12.688,12.534-21.029,12.6-21.38a1.694,1.694,0,0,0,.044-.329A54.706,54.706,0,0,1,72.592,3.3h.768a54.573,54.573,0,0,1,36.987,15.409A43.244,43.244,0,0,0,64.075,37.452q-1.58-.132-3.161-.132h-2.2a1.644,1.644,0,0,0-1.646,1.646,40.443,40.443,0,0,0,1.471,10.866,41.4,41.4,0,0,0-1.449,9.658A43.375,43.375,0,0,0,70.419,92.154a21.726,21.726,0,0,1,6.519,15.695v7.946a1.644,1.644,0,0,0,1.646,1.646h2.634v2.744a6.048,6.048,0,0,0,1.888,4.39,6.049,6.049,0,0,0,0,8.78,6.048,6.048,0,0,0-1.229,7.134Zm67.894-2.744a2.745,2.745,0,0,1-2.744,2.744H87.255a2.744,2.744,0,0,1,0-5.488H113.6A2.745,2.745,0,0,1,116.34,137.745Zm0-8.78a2.745,2.745,0,0,1-2.744,2.744H87.255a2.744,2.744,0,1,1,0-5.488H113.6A2.745,2.745,0,0,1,116.34,128.965Zm0-8.78a2.745,2.745,0,0,1-2.744,2.744H87.255a2.745,2.745,0,0,1-2.744-2.744v-2.744H116.34Zm4.28-12.8v6.761H102.072V102.075h.549a39.426,39.426,0,0,0,7.595-.724,34.818,34.818,0,0,0,4.522-1.1,38.937,38.937,0,0,0,8.517-3.754A23.852,23.852,0,0,0,120.62,107.387Zm19.822-48.116h-.5a39.982,39.982,0,0,0-9.373,1.1,27.671,27.671,0,0,0-3.337.922,41.326,41.326,0,0,0-25.156,22.982h0V78.566h0V55.979h.549a40.789,40.789,0,0,0,23.817-7.617,36.549,36.549,0,0,0,2.9-2.261,39.852,39.852,0,0,0,5.51-5.707,39.217,39.217,0,0,1,5.6,18.878Zm-7.529-21.8a34.724,34.724,0,0,1-4.478,5,31.552,31.552,0,0,1-2.788,2.349,37.408,37.408,0,0,1-22.258,7.836,85.331,85.331,0,0,1,17.67-19.756c.9-.768,1.756-1.449,2.612-2.085.571-.439,1.141-.856,1.69-1.273,1.01-.724,1.954-1.361,2.788-1.954a53.779,53.779,0,0,1,5.071-3.051,1.615,1.615,0,0,0,.724-2.2,1.661,1.661,0,0,0-2.217-.746,62.276,62.276,0,0,0-6.366,3.841c-.878.615-1.844,1.3-2.854,2.041a4.119,4.119,0,0,1-.527.4c-.834.637-1.712,1.339-2.612,2.063h0a89.766,89.766,0,0,0-16.726,17.89A37.771,37.771,0,0,1,116.01,25.006q.428-.362.856-.659a20.4,20.4,0,0,1,1.778-1.3c.417-.307.856-.593,1.3-.856a37.464,37.464,0,0,1,20-5.729h.5A37.379,37.379,0,0,1,134.866,34.6a31.548,31.548,0,0,1-1.954,2.876Z" transform="translate(0.001 0.004)" fill="#1d1d1d"/>
        <path id="Path_871" data-name="Path 871" d="M29.3,12.284a1.61,1.61,0,0,0,1.141-.461,1.646,1.646,0,1,0-2.327-.044,1.664,1.664,0,0,0,1.185.5Z" transform="translate(33.043 10.75)" fill="#1d1d1d"/>
        <path id="Path_872" data-name="Path 872" d="M33.272,9.17a1.583,1.583,0,0,0,.878-.263,1.617,1.617,0,1,0-.878.263Z" transform="translate(37.806 7.016)" fill="#1d1d1d"/>
        <path id="Path_873" data-name="Path 873" d="M29.522,48.5a1.714,1.714,0,0,0,1.207-.5,1.656,1.656,0,0,0-.066-2.327A1.646,1.646,0,1,0,28.4,48.06,1.574,1.574,0,0,0,29.522,48.5Z" transform="translate(33.324 54.041)" fill="#1d1d1d"/>
        <path id="Path_874" data-name="Path 874" d="M34.4,48.536a1.642,1.642,0,1,0-1.734,2.788h0a1.637,1.637,0,0,0,.878.263,1.683,1.683,0,0,0,1.4-.79A1.662,1.662,0,0,0,34.4,48.536Z" transform="translate(38.108 57.714)" fill="#1d1d1d"/>
        <path id="Path_875" data-name="Path 875" d="M37.8,6.91a1.663,1.663,0,0,0,1.537-2.239A1.666,1.666,0,0,0,37.205,3.7h0a1.661,1.661,0,0,0,.593,3.2Z" transform="translate(43.202 4.316)" fill="#1d1d1d"/>
        <path id="Path_876" data-name="Path 876" d="M21.658,30.443A1.625,1.625,0,0,0,23.283,28.8a1.646,1.646,0,0,0-3.293,0h0a1.658,1.658,0,0,0,1.646,1.646Z" transform="translate(23.891 32.454)" fill="#1d1d1d"/>
        <path id="Path_877" data-name="Path 877" d="M21.792,25.374a1.7,1.7,0,0,0,.329.044,1.706,1.706,0,1,0-.329-.044Z" transform="translate(24.46 26.438)" fill="#1d1d1d"/>
        <path id="Path_878" data-name="Path 878" d="M22.958,20.439a1.739,1.739,0,0,0,.637.132,1.615,1.615,0,0,0,1.515-1.01,1.636,1.636,0,0,0-.856-2.151,1.663,1.663,0,0,0-2.173.878,1.646,1.646,0,0,0,.878,2.151Z" transform="translate(26.235 20.661)" fill="#1d1d1d"/>
        <path id="Path_879" data-name="Path 879" d="M26.023,16.149a1.679,1.679,0,0,0,1.361-.724,1.65,1.65,0,0,0-2.722-1.866,1.683,1.683,0,0,0,.439,2.3,1.577,1.577,0,0,0,.922.285Z" transform="translate(29.14 15.359)" fill="#1d1d1d"/>
        <path id="Path_880" data-name="Path 880" d="M25.26,41.705a1.627,1.627,0,0,0-.4,2.283,1.647,1.647,0,0,0,1.339.7,1.736,1.736,0,0,0,.966-.307,1.63,1.63,0,0,0,.4-2.283,1.653,1.653,0,0,0-2.3-.4Z" transform="translate(29.354 49.486)" fill="#1d1d1d"/>
        <path id="Path_881" data-name="Path 881" d="M21.841,32.207a1.663,1.663,0,0,0-1.273,1.954,1.638,1.638,0,0,0,1.6,1.317.967.967,0,0,0,.351-.044,1.625,1.625,0,0,0,1.273-1.954,1.669,1.669,0,0,0-1.954-1.273Z" transform="translate(24.542 38.46)" fill="#1d1d1d"/>
        <path id="Path_882" data-name="Path 882" d="M23.058,37.139A1.636,1.636,0,0,0,22.2,39.29a1.668,1.668,0,0,0,2.173.856,1.642,1.642,0,1,0-1.317-3.007Z" transform="translate(26.377 44.219)" fill="#1d1d1d"/>
        <path id="Path_883" data-name="Path 883" d="M64.036,56a6.036,6.036,0,1,0,6.036,6.036A6.033,6.033,0,0,0,64.036,56Zm0,8.78a2.744,2.744,0,1,1,2.744-2.744A2.745,2.745,0,0,1,64.036,64.78Z" transform="translate(69.316 66.932)" fill="#1d1d1d"/>
        <path id="Path_884" data-name="Path 884" d="M33.036,52a6.036,6.036,0,1,0,6.036,6.036A6.033,6.033,0,0,0,33.036,52Zm0,8.78a2.744,2.744,0,1,1,2.744-2.744A2.745,2.745,0,0,1,33.036,60.78Z" transform="translate(32.268 62.152)" fill="#1d1d1d"/>
        <path id="Path_885" data-name="Path 885" d="M18.026,36a6.036,6.036,0,1,0,6.036,6.036A6.047,6.047,0,0,0,18.026,36Zm0,8.78a2.744,2.744,0,1,1,2.744-2.744A2.759,2.759,0,0,1,18.026,44.78Z" transform="translate(14.33 43.031)" fill="#1d1d1d"/>
        <path id="Path_886" data-name="Path 886" d="M66.036,46a6.036,6.036,0,1,0,6.036,6.036A6.033,6.033,0,0,0,66.036,46Zm0,8.78a2.744,2.744,0,1,1,2.744-2.744A2.745,2.745,0,0,1,66.036,54.78Z" transform="translate(71.706 54.982)" fill="#1d1d1d"/>
        <path id="Path_887" data-name="Path 887" d="M58.036,12.073A6.036,6.036,0,1,0,52,6.036,6.033,6.033,0,0,0,58.036,12.073Zm0-8.78a2.744,2.744,0,1,1-2.744,2.744A2.745,2.745,0,0,1,58.036,3.293Z" transform="translate(62.145 0.008)" fill="#1d1d1d"/>
      </g>
    </g>
    <g id="_1-3" data-name="_1" transform="translate(1407.84 5803.501)">
      <g id="Group_434" data-name="Group 434" transform="translate(0 0)">
        <path id="Path_888" data-name="Path 888" d="M94.1,16.81a49.678,49.678,0,0,0-37.1-13.631A49.9,49.9,0,0,0,25.178,89.028a25.387,25.387,0,0,1,7.617,18.351v2.744a1.658,1.658,0,0,0,1.646,1.646h1.712v2.744a5.984,5.984,0,0,0,1.91,4.39,6,6,0,0,0,0,8.78,5.948,5.948,0,0,0-1.91,4.39,6.047,6.047,0,0,0,6.036,6.036H77.311a6.061,6.061,0,0,0,6.036-6.036,5.948,5.948,0,0,0-1.91-4.39,6,6,0,0,0,0-8.78,6.021,6.021,0,0,0,1.91-4.39v-2.744h1.69a1.644,1.644,0,0,0,1.646-1.646v-3.271A25.34,25.34,0,0,1,94.652,88.7a49.448,49.448,0,0,0,15.036-35.648A50,50,0,0,0,94.1,16.81ZM80.055,132.073a2.745,2.745,0,0,1-2.744,2.744H42.19a2.744,2.744,0,1,1,0-5.488H77.311A2.745,2.745,0,0,1,80.055,132.073Zm0-8.78a2.745,2.745,0,0,1-2.744,2.744H42.19a2.744,2.744,0,1,1,0-5.488H77.311A2.745,2.745,0,0,1,80.055,123.293Zm0-8.78a2.745,2.745,0,0,1-2.744,2.744H42.19a2.745,2.745,0,0,1-2.744-2.744v-2.744H80.055Zm-29.041-6.036L38.436,65.1l9.417,6.278a1.649,1.649,0,0,0,1.932-.088l9.966-7.968,9.944,7.968a1.649,1.649,0,0,0,1.932.088L81.021,65.1,68.245,108.476ZM92.347,86.328a28.656,28.656,0,0,0-8.956,20.524v1.624H71.67L85.477,61.7a1.656,1.656,0,0,0-2.5-1.844L70.814,67.977,60.782,59.943a1.65,1.65,0,0,0-2.063,0L48.687,67.977,36.5,59.855a1.635,1.635,0,0,0-2.48,1.822l13.544,46.8H36.087v-1.1a28.814,28.814,0,0,0-8.627-20.743A46.617,46.617,0,1,1,106.4,53.051,45.581,45.581,0,0,1,92.347,86.328Z" transform="translate(11.721 3.721)" fill="#1d1d1d"/>
        <path id="Path_889" data-name="Path 889" d="M53.8,67.11H27.456a1.646,1.646,0,1,0,0,3.293H53.8a1.646,1.646,0,1,0,0-3.293Z" transform="translate(30.845 80.208)" fill="#1d1d1d"/>
        <path id="Path_890" data-name="Path 890" d="M68.217,59.89a7.148,7.148,0,0,1-7.134-7.134,1.646,1.646,0,0,0-3.293,0,7.148,7.148,0,0,1-7.134,7.134,1.646,1.646,0,1,0,0,3.293,7.148,7.148,0,0,1,7.134,7.134,1.646,1.646,0,0,0,3.293,0,7.148,7.148,0,0,1,7.134-7.134,1.646,1.646,0,1,0,0-3.293ZM59.437,64.7a10.586,10.586,0,0,0-3.161-3.161,10.845,10.845,0,0,0,3.161-3.161A10.586,10.586,0,0,0,62.6,61.537,10.34,10.34,0,0,0,59.437,64.7Z" transform="translate(58.571 61.087)" fill="#1d1d1d"/>
        <path id="Path_891" data-name="Path 891" d="M75.217,43.88a7.134,7.134,0,0,1-7.134-7.134,1.646,1.646,0,0,0-3.293,0A7.167,7.167,0,0,1,57.656,43.9a1.646,1.646,0,1,0,0,3.293,7.129,7.129,0,0,1,7.134,7.112,1.646,1.646,0,0,0,3.293,0,7.162,7.162,0,0,1,7.134-7.134,1.646,1.646,0,1,0,0-3.293Zm-8.78,4.829a10.658,10.658,0,0,0-3.161-3.183,10.34,10.34,0,0,0,3.161-3.161A10.34,10.34,0,0,0,69.6,45.527,10.658,10.658,0,0,0,66.437,48.709Z" transform="translate(66.936 41.954)" fill="#1d1d1d"/>
        <path id="Path_892" data-name="Path 892" d="M52.656,15.173a7.148,7.148,0,0,1,7.134,7.134,1.646,1.646,0,0,0,3.293,0,7.148,7.148,0,0,1,7.134-7.134,1.646,1.646,0,0,0,0-3.293,7.148,7.148,0,0,1-7.134-7.134,1.646,1.646,0,0,0-3.293,0,7.148,7.148,0,0,1-7.134,7.134,1.646,1.646,0,1,0,0,3.293Zm8.78-4.807A10.34,10.34,0,0,0,64.6,13.527a10.586,10.586,0,0,0-3.161,3.161,10.845,10.845,0,0,0-3.161-3.161,10.586,10.586,0,0,0,3.161-3.161Z" transform="translate(60.961 3.712)" fill="#1d1d1d"/>
        <path id="Path_893" data-name="Path 893" d="M20.853,42.527a1.644,1.644,0,0,0-1.646-1.646,7.134,7.134,0,0,1-7.134-7.134,1.646,1.646,0,0,0-3.293,0A7.134,7.134,0,0,1,1.646,40.88a1.646,1.646,0,1,0,0,3.293A7.148,7.148,0,0,1,8.78,51.307a1.646,1.646,0,0,0,3.293,0,7.148,7.148,0,0,1,7.134-7.134A1.63,1.63,0,0,0,20.853,42.527ZM10.427,45.709a10.658,10.658,0,0,0-3.161-3.183,10.34,10.34,0,0,0,3.161-3.161,10.586,10.586,0,0,0,3.161,3.161A10.92,10.92,0,0,0,10.427,45.709Z" transform="translate(0 38.369)" fill="#1d1d1d"/>
        <path id="Path_894" data-name="Path 894" d="M27.217,67.89a7.148,7.148,0,0,1-7.134-7.134,1.646,1.646,0,1,0-3.293,0A7.148,7.148,0,0,1,9.656,67.89a1.646,1.646,0,1,0,0,3.293,7.148,7.148,0,0,1,7.134,7.134,1.646,1.646,0,0,0,3.293,0,7.148,7.148,0,0,1,7.134-7.134,1.646,1.646,0,1,0,0-3.293ZM18.437,72.7a10.34,10.34,0,0,0-3.161-3.161,10.586,10.586,0,0,0,3.161-3.161A10.586,10.586,0,0,0,21.6,69.537,10.34,10.34,0,0,0,18.437,72.7Z" transform="translate(9.573 70.648)" fill="#1d1d1d"/>
        <path id="Path_895" data-name="Path 895" d="M51.414,21.754a1.64,1.64,0,0,0-3.161.878,35.942,35.942,0,0,1,1.3,9.571,1.646,1.646,0,0,0,3.293,0,39.834,39.834,0,0,0-1.4-10.449Z" transform="translate(57.594 24.569)" fill="#1d1d1d"/>
        <path id="Path_896" data-name="Path 896" d="M39.441,9.086A1.645,1.645,0,1,0,38.388,12.2,35.667,35.667,0,0,1,57.924,28.315a1.659,1.659,0,0,0,1.427.834,1.56,1.56,0,0,0,.812-.22,1.651,1.651,0,0,0,.615-2.239,38.939,38.939,0,0,0-21.336-17.6Z" transform="translate(44.542 10.764)" fill="#1d1d1d"/>
        <path id="Path_897" data-name="Path 897" d="M8.191,13.091h0a1.6,1.6,0,0,0,2.239-.571A1.649,1.649,0,1,0,7.6,10.83h0a1.678,1.678,0,0,0,.571,2.261Z" transform="translate(8.821 11.984)" fill="#1d1d1d"/>
        <path id="Path_898" data-name="Path 898" d="M11.185,9.02a1.652,1.652,0,0,0,2.063-.329,1.612,1.612,0,0,0-.11-2.3,1.664,1.664,0,0,0-2.349.11,1.639,1.639,0,0,0,.132,2.327A2.059,2.059,0,0,0,11.185,9.02Z" transform="translate(12.39 7.121)" fill="#1d1d1d"/>
        <path id="Path_899" data-name="Path 899" d="M14.923,5.621a1.626,1.626,0,0,0,1.822-.088,1.64,1.64,0,1,0-2.3-.329,1.519,1.519,0,0,0,.483.439Z" transform="translate(16.884 3.079)" fill="#1d1d1d"/>
        <path id="Path_900" data-name="Path 900" d="M19.288,3.077A1.659,1.659,0,0,0,21.636.97a1.65,1.65,0,1,0-3.007,1.361,1.861,1.861,0,0,0,.637.724Z" transform="translate(22.09 0.003)" fill="#1d1d1d"/>
        <path id="Path_901" data-name="Path 901" d="M4.793,27.652a1.7,1.7,0,0,0,.988.241A1.629,1.629,0,0,0,7.3,26.137a1.651,1.651,0,0,0-1.778-1.515,1.647,1.647,0,0,0-.724,3.051Z" transform="translate(4.778 29.427)" fill="#1d1d1d"/>
        <path id="Path_902" data-name="Path 902" d="M6.062,17.679s.22.11.329.154A1.618,1.618,0,0,0,8.477,16.8,1.645,1.645,0,1,0,5.36,15.748a1.669,1.669,0,0,0,.7,1.954Z" transform="translate(6.296 17.493)" fill="#1d1d1d"/>
        <path id="Path_903" data-name="Path 903" d="M4.937,22.6a1.693,1.693,0,0,0,.637.22,1.638,1.638,0,0,0,1.844-1.427,1.619,1.619,0,0,0-1.449-1.822,1.634,1.634,0,0,0-1.844,1.4,1.672,1.672,0,0,0,.79,1.624Z" transform="translate(4.919 23.373)" fill="#1d1d1d"/>
      </g>
    </g>
    <g id="_1-4" data-name="_1" transform="translate(995.24 6005.784)">
      <g id="Group_435" data-name="Group 435" transform="translate(0 0)">
        <path id="Path_904" data-name="Path 904" d="M43.5,5.391a2.227,2.227,0,0,0-3.1,0,1.92,1.92,0,0,0-.483.7,2.185,2.185,0,0,0-.176.834,2.3,2.3,0,0,0,.176.856,1.92,1.92,0,0,0,.483.7,2.229,2.229,0,0,0,.7.483,2.218,2.218,0,0,0,2.876-2.876A2.229,2.229,0,0,0,43.5,5.391Z" transform="translate(47.511 5.695)" fill="#1d1d1d"/>
        <ellipse id="Ellipse_11" data-name="Ellipse 11" cx="2.195" cy="2.195" rx="2.195" ry="2.195" transform="translate(74.089 10.427)" fill="#1d1d1d"/>
        <path id="Path_905" data-name="Path 905" d="M31.5,5.391a2.227,2.227,0,0,0-3.1,0,1.92,1.92,0,0,0-.483.7,2.139,2.139,0,0,0,.483,2.393,2.123,2.123,0,0,0,1.537.637,2.2,2.2,0,0,0,.856-.154,2.229,2.229,0,0,0,.7-.483,2.262,2.262,0,0,0,.483-2.393,2.229,2.229,0,0,0-.483-.7Z" transform="translate(33.168 5.695)" fill="#1d1d1d"/>
        <path id="Path_906" data-name="Path 906" d="M98.237,0H6.037A6.048,6.048,0,0,0,0,6.037V124.579a6.033,6.033,0,0,0,6.037,6.037h10.01v11.525a1.68,1.68,0,0,0,.746,1.383,1.654,1.654,0,0,0,.9.263,1.761,1.761,0,0,0,.659-.132l30.426-13.04H98.259a6.033,6.033,0,0,0,6.037-6.037V6.037A6.033,6.033,0,0,0,98.259,0Zm2.744,124.579a2.745,2.745,0,0,1-2.744,2.744H48.427a1.761,1.761,0,0,0-.659.132l-28.45,12.184V128.97a1.658,1.658,0,0,0-1.646-1.646H6.037a2.745,2.745,0,0,1-2.744-2.744V25.245h97.688Zm0-102.627H3.293V6.037A2.745,2.745,0,0,1,6.037,3.293h92.2a2.745,2.745,0,0,1,2.744,2.744Z" transform="translate(0 0)" fill="#1d1d1d"/>
        <path id="Path_907" data-name="Path 907" d="M81.6,23.506a1.3,1.3,0,0,0-.11-.417,1.617,1.617,0,0,0-.088-.307v-.044L68.211.763a1.723,1.723,0,0,0-2.832,0L52.208,22.716v.044a1.259,1.259,0,0,0-.088.307,2.924,2.924,0,0,0-.11.417v114.24a6.033,6.033,0,0,0,6.037,6.037H75.609a6.033,6.033,0,0,0,6.037-6.037V23.506ZM55.281,127.319V25.855l9.879,3.293V127.3H55.281ZM68.452,29.17l9.879-3.293V127.3H68.452V29.148ZM66.806,4.847,77.519,22.694,66.806,26.272,56.093,22.694Zm11.525,132.9a2.745,2.745,0,0,1-2.744,2.744H58.025a2.745,2.745,0,0,1-2.744-2.744v-7.135h23.05Z" transform="translate(62.164 0.027)" fill="#1d1d1d"/>
        <path id="Path_908" data-name="Path 908" d="M6.646,51.221h41.71A1.658,1.658,0,0,0,50,49.575V16.646A1.658,1.658,0,0,0,48.356,15H6.646A1.658,1.658,0,0,0,5,16.646V49.575A1.658,1.658,0,0,0,6.646,51.221ZM8.293,18.293H46.71V47.928H8.293Z" transform="translate(5.976 17.928)" fill="#1d1d1d"/>
        <path id="Path_909" data-name="Path 909" d="M29.646,33.293H58.185a1.646,1.646,0,0,0,0-3.293H29.646a1.646,1.646,0,0,0,0,3.293Z" transform="translate(33.467 35.857)" fill="#1d1d1d"/>
        <path id="Path_910" data-name="Path 910" d="M54.046,36.646A1.658,1.658,0,0,0,52.4,35H17.956a1.646,1.646,0,1,0,0,3.293H52.4A1.658,1.658,0,0,0,54.046,36.646Z" transform="translate(19.494 41.833)" fill="#1d1d1d"/>
        <path id="Path_911" data-name="Path 911" d="M6.646,38.293H22.694a1.646,1.646,0,1,0,0-3.293H6.646a1.646,1.646,0,1,0,0,3.293Z" transform="translate(5.976 41.833)" fill="#1d1d1d"/>
        <path id="Path_912" data-name="Path 912" d="M61.7,40H26.706a1.646,1.646,0,1,0,0,3.293H61.7A1.646,1.646,0,0,0,61.7,40Z" transform="translate(29.953 47.809)" fill="#1d1d1d"/>
        <path id="Path_913" data-name="Path 913" d="M6.646,43.293H41.9A1.646,1.646,0,1,0,41.9,40H6.646a1.646,1.646,0,1,0,0,3.293Z" transform="translate(5.976 47.809)" fill="#1d1d1d"/>
        <path id="Path_914" data-name="Path 914" d="M29.646,18.293H58.185a1.646,1.646,0,0,0,0-3.293H29.646a1.646,1.646,0,1,0,0,3.293Z" transform="translate(33.467 17.928)" fill="#1d1d1d"/>
        <path id="Path_915" data-name="Path 915" d="M29.646,23.293H49.4A1.646,1.646,0,1,0,49.4,20H29.646a1.646,1.646,0,1,0,0,3.293Z" transform="translate(33.467 23.905)" fill="#1d1d1d"/>
        <path id="Path_916" data-name="Path 916" d="M49.041,25H37.3a1.646,1.646,0,0,0,0,3.293H49.041a1.646,1.646,0,1,0,0-3.293Z" transform="translate(42.61 29.881)" fill="#1d1d1d"/>
        <path id="Path_917" data-name="Path 917" d="M29.646,28.293h8.013a1.646,1.646,0,0,0,0-3.293H29.646a1.646,1.646,0,1,0,0,3.293Z" transform="translate(33.467 29.881)" fill="#1d1d1d"/>
        <path id="Path_918" data-name="Path 918" d="M68.129,45h-46.8a1.646,1.646,0,0,0,0,3.293h46.8a1.646,1.646,0,1,0,0-3.293Z" transform="translate(23.522 53.785)" fill="#1d1d1d"/>
        <path id="Path_919" data-name="Path 919" d="M6.646,48.293H30.092a1.646,1.646,0,1,0,0-3.293H6.646a1.646,1.646,0,1,0,0,3.293Z" transform="translate(5.976 53.785)" fill="#1d1d1d"/>
        <path id="Path_920" data-name="Path 920" d="M45.24,50H29.456a1.646,1.646,0,1,0,0,3.293H45.24a1.646,1.646,0,1,0,0-3.293Z" transform="translate(33.24 59.762)" fill="#1d1d1d"/>
        <path id="Path_921" data-name="Path 921" d="M6.646,53.293H47.939a1.646,1.646,0,1,0,0-3.293H6.646a1.646,1.646,0,1,0,0,3.293Z" transform="translate(5.976 59.762)" fill="#1d1d1d"/>
        <path id="Path_922" data-name="Path 922" d="M14.837,21.91H10.4a2.4,2.4,0,0,0,0,4.808h4.434a2.4,2.4,0,0,0,0-4.808Z" transform="translate(9.574 26.188)" fill="#1d1d1d"/>
        <path id="Path_923" data-name="Path 923" d="M21.567,21.91H17.133a2.4,2.4,0,0,0,0,4.808h4.434a2.4,2.4,0,1,0,0-4.808Z" transform="translate(17.618 26.188)" fill="#1d1d1d"/>
        <path id="Path_924" data-name="Path 924" d="M14.785,24.26a2.417,2.417,0,0,0-2.415,2.393v4.434A2.422,2.422,0,0,0,14.785,33.5a2.389,2.389,0,0,0,2.393-2.415V26.653A2.4,2.4,0,0,0,14.785,24.26Z" transform="translate(14.785 28.996)" fill="#1d1d1d"/>
        <path id="Path_925" data-name="Path 925" d="M14.785,17.52a2.422,2.422,0,0,0-2.415,2.415v4.434a2.422,2.422,0,0,0,2.415,2.415,2.389,2.389,0,0,0,2.393-2.415V19.935A2.417,2.417,0,0,0,14.785,17.52Z" transform="translate(14.785 20.94)" fill="#1d1d1d"/>
      </g>
    </g>
    <g id="_1-5" data-name="_1" transform="translate(1201.555 6005.784)">
      <g id="Group_436" data-name="Group 436" transform="translate(0 0)">
        <path id="Path_926" data-name="Path 926" d="M53.528,4.795a1.468,1.468,0,0,0-.417.11,2.085,2.085,0,0,0-.373.22.972.972,0,0,0-.329.263,3.816,3.816,0,0,0-.285.329l-.2.4-.132.4c0,.154-.044.285-.044.439a2.185,2.185,0,0,0,.176.834,1.92,1.92,0,0,0,.483.7,1.92,1.92,0,0,0,.7.483,2.185,2.185,0,0,0,.834.176,2.209,2.209,0,0,0,.856-.176,1.92,1.92,0,0,0,.7-.483,1.92,1.92,0,0,0,.483-.7,2.192,2.192,0,0,0-2.459-2.986Z" transform="translate(61.854 5.676)" fill="#1d1d1d"/>
        <ellipse id="Ellipse_12" data-name="Ellipse 12" cx="2.195" cy="2.195" rx="2.195" ry="2.195" transform="translate(100.432 10.427)" fill="#1d1d1d"/>
        <path id="Path_927" data-name="Path 927" d="M41.111,4.9a2.662,2.662,0,0,0-.7.483,2.139,2.139,0,0,0-.483,2.393,1.92,1.92,0,0,0,.483.7,1.92,1.92,0,0,0,.7.483,2.21,2.21,0,0,0,.856.176A2.182,2.182,0,0,0,43.5,8.479a2.229,2.229,0,0,0,.483-.7A2.262,2.262,0,0,0,43.5,5.384,2.283,2.283,0,0,0,41.111,4.9Z" transform="translate(47.511 5.68)" fill="#1d1d1d"/>
        <path id="Path_928" data-name="Path 928" d="M143.788,82.87a47.645,47.645,0,0,0-13.171-32.885V6.037A6.033,6.033,0,0,0,124.58,0H19.208a6.033,6.033,0,0,0-6.037,6.037V35.124H3.842A3.86,3.86,0,0,0,0,38.965V63.113a3.86,3.86,0,0,0,3.842,3.842h9.33V87.809H3.842A3.86,3.86,0,0,0,0,91.651V115.8a3.86,3.86,0,0,0,3.842,3.842h9.33v18.111a6.033,6.033,0,0,0,6.037,6.037H124.58a6.033,6.033,0,0,0,6.037-6.037v-22A47.6,47.6,0,0,0,143.788,82.87ZM57.757,105.437a7.11,7.11,0,0,0-4.917-12.118,43.818,43.818,0,0,1-1.207-8.8H67.723a53.332,53.332,0,0,0,5.291,21.733,48.321,48.321,0,0,0-9.483,6.915,43.745,43.745,0,0,1-5.773-7.727Zm70.753,7.705a48.582,48.582,0,0,0-9.44-6.893c.549-1.142,1.01-2.3,1.471-3.49h.154a7.11,7.11,0,0,0,3.271-13.435c.2-1.6.307-3.205.373-4.808h16.091a44.367,44.367,0,0,1-11.9,28.626ZM97.688,65.374A47.709,47.709,0,0,0,110,63.332,6.965,6.965,0,0,0,118.17,65.9a49.425,49.425,0,0,1,2.854,15.345H97.666V65.374Zm21.952-6.169a3.842,3.842,0,1,1-3.842-3.842A3.86,3.86,0,0,1,119.64,59.205Zm-10.976,0a5.533,5.533,0,0,0,.11,1.054,44.008,44.008,0,0,1-11.086,1.822v-22.3a53.991,53.991,0,0,1,14.028,13.588A7.123,7.123,0,0,0,108.664,59.205ZM94.4,62.081a44.386,44.386,0,0,1-16.9-4.017A52.029,52.029,0,0,1,94.4,39.778Zm0,3.293V81.246H89.763a7.1,7.1,0,0,0-13.83,0H71.06A51.911,51.911,0,0,1,76,61.005,47.9,47.9,0,0,0,94.4,65.374ZM86.668,82.892a3.842,3.842,0,1,1-3.842-3.842A3.86,3.86,0,0,1,86.668,82.892ZM75.911,84.538a7.1,7.1,0,0,0,13.83,0h4.632V100.41a47.179,47.179,0,0,0-18.44,4.39,50.7,50.7,0,0,1-4.939-20.262h4.873ZM94.4,103.7v22.282A53.189,53.189,0,0,1,77.47,107.72,44.015,44.015,0,0,1,94.4,103.7Zm3.293,0a44.11,44.11,0,0,1,16.925,4.017,52.225,52.225,0,0,1-16.925,18.242V103.7Zm0-3.293V84.538h23.357c-.044,1.339-.154,2.678-.285,4h-.044a7.111,7.111,0,0,0-3.359,13.391c-.4.966-.79,1.932-1.229,2.876A47.567,47.567,0,0,0,97.688,100.41Zm23.006-.922a3.842,3.842,0,1,1,3.842-3.842A3.86,3.86,0,0,1,120.694,99.488Zm3.622-18.264A52.985,52.985,0,0,0,121,64.013a7.055,7.055,0,0,0,1.91-4.83,6.5,6.5,0,0,0-.285-1.866,49.98,49.98,0,0,0,5.883-4.676,44.28,44.28,0,0,1,11.876,28.582H124.294Zm-3.293-26.848a7.061,7.061,0,0,0-5.247-2.327,6.55,6.55,0,0,0-.922.088,56.833,56.833,0,0,0-12.688-13.259A44.233,44.233,0,0,1,126.16,50.271a45.754,45.754,0,0,1-5.137,4.105ZM74.55,56.593a43.094,43.094,0,0,1-4.83-3.117,7,7,0,0,0,.856-3.293,6.841,6.841,0,0,0-.768-3.139,43.743,43.743,0,0,1,20.152-8.166A56,56,0,0,0,74.55,56.615Zm-7.288-6.41a3.842,3.842,0,1,1-3.842-3.842A3.86,3.86,0,0,1,67.262,50.183Zm-7,6.366a7,7,0,0,0,3.161.768,7.075,7.075,0,0,0,4.127-1.339,49.861,49.861,0,0,0,5.488,3.556,54.773,54.773,0,0,0-5.291,21.711H51.654a43.78,43.78,0,0,1,8.627-24.7Zm-7.6,40.063a3.842,3.842,0,1,1-3.842,3.842A3.86,3.86,0,0,1,52.664,96.612Zm21.843,12.579A55.937,55.937,0,0,0,90,126.928a44.586,44.586,0,0,1-24.17-11.415,44.049,44.049,0,0,1,8.671-6.322Zm43,0a45.117,45.117,0,0,1,8.627,6.278A44.211,44.211,0,0,1,102.1,126.862a55.448,55.448,0,0,0,15.411-17.694ZM16.464,6.037a2.745,2.745,0,0,1,2.744-2.744H124.58a2.745,2.745,0,0,1,2.744,2.744V21.952H16.464ZM3.293,63.113V38.965a.543.543,0,0,1,.549-.549H50.359l-8.166,8.166a1.645,1.645,0,0,0-.483,1.163V63.113a.543.543,0,0,1-.549.549H3.842A.543.543,0,0,1,3.293,63.113Zm0,52.686V91.651a.543.543,0,0,1,.549-.549h31.15l-8.166,8.166a1.645,1.645,0,0,0-.483,1.163V115.8a.543.543,0,0,1-.549.549H3.842A.543.543,0,0,1,3.293,115.8Zm121.287,24.7H19.208a2.745,2.745,0,0,1-2.744-2.744V119.64h9.33a3.86,3.86,0,0,0,3.842-3.842V101.112L40.129,90.619a1.648,1.648,0,0,0-1.163-2.81h-22.5V66.955h24.7A3.86,3.86,0,0,0,45,63.113V48.427L55.5,37.934a1.648,1.648,0,0,0-1.163-2.81H16.464V25.245H127.324v21.6A47.539,47.539,0,0,0,96.042,35.124h0A47.245,47.245,0,0,0,67.7,44.475a7.021,7.021,0,0,0-4.259-1.449,7.148,7.148,0,0,0-7.135,7.135,7.07,7.07,0,0,0,1.449,4.259,47.17,47.17,0,0,0-9.44,28.45h0A47.224,47.224,0,0,0,49.656,94a7.111,7.111,0,0,0,3.051,13.545,7.228,7.228,0,0,0,2.283-.4,47.96,47.96,0,0,0,7.288,9.418.316.316,0,0,0,.044.066c.022.022.044.022.066.044a47.769,47.769,0,0,0,33.675,13.94h0a47.539,47.539,0,0,0,31.282-11.723v18.857a2.745,2.745,0,0,1-2.744,2.744Z" transform="translate(0 0)" fill="#1d1d1d"/>
      </g>
    </g>
    <g id="_1-6" data-name="_1" transform="translate(1407.87 6005.784)">
      <g id="Group_437" data-name="Group 437" transform="translate(0)">
        <path id="Path_929" data-name="Path 929" d="M20,49.179A27.989,27.989,0,1,0,47.989,21.19,28.022,28.022,0,0,0,20,49.179Zm27.989-24.7a24.7,24.7,0,1,1-24.7,24.7A24.719,24.719,0,0,1,47.989,24.483Z" transform="translate(23.908 25.327)" fill="#1d1d1d"/>
        <path id="Path_930" data-name="Path 930" d="M39.623,53.435A12.623,12.623,0,1,0,27,40.813,12.638,12.638,0,0,0,39.623,53.435Zm0-21.952a9.33,9.33,0,1,1-9.33,9.33A9.336,9.336,0,0,1,39.623,31.483Z" transform="translate(32.275 33.694)" fill="#1d1d1d"/>
        <path id="Path_931" data-name="Path 931" d="M143.724,22.923a1.245,1.245,0,0,0-.285-.593l-.088-.11L128.072,1.849a1.7,1.7,0,0,0-2.634,0L110.2,22.177l-.11.154a1.515,1.515,0,0,0-.351.988v4.917A58.465,58.465,0,0,0,71.874,14.362a59.762,59.762,0,0,0-39.1,14.928A56.278,56.278,0,0,0,28.5,17.918,90.077,90.077,0,0,0,18.31,1.959a.068.068,0,0,1-.022-.044,1.617,1.617,0,0,1-.11-.132A.668.668,0,0,0,18,1.608a1.246,1.246,0,0,0-.4-.263,1.574,1.574,0,0,0-1.054-.11h-.066a1.118,1.118,0,0,0-.241.088c-.022,0-.044.022-.066.044a1.025,1.025,0,0,0-.22.11c-.044.044-.11.088-.154.132a1.014,1.014,0,0,0-.154.154c-.022.044-.066.066-.088.11C14.468,3.21,3.843,16.381.858,30.211c-1.3,6.059-2.217,17.035,5.708,24.082-.22,1.954-.812,7.2-1.339,14.181v.154C3.558,90.954,2.7,130.358,15.7,144.429a1.6,1.6,0,0,0,2.415,0c6.015-6.52,9.066-18.528,10.427-31.743a58.643,58.643,0,0,0,81.2,5.247v21.008a6.062,6.062,0,0,0,6.037,6.037h21.952a6.048,6.048,0,0,0,6.037-6.037V23.318A2.42,2.42,0,0,0,143.724,22.923ZM128.4,88.956V30.321l12.074-4.61V127.043H128.4ZM126.755,5.581,139.509,22.55l-12.732,4.873h-.022L114.022,22.55,126.755,5.581ZM71.874,17.655a55.182,55.182,0,0,1,37.868,14.993V43.317c-10.23-5.73-23.445-9.2-37.868-9.2s-28.143,3.6-38.461,9.527a25.614,25.614,0,0,0,.571-5.466,29.578,29.578,0,0,0-.439-5.093A55.241,55.241,0,0,1,71.874,17.655ZM109.742,99.12c-9.922,5.971-23.248,9.637-37.868,9.637-16.991,0-32.226-4.939-42.39-12.732.154-10.01-.307-19.735-.9-27.418v-.132c-.5-6.959-1.12-12.184-1.361-14.159A19.229,19.229,0,0,0,31.7,48.542c10.1-6.849,24.367-11.13,40.173-11.13,14.62,0,27.945,3.666,37.868,9.637ZM16.8,66.938H8.651c.417-5.4.878-9.549,1.12-11.613.9.022,2.064.022,3.49.022h6.1l.263-.022h.966c1.163-.022,2.283-.022,3.249-.022h.2c.241,2.064.7,6.213,1.12,11.635H16.8Zm-.79-41.644c.022-.724.044-1.471.11-2.239.11-2.393.307-4.873.571-7.464.088-.746.154-1.493.263-2.261q.362-3.194.922-6.52a86.24,86.24,0,0,1,7.683,12.557,54.767,54.767,0,0,1,4.5,12.535,29.356,29.356,0,0,1,.593,4.171A20.373,20.373,0,0,1,29.111,46.39a16.191,16.191,0,0,1-4.237,5.62H17.63c-.066-.307-.11-.637-.154-.966-.154-.9-.307-1.932-.461-3.051q-.132-.955-.263-2.042c-.044-.461-.11-.922-.154-1.383-.088-.834-.154-1.69-.241-2.59q-.132-1.778-.263-3.754c-.022-.571-.066-1.163-.088-1.756C15.873,33.087,15.851,29.355,16.005,25.294Zm-11.92,5.62c1.756-8.21,6.564-16.4,10.076-21.579-.154,1.076-.307,2.129-.417,3.161-.11.9-.22,1.778-.307,2.656-.307,2.832-.5,5.554-.637,8.166-.066,1.734-.132,3.425-.154,5.049a134.012,134.012,0,0,0,.922,18.659c.22,1.932.483,3.6.724,4.983H8.958c-6.915-5.927-6.037-15.718-4.873-21.1Zm12.82,109.849C6.28,126.714,6.895,91.48,8.388,70.231H25.4c.483,6.674.856,14.708.834,23.05,0,1.4-.022,2.832-.044,4.259-.044,2.2-.132,4.39-.22,6.564-.11,1.712-.22,3.425-.351,5.115-1.032,12.842-3.534,24.718-8.715,31.546Zm54.969-12.249A55.3,55.3,0,0,1,28.957,108.1c.2-2.7.329-5.444.439-8.166C40.087,107.4,55.19,112.05,71.874,112.05c14.423,0,27.638-3.468,37.868-9.22v10.691A55.182,55.182,0,0,1,71.874,128.514Zm41.161-18.33V25.711l12.074,4.61v96.722H113.035V110.184Zm27.44,28.758a2.745,2.745,0,0,1-2.744,2.744H115.779a2.759,2.759,0,0,1-2.744-2.744v-8.605h27.44Z" transform="translate(0.002 1.422)" fill="#1d1d1d"/>
        <ellipse id="Ellipse_13" data-name="Ellipse 13" cx="1.646" cy="1.646" rx="1.646" ry="1.646" transform="translate(52.667 138.717)" fill="#1d1d1d"/>
        <ellipse id="Ellipse_14" data-name="Ellipse 14" cx="1.646" cy="1.646" rx="1.646" ry="1.646" transform="translate(59.253 138.717)" fill="#1d1d1d"/>
        <ellipse id="Ellipse_15" data-name="Ellipse 15" cx="1.646" cy="1.646" rx="1.646" ry="1.646" transform="translate(68.034 138.717)" fill="#1d1d1d"/>
        <ellipse id="Ellipse_16" data-name="Ellipse 16" cx="1.646" cy="1.646" rx="1.646" ry="1.646" transform="translate(81.205 138.717)" fill="#1d1d1d"/>
        <ellipse id="Ellipse_17" data-name="Ellipse 17" cx="1.646" cy="1.646" rx="1.646" ry="1.646" transform="translate(82.874 7.003)" fill="#1d1d1d"/>
        <ellipse id="Ellipse_18" data-name="Ellipse 18" cx="1.646" cy="1.646" rx="1.646" ry="1.646" transform="translate(76.288 7.003)" fill="#1d1d1d"/>
        <ellipse id="Ellipse_19" data-name="Ellipse 19" cx="1.646" cy="1.646" rx="1.646" ry="1.646" transform="translate(67.485 7.003)" fill="#1d1d1d"/>
        <ellipse id="Ellipse_20" data-name="Ellipse 20" cx="1.646" cy="1.646" rx="1.646" ry="1.646" transform="translate(54.314 7.003)" fill="#1d1d1d"/>
        <path id="Path_932" data-name="Path 932" d="M42.886,6.293h3.029a1.646,1.646,0,1,0,0-3.293H42.886a1.646,1.646,0,0,0,0,3.293Z" transform="translate(49.295 3.586)" fill="#1d1d1d"/>
        <path id="Path_933" data-name="Path 933" d="M47.506,6.293h3.029a1.646,1.646,0,1,0,0-3.293H47.506a1.646,1.646,0,1,0,0,3.293Z" transform="translate(54.817 3.586)" fill="#1d1d1d"/>
        <path id="Path_934" data-name="Path 934" d="M45.886,10.942A1.658,1.658,0,0,0,47.533,9.3V6.266a1.646,1.646,0,0,0-3.293,0V9.3A1.658,1.658,0,0,0,45.886,10.942Z" transform="translate(52.881 5.522)" fill="#1d1d1d"/>
        <path id="Path_935" data-name="Path 935" d="M45.886,6.322a1.658,1.658,0,0,0,1.646-1.646V1.646a1.646,1.646,0,0,0-3.293,0V4.676A1.658,1.658,0,0,0,45.886,6.322Z" transform="translate(52.881)" fill="#1d1d1d"/>
        <path id="Path_936" data-name="Path 936" d="M18.926,63.19H15.9a1.646,1.646,0,0,0,0,3.293h3.029a1.646,1.646,0,1,0,0-3.293Z" transform="translate(17.035 75.527)" fill="#1d1d1d"/>
        <path id="Path_937" data-name="Path 937" d="M23.536,63.19H20.506a1.646,1.646,0,1,0,0,3.293h3.029a1.646,1.646,0,1,0,0-3.293Z" transform="translate(22.546 75.527)" fill="#1d1d1d"/>
        <path id="Path_938" data-name="Path 938" d="M18.886,64.8a1.658,1.658,0,0,0-1.646,1.646v3.029a1.646,1.646,0,0,0,3.293,0V66.446A1.658,1.658,0,0,0,18.886,64.8Z" transform="translate(20.609 77.451)" fill="#1d1d1d"/>
        <path id="Path_939" data-name="Path 939" d="M18.886,60.19a1.658,1.658,0,0,0-1.646,1.646v3.029a1.646,1.646,0,0,0,3.293,0V61.836A1.658,1.658,0,0,0,18.886,60.19Z" transform="translate(20.609 71.941)" fill="#1d1d1d"/>
      </g>
    </g>
  </g>
</svg>
