<svg xmlns="http://www.w3.org/2000/svg" width="601.628" height="354.378" viewBox="0 0 601.628 354.378">
  <g id="Group_1026" data-name="Group 1026" transform="translate(-995.24 -5828.5)">
    <g id="_1" transform="translate(995.24 5828.5)">
      <g id="Group_432" data-name="Group 432" transform="translate(0 0)">
        <path id="Path_847" data-name="Path 847" d="M148.938,56.969H117.489V39.761a6.523,6.523,0,0,0-6.527-6.527H97.931A39.712,39.712,0,0,0,56.561.052a40,40,0,0,0-37,33.182H6.527A6.523,6.523,0,0,0,0,39.761V134.7a1.772,1.772,0,0,0,1.021,1.614,1.688,1.688,0,0,0,.76.166A1.916,1.916,0,0,0,2.9,136.1l23.237-18.608H37.976v12.461a6.523,6.523,0,0,0,6.527,6.527h84.829l23.237,18.608a1.764,1.764,0,0,0,1.116.38,1.688,1.688,0,0,0,.759-.166,1.787,1.787,0,0,0,1.021-1.614V63.5A6.523,6.523,0,0,0,148.938,56.969ZM56.751,3.612A36.2,36.2,0,0,1,94.94,39.761,35.41,35.41,0,0,1,84.046,65.584a23.025,23.025,0,0,0-7.192,16.472v2.872H68.737l10.7-38.261a1.785,1.785,0,0,0-2.706-1.97l-9.28,6.195-7.619-6.1a1.785,1.785,0,0,0-2.231,0l-7.619,6.1L40.706,44.7a1.775,1.775,0,0,0-2.682,1.97L48.538,84.952H40.611V82.508A23.18,23.18,0,0,0,33.68,65.846,36.168,36.168,0,0,1,56.727,3.612ZM46.877,97.983H70.612a2.967,2.967,0,1,1,0,5.934H46.877a2.967,2.967,0,1,1,0-5.934Zm26.7-6.527a2.968,2.968,0,0,1-2.967,2.967H46.877a2.968,2.968,0,0,1-2.967-2.967V88.489H73.579ZM52.265,84.929,42.747,50.3l6.385,4.249a1.783,1.783,0,0,0,2.089-.095l7.524-6.029,7.524,6.029a1.82,1.82,0,0,0,2.112.095L74.742,50.3,65.058,84.9H52.265Zm-26.749,28.98a1.916,1.916,0,0,0-1.116.38L3.56,131V39.761a2.968,2.968,0,0,1,2.967-2.967H19.154c-.047.546-.119,1.092-.142,1.661A39.774,39.774,0,0,0,31.235,68.409a19.473,19.473,0,0,1,5.839,14.1v4.225a1.793,1.793,0,0,0,1.78,1.78h1.5v2.967a6.452,6.452,0,0,0,2.089,4.747,6.452,6.452,0,0,0-2.089,4.747,6.523,6.523,0,0,0,6.527,6.527H70.612a6.523,6.523,0,0,0,6.527-6.527,6.452,6.452,0,0,0-2.089-4.747,6.452,6.452,0,0,0,2.089-4.747V88.513h1.5a1.793,1.793,0,0,0,1.78-1.78V82.08a19.492,19.492,0,0,1,6.124-13.932A39.4,39.4,0,0,0,98.5,39.761c0-1-.071-1.97-.142-2.967h12.6a2.968,2.968,0,0,1,2.967,2.967v71.205a2.968,2.968,0,0,1-2.967,2.967H25.515ZM151.9,149.963l-20.839-16.686a1.719,1.719,0,0,0-1.116-.38H44.5a2.968,2.968,0,0,1-2.967-2.967V117.469h69.425a6.523,6.523,0,0,0,6.527-6.527V60.529h31.449A2.968,2.968,0,0,1,151.9,63.5v86.491Z" transform="translate(0 0.003)" fill="#eff4f4"/>
        <path id="Path_848" data-name="Path 848" d="M36.269,19.95A1.752,1.752,0,0,0,38,21.374a.923.923,0,0,0,.356-.047,1.745,1.745,0,0,0,1.377-2.089,26.932,26.932,0,0,0-2.682-7.453,1.773,1.773,0,0,0-3.133,1.661,23.4,23.4,0,0,1,2.326,6.5Z" transform="translate(46.305 14.901)" fill="#eff4f4"/>
        <path id="Path_849" data-name="Path 849" d="M19.92,14.114a24.351,24.351,0,0,1,31.995.9,1.811,1.811,0,0,0,1.21.475,1.78,1.78,0,0,0,1.21-3.086,27.9,27.9,0,0,0-36.694-1.021,1.787,1.787,0,1,0,2.279,2.753Z" transform="translate(23.349 6.875)" fill="#eff4f4"/>
        <path id="Path_850" data-name="Path 850" d="M6.837,37.92H4.132a1.472,1.472,0,1,0,0,2.943H6.837a1.472,1.472,0,1,0,0-2.943Z" transform="translate(3.654 52.091)" fill="#eff4f4"/>
        <path id="Path_851" data-name="Path 851" d="M10.627,37.92H7.922a1.472,1.472,0,1,0,0,2.943h2.706a1.472,1.472,0,1,0,0-2.943Z" transform="translate(8.859 52.091)" fill="#eff4f4"/>
        <path id="Path_852" data-name="Path 852" d="M6.6,39.25A1.479,1.479,0,0,0,5.13,40.722v2.706a1.472,1.472,0,0,0,2.943,0V40.722A1.479,1.479,0,0,0,6.6,39.25Z" transform="translate(7.046 53.918)" fill="#eff4f4"/>
        <path id="Path_853" data-name="Path 853" d="M6.6,35.45A1.479,1.479,0,0,0,5.13,36.922v2.706a1.472,1.472,0,0,0,2.943,0V36.922A1.479,1.479,0,0,0,6.6,35.45Z" transform="translate(7.046 48.699)" fill="#eff4f4"/>
        <path id="Path_854" data-name="Path 854" d="M25.626,61H22.35a1.78,1.78,0,1,0,0,3.56h3.275a1.78,1.78,0,1,0,0-3.56Z" transform="translate(28.253 83.792)" fill="#eff4f4"/>
        <path id="Path_855" data-name="Path 855" d="M30.236,61H26.96a1.78,1.78,0,1,0,0,3.56h3.275a1.78,1.78,0,1,0,0-3.56Z" transform="translate(34.585 83.792)" fill="#eff4f4"/>
        <path id="Path_856" data-name="Path 856" d="M25.34,62.62a1.793,1.793,0,0,0-1.78,1.78v3.275a1.78,1.78,0,0,0,3.56,0V64.4A1.793,1.793,0,0,0,25.34,62.62Z" transform="translate(32.36 86.017)" fill="#eff4f4"/>
        <path id="Path_857" data-name="Path 857" d="M25.34,58a1.793,1.793,0,0,0-1.78,1.78v3.275a1.78,1.78,0,1,0,3.56,0V59.78A1.793,1.793,0,0,0,25.34,58Z" transform="translate(32.36 79.671)" fill="#eff4f4"/>
        <path id="Path_858" data-name="Path 858" d="M55.626,41H52.35a1.78,1.78,0,1,0,0,3.56h3.275a1.78,1.78,0,1,0,0-3.56Z" transform="translate(69.459 56.322)" fill="#eff4f4"/>
        <path id="Path_859" data-name="Path 859" d="M60.236,41H56.96a1.78,1.78,0,1,0,0,3.56h3.275a1.78,1.78,0,1,0,0-3.56Z" transform="translate(75.79 56.322)" fill="#eff4f4"/>
        <path id="Path_860" data-name="Path 860" d="M55.34,42.62a1.793,1.793,0,0,0-1.78,1.78v3.275a1.78,1.78,0,1,0,3.56,0V44.4A1.793,1.793,0,0,0,55.34,42.62Z" transform="translate(73.565 58.547)" fill="#eff4f4"/>
        <path id="Path_861" data-name="Path 861" d="M55.34,38a1.793,1.793,0,0,0-1.78,1.78v3.275a1.78,1.78,0,1,0,3.56,0V39.78A1.793,1.793,0,0,0,55.34,38Z" transform="translate(73.565 52.201)" fill="#eff4f4"/>
        <path id="Path_862" data-name="Path 862" d="M43.34,8.56h3.275a1.78,1.78,0,1,0,0-3.56H43.34a1.78,1.78,0,1,0,0,3.56Z" transform="translate(57.083 6.875)" fill="#eff4f4"/>
        <path id="Path_863" data-name="Path 863" d="M47.96,8.56h3.275a1.78,1.78,0,1,0,0-3.56H47.96a1.78,1.78,0,1,0,0,3.56Z" transform="translate(63.429 6.875)" fill="#eff4f4"/>
        <path id="Path_864" data-name="Path 864" d="M46.34,13.456a1.793,1.793,0,0,0,1.78-1.78V8.4a1.78,1.78,0,0,0-3.56,0v3.275A1.793,1.793,0,0,0,46.34,13.456Z" transform="translate(61.204 9.1)" fill="#eff4f4"/>
        <path id="Path_865" data-name="Path 865" d="M46.34,8.836a1.793,1.793,0,0,0,1.78-1.78V3.78a1.78,1.78,0,0,0-3.56,0V7.056A1.793,1.793,0,0,0,46.34,8.836Z" transform="translate(61.204 2.755)" fill="#eff4f4"/>
        <path id="Path_866" data-name="Path 866" d="M59.35,15.56h3.275a1.78,1.78,0,1,0,0-3.56H59.35a1.78,1.78,0,0,0,0,3.56Z" transform="translate(79.073 16.49)" fill="#eff4f4"/>
        <path id="Path_867" data-name="Path 867" d="M63.96,15.56h3.275a1.78,1.78,0,0,0,0-3.56H63.96a1.78,1.78,0,1,0,0,3.56Z" transform="translate(85.405 16.49)" fill="#eff4f4"/>
        <path id="Path_868" data-name="Path 868" d="M62.35,20.456a1.793,1.793,0,0,0,1.78-1.78V15.4a1.78,1.78,0,1,0-3.56,0v3.275A1.793,1.793,0,0,0,62.35,20.456Z" transform="translate(83.194 18.715)" fill="#eff4f4"/>
        <path id="Path_869" data-name="Path 869" d="M62.35,15.836a1.793,1.793,0,0,0,1.78-1.78V10.78a1.78,1.78,0,1,0-3.56,0v3.275A1.793,1.793,0,0,0,62.35,15.836Z" transform="translate(83.194 12.369)" fill="#eff4f4"/>
        <ellipse id="Ellipse_7" data-name="Ellipse 7" cx="1.78" cy="1.78" rx="1.78" ry="1.78" transform="translate(11.868 75.794)" fill="#eff4f4"/>
        <ellipse id="Ellipse_8" data-name="Ellipse 8" cx="1.78" cy="1.78" rx="1.78" ry="1.78" transform="translate(11.868 68.673)" fill="#eff4f4"/>
        <ellipse id="Ellipse_9" data-name="Ellipse 9" cx="1.78" cy="1.78" rx="1.78" ry="1.78" transform="translate(11.868 59.179)" fill="#eff4f4"/>
        <ellipse id="Ellipse_10" data-name="Ellipse 10" cx="1.78" cy="1.78" rx="1.78" ry="1.78" transform="translate(11.868 44.938)" fill="#eff4f4"/>
      </g>
    </g>
    <g id="_1-2" data-name="_1" transform="translate(1218.31 5828.5)">
      <g id="Group_433" data-name="Group 433" transform="translate(0 0)">
        <path id="Path_870" data-name="Path 870" d="M155.466,16.026a1.778,1.778,0,0,0-1.78-1.78h-2.374a44.23,44.23,0,0,0-25.278,7.9A62.876,62.876,0,0,0,79.371.005a62.73,62.73,0,0,0-63.61,62.518c-.332,1.21-2.73,9.423-12.841,21.385C1.615,85.451-.474,88.561.1,91.884a7.468,7.468,0,0,0,3.987,5.15,104.038,104.038,0,0,0,11.891,5.744c-.427,3.845-1.448,14.787-.047,22.169,1.543,8,15.523,9.209,23.735,9.209,3.94,0,6.195,2.112,6.195,5.839v8.948a6.523,6.523,0,0,0,6.527,6.527H122.83a6.531,6.531,0,0,0,4.486-11.274,6.54,6.54,0,0,0,0-9.494,6.54,6.54,0,0,0,2.041-4.747v-2.967h2.848a1.778,1.778,0,0,0,1.78-1.78v-9.091a23.413,23.413,0,0,1,7.358-16.781A46.5,46.5,0,0,0,154.16,76.669c.166-.712.332-1.424.451-2.136a2.761,2.761,0,0,0,.095-.427,1.191,1.191,0,0,0,.047-.285c.071-.356.119-.712.166-1.068a5.546,5.546,0,0,0,.166-1.068c.071-.57.142-1.116.19-1.685.071-.57.119-1.163.142-1.756.024-.783.047-1.567.047-2.374a46.2,46.2,0,0,0-7.405-25.3,44.233,44.233,0,0,0,7.405-24.542Zm-3.893,54.9a40.967,40.967,0,0,1-24.447,32.541,35,35,0,0,1-5.364,1.875,38.463,38.463,0,0,1-9.969,1.448,93.062,93.062,0,0,1,22.335-23.9h0c1.8-1.377,3.442-2.516,4.842-3.465,3.062-1.994,5.032-3.014,5.079-3.038a1.747,1.747,0,0,0,.783-2.374,1.8,1.8,0,0,0-2.4-.807c-.166.095-1,.522-2.326,1.282-1.092.665-2.54,1.543-4.225,2.682a97.762,97.762,0,0,0-24.9,24.4,41.008,41.008,0,0,1,26.2-31.4,33.479,33.479,0,0,1,3.7-1.163,40.713,40.713,0,0,1,10.42-1.353h.546c-.047,1.116-.166,2.184-.285,3.275ZM89.6,123.428H86.753v-6.812a27.118,27.118,0,0,0-8.141-19.558A43.25,43.25,0,0,1,65.3,64.446a38.9,38.9,0,0,1,.332-4.082,44.514,44.514,0,0,0,40.587,26.275h.593v36.789ZM65.32,43.915h.546c.451,0,.9,0,1.353.024a35.315,35.315,0,0,1,3.916.332A40.979,40.979,0,0,1,106.215,77.88h0v.071a94.671,94.671,0,0,0-31.5-28.482,1.8,1.8,0,0,0-2.4.783,1.769,1.769,0,0,0,.807,2.4,92.717,92.717,0,0,1,32.209,30.4,41,41,0,0,1-38.38-29.218,40.411,40.411,0,0,1-1.377-6.575q-.214-1.638-.285-3.347Zm41.489,14.811h0v8.663A44.718,44.718,0,0,0,73.247,40.972a43.3,43.3,0,0,1,49.3-16.14A44.375,44.375,0,0,0,106.809,58.726ZM52.384,151.91a2.968,2.968,0,0,1-2.967-2.967v-8.948c0-5.72-3.845-9.4-9.755-9.4-8.782,0-19.344-1.661-20.222-6.314-1.59-8.331.214-22.263.237-22.406a1.785,1.785,0,0,0-1.116-1.9,103.975,103.975,0,0,1-12.7-6.029,4.067,4.067,0,0,1-2.255-2.682c-.356-2.017,1.472-4.391,2.041-5.056C17.209,72.492,19.2,63.473,19.274,63.093a1.832,1.832,0,0,0,.047-.356A59.153,59.153,0,0,1,78.493,3.565h.831a59.009,59.009,0,0,1,39.994,16.662A46.76,46.76,0,0,0,69.284,40.5q-1.709-.142-3.418-.142H63.492a1.778,1.778,0,0,0-1.78,1.78A43.731,43.731,0,0,0,63.3,53.884a44.764,44.764,0,0,0-1.567,10.443A46.9,46.9,0,0,0,76.143,99.645a23.492,23.492,0,0,1,7.049,16.971v8.592a1.778,1.778,0,0,0,1.78,1.78h2.848v2.967a6.54,6.54,0,0,0,2.041,4.747,6.54,6.54,0,0,0,0,9.494,6.539,6.539,0,0,0-1.329,7.714Zm73.413-2.967a2.968,2.968,0,0,1-2.967,2.967H94.348a2.967,2.967,0,1,1,0-5.934H122.83A2.968,2.968,0,0,1,125.8,148.943Zm0-9.494a2.968,2.968,0,0,1-2.967,2.967H94.348a2.967,2.967,0,1,1,0-5.934H122.83A2.968,2.968,0,0,1,125.8,139.449Zm0-9.494a2.968,2.968,0,0,1-2.967,2.967H94.348a2.968,2.968,0,0,1-2.967-2.967v-2.967H125.8Zm4.628-13.838v7.31H110.369V110.373h.593a42.632,42.632,0,0,0,8.212-.783,37.648,37.648,0,0,0,4.889-1.187,42.1,42.1,0,0,0,9.209-4.059A25.791,25.791,0,0,0,130.425,116.117ZM151.858,64.09h-.546a43.232,43.232,0,0,0-10.135,1.187,29.92,29.92,0,0,0-3.608,1,44.686,44.686,0,0,0-27.2,24.851h0V84.953h0V60.53h.593a44.1,44.1,0,0,0,25.753-8.236,39.521,39.521,0,0,0,3.133-2.445,43.092,43.092,0,0,0,5.958-6.171,42.405,42.405,0,0,1,6.052,20.412Zm-8.141-23.569a37.547,37.547,0,0,1-4.842,5.412,34.118,34.118,0,0,1-3.014,2.54,40.449,40.449,0,0,1-24.067,8.473A92.267,92.267,0,0,1,130.9,35.584c.973-.831,1.9-1.567,2.824-2.255.617-.475,1.234-.926,1.828-1.377,1.092-.783,2.112-1.472,3.014-2.112a58.153,58.153,0,0,1,5.483-3.3,1.747,1.747,0,0,0,.783-2.374,1.8,1.8,0,0,0-2.4-.807,67.338,67.338,0,0,0-6.883,4.154c-.949.665-1.994,1.4-3.086,2.207a4.454,4.454,0,0,1-.57.427c-.9.688-1.851,1.448-2.824,2.231h0a97.063,97.063,0,0,0-18.086,19.344,40.842,40.842,0,0,1,14.455-24.684q.463-.392.926-.712a22.062,22.062,0,0,1,1.923-1.4c.451-.332.926-.641,1.4-.926a40.509,40.509,0,0,1,21.623-6.195h.546a40.417,40.417,0,0,1-6.029,19.605,34.111,34.111,0,0,1-2.112,3.109Z" transform="translate(0.001 0.004)" fill="#eff4f4"/>
        <path id="Path_871" data-name="Path 871" d="M29.432,12.552a1.741,1.741,0,0,0,1.234-.5,1.779,1.779,0,1,0-2.516-.047,1.8,1.8,0,0,0,1.282.546Z" transform="translate(37.977 12.355)" fill="#eff4f4"/>
        <path id="Path_872" data-name="Path 872" d="M33.405,9.439a1.712,1.712,0,0,0,.949-.285,1.748,1.748,0,1,0-.949.285Z" transform="translate(43.45 8.063)" fill="#eff4f4"/>
        <path id="Path_873" data-name="Path 873" d="M29.656,48.766a1.853,1.853,0,0,0,1.305-.546A1.791,1.791,0,0,0,30.89,45.7a1.78,1.78,0,1,0-2.445,2.587A1.7,1.7,0,0,0,29.656,48.766Z" transform="translate(38.299 62.11)" fill="#eff4f4"/>
        <path id="Path_874" data-name="Path 874" d="M34.6,48.556a1.775,1.775,0,1,0-1.875,3.014h0a1.77,1.77,0,0,0,.949.285A1.82,1.82,0,0,0,35.194,51,1.8,1.8,0,0,0,34.6,48.556Z" transform="translate(43.798 66.331)" fill="#eff4f4"/>
        <path id="Path_875" data-name="Path 875" d="M37.932,7.178a1.8,1.8,0,0,0,1.661-2.421,1.8,1.8,0,0,0-2.3-1.044h0a1.8,1.8,0,0,0,.641,3.465Z" transform="translate(49.652 4.959)" fill="#eff4f4"/>
        <path id="Path_876" data-name="Path 876" d="M21.794,30.71a1.758,1.758,0,0,0,1.756-1.78,1.78,1.78,0,1,0-3.56,0h0a1.793,1.793,0,0,0,1.78,1.78Z" transform="translate(27.458 37.3)" fill="#eff4f4"/>
        <path id="Path_877" data-name="Path 877" d="M21.9,25.639a1.832,1.832,0,0,0,.356.047,1.844,1.844,0,1,0-.356-.047Z" transform="translate(28.112 30.385)" fill="#eff4f4"/>
        <path id="Path_878" data-name="Path 878" d="M23.04,20.7a1.881,1.881,0,0,0,.688.142,1.747,1.747,0,0,0,1.638-1.092,1.769,1.769,0,0,0-.926-2.326,1.8,1.8,0,0,0-2.35.949A1.78,1.78,0,0,0,23.04,20.7Z" transform="translate(30.152 23.745)" fill="#eff4f4"/>
        <path id="Path_879" data-name="Path 879" d="M26.157,16.417a1.815,1.815,0,0,0,1.472-.783,1.784,1.784,0,0,0-2.943-2.017,1.82,1.82,0,0,0,.475,2.492,1.7,1.7,0,0,0,1,.309Z" transform="translate(33.491 17.652)" fill="#eff4f4"/>
        <path id="Path_880" data-name="Path 880" d="M25.317,41.73A1.759,1.759,0,0,0,24.89,44.2a1.781,1.781,0,0,0,1.448.76,1.877,1.877,0,0,0,1.044-.332,1.763,1.763,0,0,0,.427-2.468,1.788,1.788,0,0,0-2.492-.427Z" transform="translate(33.737 56.874)" fill="#eff4f4"/>
        <path id="Path_881" data-name="Path 881" d="M21.947,32.21a1.8,1.8,0,0,0-1.377,2.112A1.771,1.771,0,0,0,22.3,35.746a1.045,1.045,0,0,0,.38-.047,1.757,1.757,0,0,0,1.377-2.112,1.8,1.8,0,0,0-2.112-1.377Z" transform="translate(28.207 44.202)" fill="#eff4f4"/>
        <path id="Path_882" data-name="Path 882" d="M23.138,37.151a1.769,1.769,0,0,0-.926,2.326,1.8,1.8,0,0,0,2.35.926,1.775,1.775,0,1,0-1.424-3.252Z" transform="translate(30.315 50.821)" fill="#eff4f4"/>
        <path id="Path_883" data-name="Path 883" d="M64.527,56a6.527,6.527,0,1,0,6.527,6.527A6.523,6.523,0,0,0,64.527,56Zm0,9.494a2.967,2.967,0,1,1,2.967-2.967A2.968,2.968,0,0,1,64.527,65.494Z" transform="translate(79.665 76.925)" fill="#eff4f4"/>
        <path id="Path_884" data-name="Path 884" d="M33.527,52a6.527,6.527,0,1,0,6.527,6.527A6.523,6.523,0,0,0,33.527,52Zm0,9.494a2.967,2.967,0,1,1,2.967-2.967A2.968,2.968,0,0,1,33.527,61.494Z" transform="translate(37.086 71.431)" fill="#eff4f4"/>
        <path id="Path_885" data-name="Path 885" d="M18.517,36a6.527,6.527,0,1,0,6.527,6.527A6.539,6.539,0,0,0,18.517,36Zm0,9.494a2.967,2.967,0,1,1,2.967-2.967A2.983,2.983,0,0,1,18.517,45.494Z" transform="translate(16.47 49.455)" fill="#eff4f4"/>
        <path id="Path_886" data-name="Path 886" d="M66.527,46a6.527,6.527,0,1,0,6.527,6.527A6.523,6.523,0,0,0,66.527,46Zm0,9.494a2.967,2.967,0,1,1,2.967-2.967A2.968,2.968,0,0,1,66.527,55.494Z" transform="translate(82.412 63.19)" fill="#eff4f4"/>
        <path id="Path_887" data-name="Path 887" d="M58.527,13.054A6.527,6.527,0,1,0,52,6.527,6.523,6.523,0,0,0,58.527,13.054Zm0-9.494A2.967,2.967,0,1,1,55.56,6.527,2.968,2.968,0,0,1,58.527,3.56Z" transform="translate(71.424 0.009)" fill="#eff4f4"/>
      </g>
    </g>
    <g id="_1-3" data-name="_1" transform="translate(1441.38 5828.501)">
      <g id="Group_434" data-name="Group 434" transform="translate(0 0)">
        <path id="Path_888" data-name="Path 888" d="M100.956,17.924A53.717,53.717,0,0,0,60.843,3.184,53.956,53.956,0,0,0,26.427,96.012a27.451,27.451,0,0,1,8.236,19.843v2.967a1.793,1.793,0,0,0,1.78,1.78h1.851v2.967a6.47,6.47,0,0,0,2.065,4.747,6.489,6.489,0,0,0,0,9.494,6.431,6.431,0,0,0-2.065,4.747,6.539,6.539,0,0,0,6.527,6.527H82.8a6.554,6.554,0,0,0,6.527-6.527,6.431,6.431,0,0,0-2.065-4.747,6.489,6.489,0,0,0,0-9.494,6.51,6.51,0,0,0,2.065-4.747V120.6h1.828a1.778,1.778,0,0,0,1.78-1.78v-3.537a27.4,27.4,0,0,1,8.616-19.629,53.468,53.468,0,0,0,16.259-38.546A54.062,54.062,0,0,0,100.956,17.924ZM85.765,142.557a2.968,2.968,0,0,1-2.967,2.967H44.822a2.967,2.967,0,1,1,0-5.934H82.8A2.968,2.968,0,0,1,85.765,142.557Zm0-9.494A2.968,2.968,0,0,1,82.8,136.03H44.822a2.967,2.967,0,1,1,0-5.934H82.8A2.968,2.968,0,0,1,85.765,133.063Zm0-9.494a2.968,2.968,0,0,1-2.967,2.967H44.822a2.968,2.968,0,0,1-2.967-2.967V120.6h43.91Zm-31.4-6.527-13.6-46.9,10.182,6.788a1.783,1.783,0,0,0,2.089-.095L63.81,68.219l10.752,8.616a1.783,1.783,0,0,0,2.089.095L86.81,70.141,73,117.042ZM99.057,93.093a30.985,30.985,0,0,0-9.684,22.192v1.756H76.7L91.628,66.462a1.79,1.79,0,0,0-2.706-1.994L75.773,73.25,64.926,64.563a1.785,1.785,0,0,0-2.231,0L51.848,73.25,38.675,64.468a1.768,1.768,0,0,0-2.682,1.97l14.645,50.6H38.224v-1.187A31.156,31.156,0,0,0,28.9,93.425a50.406,50.406,0,1,1,85.351-36.315,49.286,49.286,0,0,1-15.19,35.982Z" transform="translate(13.471 4.276)" fill="#eff4f4"/>
        <path id="Path_889" data-name="Path 889" d="M56.072,67.11H27.59a1.78,1.78,0,1,0,0,3.56H56.072a1.78,1.78,0,1,0,0-3.56Z" transform="translate(35.45 92.184)" fill="#eff4f4"/>
        <path id="Path_890" data-name="Path 890" d="M69.778,60.6a7.729,7.729,0,0,1-7.714-7.714,1.78,1.78,0,0,0-3.56,0A7.729,7.729,0,0,1,50.79,60.6a1.78,1.78,0,1,0,0,3.56A7.729,7.729,0,0,1,58.5,71.878a1.78,1.78,0,0,0,3.56,0,7.729,7.729,0,0,1,7.714-7.714,1.78,1.78,0,1,0,0-3.56Zm-9.494,5.2a11.446,11.446,0,0,0-3.418-3.418,11.726,11.726,0,0,0,3.418-3.418A11.447,11.447,0,0,0,63.7,62.384,11.18,11.18,0,0,0,60.284,65.8Z" transform="translate(67.316 70.207)" fill="#eff4f4"/>
        <path id="Path_891" data-name="Path 891" d="M76.778,44.594a7.714,7.714,0,0,1-7.714-7.714,1.78,1.78,0,0,0-3.56,0,7.749,7.749,0,0,1-7.714,7.738,1.78,1.78,0,1,0,0,3.56,7.709,7.709,0,0,1,7.714,7.69,1.78,1.78,0,0,0,3.56,0,7.744,7.744,0,0,1,7.714-7.714,1.78,1.78,0,1,0,0-3.56Zm-9.494,5.222a11.525,11.525,0,0,0-3.418-3.442,11.18,11.18,0,0,0,3.418-3.418A11.181,11.181,0,0,0,70.7,46.374,11.524,11.524,0,0,0,67.284,49.816Z" transform="translate(76.93 48.218)" fill="#eff4f4"/>
        <path id="Path_892" data-name="Path 892" d="M52.79,16.154A7.729,7.729,0,0,1,60.5,23.868a1.78,1.78,0,0,0,3.56,0,7.729,7.729,0,0,1,7.714-7.714,1.78,1.78,0,0,0,0-3.56A7.729,7.729,0,0,1,64.064,4.88a1.78,1.78,0,0,0-3.56,0,7.729,7.729,0,0,1-7.714,7.714,1.78,1.78,0,1,0,0,3.56Zm9.494-5.2A11.181,11.181,0,0,0,65.7,14.374a11.447,11.447,0,0,0-3.418,3.418,11.726,11.726,0,0,0-3.418-3.418,11.446,11.446,0,0,0,3.418-3.418Z" transform="translate(70.063 4.265)" fill="#eff4f4"/>
        <path id="Path_893" data-name="Path 893" d="M22.548,43.374a1.778,1.778,0,0,0-1.78-1.78,7.714,7.714,0,0,1-7.714-7.714,1.78,1.78,0,0,0-3.56,0A7.714,7.714,0,0,1,1.78,41.594a1.78,1.78,0,1,0,0,3.56,7.729,7.729,0,0,1,7.714,7.714,1.78,1.78,0,0,0,3.56,0,7.729,7.729,0,0,1,7.714-7.714A1.763,1.763,0,0,0,22.548,43.374ZM11.274,46.816a11.525,11.525,0,0,0-3.418-3.442,11.18,11.18,0,0,0,3.418-3.418,11.447,11.447,0,0,0,3.418,3.418A11.807,11.807,0,0,0,11.274,46.816Z" transform="translate(0 44.097)" fill="#eff4f4"/>
        <path id="Path_894" data-name="Path 894" d="M28.778,68.6a7.729,7.729,0,0,1-7.714-7.714,1.78,1.78,0,1,0-3.56,0A7.729,7.729,0,0,1,9.79,68.6a1.78,1.78,0,1,0,0,3.56A7.729,7.729,0,0,1,17.5,79.878a1.78,1.78,0,0,0,3.56,0,7.729,7.729,0,0,1,7.714-7.714,1.78,1.78,0,1,0,0-3.56Zm-9.494,5.2a11.18,11.18,0,0,0-3.418-3.418,11.447,11.447,0,0,0,3.418-3.418A11.447,11.447,0,0,0,22.7,70.384,11.18,11.18,0,0,0,19.284,73.8Z" transform="translate(11.002 81.196)" fill="#eff4f4"/>
        <path id="Path_895" data-name="Path 895" d="M51.676,21.852a1.774,1.774,0,0,0-3.418.949,38.864,38.864,0,0,1,1.4,10.348,1.78,1.78,0,0,0,3.56,0,43.071,43.071,0,0,0-1.519-11.3Z" transform="translate(66.193 28.237)" fill="#eff4f4"/>
        <path id="Path_896" data-name="Path 896" d="M39.618,9.093a1.779,1.779,0,1,0-1.139,3.37A38.567,38.567,0,0,1,59.6,29.885a1.794,1.794,0,0,0,1.543.9,1.687,1.687,0,0,0,.878-.237,1.785,1.785,0,0,0,.665-2.421A42.1,42.1,0,0,0,39.618,9.093Z" transform="translate(51.193 12.371)" fill="#eff4f4"/>
        <path id="Path_897" data-name="Path 897" d="M8.257,13.34h0a1.73,1.73,0,0,0,2.421-.617A1.783,1.783,0,1,0,7.616,10.9h0a1.814,1.814,0,0,0,.617,2.445Z" transform="translate(10.138 13.773)" fill="#eff4f4"/>
        <path id="Path_898" data-name="Path 898" d="M11.252,9.269a1.786,1.786,0,0,0,2.231-.356,1.743,1.743,0,0,0-.119-2.492,1.8,1.8,0,0,0-2.54.119,1.773,1.773,0,0,0,.142,2.516A2.227,2.227,0,0,0,11.252,9.269Z" transform="translate(14.24 8.184)" fill="#eff4f4"/>
        <path id="Path_899" data-name="Path 899" d="M14.988,5.869a1.758,1.758,0,0,0,1.97-.095,1.773,1.773,0,1,0-2.492-.356,1.642,1.642,0,0,0,.522.475Z" transform="translate(19.404 3.538)" fill="#eff4f4"/>
        <path id="Path_900" data-name="Path 900" d="M19.353,3.327a1.794,1.794,0,0,0,2.54-2.279A1.785,1.785,0,1,0,18.641,2.52a2.012,2.012,0,0,0,.688.783Z" transform="translate(25.388 0.003)" fill="#eff4f4"/>
        <path id="Path_901" data-name="Path 901" d="M4.857,27.9a1.838,1.838,0,0,0,1.068.261,1.761,1.761,0,0,0,1.638-1.9,1.785,1.785,0,0,0-1.923-1.638,1.781,1.781,0,0,0-.783,3.3Z" transform="translate(5.491 33.821)" fill="#eff4f4"/>
        <path id="Path_902" data-name="Path 902" d="M6.127,17.927s.237.119.356.166a1.75,1.75,0,0,0,2.255-1.116,1.779,1.779,0,1,0-3.37-1.139,1.8,1.8,0,0,0,.76,2.112Z" transform="translate(7.236 20.104)" fill="#eff4f4"/>
        <path id="Path_903" data-name="Path 903" d="M5,22.846a1.831,1.831,0,0,0,.688.237,1.771,1.771,0,0,0,1.994-1.543,1.75,1.75,0,0,0-1.567-1.97A1.766,1.766,0,0,0,4.126,21.09a1.808,1.808,0,0,0,.854,1.756Z" transform="translate(5.653 26.863)" fill="#eff4f4"/>
      </g>
    </g>
    <g id="_1-4" data-name="_1" transform="translate(995.24 6022.227)">
      <g id="Group_435" data-name="Group 435" transform="translate(0 0)">
        <path id="Path_904" data-name="Path 904" d="M43.809,5.441a2.408,2.408,0,0,0-3.347,0,2.076,2.076,0,0,0-.522.76,2.363,2.363,0,0,0-.19.9,2.482,2.482,0,0,0,.19.926,2.076,2.076,0,0,0,.522.76,2.411,2.411,0,0,0,.76.522,2.4,2.4,0,0,0,3.11-3.11A2.41,2.41,0,0,0,43.809,5.441Z" transform="translate(54.604 6.546)" fill="#eff4f4"/>
        <ellipse id="Ellipse_11" data-name="Ellipse 11" cx="2.374" cy="2.374" rx="2.374" ry="2.374" transform="translate(80.112 11.275)" fill="#eff4f4"/>
        <path id="Path_905" data-name="Path 905" d="M31.809,5.441a2.408,2.408,0,0,0-3.347,0,2.076,2.076,0,0,0-.522.76,2.313,2.313,0,0,0,.522,2.587,2.3,2.3,0,0,0,1.662.688,2.378,2.378,0,0,0,.926-.166,2.411,2.411,0,0,0,.76-.522A2.446,2.446,0,0,0,32.331,6.2a2.41,2.41,0,0,0-.522-.76Z" transform="translate(38.12 6.546)" fill="#eff4f4"/>
        <path id="Path_906" data-name="Path 906" d="M106.222,0H6.528A6.539,6.539,0,0,0,0,6.528V134.706a6.524,6.524,0,0,0,6.528,6.528H17.352V153.7a1.816,1.816,0,0,0,.807,1.5,1.789,1.789,0,0,0,.973.285,1.9,1.9,0,0,0,.712-.142l32.9-14.1h53.5a6.524,6.524,0,0,0,6.528-6.528V6.528A6.524,6.524,0,0,0,106.246,0Zm2.967,134.706a2.968,2.968,0,0,1-2.967,2.967H52.364a1.9,1.9,0,0,0-.712.142L20.888,150.99V139.454a1.793,1.793,0,0,0-1.78-1.78H6.528a2.968,2.968,0,0,1-2.967-2.967V27.3H109.19Zm0-110.97H3.561V6.528A2.968,2.968,0,0,1,6.528,3.561h99.695a2.968,2.968,0,0,1,2.967,2.967Z" transform="translate(0 0)" fill="#eff4f4"/>
        <path id="Path_907" data-name="Path 907" d="M84.007,25.415a1.4,1.4,0,0,0-.119-.451,1.748,1.748,0,0,0-.095-.332v-.047L69.528.824a1.864,1.864,0,0,0-3.062,0L52.224,24.56v.047a1.361,1.361,0,0,0-.095.332,3.162,3.162,0,0,0-.119.451V148.918a6.524,6.524,0,0,0,6.528,6.528H77.527a6.524,6.524,0,0,0,6.528-6.528V25.415ZM55.547,137.666V27.955l10.682,3.561V137.643H55.547ZM69.789,31.539,80.47,27.979V137.643H69.789V31.515Zm-1.78-26.3,11.584,19.3L68.009,28.406,56.425,24.537Zm12.462,143.7a2.968,2.968,0,0,1-2.967,2.967H58.514a2.968,2.968,0,0,1-2.967-2.967v-7.714H80.47Z" transform="translate(71.445 0.031)" fill="#eff4f4"/>
        <path id="Path_908" data-name="Path 908" d="M6.78,54.166h45.1a1.793,1.793,0,0,0,1.78-1.78V16.78A1.793,1.793,0,0,0,51.88,15H6.78A1.793,1.793,0,0,0,5,16.78V52.385A1.793,1.793,0,0,0,6.78,54.166Zm1.78-35.605H50.1V50.605H8.561Z" transform="translate(6.868 20.605)" fill="#eff4f4"/>
        <path id="Path_909" data-name="Path 909" d="M29.78,33.561H60.638a1.78,1.78,0,0,0,0-3.561H29.78a1.78,1.78,0,0,0,0,3.561Z" transform="translate(38.463 41.21)" fill="#eff4f4"/>
        <path id="Path_910" data-name="Path 910" d="M57.114,36.78A1.793,1.793,0,0,0,55.333,35H18.09a1.78,1.78,0,1,0,0,3.561H55.333A1.793,1.793,0,0,0,57.114,36.78Z" transform="translate(22.405 48.079)" fill="#eff4f4"/>
        <path id="Path_911" data-name="Path 911" d="M6.78,38.561H24.132a1.78,1.78,0,1,0,0-3.561H6.78a1.78,1.78,0,1,0,0,3.561Z" transform="translate(6.868 48.079)" fill="#eff4f4"/>
        <path id="Path_912" data-name="Path 912" d="M64.677,40H26.84a1.78,1.78,0,1,0,0,3.561H64.677a1.78,1.78,0,0,0,0-3.561Z" transform="translate(34.425 54.947)" fill="#eff4f4"/>
        <path id="Path_913" data-name="Path 913" d="M6.78,43.561H44.9A1.78,1.78,0,0,0,44.9,40H6.78a1.78,1.78,0,1,0,0,3.561Z" transform="translate(6.868 54.947)" fill="#eff4f4"/>
        <path id="Path_914" data-name="Path 914" d="M29.78,18.561H60.638a1.78,1.78,0,0,0,0-3.561H29.78a1.78,1.78,0,1,0,0,3.561Z" transform="translate(38.463 20.605)" fill="#eff4f4"/>
        <path id="Path_915" data-name="Path 915" d="M29.78,23.561H51.143a1.78,1.78,0,1,0,0-3.561H29.78a1.78,1.78,0,1,0,0,3.561Z" transform="translate(38.463 27.474)" fill="#eff4f4"/>
        <path id="Path_916" data-name="Path 916" d="M50.129,25H37.43a1.78,1.78,0,1,0,0,3.561h12.7a1.78,1.78,0,1,0,0-3.561Z" transform="translate(48.972 34.342)" fill="#eff4f4"/>
        <path id="Path_917" data-name="Path 917" d="M29.78,28.561h8.664a1.78,1.78,0,1,0,0-3.561H29.78a1.78,1.78,0,1,0,0,3.561Z" transform="translate(38.463 34.342)" fill="#eff4f4"/>
        <path id="Path_918" data-name="Path 918" d="M72.067,45H21.46a1.78,1.78,0,0,0,0,3.561H72.067a1.78,1.78,0,1,0,0-3.561Z" transform="translate(27.034 61.816)" fill="#eff4f4"/>
        <path id="Path_919" data-name="Path 919" d="M6.78,48.561H32.131a1.78,1.78,0,1,0,0-3.561H6.78a1.78,1.78,0,0,0,0,3.561Z" transform="translate(6.868 61.816)" fill="#eff4f4"/>
        <path id="Path_920" data-name="Path 920" d="M46.657,50H29.59a1.78,1.78,0,1,0,0,3.561H46.657a1.78,1.78,0,1,0,0-3.561Z" transform="translate(38.202 68.684)" fill="#eff4f4"/>
        <path id="Path_921" data-name="Path 921" d="M6.78,53.561H51.429a1.78,1.78,0,1,0,0-3.561H6.78a1.78,1.78,0,1,0,0,3.561Z" transform="translate(6.868 68.684)" fill="#eff4f4"/>
        <path id="Path_922" data-name="Path 922" d="M15.392,21.91H10.6a2.6,2.6,0,0,0,0,5.2h4.795a2.6,2.6,0,0,0,0-5.2Z" transform="translate(11.003 30.097)" fill="#eff4f4"/>
        <path id="Path_923" data-name="Path 923" d="M22.122,21.91H17.327a2.6,2.6,0,0,0,0,5.2h4.795a2.6,2.6,0,1,0,0-5.2Z" transform="translate(20.248 30.097)" fill="#eff4f4"/>
        <path id="Path_924" data-name="Path 924" d="M14.981,24.26a2.614,2.614,0,0,0-2.611,2.587v4.795a2.619,2.619,0,0,0,2.611,2.611,2.583,2.583,0,0,0,2.587-2.611V26.847A2.593,2.593,0,0,0,14.981,24.26Z" transform="translate(16.993 33.326)" fill="#eff4f4"/>
        <path id="Path_925" data-name="Path 925" d="M14.981,17.52a2.619,2.619,0,0,0-2.611,2.611v4.795a2.619,2.619,0,0,0,2.611,2.611,2.583,2.583,0,0,0,2.587-2.611V20.131A2.614,2.614,0,0,0,14.981,17.52Z" transform="translate(16.993 24.067)" fill="#eff4f4"/>
      </g>
    </g>
    <g id="_1-5" data-name="_1" transform="translate(1218.326 6022.227)">
      <g id="Group_436" data-name="Group 436" transform="translate(0 0)">
        <path id="Path_926" data-name="Path 926" d="M53.673,4.8a1.587,1.587,0,0,0-.451.119,2.254,2.254,0,0,0-.4.237,1.051,1.051,0,0,0-.356.285,4.127,4.127,0,0,0-.309.356l-.214.427L51.8,6.65c0,.166-.047.309-.047.475a2.363,2.363,0,0,0,.19.9,2.076,2.076,0,0,0,.522.76,2.076,2.076,0,0,0,.76.522,2.363,2.363,0,0,0,.9.19,2.389,2.389,0,0,0,.926-.19,2.076,2.076,0,0,0,.76-.522,2.076,2.076,0,0,0,.522-.76A2.371,2.371,0,0,0,53.673,4.8Z" transform="translate(71.088 6.524)" fill="#eff4f4"/>
        <ellipse id="Ellipse_12" data-name="Ellipse 12" cx="2.374" cy="2.374" rx="2.374" ry="2.374" transform="translate(108.596 11.275)" fill="#eff4f4"/>
        <path id="Path_927" data-name="Path 927" d="M41.222,4.913a2.878,2.878,0,0,0-.76.522,2.313,2.313,0,0,0-.522,2.587,2.076,2.076,0,0,0,.522.76,2.076,2.076,0,0,0,.76.522,2.389,2.389,0,0,0,.926.19,2.359,2.359,0,0,0,1.662-.712,2.411,2.411,0,0,0,.522-.76,2.446,2.446,0,0,0-.522-2.587,2.469,2.469,0,0,0-2.587-.522Z" transform="translate(54.604 6.528)" fill="#eff4f4"/>
        <path id="Path_928" data-name="Path 928" d="M155.476,89.606a51.518,51.518,0,0,0-14.242-35.558V6.528A6.524,6.524,0,0,0,134.707,0H20.77a6.524,6.524,0,0,0-6.528,6.528V37.979H4.154A4.174,4.174,0,0,0,0,42.133v26.11A4.174,4.174,0,0,0,4.154,72.4H14.242v22.55H4.154A4.174,4.174,0,0,0,0,99.1v26.11a4.174,4.174,0,0,0,4.154,4.154H14.242v19.583a6.524,6.524,0,0,0,6.528,6.528H134.707a6.524,6.524,0,0,0,6.528-6.528V125.164A51.474,51.474,0,0,0,155.476,89.606Zm-93.025,24.4a7.688,7.688,0,0,0-5.317-13.1,47.38,47.38,0,0,1-1.306-9.518h17.4a57.668,57.668,0,0,0,5.721,23.5,52.248,52.248,0,0,0-10.254,7.477,47.3,47.3,0,0,1-6.243-8.355Zm76.5,8.332a52.53,52.53,0,0,0-10.207-7.453c.593-1.234,1.092-2.492,1.59-3.774h.166a7.687,7.687,0,0,0,3.537-14.527c.214-1.733.332-3.466.4-5.2h17.4a47.974,47.974,0,0,1-12.865,30.953ZM105.629,70.688a51.587,51.587,0,0,0,13.316-2.208,7.531,7.531,0,0,0,8.83,2.777,53.443,53.443,0,0,1,3.086,16.592H105.605V70.688Zm23.737-6.67a4.154,4.154,0,1,1-4.154-4.154A4.174,4.174,0,0,1,129.366,64.018Zm-11.868,0a5.982,5.982,0,0,0,.119,1.139,47.585,47.585,0,0,1-11.987,1.97V43.011A58.379,58.379,0,0,1,120.8,57.7,7.7,7.7,0,0,0,117.5,64.018Zm-15.429,3.11a47.994,47.994,0,0,1-18.277-4.344,56.258,56.258,0,0,1,18.277-19.773Zm0,3.561V87.85H97.06a7.678,7.678,0,0,0-14.954,0h-5.27a56.131,56.131,0,0,1,5.341-21.885A51.788,51.788,0,0,0,102.069,70.688ZM93.713,89.63a4.154,4.154,0,1,1-4.154-4.154A4.174,4.174,0,0,1,93.713,89.63ZM82.082,91.41a7.678,7.678,0,0,0,14.954,0h5.008v17.162a51.014,51.014,0,0,0-19.939,4.747A54.819,54.819,0,0,1,76.765,91.41h5.27Zm19.986,20.722v24.093a57.512,57.512,0,0,1-18.3-19.749A47.593,47.593,0,0,1,102.069,112.133Zm3.561,0a47.7,47.7,0,0,1,18.3,4.344,56.47,56.47,0,0,1-18.3,19.725V112.133Zm0-3.561V91.41h25.256c-.047,1.448-.166,2.9-.309,4.32h-.047A7.689,7.689,0,0,0,126.9,110.21c-.427,1.044-.855,2.089-1.329,3.11A51.434,51.434,0,0,0,105.629,108.572Zm24.876-1a4.154,4.154,0,1,1,4.154-4.154A4.174,4.174,0,0,1,130.505,107.575Zm3.917-19.749a57.293,57.293,0,0,0-3.584-18.61,7.629,7.629,0,0,0,2.065-5.222,7.033,7.033,0,0,0-.309-2.018,54.041,54.041,0,0,0,6.361-5.056A47.879,47.879,0,0,1,151.8,87.826H134.4ZM130.861,58.8a7.635,7.635,0,0,0-5.673-2.516,7.083,7.083,0,0,0-1,.095,61.452,61.452,0,0,0-13.72-14.337,47.829,47.829,0,0,1,25.944,12.319,49.472,49.472,0,0,1-5.554,4.439Zm-50.251,2.4a46.6,46.6,0,0,1-5.222-3.371,7.568,7.568,0,0,0,.926-3.561,7.4,7.4,0,0,0-.831-3.394,47.3,47.3,0,0,1,21.79-8.83A60.553,60.553,0,0,0,80.61,61.217ZM72.73,54.262a4.154,4.154,0,1,1-4.154-4.154A4.174,4.174,0,0,1,72.73,54.262Zm-7.572,6.884a7.571,7.571,0,0,0,3.418.831,7.65,7.65,0,0,0,4.463-1.448,53.915,53.915,0,0,0,5.934,3.845A59.226,59.226,0,0,0,73.252,87.85h-17.4a47.338,47.338,0,0,1,9.329-26.7Zm-8.213,43.32a4.154,4.154,0,1,1-4.154,4.154A4.174,4.174,0,0,1,56.945,104.466Zm23.618,13.6a60.484,60.484,0,0,0,16.758,19.179A48.211,48.211,0,0,1,71.187,124.9a47.629,47.629,0,0,1,9.376-6.836Zm46.5,0a48.784,48.784,0,0,1,9.329,6.789A47.8,47.8,0,0,1,110.4,137.175a59.955,59.955,0,0,0,16.663-19.132ZM17.8,6.528A2.968,2.968,0,0,1,20.77,3.561H134.707a2.968,2.968,0,0,1,2.967,2.967V23.737H17.8ZM3.561,68.243V42.133a.588.588,0,0,1,.593-.593h50.3l-8.83,8.83a1.779,1.779,0,0,0-.522,1.258V68.243a.588.588,0,0,1-.593.593H4.154A.588.588,0,0,1,3.561,68.243Zm0,56.968V99.1a.588.588,0,0,1,.593-.593H37.837l-8.83,8.83a1.779,1.779,0,0,0-.522,1.258v16.616a.588.588,0,0,1-.593.593H4.154A.588.588,0,0,1,3.561,125.212Zm131.146,26.7H20.77a2.968,2.968,0,0,1-2.967-2.967V129.366H27.891a4.174,4.174,0,0,0,4.154-4.154v-15.88L43.391,97.986a1.782,1.782,0,0,0-1.258-3.038H17.8V72.4h26.7a4.174,4.174,0,0,0,4.154-4.154V52.363L60.007,41.017a1.782,1.782,0,0,0-1.258-3.038H17.8V27.3H137.674V50.654a51.4,51.4,0,0,0-33.825-12.675h0A51.085,51.085,0,0,0,73.2,48.091a7.592,7.592,0,0,0-4.6-1.567,7.729,7.729,0,0,0-7.714,7.714,7.645,7.645,0,0,0,1.567,4.6A51,51,0,0,0,52.245,89.606h0a51.063,51.063,0,0,0,1.448,12.035,7.689,7.689,0,0,0,3.3,14.646,7.816,7.816,0,0,0,2.469-.427,51.858,51.858,0,0,0,7.881,10.183.342.342,0,0,0,.047.071c.024.024.047.024.071.047a51.652,51.652,0,0,0,36.412,15.073h0A51.4,51.4,0,0,0,137.7,128.559v20.39a2.968,2.968,0,0,1-2.967,2.967Z" transform="translate(0 0)" fill="#eff4f4"/>
      </g>
    </g>
    <g id="_1-6" data-name="_1" transform="translate(1441.412 6022.227)">
      <g id="Group_437" data-name="Group 437" transform="translate(0)">
        <path id="Path_929" data-name="Path 929" d="M20,51.454A30.264,30.264,0,1,0,50.264,21.19,30.3,30.3,0,0,0,20,51.454Zm30.264-26.7a26.7,26.7,0,1,1-26.7,26.7A26.729,26.729,0,0,1,50.264,24.751Z" transform="translate(27.477 29.108)" fill="#eff4f4"/>
        <path id="Path_930" data-name="Path 930" d="M40.649,55.487A13.649,13.649,0,1,0,27,41.839,13.666,13.666,0,0,0,40.649,55.487Zm0-23.737A10.088,10.088,0,1,1,30.561,41.839,10.095,10.095,0,0,1,40.649,31.751Z" transform="translate(37.093 38.724)" fill="#eff4f4"/>
        <path id="Path_931" data-name="Path 931" d="M155.407,24.69a1.346,1.346,0,0,0-.309-.641L155,23.93,138.483,1.9a1.837,1.837,0,0,0-2.848,0l-16.473,21.98-.119.166a1.638,1.638,0,0,0-.38,1.068v5.317a63.217,63.217,0,0,0-40.946-15A64.621,64.621,0,0,0,35.441,31.574a60.852,60.852,0,0,0-4.629-12.3A97.4,97.4,0,0,0,19.8,2.021a.074.074,0,0,1-.024-.047,1.749,1.749,0,0,1-.119-.142.722.722,0,0,0-.19-.19,1.347,1.347,0,0,0-.427-.285A1.7,1.7,0,0,0,17.9,1.238h-.071a1.209,1.209,0,0,0-.261.095c-.024,0-.047.024-.071.047a1.109,1.109,0,0,0-.237.119c-.047.047-.119.095-.166.142a1.1,1.1,0,0,0-.166.166c-.024.047-.071.071-.095.119C15.645,3.374,4.156,17.616.928,32.571-.473,39.122-1.47,50.99,7.1,58.61c-.237,2.113-.878,7.786-1.448,15.334v.166c-1.8,24.14-2.73,66.748,11.322,81.963a1.733,1.733,0,0,0,2.611,0c6.5-7.05,9.8-20.034,11.275-34.323a63.41,63.41,0,0,0,87.8,5.673v22.716a6.555,6.555,0,0,0,6.528,6.528h23.737a6.539,6.539,0,0,0,6.528-6.528V25.117A2.617,2.617,0,0,0,155.407,24.69Zm-16.568,71.4v-63.4L151.894,27.7V137.274H138.839Zm-1.78-90.152L150.85,24.286l-13.767,5.27h-.024l-13.767-5.27L137.059,5.938ZM77.717,18.993a59.668,59.668,0,0,1,40.946,16.212V46.741C107.6,40.546,93.312,36.8,77.717,36.8S47.286,40.689,36.13,47.1a27.7,27.7,0,0,0,.617-5.91,31.982,31.982,0,0,0-.475-5.507A59.731,59.731,0,0,1,77.717,18.993Zm40.946,88.087c-10.729,6.456-25.137,10.42-40.946,10.42-18.372,0-34.846-5.341-45.836-13.767.166-10.824-.332-21.339-.973-29.647v-.142c-.546-7.525-1.211-13.174-1.472-15.31a20.792,20.792,0,0,0,4.842-6.243C45.2,44.985,60.626,40.356,77.717,40.356c15.809,0,30.217,3.964,40.946,10.42Zm-100.5-34.8H9.354c.451-5.839.949-10.326,1.211-12.557.973.024,2.231.024,3.774.024h6.6l.285-.024h1.044c1.258-.024,2.469-.024,3.513-.024h.214c.261,2.231.76,6.718,1.211,12.581H18.161Zm-.855-45.029c.024-.783.047-1.59.119-2.421.119-2.587.332-5.27.617-8.071.095-.807.166-1.614.285-2.445q.392-3.454,1-7.05a93.25,93.25,0,0,1,8.308,13.577A59.219,59.219,0,0,1,32.5,34.4a31.742,31.742,0,0,1,.641,4.51,22.029,22.029,0,0,1-1.662,11.156A17.507,17.507,0,0,1,26.9,56.141H19.063c-.071-.332-.119-.688-.166-1.044-.166-.973-.332-2.089-.5-3.3q-.142-1.033-.285-2.208c-.047-.5-.119-1-.166-1.5-.095-.9-.166-1.828-.261-2.8q-.142-1.923-.285-4.059c-.024-.617-.071-1.258-.095-1.9C17.164,35.68,17.14,31.645,17.306,27.254ZM4.417,33.33c1.9-8.878,7.1-17.731,10.9-23.333-.166,1.163-.332,2.3-.451,3.418-.119.973-.237,1.923-.332,2.872-.332,3.062-.546,6.005-.688,8.83-.071,1.875-.142,3.7-.166,5.459a144.905,144.905,0,0,0,1,20.176c.237,2.089.522,3.893.783,5.388H9.687c-7.477-6.409-6.528-17-5.27-22.811ZM18.279,152.109C6.791,136.918,7.455,98.82,9.07,75.843h18.4c.522,7.216.926,15.9.9,24.924,0,1.519-.024,3.062-.047,4.6-.047,2.374-.142,4.747-.237,7.1-.119,1.851-.237,3.7-.38,5.531-1.116,13.886-3.822,26.728-9.424,34.11Zm59.437-13.245a59.8,59.8,0,0,1-46.406-22.075c.214-2.92.356-5.887.475-8.83,11.56,8.071,27.891,13.1,45.931,13.1,15.6,0,29.885-3.75,40.946-9.969v11.56A59.668,59.668,0,0,1,77.717,138.864Zm44.507-19.82V27.7l13.055,4.985V137.274H122.223v-18.23Zm29.671,31.1a2.968,2.968,0,0,1-2.967,2.967H125.19a2.983,2.983,0,0,1-2.967-2.967v-9.3h29.671Z" transform="translate(0.002 1.634)" fill="#eff4f4"/>
        <ellipse id="Ellipse_13" data-name="Ellipse 13" cx="1.78" cy="1.78" rx="1.78" ry="1.78" transform="translate(56.948 149.993)" fill="#eff4f4"/>
        <ellipse id="Ellipse_14" data-name="Ellipse 14" cx="1.78" cy="1.78" rx="1.78" ry="1.78" transform="translate(64.069 149.993)" fill="#eff4f4"/>
        <ellipse id="Ellipse_15" data-name="Ellipse 15" cx="1.78" cy="1.78" rx="1.78" ry="1.78" transform="translate(73.564 149.993)" fill="#eff4f4"/>
        <ellipse id="Ellipse_16" data-name="Ellipse 16" cx="1.78" cy="1.78" rx="1.78" ry="1.78" transform="translate(87.806 149.993)" fill="#eff4f4"/>
        <ellipse id="Ellipse_17" data-name="Ellipse 17" cx="1.78" cy="1.78" rx="1.78" ry="1.78" transform="translate(89.61 7.572)" fill="#eff4f4"/>
        <ellipse id="Ellipse_18" data-name="Ellipse 18" cx="1.78" cy="1.78" rx="1.78" ry="1.78" transform="translate(82.489 7.572)" fill="#eff4f4"/>
        <ellipse id="Ellipse_19" data-name="Ellipse 19" cx="1.78" cy="1.78" rx="1.78" ry="1.78" transform="translate(72.971 7.572)" fill="#eff4f4"/>
        <ellipse id="Ellipse_20" data-name="Ellipse 20" cx="1.78" cy="1.78" rx="1.78" ry="1.78" transform="translate(58.729 7.572)" fill="#eff4f4"/>
        <path id="Path_932" data-name="Path 932" d="M43.02,6.561H46.3A1.78,1.78,0,1,0,46.3,3H43.02a1.78,1.78,0,1,0,0,3.561Z" transform="translate(56.654 4.121)" fill="#eff4f4"/>
        <path id="Path_933" data-name="Path 933" d="M47.64,6.561h3.276a1.78,1.78,0,1,0,0-3.561H47.64a1.78,1.78,0,1,0,0,3.561Z" transform="translate(63.001 4.121)" fill="#eff4f4"/>
        <path id="Path_934" data-name="Path 934" d="M46.02,11.456a1.793,1.793,0,0,0,1.78-1.78V6.4a1.78,1.78,0,0,0-3.561,0V9.676A1.793,1.793,0,0,0,46.02,11.456Z" transform="translate(60.776 6.346)" fill="#eff4f4"/>
        <path id="Path_935" data-name="Path 935" d="M46.02,6.836a1.793,1.793,0,0,0,1.78-1.78V1.78a1.78,1.78,0,0,0-3.561,0V5.056A1.793,1.793,0,0,0,46.02,6.836Z" transform="translate(60.776)" fill="#eff4f4"/>
        <path id="Path_936" data-name="Path 936" d="M19.306,63.19H16.03a1.78,1.78,0,0,0,0,3.561h3.276a1.78,1.78,0,1,0,0-3.561Z" transform="translate(19.579 86.803)" fill="#eff4f4"/>
        <path id="Path_937" data-name="Path 937" d="M23.916,63.19H20.64a1.78,1.78,0,0,0,0,3.561h3.276a1.78,1.78,0,1,0,0-3.561Z" transform="translate(25.911 86.803)" fill="#eff4f4"/>
        <path id="Path_938" data-name="Path 938" d="M19.02,64.8a1.793,1.793,0,0,0-1.78,1.78v3.276a1.78,1.78,0,0,0,3.561,0V66.58A1.793,1.793,0,0,0,19.02,64.8Z" transform="translate(23.686 89.015)" fill="#eff4f4"/>
        <path id="Path_939" data-name="Path 939" d="M19.02,60.19a1.793,1.793,0,0,0-1.78,1.78v3.276a1.78,1.78,0,0,0,3.561,0V61.97A1.793,1.793,0,0,0,19.02,60.19Z" transform="translate(23.686 82.682)" fill="#eff4f4"/>
      </g>
    </g>
  </g>
</svg>
