<svg xmlns="http://www.w3.org/2000/svg" width="1088" height="108.335" viewBox="0 0 1088 108.335">
  <g id="pikotriangles-08" transform="translate(41 -0.44)">
    <path id="Path_624" data-name="Path 624" d="M190.145,27.47,212.41.44H167.88Z" transform="translate(-98.175)" fill="#1d1d1d"/>
    <path id="Path_625" data-name="Path 625" d="M106.145,27.47,128.41.44H83.88Z" transform="translate(-58.695)" fill="#1d1d1d"/>
    <path id="Path_626" data-name="Path 626" d="M274.145,27.47,296.41.44H251.88Z" transform="translate(-137.656)" fill="#1d1d1d"/>
    <path id="Path_627" data-name="Path 627" d="M357.995,27.47,380.26.44H335.73Z" transform="translate(-177.066)" fill="#1d1d1d"/>
    <path id="Path_628" data-name="Path 628" d="M441.995,27.47,464.26.44H419.73Z" transform="translate(-216.547)" fill="#1d1d1d"/>
    <path id="Path_629" data-name="Path 629" d="M525.555,27.47,547.815.44H503.29Z" transform="translate(-255.82)" fill="#1d1d1d"/>
    <path id="Path_630" data-name="Path 630" d="M609.555,27.47,631.815.44H587.29Z" transform="translate(-295.301)" fill="#1d1d1d"/>
    <path id="Path_631" data-name="Path 631" d="M693.1,27.47,715.37.44H670.84Z" transform="translate(-334.57)" fill="#1d1d1d"/>
    <path id="Path_632" data-name="Path 632" d="M777.1,27.47,799.37.44H754.84Z" transform="translate(-374.051)" fill="#1d1d1d"/>
    <path id="Path_633" data-name="Path 633" d="M860.665,27.47,882.925.44H838.4Z" transform="translate(-413.325)" fill="#1d1d1d"/>
    <path id="Path_634" data-name="Path 634" d="M944.665,27.47,966.925.44H922.4Z" transform="translate(-452.805)" fill="#1d1d1d"/>
    <path id="Path_635" data-name="Path 635" d="M1028.22,27.47,1050.485.44H1005.96Z" transform="translate(-492.079)" fill="#1d1d1d"/>
    <path id="Path_636" data-name="Path 636" d="M1112.22,27.47,1134.484.44H1089.96Z" transform="translate(-531.56)" fill="#1d1d1d"/>
    <path id="Path_637" data-name="Path 637" d="M1195.775,27.47,1218.034.44H1173.51Z" transform="translate(-570.829)" fill="#1d1d1d"/>
    <path id="Path_638" data-name="Path 638" d="M1279.775,27.47,1302.035.44H1257.51Z" transform="translate(-610.31)" fill="#1d1d1d"/>
    <path id="Path_639" data-name="Path 639" d="M1363.33,27.47,1385.595.44H1341.07Z" transform="translate(-649.583)" fill="#1d1d1d"/>
    <path id="Path_640" data-name="Path 640" d="M1447.329,27.47,1469.594.44H1425.07Z" transform="translate(-689.064)" fill="#1d1d1d"/>
    <path id="Path_641" data-name="Path 641" d="M1530.885,27.47,1553.145.44H1508.62Z" transform="translate(-728.333)" fill="#1d1d1d"/>
    <path id="Path_642" data-name="Path 642" d="M1614.885,27.47,1637.145.44H1592.62Z" transform="translate(-767.814)" fill="#1d1d1d"/>
    <path id="Path_643" data-name="Path 643" d="M1698.44,27.47,1720.7.44H1676.18Z" transform="translate(-807.088)" fill="#1d1d1d"/>
    <path id="Path_644" data-name="Path 644" d="M1782.44,27.47,1804.7.44H1760.18Z" transform="translate(-846.568)" fill="#1d1d1d"/>
    <path id="Path_645" data-name="Path 645" d="M148.37,78.58l22.265-27.03H126.11Z" transform="translate(-78.543 -24.022)" fill="#1d1d1d"/>
    <path id="Path_646" data-name="Path 646" d="M64.37,78.58,86.635,51.55H42.11Z" transform="translate(-39.062 -24.022)" fill="#1d1d1d"/>
    <path id="Path_647" data-name="Path 647" d="M232.37,78.58l22.265-27.03H210.11Z" transform="translate(-118.024 -24.022)" fill="#1d1d1d"/>
    <path id="Path_648" data-name="Path 648" d="M316.22,78.58l22.265-27.03H293.96Z" transform="translate(-157.434 -24.022)" fill="#1d1d1d"/>
    <path id="Path_649" data-name="Path 649" d="M483.775,78.58l22.26-27.03H461.51Z" transform="translate(-236.184 -24.022)" fill="#1d1d1d"/>
    <path id="Path_650" data-name="Path 650" d="M567.775,78.58l22.26-27.03H545.51Z" transform="translate(-275.664 -24.022)" fill="#1d1d1d"/>
    <path id="Path_651" data-name="Path 651" d="M651.33,78.58l22.265-27.03H629.07Z" transform="translate(-314.938 -24.022)" fill="#1d1d1d"/>
    <path id="Path_652" data-name="Path 652" d="M735.33,78.58l22.265-27.03H713.07Z" transform="translate(-354.419 -24.022)" fill="#1d1d1d"/>
    <path id="Path_653" data-name="Path 653" d="M902.885,78.58l22.26-27.03H880.62Z" transform="translate(-433.168 -24.022)" fill="#1d1d1d"/>
    <path id="Path_654" data-name="Path 654" d="M986.44,78.58,1008.7,51.55H964.18Z" transform="translate(-472.442 -24.022)" fill="#1d1d1d"/>
    <path id="Path_655" data-name="Path 655" d="M1070.44,78.58,1092.7,51.55H1048.18Z" transform="translate(-511.923 -24.022)" fill="#1d1d1d"/>
    <path id="Path_656" data-name="Path 656" d="M1153.995,78.58l22.26-27.03H1131.73Z" transform="translate(-551.192 -24.022)" fill="#1d1d1d"/>
    <path id="Path_657" data-name="Path 657" d="M1237.995,78.58l22.26-27.03H1215.73Z" transform="translate(-590.673 -24.022)" fill="#1d1d1d"/>
    <path id="Path_658" data-name="Path 658" d="M1489.1,78.58l22.26-27.03H1466.84Z" transform="translate(-708.696 -24.022)" fill="#1d1d1d"/>
    <path id="Path_659" data-name="Path 659" d="M1573.1,78.58l22.26-27.03H1550.84Z" transform="translate(-748.177 -24.022)" fill="#1d1d1d"/>
    <path id="Path_660" data-name="Path 660" d="M1656.66,78.58l22.265-27.03H1634.4Z" transform="translate(-787.451 -24.022)" fill="#1d1d1d"/>
    <path id="Path_661" data-name="Path 661" d="M1824.215,78.58l22.265-27.03h-44.53Z" transform="translate(-866.201 -24.022)" fill="#1d1d1d"/>
    <path id="Path_662" data-name="Path 662" d="M190.37,129.77l22.265-27.03H168.11Z" transform="translate(-98.283 -48.082)" fill="#1d1d1d"/>
    <path id="Path_663" data-name="Path 663" d="M106.145,129.77l22.265-27.03H83.88Z" transform="translate(-58.695 -48.082)" fill="#1d1d1d"/>
    <path id="Path_664" data-name="Path 664" d="M358.22,129.77l22.265-27.03H335.96Z" transform="translate(-177.174 -48.082)" fill="#1d1d1d"/>
    <path id="Path_665" data-name="Path 665" d="M525.775,129.77l22.26-27.03H503.51Z" transform="translate(-255.924 -48.082)" fill="#1d1d1d"/>
    <path id="Path_666" data-name="Path 666" d="M777.33,129.77l22.265-27.03H755.07Z" transform="translate(-374.159 -48.082)" fill="#1d1d1d"/>
    <path id="Path_667" data-name="Path 667" d="M860.885,129.77l22.26-27.03H838.62Z" transform="translate(-413.428 -48.082)" fill="#1d1d1d"/>
    <path id="Path_668" data-name="Path 668" d="M1112.44,129.77l22.265-27.03H1090.18Z" transform="translate(-531.663 -48.082)" fill="#1d1d1d"/>
    <path id="Path_669" data-name="Path 669" d="M1279.995,129.77l22.26-27.03H1257.73Z" transform="translate(-610.413 -48.082)" fill="#1d1d1d"/>
    <path id="Path_670" data-name="Path 670" d="M1363.55,129.77l22.265-27.03H1341.29Z" transform="translate(-649.687 -48.082)" fill="#1d1d1d"/>
    <path id="Path_671" data-name="Path 671" d="M1447.55,129.77l22.265-27.03H1425.29Z" transform="translate(-689.168 -48.082)" fill="#1d1d1d"/>
    <path id="Path_672" data-name="Path 672" d="M1531.1,129.77l22.26-27.03H1508.84Z" transform="translate(-728.437 -48.082)" fill="#1d1d1d"/>
    <path id="Path_673" data-name="Path 673" d="M1698.66,129.77l22.265-27.03H1676.4Z" transform="translate(-807.191 -48.082)" fill="#1d1d1d"/>
    <path id="Path_674" data-name="Path 674" d="M1782.66,129.77l22.265-27.03H1760.4Z" transform="translate(-846.672 -48.082)" fill="#1d1d1d"/>
    <path id="Path_675" data-name="Path 675" d="M1866.225,27.47,1888.485.44H1843.96Z" transform="translate(-885.946)" fill="#1d1d1d"/>
    <path id="Path_676" data-name="Path 676" d="M1908,78.58l22.265-27.03H1885.74Z" transform="translate(-905.582 -24.022)" fill="#1d1d1d"/>
    <path id="Path_677" data-name="Path 677" d="M1866.445,129.77l22.26-27.03H1844.18Z" transform="translate(-886.049 -48.082)" fill="#1d1d1d"/>
    <path id="Path_678" data-name="Path 678" d="M1950.115,129.77l22.26-27.03H1927.85Z" transform="translate(-925.374 -48.082)" fill="#1d1d1d"/>
    <path id="Path_679" data-name="Path 679" d="M148.445,180.88l22.26-27.03H126.18Z" transform="translate(-78.576 -72.104)" fill="#1d1d1d"/>
    <path id="Path_680" data-name="Path 680" d="M232.445,180.88l22.26-27.03H210.18Z" transform="translate(-118.057 -72.104)" fill="#1d1d1d"/>
    <path id="Path_681" data-name="Path 681" d="M316.295,180.88l22.26-27.03H294.03Z" transform="translate(-157.467 -72.104)" fill="#1d1d1d"/>
    <path id="Path_682" data-name="Path 682" d="M400.3,180.88l22.26-27.03H378.03Z" transform="translate(-196.947 -72.104)" fill="#1d1d1d"/>
    <path id="Path_683" data-name="Path 683" d="M483.85,180.88l22.265-27.03H461.59Z" transform="translate(-236.221 -72.104)" fill="#1d1d1d"/>
    <path id="Path_684" data-name="Path 684" d="M567.85,180.88l22.265-27.03H545.59Z" transform="translate(-275.702 -72.104)" fill="#1d1d1d"/>
    <path id="Path_685" data-name="Path 685" d="M651.405,180.88l22.26-27.03H629.14Z" transform="translate(-314.971 -72.104)" fill="#1d1d1d"/>
    <path id="Path_686" data-name="Path 686" d="M735.405,180.88l22.26-27.03H713.14Z" transform="translate(-354.452 -72.104)" fill="#1d1d1d"/>
    <path id="Path_687" data-name="Path 687" d="M818.96,180.88l22.265-27.03H796.7Z" transform="translate(-393.725 -72.104)" fill="#1d1d1d"/>
    <path id="Path_688" data-name="Path 688" d="M902.96,180.88l22.265-27.03H880.7Z" transform="translate(-433.206 -72.104)" fill="#1d1d1d"/>
    <path id="Path_689" data-name="Path 689" d="M986.515,180.88l22.26-27.03H964.25Z" transform="translate(-472.475 -72.104)" fill="#1d1d1d"/>
    <path id="Path_690" data-name="Path 690" d="M1070.515,180.88l22.26-27.03H1048.25Z" transform="translate(-511.956 -72.104)" fill="#1d1d1d"/>
    <path id="Path_691" data-name="Path 691" d="M1154.07,180.88l22.265-27.03H1131.81Z" transform="translate(-551.23 -72.104)" fill="#1d1d1d"/>
    <path id="Path_692" data-name="Path 692" d="M1238.07,180.88l22.265-27.03H1215.81Z" transform="translate(-590.71 -72.104)" fill="#1d1d1d"/>
    <path id="Path_693" data-name="Path 693" d="M1321.625,180.88l22.26-27.03H1299.36Z" transform="translate(-629.979 -72.104)" fill="#1d1d1d"/>
    <path id="Path_694" data-name="Path 694" d="M1405.625,180.88l22.26-27.03H1383.36Z" transform="translate(-669.46 -72.104)" fill="#1d1d1d"/>
    <path id="Path_695" data-name="Path 695" d="M1489.18,180.88l22.265-27.03H1466.92Z" transform="translate(-708.734 -72.104)" fill="#1d1d1d"/>
    <path id="Path_696" data-name="Path 696" d="M1573.18,180.88l22.265-27.03H1550.92Z" transform="translate(-748.215 -72.104)" fill="#1d1d1d"/>
    <path id="Path_697" data-name="Path 697" d="M1656.735,180.88l22.26-27.03H1634.47Z" transform="translate(-787.484 -72.104)" fill="#1d1d1d"/>
    <path id="Path_698" data-name="Path 698" d="M1740.735,180.88l22.26-27.03H1718.47Z" transform="translate(-826.964 -72.104)" fill="#1d1d1d"/>
    <path id="Path_699" data-name="Path 699" d="M22.965,27.47,45.225.44H.7Z" transform="translate(-19.599)" fill="#1d1d1d"/>
    <path id="Path_700" data-name="Path 700" d="M23.185,129.77,45.45,102.74H.92Z" transform="translate(-19.703 -48.082)" fill="#1d1d1d"/>
    <path id="Path_701" data-name="Path 701" d="M-18.74,180.88,3.525,153.85H-41Z" transform="translate(0 -72.104)" fill="#1d1d1d"/>
  </g>
</svg>
