<svg xmlns="http://www.w3.org/2000/svg" width="411" height="155" viewBox="0 0 411 155">
  <g id="Group_640" data-name="Group 640" transform="translate(-1093 -3500.637)">
    <path id="Path_415" data-name="Path 415" d="M-1706.962,323.122a5.889,5.889,0,0,0-8.406,0l-24.472,22.934-9.856-9.008a4.542,4.542,0,0,0-6.388,0l-49.256,39.49,75.178,75.166a3.546,3.546,0,0,0,5.028,0l75.178-75.166Zm.937,53.972a30.479,30.479,0,0,1,4.839,33.815,30.277,30.277,0,0,1-35.956,15.43c-16.132-4.939-23.557-21.64-15.486-34.818a21.509,21.509,0,0,1,30.057-6.734c8.663,5.586,10.045,17.114,2.832,23.636-5.508,4.972-14.059,4.46-18.061-1.093-2.955-4.1-1.583-9.176,2.921-10.881,2.876-1.082,5.374-.3,6.7,2.1,1.215,2.219.58,3.869-2.408,5.708a4.329,4.329,0,0,0,5.307-.479,7.581,7.581,0,0,0,1.605-10.068c-3.356-5.586-11.662-7.147-17.7-3.334a15.062,15.062,0,0,0-5.039,20.492c5.24,9.142,17.838,12.609,27.928,7.7a22.9,22.9,0,0,0,11.6-28.419,25.015,25.015,0,0,0-4.616-7.894,27.647,27.647,0,0,0-6.789-5.719h-74.988l38.029-29.244a3.386,3.386,0,0,1,4.727,0l4.75,4.326,3.155,2.888,4.894,4.471,2.932,2.687,12.7,11.584,3.8,3.289h11.751c-.2-.223-.368-.412-.579-.624l-.034-.045-3.323-3.021-.011-.011-19.711-17.983-1.583-1.449,17.515-16.4a4.342,4.342,0,0,1,6.221,0l42.2,39.534h-40.683C-1706.36,376.715-1706.2,376.893-1706.025,377.094Z" transform="translate(2898.34 3191.084)" fill="#fff"/>
    <text id="Piko" transform="translate(1264 3624.637)" fill="#fff" font-size="155" font-family="MrsEavesXLSerifOT-Reg, Mrs Eaves XL Serif OT" letter-spacing="-0.1em"><tspan x="0" y="0">Piko</tspan></text>
  </g>
</svg>
