<?xml version="1.0" encoding="UTF-8"?><svg id="Layer_2" xmlns="http://www.w3.org/2000/svg" xmlns:xlink="http://www.w3.org/1999/xlink" viewBox="0 0 1920 1079"><defs><style>.cls-1{fill:none;}.cls-2{clip-path:url(#clippath);}.cls-3{fill:#1fabcc;}.cls-4{fill:#286089;}</style><clipPath id="clippath"><rect id="Rectangle_791" class="cls-1" width="1920" height="1079"/></clipPath></defs><g id="Layer_1-2"><g class="cls-2"><g><rect id="Rectangle_791-2" class="cls-4" width="1920" height="1079"/><path class="cls-3" d="m903.63-57.82c-4,29.15-8,58.8-4.63,88.22,3.19,27.86,13.11,53.54,30.83,75.39,31.36,38.68,78.61,61.82,120.8,86.41,21.56,12.56,43.18,25.52,62.5,41.4,21.94,18.03,39.97,39.97,53.2,65.1,27.58,52.4,31.56,111.92,32.9,170,.8,34.56,1.06,69.22,5.64,103.54,3.55,26.63,9.86,52.71,19,77.98,17.98,49.68,45.46,95.19,77.81,136.78,71.23,91.56,164.66,164.52,260.62,228.47,107.34,71.53,220.97,133.52,338.61,186.36,14.84,6.67,29.74,13.18,44.7,19.56,8.25,3.52,15.44-8.62,7.11-12.17-118.23-50.43-232.71-109.77-341.3-178.61-98.36-62.36-194.3-132.24-271.8-219.9-35.17-39.78-66.26-83.61-88.76-131.84-10.74-23.02-19.31-47.06-25.28-71.75-7.46-30.81-10.06-62.36-11.17-93.96-2.12-60.32.04-121.79-18.6-179.98-8.28-25.84-20.34-50.51-36.78-72.16-16.03-21.11-35.68-38.45-57.38-53.53-41.6-28.91-88.59-49.51-128.92-80.32-19.16-14.64-36.58-32.15-47.4-53.95-13.03-26.25-14.73-56.15-12.82-84.91.94-14.19,2.76-28.31,4.69-42.39,1.22-8.87-12.36-12.7-13.59-3.75h0Z"/><path class="cls-3" d="m-56.09,10.94C-32.65,38.98-3.51,61.03,30.24,75.16c31.69,13.26,65.64,19.38,99.62,23.19,78.45,8.79,157.63,7.93,233.66,32.05,44.78,14.2,86.14,36.29,123.66,64.47,32.96,24.76,65.63,49.96,97.24,76.43,61.2,51.23,119.09,107.72,163.78,174.22,23.05,34.3,42.52,71.07,56.93,109.83,13.97,37.57,22.5,76.42,41.01,112.3,14.36,27.83,33.16,53.08,55.37,75.13,19.45,19.31,41.14,36.08,62.36,53.35,22.45,18.26,44.17,37.41,62.97,59.5,24.53,28.82,43.48,62.07,57.78,97.03,24.45,59.76,51.8,117.71,91,169.39,35.11,46.29,77.52,85.85,122.47,122.41,57.1,46.44,116.91,89.49,175.23,134.36,18.17,13.98,36.24,28.09,54.21,42.34,5.99,4.75,14.54-3.69,8.49-8.49-63.37-50.22-128.58-97.99-192.51-147.47-47.31-36.62-93.89-74.82-133.49-119.88-40.62-46.22-72.01-99.27-96.95-155.37-15.65-35.19-28.38-71.23-49.1-103.96-16.79-26.52-37.29-50.4-60.38-71.62-41.69-38.32-90.38-68.9-124.09-115.33-21.96-30.25-37.18-64.61-47.88-100.31-11.8-39.33-25.66-77.2-45.26-113.4-38.2-70.58-91.92-131.47-150.91-185.38-29.63-27.07-60.67-52.56-92.29-77.25-34.39-26.86-68.69-54.52-107.4-75-74.32-39.32-156.21-49.87-238.87-55.76-70.14-5-144.93-8.67-204.12-51.23C-22.35,29.82-35.68,16.71-47.61,2.45c-4.96-5.93-13.41,2.6-8.49,8.49h0Z"/><path class="cls-3" d="m1618.17-80.43c.17,55.17,7.77,110.34,22.32,163.56,14.54,53.19,36.03,104.58,63.78,152.23,26.76,45.94,59.49,88.41,97.1,125.98,36.43,36.4,77.41,68.35,121.53,94.91,44.12,26.56,91.55,47.79,140.82,62.81,6.1,1.86,12.23,3.62,18.39,5.29,7.46,2.02,10.65-9.55,3.19-11.57-48.92-13.27-96.04-32.65-140.22-57.5-44.17-24.85-85.29-55-122.18-89.76-37.68-35.51-70.78-75.69-98.23-119.59-28.62-45.78-51.16-95.24-67.04-146.84-15.87-51.57-25.11-105.14-27.06-159.07-.25-6.81-.37-13.62-.39-20.43-.02-7.72-12.02-7.74-12,0h0Z"/><path class="cls-3" d="m-38.07,744.01c31.32,25.92,68.86,41.67,104.72,60.04,17.79,9.12,35.39,18.99,51.23,31.26,14.42,11.17,27.41,24.39,38.51,38.86,22.9,29.85,38.3,64.96,47.16,101.4,9.88,40.67,11.02,82.87,6.63,124.38-4.84,45.86-16.53,90.82-30.75,134.6-1.76,5.43-3.57,10.84-5.41,16.24-1.04,3.07,1.2,6.56,4.19,7.38,3.29.9,6.33-1.11,7.38-4.19,15.07-44.29,27.86-89.58,34.35-136,6.1-43.64,6.75-88.08-1.73-131.45-7.37-37.69-21.47-74.55-42.94-106.51-10.65-15.85-23.08-30.59-37.26-43.4-15.02-13.56-31.92-24.77-49.58-34.57-35.29-19.6-73.48-34.17-106.52-57.7-3.94-2.81-7.78-5.75-11.51-8.84-2.49-2.06-6.04-2.44-8.49,0-2.13,2.13-2.51,6.41,0,8.49h0Z"/><path class="cls-3" d="m-77.07,361.4c39.04-5.46,75.94,16.24,104.44,40.72,31.36,26.93,58.22,59.53,82.74,92.67,24.91,33.66,47.52,68.94,69.93,104.29,22.55,35.58,44.34,72.07,69.9,105.6,12.69,16.65,26.5,32.5,42.52,46.05,15.43,13.05,32.54,23.95,50.56,33.06,36.98,18.68,76.91,30.03,116.52,41.63,40.13,11.75,80.83,24.56,115.25,49.09,31.5,22.45,54.76,54,61.15,92.65,6.86,41.5-4.69,84.28-18.38,123.18-14.95,42.48-32.86,84.05-52.19,124.7-4.88,10.27-9.89,20.48-15,30.64-3.46,6.88,6.88,12.96,10.36,6.06,20.95-41.6,39.94-84.17,56.9-127.54,15.82-40.45,30.78-82.61,32.1-126.48.63-20.96-2.19-42.32-9.94-61.89-7.12-17.96-17.87-34.1-31.24-48.02-28.58-29.78-66.39-47.93-104.92-61.19-40.82-14.04-83.06-23.55-123.31-39.3s-75.1-37-103.47-68.66c-28.47-31.77-50.62-69.13-73.39-105.04-23-36.26-45.77-72.71-70.6-107.77-24.62-34.76-51.26-68.4-81.77-98.22-28.12-27.49-62.7-53.05-102.76-58.15-9.59-1.22-19.04-.98-28.6.35-3.23.45-4.94,4.54-4.19,7.38.91,3.46,4.19,4.64,7.38,4.19h0Z"/><path class="cls-3" d="m258.91,364.39c-30.21-40.87-69.49-66.26-102.51-66.26-2.36,0-4.71.13-6.99.38-16.28,1.81-38.73,10.78-48.45,30.13-10.09,20.07-8.91,42.66,3.49,67.13,9.62,19.01,21.97,27.32,35.04,36.13,11.27,7.59,22.93,15.43,35.92,31.95,9.13,11.6,16.76,22.31,23.49,31.76,18.47,25.92,30.67,43.04,49.47,43.04.84,0,1.69-.04,2.53-.11,20.81-1.85,35.36-25.84,41.49-45.83,11.27-36.74-1.24-84.71-33.48-128.32Zm23.16,125.15c-4.54,14.78-16.25,36.83-32.13,38.24-19.4,1.72-32.88-28.47-66.04-70.61-29.35-37.3-53.8-34.65-69.82-66.28-9.61-18.97-12.86-38.72-3.47-57.4,7.88-15.69,27.13-22.82,39.99-24.24,63.77-7.06,154.26,106,131.47,180.29Z"/><path class="cls-3" d="m270.62,485.57c-1.49,13.45-5.05,24-20.93,25.41-19.4,1.72-28.14-26.69-60.42-69.51-25.91-34.38-43.99-31.53-59.17-50.08-6.43-7.86-15.9-31.08-8.97-49.33,5.17-13.63,17.04-19.51,29.9-20.93,63.77-7.06,128.17,87.2,119.59,164.43Z"/><path class="cls-3" d="m1989.26,379.77c-24.04,0-55.69-10.99-84.66-29.39-18.27-11.61-50.85-36.12-63.73-69.85-3.33-8.71-12.9-38.07,3.6-50.08,3.53-2.57,7.71-3.87,12.44-3.87,10.71,0,23.09,6.66,41.84,16.74,8.43,4.53,17.99,9.67,28.84,14.96,15.06,7.34,25.46,10.07,34.64,12.48,11.59,3.04,22.53,5.91,37.37,16.39,10.84,7.66,31.02,21.93,35.69,42.59,4.17,18.46-5.52,33.63-15.08,41.03-7.74,5.98-18.15,9.02-30.94,9.02Z"/><path class="cls-3" d="m2013.6,362.21c-33.1,25.58-139.69-25.46-162.64-85.54-4.56-11.95-8.54-31.38-.13-37.5,10.28-7.48,32.62,9.59,72.03,28.8,34.88,17,46.02,10.68,70.5,27.98,10.56,7.46,27.71,19.86,31.39,36.15,3.09,13.67-4.48,24.95-11.15,30.1Z"/><path class="cls-3" d="m1570.43,830.44c-11.28-14.86-22.36-20.85-34.1-27.19-9.22-4.99-19.67-10.64-32.76-22.11-9.45-8.28-17.51-16.06-24.62-22.92-18.24-17.61-30.3-29.25-45.1-29.25-2.31,0-4.63.31-6.88.93-18.13,4.92-27.36,27.84-29.75,45.97-3.7,28.06,8.86,60.9,34.47,90.11,29.19,33.29,68.5,54.8,100.15,54.8,6.2,0,12.12-.82,17.6-2.43,13.94-4.11,32.23-15.37,37.89-33.62,7.05-22.74-9.13-44.05-16.9-54.29Zm6.58,51.09c-4.45,14.35-19.85,23.29-30.62,26.46-53.43,15.73-147.13-65-138.46-130.71,1.72-13.07,8.52-33.34,21.87-36.96,16.32-4.43,32.22,18.77,66.66,48.95,30.47,26.71,47.12,23.66,65.36,47.7,7.87,10.36,20.49,27.48,15.19,44.56Z"/><path class="cls-3" d="m1564.68,879.31c-2.45,12.46-19.53,19.87-29.61,20.73-39.74,3.41-116.59-61.04-116.11-113.61.1-11.13,7.29-28.14,18.71-31.2,13.96-3.74,22.16,17.69,51.62,43.17,26.07,22.55,44.82,28.31,58.27,40.54,6.33,5.76,20.91,21.08,17.12,40.37Z"/><path class="cls-3" d="m445.44,1166.96c-8.15,0-28.48-1.63-41.13-16.75-7.71-9.2-14.86-26.59-5.21-57.16,6.86-21.72,16.27-32.89,25.37-43.69,7.18-8.51,14.6-17.32,22.06-32.58,6.49-13.27,10.98-24.67,14.58-33.83,8.04-20.42,13.85-35.17,31.36-37.48,1.17-.16,2.37-.23,3.56-.23,8.62,0,17.33,3.91,25.9,11.62,5.82,5.24,11.55,12.36,15.73,19.53,9.34,16.04,13.14,36.65,10.98,59.59-1.91,20.32-8.3,41.74-18.48,61.94-19.77,39.23-49.63,65.54-77.93,68.66-2.18.24-4.46.36-6.79.36h0Z"/><path class="cls-3" d="m451.05,1155.86c55.36-6.11,110.64-116.75,77.28-174.02-6.63-11.39-20.73-27.46-34.44-25.65-16.76,2.21-17.53,24.21-37.65,65.35-17.81,36.4-35.5,38.88-46.84,74.77-3.92,12.41-8.29,33.26,3.19,46.97,9.64,11.52,27.3,13.81,38.46,12.58Z"/><path class="cls-3" d="m730.53,288.1c-14.09-1.2-26.5-6.09-36.86-14.53-10.35-8.43-16.95-18.87-23.34-28.97-4.91-7.75-9.54-15.08-15.53-20.9-12.7-12.34-35.73-24.99-52.55-34.23-7.87-4.32-14.67-8.06-19.17-11.06-6.16-4.11-24.93-16.63-23.47-33.73.76-8.91,6.51-29.3,43.45-26.16,2.35.2,4.8.49,7.48.88,59.33,8.66,139.25,54.26,167.69,95.67,9.9,14.41,13.52,27.9,10.77,40.08-2.8,12.38-13.39,28.11-34.04,31.67-8.61,1.49-16.82,1.92-24.41,1.27h0Z"/><path class="cls-3" d="m778.44,252.77c9.7-42.9-96.94-112.1-169.48-122.68-12.23-1.78-36.96-3.89-38.61,15.51-.86,10.07,11.98,19.34,18.71,23.83,13.54,9.03,53.49,27.33,73.25,46.53,15.05,14.62,21.57,35.71,38.17,49.24,15.31,12.47,34.03,14.2,52.61,10.99,15.6-2.7,23.39-14.77,25.35-23.41Z"/></g></g></g></svg>